<?xml version="1.0" encoding="UTF-8"?>
<svg id="Layer_1" data-name="Layer 1" xmlns="http://www.w3.org/2000/svg" viewBox="0 0 266.44 162.15">
  <defs>
    <style>
      .cls-1 {
        fill: #fa84a1;
      }

      .cls-2 {
        fill: #d33c6e;
      }
    </style>
  </defs>
  <path class="cls-1" d="M157.11,17.97s-7.38,13.82-5.68,83.52c0,0,0,54.83,23.72,55.97,23.72,1.14,27.98-4.12,24.86-21.73-3.12-17.61-.85-19.46-.85-19.46,0,0,3.34-6.89,13.35-4.33,0,0,4.34.75,4.34,7.57s-6.72,20.84,5.78,35.41c0,0,13.54,8.86,28.69-4.02,0,0,4.54-2.46,9.47-29.16,4.92-26.7,4.55-60.61,4.55-60.61,0,0,.94-29.16-6.25-45.27-7.2-16.1-27.84-10.8-27.84-10.8,0,0-15.88.3-15.88,33.4,0,0,1.75,21.12-4.97,22.63-6.72,1.51-9.95-3.41-9.05-13.73.9-10.32,2.74-23.09-.01-30.86-2.75-7.77-13.26-11.08-18.46-10.89-5.21.19-20.05-1.63-25.74,12.35h0Z"/>
  <path class="cls-2" d="M233.96,158.95c-7.06,0-11.85-3.05-11.94-3.11l-.13-.09-.1-.12c-10.08-11.76-8.06-23.24-6.72-30.83.37-2.08.68-3.88.68-5.29,0-5.84-3.4-6.5-3.43-6.5h-.08c-8.98-2.31-11.98,3.49-12.1,3.75l-.11.21-.08.07c-.22.41-1.51,3.62,1.13,18.51,1.67,9.4,1.1,14.66-1.97,18.15-3.6,4.09-10.56,5.51-24.01,4.86-24.47-1.18-24.76-54.77-24.76-57.05-1.65-67.65,5.19-82.81,5.78-83.98,5.35-13.07,18.42-13,24.68-12.97.77,0,1.45,0,2.01-.01,5.15-.18,16.52,3.12,19.53,11.62,2.43,6.86,1.41,17.4.5,26.69-.15,1.58-.31,3.13-.43,4.63-.51,5.82.33,9.86,2.41,11.68,1.26,1.1,3.05,1.4,5.31.89,4.23-.95,4.77-13.68,4.12-21.48v-.09c0-32.58,15.13-34.39,16.82-34.49,1.74-.41,21.79-4.66,28.99,11.43,7.22,16.14,6.38,44.54,6.35,45.75,0,.29.33,34.27-4.56,60.77-4.57,24.79-8.93,29.16-9.88,29.83-6.56,5.56-12.88,7.17-18.01,7.17h.01ZM223.34,154.1c1.43.88,13.54,7.65,27.27-4.02l.19-.13c.12-.09,4.29-3.31,8.92-28.41,4.85-26.3,4.53-60.06,4.53-60.4,0-.33.86-29.15-6.16-44.83-6.74-15.06-25.77-10.39-26.58-10.19l-.25.04c-.14,0-14.8.84-14.82,32.27.2,2.46,1.57,22.08-5.82,23.74-2.98.67-5.41.21-7.22-1.38-2.66-2.33-3.72-6.88-3.14-13.51.13-1.5.28-3.06.43-4.65.88-9.07,1.87-19.35-.39-25.75-2.51-7.1-12.52-10.35-17.4-10.16-.59.02-1.3.01-2.11.01-6.25-.04-17.89-.09-22.67,11.65l-.04.09c-.12.23-7.22,14.99-5.55,82.99,0,.57.27,53.83,22.69,54.91,12.53.6,19.2-.63,22.27-4.12,2.54-2.89,2.98-7.78,1.47-16.33-2.69-15.17-1.53-19.21-.68-20.28.61-1.07,4.62-7.27,14.49-4.76.59.12,5.18,1.33,5.18,8.64,0,1.6-.33,3.49-.72,5.67-1.34,7.59-3.16,17.98,6.13,28.92h0ZM199.86,117.1v.02s0,0,0-.02Z"/>
  <path class="cls-1" d="M96.14,14.46s-32.67,25.91-9.37,65.51c0,0,5.59,11.95,28.22,24.92,0,0,12.22,4.36,5.21,12.69-7.01,8.33-28.13-6.16-28.13-6.16,0,0-17.33-9.85-11.55,22.35,5.78,32.2,53.31,26.96,53.31,26.96,0,0,33.14-3.66,43.18-34.53s-24.05-55.87-24.05-55.87c0,0-22.89-16.24-24.34-18.51-1.44-2.27-3.08-8.81.47-12,3.55-3.19,12.15-7.25,13.42,7.46,0,0,.22,7.96,14.71,5.68s16.05-21.45,16.05-21.45c0,0,4.87-27.7-44.66-30.4,0,0-18.43-.99-32.48,13.35Z"/>
  <path class="cls-2" d="M126.53,162.15c-4.62,0-10.9-.35-17.43-1.75-16.96-3.65-27.22-12.79-29.66-26.43-2.28-12.73-1.27-20.71,3.01-23.74,4.28-3.02,9.91.12,10.15.25l.08.05c5.65,3.87,21.45,12.57,26.67,6.35,1.61-1.92,2.21-3.72,1.77-5.35-.97-3.59-6.45-5.6-6.51-5.61l-.17-.08c-22.16-12.7-28.16-24.37-28.64-25.36-12.24-20.84-8.97-37.92-4.07-48.57,5.13-11.17,12.89-17.61,13.68-18.26C109.63-.83,127.9-.02,128.68.02c19.81,1.08,33.5,6.21,40.68,15.25,6.19,7.8,5.12,15.62,4.99,16.38-.11,1.14-2.18,20.07-16.96,22.38-6.14.96-10.64.28-13.42-2.02-2.45-2.04-2.55-4.6-2.55-4.7-.44-5.09-1.87-8.29-4.12-9.18-2.26-.89-5.39.61-7.49,2.5-3.09,2.79-1.44,8.79-.28,10.61.89,1.38,13.05,10.41,24.05,18.21.37.27,8.76,6.48,16.04,16.61,9.72,13.52,12.63,27.52,8.41,40.48-10.14,31.18-43.76,35.24-44.1,35.28-.24.03-3.1.33-7.42.33h0ZM86.79,111.1c-1.05,0-2.14.23-3.09.91-2.42,1.72-4.76,6.86-2.12,21.58,5.53,30.82,51.66,26.11,52.12,26.06.33-.04,32.57-3.96,42.27-33.79,9.68-29.75-23.33-54.41-23.66-54.65-3.84-2.72-23.12-16.47-24.61-18.8-1.52-2.4-3.5-9.65.66-13.39,2.52-2.27,6.4-4.22,9.74-2.9,3.12,1.23,4.96,4.95,5.5,11.08,0,.12.11,1.81,1.82,3.19,1.56,1.27,4.85,2.57,11.64,1.5,13.46-2.11,15.12-20.28,15.14-20.46v-.1c.03-.07,1.21-7.49-4.57-14.74-6.79-8.5-19.93-13.34-39.05-14.38-.18,0-18.12-.78-31.65,13.02l-.1.09c-.08.07-8.07,6.51-13.15,17.58-6.77,14.8-5.42,30.45,4.04,46.52l.05.09c.05.12,5.77,11.8,27.7,24.39.85.32,6.59,2.63,7.78,7.06.64,2.36-.1,4.83-2.21,7.32-1.79,2.13-4.36,2.96-7.22,2.96-9.06,0-21.24-8.15-22.3-8.88-.29-.15-2.42-1.26-4.7-1.26h0Z"/>
  <path class="cls-1" d="M28.47,9.55S-14.15,44.63,6.87,121.55c0,0,19.89,53.62,66.48,35.44,46.59-18.18,27.84-56.82,27.84-56.82,0,0-7.96-17.61-30.68.57,0,0-20.88,19.94-23.15-3.93-2.27-23.86-.86-36.32-.86-36.32.26-3.32.25-24.82,16.1-1.55,13.78,20.22,51,.99,34.66-30.68C80.93-3.42,51.81,1.69,51.81,1.69c0,0-14.3.81-23.34,7.86Z"/>
  <path class="cls-2" d="M54.75,161.84c-5.97,0-11.69-1.22-17.14-3.67-21.72-9.74-31.36-35.17-31.76-36.25l-.03-.1C-5.12,81.79,1.39,53.2,8.78,36.27,16.82,17.86,27.33,9.07,27.77,8.71h.02C36.81,1.66,50.55.67,51.69.61c1.65-.25,30.42-4.1,46.54,27.15,8.85,17.16,2.43,31.02-7.86,37.14-8.84,5.27-21.53,5.13-28.67-5.35-6.82-10-9.9-10.43-10.91-10.14-1.75.49-2.81,3.95-3.16,10.29-.02.36-.04.65-.05.87-.01.16-1.38,12.69.86,36.13.56,5.84,2.27,9.33,5.1,10.39,6.2,2.32,16.12-7.04,16.21-7.14l.07-.07c8.6-6.88,16.2-9.59,22.59-8.06,6.88,1.66,9.66,7.64,9.77,7.89.31.62,7.61,16.02,1.26,32.23-4.44,11.33-14.43,20.1-29.7,26.06-6.55,2.56-12.9,3.83-19,3.83h0ZM7.91,121.21c.45,1.18,10.12,25.8,30.6,34.98,10.47,4.69,22.06,4.62,34.44-.22,14.67-5.72,24.24-14.07,28.45-24.8,6.01-15.3-1.13-30.38-1.2-30.53-.04-.08-2.5-5.31-8.33-6.7-5.68-1.35-12.63,1.21-20.65,7.62-.81.76-11.11,10.31-18.44,7.57-3.68-1.37-5.87-5.48-6.51-12.22-2.26-23.7-.87-36.42-.86-36.55.01-.17.03-.45.04-.78.2-3.61.6-11.12,4.75-12.28,3.32-.93,7.54,2.57,13.29,11.01,6.38,9.36,17.79,9.45,25.76,4.7,9.41-5.6,15.23-18.38,7.04-34.27-6.61-12.82-16.07-21.1-28.09-24.58-8.99-2.61-16.14-1.42-16.21-1.4h-.12c-.14.02-14.06.89-22.72,7.64-.37.3-10.7,9.11-18.42,26.86-7.22,16.59-13.56,44.62-2.82,83.96h0Z"/>
</svg>