<?xml version="1.0" encoding="UTF-8"?>
<svg id="Layer_1" data-name="Layer 1" xmlns="http://www.w3.org/2000/svg" viewBox="0 0 489.68 304.95" preserveAspectRatio="none">
  <defs>
    <style>
      .cls-1 {
        fill: #fff1c5;
      }

      .cls-2 {
        fill: #f4d47b;
      }
    </style>
  </defs>
  <path class="cls-1" d="M193.05,303.95H5.22c-2.33,0-4.22-2.23-4.22-4.98V32.2c0-2.75,1.89-4.98,4.22-4.98h301.27c9.74-.2,15.66-7.3,20.7-17.49,5.04-10.19,24.52-8.63,24.52-8.63,0,0,72.71.59,86.49.39,0,0,17.13-1.47,23.17,8.53,6.05,10,7.31,17.05,21.17,17.2h1.92c2.33,0,4.22,2.23,4.22,4.98v266.78c0,2.75-1.89,4.98-4.22,4.98H193.05Z"/>
  <path class="cls-2" d="M484.46,304.95H5.22c-2.88,0-5.22-2.68-5.22-5.98V32.2c0-3.3,2.34-5.98,5.22-5.98h301.27c8.09-.16,14.02-5.23,19.8-16.94C331.58-1.4,350.97.03,351.79.1c.65,0,72.79.58,86.39.39.65-.06,17.75-1.4,24.04,9.01.98,1.63,1.83,3.15,2.64,4.62,4.14,7.47,6.63,11.98,17.68,12.1h1.9c2.88,0,5.22,2.68,5.22,5.98v266.78c0,3.3-2.34,5.98-5.22,5.98ZM5.22,28.22c-1.78,0-3.22,1.79-3.22,3.98v266.78c0,2.19,1.45,3.98,3.22,3.98h479.24c1.78,0,3.22-1.79,3.22-3.98V32.2c0-2.19-1.45-3.98-3.22-3.98h-1.92c-12.22-.13-15.24-5.58-19.42-13.13-.81-1.46-1.64-2.96-2.6-4.55-5.66-9.36-22.07-8.06-22.23-8.05-13.7.19-85.85-.39-86.58-.39-.26-.02-18.94-1.39-23.61,8.07-4.35,8.8-10.31,17.82-21.58,18.05H5.22Z"/>
</svg>