<?xml version="1.0" encoding="UTF-8"?>
<svg id="Layer_1" data-name="Layer 1" xmlns="http://www.w3.org/2000/svg" xmlns:xlink="http://www.w3.org/1999/xlink" viewBox="0 0 576.73 681">
  <defs>
    <style>
      .cls-1 {
        fill: #ff8ec0;
      }

      .cls-2 {
        fill: #fff792;
      }

      .cls-3 {
        fill: none;
      }

      .cls-4 {
        clip-path: url(#clippath);
      }
    </style>
    <clipPath id="clippath">
      <rect class="cls-3" x="432.37" y="498.25" width="106.12" height="105.39"/>
    </clipPath>
  </defs>
  <g class="cls-4">
    <g>
      <path class="cls-2" d="M535.3,528.9c-.1-.31-.26-.63-.42-.91-.7-1.2-1.85-2.03-3.1-2.66-4.8-2.37-10.48-1.41-15.73-.39-6.44,1.25-12.99,2.56-18.75,5.87-2.22-9.02-4.3-18.59-10.15-25.92-1.28-1.62-2.87-3.16-4.88-3.6-2.66-.57-5.45.99-7.02,3.21-1.56,2.22-2.16,4.98-2.53,7.69-1.12,7.82-.91,15.83.65,23.58-9.39-1.02-18.93-.26-28.06,2.16-2.19.6-4.41,1.3-6.29,2.58-1.88,1.28-3.42,3.23-3.7,5.5-.55,4.04,2.87,7.54,6.36,9.65,8.11,4.9,17.89,6.15,27.18,7.46-3.76,8.89-6.21,18.33-7.28,27.91-.34,3.05-.34,6.68,2.11,8.58,1.56,1.23,3.81,1.33,5.71.73,1.9-.6,3.55-1.83,5.09-3.05,7.51-6,14.03-13.22,19.19-21.31,6.31,5.87,13.77,10.51,21.85,13.59,2.53.96,5.4,1.77,7.9.76,2.74-1.12,4.25-4.22,4.28-7.2s-1.17-5.79-2.56-8.4c-4.04-7.67-9.78-14.4-16.77-19.51,8.45-3.99,16.17-9.47,22.77-16.07,1.49-1.49,2.95-3.1,3.81-5.03.7-1.62.94-3.52.36-5.19l-.05-.03Z"/>
      <path class="cls-2" d="M537.83,527.43c-3.23-6.94-12.39-6.96-18.86-5.97-7.93,1.2-16.09,2.92-23.18,6.83l4.3,1.75c-1.7-6.89-3.31-13.87-6.47-20.26-2.56-5.22-7.12-12.52-13.93-11.37-6.81,1.15-9.08,7.8-9.91,13.67-1.15,8.19-.83,16.4.73,24.52l2.82-3.7c-8.63-.86-17.37-.37-25.85,1.54-6.44,1.41-15.13,4.36-15.13,12.52,0,6.96,7.09,11.29,12.7,13.72,7.3,3.13,15.2,4.2,23.03,5.32l-2.06-3.6c-3.23,7.82-5.56,15.96-6.81,24.33-.83,5.58-2.03,13.64,4.54,16.3,6.57,2.66,12.94-3.44,17.45-7.59,5.76-5.29,10.77-11.37,15.02-17.94l-4.62.6c5.74,5.24,12.21,9.62,19.33,12.75,6.23,2.74,14.47,5.19,18.39-2.32,3.39-6.55-.5-13.87-4.07-19.46-4.09-6.39-9.31-11.84-15.39-16.35v5.06c6.81-3.26,13.12-7.41,18.86-12.34,5.09-4.38,11.29-9.81,9.41-17.26-.91-3.65-6.57-2.11-5.66,1.56,1.33,5.35-7.04,10.95-10.67,13.8-4.62,3.6-9.65,6.62-14.92,9.15-2.19,1.04-1.59,3.89,0,5.06,4.51,3.36,8.53,7.43,11.76,12.02,2.74,3.86,7.17,9.86,5.89,14.81-2.61,10.15-25.04-7.2-28.82-10.64-1.43-1.3-3.55-1.04-4.62.6-3.29,5.06-7.04,9.78-11.32,14.06-1.83,1.83-3.73,3.57-5.71,5.24-1.8,1.51-5.22,4.9-7.9,3.86-4.15-1.62-.91-12.34-.29-15.36,1.33-6.31,3.29-12.44,5.74-18.39.55-1.33-.63-3.42-2.06-3.6-5.76-.81-11.58-1.59-17.19-3.23-4.43-1.3-12.75-3.91-14.06-9.15-1.64-6.6,10.8-8.03,14.94-8.74,6.62-1.1,13.38-1.17,20.06-.5,2.03.21,3.16-2.03,2.82-3.7-1.15-5.89-1.51-11.87-1.1-17.84.23-3.39.68-13.72,6.26-13.04,2.53.29,4.54,3.89,5.66,5.79,1.36,2.24,2.43,4.62,3.31,7.07,1.72,4.77,2.87,9.7,4.07,14.63.47,1.88,2.69,2.63,4.3,1.75,5.42-3,11.45-4.28,17.47-5.45,4.69-.91,13.9-3.13,16.51,2.5,1.59,3.42,6.65.44,5.06-2.97l.13-.03Z"/>
      <path class="cls-1" d="M444.94,522.84c-5.76,11.42,4.82,23.29,12.39,30.77v-4.15c-4.88,4.25-9.78,8.55-13.43,13.95-3.29,4.85-6.42,11.94-2.79,17.45,7.56,11.48,25.82-.29,32.99-6.29l-4.9-1.3c1.8,6.68,4.93,13.07,8.71,18.83,3.29,5.01,8.14,9.49,14.58,9.05,14.37-.99,11.61-23.78,9.28-32.99l-2.82,3.7c9.05-.37,30.17-.78,31.17-13.59.44-5.58-3.7-9.81-8.27-12.26-5.79-3.1-12.23-5.14-18.65-6.42l2.06,3.6c3-9.15,8.4-30.23-4.88-34.3-13.27-4.07-23.08,11.97-26.21,22.04l4.3-1.75c-8.08-5.37-25.48-17.94-33.51-6.36-2.16,3.1,2.92,6.05,5.06,2.97,2.82-4.07,10.28-.34,13.56,1.28,4.17,2.03,8.03,4.64,11.92,7.2,1.64,1.1,3.78-.03,4.3-1.75,1.43-4.62,3.91-8.76,7.12-12.39,2.79-3.16,7.22-7.28,11.87-5.56,4.36,1.62,4.12,7.38,3.91,11.19-.31,5.42-1.46,10.72-3.13,15.88-.47,1.43.55,3.31,2.06,3.6,4.46.89,8.87,2.14,13.07,3.89,3.42,1.41,9.49,3.7,9.6,8.19.1,4.49-6.81,6.26-10.2,6.96-4.98,1.04-10.07,1.51-15.15,1.72-1.93.08-3.31,1.8-2.82,3.7,1.33,5.19,4.88,27.57-5.76,25.45-4.59-.91-7.22-5.66-9.36-9.36-2.58-4.49-4.75-9.13-6.1-14.14-.63-2.27-3.26-2.66-4.9-1.3-3.73,3.1-7.93,5.71-12.44,7.48-3.44,1.38-11.68,3.76-12.15-2.32-.34-4.51,3.52-9.49,6.31-12.67,2.97-3.39,6.42-6.34,9.81-9.31,1.2-1.04,1.07-3.1,0-4.15-5.27-5.22-15.7-15.31-11.48-23.65,1.7-3.36-3.36-6.34-5.06-2.97l-.05.05Z"/>
    </g>
  </g>
</svg>