<?xml version="1.0" encoding="UTF-8"?>
<svg id="Layer_1" data-name="Layer 1" xmlns="http://www.w3.org/2000/svg" viewBox="0 0 576.73 681">
  <defs>
    <style>
      .cls-1 {
        fill: #987adb;
      }

      .cls-2 {
        fill: #f9cbe8;
      }
    </style>
  </defs>
  <path class="cls-2" d="M449.56,515.45c-2.19-1.21-3.93-3.14-4.39-5.57-.65-3.52,1.45-6.94,3.62-9.79,8.1-10.61,18.52-19.44,30.31-25.68-8.75-8.56-17.92-17.46-22.14-28.99-1.69-4.65-2.15-10.71,1.78-13.72,3.01-2.32,7.33-1.78,10.95-.63,11.38,3.62,20.72,11.84,29.93,19.32,6.2-11.02,14.73-20.69,24.91-28.19,2.17-1.62,4.58-3.18,7.31-3.3,4.15-.22,7.86,3.13,9.31,7.04,1.45,3.91,1.11,8.22.48,12.35-1.47,9.91-4.34,19.63-8.54,28.75,12.15,1.66,25.3,3.5,34.51,11.77,3.67,3.28,6.66,8.3,5.16,12.97-1.01,3.18-3.93,5.5-7.09,6.61-3.16,1.11-6.58,1.18-9.93,1.21-9,0-17.97-.41-26.91-1.28.84,13,1.42,26.17-1.21,38.9-.72,3.47-1.91,7.24-4.94,9.12-3.06,1.9-7.23,1.18-10.2-.89-2.97-2.07-4.97-5.23-6.68-8.42-5.98-11.02-9.69-23.25-10.88-35.74-10.18,5.18-20.38,10.51-31.28,13.96-3.47,1.11-7.14,2-10.73,1.37-1.16-.19-2.32-.6-3.35-1.18v.02Z"/>
  <path class="cls-2" d="M451.4,512.32c-4.22-2.53-2.44-6.32-.05-9.62,2.53-3.52,5.52-6.78,8.61-9.81,6.22-6.13,13.29-11.24,20.98-15.36,2.05-1.09,2.34-4.1.72-5.69-5.47-5.35-11.09-10.71-15.53-16.98-3.16-4.49-8.83-12.78-6.37-18.62,2.7-6.46,14.66.46,18.3,2.58,6.85,3.98,12.88,9.16,19,14.13,1.76,1.42,4.44,1.45,5.69-.72,3.64-6.39,7.98-12.3,13.09-17.6,2.53-2.63,5.23-5.11,8.08-7.4,2.39-1.93,6-5.45,9.36-4.56,7.55,2.03,5.11,13.72,4.1,19.05-1.54,8.08-4.03,15.99-7.43,23.49-.84,1.83-.39,4.97,2.17,5.31,6.95.96,13.96,1.91,20.64,4.1,6.05,2,13.65,5.64,16.21,11.94,3.57,8.73-9.12,9.41-14.4,9.38-8.58,0-17.17-.46-25.73-1.28-1.86-.17-3.74,1.81-3.62,3.62.58,8.8,1.04,17.63.43,26.43-.29,4.29-.8,8.63-1.83,12.83-.8,3.23-2.27,6.78-6.22,6.17-3.62-.55-6-3.91-7.72-6.82-2.17-3.66-4.03-7.6-5.57-11.57-2.99-7.72-4.97-15.82-5.79-24.04-.27-2.77-2.85-4.44-5.45-3.14-6.75,3.45-13.5,6.97-20.5,9.91-3.42,1.45-6.9,2.75-10.44,3.83-3.55,1.08-7.36,2.1-10.78.41-4.17-2.05-7.84,4.17-3.64,6.24,8.05,3.98,16.93.44,24.67-2.65,8.34-3.33,16.35-7.43,24.36-11.53l-5.45-3.13c1.01,10.32,3.52,20.31,7.62,29.83,3.52,8.15,8.46,19.08,18.62,19.87,11.09.87,13.55-10.92,14.66-19.41,1.47-11.04.96-22.19.24-33.26l-3.62,3.62c10.59,1.01,21.87,2.17,32.51,1.04,8.2-.89,16.64-6.37,15.24-15.68-1.25-8.44-9.36-14.35-16.61-17.58-8.2-3.64-17.07-4.94-25.9-6.15l2.17,5.31c4.27-9.45,7.38-19.34,8.9-29.59,1.25-8.44.77-18.95-8.27-22.93-9.04-3.98-17.44,4.85-23.27,10.39-6.73,6.39-12.47,13.82-17.07,21.87l5.69-.72c-7.62-6.2-15.17-12.83-24.04-17.19-7.09-3.5-18.33-7.55-23.9.65-4.94,7.33-.55,17.27,3.47,23.92,4.99,8.25,11.99,15.05,18.83,21.73l.72-5.69c-9.96,5.33-19.05,12.4-26.6,20.84-3.45,3.86-7.64,8.32-8.87,13.48-1.3,5.43,1.25,10.18,5.91,12.97,4,2.39,7.64-3.86,3.64-6.24l.02.05Z"/>
  <path class="cls-1" d="M567.22,460.47c-.36-8.71-7.64-13.19-15.39-15.07-8.88-2.17-18.01-2.27-27.01-.72l4.58,3.5c.82-11.65,2.97-39.89-15.29-39.33-7.48.24-13.75,5.52-17.34,11.74-3.88,6.7-6.66,15.6-7.21,23.32l5.45-3.14c-7.11-4.17-15.19-6.51-23.44-6.68-7.5-.14-16.57.8-19.63,8.75-3.06,7.96,1.37,14.95,6.17,20.62,5.14,6.08,11.6,11.02,18.71,14.57l-.72-5.69c-5.88,5.16-10.3,13.22-13.24,20.4-2.94,7.19-3.11,14.98,1.95,20.88,5.5,6.42,13.99,5.06,20.74,1.59,7.6-3.91,14.49-9.38,20.43-15.46l-6.05-1.59c2.87,7.21,6.85,13.58,13,18.45,6.15,4.87,14.18,8.85,22.07,6.82,9.16-2.36,10.08-11.84,9.14-19.87-1.08-9.09-4.94-17.48-9.69-25.22l-2.17,5.31c13.43-2.41,33.76-5.96,34.94-23.2.31-4.65-6.92-4.63-7.23,0-.41,5.84-6.29,9.89-11.21,11.94-5.81,2.44-12.25,3.18-18.42,4.29-2.29.41-3.3,3.47-2.17,5.31,3.54,5.74,6.58,11.82,8.1,18.42.77,3.4,1.09,6.92.75,10.42-.31,3.28-1.33,5.31-4.85,5.81-5.72.8-11.79-2.97-15.89-6.58-4.29-3.83-7.28-8.49-9.4-13.79-.96-2.41-3.98-3.71-6.05-1.59-4.49,4.58-9.4,8.63-14.88,11.99-4.34,2.68-11.89,7.31-16.01,1.93-3.52-4.61-1.71-10.8.6-15.46,2.75-5.52,5.91-11.53,10.61-15.65,1.69-1.47,1.28-4.68-.72-5.69-5.28-2.65-10.1-6-14.28-10.2-3.76-3.79-9.09-9.43-7.79-15.26s10.13-5.18,14.71-4.92c6.46.36,12.68,2.36,18.23,5.62,2.51,1.47,5.26-.46,5.45-3.14.41-5.84,2.68-12.66,5.28-17.89,2.32-4.65,6.39-9.65,12.03-9.94,5.93-.29,7.23,7.02,7.96,11.55,1.09,6.78.6,13.75.12,20.55-.17,2.56,2.44,3.86,4.58,3.5,6.51-1.13,13.26-1.18,19.77,0,4.97.89,13.17,2.44,13.43,8.8.19,4.63,7.43,4.65,7.24,0l.05.02Z"/>
</svg>