<?xml version="1.0" encoding="UTF-8"?>
<svg id="Layer_1" data-name="Layer 1" xmlns="http://www.w3.org/2000/svg" viewBox="0 0 2596.76 3953.97">
  <defs>
    <style>
      .cls-1 {
        fill: #fef3ed;
      }

      .cls-2 {
        opacity: .2;
      }

      .cls-3 {
        fill: gray;
      }

      .cls-4 {
        fill: #fbeda6;
      }

      .cls-5 {
        opacity: .22;
      }
    </style>
  </defs>
  <g class="cls-5">
    <path class="cls-3" d="M2432.32,1073.21c7.61,129.87,15.14,258.98,22.18,383.92,17.02,233.66,41.82,571.64,58.84,805.3,11.23,184.91,27.72,463.34,38.95,648.25,7.01,179.12,20.45,382.51,32.59,560.98,3.81,49.1,7.63,98.2,11.44,147.3.18,2.29.18,5.11-1.19,6.3-.58.5-1.27.57-1.94.62-28.65,2.42-59.03,8.69-85.47,15.02-84.14,12.5-188.96,21.77-273.45,24.3,3.69,6.03-37.26,17.61-33.57,23.64-182.15-6.11-372.85,47.71-565.8,80.84-159.8,22.37-319.6,44.73-479.41,67.1-53.08,7.43-106.15,14.86-159.23,22.29-31.67,4.43-63.34,8.87-95.02,13.3-163.85,22.23-352.9,53.97-516.75,76.19-39.1-.76-82.22,0-121.23,4.77-2.32.28-5.68.87-7.23-1.64-1.01-1.63-.56-4.43-.74-6.61-1.93-23.91-2.33-48.1-1.17-72.16,61.26-250.99,150.12-520.53,232.85-758.5,179.31-515.8,359.32-1033.32,583.45-1511.33,224.13-478.02,495.14-918.3,827.8-1236.84,77.2-73.92,157.46-141.05,240.18-200.9,40.5-29.3,133.4-98.56,177.1-83.27,20.21-9.17,41.03-15.44,62.05-18.67,5.21,150.31,12.64,300.43,22.28,450.21,10.21,181.23,21.44,371.22,32.49,559.6Z"/>
    <path class="cls-3" d="M2431.94,1073.21c.82,13.92,1.63,27.83,2.45,41.75.81,13.89,1.63,27.78,2.44,41.67.81,13.81,1.61,27.63,2.42,41.44.8,13.77,1.6,27.54,2.4,41.32.8,13.72,1.59,27.44,2.38,41.16s1.58,27.41,2.37,41.11,1.57,27.27,2.35,40.91c.77,13.52,1.54,27.04,2.31,40.56s1.53,26.87,2.28,40.3c.35,6.12.67,12.25,1.11,18.36.35,4.84.7,9.68,1.06,14.52.73,10.01,1.46,20.02,2.19,30.04s1.51,20.64,2.26,30.95c.77,10.56,1.54,21.12,2.31,31.69.79,10.81,1.58,21.62,2.37,32.42.81,11.03,1.61,22.05,2.42,33.08s1.64,22.49,2.47,33.74,1.67,22.81,2.5,34.22c.84,11.5,1.68,23.01,2.52,34.51.85,11.6,1.7,23.21,2.55,34.81s1.71,23.35,2.56,35.03,1.72,23.51,2.58,35.27c.86,11.77,1.72,23.54,2.58,35.31s1.72,23.44,2.57,35.16,1.71,23.36,2.56,35.03c.85,11.61,1.7,23.21,2.55,34.82.84,11.54,1.69,23.08,2.53,34.62.83,11.41,1.67,22.82,2.5,34.22s1.64,22.43,2.46,33.64,1.61,22.05,2.42,33.08c.79,10.81,1.58,21.62,2.37,32.43s1.55,21.25,2.33,31.88c.75,10.29,1.5,20.57,2.25,30.86.73,9.98,1.46,19.97,2.18,29.95.7,9.57,1.4,19.14,1.98,28.72.58,9.59,1.16,19.19,1.74,28.78s1.22,20.12,1.82,30.18,1.25,20.71,1.87,31.07c.64,10.67,1.28,21.33,1.92,32s1.31,21.86,1.97,32.79,1.34,22.3,2.01,33.44c.68,11.39,1.36,22.77,2.05,34.16s1.37,22.89,2.06,34.33,1.38,23.04,2.07,34.57c.69,11.55,1.38,23.11,2.07,34.66s1.38,23.08,2.07,34.61c.69,11.55,1.38,23.09,2.07,34.64s1.36,22.74,2.04,34.1,1.34,22.43,2.02,33.64,1.32,22.03,1.98,33.04,1.3,21.59,1.95,32.39,1.26,21,1.9,31.5,1.22,20.26,1.83,30.39,1.18,19.48,1.77,29.23c.29,4.74.57,9.48.86,14.22.34,5.53.54,11.07.77,16.61.5,12.43,1.03,24.87,1.58,37.3s1.14,25.24,1.74,37.86c.61,12.74,1.24,25.47,1.88,38.21.65,12.86,1.32,25.72,2.01,38.57s1.4,25.9,2.13,38.85c.73,13.05,1.48,26.1,2.24,39.14.76,13.08,1.54,26.15,2.32,39.23.78,13.04,1.58,26.07,2.39,39.1.81,13,1.62,26,2.45,39s1.65,25.87,2.49,38.81,1.68,25.75,2.52,38.63,1.69,25.5,2.54,38.24c.84,12.55,1.68,25.1,2.53,37.65.83,12.36,1.67,24.72,2.51,37.08.91,13.35,1.96,26.68,2.99,40.02,1.08,13.92,2.16,27.83,3.24,41.75s2.16,27.83,3.24,41.75c.54,6.9,1.07,13.79,1.61,20.69.27,3.49.54,6.98.81,10.47.13,1.68.29,3.36.39,5.04.08,1.3.11,2.67-.24,3.94-.15.52-.37,1.07-.77,1.44-.61.57-1.45.58-2.24.65-1.62.14-3.24.29-4.86.45-3.23.32-6.45.69-9.67,1.09-6.5.81-12.98,1.78-19.44,2.86-12.85,2.15-25.61,4.75-38.32,7.61-3.06.69-6.12,1.4-9.18,2.12-1.47.35-2.94.76-4.44.98-1.4.21-2.8.41-4.21.62-5.68.83-11.36,1.63-17.04,2.4-11.85,1.62-23.71,3.13-35.58,4.55-12.19,1.46-24.38,2.82-36.59,4.1-12.41,1.3-24.82,2.51-37.25,3.64s-24.89,2.17-37.34,3.12c-12.32.94-24.65,1.8-36.98,2.57-11.97.74-23.95,1.4-35.94,1.95-10.54.49-21.09.9-31.64,1.21-.28,0-.47.31-.32.56.33.55.17,1.12-.22,1.71-.58.87-1.47,1.55-2.31,2.15-2.72,1.95-5.79,3.44-8.78,4.9-3.54,1.73-7.13,3.37-10.67,5.1-3,1.47-6.06,2.95-8.78,4.9-1.35.97-3.98,2.91-2.8,4.88l.32-.56c-13.38-.45-26.76-.57-40.14-.41s-26.79.61-40.17,1.32c-13.49.71-26.96,1.67-40.41,2.85s-27.19,2.61-40.76,4.2-27.25,3.4-40.84,5.35c-13.71,1.96-27.39,4.08-41.05,6.32-13.77,2.26-27.51,4.64-41.24,7.11s-27.78,5.09-41.64,7.75-27.72,5.37-41.56,8.12c-13.91,2.76-27.8,5.55-41.7,8.34s-28.04,5.64-42.07,8.43c-13.97,2.78-27.95,5.53-41.94,8.23-14,2.7-28.01,5.34-42.04,7.89-7.05,1.28-14.11,2.55-21.17,3.78-3.54.62-7.08,1.3-10.63,1.79s-7.18,1-10.77,1.51c-14.48,2.03-28.96,4.05-43.44,6.08-14.44,2.02-28.87,4.04-43.31,6.06-14.44,2.02-28.87,4.04-43.31,6.06-14.52,2.03-29.04,4.06-43.56,6.1s-28.87,4.04-43.31,6.06-28.87,4.04-43.31,6.06c-14.48,2.03-28.96,4.05-43.44,6.08-14.48,2.03-28.96,4.05-43.44,6.08s-28.87,4.04-43.31,6.06-28.87,4.04-43.31,6.06-29.03,4.06-43.55,6.1-28.85,4.04-43.27,6.06c-14.42,2.02-28.85,4.04-43.27,6.06-14.51,2.03-29.01,4.06-43.52,6.09-14.43,2.02-28.86,4.04-43.29,6.06s-28.87,4.04-43.3,6.06-27.53,3.84-41.3,5.74c-12.74,1.75-25.47,3.54-38.2,5.35-12.93,1.84-25.86,3.71-38.78,5.6-13.12,1.92-26.23,3.86-39.34,5.81-13.33,1.99-26.67,3.99-40,6.01-13.36,2.02-26.71,4.05-40.06,6.08s-26.81,4.09-40.22,6.14c-13.45,2.06-26.91,4.12-40.36,6.17-13.42,2.05-26.84,4.09-40.25,6.13s-26.6,4.03-39.9,6.02-26.35,3.94-39.53,5.88c-13.08,1.93-26.16,3.84-39.24,5.72s-25.58,3.66-38.37,5.45c-6.34.88-12.67,1.76-19.01,2.63-3.1.43-6.21.95-9.32,1.27-.81.08-1.66,0-2.48-.01s-1.66-.03-2.49-.04c-1.67-.03-3.34-.05-5.01-.07-13.69-.17-27.39-.13-41.08.19s-27.52.93-41.25,1.93c-6.74.49-13.48,1.08-20.2,1.79-3.17.33-6.34.69-9.5,1.09-2.17.27-5.17.62-6.42-1.66-.67-1.23-.57-2.81-.56-4.16,0-1.62-.14-3.21-.26-4.82-.27-3.61-.51-7.22-.72-10.83-.41-7.2-.67-14.41-.8-21.62s-.12-14.44.03-21.66c.08-3.63.19-7.26.33-10.89.07-1.82.02-3.68.45-5.46.4-1.62.79-3.24,1.19-4.87,3.18-12.97,6.43-25.93,9.72-38.87s6.7-26.09,10.13-39.12c3.47-13.2,6.99-26.38,10.57-39.55,3.57-13.18,7.19-26.34,10.86-39.49s7.41-26.42,11.18-39.61c3.8-13.28,7.63-26.55,11.51-39.81,3.89-13.3,7.81-26.58,11.78-39.85s7.96-26.5,11.99-39.74,8.1-26.48,12.2-39.7c4.12-13.29,8.27-26.57,12.46-39.85s8.33-26.34,12.54-39.5,8.42-26.23,12.67-39.34,8.54-26.25,12.85-39.36,8.55-25.93,12.85-38.89,8.58-25.74,12.9-38.61c4.3-12.8,8.62-25.6,12.96-38.39s8.62-25.35,12.95-38.02,8.57-25.01,12.88-37.5,8.53-24.71,12.82-37.06c4.55-13.11,9.11-26.22,13.67-39.33s9.28-26.68,13.92-40.02c4.64-13.34,9.28-26.68,13.93-40.02s9.32-26.75,13.98-40.13,9.33-26.75,14-40.12c4.66-13.33,9.32-26.66,13.99-39.99,4.67-13.33,9.34-26.65,14.01-39.97s9.41-26.79,14.13-40.18c4.69-13.31,9.38-26.62,14.09-39.92s9.41-26.6,14.13-39.89c4.74-13.36,9.49-26.73,14.26-40.08,4.73-13.28,9.47-26.55,14.23-39.82,4.75-13.26,9.51-26.52,14.28-39.77s9.58-26.56,14.38-39.84,9.62-26.53,14.45-39.79,9.64-26.42,14.48-39.62c4.84-13.19,9.69-26.38,14.55-39.56,4.89-13.25,9.79-26.49,14.71-39.72,4.89-13.15,9.79-26.29,14.71-39.42,4.92-13.12,9.85-26.24,14.8-39.35s9.94-26.26,14.93-39.39c4.99-13.11,10-26.21,15.03-39.3s10.04-26.08,15.09-39.1c5.04-13.01,10.11-26.02,15.19-39.01s10.24-26.1,15.39-39.14c5.12-12.95,10.26-25.89,15.42-38.82,5.16-12.92,10.33-25.82,15.54-38.72,5.23-12.95,10.48-25.9,15.75-38.83,5.24-12.84,10.5-25.68,15.79-38.5,5.28-12.8,10.59-25.6,15.92-38.38,5.36-12.84,10.74-25.68,16.16-38.5,5.39-12.76,10.8-25.51,16.25-38.24,5.42-12.68,10.87-25.35,16.35-38.01,5.47-12.64,10.97-25.26,16.5-37.87,5.55-12.66,11.13-25.31,16.75-37.95s11.18-25.08,16.81-37.59,11.29-24.98,16.98-37.45c5.7-12.48,11.43-24.95,17.19-37.4s11.5-24.75,17.3-37.11c5.62-11.96,11.26-23.89,16.95-35.82s11.38-23.79,17.12-35.67,11.57-23.82,17.4-35.71,11.62-23.58,17.48-35.34c5.85-11.74,11.74-23.46,17.67-35.17s11.93-23.47,17.95-35.18c5.97-11.62,11.99-23.21,18.04-34.79,6.04-11.55,12.11-23.08,18.22-34.59,6.12-11.52,12.27-23.01,18.46-34.49,6.18-11.44,12.4-22.87,18.65-34.27,6.22-11.34,12.49-22.66,18.79-33.95s12.61-22.5,18.98-33.72c6.39-11.25,12.81-22.47,19.29-33.67s12.87-22.18,19.37-33.23c6.48-11.02,13-22.01,19.57-32.98s13.17-21.9,19.82-32.81,13.3-21.72,20.02-32.54,13.4-21.48,20.17-32.17,13.53-21.29,20.37-31.88c6.85-10.62,13.74-21.21,20.69-31.77s13.8-20.89,20.78-31.29c6.95-10.36,13.94-20.68,20.98-30.98,7.03-10.28,14.12-20.53,21.25-30.75s14.26-20.32,21.46-30.42,14.36-20.04,21.61-30c7.24-9.95,14.54-19.87,21.88-29.74,7.31-9.84,14.68-19.63,22.1-29.39s14.83-19.4,22.32-29.04,14.92-19.1,22.46-28.59,15.15-18.96,22.81-28.37c7.58-9.32,15.21-18.6,22.9-27.83s15.36-18.34,23.12-27.44,15.55-18.13,23.41-27.12,15.7-17.86,23.63-26.71c7.88-8.79,15.8-17.53,23.79-26.22s15.95-17.25,24.02-25.8,16.2-17.07,24.38-25.52,16.26-16.68,24.47-24.94c8.18-8.22,16.41-16.39,24.7-24.49,8.73-8.54,17.53-17.02,26.39-25.43,10.17-9.65,20.42-19.21,30.75-28.68,10.24-9.39,20.57-18.68,30.97-27.89,10.34-9.15,20.77-18.21,31.27-27.17,10.5-8.96,21.08-17.83,31.74-26.6,10.54-8.67,21.15-17.24,31.85-25.71,10.67-8.45,21.41-16.8,32.23-25.05,10.78-8.22,21.64-16.34,32.57-24.36,7.36-5.39,14.75-10.74,22.14-16.09,6.7-4.85,13.42-9.66,20.2-14.4,7.67-5.37,15.4-10.64,23.23-15.77,8.21-5.38,16.52-10.61,24.98-15.6s16.78-9.59,25.43-13.89c8.07-4.01,16.31-7.7,24.79-10.75,7.45-2.68,15.11-4.92,22.95-6.09,6.49-.97,13.23-1.23,19.68.14.73.16,1.46.33,2.18.53s1.4.5,2.11.66c.55.12,1.2-.38,1.7-.6.88-.39,1.76-.78,2.64-1.16,1.66-.72,3.32-1.42,4.99-2.1,6.37-2.6,12.85-4.93,19.42-6.98,10.98-3.42,22.21-6.04,33.58-7.8l-.47-.36c.58,16.63,1.18,33.25,1.81,49.87.63,16.62,1.29,33.24,1.97,49.86.68,16.62,1.4,33.23,2.14,49.84s1.51,33.22,2.3,49.82c.79,16.52,1.61,33.04,2.45,49.56.85,16.6,1.72,33.19,2.62,49.79.9,16.59,1.83,33.18,2.79,49.77.96,16.58,1.94,33.16,2.95,49.74s2.04,32.98,3.09,49.47c1.02,15.95,1.82,31.93,2.73,47.89.91,16.05,1.83,32.1,2.74,48.15.92,16.16,1.85,32.31,2.78,48.47.93,16.17,1.86,32.34,2.8,48.5s1.89,32.66,2.84,48.99c.95,16.39,1.91,32.79,2.87,49.18.96,16.45,1.92,32.89,2.88,49.34.96,16.4,1.92,32.8,2.88,49.2s1.94,33.01,2.91,49.52c.97,16.52,1.94,33.03,2.91,49.55s1.94,33.03,2.91,49.54c.46,7.92.93,15.84,1.39,23.76.03.48.78.48.75,0-.97-16.51-1.94-33.01-2.9-49.52-.97-16.52-1.94-33.03-2.91-49.55-.97-16.51-1.94-33.03-2.91-49.54-.97-16.5-1.94-32.99-2.9-49.49-.96-16.38-1.92-32.77-2.88-49.15-.96-16.42-1.92-32.84-2.87-49.26-.95-16.36-1.9-32.72-2.85-49.08s-1.89-32.58-2.83-48.87-1.86-32.24-2.78-48.36c-.92-16.1-1.85-32.2-2.76-48.31-.91-15.99-1.82-31.98-2.72-47.96-.92-16.29-1.94-32.56-2.95-48.84s-2.03-32.99-3.01-49.48c-.98-16.58-1.94-33.17-2.86-49.75-.93-16.59-1.83-33.18-2.7-49.78s-1.72-33.2-2.54-49.8c-.82-16.52-1.6-33.04-2.36-49.57-.77-16.61-1.5-33.22-2.21-49.83s-1.39-33.23-2.05-49.85-1.29-33.24-1.89-49.87c-.29-7.98-.57-15.96-.85-23.94,0-.26-.23-.4-.47-.36-13.55,2.09-26.89,5.42-39.86,9.85-6.54,2.24-12.98,4.76-19.31,7.53-.77.34-1.54.68-2.31,1.03-.29.13-.38.21-.65.16-.21-.04-.42-.14-.62-.2-.69-.22-1.39-.42-2.09-.6-1.48-.37-2.98-.65-4.49-.86-6.76-.91-13.66-.3-20.33.96-7.93,1.5-15.66,3.97-23.18,6.86-8.54,3.28-16.86,7.15-25,11.32-8.65,4.43-17.11,9.22-25.43,14.22-8.39,5.04-16.65,10.31-24.8,15.71-7.7,5.11-15.32,10.35-22.88,15.67-6.6,4.65-13.15,9.36-19.68,14.09-8.15,5.9-16.3,11.8-24.4,17.78-10.86,8.01-21.64,16.12-32.35,24.33s-21.52,16.66-32.16,25.13c-10.68,8.51-21.28,17.11-31.81,25.81-10.62,8.78-21.16,17.65-31.61,26.62-10.52,9.02-20.96,18.14-31.32,27.35s-20.7,18.57-30.93,27.99-20.61,19.15-30.8,28.86c-8.57,8.17-17.07,16.4-25.52,24.7-8.33,8.17-16.6,16.41-24.81,24.7-8.2,8.28-16.35,16.61-24.44,25s-16.29,17-24.35,25.58c-8.05,8.57-16.04,17.19-23.98,25.87-8,8.74-15.94,17.52-23.83,26.36s-15.79,17.8-23.6,26.77-15.59,18.02-23.31,27.1-15.53,18.39-23.22,27.65-15.3,18.55-22.87,27.89c-7.65,9.43-15.24,18.91-22.78,28.43-7.53,9.51-15.01,19.05-22.43,28.64s-14.9,19.35-22.28,29.08c-7.39,9.75-14.72,19.53-22,29.36-7.33,9.89-14.62,19.82-21.85,29.79-7.26,10.01-14.48,20.05-21.64,30.13-7.17,10.09-14.29,20.22-21.37,30.38s-14.24,20.55-21.28,30.88-14.02,20.65-20.95,31.02-13.96,20.98-20.86,31.51-13.74,21.06-20.54,31.63c-6.84,10.64-13.64,21.32-20.4,32.02s-13.51,21.51-20.19,32.3-13.33,21.63-19.94,32.49c-6.66,10.95-13.28,21.94-19.85,32.94s-13.07,21.99-19.54,33.02c-6.53,11.13-13.01,22.28-19.45,33.46-6.42,11.15-12.81,22.32-19.15,33.52s-12.75,22.61-19.06,33.95c-6.29,11.31-12.55,22.63-18.76,33.98-6.25,11.41-12.46,22.85-18.62,34.3-6.18,11.48-12.33,22.99-18.43,34.52-6.1,11.52-12.17,23.06-18.19,34.62s-12.11,23.33-18.11,35.02-11.92,23.32-17.82,35.01c-5.95,11.78-11.86,23.58-17.74,35.4s-11.67,23.56-17.46,35.37-11.62,23.81-17.37,35.74c-5.73,11.88-11.43,23.78-17.1,35.69s-11.36,23.98-16.99,35.99-11.59,24.83-17.34,37.27-11.44,24.86-17.12,37.32c-5.71,12.55-11.4,25.11-17.05,37.68-5.63,12.52-11.22,25.06-16.79,37.62-5.6,12.64-11.18,25.3-16.72,37.97-5.52,12.62-11.01,25.25-16.47,37.89-5.49,12.7-10.94,25.41-16.37,38.14-5.42,12.7-10.81,25.41-16.17,38.14-5.37,12.75-10.72,25.51-16.04,38.28s-10.69,25.74-15.99,38.62c-5.28,12.83-10.54,25.67-15.77,38.52-5.27,12.94-10.51,25.89-15.73,38.85-5.2,12.9-10.37,25.81-15.52,38.73s-10.35,26.03-15.49,39.06c-5.12,12.97-10.21,25.95-15.29,38.94s-10.17,26.09-15.22,39.14c-5.06,13.07-10.1,26.15-15.11,39.23s-10,26.13-14.97,39.2-9.99,26.33-14.96,39.51c-4.95,13.11-9.87,26.24-14.78,39.36s-9.87,26.44-14.78,39.66c-4.89,13.16-9.76,26.33-14.61,39.5s-9.76,26.52-14.62,39.8c-4.83,13.2-9.66,26.41-14.46,39.63-4.82,13.26-9.64,26.53-14.44,39.8s-9.59,26.56-14.37,39.85-9.53,26.52-14.27,39.78-9.54,26.7-14.3,40.05-9.45,26.57-14.17,39.86c-4.74,13.37-9.48,26.75-14.2,40.13s-9.39,26.62-14.08,39.93-9.39,26.71-14.08,40.07-9.37,26.72-14.05,40.09-9.33,26.66-13.98,39.99c-4.68,13.41-9.36,26.82-14.04,40.23s-9.3,26.67-13.94,40.01c-4.67,13.41-9.34,26.83-14,40.24-4.64,13.34-9.28,26.68-13.92,40.02s-8.98,25.83-13.46,38.75-8.57,24.76-12.83,37.14-8.63,25.12-12.93,37.69c-4.34,12.69-8.65,25.39-12.96,38.09s-8.63,25.56-12.92,38.34c-4.34,12.95-8.67,25.91-12.97,38.88-4.3,12.97-8.58,25.95-12.84,38.94s-8.58,26.26-12.83,39.4-8.46,26.24-12.65,39.37-8.42,26.49-12.59,39.75-8.27,26.42-12.35,39.64-8.16,26.54-12.2,39.82-8.02,26.56-11.98,39.86-7.84,26.48-11.7,39.73-7.7,26.59-11.49,39.91-7.46,26.38-11.12,39.59c-3.66,13.22-7.28,26.44-10.85,39.68s-7.01,26.18-10.43,39.29c-3.41,13.05-6.77,26.11-10.08,39.18-1.64,6.48-3.26,12.96-4.87,19.44-.81,3.25-1.61,6.5-2.41,9.75-.4,1.62-.8,3.25-1.19,4.87-.2.81-.4,1.62-.59,2.43s-.22,1.64-.26,2.49c-.65,14.47-.74,28.96-.27,43.43.23,7.2.6,14.4,1.11,21.59.13,1.8.28,3.61.41,5.41.1,1.43-.02,2.86.1,4.28.1,1.19.39,2.36,1.25,3.24.76.78,1.79,1.16,2.85,1.3,1.14.15,2.29.03,3.43-.11,1.51-.19,3.03-.37,4.54-.54,3.34-.38,6.68-.74,10.03-1.06,6.72-.65,13.46-1.19,20.19-1.64,13.83-.92,27.68-1.44,41.54-1.7,13.55-.25,27.11-.23,40.67-.01.83.01,1.66.03,2.49.04s1.67.1,2.48.05c1.53-.1,3.07-.42,4.59-.62,3.15-.43,6.3-.86,9.45-1.3,6.35-.87,12.71-1.76,19.06-2.65,12.82-1.8,25.64-3.63,38.45-5.48s26.13-3.8,39.19-5.73,26.46-3.93,39.69-5.91c13.31-2,26.62-4.01,39.93-6.03s26.93-4.1,40.39-6.15c13.42-2.05,26.83-4.1,40.25-6.15,13.48-2.06,26.96-4.12,40.44-6.17s26.69-4.06,40.03-6.07,26.63-4.01,39.95-5.99,26.18-3.88,39.28-5.79,25.87-3.75,38.82-5.59c12.7-1.8,25.4-3.58,38.1-5.32,13.96-1.91,27.92-3.87,41.87-5.83s29.03-4.06,43.55-6.1,28.86-4.04,43.28-6.06c14.51-2.03,29.01-4.06,43.52-6.09,14.42-2.02,28.85-4.04,43.27-6.06s29.01-4.06,43.52-6.09c14.44-2.02,28.87-4.04,43.31-6.06,14.48-2.03,28.96-4.05,43.44-6.08s28.96-4.05,43.44-6.08,28.87-4.04,43.31-6.06c14.52-2.03,29.04-4.06,43.56-6.1,14.44-2.02,28.87-4.04,43.31-6.06s29.04-4.06,43.56-6.1c14.44-2.02,28.87-4.04,43.31-6.06,14.48-2.03,28.96-4.05,43.44-6.08,14.48-2.03,28.96-4.05,43.44-6.08,14.44-2.02,28.87-4.04,43.31-6.06,14.24-1.99,28.38-4.73,42.52-7.32s28.03-5.24,42.03-7.95c14.06-2.73,28.12-5.5,42.17-8.31,13.94-2.78,27.88-5.59,41.81-8.38s27.94-5.61,41.92-8.37,27.68-5.44,41.54-8.07c13.82-2.63,27.65-5.19,41.5-7.65,13.76-2.45,27.53-4.8,41.33-7.03,13.65-2.2,27.33-4.28,41.03-6.19,13.71-1.92,27.44-3.67,41.19-5.23,13.51-1.53,27.05-2.88,40.61-4s27.06-2.01,40.61-2.63,26.75-.98,40.13-1.05c11.25-.06,22.5.09,33.74.47.29,0,.47-.33.32-.56-.33-.55-.17-1.12.22-1.71.58-.87,1.47-1.55,2.31-2.15,2.72-1.95,5.79-3.44,8.78-4.9,3.54-1.73,7.13-3.37,10.67-5.1,3-1.47,6.06-2.95,8.78-4.9,1.35-.97,3.98-2.91,2.8-4.88l-.32.56c11.53-.35,23.06-.8,34.59-1.35,11.98-.57,23.96-1.24,35.94-2s24.62-1.65,36.93-2.61c12.53-.97,25.06-2.04,37.58-3.19s24.82-2.36,37.21-3.68,24.42-2.68,36.62-4.15,23.5-2.94,35.23-4.55c5.66-.78,11.32-1.58,16.97-2.42,1.42-.21,2.81-.44,4.2-.78,1.51-.36,3.02-.71,4.53-1.07,3.08-.72,6.16-1.42,9.25-2.11,12.79-2.84,25.64-5.41,38.58-7.49,6.55-1.06,13.11-1.99,19.7-2.76,3.25-.38,6.5-.72,9.76-1.01,1.23-.11,2.85.02,3.89-.77.88-.66,1.24-1.8,1.41-2.85.19-1.27.15-2.56.05-3.84-.13-1.75-.27-3.49-.41-5.23-.27-3.45-.54-6.9-.8-10.34-.54-6.94-1.08-13.87-1.62-20.81-1.08-13.92-2.16-27.83-3.24-41.75-1.08-13.92-2.16-27.83-3.24-41.75-1.03-13.31-2.07-26.61-2.98-39.93-.84-12.4-1.68-24.8-2.52-37.2-.85-12.59-1.69-25.18-2.53-37.77-.85-12.71-1.69-25.43-2.53-38.14-.85-12.92-1.69-25.83-2.53-38.75-.84-12.94-1.67-25.87-2.49-38.81-.82-13-1.64-26-2.44-39.01-.81-13.11-1.61-26.23-2.4-39.34-.78-13.04-1.56-26.07-2.31-39.11-.76-13.01-1.5-26.02-2.23-39.02s-1.44-26.05-2.14-39.07c-.69-12.85-1.36-25.71-2.01-38.57-.65-12.73-1.27-25.46-1.88-38.2-.6-12.65-1.18-25.3-1.74-37.96s-1.07-24.78-1.57-37.17c-.22-5.51-.45-11.01-.79-16.51-.29-4.72-.57-9.44-.86-14.16-.59-9.79-1.18-19.57-1.78-29.36-.61-10.14-1.22-20.28-1.84-30.43s-1.27-21.03-1.9-31.54c-.65-10.81-1.3-21.61-1.95-32.42s-1.32-22.04-1.98-33.06-1.35-22.51-2.02-33.76-1.37-22.81-2.05-34.22-1.37-22.96-2.06-34.44c-.69-11.57-1.39-23.15-2.08-34.72-.69-11.59-1.39-23.17-2.08-34.76-.69-11.52-1.38-23.04-2.07-34.56-.69-11.51-1.38-23.02-2.07-34.52-.68-11.31-1.36-22.63-2.03-33.94s-1.34-22.28-2-33.42-1.32-21.97-1.98-32.95-1.28-21.31-1.92-31.96-1.25-20.68-1.87-31.02-1.21-20.08-1.82-30.12-1.16-19.15-1.74-28.72c-.58-9.6-1.3-19.19-2-28.78s-1.47-20.12-2.2-30.18-1.5-20.61-2.25-30.91-1.55-21.22-2.32-31.82-1.59-21.71-2.38-32.56c-.81-11.04-1.61-22.07-2.42-33.11s-1.65-22.51-2.47-33.77-1.67-22.83-2.5-34.25c-.84-11.51-1.68-23.02-2.53-34.53-.85-11.64-1.7-23.29-2.56-34.93s-1.71-23.43-2.57-35.15c-.86-11.72-1.72-23.45-2.57-35.17s-1.72-23.54-2.58-35.31-1.72-23.51-2.58-35.26c-.85-11.67-1.71-23.35-2.56-35.02s-1.71-23.34-2.56-35.01c-.84-11.5-1.68-22.99-2.52-34.49s-1.66-22.73-2.49-34.09c-.82-11.27-1.65-22.54-2.47-33.81s-1.61-22.02-2.41-33.03-1.58-21.59-2.36-32.38-1.55-21.21-2.32-31.82-1.5-20.53-2.25-30.8c-.73-9.96-1.45-19.92-2.18-29.88-.36-4.89-.71-9.77-1.07-14.66-.46-6.38-.76-12.78-1.12-19.17-.76-13.44-1.52-26.88-2.29-40.32-.77-13.57-1.55-27.13-2.32-40.7-.78-13.64-1.56-27.28-2.35-40.92s-1.58-27.33-2.37-41c-.8-13.77-1.59-27.53-2.39-41.3s-1.61-27.63-2.41-41.45c-.81-13.82-1.61-27.64-2.42-41.45-.81-13.89-1.62-27.79-2.44-41.68-.75-12.84-1.5-25.67-2.26-38.51-.03-.48-.78-.48-.75,0Z"/>
  </g>
  <path class="cls-4" d="M2447.38,3600.53c32.49-6.68,64.97-13.54,97.43-20.56,4.5-.97,9.48-2.36,12.18-7.7,2.58-5.12,2.14-12.07,1.57-18.32-8.53-94.72-17.07-189.45-25.6-284.17-43.79-786.4-99.8-1630.3-143.59-2416.7-18.64-274.02-37.29-548.03-55.93-822.05-.57-8.41-1.33-17.46-5.28-23.64-6.21-9.74-17.02-7.92-26.06-5.34-34.95,9.96-69.91,19.92-104.86,29.87-128.49,41.29-296.14,37.34-427.3,48.65-86.49,7.46-172.6,22.97-258.63,38.48-183.21,33.02-366.09,71.31-549.63,99.05-87.57,60.17-184.12,98.23-280.61,96.49-54.69-.99-108.96-12.23-163.52-17.24-127.85-11.74-279.9,14.04-407.31,36.52-36.83,9.35-73.58,19.43-110.24,30.23,6.41,176.99,16.74,353.62,30.96,529.53,11.6,234.05,30.1,495.19,46.52,728.57,16.45,179.93,26.95,343.86,36.02,525,1.44,28.78,2.88,57.55,4.33,86.33,6.15,122.76,12.3,245.51,18.45,368.27,8.7,112.25,19.3,225.91,22.72,338.83,2.02,44.48,5.2,127.91,7.21,172.4.99,63.12,6.89,162.41,10.56,225.28,0,0,1.47,25.09,2.93,50.18,4.78,45.21,9.56,90.43,9.56,90.43,7.49,70.87,12.05,142.43,13.66,214.18-.38,15.48,6.14,68.96,8.35,83.52,7.59,49.94,10.49,101.43,8.59,152.63,43.1-6.99,86.07-15.73,128.85-26.21,33.31-6.13,78.31-21.34,111.62-27.47,155.03-28.53,329.33-51.22,481.93-67.27,113.5-15.83,218.84-27.45,328.27-41.18,144.14-18.4,247.92-44.53,338.48-64.5,179.16-74.69,402.28-1.38,584.98-53.53,84.56-15.03,169.02-31.22,253.38-48.57Z"/>
  <g class="cls-2">
    <path class="cls-3" d="M103.33,390.15c37.16-99.45,141.5-192.76,219.49-182.87,327.02,41.48,648.29,147.18,975.1,191.58,326.81,44.4,724.68-17.07,1023.94-216.05,21.78,4.58,43.9,6.1,65.93,4.53-13.25,140.22-23.77,280.92-31.56,421.9-18.02,360.93-22.13,757.02-27.12,1084.87-11.14,183.91-9.92,364.46-7.3,552.09-3.41,289.09-.07,693.96-3.47,983.05,1.16,140.1-3.37,272.05-2.2,412.14.07,32.04-.56,93.08-1.4,128.85-.07,3.05-.52,6.53-2.31,8.22-1.19,1.13-2.72,1.14-4.14,1.12-10.35-.09-19.86-1.77-31.2-.87-56.9.26-114.77-11.77-168.05-13.35-25.79-.76-51.66.42-77.37-2.29-290.03-30.6-565.54-16.73-847.86,8.72-210.78,36.68-431.63,35.21-644.3,29.65-84.61-2.28-183.15-.2-267.76-2.48-49.8-1.34-99.67,1.79-149.47.45-12.57.9-54.63,2.42-67.48,0-1.5-27.06-2.22-54.23-2.16-81.4,27.71-19.6,66.71-73.83,95.1-91.28,28.39-17.45,56.12-42.08,72.37-79.79,16.25-37.71-2.26-108.81-22.88-141.26-4.06-14.94-13.23-26.49-23.85-31.55-10.62-5.06-22.5-3.89-32.98,2.02-9.21,5.19-17.44,13.98-23.56,25.15-1.53,2.78-3.05,5.86-5.35,7.15-1.58.88-3.32.8-5,.7-9.16-.54-18.31-1.08-27.47-1.61-1.83-.11-3.76-.26-5.26-1.74-1.26-1.24-2.03-3.25-2.72-5.2-4.04-11.32-7.15-23.33-9.24-35.71,3.17,1.54-4.62-46.86-1.45-45.32-8.97-27.63,8.44-60.87,28.91-69.79,20.48-8.92,42.3-1.63,63.41,2.55,21.11,4.18,44.88,4.08,61.13-15.99,23.87-29.49-3.98-159.33-11.37-202.91-4.06-14.94-13.23-26.49-23.85-31.55-10.62-5.06-22.5-3.89-32.98,2.02-9.21,5.19-17.44,13.98-23.56,25.15-1.53,2.78-3.05,5.86-5.35,7.15-1.58.88-3.32.8-5,.7-9.16-.54-18.31-1.08-27.47-1.61-1.83-.11-3.76-.26-5.26-1.74-1.26-1.24-2.03-3.25-2.72-5.2-6.21-17.41-10.22-36.45-11.74-55.95,8.18,46.61-4.08-24.07-1.84-11.51-2.33-29.48-.33-60.83,10.51-86.3,10.84-25.47,31.95-43.39,52.29-38.09,20.89,5.44,36.23,32.65,56.98,39.04,32.91,10.13,61.01-33.92,81.01-73.16,3.37-6.62,6.85-13.55,7.83-21.6,1.57-12.82-3.45-25.11-8.27-36.04-11.72-26.6-43.64-58.39-55.37-84.99-4.06-14.94-13.23-26.49-23.85-31.55-10.62-5.06-22.5-3.89-32.98,2.02-9.21,5.19-17.44,13.98-23.56,25.15-1.53,2.78-3.05,5.86-5.35,7.15-1.58.88-3.32.8-5,.7-9.16-.54-18.31-1.08-27.47-1.61-1.83-.11-3.76-.26-5.26-1.74-1.26-1.24-2.03-3.25-2.72-5.2-4.04-11.32-7.15-23.33-9.24-35.71,5.95-35.02,50.53-122.01,75.16-129.22,24.63-7.21,51.15-8.17,72.35-27.7,33.62-30.97,21.16-133.99-6.9-174-4.06-14.94-13.23-26.49-23.85-31.55-10.62-5.06-22.5-3.89-32.98,2.02-9.21,5.19-17.44,13.98-23.56,25.15-1.53,2.78-3.05,5.86-5.35,7.15-1.58.88-3.32.8-5,.7-9.16-.54-18.31-1.08-27.47-1.61-1.83-.11-3.76-.26-5.26-1.74-1.26-1.24-2.03-3.25-2.72-5.2-4.04-11.32-7.15-23.33-9.24-35.71-6.39-25.78,17.25-84.51,34.98-95.13,17.73-10.62,37.66-8.15,56.77-6.64,19.11,1.51,39.53,1.38,55.81-13.32,19.24-17.38,28.2-52,27.99-84.44-.21-32.45-27.18-98.46-34.96-128.82-4.06-14.94-13.23-26.49-23.85-31.55-10.62-5.06-22.5-3.89-32.98,2.02-9.21,5.19-17.44,13.98-23.56,25.15-1.53,2.78-3.05,5.86-5.35,7.15-1.58.88-3.32.8-5,.7-9.16-.54-18.31-1.08-27.47-1.61-1.83-.11-3.76-.26-5.26-1.74-1.26-1.24-2.03-3.25-2.72-5.2-4.04-11.32-7.15-23.33-9.24-35.71,7.02-36.81,31.66-101.08,56.44-115.14,27.53-15.62,60.2,11.6,87.36-5.3,21.13-13.15,31.2-49.87,29.34-82.63-1.86-32.76-21.56-98.78-32.52-127.52-4.06-14.94-13.23-26.49-23.85-31.55-10.62-5.06-22.5-3.89-32.98,2.02-9.21,5.19-17.44,13.98-23.56,25.15-1.53,2.78-3.05,5.86-5.35,7.15-1.58.88-3.32.8-5,.7-9.16-.54-18.31-1.08-27.47-1.61-1.83-.11-3.76-.26-5.26-1.74-1.26-1.24-2.03-3.25-2.72-5.2-4.04-11.32-7.15-23.33-9.24-35.71-.24-47.87,45.91-100.93,78.73-110.24,32.83-9.31,69.76-10.99,93.8-44.58,28.22-39.42,1.86-148.57-31.91-176.61-4.06-14.94-13.23-26.49-23.85-31.55-10.62-5.06-22.5-3.89-32.98,2.02-9.21,5.19-17.44,13.98-23.56,25.15-1.53,2.78-3.05,5.86-5.35,7.15-1.58.88-3.32.8-5,.7-9.16-.54-18.31-1.08-27.47-1.61-1.83-.11-3.76-.26-5.26-1.74-1.26-1.24-2.03-3.25-2.72-5.2-4.04-11.32-7.15-23.33-9.24-35.71-.9-5.45-6.61-30.16-2.7-30,3.92.16,5.67-6.88,6.5-12.38,8.38-56.06,43.5-102.08,83.16-109,23.13-4.03,49.03,3.08,67.84-16.83,28.12-29.75-1.38-117.1-14.17-163.27-4.06-14.94-13.23-26.49-23.85-31.55-10.62-5.06-22.5-3.89-32.98,2.02-9.21,5.19-17.44,13.98-23.56,25.15-1.53,2.78-3.05,5.86-5.35,7.15-1.58.88-3.32.8-5,.7-9.16-.54-18.31-1.08-27.47-1.61-1.83-.11-3.76-.26-5.26-1.74-1.26-1.24-2.03-3.25-2.72-5.2-4.04-11.32-7.15-23.33-9.24-35.71-4.53-37.24,19.66-78.74,45.55-86.63,25.89-7.89,52.52,1.07,78.9,2.58,26.38,1.5,56.29-7.49,70.7-39.43,13.04-28.91,8.87-67.62-1.87-98.06-10.27-29.07-37.85-71.54-50.96-100.79-2.33-19.15-12.91-34.34-25.53-40.36-10.62-5.06-22.5-3.89-32.98,2.02-9.21,5.19-17.44,13.98-23.56,25.15-1.53,2.78-3.05,5.86-5.35,7.15-1.58.88-3.32.8-5,.7-9.16-.54-18.31-1.08-27.47-1.61-1.83-.11-3.76-.26-5.26-1.74-1.26-1.24-2.03-3.25-2.72-5.2-4.04-11.32-7.15-23.33-9.24-35.71"/>
    <path class="cls-3" d="M103.69,390.25c3.06-8.18,6.52-16.2,10.34-24.05s8.11-15.79,12.65-23.42,9.5-15.23,14.69-22.56,10.73-14.52,16.5-21.46,11.68-13.5,17.9-19.9,12.45-12.33,19.04-18.11,13.03-10.97,19.89-16.01,13.41-9.4,20.45-13.6,13.6-7.65,20.7-10.88c6.73-3.06,13.64-5.72,20.72-7.86,6.62-2,13.39-3.55,20.25-4.49s13.14-1.22,19.72-.85c4.02.23,8,.79,11.98,1.3,5.6.72,11.19,1.46,16.78,2.22,11.09,1.51,22.18,3.08,33.25,4.72,11.08,1.64,22.15,3.35,33.22,5.12s22.13,3.6,33.18,5.48,22.11,3.83,33.15,5.82,22.09,4.04,33.13,6.13,22.08,4.23,33.1,6.4c10.99,2.17,21.98,4.38,32.96,6.63s22.05,4.55,33.06,6.87,22.03,4.68,33.04,7.06c11.02,2.38,22.02,4.79,33.03,7.21s21.94,4.86,32.9,7.32c11.01,2.47,22.01,4.95,33.01,7.44s22,5,33,7.51,22,5.03,33,7.56c11,2.52,22,5.05,33,7.57s22,5.04,33,7.55,22,5.01,33,7.5c11,2.49,22,4.97,33.01,7.43s22.01,4.9,33.02,7.32,21.94,4.8,32.92,7.16,22.03,4.71,33.05,7.02,22.04,4.59,33.07,6.83,21.97,4.43,32.97,6.58c11.03,2.16,22.06,4.28,33.11,6.35s22.08,4.1,33.14,6.07,22.1,3.89,33.16,5.76,22.12,3.67,33.19,5.42,22.14,3.43,33.23,5.05,21.1,3.03,31.67,4.43c8.63,1.14,17.26,2.2,25.91,3.19s17.44,1.91,26.18,2.75,17.55,1.61,26.34,2.3,17.77,1.32,26.66,1.86,17.92,1.01,26.88,1.41,18.05.71,27.08.95c9.05.24,18.11.41,27.16.49s18.28.1,27.42.03,18.38-.21,27.56-.43,18.46-.52,27.69-.9,18.53-.84,27.79-1.37,18.59-1.15,27.88-1.85,18.64-1.47,27.95-2.32c9.34-.86,18.68-1.79,28-2.81s18.7-2.11,28.03-3.29,18.58-2.42,27.85-3.75c9.36-1.34,18.71-2.76,28.04-4.27s18.7-3.09,28.02-4.76,18.67-3.43,27.98-5.26,18.57-3.75,27.82-5.74,18.58-4.09,27.85-6.27,18.52-4.43,27.75-6.78,18.45-4.77,27.64-7.29c9.19-2.52,18.36-5.12,27.51-7.81,9.14-2.69,18.26-5.46,27.35-8.33s18.15-5.81,27.19-8.85,18.03-6.16,27-9.37,17.83-6.49,26.7-9.87,17.75-6.87,26.57-10.44,17.52-7.2,26.23-10.93,17.42-7.58,26.07-11.51,17.18-7.91,25.7-12.01,17.04-8.3,25.49-12.6,16.84-8.67,25.18-13.15,16.62-9.04,24.85-13.7,16.39-9.41,24.49-14.26c8.1-4.84,16.14-9.78,24.12-14.82,3.99-2.52,7.96-5.06,11.92-7.62,1.98-1.28,3.95-2.57,5.92-3.86.98-.65,1.97-1.3,2.95-1.94.48-.32.95-.63,1.43-.95.22-.15.44-.31.67-.45.34-.2.63-.06,1.01.01,11.11,2.29,22.39,3.8,33.71,4.49,10.44.64,20.92.59,31.36-.15l-.38-.38c-1.22,12.95-2.42,25.91-3.6,38.86-1.18,12.96-2.33,25.92-3.46,38.88s-2.24,25.94-3.32,38.91c-1.08,12.93-2.14,25.87-3.17,38.81s-2.05,25.88-3.03,38.83c-.99,12.99-1.96,25.98-2.9,38.97s-1.87,25.99-2.76,38.99-1.77,26-2.62,39.01c-.85,12.97-1.67,25.93-2.48,38.9-.8,12.97-1.58,25.94-2.34,38.92s-1.51,25.68-2.15,38.53c-.59,11.95-1.17,23.91-1.72,35.87-.56,12.02-1.11,24.05-1.64,36.07s-1.05,24.09-1.55,36.14c-.5,12.1-.99,24.2-1.47,36.29s-.94,24.36-1.4,36.55c-.45,12.22-.89,24.44-1.32,36.66s-.84,24.42-1.25,36.64-.8,24.47-1.18,36.71c-.38,12.29-.76,24.58-1.12,36.87-.36,12.3-.71,24.6-1.06,36.9s-.67,24.6-1,36.9c-.32,12.26-.63,24.51-.94,36.77s-.6,24.48-.89,36.73c-.29,12.26-.57,24.52-.84,36.78-.27,12.23-.54,24.46-.8,36.69-.26,12.2-.51,24.39-.75,36.59-.24,12.11-.48,24.23-.71,36.34s-.46,24.13-.68,36.19-.43,24.09-.64,36.13c-.21,11.98-.41,23.96-.61,35.94-.2,11.91-.4,23.81-.59,35.72-.19,11.79-.38,23.58-.56,35.36-.18,11.7-.36,23.4-.54,35.1s-.35,23.29-.53,34.93-.34,23.08-.51,34.62c-.17,11.43-.34,22.86-.5,34.29-.16,11.28-.33,22.55-.49,33.83-.16,11.15-.32,22.31-.49,33.46s-.32,22.11-.49,33.17-.33,21.83-.49,32.75c-.04,2.81-.06,5.61-.23,8.41-.19,3.18-.38,6.36-.56,9.53-.37,6.43-.73,12.86-1.07,19.29-.68,12.72-1.3,25.44-1.87,38.17s-1.09,25.4-1.55,38.11-.89,25.46-1.26,38.19-.7,25.45-.99,38.17c-.29,12.72-.53,25.45-.73,38.18s-.37,25.39-.5,38.08-.23,25.42-.3,38.13-.1,25.54-.11,38.31c0,12.8.01,25.6.05,38.4s.11,25.59.2,38.39c.09,12.88.19,25.76.32,38.64s.26,25.78.41,38.67.32,25.98.49,38.96c.09,6.48.17,12.95.26,19.43.07,5.03-.03,10.06-.09,15.09-.11,9.53-.2,19.05-.29,28.58s-.18,19.49-.25,29.23c-.08,9.98-.15,19.96-.22,29.93-.07,10.17-.13,20.33-.19,30.5s-.11,20.68-.16,31.02c-.05,10.46-.09,20.93-.13,31.39s-.07,21.21-.1,31.81-.06,21.53-.08,32.29c-.02,10.87-.04,21.75-.06,32.62s-.03,21.94-.05,32.91c-.01,11.01-.02,22.02-.03,33.04s-.02,22.15-.02,33.23c0,11.16,0,22.32-.01,33.48s0,22.38,0,33.57c0,11.21,0,22.42,0,33.62s0,22.35,0,33.52c0,11.16,0,22.32,0,33.48s0,22.33-.01,33.49-.01,22.24-.02,33.36c0,11.06-.02,22.12-.03,33.17s-.03,21.89-.04,32.84c-.02,10.85-.04,21.71-.06,32.56-.02,10.78-.05,21.56-.08,32.34s-.06,21.32-.1,31.97c-.04,10.52-.08,21.04-.12,31.56s-.1,20.66-.15,30.99-.11,20.32-.18,30.48-.14,20.02-.21,30.02-.16,19.61-.25,29.42c-.09,9.59-.18,19.18-.29,28.77-.05,4.68-.1,9.36-.16,14.04-.07,6.26.06,12.52.09,18.78.07,12.91.09,25.82.08,38.73-.01,12.85-.06,25.69-.14,38.54-.08,12.77-.18,25.54-.3,38.31-.12,12.68-.26,25.35-.41,38.03s-.31,25.3-.46,37.96c-.16,12.69-.31,25.39-.46,38.08-.15,12.72-.28,25.44-.4,38.17-.12,12.78-.22,25.55-.29,38.33s-.11,25.63-.12,38.45c0,12.92.03,25.85.11,38.77.06,9.34.1,18.67.07,28-.03,9.24-.09,18.47-.16,27.71-.08,10.09-.19,20.18-.31,30.27-.12,9.85-.26,19.69-.42,29.54-.08,4.53-.16,9.06-.25,13.58-.08,4.1-.11,8.21-.27,12.31-.09,2.35-.3,5.38-2.01,7.2-.97,1.03-2.32,1.18-3.67,1.18-1.46,0-2.93-.05-4.39-.11-5.76-.24-11.5-.83-17.26-.99-3.06-.08-6.13-.05-9.18.16s-6.36.05-9.52,0c-6.31-.1-12.62-.34-18.92-.69-12.63-.69-25.23-1.8-37.81-3.09s-24.9-2.73-37.35-4.13c-12.2-1.37-24.42-2.69-36.65-3.71-12.13-1.01-24.28-1.66-36.45-1.86-12.95-.21-25.9-.09-38.84-.36-6.43-.14-12.86-.37-19.27-.79s-13.03-1.15-19.55-1.82c-12.92-1.33-25.85-2.57-38.78-3.73-12.87-1.15-25.74-2.23-38.62-3.22-12.86-.99-25.73-1.9-38.6-2.73s-25.64-1.58-38.46-2.25c-12.77-.67-25.55-1.27-38.33-1.79s-25.4-.97-38.1-1.34c-12.66-.38-25.33-.68-37.99-.92-12.67-.24-25.35-.41-38.02-.51-12.65-.1-25.29-.15-37.94-.12s-25.25.11-37.87.25-25.13.35-37.7.6c-12.55.26-25.1.57-37.65.94-12.58.37-25.16.79-37.74,1.26-12.57.47-25.14.99-37.71,1.56-12.53.57-25.06,1.18-37.58,1.84-12.57.66-25.14,1.37-37.7,2.11-12.53.74-25.06,1.53-37.59,2.35-12.58.83-25.16,1.69-37.74,2.59s-25.18,1.84-37.77,2.8-25.13,1.96-37.7,2.99-25.17,2.08-37.75,3.16-25.3,2.2-37.94,3.33c-1.55.14-3.15.19-4.69.45s-2.98.52-4.47.77c-3.1.53-6.2,1.05-9.31,1.57-6.17,1.02-12.35,2.01-18.54,2.97-12.39,1.92-24.79,3.72-37.21,5.39s-24.92,3.24-37.4,4.69c-12.45,1.45-24.92,2.78-37.4,4.01-12.54,1.24-25.08,2.37-37.64,3.4-12.57,1.03-25.15,1.97-37.74,2.82-12.6.85-25.21,1.6-37.82,2.28-12.58.67-25.17,1.26-37.75,1.77s-25.19.95-37.79,1.31c-12.64.37-25.28.66-37.92.9-12.64.23-25.27.4-37.91.52s-25.25.17-37.88.18c-12.57,0-25.14-.03-37.71-.12-12.54-.08-25.09-.21-37.63-.37-12.55-.16-25.1-.36-37.66-.59-12.51-.23-25.03-.48-37.54-.76s-24.93-.58-37.4-.9c-11.62-.3-23.24-.6-34.86-.8s-23.39-.34-35.09-.43-23.99-.15-35.99-.19-24.26-.05-36.39-.06c-12.13-.01-24.27-.03-36.4-.06-11.97-.03-23.94-.08-35.9-.18s-23.43-.22-35.14-.42c-11.74-.2-23.48-.55-35.22-.76-13.04-.23-26.07-.19-39.11-.04-13.04.15-26.08.42-39.12.64-13,.22-25.99.39-38.99.36-6.52-.02-13.04-.08-19.55-.22-2.13-.05-4.24-.14-6.36,0-1.29.08-2.59.16-3.88.22-7.38.39-14.76.64-22.15.81-8.23.18-16.47.26-24.71.04-4.99-.14-10.1-.24-15.02-1.16l.28.36c-.58-10.56-1.05-21.13-1.4-31.7s-.58-21.17-.69-31.75c-.06-5.98-.09-11.96-.07-17.95l-.19.32c6.23-4.41,11.9-9.59,17.37-14.9,6.54-6.36,12.81-13,19.01-19.68,6.56-7.07,13.05-14.2,19.64-21.24,6.26-6.68,12.61-13.3,19.29-19.58,5.63-5.3,11.5-10.46,17.98-14.72,3.65-2.4,7.4-4.64,11.02-7.1,3.91-2.65,7.74-5.43,11.48-8.33,7.76-6.03,15.08-12.63,21.78-19.82s13.36-15.72,18.83-24.45c2.87-4.58,5.5-9.31,7.89-14.16,2.03-4.13,3.98-8.34,5.39-12.73,2.49-7.7,3.62-15.81,4.02-23.88.45-9.07-.03-18.17-1.1-27.18s-2.87-18.77-5.14-27.98-4.91-17.83-8.12-26.5c-2.87-7.75-6.15-15.38-10.03-22.69-.87-1.63-1.77-3.25-2.71-4.84-.43-.73-.87-1.46-1.32-2.18-.29-.47-.54-.87-.69-1.41-.19-.67-.39-1.34-.6-2-1.57-4.92-3.77-9.66-6.61-13.98-5.13-7.81-12.49-14.41-21.58-17.09-10.71-3.16-22.08-.38-31.24,5.65s-15.71,14.2-20.76,23.36c-1.24,2.25-2.38,4.8-4.35,6.52-2.32,2.02-5.69,1.34-8.5,1.17-6.43-.38-12.87-.76-19.3-1.13-1.65-.1-3.3-.19-4.95-.29-1.27-.07-2.57-.12-3.77-.57-2.76-1.04-3.68-4.26-4.57-6.78-2.01-5.71-3.76-11.51-5.27-17.38s-2.74-11.74-3.75-17.68l-.55.42c1.56.72,1.34-3.19,1.34-3.83-.02-3.57-.37-7.14-.69-10.69-.41-4.5-.87-9-1.3-13.5-.38-3.94-.76-7.89-.94-11.85-.06-1.29-.11-2.59-.03-3.89.03-.43.05-.76.14-1.16.02-.07.03-.14.06-.2.03-.1.04-.11.04-.11.02-.04.05-.08.07-.12-.02.04-.01.03-.02.03-.04,0-.07.02-.11,0,.27.13.66-.09.55-.42-3.5-10.85-2.96-22.62.32-33.45,3.1-10.26,8.64-20.02,16.33-27.53,3.35-3.27,7.17-6.13,11.43-8.1,6.28-2.91,13.23-4.24,20.12-4.45,14.13-.43,27.92,3.51,41.64,6.34,10.51,2.17,21.34,3.47,32.04,1.93,5.26-.76,10.42-2.23,15.21-4.55,5.1-2.47,9.7-5.9,13.6-10.01,2.2-2.32,4.14-4.77,5.6-7.61,1.21-2.37,2.14-4.87,2.89-7.42,1.87-6.33,2.74-12.95,3.24-19.52.62-8.04.63-16.12.37-24.18-.3-9.15-.97-18.28-1.85-27.39s-2.08-19.05-3.38-28.54-2.75-18.96-4.3-28.41c-1.44-8.8-2.96-17.58-4.53-26.35-1.34-7.49-2.72-14.98-4.08-22.47-.57-3.11-1.13-6.23-1.69-9.35-.24-1.36-.48-2.73-.71-4.09-.45-2.63-1.41-5.2-2.4-7.67-4.05-10.09-11.08-19.62-20.92-24.68-5.67-2.91-12.1-4.12-18.44-3.51-6.42.61-12.57,2.97-17.99,6.43-4.97,3.17-9.37,7.21-13.16,11.72-2.02,2.4-3.87,4.94-5.57,7.58s-3.14,5.66-4.88,8.38c-.78,1.22-1.7,2.45-2.96,3.21-1.51.9-3.27.83-4.96.73-3.79-.22-7.59-.45-11.38-.67s-7.59-.45-11.38-.67c-1.81-.11-3.63-.18-5.44-.32-1.55-.12-3.11-.45-4.26-1.59s-1.78-2.74-2.33-4.22c-.6-1.61-1.15-3.24-1.69-4.87-1.11-3.33-2.12-6.68-3.06-10.06-1.88-6.81-3.42-13.71-4.63-20.67s-2.09-14-2.64-21.06l-.74.1c.91,5.15,1.79,10.31,2.73,15.46.04.22.04.52.16.73.09.16.26.19.42.17h0c.12-.02.24-.15.26-.26.05-.29-.07-.65-.12-.93-.12-.69-.23-1.38-.35-2.08-.39-2.31-.79-4.62-1.19-6.93-.48-2.8-.96-5.59-1.44-8.39-.42-2.44-.84-4.88-1.26-7.33-.14-.81-.28-1.62-.41-2.43-.06-.33-.04-.88-.2-1.18-.04-.08,0,.07,0,.03l-.19.32h0c-.17-.04-.34-.09-.51-.13-.11-.18.02.19.04.29.07.38.14.76.21,1.14.07.41.77.32.74-.1-.92-11.7-1.16-23.47-.46-35.19s2.29-23.04,5.25-34.21c2.8-10.55,6.79-20.86,12.73-30.06,5.21-8.07,11.93-15.49,20.27-20.39,7.2-4.23,15.68-6.29,23.92-4.33,8.52,2.02,15.75,7.56,22.25,13.17,6.96,6.02,13.43,12.63,20.81,18.16,6.63,4.96,14.14,8.85,22.54,9.3,7.8.42,15.35-2.18,21.93-6.24,7.67-4.73,14.17-11.21,19.94-18.08,6.65-7.92,12.43-16.55,17.77-25.4s10.65-18.66,15.41-28.27c2.53-5.1,4.81-10.38,5.86-16.01s.79-11.7-.4-17.44-3.26-11.33-5.54-16.76c-1.85-4.39-3.82-8.71-6.15-12.87-4.85-8.66-10.63-16.78-16.5-24.77-6.21-8.46-12.63-16.78-18.7-25.34-5.52-7.77-10.88-15.77-14.99-24.39-.49-1.04-.95-2.04-1.27-3.15-.39-1.33-.82-2.65-1.29-3.94-.88-2.42-1.92-4.78-3.12-7.06-2.27-4.33-5.12-8.38-8.54-11.88-3.05-3.12-6.57-5.82-10.5-7.74-4.92-2.41-10.39-3.56-15.86-3.36-10.72.4-20.55,5.77-28.21,13.03-3.87,3.66-7.24,7.83-10.15,12.29-1.52,2.33-2.84,4.75-4.2,7.18-1.23,2.21-2.73,4.84-5.36,5.52-1.41.37-2.9.2-4.33.12-1.65-.1-3.3-.19-4.95-.29-3.22-.19-6.43-.38-9.65-.57s-6.43-.38-9.65-.57c-2.61-.15-5.82.1-7.72-2.05-.94-1.06-1.51-2.44-2-3.76s-.99-2.77-1.46-4.16c-.98-2.9-1.89-5.82-2.74-8.76-1.7-5.9-3.14-11.88-4.33-17.91-.31-1.56-.6-3.13-.88-4.7-.09-.49-.21-.94-.13-1.43.06-.32.12-.64.18-.96.25-1.29.53-2.56.83-3.84.68-2.85,1.47-5.67,2.34-8.46,2.07-6.7,4.53-13.28,7.17-19.77,3.02-7.41,6.31-14.71,9.8-21.91s7.45-14.82,11.53-22.04,8.02-13.73,12.43-20.33c3.87-5.79,7.98-11.46,12.52-16.75,3.49-4.07,7.27-8.06,11.67-11.17,1.64-1.16,3.39-2.21,5.27-2.92,1.69-.63,3.47-1.05,5.2-1.51,2.48-.66,4.97-1.27,7.46-1.85,9.93-2.33,19.98-4.27,29.7-7.4,9.89-3.17,19.35-7.66,27.49-14.18,2.85-2.29,5.54-4.76,7.83-7.61,1.84-2.28,3.45-4.74,4.87-7.3,3.17-5.74,5.41-11.97,7.06-18.3,1.87-7.18,2.99-14.55,3.64-21.94.71-8.05.84-16.15.55-24.23s-1.07-16.71-2.24-25-2.72-16.41-4.7-24.48c-1.87-7.61-4.12-15.13-6.86-22.48-2.43-6.53-5.25-12.95-8.67-19.03-.77-1.37-1.57-2.72-2.4-4.04-.4-.64-.81-1.27-1.23-1.9-.2-.3-.4-.6-.61-.9-.34-.49-.46-1.02-.63-1.59-1.47-5-3.57-9.83-6.32-14.25-4.91-7.9-12.04-14.73-20.97-17.79-10.6-3.63-22.13-1.29-31.48,4.53-8.88,5.52-15.91,13.73-21.1,22.73-1.34,2.33-2.45,4.91-4.22,6.96-.86.99-1.88,1.78-3.18,2.09-1.45.35-3,.16-4.48.08-6.43-.38-12.87-.76-19.3-1.13-1.65-.1-3.3-.19-4.95-.29-1.41-.08-2.85-.08-4.24-.33-1.31-.24-2.48-.8-3.35-1.84-.92-1.1-1.46-2.49-1.96-3.82-2.1-5.64-3.84-11.43-5.37-17.24s-2.91-12.09-3.98-18.21c-.28-1.62-.67-3.21-.88-4.84-.19-1.54-.3-3.09-.34-4.64-.19-7.41.97-14.84,2.59-22.05,1.85-8.21,4.41-16.26,7.47-24.1s6.38-14.92,10.48-21.92c3.21-5.48,6.83-10.97,11.52-15.32,2.57-2.38,5.57-4.06,8.74-5.52,5.14-2.37,10.67-3.83,16.27-4.6,11.13-1.53,22.41-.42,33.55.48,10.01.81,20.14,1.32,30.11-.32s19.98-5.93,27.76-12.96c6.74-6.09,11.83-13.87,15.7-22.03,4.37-9.21,7.32-19.07,9.29-29.06,2.08-10.52,3.08-21.26,3.11-31.98.02-7.14-.94-14.21-2.29-21.22-1.61-8.38-3.75-16.65-6.07-24.85-2.53-8.94-5.3-17.81-8.16-26.65s-5.69-17.26-8.56-25.89c-2.48-7.47-4.96-14.95-7.23-22.49-.92-3.07-1.8-6.14-2.61-9.24-1.31-5.01-3.32-9.89-5.93-14.36-4.63-7.94-11.41-14.96-20.04-18.46-10.52-4.27-22.29-2.47-31.94,3.13-8.97,5.2-16.14,13.19-21.48,21.99-1.43,2.35-2.59,4.87-4.13,7.15-.69,1.02-1.49,2.03-2.54,2.7-1.28.82-2.78.92-4.26.86-6.39-.25-12.78-.74-19.16-1.12-3.17-.19-6.35-.35-9.52-.56-1.29-.09-2.63-.24-3.75-.93s-1.9-1.91-2.47-3.13c-1.26-2.7-2.11-5.65-3.02-8.49s-1.79-5.79-2.59-8.72c-1.64-5.98-3.01-12.04-4.13-18.14-.14-.75-.27-1.49-.4-2.24-.1-.58-.02-1.02.09-1.59.18-.92.37-1.84.56-2.75.4-1.88.82-3.75,1.27-5.62,2.02-8.42,4.46-16.75,7.19-24.97,2.97-8.94,6.3-17.77,10.01-26.43s7.55-16.61,12.06-24.53c3.9-6.85,8.21-13.54,13.39-19.5,4.51-5.19,9.68-9.68,16.14-12.23,8.6-3.4,17.98-3.2,27-1.96,9.17,1.26,18.18,3.51,27.41,4.35,9.01.82,18.21.04,26.3-4.3,7.31-3.92,12.99-10.26,17.3-17.25,4.92-7.98,8.24-16.92,10.52-25.99,2.48-9.86,3.76-20.04,3.98-30.2.17-8.11-.46-16.16-1.63-24.19s-2.87-16.63-4.71-24.87c-2.04-9.15-4.33-18.25-6.78-27.3s-5-17.88-7.72-26.76c-2.42-7.87-4.94-15.71-7.64-23.49-1.11-3.21-2.25-6.41-3.43-9.59-.26-.7-.55-1.39-.79-2.1-.43-1.27-.75-2.58-1.18-3.85-.85-2.48-1.86-4.91-3.04-7.26-4.12-8.24-10.42-15.8-18.67-20.15-4.79-2.52-10.16-3.84-15.57-3.82s-10.97,1.4-15.96,3.73c-9.41,4.4-17.08,12.03-22.86,20.55-1.57,2.31-2.98,4.71-4.31,7.16-1.18,2.17-2.44,4.79-4.66,6.07-1.3.75-2.8.79-4.25.72-1.61-.07-3.23-.19-4.84-.28-3.22-.19-6.43-.38-9.65-.57s-6.43-.38-9.65-.57c-1.56-.09-3.13-.16-4.69-.28-1.27-.1-2.56-.32-3.63-1.06-1.13-.78-1.81-2.03-2.36-3.25-.62-1.38-1.09-2.83-1.58-4.26-.98-2.85-1.9-5.72-2.75-8.62-1.75-5.92-3.24-11.92-4.47-17.97-.59-2.88-1.36-5.83-1.31-8.77.04-2.23.18-4.46.4-6.68.95-9.26,3.44-18.33,6.88-26.96s8.2-17.5,13.53-25.53,11.2-15.31,17.78-22.13c6.04-6.25,12.61-12.03,19.79-16.94,5.98-4.08,12.45-7.67,19.41-9.75,8.53-2.55,17.28-4.36,25.94-6.4,8.84-2.08,17.67-4.32,26.21-7.44,8.58-3.13,16.86-7.19,24.25-12.58,3.91-2.85,7.56-6.05,10.9-9.56,3.12-3.28,6.06-6.83,8.52-10.64,3.28-5.08,5.53-10.78,7.13-16.59,1.84-6.69,2.84-13.6,3.34-20.51.55-7.7.47-15.45-.04-23.15-.54-8.17-1.57-16.3-2.99-24.36-1.44-8.19-3.3-16.32-5.54-24.33s-4.69-15.35-7.63-22.82c-2.71-6.87-5.77-13.61-9.33-20.07-3.07-5.59-6.52-11-10.58-15.93-1.76-2.14-3.65-4.2-5.69-6.08-.47-.43-.95-.85-1.43-1.27-.4-.34-.43-.84-.58-1.33-.2-.67-.4-1.33-.62-1.99-.82-2.47-1.8-4.89-2.93-7.23-4.05-8.36-10.3-16.04-18.54-20.54-4.71-2.57-10.01-3.96-15.37-4.05s-10.97,1.2-15.99,3.45c-9.49,4.25-17.25,11.82-23.1,20.3-1.59,2.3-3.04,4.69-4.38,7.15-1.21,2.21-2.4,4.84-4.52,6.34-1.2.85-2.61,1.04-4.04,1.02-1.58-.03-3.16-.17-4.73-.26-3.22-.19-6.43-.38-9.65-.57s-6.43-.38-9.65-.57c-1.63-.1-3.26-.19-4.88-.29-1.22-.08-2.49-.19-3.6-.76-2.54-1.3-3.38-4.61-4.25-7.09-1.01-2.88-1.95-5.78-2.82-8.71-1.76-5.87-3.25-11.82-4.5-17.83-.79-3.83-1.42-7.68-2.17-11.52-1.29-6.56-2.73-13.16-3.25-19.84-.1-1.27-.17-2.56-.08-3.84.04-.66.11-1.63.53-2.12.2-.23.29-.18.65-.19.73-.03,1.42-.29,2.01-.72,1.51-1.11,2.34-3,2.94-4.71.79-2.22,1.25-4.56,1.61-6.88.41-2.62.83-5.22,1.34-7.82,1.01-5.19,2.26-10.33,3.74-15.4,2.86-9.76,6.6-19.28,11.23-28.34,4.36-8.52,9.51-16.66,15.5-24.12,5.53-6.88,11.8-13.22,18.82-18.59,6.45-4.93,13.56-9.05,21.2-11.83,3.64-1.32,7.38-2.34,11.2-3,4.69-.81,9.45-1.16,14.2-1.37,9.42-.43,18.94-.29,28.24-2.09,4.53-.87,8.97-2.23,13.11-4.27,4.51-2.22,8.59-5.25,12.07-8.88,4.27-4.44,7.12-9.99,8.94-15.84,2.1-6.76,2.93-13.89,3.16-20.95.26-8.19-.3-16.39-1.26-24.51-1.05-8.88-2.6-17.7-4.42-26.45s-4.01-17.84-6.32-26.69-4.58-16.92-6.99-25.35c-2.12-7.41-4.29-14.81-6.37-22.23-1.35-4.81-2.9-9.48-5.22-13.92s-5.05-8.28-8.42-11.75c-3.06-3.15-6.6-5.89-10.55-7.83-4.91-2.41-10.37-3.58-15.83-3.4-10.73.37-20.57,5.71-28.25,12.96-3.84,3.63-7.21,7.76-10.11,12.18-1.57,2.38-2.92,4.87-4.31,7.36-1.21,2.17-2.69,4.78-5.26,5.49-1.4.39-2.88.24-4.31.15-1.61-.09-3.22-.19-4.83-.28-3.22-.19-6.43-.38-9.65-.57s-6.52-.38-9.77-.57c-2.64-.15-5.92.12-7.84-2.05-.9-1.01-1.45-2.31-1.93-3.55-.54-1.4-1.02-2.83-1.5-4.26-.97-2.86-1.87-5.74-2.71-8.64-1.73-5.98-3.19-12.03-4.4-18.14-.57-2.87-1.12-5.73-1.36-8.65-.2-2.49-.29-4.99-.25-7.49.07-5.09.62-10.17,1.58-15.17,1.89-9.86,5.34-19.44,10.1-28.28,4.38-8.12,9.9-15.74,16.73-21.97,3.02-2.76,6.32-5.24,9.89-7.25,3.88-2.17,8.01-3.55,12.34-4.53,12.04-2.73,24.5-2.12,36.67-.67s24.46,3.77,36.82,4.52c8.08.49,16.24.01,24.17-1.68s15.92-4.74,22.91-9.17c7.51-4.77,13.9-11.13,18.8-18.53,5.61-8.47,9.26-18.13,11.36-28.05,2.22-10.48,2.78-21.27,2.23-31.95-.56-10.86-2.28-21.65-4.9-32.2-2.32-9.32-5.4-18.42-9.24-27.22s-8.36-17.65-12.94-26.27c-4.91-9.24-10-18.38-15.04-27.54-4.77-8.68-9.53-17.38-13.96-26.25-1-2.01-1.99-4.03-2.95-6.06-.45-.96-.9-1.92-1.34-2.88-.24-.53-.42-.97-.5-1.55-.09-.69-.19-1.37-.3-2.05-.83-5.06-2.28-10.01-4.35-14.7-3.62-8.23-9.26-15.83-16.81-20.84-4.14-2.74-8.85-4.58-13.77-5.28-5.44-.77-11-.15-16.2,1.57-9.96,3.3-18.31,10.36-24.66,18.56-1.66,2.14-3.2,4.38-4.62,6.69s-2.61,4.81-4.08,7.11c-.69,1.08-1.48,2.16-2.53,2.92-1.18.86-2.58,1.09-4.01,1.07-3.18-.04-6.37-.35-9.54-.54-6.43-.38-12.87-.75-19.3-1.13-1.28-.08-2.62-.17-3.79-.77-1.23-.63-2.02-1.74-2.63-2.94-.65-1.29-1.11-2.68-1.59-4.04-.51-1.45-1-2.91-1.47-4.38-3.2-9.88-5.64-20.01-7.39-30.25-.08-.47-.8-.27-.72.2,2.06,12.13,5.11,24.12,9.24,35.71.82,2.3,1.74,5,4.01,6.26,1.05.58,2.23.79,3.41.9,1.5.13,3.01.19,4.51.27,6.48.38,12.95.76,19.43,1.14,1.63.1,3.25.2,4.88.29,1.3.07,2.64.08,3.88-.37,2.32-.84,3.76-3.05,4.94-5.08,1.4-2.42,2.69-4.9,4.2-7.26s3.11-4.58,4.86-6.72c6.68-8.17,15.48-15.08,25.87-17.7,5.41-1.37,11.12-1.48,16.54-.11,4.63,1.17,8.93,3.39,12.67,6.35,7.35,5.82,12.57,14.09,15.65,22.87.87,2.48,1.57,5.01,2.12,7.58.27,1.27.5,2.56.69,3.85.09.61.07,1.32.33,1.89.22.49.44.97.66,1.46,1.87,4.08,3.86,8.1,5.9,12.09,4.58,8.94,9.44,17.74,14.29,26.54s10.13,18.32,14.97,27.6c4.43,8.47,8.72,17.05,12.36,25.9s6.67,18.76,8.79,28.47c2.35,10.74,3.73,21.7,3.86,32.7s-.94,21.41-3.8,31.71c-2.68,9.63-6.99,18.88-13.25,26.72-5.46,6.83-12.33,12.44-20.1,16.45-7.32,3.78-15.33,6.12-23.47,7.26-9.13,1.28-18.29.87-27.43-.16-12.29-1.37-24.46-3.71-36.81-4.6-6.08-.44-12.21-.52-18.28.08-5.54.54-11.19,1.55-16.41,3.51-7.57,2.85-14.11,8.03-19.58,13.9-6.42,6.89-11.58,14.96-15.55,23.49-4.21,9.05-7.11,18.72-8.4,28.62-.66,5-.89,10.07-.63,15.11.3,5.74,1.51,11.37,2.77,16.97,1.36,6.03,2.98,12,4.86,17.89.88,2.75,1.74,5.55,2.87,8.22.5,1.18,1.1,2.36,2.02,3.27.83.82,1.9,1.33,3.03,1.57,1.3.28,2.65.29,3.97.37,1.61.09,3.22.19,4.83.28,3.26.19,6.52.38,9.77.57s6.43.38,9.65.57c2.64.15,5.48.56,7.71-1.17,1.96-1.53,3.15-3.9,4.31-6.04,1.35-2.48,2.8-4.91,4.39-7.24,3.02-4.41,6.52-8.51,10.52-12.07,8.09-7.2,18.55-12.18,29.57-11.52,5.28.32,10.42,1.96,14.94,4.71,3.93,2.39,7.37,5.54,10.28,9.09,3.19,3.89,5.77,8.28,7.74,12.91,1.77,4.16,2.88,8.53,4.11,12.87,2.15,7.59,4.37,15.17,6.53,22.76,2.42,8.51,4.77,17.03,6.95,25.6s4.36,17.84,6.13,26.85,3.14,17.53,4.01,26.39c.79,8,1.14,16.07.6,24.09-.47,6.86-1.6,13.76-4.1,20.19-1.1,2.82-2.48,5.54-4.2,8.03-2.27,3.3-5.18,6.17-8.35,8.59-7.68,5.86-17.02,8.46-26.5,9.47s-18.95.7-28.4,1.54c-4.27.38-8.52,1-12.67,2.09-3.74.98-7.39,2.3-10.91,3.88-7.51,3.37-14.42,7.98-20.67,13.32-6.8,5.81-12.82,12.5-18.12,19.69-5.74,7.79-10.63,16.2-14.72,24.97-4.33,9.29-7.77,18.98-10.32,28.9-1.32,5.13-2.4,10.31-3.23,15.54-.39,2.42-.73,4.84-1.38,7.21-.54,1.97-1.23,4.18-2.69,5.68-.54.55-1.21.98-2,1.04-.39.03-.72-.02-1.06.21-.59.39-.78,1.22-.89,1.87-.43,2.64-.02,5.47.32,8.1.81,6.37,2.17,12.65,3.36,18.95.94,4.98,1.82,9.96,2.98,14.9,1.39,5.93,3.03,11.8,4.94,17.58.48,1.46.98,2.91,1.49,4.36.45,1.26.9,2.54,1.54,3.72.58,1.06,1.33,2.03,2.37,2.66s2.21.86,3.4.98c3.08.3,6.19.38,9.27.56s6.43.38,9.65.57,6.5.39,9.76.57c1.33.08,2.7.13,3.99-.28,1.14-.36,2.11-1.08,2.92-1.96,1.74-1.91,2.84-4.32,4.09-6.56,1.37-2.43,2.86-4.79,4.48-7.06,6.11-8.55,14.31-16.11,24.25-19.89,5.25-1.99,10.91-2.87,16.5-2.27,5.17.56,10.15,2.42,14.48,5.28,8.16,5.39,14.04,13.87,17.55,22.89.47,1.22.91,2.45,1.3,3.69.21.67.41,1.34.6,2.01.14.48.29.63.65.94.99.84,1.94,1.73,2.85,2.64,2.01,2.01,3.87,4.17,5.61,6.43,4.02,5.2,7.43,10.86,10.47,16.68,3.48,6.66,6.48,13.57,9.11,20.6,2.85,7.6,5.29,15.36,7.35,23.21s3.85,16.21,5.16,24.43,2.17,16.19,2.54,24.35c.34,7.6.25,15.23-.52,22.8-.68,6.76-1.9,13.5-4.01,19.96-1.96,6-4.76,11.55-8.57,16.58-5.96,7.86-13.32,14.57-21.7,19.78-7.75,4.82-16.22,8.33-24.89,11.09-8.66,2.76-17.53,4.8-26.39,6.85-4.43,1.03-8.86,2.06-13.26,3.19-3.69.95-7.39,1.9-10.94,3.31-7.06,2.81-13.59,6.89-19.63,11.47-7.07,5.36-13.56,11.5-19.47,18.11-6.35,7.09-12.08,14.76-17.05,22.89s-9.2,16.73-12.34,25.72c-3.02,8.65-5.02,17.7-5.44,26.87-.05,1.11-.08,2.22-.08,3.33,0,1.45.42,2.96.69,4.38.57,3.04,1.2,6.07,1.9,9.09,1.37,5.94,3,11.82,4.88,17.61.89,2.74,1.71,5.6,2.97,8.19.53,1.09,1.2,2.13,2.17,2.87s2.13,1.09,3.33,1.25c1.37.18,2.76.21,4.13.29,1.65.1,3.3.19,4.95.29,3.22.19,6.43.38,9.65.57s6.52.38,9.77.57c1.36.08,2.75.2,4.1-.08,1.21-.25,2.27-.88,3.16-1.74,1.82-1.77,2.93-4.18,4.15-6.37,1.35-2.45,2.83-4.83,4.44-7.12,6.03-8.59,14.14-16.24,24-20.16,5.19-2.07,10.8-3.06,16.38-2.58,5.27.45,10.35,2.23,14.8,5.08,8.2,5.26,14.15,13.65,17.74,22.6.48,1.21.93,2.43,1.33,3.67.38,1.17.66,2.38,1.1,3.53.55,1.45,1.09,2.91,1.62,4.37,1.22,3.35,2.39,6.72,3.54,10.1,2.72,8.02,5.28,16.09,7.72,24.19,2.7,8.96,5.26,17.96,7.65,27.01s4.59,18.02,6.53,27.12c1.72,8.04,3.26,16.13,4.3,24.28s1.42,17.08.93,25.65c-.58,10.14-2.22,20.26-5.15,29.99-2.64,8.78-6.36,17.38-11.79,24.81-5.03,6.87-11.66,12.53-19.82,15.28-8.72,2.93-18.06,2.34-27.02.97-9.13-1.39-18.17-3.6-27.41-4.22-8.94-.59-18.05.6-25.86,5.26-5.52,3.29-10.02,8.18-13.95,13.2-5.04,6.45-9.31,13.49-13.17,20.69-4.36,8.12-8.2,16.52-11.69,25.05s-6.72,17.44-9.53,26.34c-2.53,8.01-4.79,16.11-6.6,24.31-.2.91-.4,1.82-.58,2.74s-.46,1.82-.54,2.72c-.05.58.19,1.28.29,1.85.14.79.28,1.57.43,2.35.29,1.56.61,3.12.93,4.68,1.27,6.03,2.8,12.01,4.59,17.91.88,2.92,1.83,5.81,2.85,8.68.82,2.31,1.67,5.07,3.83,6.49.98.65,2.13.92,3.28,1.05,1.44.17,2.9.2,4.35.28,3.22.19,6.43.38,9.65.57s6.52.38,9.77.57c1.61.09,3.22.19,4.83.28,1.38.08,2.79.17,4.14-.2,2.37-.66,3.89-2.76,5.09-4.78,1.41-2.36,2.65-4.82,4.11-7.16,5.56-8.83,13.05-16.8,22.39-21.64,5.08-2.63,10.71-4.26,16.44-4.4s11.03,1.13,15.93,3.71c8.41,4.43,14.72,12.21,18.79,20.68,1.16,2.41,2.15,4.91,2.96,7.46.58,1.81,1.03,3.65,1.53,5.48.9,3.28,1.88,6.54,2.88,9.79,2.41,7.76,4.98,15.47,7.55,23.18,2.9,8.71,5.81,17.43,8.61,26.17s5.5,17.57,7.93,26.46c2.19,8.03,4.18,16.14,5.6,24.35.6,3.51,1.09,7.03,1.38,10.58.33,4.09.28,8.2.15,12.3-.36,10.75-1.7,21.5-4.19,31.97-2.32,9.78-5.65,19.42-10.52,28.24-4.57,8.29-10.6,15.87-18.48,21.24-8.56,5.83-18.66,8.56-28.91,9.32-10.4.76-20.76-.39-31.13-1.15-11.01-.81-22.27-1.16-33.05,1.65-5.09,1.33-10.23,3.33-14.64,6.23-2.1,1.38-3.95,3.14-5.64,5-4.58,5.04-8.21,10.93-11.44,16.9-3.91,7.24-7.21,14.82-10.02,22.55s-5.18,15.86-6.75,24.04c-1.33,6.94-2.2,14.12-1.56,21.19.13,1.45.33,2.91.63,4.34.53,2.57.96,5.15,1.48,7.73,1.22,6.06,2.69,12.07,4.42,18,.86,2.93,1.78,5.85,2.77,8.74.84,2.47,1.57,5.31,3.28,7.34s4.21,2.16,6.64,2.31c3.26.19,6.52.38,9.77.57s6.52.38,9.77.57c1.57.09,3.13.18,4.7.28s3.07.27,4.59.19c1.27-.06,2.52-.37,3.57-1.11.93-.65,1.67-1.51,2.32-2.43,1.57-2.19,2.7-4.69,4.07-7,5.34-8.98,12.58-17.13,21.7-22.37,4.97-2.86,10.52-4.77,16.25-5.23s11.34.53,16.47,2.94c8.53,4,15.06,11.51,19.35,19.76,1.22,2.35,2.28,4.79,3.16,7.29.46,1.31.88,2.63,1.26,3.97.21.75.75,1.36,1.18,2,1.76,2.65,3.37,5.4,4.86,8.22,3.34,6.32,6.09,12.95,8.45,19.69,2.62,7.46,4.76,15.09,6.53,22.8,1.87,8.16,3.32,16.41,4.36,24.72s1.66,16.61,1.81,24.94-.14,16.01-1.02,23.96c-.81,7.26-2.12,14.5-4.21,21.5-1.83,6.13-4.28,12.13-7.72,17.55-1.54,2.42-3.28,4.71-5.25,6.8-3.23,3.41-7.02,6.36-10.93,8.94-8.69,5.73-18.49,9.38-28.5,12.09s-19.84,4.5-29.68,7.07c-2.85.74-5.75,1.4-8.37,2.79-1.95,1.03-3.75,2.32-5.45,3.71-4.46,3.63-8.33,7.98-11.93,12.44-4.52,5.59-8.63,11.49-12.53,17.52-4.37,6.77-8.46,13.72-12.33,20.79s-7.74,14.66-11.27,22.15c-3.34,7.09-6.48,14.28-9.35,21.58-2.48,6.31-4.77,12.7-6.64,19.22-.77,2.66-1.46,5.35-2.02,8.07-.13.62-.25,1.24-.36,1.87-.05.26-.14.55-.14.82,0,.71.26,1.53.38,2.22.55,3.09,1.17,6.17,1.86,9.23,1.34,6,2.94,11.94,4.8,17.79.89,2.81,1.78,5.65,2.89,8.37.94,2.3,2.27,4.37,4.81,5.04,1.25.33,2.56.35,3.84.43,1.61.09,3.22.19,4.83.28,3.26.19,6.52.38,9.77.57s6.43.38,9.65.57c2.65.16,5.68.68,7.99-.98,2.01-1.45,3.22-3.8,4.38-5.93,1.35-2.48,2.77-4.91,4.36-7.25,2.99-4.41,6.45-8.5,10.4-12.07,8.03-7.25,18.42-12.32,29.44-11.8,5.34.25,10.56,1.86,15.15,4.6,3.91,2.34,7.34,5.44,10.26,8.94,3.22,3.86,5.81,8.22,7.81,12.82,1.09,2.52,2,5.12,2.74,7.77.28,1.01.83,1.98,1.29,2.92.49,1.01.99,2.01,1.51,3,4.54,8.65,10.14,16.72,15.86,24.61,6.15,8.48,12.55,16.78,18.69,25.27,5.68,7.85,11.23,15.88,15.69,24.5,2.4,4.64,4.46,9.49,6.31,14.37,2.1,5.53,3.81,11.27,4.41,17.17s-.08,12.01-2.01,17.76c-1.77,5.28-4.38,10.24-6.92,15.19-4.9,9.52-10.08,18.9-15.8,27.95-5.45,8.62-11.41,17.01-18.33,24.52-5.9,6.4-12.63,12.35-20.54,16.14-7.04,3.38-14.92,4.64-22.58,2.84-8.51-2-15.73-7.37-22.25-12.97-6.96-5.98-13.4-12.58-20.72-18.13-6.64-5.05-14.29-9.25-22.82-9.48s-16.56,3.29-23.22,8.32c-7.87,5.95-14.11,13.94-18.86,22.53-5.31,9.61-8.81,20.2-11.19,30.89-2.51,11.28-3.76,22.82-4.16,34.35-.34,9.87-.05,19.75.73,29.59l.74-.1c-.08-.46-.07-1.2-.32-1.61-.1-.17-.34-.25-.51-.13-.32.21-.12.77-.07,1.07.11.68.23,1.35.34,2.03.39,2.28.78,4.57,1.17,6.85.48,2.82.97,5.64,1.45,8.46.42,2.46.84,4.91,1.26,7.37.14.83.28,1.65.42,2.48.06.37.06.88.2,1.22.03.06,0-.07,0-.13l.26-.26h0c.14.06.28.11.42.17.09.16.01.02,0-.06,0-.13-.05-.27-.07-.4-.1-.55-.2-1.11-.3-1.67-.42-2.38-.84-4.77-1.26-7.15-.4-2.25-.79-4.49-1.18-6.74-.07-.41-.77-.32-.74.1,1.12,14.32,3.57,28.54,7.42,42.37.94,3.37,1.97,6.72,3.08,10.05.54,1.62,1.09,3.25,1.7,4.84.53,1.37,1.13,2.77,2.12,3.89,2.11,2.37,5.61,2.11,8.5,2.28,3.79.22,7.59.45,11.38.67s7.59.45,11.38.67c1.66.1,3.38.32,5.04.07,1.41-.21,2.63-.87,3.64-1.87,2.14-2.12,3.35-5.07,4.84-7.64,1.63-2.83,3.43-5.56,5.42-8.15,7.55-9.88,18.19-18.23,30.77-20.12,6.55-.98,13.32,0,19.27,2.9,4.74,2.32,8.86,5.76,12.29,9.74,3.87,4.5,6.89,9.73,9.05,15.25.93,2.38,1.81,4.84,2.25,7.37.24,1.37.48,2.74.72,4.11,1.19,6.71,2.43,13.42,3.66,20.13,1.5,8.24,2.99,16.49,4.41,24.74,1.58,9.14,3.08,18.3,4.47,27.48s2.79,19.22,3.93,28.86,2.04,18.76,2.66,28.17c.58,8.62.91,17.27.76,25.91-.12,7.36-.56,14.75-1.81,22.01-.95,5.56-2.35,11.21-5.05,16.2-1.71,3.16-4.09,5.87-6.67,8.36-4.06,3.93-8.81,7.1-14.01,9.3-9.95,4.22-21.02,4.79-31.65,3.68-12.85-1.33-25.26-5.2-38-7.2-12.98-2.03-27.05-2.19-38.96,4.15-8.82,4.69-15.67,12.76-20.5,21.36-5.4,9.61-8.62,20.62-8.67,31.67-.02,5.43.76,10.87,2.43,16.05l.55-.42c-1.56-.72-1.34,3.19-1.34,3.83.02,3.57.37,7.14.69,10.69.41,4.5.87,9,1.3,13.5.38,3.94.76,7.89.94,11.85.06,1.29.11,2.59.03,3.89-.03.43-.05.76-.14,1.16-.02.07-.03.14-.06.2-.03.1-.04.11-.04.11-.02.04-.05.08-.07.12.02-.04.01-.03.02-.03.04,0,.07-.02.11,0-.31-.14-.61.09-.55.42,1.16,6.79,2.62,13.53,4.41,20.18.87,3.23,1.81,6.44,2.84,9.63.5,1.54,1.01,3.07,1.54,4.6s1,2.95,1.69,4.35c.59,1.2,1.37,2.33,2.52,3.06s2.39.93,3.66,1.04c3.43.3,6.89.41,10.32.62s7.18.42,10.76.63c1.77.1,3.55.21,5.32.31,1.63.1,3.31.31,4.94.09,2.79-.38,4.54-2.51,5.92-4.79,1.58-2.6,2.92-5.31,4.56-7.87,3.18-4.96,6.95-9.57,11.32-13.54,8.84-8.04,20.69-13.45,32.84-11.61,10.86,1.64,19.71,8.86,25.58,17.86,3.18,4.87,5.54,10.25,7.09,15.85.25.9.92,1.71,1.4,2.51.52.86,1.02,1.72,1.52,2.59,1.02,1.79,1.99,3.6,2.93,5.43,4.27,8.36,7.8,17.09,10.83,25.96,3.33,9.75,6.05,19.71,8.14,29.79s3.59,20.52,4.14,30.91c.5,9.5.26,19.11-1.4,28.49-.74,4.2-1.78,8.36-3.23,12.38-1.86,5.18-4.35,10.18-6.93,15.03-5.47,10.28-12.08,19.93-19.66,28.77-7.07,8.24-14.95,15.77-23.39,22.6-4.14,3.35-8.41,6.53-12.8,9.55-4.01,2.77-8.17,5.3-12.26,7.95-7.16,4.66-13.6,10.41-19.77,16.3-7.34,7.01-14.32,14.39-21.22,21.82s-14.31,15.6-21.57,23.3c-6.57,6.97-13.24,13.87-20.38,20.27-3.06,2.74-6.2,5.39-9.52,7.82-.35.25-.7.49-1.04.75-.53.41-.29,1.28-.29,1.89,0,1.83,0,3.66,0,5.48,0,3.57.03,7.14.07,10.72.15,14.36.51,28.72,1.1,43.07.28,6.88.61,13.75.99,20.63,0,.15.11.33.28.36,2.61.49,5.27.7,7.91.87,3.56.23,7.12.33,10.68.39,8.33.14,16.66.02,24.99-.2,6.97-.19,13.93-.44,20.89-.85,1.28-.08,2.57-.21,3.86-.18,3.24.08,6.47.15,9.71.2,6.56.1,13.12.13,19.68.12,13.04-.03,26.08-.24,39.12-.47s25.99-.48,38.99-.6,26.07-.1,39.11.22c11.49.28,22.98.55,34.47.72s23.59.3,35.39.38c12.03.08,24.07.13,36.1.15,12.14.03,24.28.04,36.42.05s24.24.03,36.35.07c11.97.04,23.93.11,35.9.22s23.29.26,34.94.48c11.8.22,23.6.55,35.4.85,12.43.31,24.87.61,37.3.88,12.52.27,25.04.52,37.56.74,12.56.22,25.11.41,37.67.56s25.18.27,37.77.34,25.22.1,37.84.07,25.26-.1,37.89-.23c12.64-.13,25.28-.32,37.91-.58,12.6-.25,25.2-.57,37.8-.96s25.27-.85,37.9-1.39c12.59-.54,25.17-1.15,37.75-1.85s25.21-1.48,37.81-2.36c12.58-.87,25.16-1.84,37.73-2.91,12.55-1.06,25.09-2.23,37.62-3.5s25.01-2.64,37.5-4.13c12.42-1.48,24.82-3.07,37.21-4.78s24.73-3.53,37.06-5.48c6.18-.98,12.35-1.99,18.52-3.03,1.57-.27,3.14-.53,4.71-.8s3.08-.58,4.63-.72c3.18-.29,6.37-.57,9.56-.86,12.6-1.12,25.21-2.22,37.81-3.3,12.62-1.08,25.24-2.13,37.86-3.15s25.2-2.01,37.81-2.97c12.59-.96,25.17-1.88,37.76-2.77s25.15-1.74,37.73-2.55,25.14-1.59,37.71-2.32c12.52-.73,25.05-1.42,37.58-2.06,12.57-.65,25.13-1.25,37.7-1.8s25.06-1.06,37.6-1.51c12.58-.45,25.16-.86,37.74-1.21s25.18-.65,37.78-.89c12.61-.24,25.22-.42,37.82-.55,12.63-.12,25.26-.19,37.88-.19s25.3.06,37.96.19,25.36.32,38.04.58c12.67.26,25.34.59,38.01.99,12.75.4,25.49.88,38.24,1.42,12.75.55,25.49,1.17,38.23,1.86,12.83.7,25.66,1.48,38.48,2.33,12.88.86,25.75,1.8,38.62,2.82,12.93,1.02,25.86,2.13,38.78,3.32,12.99,1.19,25.97,2.47,38.94,3.84,12.89,1.35,25.83,1.84,38.79,1.99,12.91.15,25.81.04,38.72.4,12.03.33,24.04,1.18,36.02,2.27s24.55,2.5,36.8,3.89c12.51,1.42,25.02,2.85,37.56,4.06,12.59,1.22,25.2,2.21,37.83,2.75,6.3.27,12.6.42,18.91.42,3.15,0,6.29-.28,9.44-.27,2.94.01,5.87.16,8.8.34s5.71.4,8.57.56c1.47.08,2.95.15,4.42.19,1.3.04,2.65.14,3.94-.05,5.08-.75,4.85-7.71,4.94-11.56.2-8.79.36-17.58.5-26.36.16-9.92.29-19.84.41-29.76.12-10.05.22-20.1.29-30.15.07-9.06.12-18.11.15-27.17.03-9.81-.05-19.62-.1-29.43-.07-12.95-.09-25.9-.08-38.86.01-12.85.06-25.7.14-38.54.08-12.77.18-25.54.3-38.31.12-12.72.26-25.44.41-38.15s.31-25.39.46-38.08c.16-12.65.31-25.31.46-37.96.15-12.72.28-25.44.4-38.17.12-12.73.22-25.47.29-38.2.07-12.86.12-25.71.12-38.57,0-12.96-.03-25.93-.1-38.89-.04-5.86-.1-11.71-.03-17.56.05-4.72.11-9.44.16-14.17.1-9.61.2-19.23.28-28.84s.17-19.66.24-29.49c.08-10,.15-20,.21-29.99s.12-20.43.18-30.64c.05-10.35.1-20.7.15-31.05.05-10.54.09-21.07.12-31.61.04-10.67.07-21.35.1-32.02.03-10.79.05-21.59.08-32.38s.04-21.8.06-32.7c.02-10.99.03-21.98.04-32.97.01-11.03.02-22.06.03-33.09s.01-22.25.02-33.38c0-11.13,0-22.27.01-33.4s0-22.39,0-33.59,0-22.42,0-33.63c0-11.21,0-22.41,0-33.62s0-22.38,0-33.56c0-11.15,0-22.31.01-33.46s.01-22.21.02-33.31.02-22.01.03-33.01.03-21.92.05-32.87c.02-10.83.04-21.65.06-32.48.02-10.75.05-21.5.08-32.25s.07-21.24.11-31.86c.04-10.48.08-20.96.13-31.43.05-10.32.1-20.64.16-30.96s.12-20.29.19-30.43c.07-9.92.14-19.84.22-29.77s.17-19.5.26-29.24.19-18.99.3-28.49c.06-5.49.06-10.98-.02-16.47-.09-6.47-.18-12.94-.26-19.42-.17-12.98-.33-25.96-.48-38.94s-.28-25.85-.4-38.77c-.12-12.87-.22-25.75-.3-38.62-.08-12.83-.14-25.66-.18-38.5s-.05-25.51-.03-38.27.06-25.54.13-38.3.18-25.41.32-38.12c.14-12.73.32-25.46.53-38.2.22-12.73.47-25.45.77-38.17s.64-25.45,1.02-38.17c.39-12.73.82-25.46,1.3-38.19.48-12.75,1.01-25.49,1.6-38.23.59-12.77,1.23-25.53,1.92-38.3.35-6.35.71-12.71,1.08-19.06.18-3.03.39-6.05.43-9.08.04-2.73.08-5.46.12-8.19.16-10.94.33-21.87.49-32.81.16-11.04.33-22.08.49-33.12.16-11.21.33-22.41.49-33.62s.33-22.66.49-33.99.33-22.89.5-34.34c.17-11.55.34-23.11.51-34.66.17-11.66.35-23.31.53-34.97s.36-23.43.54-35.14.37-23.67.57-35.51.39-23.76.59-35.63.41-23.98.62-35.96.43-24.11.65-36.16c.22-12.11.45-24.22.68-36.33.23-12.16.47-24.32.72-36.48s.5-24.4.76-36.6c.26-12.2.53-24.39.8-36.59.28-12.26.56-24.53.85-36.79.29-12.24.59-24.49.89-36.73.31-12.3.62-24.59.95-36.89.33-12.3.66-24.6,1.01-36.9.34-12.3.7-24.6,1.06-36.9.36-12.29.74-24.58,1.13-36.87s.78-24.54,1.19-36.82c.41-12.25.83-24.5,1.26-36.74.43-12.18.87-24.35,1.33-36.53.46-12.18.92-24.35,1.41-36.53.48-12.09.97-24.18,1.48-36.27s1.03-24.15,1.57-36.23c.53-12.01,1.08-24.03,1.65-36.04.56-11.95,1.13-23.89,1.74-35.83.66-13.01,1.46-26.02,2.22-39.03s1.55-26.03,2.37-39.04c.81-12.97,1.64-25.93,2.5-38.9s1.74-26,2.65-39c.9-12.96,1.83-25.91,2.78-38.86s1.93-25.98,2.92-38.97,2.02-25.97,3.06-38.95c1.04-12.98,2.11-25.95,3.2-38.93,1.09-12.97,2.21-25.94,3.34-38.9,1.14-12.96,2.3-25.92,3.48-38.88,1-10.89,2.01-21.78,3.04-32.67.02-.19-.19-.39-.38-.38-11.33.8-22.71.8-34.03-.03-5.72-.42-11.43-1.04-17.1-1.87-2.82-.41-5.64-.88-8.45-1.39-1.45-.26-2.89-.54-4.33-.83-.6-.12-1.32-.4-1.92-.4-.47,0-.92.45-1.3.71-7.86,5.21-15.78,10.33-23.76,15.35s-16.04,9.95-24.15,14.78c-8.12,4.84-16.29,9.58-24.52,14.22-8.24,4.65-16.53,9.21-24.87,13.67-8.35,4.47-16.75,8.84-25.2,13.11s-16.96,8.47-25.51,12.56-17.23,8.13-25.9,12.06-17.35,7.74-26.09,11.47-17.59,7.4-26.45,10.97-17.69,7.02-26.59,10.39-17.84,6.66-26.81,9.86-17.98,6.31-27.02,9.33-18.11,5.96-27.2,8.8c-9.1,2.85-18.22,5.61-27.37,8.28s-18.32,5.26-27.52,7.76-18.41,4.91-27.65,7.24-18.49,4.57-27.76,6.73c-9.27,2.16-18.55,4.23-27.85,6.22s-18.6,3.89-27.93,5.72-18.64,3.56-27.99,5.21-18.67,3.23-28.03,4.72-18.69,2.89-28.05,4.22-18.82,2.58-28.25,3.75-18.68,2.24-28.03,3.24-18.66,1.91-28,2.75-18.62,1.59-27.94,2.27-18.58,1.27-27.87,1.79-18.52.96-27.78,1.32-18.45.64-27.67.84-18.36.33-27.55.38-18.27.02-27.4-.09-18.16-.29-27.24-.55-18.04-.59-27.06-1.01-17.91-.9-26.86-1.46-17.76-1.2-26.64-1.91-17.61-1.49-26.4-2.36-17.44-1.79-26.15-2.8-17.31-2.09-25.96-3.25c-10.93-1.47-21.86-3.02-32.77-4.64s-22.16-3.34-33.22-5.1-22.14-3.59-33.19-5.46-22.12-3.82-33.16-5.8c-11.05-1.99-22.1-4.03-33.13-6.11s-22.08-4.22-33.11-6.39c-11.04-2.17-22.06-4.39-33.08-6.64s-22.05-4.54-33.06-6.86-22.04-4.67-33.05-7.05-22.03-4.78-33.03-7.21-22.02-4.87-33.02-7.34-22.01-4.95-33.01-7.44-22-5-33-7.51-22-5.03-33-7.55-22-5.05-33-7.57-22-5.04-33-7.55-22-5.01-33-7.51-22-4.97-33.01-7.43-22.01-4.9-33.02-7.33c-11.01-2.42-22.02-4.82-33.03-7.19s-22.02-4.72-33.05-7.03-22.03-4.59-33.06-6.84-22.13-4.46-33.2-6.64c-11.03-2.16-22.06-4.29-33.11-6.36s-22.08-4.1-33.13-6.08-22.1-3.9-33.16-5.77-22.12-3.68-33.19-5.43-22.14-3.44-33.22-5.06-22.07-3.16-33.12-4.64c-5.55-.74-11.09-1.47-16.64-2.17-3.34-.42-6.67-.73-10.04-.82-6.6-.18-13.22.32-19.74,1.36-6.91,1.1-13.72,2.79-20.38,4.94-7.05,2.27-13.93,5.05-20.62,8.21-7.1,3.34-14,7.11-20.69,11.21-7.02,4.29-13.82,8.95-20.4,13.89s-13.4,10.52-19.75,16.19-12.87,11.96-18.94,18.31-12.1,13.15-17.76,20.06-11.1,14.08-16.23,21.43-10.02,14.96-14.57,22.73-8.64,15.48-12.45,23.48c-3.43,7.21-6.56,14.55-9.35,22.02-.17.45.56.65.72.2h0Z"/>
  </g>
  <path class="cls-1" d="M652.77,145.16c-192.58-6.65-384.3-16.56-572.78-31.1l-3.84,274.84,66.33.93c-2.29-29.28,98.45-47.19,102.86,36.19,4.55,85.99-100.6,58.14-105.87,27.08l-64.21-1.02s-3.89,278.59-4.29,307.22c11.53.16,64.11.89,64.11.89-3.35-36.62,98.61-53.56,102.86,36.19,3.76,79.35-106.09,48.38-105.87,27.08l-64.21-1.02s-3.93,281.28-4.29,307.62c0,0,66.33.92,66.33.92.47-33.38,104.45-51.35,102.86,36.19-1.56,85.9-103.98,61.6-105.87,27.08l-64.21-1.02s-3.82,273.85-4.28,306.43c0,0,66.33.92,66.33.92.9-29.27,102.36-45,102.86,36.19.53,86.58-102.68,55.63-105.87,27.08l-64.21-1.02s-3.93,281.28-4.3,307.61c11.53.16,64.11.89,64.11.89-.47-30.54,103.38-45.3,102.86,36.19-.51,81.73-102.98,53.61-105.87,27.08l-64.21-1.02s-3.82,273.85-4.28,306.43c0,0,66.33.92,66.33.92,2.58-30.16,102.98-48.98,102.86,36.19-.12,85.43-100.34,58.26-105.87,27.08l-64.21-1.02s-3.85,275.56-4.28,306.73c10.84.15,64.41.9,64.41.9,2.66-28.64,105.58-47.65,102.86,36.19-2.76,84.9-102.4,54.15-105.87,27.08l-64.21-1.02s-3.9,279.24-4.29,307.32c11.21.16,64.26.9,64.26.9.61-36.74,101.07-55.96,102.86,36.19,1.67,85.71-101.12,56.59-105.87,27.08l-64.21-1.02s-4.01,287.61-4.3,308.4c4.91.07,8.54.12,8.54.12l66.33.93c.52-34.43,103.86-49.89,102.86,36.19-1.12,96.78-103.73,62.22-105.87,27.08l-64.21-1.02-4.32,309.59c64.14,2.2,107.18,14.61,171.32,16.81,263.24,9.05,526.82,18.09,789.93-.89,114.13-8.23,228.04-21.73,342.1-31.64,360.02-31.28,742.47-32.06,1101.55,8.2-13.75-1053.44-.64-2107.8,39.31-3160.64,3.81-100.4,11.44-303.96,9.39-404.39-30.51.74-183.59-3.71-214.11-3.01-221.63,5.08-443.28,7.84-664.92,8.28-312.32.62-633.08-1.46-951.5-12.46Z"/>
</svg>