<?xml version="1.0" encoding="UTF-8"?>
<svg id="Layer_1" data-name="Layer 1" xmlns="http://www.w3.org/2000/svg" viewBox="0 0 1649.83 3102.49">
  <defs>
    <style>
      .cls-1 {
        fill: #fef3ed;
      }

      .cls-2 {
        opacity: .2;
      }

      .cls-3 {
        fill: gray;
      }

      .cls-4 {
        fill: #fbeda6;
      }

      .cls-5 {
        opacity: .22;
      }
    </style>
  </defs>
  <g class="cls-5">
    <path class="cls-3" d="M1549.98,840.7c4.59,101.75,9.13,202.9,13.36,300.79,10.38,183.06,25.51,447.84,35.89,630.9,6.78,144.87,16.74,363,23.52,507.87,4.11,140.34,12.26,299.69,19.64,439.5,2.33,38.47,4.66,76.93,7,115.4.11,1.79.11,4-.77,4.94-.37.39-.81.45-1.24.49-18.28,1.96-37.67,6.93-54.55,11.94-53.69,9.97-120.57,17.45-174.47,19.6,2.34,4.72-23.8,13.88-21.46,18.59-116.17-4.42-237.91,38.14-361.05,64.49-101.97,17.85-203.95,35.7-305.92,53.55-33.87,5.93-67.74,11.86-101.61,17.79-20.21,3.54-40.42,7.08-60.63,10.61-104.55,17.75-225.2,43-329.76,60.76-24.94-.52-52.44.17-77.34,3.98-1.48.23-3.63.69-4.61-1.27-.64-1.27-.35-3.47-.46-5.18-1.18-18.73-1.39-37.68-.6-56.54,39.58-196.8,96.81-408.18,150.06-594.82,115.42-404.53,231.29-810.41,375.22-1185.43,143.93-375.02,317.68-720.56,530.52-970.84,49.39-58.08,100.72-110.85,153.61-157.91,25.89-23.04,85.29-77.5,113.13-65.61,12.91-7.23,26.2-12.18,39.61-14.76,3.02,117.77,7.45,235.38,13.29,352.73,6.14,141.98,12.92,290.83,19.58,438.42Z"/>
    <path class="cls-3" d="M1549.61,840.7c.48,10.64.96,21.28,1.44,31.92s.96,21.24,1.43,31.87.95,21.19,1.43,31.79c.47,10.57.95,21.13,1.42,31.7s.94,21.06,1.41,31.58c.47,10.53.94,21.05,1.4,31.58.46,10.43.92,20.87,1.38,31.3.46,10.38.91,20.76,1.37,31.14.45,10.32.9,20.63,1.35,30.95.39,8.99.79,17.98,1.3,26.96.43,7.6.86,15.2,1.29,22.81.44,7.84.89,15.67,1.33,23.51.46,8.05.91,16.1,1.37,24.14.47,8.24.94,16.48,1.41,24.72.48,8.41.96,16.82,1.43,25.22.49,8.56.97,17.11,1.46,25.67s.99,17.37,1.48,26.05,1,17.65,1.51,26.47c.51,8.88,1.01,17.75,1.52,26.63s1.02,17.88,1.53,26.82c.51,8.98,1.02,17.96,1.53,26.94.51,9,1.03,18,1.54,27s1.03,18,1.54,27,1.02,17.96,1.53,26.94,1.02,17.87,1.53,26.81c.51,8.87,1.01,17.74,1.52,26.62s1,17.57,1.5,26.36.99,17.36,1.48,26.04c.49,8.55.97,17.1,1.46,25.66s.96,16.81,1.43,25.21.94,16.46,1.4,24.7.91,16.08,1.37,24.12c.44,7.83.89,15.65,1.33,23.48s.86,15.19,1.29,22.78c.41,7.27.77,14.55,1.11,21.82s.69,14.87,1.04,22.3.72,15.46,1.08,23.18.75,16.04,1.12,24.06c.38,8.22.76,16.43,1.14,24.65s.78,16.82,1.17,25.23c.4,8.57.79,17.14,1.19,25.71.4,8.69.8,17.39,1.2,26.08.41,8.78.81,17.57,1.22,26.35s.82,17.68,1.22,26.52.82,17.72,1.23,26.59.82,17.7,1.22,26.55.81,17.61,1.22,26.41c.4,8.72.81,17.45,1.21,26.17.4,8.64.8,17.29,1.2,25.93s.78,16.92,1.17,25.38c.38,8.28.77,16.55,1.15,24.83s.75,16.12,1.12,24.18.73,15.62,1.09,23.43.7,15.05,1.05,22.57.77,14.95.99,22.44c.28,9.48.58,18.96.89,28.44.32,9.62.64,19.25.99,28.87.35,9.75.71,19.49,1.08,29.24.38,9.84.76,19.69,1.16,29.53.4,9.92.81,19.84,1.23,29.75.42,9.97.86,19.94,1.3,29.91.44,10,.89,20,1.35,30s.93,20.01,1.4,30.02c.47,9.99.95,19.98,1.44,29.97s.97,19.9,1.47,29.85.99,19.77,1.49,29.66,1,19.6,1.5,29.4,1,19.38,1.5,29.07c.5,9.6,1,19.19,1.51,28.79.5,9.61.98,19.23,1.56,28.83.64,10.63,1.29,21.27,1.93,31.9.64,10.63,1.29,21.27,1.93,31.9.64,10.63,1.29,21.27,1.93,31.9.16,2.66.32,5.32.48,7.98s.39,5.11.44,7.66c.02.98.02,2.05-.34,2.98-.18.46-.46.83-.96.96-.59.15-1.26.15-1.86.22-2.41.28-4.82.6-7.22.97-9.93,1.51-19.74,3.69-29.46,6.21-4.71,1.22-9.39,2.53-14.06,3.89-1.11.32-2.19.67-3.33.88-1.07.2-2.13.39-3.2.58-2.16.39-4.32.77-6.48,1.15-8.95,1.56-17.92,3-26.9,4.35s-18.73,2.7-28.12,3.9-18.98,2.33-28.48,3.34-18.89,1.93-28.35,2.74c-9.23.8-18.46,1.5-27.7,2.09-8.07.51-16.15.94-24.24,1.27-.3.01-.45.31-.32.56.52,1.09-.97,2.38-1.71,3.03-1.72,1.5-3.71,2.69-5.66,3.86-2.28,1.37-4.59,2.67-6.86,4.05-1.91,1.16-3.85,2.35-5.53,3.84-1.02.91-2.41,2.34-1.7,3.82l.32-.56c-9.39-.35-18.79-.41-28.18-.19s-18.94.72-28.39,1.45c-9.55.74-19.07,1.71-28.58,2.88s-19.03,2.54-28.51,4.07-19.3,3.28-28.92,5.14-19.4,3.88-29.07,5.98c-9.76,2.12-19.49,4.34-29.21,6.62-9.75,2.29-19.49,4.65-29.22,7.04-9.82,2.41-19.63,4.86-29.45,7.31s-19.69,4.92-29.54,7.36c-9.87,2.44-19.74,4.85-29.63,7.21-9.89,2.36-19.78,4.65-29.7,6.86-4.97,1.11-9.95,2.29-14.96,3.17s-10.25,1.8-15.38,2.69c-10.34,1.81-20.67,3.62-31.01,5.43s-20.67,3.62-31.01,5.43-20.67,3.62-31.01,5.43-20.59,3.6-30.89,5.41-20.67,3.62-31.01,5.43c-10.34,1.81-20.67,3.62-31.01,5.43-10.34,1.81-20.67,3.62-31.01,5.43-10.34,1.81-20.67,3.62-31.01,5.43s-20.59,3.6-30.89,5.41c-10.33,1.81-20.67,3.62-31,5.43s-20.67,3.62-31,5.43c-10.29,1.8-20.58,3.6-30.88,5.41s-20.65,3.61-30.97,5.42-20.62,3.61-30.93,5.41c-9.69,1.7-19.39,3.37-29.09,5.05-9.11,1.58-18.21,3.19-27.31,4.82s-18.56,3.35-27.84,5.06c-9.38,1.73-18.76,3.47-28.13,5.23s-19.02,3.58-28.53,5.39-19.14,3.64-28.7,5.47-19.09,3.65-28.64,5.47c-9.56,1.82-19.12,3.64-28.69,5.46s-19,3.59-28.5,5.37c-9.39,1.76-18.79,3.5-28.19,5.23s-18.51,3.38-27.77,5.03c-9.07,1.62-18.14,3.21-27.22,4.78-2.2.38-4.4.75-6.6,1.13-2.34.4-4.77.17-7.14.14-4.84-.06-9.68-.07-14.51-.03-9.87.1-19.74.44-29.58,1.12-4.89.34-9.78.77-14.65,1.3-4.58.5-9.13,1.18-13.69,1.81-.76.1-1.62.18-2.34-.14-.94-.41-1.3-1.4-1.4-2.36-.11-1.01-.04-2.04-.06-3.05-.02-1.25-.14-2.5-.21-3.74-.3-5.15-.52-10.31-.66-15.46-.3-10.43-.29-20.86.01-31.29.08-2.59-.04-5.3.47-7.84.48-2.36.95-4.72,1.43-7.08.96-4.74,1.93-9.47,2.91-14.21,1.97-9.52,3.97-19.04,6-28.54s4.11-19.14,6.21-28.7,4.25-19.22,6.42-28.83,4.36-19.22,6.58-28.81,4.5-19.34,6.78-29.01,4.6-19.38,6.94-29.06,4.68-19.32,7.06-28.97,4.79-19.39,7.22-29.08,4.87-19.37,7.34-29.05,4.94-19.34,7.44-29,5-19.28,7.53-28.92,5.05-19.21,7.6-28.81,5.08-19.05,7.63-28.57,5.13-19.02,7.71-28.53,5.15-18.9,7.74-28.34,5.14-18.68,7.73-28.02,5.17-18.6,7.76-27.9c2.58-9.22,5.16-18.43,7.75-27.64s5.14-18.24,7.73-27.35,5.12-18.03,7.69-27.04c2.79-9.79,5.59-19.58,8.38-29.37,2.8-9.83,5.61-19.65,8.41-29.47s5.63-19.73,8.45-29.59,5.64-19.73,8.46-29.59c2.81-9.82,5.62-19.64,8.44-29.46s5.65-19.72,8.49-29.57c2.83-9.85,5.66-19.71,8.5-29.56,2.84-9.85,5.68-19.7,8.52-29.55,2.84-9.84,5.69-19.69,8.54-29.53s5.68-19.6,8.53-29.39,5.72-19.66,8.59-29.49,5.74-19.64,8.62-29.46,5.76-19.62,8.65-29.43,5.76-19.52,8.65-29.28,5.8-19.58,8.71-29.37c2.91-9.78,5.83-19.56,8.75-29.33s5.85-19.53,8.79-29.29,5.88-19.5,8.83-29.25,5.89-19.39,8.84-29.09,5.94-19.44,8.93-29.15,5.97-19.41,8.97-29.1c3-9.69,6.01-19.37,9.03-29.05,3-9.63,6.02-19.26,9.04-28.88s6.08-19.29,9.14-28.93,6.12-19.25,9.2-28.87,6.16-19.21,9.26-28.81,6.2-19.16,9.32-28.74,6.22-19.04,9.35-28.56c3.14-9.54,6.29-19.07,9.46-28.6s6.34-19.02,9.53-28.52c3.17-9.45,6.36-18.89,9.56-28.33s6.43-18.91,9.68-28.36,6.49-18.86,9.75-28.27,6.54-18.8,9.83-28.19,6.59-18.74,9.92-28.1,6.65-18.68,10-28,6.68-18.54,10.05-27.8,6.77-18.55,10.18-27.81,6.83-18.48,10.27-27.71,6.86-18.34,10.33-27.5,6.96-18.34,10.46-27.5c3.5-9.13,7.01-18.25,10.55-27.36s7.08-18.17,10.66-27.24,7.16-18.09,10.77-27.13c3.6-9.01,7.23-18.01,10.87-27.01s7.27-17.86,10.94-26.77,7.37-17.84,11.09-26.75,7.48-17.83,11.26-26.73,7.49-17.58,11.27-26.36,7.59-17.56,11.43-26.32,7.67-17.45,11.54-26.16,7.74-17.34,11.66-26,7.82-17.23,11.77-25.83,7.9-17.12,11.89-25.66,7.94-16.93,11.95-25.38,8.05-16.88,12.12-25.3,8.13-16.75,12.24-25.11,8.18-16.56,12.31-24.82c4.13-8.25,8.29-16.49,12.48-24.71,4.17-8.18,8.37-16.35,12.6-24.51s8.45-16.21,12.72-24.3,8.53-16.07,12.84-24.08,8.61-15.92,12.96-23.85,8.66-15.71,13.03-23.53c4.37-7.82,8.77-15.61,13.21-23.39s8.86-15.45,13.33-23.15,8.9-15.23,13.41-22.81,9.02-15.12,13.59-22.65,9.11-14.95,13.71-22.39c4.58-7.4,9.19-14.78,13.84-22.13s9.28-14.6,13.97-21.86,9.36-14.42,14.1-21.59,9.41-14.17,14.18-21.22c4.75-7.03,9.54-14.04,14.36-21.02s9.63-13.85,14.5-20.73,9.68-13.59,14.57-20.35,9.8-13.45,14.76-20.13c4.93-6.64,9.89-13.24,14.9-19.82s10.02-13.09,15.09-19.58,10.07-12.82,15.17-19.18c5.04-6.29,10.12-12.55,15.25-18.78s10.26-12.38,15.45-18.53c6.24-7.38,12.54-14.71,18.89-21.99s13.31-15.09,20.06-22.55c6.66-7.36,13.38-14.65,20.18-21.89s13.57-14.32,20.45-21.39,13.69-13.93,20.63-20.8,13.81-13.54,20.82-20.2c6.93-6.6,13.93-13.14,20.99-19.6,5.98-5.48,12.03-10.89,18.08-16.29,4.14-3.7,8.29-7.39,12.47-11.04,4.87-4.26,9.79-8.46,14.78-12.58,5.33-4.4,10.74-8.71,16.27-12.86s11.01-8.03,16.73-11.71c5.33-3.43,10.81-6.65,16.52-9.41,4.93-2.39,10.06-4.48,15.4-5.76,4.33-1.04,8.92-1.57,13.34-.75.99.18,1.96.43,2.91.75.42.14.92.46,1.36.52.41.06.9-.38,1.24-.57.6-.33,1.2-.66,1.8-.98,4.43-2.36,8.98-4.49,13.63-6.36,7.48-3,15.22-5.32,23.14-6.85l-.47-.36c.33,13.07.69,26.13,1.06,39.2.37,12.98.75,25.96,1.15,38.93s.82,26.03,1.26,39.04c.44,13.01.89,26.02,1.36,39.03s.96,25.93,1.46,38.89c.51,13.04,1.03,26.08,1.58,39.12s1.1,25.91,1.67,38.86,1.17,25.98,1.78,38.96,1.24,25.96,1.88,38.95c.62,12.45,1.09,24.9,1.63,37.36.55,12.6,1.1,25.2,1.66,37.8.55,12.6,1.11,25.21,1.67,37.81.56,12.72,1.13,25.44,1.69,38.15.57,12.78,1.14,25.56,1.71,38.34.57,12.79,1.15,25.58,1.72,38.37.58,12.91,1.16,25.83,1.74,38.74s1.16,25.72,1.74,38.58,1.17,25.92,1.76,38.88c.58,12.89,1.16,25.77,1.75,38.66s1.17,25.85,1.75,38.77c.28,6.23.56,12.46.84,18.69.02.48.77.48.75,0-.58-12.96-1.17-25.92-1.76-38.88s-1.16-25.77-1.75-38.66c-.58-12.92-1.17-25.85-1.75-38.77-.58-12.91-1.17-25.82-1.75-38.73-.58-12.85-1.16-25.69-1.74-38.54-.58-12.89-1.16-25.79-1.74-38.68-.57-12.77-1.14-25.53-1.71-38.3-.57-12.75-1.14-25.5-1.7-38.25-.56-12.68-1.12-25.36-1.68-38.05-.55-12.56-1.11-25.13-1.66-37.69s-1.1-25.11-1.64-37.66c-.55-12.71-1.16-25.41-1.78-38.12-.63-12.98-1.24-25.97-1.83-38.96s-1.17-25.98-1.73-38.97c-.56-12.95-1.1-25.91-1.62-38.87s-1.03-26.09-1.52-39.13c-.49-12.97-.96-25.93-1.41-38.9-.46-13.05-.89-26.11-1.31-39.16-.42-12.98-.82-25.95-1.2-38.93s-.75-26.04-1.1-39.06c-.17-6.28-.33-12.57-.5-18.85,0-.26-.23-.41-.47-.36-10.76,2.08-21.19,5.63-31.08,10.33-2.92,1.39-5.8,2.88-8.62,4.46h.38c-3.85-1.63-8.07-1.97-12.2-1.57-4.99.49-9.84,1.94-14.49,3.77-5.52,2.17-10.82,4.9-15.95,7.87-5.72,3.31-11.25,6.95-16.65,10.77s-11.05,8.09-16.41,12.35-10.34,8.39-15.4,12.71c-4.58,3.91-9.11,7.88-13.62,11.87s-8.9,7.91-13.33,11.89c-7.03,6.31-14,12.69-20.91,19.14s-13.89,13.09-20.74,19.74c-6.89,6.68-13.72,13.43-20.48,20.24s-13.65,13.88-20.39,20.91c-6.8,7.1-13.53,14.26-20.2,21.49s-13.4,14.65-20.01,22.06-13.27,15.03-19.81,22.63c-5.66,6.57-11.26,13.19-16.82,19.84-5.13,6.14-10.22,12.31-15.26,18.52s-10.13,12.53-15.13,18.84-10,12.69-14.93,19.09-9.91,12.9-14.8,19.39c-4.95,6.56-9.86,13.16-14.73,19.78s-9.77,13.36-14.6,20.08-9.68,13.56-14.46,20.38c-4.8,6.84-9.55,13.7-14.28,20.59s-9.51,13.94-14.2,20.95c-4.73,7.05-9.42,14.13-14.07,21.23s-9.33,14.32-13.95,21.51c-4.64,7.24-9.25,14.5-13.82,21.78s-9.16,14.67-13.69,22.04c-4.56,7.41-9.08,14.84-13.57,22.3-4.51,7.5-8.99,15.01-13.44,22.55s-8.87,15.12-13.26,22.7-8.83,15.34-13.19,23.04c-4.39,7.74-8.74,15.5-13.07,23.27-4.35,7.82-8.66,15.65-12.95,23.5s-8.58,15.8-12.83,23.73-8.47,15.88-12.65,23.85-8.42,16.09-12.59,24.16c-4.19,8.11-8.34,16.23-12.47,24.36s-8.26,16.36-12.35,24.57c-4.11,8.24-8.18,16.49-12.23,24.76-4.07,8.3-8.1,16.62-12.11,24.95s-8.03,16.75-12,25.14c-3.99,8.43-7.95,16.87-11.88,25.32s-7.84,16.91-11.72,25.39c-3.91,8.54-7.8,17.09-11.66,25.66s-7.72,17.2-11.54,25.82-7.65,17.31-11.43,25.98c-3.8,8.7-7.57,17.41-11.32,26.13s-7.47,17.44-11.16,26.17-7.39,17.52-11.05,26.3-7.35,17.69-10.99,26.55-7.28,17.78-10.88,26.68-7.21,17.86-10.78,26.81-7.13,17.94-10.67,26.93-7.06,18.02-10.56,27.04c-3.51,9.04-7,18.1-10.46,27.15s-6.91,18.11-10.33,27.18-6.87,18.26-10.28,27.39-6.81,18.32-10.18,27.5-6.75,18.39-10.09,27.6-6.69,18.46-10.01,27.69-6.6,18.44-9.88,27.68-6.57,18.58-9.84,27.88-6.52,18.64-9.75,27.97-6.47,18.7-9.67,28.05-6.41,18.75-9.6,28.14c-3.19,9.4-6.36,18.81-9.52,28.22s-6.31,18.86-9.45,28.29-6.27,18.91-9.38,28.37-6.2,18.88-9.28,28.33-6.18,19-9.25,28.51-6.14,19.05-9.19,28.58-6.1,19.09-9.13,28.64-6.06,19.13-9.07,28.7-5.99,19.09-8.98,28.65-5.98,19.21-8.96,28.82-5.95,19.24-8.91,28.87c-2.96,9.64-5.91,19.28-8.86,28.92-2.95,9.65-5.88,19.31-8.81,28.97s-5.85,19.34-8.77,29.01-5.83,19.37-8.73,29.05-5.8,19.39-8.69,29.09-5.75,19.34-8.61,29.01-5.75,19.44-8.61,29.16-5.73,19.46-8.58,29.19-5.71,19.48-8.55,29.22-5.69,19.5-8.52,29.25-5.65,19.44-8.47,29.15-5.66,19.53-8.48,29.29-5.64,19.54-8.46,29.31-5.63,19.55-8.44,29.32-5.62,19.56-8.42,29.34-5.61,19.56-8.41,29.35c-2.8,9.78-5.6,19.57-8.4,29.35s-5.59,19.57-8.39,29.36-5.57,19.49-8.35,29.24-5.58,19.57-8.38,29.36c-2.58,9.05-5.16,18.1-7.73,27.15s-5.11,18.04-7.66,27.06c-2.57,9.11-5.13,18.23-7.69,27.35-2.57,9.17-5.12,18.33-7.67,27.5-2.58,9.28-5.14,18.56-7.7,27.85s-5.14,18.71-7.69,28.06c-2.57,9.41-5.12,18.83-7.66,28.25s-5.09,18.94-7.62,28.41-5.06,19.03-7.56,28.55c-2.51,9.55-5.01,19.1-7.49,28.66s-4.96,19.16-7.41,28.75-4.87,19.12-7.28,28.69-4.82,19.22-7.2,28.84-4.74,19.23-7.08,28.85c-2.33,9.61-4.65,19.22-6.94,28.84s-4.55,19.19-6.78,28.8-4.42,19.07-6.59,28.61-4.32,19.09-6.44,28.64-4.19,19.01-6.24,28.52-4.05,18.91-6.03,28.38-3.9,18.8-5.81,28.21c-.24,1.16-.47,2.32-.7,3.49-.11.56-.27,1.12-.34,1.69-.08.6-.06,1.23-.08,1.84-.1,2.61-.18,5.21-.24,7.82-.12,5.18-.17,10.35-.15,15.53.05,10.33.39,20.65,1.03,30.96.07,1.05.04,2.1.06,3.15.02.86.06,1.78.42,2.58.68,1.52,2.21,1.93,3.75,1.77,2.07-.21,4.12-.61,6.18-.89,2.44-.33,4.88-.63,7.32-.9,9.67-1.08,19.38-1.74,29.1-2.12,9.69-.38,19.39-.47,29.09-.36,1.17.01,2.34.03,3.52.05s2.34.16,3.48.05,2.2-.37,3.29-.56,2.2-.38,3.3-.57c4.47-.77,8.94-1.54,13.41-2.33,9.09-1.59,18.17-3.21,27.26-4.85,9.25-1.67,18.5-3.37,27.74-5.08,9.34-1.73,18.67-3.47,28-5.23,9.46-1.78,18.91-3.57,28.36-5.37,9.5-1.81,19-3.62,28.5-5.43s19.01-3.63,28.52-5.44,18.95-3.61,28.42-5.4c9.4-1.78,18.81-3.55,28.21-5.3s18.59-3.45,27.88-5.15c9.14-1.67,18.29-3.32,27.44-4.94s17.84-3.14,26.77-4.66c10.1-1.72,20.18-3.52,30.27-5.29,10.23-1.79,20.46-3.58,30.68-5.37,10.25-1.79,20.5-3.59,30.75-5.38s20.5-3.59,30.75-5.38,20.42-3.57,30.63-5.36,20.51-3.59,30.76-5.38c10.25-1.8,20.51-3.59,30.76-5.39,10.25-1.8,20.51-3.59,30.76-5.39s20.51-3.59,30.76-5.39c10.25-1.8,20.51-3.59,30.76-5.39s20.51-3.59,30.76-5.39,20.51-3.59,30.76-5.39,20.43-3.58,30.64-5.36,20.51-3.59,30.76-5.39,20.51-3.59,30.76-5.39c5.07-.89,10.14-1.76,15.17-2.86s9.84-2.17,14.75-3.28c9.83-2.23,19.65-4.54,29.45-6.9,9.76-2.35,19.51-4.75,29.26-7.17,9.77-2.43,19.53-4.87,29.29-7.31,9.73-2.43,19.45-4.84,29.19-7.22,9.68-2.36,19.37-4.69,29.08-6.94s19.28-4.4,28.95-6.46,19.18-3.99,28.81-5.79,19.08-3.44,28.66-4.93c9.52-1.48,19.06-2.79,28.62-3.89,9.38-1.08,18.78-1.96,28.21-2.61s18.74-1.05,28.13-1.18c7.86-.11,15.73-.02,23.58.27.3.01.44-.32.32-.56-.52-1.09.97-2.38,1.71-3.03,1.72-1.5,3.71-2.69,5.66-3.86,2.28-1.37,4.59-2.67,6.86-4.05,1.91-1.16,3.85-2.35,5.53-3.84,1.02-.91,2.41-2.34,1.7-3.82l-.32.56c8.79-.35,17.57-.83,26.35-1.4,9.27-.61,18.53-1.33,27.78-2.14s18.93-1.77,28.38-2.79c9.54-1.04,19.07-2.17,28.58-3.4s18.56-2.5,27.82-3.9,17.89-2.8,26.81-4.37c2.15-.38,4.3-.76,6.45-1.16,1.09-.2,2.17-.38,3.23-.69,1.14-.34,2.27-.67,3.41-1,4.74-1.37,9.49-2.67,14.27-3.88,9.73-2.47,19.56-4.58,29.5-6,1.27-.18,2.53-.35,3.8-.5,1.06-.13,2.25-.11,3.28-.41,1.76-.5,1.79-2.98,1.77-4.45-.03-2.57-.28-5.16-.44-7.73s-.32-5.32-.48-7.98c-.64-10.63-1.29-21.27-1.93-31.9s-1.29-21.27-1.93-31.9c-.64-10.63-1.29-21.27-1.93-31.9-.58-9.65-1.06-19.3-1.57-28.96s-1-19.12-1.5-28.67c-.51-9.73-1.01-19.46-1.51-29.18s-1-19.6-1.5-29.4c-.5-9.89-1-19.77-1.49-29.66s-.99-19.97-1.47-29.96c-.49-9.99-.96-19.98-1.44-29.97s-.94-20.09-1.4-30.13c-.46-10-.91-20-1.35-30-.44-9.97-.87-19.94-1.3-29.91-.42-9.92-.83-19.84-1.23-29.75s-.79-19.76-1.16-29.64c-.37-9.74-.73-19.49-1.08-29.23-.34-9.66-.67-19.32-.99-28.98s-.61-18.95-.89-28.43c-.22-7.45-.65-14.9-.99-22.34-.35-7.53-.7-15.06-1.05-22.59s-.73-15.69-1.09-23.53-.75-16.13-1.12-24.19-.77-16.63-1.16-24.94-.78-16.93-1.17-25.39c-.4-8.61-.8-17.22-1.19-25.84s-.81-17.52-1.21-26.28-.81-17.61-1.22-26.42-.82-17.77-1.23-26.66c-.41-8.86-.82-17.72-1.23-26.59s-.82-17.68-1.22-26.52c-.41-8.78-.81-17.56-1.22-26.35-.4-8.72-.81-17.45-1.21-26.17-.4-8.56-.79-17.13-1.19-25.69s-.78-16.87-1.17-25.31c-.38-8.21-.76-16.42-1.14-24.63s-.74-15.96-1.11-23.95c-.36-7.75-.72-15.5-1.08-23.25-.35-7.42-.69-14.84-1.04-22.27s-.71-14.62-1.13-21.93-.86-15.21-1.29-22.81c-.44-7.84-.89-15.67-1.33-23.51s-.91-16.1-1.37-24.15-.94-16.54-1.41-24.82c-.48-8.41-.96-16.82-1.44-25.23s-.98-17.18-1.47-25.77c-.49-8.69-.99-17.37-1.48-26.06-.5-8.79-1-17.58-1.5-26.37-.51-8.88-1.01-17.75-1.52-26.63s-1.02-17.95-1.53-26.92-1.02-17.96-1.53-26.94c-.51-9.04-1.03-18.07-1.54-27.11s-1.03-18-1.54-27-1.02-17.96-1.53-26.94-1.02-17.94-1.53-26.91c-.51-8.87-1.01-17.74-1.52-26.61s-1-17.64-1.51-26.46c-.49-8.68-.99-17.35-1.48-26.03s-.97-17.1-1.46-25.65c-.48-8.4-.96-16.8-1.43-25.2-.47-8.26-.94-16.52-1.41-24.78-.46-8.03-.91-16.07-1.37-24.1s-.89-15.7-1.34-23.55c-.43-7.59-.86-15.17-1.29-22.76-.52-9.17-.91-18.34-1.31-27.52-.45-10.36-.9-20.72-1.36-31.08-.45-10.38-.91-20.77-1.37-31.15-.46-10.48-.92-20.96-1.39-31.44-.46-10.49-.93-20.98-1.4-31.46s-.94-21.06-1.41-31.59-.95-21.14-1.42-31.7-.96-21.28-1.43-31.92-.96-21.25-1.43-31.87c-.44-9.85-.89-19.7-1.33-29.56-.02-.48-.77-.48-.75,0Z"/>
  </g>
  <path class="cls-4" d="M1554.45,2821.01c20.74-5.3,41.47-10.74,62.19-16.31,2.87-.77,6.05-1.87,7.78-6.06,1.66-4.02,1.39-9.47,1.04-14.36-5.25-74.2-10.5-148.41-15.75-222.61-26.33-616.11-60.34-1277.26-86.67-1893.37-11.33-214.67-22.67-429.35-34-644.02-.35-6.59-.81-13.68-3.32-18.51-3.94-7.62-10.84-6.17-16.61-4.13-22.31,7.87-44.63,15.75-66.94,23.62-82.04,32.62-188.96,29.86-272.65,38.99-55.18,6.02-110.14,18.35-165.04,30.68-116.93,26.24-233.65,56.62-350.78,78.73-55.98,47.33-117.64,77.35-179.18,76.18-34.88-.66-69.47-9.36-104.26-13.18-81.52-8.94-178.56,11.57-259.87,29.45-23.51,7.4-46.97,15.37-70.37,23.91,3.73,138.67,9.96,277.05,18.67,414.86,6.93,183.37,18.19,387.96,28.19,570.79,10.13,140.95,16.49,269.39,21.91,411.3.86,22.55,1.72,45.09,2.58,67.64,3.67,96.18,7.35,192.35,11.02,288.53,5.32,87.94,11.85,176.98,13.8,265.46,1.19,34.85,3.05,100.22,4.25,135.07.5,49.46,4.06,127.25,6.28,176.51,0,0,.88,19.66,1.77,39.32,2.96,35.42,5.91,70.84,5.91,70.84,4.63,55.52,7.4,111.58,8.28,167.8-.28,12.13,3.78,54.02,5.16,65.43,4.74,39.11,6.48,79.46,5.17,119.58,27.5-5.56,54.93-12.5,82.24-20.8,21.26-4.87,49.99-16.88,71.25-21.75,98.95-22.67,210.16-40.81,307.53-53.69,72.43-12.64,139.64-21.96,209.46-32.93,91.98-14.71,158.23-35.4,216.03-51.23,114.43-58.89,256.59-1.9,373.23-43.14,53.96-11.95,107.87-24.81,161.72-38.57Z"/>
  <g class="cls-2">
    <path class="cls-3" d="M65.86,310.21c23.91-78,90.65-151.33,140.37-143.74,208.5,31.84,413.21,114.01,621.57,148.13,208.36,34.13,462.26-14.85,653.55-171.38,13.88,3.54,27.99,4.69,42.05,3.41-8.74,109.9-15.74,220.17-20.99,330.66-12.23,282.85-15.66,593.23-19.5,850.14-7.48,144.13-7.07,285.6-5.78,432.62-2.76,226.53-1.45,543.77-4.22,770.3.46,109.77-2.7,213.18-2.24,322.95-.02,25.1-.55,72.94-1.16,100.97-.05,2.39-.35,5.11-1.49,6.45-.76.89-1.73.9-2.64.89-6.6-.05-12.66-1.34-19.9-.62-36.29.32-73.18-8.99-107.16-10.12-16.45-.55-32.95.44-49.35-1.64-184.93-23.39-360.69-11.96-540.81,8.56-134.52,29.17-275.38,28.47-411.02,24.55-53.96-1.61-116.82.21-170.78-1.4-31.76-.95-63.58,1.61-95.34.66-8.02.73-34.85,2.01-43.04.14-.9-21.2-1.3-42.49-1.21-63.78,17.72-15.42,42.7-57.98,60.85-71.72,18.15-13.73,35.88-33.09,46.32-62.67,10.44-29.58-1.22-85.26-14.31-110.64-2.56-11.7-8.38-20.73-15.15-24.68-6.76-3.95-14.34-3-21.04,1.65-5.88,4.09-11.15,10.99-15.08,19.75-.98,2.18-1.96,4.6-3.43,5.61-1.01.69-2.12.63-3.19.56-5.84-.4-11.68-.81-17.52-1.21-1.16-.08-2.4-.2-3.35-1.36-.8-.97-1.29-2.54-1.72-4.07-2.55-8.86-4.51-18.27-5.82-27.96,2.02,1.2-2.85-36.71-.83-35.51-5.66-21.63,5.51-47.71,18.58-54.75,13.08-7.03,26.98-1.36,40.44,1.87,13.46,3.23,28.62,3.11,39.02-12.66,15.29-23.16-2.22-124.84-6.84-158.97-2.56-11.7-8.38-20.73-15.15-24.68-6.76-3.95-14.34-3-21.04,1.65-5.88,4.09-11.15,10.99-15.08,19.75-.98,2.18-1.96,4.6-3.43,5.61-1.01.69-2.12.63-3.19.56-5.84-.4-11.68-.81-17.52-1.21-1.16-.08-2.4-.2-3.35-1.36-.8-.97-1.29-2.54-1.72-4.07-3.92-13.63-6.45-28.54-7.38-43.82,5.13,36.5-2.56-18.86-1.15-9.01-1.42-23.09-.09-47.66,6.88-67.64,6.97-19.98,20.47-34.07,33.43-29.95,13.31,4.22,23.04,25.51,36.26,30.48,20.97,7.87,38.98-26.71,51.82-57.49,2.17-5.19,4.39-10.63,5.04-16.94,1.03-10.05-2.15-19.67-5.2-28.22-7.42-20.82-27.72-45.66-35.14-66.48-2.56-11.7-8.38-20.73-15.15-24.68-6.76-3.95-14.34-3-21.04,1.65-5.88,4.09-11.15,10.99-15.08,19.75-.98,2.18-1.96,4.6-3.43,5.61-1.01.69-2.12.63-3.19.56-5.84-.4-11.68-.81-17.52-1.21-1.16-.08-2.4-.2-3.35-1.36-.8-.97-1.29-2.54-1.72-4.07-2.55-8.86-4.51-18.27-5.82-27.96,3.87-27.45,32.48-95.71,48.2-101.41,15.72-5.7,32.64-6.5,46.21-21.85,21.5-24.34,13.77-105.03-4.04-136.33-2.56-11.7-8.38-20.73-15.15-24.68-6.76-3.95-14.34-3-21.04,1.65-5.88,4.09-11.15,10.99-15.08,19.75-.98,2.18-1.96,4.6-3.43,5.61-1.01.69-2.12.63-3.19.56-5.84-.4-11.68-.81-17.52-1.21-1.16-.08-2.4-.2-3.35-1.36-.8-.97-1.29-2.54-1.72-4.07-2.55-8.86-4.51-18.27-5.82-27.96-4.02-20.19,11.17-66.26,22.5-74.61,11.33-8.36,24.04-6.46,36.22-5.32,12.18,1.14,25.21,1,35.62-10.55,12.31-13.66,18.09-40.8,18.02-66.22s-17.14-77.1-22.04-100.87c-2.56-11.7-8.38-20.73-15.15-24.68-6.76-3.95-14.34-3-21.04,1.65-5.88,4.09-11.15,10.99-15.08,19.75-.98,2.18-1.96,4.6-3.43,5.61-1.01.69-2.12.63-3.19.56-5.84-.4-11.68-.81-17.52-1.21-1.16-.08-2.4-.2-3.35-1.36-.8-.97-1.29-2.54-1.72-4.07-2.55-8.86-4.51-18.27-5.82-27.96,4.55-28.86,20.4-79.27,36.23-90.33,17.59-12.29,38.37,8.97,55.73-4.33,13.5-10.34,20-39.14,18.88-64.81-1.12-25.67-13.55-77.36-20.48-99.85-2.56-11.7-8.38-20.73-15.15-24.68-6.76-3.95-14.34-3-21.04,1.65-5.88,4.09-11.15,10.99-15.08,19.75-.98,2.18-1.96,4.6-3.43,5.61-1.01.69-2.12.63-3.19.56-5.84-.4-11.68-.81-17.52-1.21-1.16-.08-2.4-.2-3.35-1.36-.8-.97-1.29-2.54-1.72-4.07-2.55-8.86-4.51-18.27-5.82-27.96-.06-37.51,29.49-79.18,50.44-86.54,20.96-7.36,44.52-8.75,59.92-35.12,18.08-30.95,1.49-116.42-19.99-138.32-2.56-11.7-8.38-20.73-15.15-24.68-6.76-3.95-14.34-3-21.04,1.65-5.88,4.09-11.15,10.99-15.08,19.75-.98,2.18-1.96,4.6-3.43,5.61-1.01.69-2.12.63-3.19.56-5.84-.4-11.68-.81-17.52-1.21-1.16-.08-2.4-.2-3.35-1.36-.8-.97-1.29-2.54-1.72-4.07-2.55-8.86-4.51-18.27-5.82-27.96-.56-4.27-4.16-23.62-1.66-23.5,2.5.12,3.63-5.4,4.17-9.71,5.46-43.94,27.95-80.08,53.27-85.58,14.76-3.21,31.26,2.31,43.3-13.32,17.99-23.37-.64-91.76-8.71-127.9-2.56-11.7-8.38-20.73-15.15-24.68-6.76-3.95-14.34-3-21.04,1.65-5.88,4.09-11.15,10.99-15.08,19.75-.98,2.18-1.96,4.6-3.43,5.61-1.01.69-2.12.63-3.19.56-5.84-.4-11.68-.81-17.52-1.21-1.16-.08-2.4-.2-3.35-1.36-.8-.97-1.29-2.54-1.72-4.07-2.55-8.86-4.51-18.27-5.82-27.96-2.81-29.17,12.7-61.74,29.23-67.98,16.53-6.24,33.5.73,50.32,1.86,16.82,1.13,35.92-5.98,45.18-31.04,8.37-22.68,5.8-53-1-76.83-6.49-22.76-24-55.98-32.3-78.87-1.45-15-8.16-26.88-16.2-31.57-6.76-3.95-14.34-3-21.04,1.65-5.88,4.09-11.15,10.99-15.08,19.75-.98,2.18-1.96,4.6-3.43,5.61-1.01.69-2.12.63-3.19.56-5.84-.4-11.68-.81-17.52-1.21-1.16-.08-2.4-.2-3.35-1.36-.8-.97-1.29-2.54-1.72-4.07-2.55-8.86-4.51-18.27-5.82-27.96"/>
    <path class="cls-3" d="M66.22,310.31c3.61-11.77,8.12-23.25,13.38-34.38s11.22-21.83,17.87-32.14,13.48-19.5,21.2-28.48c7.15-8.32,14.88-16.18,23.27-23.25,7.5-6.33,15.57-12.06,24.27-16.62,7.53-3.95,15.59-7.04,24.01-8.41,3.79-.61,7.65-.85,11.49-.64,2.27.13,4.5.46,6.75.81,3.57.55,7.13,1.12,10.69,1.7,14.19,2.31,28.35,4.84,42.47,7.56s28.29,5.64,42.39,8.71,28.24,6.32,42.31,9.68,28.2,6.87,42.25,10.46,28.16,7.3,42.21,11.06,28.21,7.62,42.29,11.5c14.1,3.88,28.19,7.8,42.28,11.73s28.1,7.84,42.16,11.74,28.1,7.77,42.17,11.59,28.11,7.58,42.2,11.26,28.13,7.26,42.24,10.74,28.16,6.82,42.29,10.04,28.2,6.26,42.36,9.14c14.11,2.87,28.26,5.58,42.44,8.07,12.03,2.11,24.08,4.1,36.18,5.76,10.84,1.48,21.71,2.74,32.61,3.77s22.16,1.86,33.26,2.44,22.56.96,33.84,1.09,22.83.04,34.24-.29,22.99-.89,34.47-1.68,23.15-1.83,34.69-3.1,23.19-2.78,34.74-4.51,23.3-3.75,34.89-5.97,23.29-4.72,34.86-7.44,23.22-5.72,34.74-8.94,23.1-6.72,34.53-10.45c11.5-3.75,22.92-7.74,34.24-11.98,11.35-4.25,22.61-8.75,33.77-13.49,11.24-4.78,22.38-9.81,33.4-15.09s22.09-10.9,32.94-16.72,21.68-11.97,32.29-18.34,21.15-13.03,31.48-19.92c10.4-6.94,20.63-14.13,30.67-21.57,9.7-7.19,19.22-14.6,28.56-22.25l-.36.1c10.69,2.72,21.71,4.08,32.74,3.92,3.14-.04,6.28-.21,9.4-.49l-.38-.38c-.75,9.46-1.49,18.93-2.22,28.39s-1.44,18.94-2.14,28.41-1.38,18.87-2.05,28.3-1.34,18.96-1.99,28.44c-.65,9.48-1.29,18.97-1.91,28.45-.62,9.49-1.23,18.98-1.83,28.47s-1.18,18.99-1.75,28.48c-.57,9.45-1.13,18.91-1.67,28.37s-1.08,19-1.6,28.5-1.03,19.01-1.52,28.51-.98,19.02-1.44,28.52c-.45,9.2-.89,18.41-1.28,27.61-.37,8.69-.73,17.38-1.08,26.08-.35,8.78-.7,17.55-1.04,26.33-.34,8.82-.67,17.63-.99,26.45s-.64,17.71-.95,26.56c-.31,8.85-.61,17.69-.9,26.54-.29,8.91-.58,17.82-.86,26.73s-.56,17.87-.82,26.8-.53,17.9-.78,26.85-.5,17.85-.74,26.77c-.24,8.97-.48,17.94-.71,26.91-.23,8.97-.46,17.95-.68,26.92s-.44,17.95-.65,26.92c-.21,8.97-.42,17.93-.62,26.9s-.4,17.83-.59,26.75-.38,17.88-.56,26.82-.36,17.84-.54,26.76c-.18,8.9-.35,17.79-.51,26.69s-.33,17.73-.49,26.6-.32,17.59-.47,26.38-.31,17.59-.45,26.38-.29,17.5-.44,26.25-.28,17.33-.42,25.99-.27,17.3-.41,25.95c-.13,8.59-.26,17.18-.39,25.77-.13,8.53-.26,17.06-.38,25.59-.13,8.46-.25,16.92-.37,25.38s-.24,16.71-.37,25.06-.24,16.63-.36,24.94c-.12,8.23-.24,16.47-.36,24.7-.12,8.15-.24,16.29-.35,24.44-.12,8.06-.23,16.11-.35,24.17-.12,7.93-.23,15.85-.35,23.78-.13,9.03-.73,18.04-1.15,27.06s-.84,18.63-1.21,27.94c-.37,9.3-.72,18.6-1.03,27.9s-.6,18.58-.86,27.87c-.26,9.24-.49,18.49-.71,27.73s-.4,18.57-.57,27.85c-.17,9.29-.31,18.57-.43,27.86s-.23,18.51-.31,27.76c-.09,9.31-.15,18.62-.2,27.92s-.08,18.65-.1,27.97-.02,18.69-.02,28.04c0,9.37.03,18.74.06,28.12.03,9.36.07,18.72.12,28.08.05,9.44.11,18.87.18,28.31.07,9.48.14,18.95.22,28.43.07,8.61.18,17.22.08,25.84-.08,6.94-.16,13.89-.23,20.83s-.14,14.13-.21,21.19-.13,14.47-.19,21.71-.12,14.73-.17,22.1c-.06,7.49-.11,14.98-.16,22.47s-.1,15.2-.14,22.8-.09,15.34-.13,23c-.04,7.79-.08,15.59-.12,23.38s-.07,15.75-.11,23.62c-.03,7.91-.07,15.82-.1,23.74s-.06,16.02-.09,24.03-.06,16.12-.08,24.18-.05,16.21-.08,24.31-.05,16.27-.07,24.41c-.02,8.12-.05,16.25-.07,24.37s-.04,16.34-.07,24.51-.04,16.35-.07,24.52-.04,16.34-.07,24.5c-.02,8.15-.05,16.3-.07,24.45-.02,8.09-.05,16.18-.07,24.27s-.05,16.18-.08,24.26-.05,16.08-.08,24.13-.06,15.97-.09,23.96-.06,15.84-.1,23.76-.07,15.62-.11,23.43c-.04,7.76-.08,15.52-.12,23.28s-.09,15.33-.13,22.99-.1,15.05-.15,22.58-.11,14.89-.16,22.33c-.06,7.32-.12,14.64-.18,21.96-.06,7.18-.13,14.37-.2,21.55-.07,7.04-.14,14.08-.22,21.12s-.25,13.95-.22,20.92c.04,9.49.05,18.97.04,28.46-.01,9.41-.05,18.82-.1,28.23-.05,9.35-.12,18.69-.2,28.04-.08,9.3-.18,18.6-.28,27.9-.1,9.23-.21,18.46-.33,27.7-.11,9.26-.23,18.52-.35,27.78-.12,9.27-.23,18.53-.34,27.8s-.21,18.57-.31,27.86c-.09,9.28-.17,18.57-.24,27.85s-.12,18.76-.15,28.14-.04,18.9-.03,28.35c.01,7.38.05,14.76.02,22.14-.03,6.43-.07,12.87-.12,19.3-.06,7.24-.13,14.48-.21,21.73-.08,7.35-.18,14.7-.28,22.06-.1,6.79-.21,13.58-.33,20.37-.06,2.96-.11,5.93-.18,8.89-.04,1.83-.1,3.88-.94,5.56-.46.92-1.18,1.42-2.22,1.47s-2.02-.01-3.03-.06c-4.18-.2-8.34-.74-12.52-.77-2.25-.02-4.49.23-6.74.23s-4.53-.04-6.8-.1c-9.14-.27-18.26-1.06-27.34-2.09-9.11-1.03-18.18-2.29-27.26-3.52-8.8-1.19-17.61-2.36-26.45-3.22-8.87-.86-17.74-1.29-26.65-1.37-9.38-.08-18.77.06-28.15-.42-9.47-.49-18.87-1.92-28.29-3.01-9.41-1.09-18.82-2.1-28.25-3.02s-18.74-1.75-28.12-2.5c-9.29-.75-18.58-1.41-27.88-2s-18.6-1.1-27.9-1.54c-9.27-.43-18.53-.8-27.81-1.08s-18.48-.5-27.72-.65-18.35-.23-27.53-.24-18.39.04-27.59.15-18.36.29-27.54.52-18.33.52-27.5.87-18.31.74-27.47,1.2-18.22.95-27.33,1.5-18.3,1.15-27.44,1.79c-9.15.64-18.3,1.33-27.45,2.06-9.16.73-18.31,1.5-27.46,2.3s-18.33,1.65-27.49,2.53-18.27,1.78-27.4,2.72-18.38,1.92-27.57,2.91c-4.62.5-9.24,1.01-13.87,1.53-2.29.26-4.59.51-6.88.77-1.13.13-2.25.25-3.38.38s-2.26.18-3.35.41c-8.94,1.82-17.86,3.73-26.84,5.41-8.93,1.67-17.89,3.22-26.87,4.65s-18.15,2.78-27.25,4-18.13,2.32-27.22,3.32-18.19,1.91-27.3,2.72c-9.08.81-18.16,1.53-27.25,2.16-9.13.64-18.27,1.19-27.42,1.66s-18.29.87-27.44,1.2-18.3.59-27.45.79c-9.14.2-18.29.34-27.43.42s-18.18.11-27.28.1-18.23-.08-27.34-.18-18.18-.24-27.27-.4-18.11-.36-27.17-.59c-9.02-.22-18.04-.46-27.05-.72-8.37-.24-16.73-.44-25.1-.55s-17.27-.18-25.9-.21c-8.81-.03-17.61-.03-26.42-.01s-17.7.03-26.56.04-17.47,0-26.21-.05-17.15-.13-25.73-.28-17.38-.49-26.07-.58c-9.5-.1-19,.05-28.5.26s-18.92.5-28.38.66-19,.21-28.5-.06c-2.09-.06-4.21.24-6.3.37-2.66.16-5.32.29-7.99.4-6.04.25-12.1.39-18.15.28-3.76-.07-7.69-.09-11.38-.92l.28.36c-.45-10.7-.78-21.4-.98-32.1-.1-5.32-.17-10.64-.21-15.96-.02-2.7-.03-5.4-.03-8.11,0-1.33,0-2.66,0-3.99,0-.67,0-1.33,0-2,0-.29,0-.58,0-.87,0-.08-.04-.4,0-.5.04-.11.06-.1.16-.22.43-.48.99-.89,1.46-1.33.5-.47,1-.95,1.49-1.44,1.04-1.04,2.06-2.1,3.05-3.18,2.23-2.42,4.36-4.92,6.44-7.47,4.68-5.71,9.12-11.6,13.55-17.5s9.24-12.37,14.01-18.44c4.24-5.4,8.6-10.73,13.4-15.65,1.95-2,3.99-3.93,6.17-5.69,2.65-2.13,5.37-4.16,7.97-6.37,5.78-4.91,11.17-10.27,16.06-16.07,5.3-6.29,10-13.08,14.01-20.27,2.19-3.93,4.17-7.97,5.95-12.1,1.63-3.79,3.19-7.65,4.35-11.61,1.87-6.38,2.69-13.05,3-19.67.36-7.52.04-15.06-.69-22.55s-1.97-15.51-3.55-23.17c-1.52-7.36-3.39-14.66-5.66-21.83-1.94-6.14-4.17-12.21-6.92-18.05-.3-.63-.6-1.25-.91-1.88-.14-.28-.31-.56-.43-.85-.23-.55-.3-1.2-.45-1.78-.55-2.17-1.22-4.31-2.04-6.39-1.45-3.7-3.34-7.24-5.78-10.38-2.1-2.7-4.65-5.12-7.67-6.75-3.82-2.06-8.22-2.69-12.47-1.78-8.25,1.76-14.64,8.41-19.06,15.24-1.26,1.95-2.4,3.98-3.44,6.06s-1.78,4.24-2.98,6.18c-.57.92-1.29,1.8-2.39,2.07-1.18.29-2.55.03-3.75-.05-2.63-.18-5.26-.36-7.9-.54s-5.26-.36-7.9-.54c-1.01-.07-2.04-.21-2.8-.94-.8-.77-1.2-1.92-1.53-2.96-1.54-4.75-2.65-9.69-3.68-14.57s-1.85-9.73-2.52-14.64l-.55.42c1.21.67,1.06-2.53,1.06-2.98,0-2.75-.21-5.5-.4-8.24-.47-6.63-1.15-13.25-1.39-19.9-.04-1.13-.08-2.27,0-3.4.02-.36.03-.58.12-.9.01-.05.03-.19.02-.08,0-.09.1-.04,0-.03,0,0-.2.05-.25.02.29.16.63-.1.55-.42-2.21-8.51-1.85-17.55.24-26.04,1.9-7.72,5.24-15.35,10.32-21.51,2.07-2.51,4.47-4.82,7.29-6.46,4.31-2.51,9.29-3.61,14.25-3.63,9.89-.03,19.21,3.77,28.77,5.74,6.98,1.44,14.38,1.83,21.22-.49,3.58-1.21,6.88-3.14,9.72-5.64,2.69-2.36,5.14-5.24,6.89-8.37,1.88-3.37,2.89-7.21,3.62-10.98.98-5.06,1.42-10.21,1.67-15.35.29-6.16.26-12.34.06-18.5-.21-6.86-.63-13.71-1.17-20.55-.57-7.18-1.27-14.35-2.05-21.52s-1.64-14.12-2.56-21.16c-.86-6.59-1.77-13.18-2.71-19.76-.81-5.72-1.65-11.43-2.49-17.14-.35-2.41-.7-4.82-1.05-7.24-.31-2.17-.48-4.42-.97-6.55-1.86-8.07-5.54-16.43-11.94-21.93-3.14-2.7-6.99-4.52-11.16-4.81-4.71-.33-9.34,1.32-13.21,3.94-7.53,5.09-12.37,13.13-16.02,21.25-.91,2.03-1.98,4.74-4.56,4.85-1.3.06-2.63-.14-3.93-.23-1.4-.1-2.8-.19-4.19-.29-2.8-.19-5.59-.39-8.39-.58-1.19-.08-2.47-.04-3.63-.34s-1.89-1.18-2.38-2.25c-.52-1.14-.83-2.37-1.17-3.57s-.68-2.47-1-3.7c-.65-2.51-1.25-5.04-1.8-7.57-1.12-5.19-2.04-10.43-2.76-15.7s-1.23-10.57-1.56-15.88l-.74.1c.57,4.03,1.12,8.07,1.71,12.1.03.2.03.42.11.6.09.2.45.26.59.08.18-.23.08-.54.04-.81-.07-.55-.15-1.11-.22-1.66-.25-1.81-.49-3.61-.74-5.41-.57-4.12-1.13-8.25-1.7-12.37-.1-.7-.19-1.4-.29-2.11,0-.03-.03-.35-.07-.5-.07-.32.1-.14-.14.05l-.63-.17c.14.35.12.83.17,1.19.06.42.76.32.74-.1-.54-8.81-.68-17.66-.28-26.48s1.31-17.3,3.03-25.79,3.93-16.11,7.54-23.54c3.09-6.37,7.14-12.56,12.67-17.08,4.29-3.51,9.8-5.91,15.4-4.73s10.46,5.6,14.43,9.72c4.52,4.7,8.56,9.85,13.3,14.34,4.02,3.81,8.74,7.24,14.4,7.85,5.08.55,9.98-1.4,14.05-4.32,5.14-3.67,9.25-8.66,12.86-13.79,4.41-6.26,8.13-13,11.54-19.84s6.81-14.51,9.87-21.92c1.6-3.87,3.11-7.8,3.97-11.91.92-4.38,1.04-8.87.5-13.31s-1.59-8.52-2.89-12.64c-1.15-3.65-2.41-7.28-3.9-10.81-2.94-6.94-6.67-13.53-10.5-20-4.05-6.86-8.29-13.6-12.29-20.49-3.73-6.42-7.33-12.98-10-19.91-.33-.85-.62-1.68-.83-2.57-.24-1.01-.5-2.02-.8-3.02-.55-1.88-1.21-3.72-1.98-5.52-1.38-3.25-3.12-6.36-5.3-9.14-1.87-2.39-4.08-4.55-6.67-6.14-3.29-2.02-7.15-3.01-11.01-2.68-7.62.65-14,5.8-18.59,11.59-2.47,3.11-4.55,6.51-6.31,10.07-.93,1.87-1.66,3.84-2.68,5.67-.44.79-.96,1.62-1.71,2.14-.93.65-2.05.57-3.13.5-4.77-.33-9.54-.66-14.31-.99-1.14-.08-2.28-.14-3.42-.24-.94-.08-1.86-.29-2.54-.99s-1.08-1.74-1.39-2.68c-.34-1.02-.62-2.07-.91-3.1-1.2-4.31-2.23-8.67-3.12-13.06-.46-2.26-.88-4.53-1.26-6.81-.19-1.15-.37-2.3-.55-3.45-.08-.56-.17-1.12-.24-1.67-.06-.46-.18-.94-.14-1.4.18-1.98.67-3.98,1.09-5.92.49-2.27,1.06-4.53,1.66-6.78,1.4-5.2,3.02-10.35,4.77-15.45,1.93-5.64,4.02-11.22,6.25-16.75s4.72-11.32,7.31-16.88c2.43-5.2,4.99-10.35,7.76-15.37,2.4-4.35,4.94-8.63,7.8-12.69,2.14-3.04,4.46-6.05,7.28-8.5,1-.87,2.08-1.68,3.29-2.25,1.07-.51,2.24-.84,3.36-1.21,1.67-.55,3.35-1.06,5.04-1.54,6.74-1.95,13.58-3.61,20.06-6.34,7.03-2.97,13.37-7.26,18.46-12.98,2.76-3.1,4.82-6.76,6.43-10.57,1.89-4.47,3.2-9.17,4.18-13.92,1.12-5.45,1.81-10.98,2.22-16.53.44-6.02.55-12.06.41-18.1s-.56-12.56-1.22-18.81-1.54-12.32-2.67-18.41c-1.07-5.75-2.36-11.46-3.95-17.09-1.42-5.04-3.06-10.03-5.07-14.88-.87-2.1-1.82-4.18-2.86-6.21-.25-.48-.5-.96-.76-1.43-.12-.22-.25-.45-.37-.67-.23-.4-.29-.86-.39-1.31-.48-1.99-1.06-3.96-1.76-5.88-2.3-6.31-5.9-12.55-11.35-16.64-2.9-2.18-6.36-3.56-9.99-3.79-3.92-.25-7.8.87-11.2,2.77-6.54,3.66-11.42,9.93-14.98,16.4-1.03,1.87-1.94,3.79-2.81,5.73-.72,1.61-1.53,3.9-3.19,4.77-.99.52-2.14.37-3.21.3-1.19-.08-2.39-.16-3.58-.25-2.34-.16-4.69-.32-7.03-.48s-4.62-.26-6.92-.48c-.96-.09-1.86-.37-2.51-1.13s-1.01-1.79-1.32-2.74c-1.37-4.23-2.38-8.61-3.33-12.95s-1.82-9.05-2.49-13.62c-.4-2.67-.86-5.31-.98-8.01-.23-5.44.37-10.91,1.27-16.27,1.03-6.15,2.51-12.22,4.3-18.19s3.78-11.51,6.22-17.05c1.98-4.48,4.19-8.94,7.07-12.92,1.03-1.42,2.16-2.8,3.5-3.94,2.8-2.38,6.35-4.07,9.84-5.13,7.54-2.31,15.52-1.67,23.25-.93,6.94.67,13.94,1.34,20.86.06,7.31-1.35,13.81-5.04,18.74-10.61,4.36-4.91,7.44-10.86,9.82-16.94,2.81-7.17,4.67-14.71,5.94-22.29,1.36-8.11,2.05-16.34,2.15-24.57.07-5.48-.4-10.89-1.18-16.31-.91-6.24-2.14-12.43-3.51-18.58-1.49-6.74-3.15-13.43-4.87-20.12s-3.47-13.17-5.24-19.75c-1.59-5.91-3.18-11.82-4.68-17.75-.63-2.5-1.24-5.01-1.82-7.53-.7-3.08-1.32-6.16-2.33-9.16-2.18-6.47-5.69-12.94-11.09-17.29-2.73-2.2-5.97-3.74-9.47-4.2-3.9-.51-7.84.35-11.34,2.09-6.7,3.33-11.73,9.49-15.41,15.84-1.07,1.84-2.03,3.73-2.91,5.67-.8,1.77-1.49,3.81-2.83,5.25-.76.81-1.7,1.1-2.79,1.08s-2.27-.14-3.4-.22c-2.39-.16-4.77-.33-7.16-.49s-4.69-.32-7.03-.48c-.96-.07-2-.06-2.87-.51s-1.37-1.3-1.74-2.16c-.86-1.99-1.33-4.2-1.89-6.3s-1.11-4.37-1.61-6.56c-1.02-4.49-1.87-9.02-2.58-13.57-.18-1.15-.35-2.31-.51-3.47-.1-.74.09-1.47.21-2.2.24-1.4.49-2.8.75-4.19,1.19-6.23,2.63-12.4,4.25-18.53,1.77-6.69,3.75-13.33,5.97-19.9s4.54-12.75,7.25-18.95c2.37-5.42,4.98-10.76,8.13-15.78,2.37-3.78,5.07-7.57,8.6-10.36,4.87-3.85,10.99-4.94,17.05-4.41s12.4,2.5,18.65,3.49c6.02.96,12.25.92,17.76-2.02,5.21-2.78,9.01-7.58,11.84-12.66,3.36-6.03,5.57-12.69,7.16-19.39,1.78-7.52,2.77-15.23,3.14-22.94.31-6.52.13-13.04-.52-19.53-.6-5.99-1.48-11.95-2.48-17.89-1.13-6.77-2.43-13.51-3.83-20.23s-2.94-13.61-4.56-20.38c-1.49-6.26-3.06-12.5-4.72-18.72-1.33-5-2.72-9.98-4.23-14.92-.57-1.85-.93-3.76-1.53-5.61s-1.29-3.63-2.09-5.39c-1.45-3.18-3.27-6.21-5.53-8.89-1.98-2.34-4.33-4.43-7.06-5.86-3.44-1.8-7.33-2.47-11.17-1.88-7.49,1.14-13.59,6.53-18.01,12.37-2.47,3.27-4.53,6.84-6.26,10.55-.85,1.82-1.53,3.82-2.75,5.43-.64.85-1.46,1.43-2.55,1.51s-2.19-.08-3.27-.16c-4.77-.33-9.54-.66-14.31-.99-.96-.07-2-.05-2.93-.33s-1.59-.98-2.04-1.85c-.98-1.88-1.41-4.12-1.96-6.16-1.18-4.38-2.19-8.8-3.05-13.25-.44-2.27-.84-4.55-1.21-6.84s-.72-4.32-.67-6.52c.17-7.3,1.43-14.55,3.4-21.57s4.76-14.04,8.08-20.66,6.94-12.52,11.19-18.27c3.79-5.13,8-10,12.73-14.29,3.81-3.46,8.03-6.65,12.76-8.76,2.51-1.12,5.19-1.89,7.81-2.69,2.9-.89,5.81-1.71,8.73-2.55,5.9-1.71,11.79-3.5,17.43-5.95s11.35-5.84,16.15-10.06c5.16-4.55,9.62-10.17,12.81-16.27,2.04-3.91,3.42-8.14,4.42-12.43,1.16-4.99,1.83-10.09,2.19-15.2.41-5.73.45-11.49.22-17.23-.24-6.08-.77-12.14-1.54-18.18s-1.8-12.24-3.05-18.29-2.66-11.74-4.36-17.52c-1.56-5.31-3.33-10.56-5.4-15.69-1.8-4.47-3.82-8.87-6.23-13.05-1.93-3.36-4.12-6.63-6.8-9.45-.24-.25-.27-.44-.35-.79-.12-.53-.25-1.06-.39-1.58-.26-.99-.55-1.98-.86-2.96-.59-1.83-1.29-3.63-2.09-5.39-1.45-3.18-3.27-6.21-5.53-8.89-1.98-2.34-4.33-4.43-7.06-5.86-3.44-1.81-7.33-2.46-11.17-1.88-7.49,1.14-13.59,6.53-18.01,12.37-2.47,3.27-4.53,6.84-6.26,10.55-.85,1.82-1.53,3.82-2.75,5.43-.64.85-1.46,1.43-2.55,1.51s-2.11-.08-3.15-.15c-4.77-.33-9.54-.66-14.31-.99-.98-.07-2.02-.05-2.97-.31s-1.66-.98-2.12-1.87c-.98-1.88-1.41-4.12-1.96-6.16-2.25-8.37-3.79-16.85-5.04-25.42-.66-4.56-1.47-9.11-2-13.69-.25-2.2-.5-4.44-.43-6.66.02-.6.03-1.31.27-1.87.02-.05.09-.17.11-.2.03-.04.09-.06.06-.05.2-.05.73-.07,1.06-.23,1.09-.55,1.66-1.85,2.06-2.93.61-1.64.95-3.38,1.22-5.1.62-3.99,1.09-7.99,1.84-11.96,1.49-7.85,3.55-15.6,6.24-23.12,2.48-6.96,5.51-13.73,9.16-20.15,3.25-5.71,7.01-11.16,11.41-16.05,3.85-4.27,8.21-8.15,13.15-11.11,4.66-2.8,9.71-4.58,15.1-5.28,6.39-.83,12.87-.54,19.25-1.4,3.16-.43,6.27-1.16,9.21-2.41,3.17-1.35,6.04-3.31,8.49-5.73,3.57-3.53,6.02-7.78,7.58-12.53s2.33-9.93,2.7-14.99c.43-5.93.31-11.9-.07-17.84-.43-6.56-1.19-13.09-2.14-19.58s-2.18-13.46-3.5-20.15-2.7-13.12-4.17-19.65c-1.34-5.95-2.72-11.88-4.1-17.82-1.47-6.34-2.6-12.82-5.21-18.81s-6.49-11.75-12.15-15.05c-3.36-1.96-7.26-2.85-11.13-2.41s-7.7,2.15-10.91,4.51c-6.09,4.47-10.53,10.97-13.78,17.71-.89,1.85-1.6,3.83-2.69,5.58-.51.82-1.15,1.65-2.1,1.99s-2.06.17-3.06.1c-4.77-.33-9.54-.66-14.31-.99-1.9-.13-4.47.15-5.7-1.62-1.17-1.67-1.57-3.97-2.1-5.91-1.2-4.36-2.23-8.77-3.11-13.2-.45-2.27-.86-4.54-1.24-6.82s-.77-4.54-.95-6.83c-.31-3.89-.3-7.8-.01-11.68.56-7.71,2.19-15.35,4.72-22.66,2.32-6.7,5.41-13.19,9.48-19.01,3.25-4.64,7.24-9.09,12.25-11.86,3.21-1.77,6.89-2.71,10.49-3.26,4.4-.67,8.88-.61,13.3-.2,8.87.82,17.55,3.01,26.41,3.9,5.62.56,11.26.4,16.77-.91s10.57-3.66,15.03-7c5.17-3.88,9.33-8.95,12.45-14.58,3.69-6.66,6.02-14.03,7.41-21.5,1.46-7.84,1.93-15.84,1.75-23.8s-1.08-16.32-2.54-24.36c-1.31-7.26-3.07-14.45-5.4-21.45s-4.94-13.44-7.72-20.03c-3.05-7.21-6.25-14.36-9.44-21.51s-6.18-13.81-9.08-20.79c-1.3-3.13-2.57-6.28-3.75-9.46-.33-.88-.59-1.67-.7-2.61-.11-1-.25-2-.42-2.99-.33-1.99-.75-3.95-1.29-5.89-1.8-6.52-4.81-12.97-9.54-17.89-2.11-2.2-4.59-4.05-7.42-5.21-3.6-1.48-7.58-1.71-11.34-.76-7.3,1.84-13.07,7.47-17.27,13.46-2.39,3.41-4.32,7.09-6.01,10.89-.72,1.61-1.53,3.9-3.19,4.77-.99.52-2.14.37-3.21.3-1.19-.08-2.39-.16-3.58-.25-2.39-.16-4.77-.33-7.16-.49s-4.6-.24-6.88-.48c-.97-.1-1.86-.42-2.5-1.2s-.98-1.81-1.29-2.76c-.66-2.06-1.2-4.16-1.73-6.25-1.93-7.52-3.39-15.16-4.43-22.85-.06-.48-.79-.27-.72.2,1.23,9.06,3.04,18.05,5.51,26.86.5,1.78.92,3.88,2.13,5.33s3.11,1.43,4.85,1.55c4.73.33,9.46.65,14.19.98,1.89.13,4.14.63,5.74-.66,1.43-1.15,2.18-3.04,2.91-4.67,1.69-3.8,3.62-7.48,6.01-10.89,4.31-6.15,10.38-11.96,18.02-13.38,4.04-.75,8.2-.01,11.77,2.02,2.52,1.43,4.69,3.44,6.53,5.67,4.59,5.54,7.31,12.53,8.75,19.52.21,1,.39,2.02.54,3.03s.19,2.15.39,3.19c.15.74.54,1.5.81,2.21.29.77.58,1.53.88,2.3,1.26,3.23,2.58,6.43,3.93,9.62,2.98,7.02,6.11,13.97,9.22,20.93s6.38,14.3,9.37,21.53c2.67,6.45,5.22,12.97,7.29,19.64,2.27,7.32,3.94,14.83,5.14,22.4,1.28,8.12,1.97,16.34,1.91,24.56s-.81,16-2.67,23.78c-1.74,7.29-4.47,14.43-8.65,20.69-3.48,5.21-7.99,9.72-13.38,12.95-4.72,2.83-10,4.61-15.44,5.38-6.64.95-13.3.19-19.89-.86-8.69-1.39-17.39-3.36-26.24-3.21-7.02.12-14.34,1.57-20.05,5.84-4.79,3.58-8.58,8.44-11.67,13.51-3.76,6.17-6.6,12.91-8.65,19.83-2.18,7.39-3.47,15.07-3.65,22.77-.1,4.05.15,8.04.75,12.04.69,4.56,1.52,9.1,2.52,13.61s1.93,8.72,3.36,12.91c.54,1.6,1.31,3.24,3.02,3.83.85.3,1.79.3,2.68.37,1.15.08,2.3.16,3.45.24,2.39.16,4.77.33,7.16.49s4.66.42,6.98.47c.93.02,1.86-.14,2.63-.7.65-.46,1.14-1.1,1.57-1.77,1.1-1.74,1.8-3.71,2.69-5.56,3.28-6.82,7.78-13.48,14.05-17.89,3.36-2.36,7.3-4.02,11.45-4.16,3.87-.13,7.62,1.11,10.77,3.32,5.64,3.96,9.33,10.42,11.62,16.78,1.18,3.27,1.9,6.65,2.67,10.03.62,2.72,1.25,5.44,1.88,8.16,1.41,6.07,2.82,12.15,4.17,18.23,1.45,6.56,2.84,13.13,4.1,19.73,1.28,6.68,2.42,13.39,3.34,20.13s1.56,12.99,1.87,19.53c.27,5.83.26,11.7-.34,17.51-.51,4.88-1.44,9.78-3.27,14.35-2.07,5.18-5.59,9.74-10.2,12.92-5.49,3.79-12.05,4.94-18.58,5.37s-12.74.26-18.92,1.77c-5.02,1.23-9.72,3.61-13.92,6.6-4.82,3.43-9.04,7.64-12.76,12.22-4.22,5.2-7.82,10.88-10.91,16.81-3.45,6.61-6.28,13.54-8.59,20.63-2.49,7.66-4.35,15.52-5.64,23.47-.61,3.8-.83,7.73-1.88,11.44-.35,1.22-.82,2.93-1.96,3.67-.53.34-1.17.08-1.57.66-.31.45-.37,1.06-.43,1.59-.09.88-.07,1.78-.03,2.66.1,2.46.4,4.92.73,7.36.61,4.63,1.39,9.23,2.06,13.85,1.3,8.96,3.13,17.89,5.71,26.57.49,1.66,1.08,3.67,2.7,4.57.69.39,1.47.51,2.25.58,1.14.1,2.28.16,3.42.24,4.77.33,9.54.66,14.31.99.96.07,1.93.12,2.84-.25.76-.31,1.35-.87,1.84-1.52,1.18-1.55,1.86-3.44,2.67-5.2,1.72-3.73,3.77-7.32,6.23-10.62,4.52-6.06,11-11.73,18.84-12.39,3.94-.33,7.82.73,11.12,2.89,2.61,1.71,4.82,4.02,6.65,6.53,2.18,2.99,3.89,6.31,5.2,9.76.72,1.9,1.33,3.84,1.83,5.81.19.76.22,1.65.77,2.22.3.31.59.63.88.96,2.66,3.01,4.82,6.44,6.74,9.96,2.38,4.36,4.38,8.91,6.15,13.54,2.01,5.25,3.74,10.6,5.25,16.01,1.63,5.84,3.02,11.75,4.18,17.7s2.14,12.21,2.84,18.37,1.13,12.08,1.27,18.15c.13,5.64,0,11.29-.53,16.9-.47,5.02-1.26,10.02-2.59,14.88-1.2,4.38-2.89,8.55-5.26,12.42-3.81,6.22-8.67,11.79-14.53,16.15-5.07,3.78-10.76,6.6-16.66,8.82s-11.69,3.79-17.6,5.51c-5.14,1.49-10.48,2.86-15.18,5.5s-8.99,6.25-12.83,10.09c-4.65,4.64-8.78,9.79-12.5,15.21-4.08,5.94-7.64,12.24-10.65,18.79s-5.55,13.62-7.26,20.76c-.84,3.52-1.49,7.08-1.91,10.68-.21,1.79-.36,3.58-.45,5.37-.04.89-.07,1.78-.08,2.67-.01,1.03.13,2.01.28,3.03,1.3,8.99,3.13,17.97,5.74,26.67.49,1.63,1.08,3.58,2.67,4.47.69.39,1.47.51,2.25.58,1.14.1,2.28.16,3.42.24,4.77.33,9.54.66,14.31.99.95.07,1.93.12,2.84-.25.76-.31,1.35-.87,1.84-1.52,1.2-1.58,1.89-3.51,2.71-5.3,1.71-3.69,3.74-7.25,6.18-10.51,4.53-6.06,11-11.73,18.84-12.39,3.94-.33,7.82.73,11.12,2.89,2.64,1.73,4.86,4.06,6.7,6.6,2.15,2.97,3.85,6.27,5.15,9.69,1.23,3.22,1.95,6.58,2.94,9.88,1.54,5.16,2.97,10.36,4.34,15.57,1.66,6.34,3.24,12.7,4.73,19.09,1.6,6.83,3.11,13.68,4.51,20.55s2.59,13.27,3.66,19.94c.93,5.82,1.75,11.68,2.24,17.56.58,6.89.57,13.82.05,20.71-.58,7.71-1.8,15.4-3.88,22.85-1.79,6.42-4.23,12.78-7.93,18.36-3.33,5.01-7.87,9.3-13.78,10.98s-12.34.59-18.32-.69-12.21-2.98-18.46-2.61c-5.5.32-10.65,2.49-14.6,6.34-3.44,3.35-6.13,7.46-8.51,11.6-3.04,5.27-5.6,10.81-7.93,16.42-2.63,6.32-4.95,12.77-7.05,19.29s-4,13.1-5.67,19.75c-1.51,6-2.86,12.06-3.93,18.16-.12.68-.23,1.36-.35,2.04-.05.32-.13.64-.15.96-.03.49.11,1.03.18,1.52.32,2.27.68,4.52,1.08,6.78.79,4.5,1.73,8.97,2.83,13.4.54,2.16,1.11,4.32,1.73,6.46.48,1.68.99,3.75,2.47,4.85s3.7.9,5.43,1.02c2.39.16,4.77.33,7.16.49s4.77.33,7.16.49c.95.07,1.92.19,2.86-.02.88-.19,1.61-.71,2.18-1.39,1.23-1.45,1.91-3.29,2.68-5,.87-1.94,1.84-3.84,2.9-5.69,3.75-6.53,8.94-12.89,15.93-16.08,3.67-1.68,7.81-2.3,11.77-1.38,3.41.79,6.45,2.64,8.97,5.04,5.31,5.05,8.56,12.08,10.4,19.07.69,2.6,1.18,5.25,1.8,7.87s1.26,5.19,1.93,7.77c1.56,6.07,3.2,12.12,4.83,18.17,1.78,6.63,3.55,13.26,5.24,19.91s3.3,13.3,4.73,20c1.28,6.02,2.44,12.07,3.22,18.18.33,2.61.6,5.23.74,7.85.17,3.29.11,6.58-.01,9.87-.3,8.22-1.19,16.44-2.8,24.51-1.49,7.43-3.57,14.81-6.7,21.73-2.81,6.19-6.51,12.13-11.75,16.54-5.64,4.75-12.67,7.02-19.96,7.45s-14.41-.76-21.61-1.22c-7.8-.49-15.77.02-22.8,3.74-2.26,1.2-4.43,2.62-6.17,4.51-1.33,1.45-2.49,3.07-3.54,4.73-2.78,4.36-4.98,9.08-6.94,13.86-2.33,5.67-4.29,11.5-5.94,17.41s-3,11.97-3.85,18.07c-.72,5.16-1.16,10.44-.66,15.64.1,1.05.26,2.1.44,3.14.4,2.23.65,4.49,1.03,6.72.76,4.52,1.67,9.01,2.74,13.47.52,2.18,1.08,4.35,1.69,6.5.51,1.83.92,3.95,2.09,5.49s2.88,1.58,4.61,1.7c2.34.16,4.69.32,7.03.48s4.77.33,7.16.49c1.9.13,4.31.7,5.98-.53,1.44-1.06,2.2-2.91,2.91-4.48.87-1.94,1.76-3.87,2.78-5.74,3.6-6.62,8.58-13.08,15.35-16.68,3.58-1.9,7.69-2.86,11.74-2.25,3.56.53,6.82,2.24,9.51,4.6,5.39,4.73,8.76,11.53,10.76,18.32.3,1.04.58,2.08.82,3.13.15.64.4,1.11.71,1.68.52.96,1.02,1.93,1.5,2.92,1.04,2.14,1.98,4.32,2.85,6.53,1.95,4.98,3.55,10.09,4.92,15.26,1.52,5.72,2.76,11.51,3.77,17.34,1.08,6.18,1.9,12.4,2.48,18.65s.91,12.45.97,18.7-.14,12.01-.69,17.99c-.5,5.44-1.29,10.86-2.54,16.18-1.09,4.61-2.52,9.18-4.58,13.46-.89,1.85-1.91,3.64-3.08,5.32-1.65,2.37-3.67,4.49-5.81,6.43-5.56,5.06-12.24,8.5-19.3,10.94-6.62,2.29-13.47,3.82-20.12,6-1.79.58-3.58,1.12-5.16,2.17-1.25.83-2.38,1.83-3.44,2.9-2.82,2.83-5.2,6.11-7.41,9.43-2.85,4.29-5.42,8.77-7.84,13.32-2.74,5.16-5.29,10.42-7.71,15.74-2.52,5.56-4.89,11.19-7.12,16.87s-4.17,11.02-6.02,16.61c-1.65,4.97-3.17,9.99-4.45,15.07-.54,2.15-1.04,4.32-1.47,6.5-.19.95-.36,1.91-.51,2.87-.07.45-.19.93-.18,1.38.04,1.15.33,2.34.5,3.47.69,4.56,1.54,9.09,2.54,13.59.49,2.2,1.02,4.39,1.59,6.58s1.06,4.24,1.8,6.28c.6,1.63,1.5,3.12,3.29,3.55.9.21,1.84.22,2.76.28,1.15.08,2.3.16,3.45.24,2.39.16,4.77.33,7.16.49,1.19.08,2.39.16,3.58.25,1.09.08,2.22.23,3.31.18,1.89-.07,3.09-1.25,4-2.8,1.05-1.79,1.77-3.77,2.68-5.63,1.79-3.66,3.91-7.19,6.46-10.37,4.71-5.88,11.37-11.19,19.24-11.28,7.34-.08,13.25,4.7,17.18,10.5,2.11,3.12,3.74,6.55,4.98,10.1.67,1.91,1.22,3.87,1.67,5.84.37,1.64,1.15,3.25,1.81,4.79,2.94,6.94,6.67,13.53,10.5,20,4.05,6.86,8.29,13.6,12.29,20.49,3.73,6.42,7.33,12.98,10,19.91,1.48,3.84,2.8,7.76,3.89,11.73,1.18,4.29,2.01,8.7,2.12,13.16s-.61,8.93-1.95,13.22c-1.24,3.94-2.89,7.74-4.5,11.53-3.15,7.4-6.49,14.73-10.23,21.86-3.48,6.62-7.29,13.12-11.88,19.03-3.65,4.7-7.91,9.27-13.21,12.12-4.52,2.43-9.65,3.11-14.53,1.36-5.69-2.05-10.18-6.7-14.18-11.05-4.38-4.75-8.44-9.87-13.35-14.1-4.12-3.56-9.1-6.5-14.74-6.11s-10.85,3.87-14.79,7.91c-5.17,5.31-8.93,11.94-11.75,18.75-3.15,7.62-5.15,15.71-6.53,23.82-1.45,8.52-2.17,17.16-2.4,25.8-.2,7.46-.03,14.92.43,22.37l.74-.1c-.05-.36-.04-.85-.17-1.19-.11-.28-.39-.35-.63-.17-.2.16-.07.6-.04.8.07.55.15,1.11.22,1.66.25,1.8.49,3.61.74,5.41.57,4.12,1.13,8.25,1.7,12.37.09.65.2,1.5.28,2.04.03.19.03.39.08.57.06.28-.08.24.14-.04l.59.08c.09.2-.02-.26-.03-.34-.06-.43-.12-.87-.19-1.3-.27-1.89-.53-3.77-.8-5.66-.25-1.74-.49-3.48-.73-5.23-.06-.42-.76-.32-.74.1.66,10.72,2.08,21.4,4.36,31.89.55,2.53,1.15,5.06,1.81,7.57.61,2.35,1.14,4.83,2.1,7.07.41.96.97,1.89,1.89,2.44.81.48,1.74.58,2.66.65,2.8.2,5.59.39,8.39.58s5.59.39,8.39.58c1.15.08,2.36.24,3.45-.2.89-.36,1.55-1.08,2.09-1.86,1.36-1.97,2.14-4.34,3.19-6.48s2.27-4.3,3.6-6.34c4.82-7.37,12.25-14.79,21.61-15.11,8.73-.3,15.32,6.18,19.31,13.3,2.29,4.1,3.89,8.56,4.92,13.13.48,2.1.63,4.31.94,6.44.74,5.15,1.5,10.29,2.25,15.44.91,6.22,1.8,12.45,2.65,18.67.95,6.91,1.85,13.82,2.69,20.74s1.65,14.29,2.33,21.45,1.24,14.12,1.64,21.19c.37,6.56.6,13.12.57,19.69-.03,5.66-.24,11.33-.87,16.95-.49,4.43-1.23,8.89-2.67,13.11-1.84,5.4-5.47,10.1-9.97,13.59-5.99,4.65-13.46,6.32-20.94,5.9-8.81-.49-17.14-3.67-25.7-5.5-4.84-1.03-9.82-1.69-14.77-1.15-4.39.48-8.8,1.89-12.45,4.42-5.88,4.06-10.01,10.48-12.9,16.89-3.48,7.71-5.42,16.2-5.44,24.66-.01,4.18.47,8.37,1.52,12.43l.55-.42c-1.21-.67-1.06,2.53-1.06,2.98,0,2.75.21,5.5.4,8.24.47,6.63,1.15,13.25,1.39,19.9.04,1.13.08,2.27,0,3.4-.02.36-.03.58-.12.9-.01.05-.03.19-.02.08,0,.09-.1.04,0,.03,0,0,.2-.05.25-.02-.31-.17-.59.11-.55.42.69,5.1,1.57,10.18,2.64,15.22.52,2.44,1.09,4.88,1.7,7.3s1.19,4.79,1.99,7.1c.64,1.84,1.59,3.52,3.65,3.9,1.06.2,2.17.21,3.25.28,1.32.09,2.63.18,3.95.27,2.63.18,5.26.36,7.9.54,1.3.09,2.6.19,3.9.27,1.03.06,2.08.04,2.99-.5,1.73-1.02,2.59-3.25,3.36-4.99.96-2.14,1.97-4.25,3.12-6.3,2.13-3.76,4.66-7.32,7.71-10.39s6.55-5.59,10.61-6.92c4.32-1.42,8.99-1.26,13.12.7,6.89,3.28,11.37,10.42,14.04,17.3.81,2.09,1.48,4.24,2.02,6.41.13.51.19,1.09.39,1.58.12.31.31.6.46.9.32.64.63,1.28.94,1.93,1.3,2.76,2.48,5.57,3.56,8.42,2.52,6.59,4.6,13.35,6.37,20.18,1.95,7.54,3.53,15.17,4.71,22.87s1.96,15.46,2.19,23.24c.21,7.13-.04,14.31-1.15,21.36-.49,3.11-1.16,6.2-2.07,9.22-1.25,4.11-2.89,8.14-4.63,12.07-3.5,7.93-7.77,15.51-12.78,22.58-4.57,6.45-9.75,12.46-15.4,17.97-2.63,2.56-5.35,5.02-8.17,7.37-2.5,2.09-5.15,4-7.65,6.08-4.75,3.95-8.9,8.63-12.87,13.35-4.76,5.66-9.26,11.55-13.71,17.45s-9.19,12.31-13.89,18.39c-4.16,5.38-8.41,10.72-13.06,15.7-1,1.07-2.03,2.12-3.08,3.15-.48.47-.97.93-1.47,1.39-.47.43-1.18.81-1.2,1.48-.09,5.32-.01,10.65.03,15.97.08,10.72.29,21.43.62,32.14.16,5.14.35,10.28.57,15.42,0,.16.11.32.28.36,1.93.44,3.93.6,5.91.72,2.7.18,5.4.23,8.11.25,6.04.04,12.09-.13,18.12-.41,2.49-.12,4.97-.25,7.45-.42.95-.06,1.89-.13,2.84-.21,1.84-.15,3.72.02,5.57.06,9.5.18,19,.08,28.5-.11,9.5-.19,19.01-.48,28.51-.67,9.5-.19,19-.29,28.5-.11,8.54.16,17.08.45,25.62.58s17.22.2,25.84.24c8.79.04,17.59.04,26.38.03,8.85-.01,17.71-.03,26.56-.04s17.58,0,26.36.03c8.6.04,17.2.11,25.79.25,8.45.14,16.89.37,25.33.61,9.02.25,18.05.49,27.07.7,9.06.21,18.12.4,27.19.56s18.19.29,27.28.37c9.12.09,18.23.14,27.35.14,9.13,0,18.27-.04,27.4-.14s18.29-.26,27.44-.47,18.3-.5,27.45-.85c9.15-.35,18.3-.77,27.44-1.27s18.28-1.08,27.41-1.74,18.25-1.41,27.36-2.25c9.11-.84,18.21-1.78,27.29-2.81,9.03-1.03,18.06-2.16,27.07-3.4s18.08-2.6,27.09-4.07,18-3.06,26.96-4.77c4.46-.85,8.92-1.74,13.37-2.65,2.26-.47,4.53-.94,6.79-1.42,1.13-.24,2.27-.55,3.42-.7s2.33-.27,3.5-.4c9.2-1.04,18.41-2.06,27.62-3.05s18.37-1.95,27.56-2.89c9.17-.93,18.34-1.83,27.52-2.7s18.24-1.69,27.36-2.48c9.19-.8,18.38-1.56,27.58-2.27s18.21-1.38,27.33-2.01,18.29-1.21,27.44-1.74,18.3-1.02,27.45-1.45,18.31-.82,27.47-1.14,18.33-.6,27.5-.81,18.36-.37,27.55-.46,18.4-.12,27.6-.08,18.44.14,27.66.31,18.49.41,27.74.72,18.55.7,27.82,1.16,18.62,1,27.92,1.62,18.69,1.32,28.03,2.09,18.77,1.64,28.14,2.59c9.43.95,18.86,1.99,28.27,3.11,4.7.56,9.39,1.21,14.1,1.71s9.44.77,14.17.92c9.42.29,18.85.1,28.27.29,8.79.17,17.56.83,26.3,1.79,8.93.97,17.83,2.2,26.73,3.41s18.09,2.44,27.17,3.37c9.05.93,18.13,1.57,27.22,1.65,1.15.01,2.3.01,3.46,0s2.31-.17,3.46-.2c2.14-.06,4.29.02,6.43.17s4.13.34,6.2.48c1.06.07,2.11.13,3.17.15.84.02,1.74.1,2.56-.13,1.64-.46,2.27-2.24,2.58-3.75.34-1.69.36-3.43.4-5.15.06-3.01.12-6.03.18-9.04.13-6.86.23-13.71.33-20.57.1-7.37.2-14.73.28-22.1.08-7.21.15-14.41.21-21.62.05-6.37.09-12.75.12-19.12.03-7.67-.02-15.34-.02-23.01-.01-9.45,0-18.89.04-28.34s.09-18.75.16-28.12c.07-9.32.15-18.64.25-27.96s.2-18.57.31-27.85.23-18.53.34-27.79.24-18.52.35-27.78c.11-9.27.23-18.55.33-27.82s.2-18.61.28-27.91.15-18.7.2-28.05c.05-9.37.08-18.75.09-28.12,0-9.41-.15-18.84-.03-28.25.08-6.87.16-13.74.24-20.6s.15-14.1.22-21.16.14-14.39.2-21.59.12-14.66.18-21.99.11-14.91.16-22.36c.05-7.57.1-15.14.15-22.7s.09-15.35.13-23.02.08-15.53.12-23.3.07-15.7.11-23.56c.03-7.93.07-15.85.1-23.78s.06-15.98.09-23.98.06-16.09.08-24.14.05-16.18.08-24.28.05-16.26.07-24.38c.02-8.15.05-16.31.07-24.46s.04-16.34.07-24.51c.02-8.17.04-16.35.07-24.52s.04-16.27.07-24.4.05-16.38.07-24.58.05-16.19.07-24.29.05-16.2.08-24.3c.03-8.06.05-16.11.08-24.17.03-8,.06-16.01.09-24.01s.06-15.88.1-23.82.07-15.73.11-23.6.08-15.57.12-23.35c.04-7.69.08-15.38.13-23.07s.09-15.18.14-22.76.1-14.95.16-22.43.11-14.71.18-22.06c.06-7.22.13-14.44.19-21.66s.14-14.16.21-21.24c.07-6.93.15-13.85.23-20.78.11-8.91-.06-17.83-.13-26.74-.08-9.47-.15-18.94-.21-28.41-.06-9.43-.12-18.86-.17-28.3-.05-9.36-.09-18.71-.12-28.07s-.05-18.82-.05-28.23,0-18.6.03-27.91.06-18.65.11-27.97.12-18.61.21-27.92c.09-9.29.2-18.59.32-27.88s.28-18.57.45-27.86c.17-9.28.36-18.57.58-27.85s.46-18.57.73-27.86.56-18.58.88-27.87.67-18.6,1.05-27.91c.38-9.32.79-18.63,1.23-27.95.22-4.69.45-9.37.69-14.06.21-4.16.28-8.32.35-12.48.12-7.97.24-15.95.35-23.92s.24-16.14.35-24.2.24-16.32.35-24.47c.12-8.24.24-16.49.36-24.73.12-8.32.24-16.65.36-24.97s.24-16.8.37-25.2.25-16.87.37-25.3.26-17.15.39-25.72.26-17.12.39-25.68c.13-8.66.27-17.31.41-25.97.14-8.71.28-17.42.42-26.12s.29-17.51.44-26.27.3-17.6.46-26.4c.16-8.84.31-17.67.48-26.51s.33-17.74.5-26.61.34-17.8.52-26.7.36-17.85.54-26.77.37-17.89.57-26.83c.19-8.96.39-17.92.59-26.87s.41-17.94.62-26.9c.21-8.97.43-17.95.65-26.92s.45-17.95.68-26.92c.23-8.97.47-17.94.72-26.91.25-8.96.5-17.92.75-26.88s.52-17.9.79-26.84.54-17.78.82-26.67.57-17.89.87-26.84c.29-8.84.6-17.68.91-26.52s.63-17.7.95-26.54c.32-8.81.66-17.62,1-26.43.34-8.77.69-17.54,1.04-26.31s.72-17.45,1.09-26.17c.4-9.33.86-18.65,1.33-27.97.47-9.51.96-19.02,1.45-28.52s1.01-19.01,1.53-28.51c.52-9.5,1.06-19,1.61-28.5s1.11-18.99,1.69-28.49,1.16-18.99,1.77-28.48c.6-9.49,1.22-18.98,1.84-28.46s1.27-18.97,1.92-28.45c.65-9.48,1.32-18.96,2-28.44.68-9.47,1.37-18.95,2.08-28.42.7-9.47,1.42-18.94,2.15-28.41.62-7.98,1.24-15.95,1.87-23.93.02-.19-.18-.39-.38-.38-7.53.68-15.12.67-22.65-.04-3.83-.36-7.64-.9-11.42-1.62-1.88-.36-3.75-.75-5.61-1.19-.44-.1-.87-.21-1.31-.32-.32-.08-.82-.32-1.15-.24-.23.06-.46.34-.65.49-.37.31-.75.61-1.12.92-10.03,8.16-20.26,16.05-30.7,23.68-10.33,7.55-20.85,14.84-31.54,21.86s-21.48,13.72-32.47,20.19c-10.86,6.39-21.88,12.52-33.04,18.38s-22.45,11.46-33.87,16.79-22.78,10.31-34.34,15.08-23.17,9.24-34.9,13.46-23.31,8.11-35.09,11.77c-11.78,3.67-23.63,7.08-35.55,10.23s-23.64,5.99-35.55,8.6-23.84,4.98-35.83,7.09-23.78,3.94-35.73,5.53-23.8,2.93-35.74,4.02-23.56,1.91-35.36,2.51-23.5.94-35.26,1.04-23.14-.03-34.7-.41-22.96-.99-34.42-1.85c-11.25-.84-22.48-1.92-33.68-3.25s-22.22-2.87-33.28-4.67c-14.49-2.36-28.94-4.96-43.35-7.75s-28.99-5.82-43.43-8.99c-14.52-3.19-29.01-6.54-43.47-10.02s-28.81-7.07-43.18-10.77-28.93-7.54-43.36-11.43c-14.38-3.87-28.74-7.8-43.1-11.77s-28.88-8.01-43.31-12.04c-14.36-4-28.72-8.01-43.08-11.98s-28.87-7.95-43.33-11.85c-14.36-3.87-28.73-7.68-43.13-11.39-14.44-3.72-28.9-7.35-43.4-10.85s-28.79-6.82-43.23-10-28.99-6.22-43.54-9.06c-14.43-2.81-28.89-5.43-43.39-7.82-3.64-.6-7.28-1.18-10.92-1.75-2.67-.42-5.34-.9-8.03-1.13-3.92-.34-7.86-.18-11.75.35-8.54,1.18-16.75,4.18-24.4,8.07-8.91,4.53-17.16,10.31-24.83,16.7-8.6,7.16-16.5,15.15-23.81,23.62-7.9,9.16-15.11,18.92-21.67,29.09s-12.88,21.53-18.19,32.89-9.5,22.14-13.03,33.65c-.14.46.58.66.72.2h0Z"/>
  </g>
  <path class="cls-1" d="M416.8,117.13c-122.82-4.82-245.09-12.19-365.28-23.21l-3.01,215.36,42.31.59c-1.4-22.94,62.89-37.18,65.54,28.15,2.73,67.37-64.29,45.76-67.58,21.44l-40.95-.67s-3.05,218.3-3.36,240.74c7.35.1,40.89.57,40.89.57-2.06-28.69,63-42.17,65.54,28.15,2.24,62.17-67.77,38.13-67.58,21.44l-40.95-.67s-3.08,220.41-3.36,241.05c0,0,42.31.59,42.31.59.37-26.16,66.73-40.45,65.54,28.15-1.17,67.32-66.45,48.48-67.58,21.44l-40.95-.67s-3,214.59-3.35,240.12c0,0,42.31.59,42.31.59.63-22.93,65.38-35.47,65.54,28.15.16,67.84-65.61,43.8-67.58,21.44l-40.95-.67s-3.08,220.41-3.37,241.05c7.36.1,40.89.57,40.89.57-.24-23.93,66.03-35.71,65.54,28.15-.49,64.04-65.79,42.22-67.58,21.44l-40.95-.67s-3,214.59-3.35,240.12c0,0,42.31.59,42.31.59,1.71-23.64,65.78-38.59,65.54,28.15-.25,66.94-64.12,45.86-67.58,21.44l-40.95-.67s-3.01,215.93-3.35,240.35c6.91.09,41.08.57,41.08.57,1.75-22.45,67.44-37.55,65.54,28.15-1.93,66.53-65.42,42.64-67.58,21.44l-40.95-.67s-3.05,218.81-3.36,240.82c7.15.1,40.98.57,40.98.57.47-28.79,64.58-44.05,65.54,28.15.89,67.15-64.62,44.55-67.58,21.44l-40.95-.67s-3.15,225.37-3.37,241.67l5.45.08,42.31.59c.4-26.98,66.35-39.31,65.54,28.15-.91,75.83-66.29,48.96-67.58,21.44l-40.95-.67-3.39,242.59c40.91,1.6,68.34,11.23,109.24,12.83,167.89,6.55,335.99,13.1,503.85-2.3,72.81-6.68,145.49-17.49,218.27-25.49,229.7-25.24,473.64-26.63,702.59,4.18-6.63-825.42,3.88-1651.62,31.5-2476.68,2.63-78.68,7.91-238.2,6.81-316.89-19.46.64-117.1-2.53-136.56-1.92-141.38,4.43-282.76,7.05-424.13,7.84-199.21,1.12-403.8.14-606.88-7.83Z"/>
</svg>