<?xml version="1.0" encoding="UTF-8"?>
<svg id="Layer_1" data-name="Layer 1" xmlns="http://www.w3.org/2000/svg" viewBox="0 0 558.41 316.15">
  <defs>
    <style>
      .cls-1 {
        fill: #f8efdc;
      }

      .cls-2 {
        fill: #e5ce9e;
      }

      .cls-3 {
        fill: #bfdae5;
      }

      .cls-4 {
        fill: #f6bcc9;
      }

      .cls-5 {
        fill: #c9c9c9;
      }

      .cls-6 {
        fill: #fff;
      }

      .cls-7 {
        opacity: .2;
      }

      .cls-8 {
        fill: gray;
      }

      .cls-9 {
        fill: #ea8784;
      }

      .cls-10 {
        fill: #d65751;
      }
    </style>
  </defs>
  <rect class="cls-4" x="153.98" y="6.81" width=".55" height="2"/>
  <g class="cls-7">
    <path class="cls-8" d="M228.13,42.61c-1.83,8.48-6.55,17.26-12.15,19.93-9.04,4.31-19.46,4.94-28.63,8.95-6.41,2.81-12,7.17-18.04,10.71-19.9,11.66-44.25,13.94-67.05,10.41-22.79-3.54-46.54-19.8-67.47-29.47,6.07-8.48,18.22-9.33,28.69-9.35,31.17-.06,62.34-.12,93.51-.17,9.55-.02,19.97-.34,27.28-6.49,4.11-3.46,6.73-8.41,10.77-11.96,8.59-7.54,21.33-7.17,32.74-6.37,1.52,3.5,1.49,8.6.36,13.82Z"/>
    <path class="cls-8" d="M226.69,42.21c-1.38,6.22-4.03,13.04-8.93,17.35-2.31,2.03-5.46,3.01-8.34,3.93-3.52,1.12-7.12,1.94-10.69,2.83s-7.14,1.84-10.56,3.22-6.4,3.03-9.42,4.91c-6.22,3.87-12.17,7.97-18.93,10.87-12.85,5.52-27,7.6-40.91,7.29-7.02-.16-14.15-.79-21.01-2.35s-13.27-3.96-19.59-6.75c-14.63-6.48-28.27-14.93-42.77-21.66l.54,2.05c3.24-4.44,8.48-6.56,13.72-7.59,5.81-1.14,11.77-1.02,17.66-1.03,15.25-.03,30.51-.06,45.76-.09s30.5.05,45.74-.09c6.02-.05,12.24-.32,17.99-2.28,2.8-.96,5.44-2.31,7.76-4.14,2.49-1.97,4.45-4.46,6.41-6.93,2.18-2.74,4.42-5.43,7.39-7.34,2.75-1.77,5.83-2.88,9.01-3.56,6.62-1.42,13.53-1.02,20.24-.56l-1.45-1.1c1.7,4.09,1.25,8.8.36,13.02-.4,1.88,2.5,2.69,2.89.8.99-4.71,1.54-10.06-.36-14.62-.28-.66-.72-1.05-1.45-1.1-11.69-.81-25.25-1.25-34.41,7.37-4.68,4.4-7.58,10.36-13.36,13.57-5.4,3-11.79,3.62-17.86,3.81-7.35.23-14.72.09-22.07.1-7.79.01-15.59.03-23.38.04-15.59.03-31.17.06-46.76.09-12.29.02-28.27-1.08-36.45,10.11-.45.61-.14,1.74.54,2.05,13.25,6.14,25.77,13.73,38.99,19.93,6.5,3.05,13.18,5.82,20.11,7.77s13.97,2.84,21.06,3.27c14.37.88,29.1-.69,42.65-5.69,6.87-2.54,13.16-6.03,19.28-10.02,3.18-2.07,6.37-4.15,9.76-5.85s6.98-2.87,10.64-3.85,7.18-1.74,10.73-2.73,7.04-2,10.14-3.76c5.5-3.12,8.77-9.71,10.76-15.45.57-1.65,1.04-3.33,1.42-5.03.42-1.88-2.47-2.68-2.89-.8Z"/>
  </g>
  <g>
    <path class="cls-1" d="M544.91,18.07H214.29c-2.21,0-4.28,1.09-5.55,2.92-10.61,15.21-9.25,14.16-17.07,24.82-9.33,12.72-35.18,11.64-35.18,11.64-11.87-.29-91.42-.36-91.42-.36,0,0-24.95,0-41.46-.13-3.96-.03-7.19,3.22-7.19,7.24v222.65c0,6.42,5.18,11.68,11.5,11.68h517c6.33,0,11.5-5.26,11.5-11.68V29.75c0-6.42-5.18-11.68-11.5-11.68Z"/>
    <path class="cls-2" d="M544.91,299.53H27.91c-6.89,0-12.5-5.69-12.5-12.68V64.2c0-2.24.87-4.33,2.45-5.89,1.55-1.53,3.62-2.35,5.75-2.35,16.31.14,41.2.13,41.45.13.8,0,79.7.07,91.45.36.27,0,25.45.91,34.35-11.23,4.2-5.73,5.76-8.1,7.93-11.38,1.88-2.85,4.23-6.41,9.13-13.43,1.46-2.09,3.84-3.35,6.37-3.35h330.62c6.89,0,12.5,5.69,12.5,12.68v257.11c0,6.99-5.61,12.68-12.5,12.68ZM23.54,57.96c-1.61,0-3.12.63-4.28,1.77-1.2,1.19-1.85,2.77-1.85,4.47v222.65c0,5.89,4.71,10.68,10.5,10.68h517c5.79,0,10.5-4.79,10.5-10.68V29.75c0-5.89-4.71-10.68-10.5-10.68H214.29c-1.88,0-3.64.93-4.73,2.49-4.88,7-7.22,10.54-9.1,13.38-2.18,3.3-3.76,5.69-7.99,11.46-9.53,13-34.96,12.09-36.03,12.05-11.71-.29-90.58-.36-91.38-.36-.25,0-25.15,0-41.46-.13h-.05Z"/>
  </g>
  <g class="cls-7">
    <path class="cls-8" d="M249.65,117.4c.41-19.61,2.21-39.67,5.12-58.08.32-2.58.63-5.16.95-7.75.1-.79.25-1.67.9-2.11.5-.34,1.16-.32,1.77-.29l4.25.25c18.31,28.22,48.63,52.87,75.32,73.35,35.69,27.37,72.59,53.37,112.16,74.74,21.69,11.71,47.64,28.9,55.47,52.27-.09,1.64-.66,5.56-.75,7.2-26.59-3.88-56.63-6.8-83.42-8.88-34.04-2.46-74.83-4.46-108.87-6.92-18.32-.58-37-1.29-55.33-1.13-2.84-.41-11.27-.5-14.12-.9-.34-.05-.69-.1-.99-.27-.98-.55-.92-1.95-.73-3.06,4.71-27.89,9.66-60.37,8.76-89.02-.56-9.5-.71-19.39-.51-29.4Z"/>
    <path class="cls-8" d="M250.03,117.4c.21-9.81.75-19.6,1.61-29.37s2.08-19.02,3.48-28.5c.4-2.68.62-5.39.99-8.08.07-.51.16-1.12.53-1.51.48-.51,1.25-.42,1.88-.38,1.38.08,2.75.16,4.13.24l-.32-.19c5.7,8.78,12.33,16.92,19.44,24.59,7.35,7.93,15.23,15.36,23.36,22.47,8.09,7.08,16.46,13.84,24.93,20.46,8.82,6.89,17.74,13.65,26.73,20.31,9.45,7,18.99,13.86,28.67,20.54s19.34,13.07,29.23,19.26c9.95,6.24,20.06,12.23,30.34,17.9,8.48,4.68,16.96,9.28,24.98,14.72s15.56,11.44,22.04,18.56c3.09,3.4,5.91,7.04,8.29,10.97,1.17,1.93,2.22,3.92,3.15,5.97.46,1.02.88,2.05,1.27,3.09.17.45.45.99.47,1.47.02.44-.08.92-.12,1.35-.2,1.89-.5,3.79-.61,5.69l.47-.36c-12.71-1.85-25.46-3.4-38.23-4.76-12.93-1.38-25.87-2.57-38.83-3.62-12.22-.99-24.45-1.75-36.69-2.51s-25.42-1.53-38.13-2.29c-12.32-.74-24.64-1.51-36.96-2.37-6.65-.47-13.33-.57-20-.78-6.9-.21-13.81-.4-20.71-.52-3.44-.06-6.89-.1-10.33-.11-2.93-.01-5.91.17-8.83-.09-4.11-.38-8.26-.29-12.37-.7-.42-.04-.87-.06-1.28-.19-.76-.24-.94-.97-.94-1.69,0-1.41.4-2.87.63-4.26.51-3.04,1.01-6.09,1.5-9.14,1.01-6.29,1.96-12.59,2.82-18.9,1.74-12.73,3.12-25.53,3.72-38.37.29-6.21.39-12.43.22-18.64-.09-3.31-.33-6.62-.43-9.93s-.17-6.81-.18-10.22.02-6.75.08-10.13c0-.48-.74-.48-.75,0-.14,6.94-.12,13.89.11,20.83.11,3.3.35,6.59.43,9.88.08,3.1.09,6.19.04,9.29-.19,12.94-1.32,25.85-2.88,38.69s-3.54,25.32-5.66,37.93c-.2,1.2-.57,2.5-.34,3.72s1.09,1.65,2.22,1.8c1.87.25,3.77.3,5.65.38,2.18.1,4.37.17,6.54.33.95.07,1.87.18,2.81.17,1.71-.01,3.43-.02,5.14-.01,13.88.02,27.75.46,41.62.91,3.3.11,6.6.17,9.89.41,3.02.21,6.03.42,9.05.62,6.22.42,12.43.81,18.65,1.2,12.82.79,25.64,1.54,38.47,2.31,12.39.75,24.78,1.51,37.16,2.39s25.52,2.04,38.25,3.31c13.05,1.29,26.08,2.76,39.08,4.5,3.08.41,6.16.84,9.23,1.29.25.04.46-.1.47-.36.13-2.34.65-4.65.73-6.98.02-.55-.28-1.13-.47-1.65-.24-.66-.5-1.32-.77-1.97-.51-1.23-1.07-2.43-1.67-3.62-2.47-4.87-5.66-9.36-9.25-13.48-7.6-8.74-16.92-15.9-26.61-22.18-10.51-6.81-21.73-12.43-32.55-18.7-12.31-7.14-24.38-14.7-36.24-22.57-11.83-7.86-23.46-16.03-34.93-24.41s-22.17-16.47-33.05-24.96c-10.3-8.04-20.44-16.31-30.12-25.09-9.68-8.78-18.94-18.09-27.18-28.25-2.03-2.5-4-5.05-5.88-7.67-.9-1.25-1.78-2.5-2.64-3.77-.42-.62-.83-1.24-1.24-1.86-.14-.22-.29-.59-.52-.73-.28-.17-.81-.09-1.13-.11l-2.6-.15c-.79-.05-1.66-.18-2.41.16-1.25.57-1.3,2.12-1.44,3.3-.45,3.68-.93,7.35-1.47,11.02-2.12,14.4-3.49,28.91-4.15,43.44-.16,3.55-.28,7.09-.36,10.64-.01.48.74.48.75,0Z"/>
  </g>
  <g>
    <g>
      <path class="cls-6" d="M524.17,102.18c1.73-15.65,3.7-31.21,5.99-46.5l-20.34-1.41-.5,5.4c4.14.41,4.92,8.91-3.34,8.23-8.77-.72-5.76-8.81-1.33-8.73l.49-5.22s-20.62-1.43-22.74-1.58c-.09.94-.48,5.21-.48,5.21,4.14.41,4.92,8.91-3.34,8.23-8.77-.72-5.76-8.81-1.33-8.73l.49-5.22s-20.82-1.44-22.77-1.58c0,0-.5,5.4-.5,5.4,4.14.41,4.92,8.91-3.34,8.23-8.77-.72-5.76-8.81-1.33-8.73l.49-5.22-22.68-1.57s-.5,5.4-.5,5.4c4.14.41,4.92,8.91-3.34,8.23-8.77-.72-5.76-8.81-1.33-8.73l.49-5.22s-20.82-1.44-22.77-1.58l-.48,5.22c4.14.41,4.92,8.91-3.34,8.23-8.77-.72-5.76-8.81-1.33-8.73l.49-5.22s-20.27-1.4-22.68-1.57c0,0-.5,5.4-.5,5.4,4.14.41,4.92,8.91-3.34,8.23-8.77-.72-5.76-8.81-1.33-8.73l.49-5.22s-20.39-1.41-22.7-1.57c-.08.88-.48,5.24-.48,5.24,4.14.41,4.92,8.91-3.34,8.23-8.77-.72-5.76-8.81-1.33-8.73l.49-5.22s-20.67-1.43-22.74-1.58c-.08.91-.48,5.23-.48,5.23,4.14.41,4.92,8.91-3.34,8.23-8.77-.72-5.76-8.81-1.33-8.73l.49-5.22s-21.28-1.47-22.82-1.58l-.06.7-.5,5.4c4.14.41,4.92,8.91-3.34,8.23-8.77-.72-5.76-8.81-1.33-8.73l.49-5.22-22.91-1.59c-.58,5.21-1.77,8.67-2.35,13.88-2.36,21.39-4.73,42.81-5.02,64.3-.12,9.32.14,18.65.14,27.97,0,29.43-2.4,60.56-7.69,89.63,78.14,3.08,156.18,8.36,233.93,15.81,7.41.71,22.45,2.14,29.9,2.38.14-2.49,1.46-14.93,1.6-17.42,1.05-18.06,2.27-36.11,3.66-54.16,1.96-25.42,4.18-51.53,7.04-77.4Z"/>
      <path class="cls-10" d="M524.55,102.18c1.34-12.09,2.82-24.17,4.5-36.22.47-3.39.96-6.79,1.47-10.17.04-.25-.1-.46-.36-.47-5.94-.41-11.87-.82-17.81-1.23-.84-.06-1.69-.12-2.53-.18-.22-.01-.36.18-.38.38-.17,1.8-.33,3.6-.5,5.4-.02.22.19.35.38.38,1.48.17,2.43,1.54,2.62,2.93.22,1.64-.59,3.19-2.04,3.95-3.02,1.59-10.4.36-9.01-4.37.49-1.65,2-3.02,3.77-3,.22,0,.36-.17.38-.38.16-1.74.33-3.48.49-5.22.02-.21-.19-.36-.38-.38-6.34-.44-12.68-.88-19.02-1.32l-3.71-.26c-.22-.01-.36.18-.38.38-.16,1.74-.32,3.48-.48,5.21-.02.22.19.35.38.38,1.48.17,2.43,1.54,2.62,2.93.22,1.64-.59,3.19-2.04,3.95-3.02,1.59-10.4.36-9.01-4.37.49-1.65,2-3.02,3.77-3,.22,0,.36-.17.38-.38.16-1.74.33-3.48.49-5.22.02-.21-.19-.36-.38-.38-6.39-.44-12.79-.89-19.18-1.33-1.19-.08-2.39-.17-3.58-.25-.22-.01-.36.18-.38.38-.16,1.8-.33,3.6-.5,5.4-.02.22.19.35.38.38,1.48.17,2.43,1.54,2.62,2.93.22,1.64-.59,3.19-2.04,3.95-3.02,1.59-10.4.36-9.01-4.37.49-1.65,2-3.02,3.77-3,.22,0,.36-.17.38-.38.16-1.74.33-3.48.49-5.22.02-.21-.19-.36-.38-.38-6.29-.44-12.58-.87-18.87-1.31-1.27-.09-2.54-.18-3.81-.26-.22-.01-.36.18-.38.38-.16,1.8-.33,3.6-.5,5.4-.02.22.19.35.38.38,1.48.17,2.43,1.54,2.62,2.93.22,1.64-.59,3.19-2.04,3.95-3.02,1.59-10.4.36-9.01-4.37.49-1.65,2-3.02,3.77-3,.22,0,.36-.17.38-.38.16-1.74.33-3.48.49-5.22.02-.21-.19-.36-.38-.38-6.39-.44-12.79-.89-19.18-1.33-1.19-.08-2.39-.17-3.58-.25-.22-.01-.36.18-.38.38-.16,1.74-.32,3.48-.48,5.22-.02.22.19.35.38.38,1.48.17,2.43,1.54,2.62,2.93.22,1.64-.59,3.19-2.04,3.95-3.02,1.59-10.4.36-9.01-4.37.49-1.65,2-3.02,3.77-3,.22,0,.36-.17.38-.38.16-1.74.33-3.48.49-5.22.02-.21-.19-.36-.38-.38-6.29-.44-12.58-.87-18.87-1.31l-3.81-.26c-.22-.01-.36.18-.38.38-.16,1.8-.33,3.6-.5,5.4-.02.22.19.35.38.38,1.48.17,2.43,1.54,2.62,2.93.22,1.64-.59,3.19-2.04,3.95-3.02,1.59-10.4.36-9.01-4.37.49-1.65,2-3.02,3.77-3,.22,0,.36-.17.38-.38.16-1.74.33-3.48.49-5.22.02-.21-.19-.36-.38-.38-6.32-.44-12.65-.88-18.97-1.31l-3.73-.26c-.22-.01-.36.18-.38.38-.16,1.75-.32,3.49-.48,5.24-.02.22.19.35.38.38,1.48.17,2.43,1.54,2.62,2.93.22,1.64-.59,3.19-2.04,3.95-3.02,1.59-10.4.36-9.01-4.37.49-1.65,2-3.02,3.77-3,.22,0,.36-.17.38-.38.16-1.74.33-3.48.49-5.22.02-.21-.19-.36-.38-.38-6.36-.44-12.71-.88-19.07-1.32-1.22-.08-2.45-.17-3.67-.25-.22-.01-.36.18-.38.38-.16,1.74-.32,3.48-.48,5.23-.02.22.19.35.38.38,1.48.17,2.43,1.54,2.62,2.93.22,1.64-.59,3.19-2.04,3.95-3.02,1.59-10.4.36-9.01-4.37.49-1.65,2-3.02,3.77-3,.22,0,.36-.17.38-.38.16-1.74.33-3.48.49-5.22.02-.21-.19-.36-.38-.38-2.42-.17-4.83-.33-7.25-.5-4.04-.28-8.09-.56-12.13-.84-1.15-.08-2.29-.16-3.44-.24-.22-.01-.36.18-.38.38-.19,2.03-.37,4.06-.56,6.09-.02.22.19.35.38.38,1.48.17,2.43,1.54,2.62,2.93.22,1.64-.59,3.19-2.04,3.95-3.02,1.59-10.4.36-9.01-4.37.49-1.65,2-3.02,3.77-3,.22,0,.36-.17.38-.38.16-1.74.33-3.48.49-5.22.02-.21-.19-.36-.38-.38-2.57-.18-5.15-.36-7.72-.53l-12.33-.85c-.95-.07-1.91-.13-2.86-.2-.22-.02-.35.19-.38.38-.33,2.88-.95,5.71-1.51,8.55-.59,2.99-.92,6.01-1.25,9.03-.72,6.5-1.42,13-2.06,19.51-1.28,13.08-2.28,26.2-2.52,39.35s.26,26.05.04,39.08-.87,25.26-1.98,37.85-2.69,25.28-4.83,37.81c-.26,1.5-.52,3-.79,4.5-.04.24.1.46.36.47,9.12.36,18.25.75,27.37,1.17s18.16.87,27.24,1.34c9.08.48,18.15.98,27.22,1.52s18.22,1.11,27.33,1.71c9.07.6,18.13,1.22,27.19,1.88s18.2,1.34,27.3,2.06c9.06.71,18.11,1.46,27.16,2.23s18.18,1.58,27.26,2.42c7.54.69,15.07,1.43,22.6,2.13,6.45.6,12.91,1.18,19.38,1.56,1.26.07,2.51.14,3.77.18.21,0,.36-.18.38-.38.32-5.42,1.05-10.82,1.51-16.23.38-4.49.55-9,.83-13.49.35-5.55.71-11.1,1.09-16.65.75-10.99,1.57-21.97,2.44-32.95.86-10.92,1.77-21.84,2.76-32.75.99-10.96,2.06-21.91,3.24-32.85.15-1.35.29-2.7.44-4.05.05-.48-.7-.48-.75,0-1.21,10.98-2.31,21.97-3.32,32.97-1,10.89-1.92,21.78-2.8,32.68-.88,10.95-1.71,21.9-2.47,32.86-.77,11.03-1.42,22.06-2.12,33.1-.34,5.42-1.06,10.81-1.51,16.22-.03.38-.06.76-.09,1.15l.38-.38c-6.17-.2-12.32-.77-18.47-1.31-6.91-.61-13.82-1.3-20.72-1.94-9.04-.85-18.09-1.66-27.13-2.45s-18.18-1.55-27.28-2.28-18.11-1.43-27.17-2.1c-9.1-.67-18.21-1.31-27.32-1.93s-18.14-1.19-27.21-1.74-18.23-1.08-27.35-1.57-18.15-.95-27.23-1.39-18.16-.84-27.24-1.21c-2.24-.09-4.48-.18-6.72-.27l.36.47c2.26-12.42,3.95-24.94,5.19-37.5,1.24-12.6,2-25.25,2.33-37.91.34-12.98-.04-25.95.02-38.93.06-13.2.9-26.38,2.11-39.52.61-6.59,1.3-13.18,2.01-19.76.36-3.27.64-6.55,1.1-9.81.38-2.74,1.02-5.44,1.52-8.16.26-1.43.48-2.86.65-4.31l-.38.38c2.57.18,5.15.36,7.72.53l12.33.85c.95.07,1.91.13,2.86.2l-.38-.38c-.16,1.74-.33,3.48-.49,5.22l.38-.38c-3.96-.03-6.38,5.41-3.11,8s11.33,2.13,11.18-3.4c-.05-1.98-1.34-3.87-3.4-4.1l.38.38c.19-2.03.37-4.06.56-6.09l-.38.38c2.78.19,5.57.39,8.35.58,3.94.27,7.88.55,11.83.82.88.06,1.77.12,2.65.18l-.38-.38c-.16,1.74-.33,3.48-.49,5.22l.38-.38c-3.96-.03-6.38,5.41-3.11,8s11.33,2.13,11.18-3.4c-.05-1.98-1.34-3.87-3.4-4.1l.38.38c.16-1.74.32-3.48.48-5.23l-.38.38c6.71.47,13.43.93,20.14,1.4l2.6.18-.38-.38c-.16,1.74-.33,3.48-.49,5.22l.38-.38c-3.96-.03-6.38,5.41-3.11,8s11.33,2.13,11.18-3.4c-.05-1.98-1.34-3.87-3.4-4.1l.38.38c.16-1.75.32-3.49.48-5.24l-.38.38c6.72.47,13.44.93,20.16,1.4.85.06,1.69.12,2.54.18l-.38-.38c-.16,1.74-.33,3.48-.49,5.22l.38-.38c-3.96-.03-6.38,5.41-3.11,8s11.33,2.13,11.18-3.4c-.05-1.98-1.34-3.87-3.4-4.1l.38.38c.17-1.8.33-3.6.5-5.4l-.38.38c6.7.46,13.41.93,20.11,1.39.85.06,1.71.12,2.56.18l-.38-.38c-.16,1.74-.33,3.48-.49,5.22l.38-.38c-3.96-.03-6.38,5.41-3.11,8s11.33,2.13,11.18-3.4c-.05-1.98-1.34-3.87-3.4-4.1l.38.38c.16-1.74.32-3.48.48-5.22l-.38.38c6.73.47,13.46.93,20.18,1.4.86.06,1.72.12,2.58.18l-.38-.38c-.16,1.74-.33,3.48-.49,5.22l.38-.38c-3.96-.03-6.38,5.41-3.11,8s11.33,2.13,11.18-3.4c-.05-1.98-1.34-3.87-3.4-4.1l.38.38c.17-1.8.33-3.6.5-5.4l-.38.38c6.7.46,13.41.93,20.11,1.39.85.06,1.71.12,2.56.18l-.38-.38c-.16,1.74-.33,3.48-.49,5.22l.38-.38c-3.96-.03-6.38,5.41-3.11,8s11.33,2.13,11.18-3.4c-.05-1.98-1.34-3.87-3.4-4.1l.38.38c.17-1.8.33-3.6.5-5.4l-.38.38c6.73.47,13.46.93,20.18,1.4.86.06,1.72.12,2.58.18l-.38-.38c-.16,1.74-.33,3.48-.49,5.22l.38-.38c-3.96-.03-6.38,5.41-3.11,8s11.33,2.13,11.18-3.4c-.05-1.98-1.34-3.87-3.4-4.1l.38.38c.16-1.74.32-3.48.48-5.21l-.38.38c6.71.46,13.41.93,20.12,1.39l2.62.18-.38-.38c-.16,1.74-.33,3.48-.49,5.22l.38-.38c-3.96-.03-6.38,5.41-3.11,8s11.33,2.13,11.18-3.4c-.05-1.98-1.34-3.87-3.4-4.1l.38.38c.17-1.8.33-3.6.5-5.4l-.38.38c5.94.41,11.87.82,17.81,1.23.84.06,1.69.12,2.53.18l-.36-.47c-1.8,12.05-3.39,24.13-4.82,36.24-.41,3.45-.8,6.91-1.18,10.36-.05.48.7.48.75,0Z"/>
    </g>
    <rect class="cls-3" x="407.66" y="158.39" width="182.55" height="1" transform="translate(294.93 641.13) rotate(-84.73)"/>
    <rect class="cls-3" x="377.46" y="155.36" width="182.55" height="1" transform="translate(270.51 608.32) rotate(-84.73)"/>
    <rect class="cls-3" x="340.75" y="145.85" width="194.56" height="1" transform="translate(252.09 569.1) rotate(-84.73)"/>
    <rect class="cls-3" x="310.14" y="144.17" width="194.56" height="1" transform="translate(225.97 537.09) rotate(-84.73)"/>
    <rect class="cls-3" x="279.04" y="142.01" width="194.56" height="1" transform="translate(199.88 504.17) rotate(-84.73)"/>
    <rect class="cls-3" x="248.09" y="140.01" width="194.25" height="1" transform="translate(173.62 471.38) rotate(-84.73)"/>
    <rect class="cls-3" x="216.47" y="137.28" width="195.41" height="1" transform="translate(148.15 437.99) rotate(-84.73)"/>
    <rect class="cls-3" x="191.14" y="142.5" width="182.55" height="1" transform="translate(114.1 411.09) rotate(-84.73)"/>
    <rect class="cls-9" x="392.58" y="-63.08" width="1" height="268.27" transform="translate(295.02 458.28) rotate(-86.04)"/>
    <path class="cls-10" d="M524.55,102.18c1.34-12.09,2.82-24.17,4.5-36.22.47-3.39.96-6.79,1.47-10.17.04-.25-.1-.46-.36-.47-5.94-.41-11.87-.82-17.81-1.23-.84-.06-1.69-.12-2.53-.18-.22-.01-.36.18-.38.38-.17,1.8-.33,3.6-.5,5.4-.02.22.19.35.38.38,1.48.17,2.43,1.54,2.62,2.93.22,1.64-.59,3.19-2.04,3.95-3.02,1.59-10.4.36-9.01-4.37.49-1.65,2-3.02,3.77-3,.22,0,.36-.17.38-.38.16-1.74.33-3.48.49-5.22.02-.21-.19-.36-.38-.38-6.34-.44-12.68-.88-19.02-1.32l-3.71-.26c-.22-.01-.36.18-.38.38-.16,1.74-.32,3.48-.48,5.21-.02.22.19.35.38.38,1.48.17,2.43,1.54,2.62,2.93.22,1.64-.59,3.19-2.04,3.95-3.02,1.59-10.4.36-9.01-4.37.49-1.65,2-3.02,3.77-3,.22,0,.36-.17.38-.38.16-1.74.33-3.48.49-5.22.02-.21-.19-.36-.38-.38-6.39-.44-12.79-.89-19.18-1.33-1.19-.08-2.39-.17-3.58-.25-.22-.01-.36.18-.38.38-.16,1.8-.33,3.6-.5,5.4-.02.22.19.35.38.38,1.48.17,2.43,1.54,2.62,2.93.22,1.64-.59,3.19-2.04,3.95-3.02,1.59-10.4.36-9.01-4.37.49-1.65,2-3.02,3.77-3,.22,0,.36-.17.38-.38.16-1.74.33-3.48.49-5.22.02-.21-.19-.36-.38-.38-6.29-.44-12.58-.87-18.87-1.31-1.27-.09-2.54-.18-3.81-.26-.22-.01-.36.18-.38.38-.16,1.8-.33,3.6-.5,5.4-.02.22.19.35.38.38,1.48.17,2.43,1.54,2.62,2.93.22,1.64-.59,3.19-2.04,3.95-3.02,1.59-10.4.36-9.01-4.37.49-1.65,2-3.02,3.77-3,.22,0,.36-.17.38-.38.16-1.74.33-3.48.49-5.22.02-.21-.19-.36-.38-.38-6.39-.44-12.79-.89-19.18-1.33-1.19-.08-2.39-.17-3.58-.25-.22-.01-.36.18-.38.38-.16,1.74-.32,3.48-.48,5.22-.02.22.19.35.38.38,1.48.17,2.43,1.54,2.62,2.93.22,1.64-.59,3.19-2.04,3.95-3.02,1.59-10.4.36-9.01-4.37.49-1.65,2-3.02,3.77-3,.22,0,.36-.17.38-.38.16-1.74.33-3.48.49-5.22.02-.21-.19-.36-.38-.38-6.29-.44-12.58-.87-18.87-1.31l-3.81-.26c-.22-.01-.36.18-.38.38-.16,1.8-.33,3.6-.5,5.4-.02.22.19.35.38.38,1.48.17,2.43,1.54,2.62,2.93.22,1.64-.59,3.19-2.04,3.95-3.02,1.59-10.4.36-9.01-4.37.49-1.65,2-3.02,3.77-3,.22,0,.36-.17.38-.38.16-1.74.33-3.48.49-5.22.02-.21-.19-.36-.38-.38-6.32-.44-12.65-.88-18.97-1.31l-3.73-.26c-.22-.01-.36.18-.38.38-.16,1.75-.32,3.49-.48,5.24-.02.22.19.35.38.38,1.48.17,2.43,1.54,2.62,2.93.22,1.64-.59,3.19-2.04,3.95-3.02,1.59-10.4.36-9.01-4.37.49-1.65,2-3.02,3.77-3,.22,0,.36-.17.38-.38.16-1.74.33-3.48.49-5.22.02-.21-.19-.36-.38-.38-6.36-.44-12.71-.88-19.07-1.32-1.22-.08-2.45-.17-3.67-.25-.22-.01-.36.18-.38.38-.16,1.74-.32,3.48-.48,5.23-.02.22.19.35.38.38,1.48.17,2.43,1.54,2.62,2.93.22,1.64-.59,3.19-2.04,3.95-3.02,1.59-10.4.36-9.01-4.37.49-1.65,2-3.02,3.77-3,.22,0,.36-.17.38-.38.16-1.74.33-3.48.49-5.22.02-.21-.19-.36-.38-.38-2.42-.17-4.83-.33-7.25-.5-4.04-.28-8.09-.56-12.13-.84-1.15-.08-2.29-.16-3.44-.24-.22-.01-.36.18-.38.38-.19,2.03-.37,4.06-.56,6.09-.02.22.19.35.38.38,1.48.17,2.43,1.54,2.62,2.93.22,1.64-.59,3.19-2.04,3.95-3.02,1.59-10.4.36-9.01-4.37.49-1.65,2-3.02,3.77-3,.22,0,.36-.17.38-.38.16-1.74.33-3.48.49-5.22.02-.21-.19-.36-.38-.38-2.57-.18-5.15-.36-7.72-.53l-12.33-.85c-.95-.07-1.91-.13-2.86-.2-.22-.02-.35.19-.38.38-.33,2.88-.95,5.71-1.51,8.55-.59,2.99-.92,6.01-1.25,9.03-.72,6.5-1.42,13-2.06,19.51-1.28,13.08-2.28,26.2-2.52,39.35s.26,26.05.04,39.08c-.22,12.63-.87,25.26-1.98,37.85s-2.69,25.28-4.83,37.81c-.26,1.5-.52,3-.79,4.5-.04.24.1.46.36.47,9.12.36,18.25.75,27.37,1.17s18.16.87,27.24,1.34c9.08.48,18.15.98,27.22,1.52,9.11.54,18.22,1.11,27.33,1.71,9.07.6,18.13,1.22,27.19,1.88,9.1.66,18.2,1.34,27.3,2.06s18.11,1.46,27.16,2.23,18.18,1.58,27.26,2.42c7.54.69,15.07,1.43,22.6,2.13,6.45.6,12.91,1.18,19.38,1.56,1.26.07,2.51.14,3.77.18.21,0,.36-.18.38-.38.32-5.42,1.05-10.82,1.51-16.23.38-4.49.55-9,.83-13.49.35-5.55.71-11.1,1.09-16.65.75-10.99,1.57-21.97,2.44-32.95.86-10.92,1.77-21.84,2.76-32.75.99-10.96,2.06-21.91,3.24-32.85.15-1.35.29-2.7.44-4.05.05-.48-.7-.48-.75,0-1.21,10.98-2.31,21.97-3.32,32.97-1,10.89-1.92,21.78-2.8,32.68-.88,10.95-1.71,21.9-2.47,32.86-.77,11.03-1.42,22.06-2.12,33.1-.34,5.42-1.06,10.81-1.51,16.22-.03.38-.06.76-.09,1.15l.38-.38c-6.17-.2-12.32-.77-18.47-1.31-6.91-.61-13.82-1.3-20.72-1.94-9.04-.85-18.09-1.66-27.13-2.45s-18.18-1.55-27.28-2.28-18.11-1.43-27.17-2.1c-9.1-.67-18.21-1.31-27.32-1.93s-18.14-1.19-27.21-1.74-18.23-1.08-27.35-1.57c-9.08-.49-18.15-.95-27.23-1.39s-18.16-.84-27.24-1.21c-2.24-.09-4.48-.18-6.72-.27l.36.47c2.26-12.42,3.95-24.94,5.19-37.5s2-25.25,2.33-37.91-.04-25.95.02-38.93c.06-13.2.9-26.38,2.11-39.52.61-6.59,1.3-13.18,2.01-19.76.36-3.27.64-6.55,1.1-9.81.38-2.74,1.02-5.44,1.52-8.16.26-1.43.48-2.86.65-4.31l-.38.38c2.57.18,5.15.36,7.72.53l12.33.85c.95.07,1.91.13,2.86.2l-.38-.38c-.16,1.74-.33,3.48-.49,5.22l.38-.38c-3.96-.03-6.38,5.41-3.11,8s11.33,2.13,11.18-3.4c-.05-1.98-1.34-3.87-3.4-4.1l.38.38c.19-2.03.37-4.06.56-6.09l-.38.38c2.78.19,5.57.39,8.35.58,3.94.27,7.88.55,11.83.82.88.06,1.77.12,2.65.18l-.38-.38c-.16,1.74-.33,3.48-.49,5.22l.38-.38c-3.96-.03-6.38,5.41-3.11,8s11.33,2.13,11.18-3.4c-.05-1.98-1.34-3.87-3.4-4.1l.38.38c.16-1.74.32-3.48.48-5.23l-.38.38c6.71.47,13.43.93,20.14,1.4l2.6.18-.38-.38c-.16,1.74-.33,3.48-.49,5.22l.38-.38c-3.96-.03-6.38,5.41-3.11,8s11.33,2.13,11.18-3.4c-.05-1.98-1.34-3.87-3.4-4.1l.38.38c.16-1.75.32-3.49.48-5.24l-.38.38c6.72.47,13.44.93,20.16,1.4.85.06,1.69.12,2.54.18l-.38-.38c-.16,1.74-.33,3.48-.49,5.22l.38-.38c-3.96-.03-6.38,5.41-3.11,8s11.33,2.13,11.18-3.4c-.05-1.98-1.34-3.87-3.4-4.1l.38.38c.17-1.8.33-3.6.5-5.4l-.38.38c6.7.46,13.41.93,20.11,1.39.85.06,1.71.12,2.56.18l-.38-.38c-.16,1.74-.33,3.48-.49,5.22l.38-.38c-3.96-.03-6.38,5.41-3.11,8s11.33,2.13,11.18-3.4c-.05-1.98-1.34-3.87-3.4-4.1l.38.38c.16-1.74.32-3.48.48-5.22l-.38.38c6.73.47,13.46.93,20.18,1.4.86.06,1.72.12,2.58.18l-.38-.38c-.16,1.74-.33,3.48-.49,5.22l.38-.38c-3.96-.03-6.38,5.41-3.11,8s11.33,2.13,11.18-3.4c-.05-1.98-1.34-3.87-3.4-4.1l.38.38c.17-1.8.33-3.6.5-5.4l-.38.38c6.7.46,13.41.93,20.11,1.39.85.06,1.71.12,2.56.18l-.38-.38c-.16,1.74-.33,3.48-.49,5.22l.38-.38c-3.96-.03-6.38,5.41-3.11,8s11.33,2.13,11.18-3.4c-.05-1.98-1.34-3.87-3.4-4.1l.38.38c.17-1.8.33-3.6.5-5.4l-.38.38c6.73.47,13.46.93,20.18,1.4.86.06,1.72.12,2.58.18l-.38-.38c-.16,1.74-.33,3.48-.49,5.22l.38-.38c-3.96-.03-6.38,5.41-3.11,8s11.33,2.13,11.18-3.4c-.05-1.98-1.34-3.87-3.4-4.1l.38.38c.16-1.74.32-3.48.48-5.21l-.38.38c6.71.46,13.41.93,20.12,1.39l2.62.18-.38-.38c-.16,1.74-.33,3.48-.49,5.22l.38-.38c-3.96-.03-6.38,5.41-3.11,8s11.33,2.13,11.18-3.4c-.05-1.98-1.34-3.87-3.4-4.1l.38.38c.17-1.8.33-3.6.5-5.4l-.38.38c5.94.41,11.87.82,17.81,1.23.84.06,1.69.12,2.53.18l-.36-.47c-1.8,12.05-3.39,24.13-4.82,36.24-.41,3.45-.8,6.91-1.18,10.36-.05.48.7.48.75,0Z"/>
  </g>
  <path class="cls-5" d="M433.21,35.83c-.03,5.78-.06,11.55-.08,17.34,0,2.48-.06,4.96-.04,7.44.02,2.32.12,4.76.9,6.97,1.34,3.86,5.09,6.24,9.17,5.7,4.08-.54,6.29-3.88,6.97-7.69.38-2.13.4-4.27.41-6.42.02-2.91.05-5.82.07-8.74.05-5.82.08-11.66.13-17.48.04-5.68.17-11.38.11-17.06-.05-4.69-.81-9.75-4.7-12.86-3.49-2.78-9.42-2.83-12.57.51-3.15,3.34-3.56,8.32-3.58,12.66,0,1.82,2.83,1.82,2.84,0,0-3.28.2-6.93,2.04-9.76.94-1.44,2.22-2.33,3.94-2.48,1.8-.16,3.5-.13,5.05.9,3.74,2.47,4.12,7.38,4.14,11.45.02,4.99-.07,9.98-.1,14.97-.08,9.99-.03,20-.23,29.99-.06,2.82-.25,6.9-2.96,8.55-2.86,1.73-6.79.19-7.94-2.85-.78-2.07-.84-4.37-.85-6.56,0-2.5.03-4.99.05-7.49.03-5.7.06-11.4.09-17.1,0-1.83-2.83-1.83-2.84,0h0Z"/>
</svg>