<?xml version="1.0" encoding="UTF-8"?>
<svg id="Layer_1" data-name="Layer 1" xmlns="http://www.w3.org/2000/svg" viewBox="0 0 558.41 397.45">
  <defs>
    <style>
      .cls-1 {
        opacity: .2;
      }

      .cls-2 {
        fill: #fff1c5;
      }

      .cls-3 {
        fill: gray;
      }

      .cls-4 {
        fill: #f4d47b;
      }
    </style>
  </defs>
  <g class="cls-1">
    <path class="cls-3" d="M508.27,23.33c-7.98,13.27-24.99,19.25-38.66,27.98-15.4,9.83-32.94,15.81-50.59,20.5-37.4,9.94-75.98,14.48-114.41,19-21.64,2.54-43.28,5.09-64.92,7.63-29.52,3.47-59.18,6.95-88.88,5.93-19.31-.66-38.94-3.33-56.33-11.77-17.39-8.43-33.61-27.5-38.57-46.18.98-7.06,10.19-8.93,17.31-9.08,105.01-2.16,210.06-4.31,315.05-1.6,6.78-1.28,13.08-11.61,13.79-19.01-.4-5.28,3.59-9.89,8.31-12.05,4.43-2.03,9.43-2.33,14.3-2.54,26.09-1.14,52.24-.77,78.28,1.11,2.33-.05,3.35,1.77,4.69,3.68,2.24,3.18,3.38,7.12,3.19,11.01-.69,1.92-1.56,3.71-2.56,5.38Z"/>
    <path class="cls-3" d="M506.97,22.57c-6.74,11.07-19.38,16.76-30.29,22.83-6.38,3.55-12.42,7.63-18.95,10.91-6.98,3.5-14.25,6.38-21.65,8.87-15.44,5.19-31.41,8.9-47.38,12.04-16.56,3.26-33.26,5.76-49.99,7.94-16.8,2.19-33.64,4.1-50.47,6.08-17.26,2.03-34.51,4.06-51.77,6.09-17.06,2-34.15,3.95-51.3,4.98s-33.5,1.27-50.12-.48c-15.01-1.58-30.68-4.96-43.84-12.65-12.05-7.04-22.11-17.93-28.68-30.2-1.63-3.05-3.05-6.22-4.15-9.5-.24-.72-.47-1.44-.68-2.17-.26-.9-.36-.82-.06-1.77.34-1.1,1-2.03,1.84-2.81,4.08-3.8,10.78-3.81,15.99-3.92,17.31-.36,34.62-.71,51.92-1.04,17.39-.33,34.79-.64,52.18-.91s34.62-.48,51.93-.64,34.79-.24,52.18-.24c17.31,0,34.62.09,51.93.29,8.65.1,17.31.23,25.96.39s17.48.59,26.21.57c2.73,0,5.33-1.81,7.27-3.59,2.23-2.04,4.04-4.6,5.45-7.27s2.46-5.43,2.91-8.35c.23-1.5.06-2.98.5-4.45s1.25-2.82,2.26-3.96c5.1-5.73,13.42-5.77,20.5-6.06,8.59-.35,17.18-.54,25.77-.56s17.35.12,26.02.43c4.29.15,8.59.35,12.88.59,2.15.12,4.29.25,6.43.38.99.06,1.98.13,2.97.2.93.06,2.1-.04,2.99.26,1.21.4,1.96,1.85,2.63,2.83.99,1.45,1.78,3,2.29,4.68.47,1.56.95,3.51.71,5.15s-1.5,3.57-2.37,5.04c-.99,1.67,1.61,3.18,2.59,1.51s1.8-3.35,2.48-5.13c.63-1.63.27-3.67-.03-5.35-.64-3.55-2.37-6.81-4.64-9.58-.91-1.12-2.08-1.98-3.53-2.19-2.07-.31-4.24-.31-6.33-.44-4.37-.28-8.74-.52-13.12-.71-17.58-.79-35.2-.89-52.79-.3-4.16.14-8.35.2-12.49.64-3.79.4-7.64,1.19-10.96,3.14-2.75,1.61-5.2,4.02-6.52,6.95s-.89,5.86-1.74,8.81-2.27,5.79-4.07,8.31c-1.61,2.26-3.75,4.52-6.36,5.61-1.64.68-3.48.36-5.21.32-2.25-.06-4.49-.11-6.74-.16-4.41-.1-8.82-.19-13.23-.28-17.72-.34-35.45-.55-53.17-.65s-35.45-.1-53.18-.02-35.45.24-53.18.47-35.45.5-53.18.81-35.45.66-53.18,1.02c-8.71.18-17.44.18-26.14.54-5.24.22-11.68,1.14-15.42,5.21-.9.98-1.59,2.11-2.03,3.37-.21.6-.44,1.33-.43,1.97.01.83.44,1.79.68,2.57,1.02,3.27,2.34,6.46,3.86,9.53,3.2,6.44,7.37,12.4,12.14,17.76s10.26,10.17,16.31,14.05,13.32,6.9,20.42,9.12c15.47,4.83,31.81,6.26,47.94,6.54,17.58.31,35.15-.86,52.64-2.58s35.08-3.92,52.6-5.98c17.5-2.06,35-4.1,52.5-6.17,17.03-2.02,34.06-4.12,51.01-6.77s33.83-5.86,50.46-10.08c15.52-3.94,30.98-8.69,45.28-16.02,6.51-3.33,12.56-7.43,18.96-10.96,5.91-3.26,11.93-6.38,17.46-10.27,5.06-3.55,9.66-7.76,12.9-13.08,1.01-1.65-1.59-3.16-2.59-1.51Z"/>
  </g>
  <g>
    <path class="cls-2" d="M529.77,40.28h4.91c2.32,0,4.21,2.74,4.21,6.12v328.09c0,3.38-1.88,6.12-4.21,6.12H57.23c-2.32,0-4.21-2.74-4.21-6.12V46.41c0-3.38,1.88-6.12,4.21-6.12h336.28"/>
    <path class="cls-4" d="M534.68,381.62H57.23c-2.92,0-5.21-3.13-5.21-7.12V46.41c0-3.99,2.29-7.12,5.21-7.12h336.28v2H57.23c-1.74,0-3.21,2.35-3.21,5.12v328.09c0,2.78,1.47,5.12,3.21,5.12h477.45c1.74,0,3.21-2.35,3.21-5.12V46.41c0-2.78-1.47-5.12-3.21-5.12h-4.91v-2h4.91c2.92,0,5.21,3.13,5.21,7.12v328.09c0,4-2.29,7.12-5.21,7.12Z"/>
  </g>
  <g>
    <path class="cls-2" d="M529.97,40.28c-7.57-.26-12.17-9.72-16.08-23.28-3.91-13.57-19.04-11.48-19.04-11.48,0,0-56.48.79-67.17.52,0,0-13.3-1.96-18,11.35-4.7,13.3-5.67,22.7-16.43,22.89"/>
    <path class="cls-4" d="M393.26,41.28l-.04-2c8.31-.15,10.25-6.15,13.46-16.09.63-1.95,1.29-3.98,2.05-6.13,4.73-13.4,17.92-12.14,19.02-12.01,10.53.25,65.04-.5,67.03-.53,1.17-.13,16.11-1.54,20.07,12.2,4.5,15.6,9.03,22.35,15.15,22.56l-.07,2c-8.97-.31-13.63-12.31-17.01-24-3.62-12.56-17.37-10.85-17.95-10.77h-.12c-.56.02-56.62.8-67.21.53h-.12c-.51-.08-12.56-1.67-16.91,10.68-.75,2.13-1.4,4.14-2.03,6.08-3.25,10.04-5.59,17.3-15.33,17.48Z"/>
  </g>
</svg>