<?xml version="1.0" encoding="UTF-8"?>
<svg id="Layer_1" data-name="Layer 1" xmlns="http://www.w3.org/2000/svg" viewBox="0 0 556.41 517.25">
  <defs>
    <style>
      .cls-1 {
        fill: #f8efdc;
      }

      .cls-2 {
        fill: #e5ce9e;
      }

      .cls-3 {
        opacity: .2;
      }

      .cls-4 {
        fill: gray;
      }
    </style>
  </defs>
  <g class="cls-3">
    <path class="cls-4" d="M476.07,515.1c13.06.67,45.61,4.01,49.96-14,4.13-17.05-30.76-34.03-42.75-40.2-38.07-19.62-80.76-27.47-120.87-41.71-31.33-11.12-61.05-26.26-90.67-41.35-20.3-10.35-40.71-20.75-59.1-34.21-37.68-27.58-65.22-66.74-88.82-107.04-23.6-40.3-44.05-82.57-71.17-120.58-9.59-13.44-17.43-29.37-27.9-41.94s-19.56-13.03-20.84,4.11c-4.98,66.47-.84,134.76-.27,201.38.58,67.24,1.19,134.5-.21,201.74-.21,10.25-4.95,32.15,25.34,32.15,14.65,0,96.52,4.99,153.56,0,45.67-4,265.78.22,293.72,1.65Z"/>
    <path class="cls-4" d="M476.07,516.6c10.01.52,20.05,1.27,30.02-.24,9.43-1.43,20.47-5.85,21.7-16.67.54-4.75-1.67-9.31-4.48-12.99-3.52-4.6-8.05-8.34-12.72-11.7-8.92-6.42-18.76-11.49-28.57-16.42-15.94-8.01-32.76-14.09-49.75-19.44-17.05-5.37-34.31-10.05-51.38-15.38-17.71-5.54-35.02-12.1-51.97-19.67-17.15-7.65-33.93-16.09-50.66-24.6s-32.95-16.59-48.63-26.28c-14.65-9.04-28.22-19.55-40.56-31.56-11.89-11.56-22.65-24.26-32.52-37.58-9.96-13.45-19.05-27.52-27.65-41.87-9.25-15.46-17.94-31.25-26.64-47.02s-17.73-32.08-27.24-47.75c-4.73-7.79-9.61-15.49-14.71-23.04s-10.09-14.44-14.74-21.94-8.98-14.87-14.01-21.96c-3.99-5.62-8.48-12.11-14.75-15.38-2.08-1.08-4.43-1.76-6.77-1.25-2.21.49-3.94,2.13-5.04,4.04-1.63,2.83-2.2,6.2-2.5,9.4-.45,4.72-.68,9.48-.95,14.22C.44,110.77.03,130.04,0,149.3s.32,38.87.75,58.29.94,38.56,1.23,57.84.39,39.05.54,58.57.25,39.45.28,59.18c.02,19.64-.04,39.28-.25,58.93-.16,15.2-.28,30.4-.93,45.58-.33,7.68.53,16.19,6.81,21.48,7.26,6.12,17.04,5.63,25.97,5.9,9.26.28,18.52.67,27.78.99,13.43.46,26.87.81,40.31.99,15.18.2,30.37.19,45.54-.23,12.4-.35,24.73-1.2,37.09-2.08,5.9-.42,11.81-.63,17.72-.8,8.09-.24,16.19-.37,24.29-.47,9.69-.11,19.38-.16,29.07-.18,10.84-.02,21.68,0,32.52.06,11.38.06,22.75.15,34.13.26,11.43.11,22.86.25,34.3.41,11.01.15,22.02.32,33.03.51,9.97.17,19.94.36,29.91.56,8.49.17,16.98.36,25.46.57,6.41.16,12.82.33,19.23.53,3.76.12,7.53.23,11.29.42,1.93.1,1.92-2.9,0-3-3.89-.2-7.79-.32-11.69-.44-6.4-.2-12.81-.37-19.21-.52-8.4-.21-16.8-.39-25.2-.56-9.89-.2-19.77-.39-29.66-.56-10.86-.19-21.73-.35-32.59-.5s-22.66-.29-33.99-.41c-11.29-.11-22.58-.2-33.87-.26-10.78-.06-21.56-.09-32.35-.07-9.67.01-19.34.06-29.02.16-8.1.09-16.2.22-24.3.45-6.02.17-12.04.38-18.05.77-11.5.76-22.96,1.66-34.48,2.04-15.01.49-30.03.55-45.05.39-13.6-.14-27.2-.48-40.79-.92-9.72-.32-19.43-.71-29.15-1.04-8.27-.27-17.51.65-24.75-4.08-6.68-4.37-7.6-12.45-7.34-19.75.17-4.84.4-9.66.49-14.5.18-9.74.32-19.47.43-29.21.21-19.47.29-38.95.28-58.43-.01-19.48-.11-38.95-.25-58.43s-.24-38.78-.5-58.17c-.26-19.11-.75-38.21-1.19-57.31s-.82-38.37-.86-57.56.28-38.39,1.24-57.56c.24-4.71.51-9.41.83-14.11.26-3.88.33-7.88,1.61-11.59.63-1.84,1.75-3.92,3.69-4.55s3.95.23,5.6,1.2c2.68,1.57,4.94,3.82,6.97,6.15,2.73,3.12,5.17,6.5,7.52,9.91,4.92,7.17,9.29,14.69,13.91,22.06s9.88,14.5,14.76,21.81,9.83,15.17,14.49,22.91c9.34,15.5,18.08,31.35,26.83,47.19s17.22,31.22,26.4,46.5c8.5,14.16,17.5,28.04,27.35,41.3s20.39,25.77,32.13,37.26c12.12,11.86,25.44,22.36,39.8,31.38,15.39,9.67,31.65,17.85,47.84,26.1,16.59,8.45,33.2,16.86,50.16,24.54,16.7,7.57,33.73,14.31,51.19,19.93s33.99,10.07,50.93,15.27,33.74,10.95,49.74,18.56c10.22,4.86,20.45,10.11,29.86,16.4,4.81,3.21,9.49,6.76,13.36,11.08,2.94,3.29,5.72,7.44,5.64,12.03-.18,10.34-12.06,13.97-20.4,15.1-9.43,1.27-18.95.51-28.4.02-1.93-.1-1.92,2.9,0,3Z"/>
  </g>
  <g>
    <path class="cls-1" d="M203.63,38.94h339.78c6.6,0,12,5.4,12,12v438.7c0,6.6-5.4,12-12,12H27.71c-6.6,0-12-5.4-12-12V50.94c0-6.6,5.4-12,12-12h6.2"/>
    <path class="cls-2" d="M543.41,502.64H27.71c-7.17,0-13-5.83-13-13V50.94c0-7.17,5.83-13,13-13h6.2v2h-6.2c-6.07,0-11,4.93-11,11v438.7c0,6.07,4.93,11,11,11h515.71c6.07,0,11-4.93,11-11V50.94c0-6.07-4.93-11-11-11H203.63v-2h339.78c7.17,0,13,5.83,13,13v438.7c0,7.17-5.83,13-13,13Z"/>
  </g>
  <g class="cls-3">
    <path class="cls-4" d="M26.62,263.39c3.99-2.11,6.79-8.11,9.58-10.7,7.46-6.96,12-16.41,16.38-25.64,3.79-8,7.59-16.01,11.38-24.01,3.49-7.37,7.02-14.82,8.71-22.8,1.27-6.01,1.47-12.19,1.56-18.34.12-8.29.06-16.58-.3-24.86-.39-9.16-1.18-18.45-4.52-26.98-4.83-12.32-18.98-35.51-20.24-48.68-4.54.03-8.44,2.21-10.32,13.22-.76,4.48-2,8.83-2.15,13.37-.15,4.66-.29,9.31-.44,13.97-.03.95-.06,1.93-.42,2.81-.47,1.19-1.46,2.09-2.33,3.04-6.75,7.37-6.67,18.51-6.27,28.49.83,20.95,1.32,41.91,1.48,62.87,1.28,6.65-5.74,7.67-7.4,12.62-1.28,3.83-1.59,7.89-1.69,11.93-.34,12.9-.51,25.8-.48,38.7,2.94,2.14,5.37,2.11,7.48,1Z"/>
    <path class="cls-4" d="M27.38,264.69c2.67-1.48,4.54-4,6.3-6.42.83-1.14,1.62-2.32,2.53-3.4,1-1.19,2.2-2.2,3.26-3.34,5.04-5.44,8.69-11.98,11.94-18.6,3.66-7.44,7.13-14.97,10.68-22.46s7.37-14.9,10.04-22.74,3.43-16.23,3.58-24.62.1-17.39-.28-26.07c-.35-8.04-.98-16.2-3.37-23.93-1.67-5.39-4.26-10.48-6.75-15.52-2.78-5.62-5.62-11.21-8.21-16.91-2.36-5.19-4.64-10.54-5.89-16.13-.24-1.05-.43-2.11-.54-3.18-.08-.8-.62-1.51-1.5-1.5-4.22.05-7.45,2.24-9.3,6.02-1.54,3.13-2.11,6.52-2.76,9.91-.79,4.12-1.77,8.19-1.91,12.4s-.28,8.81-.42,13.22c-.03.9.01,1.86-.31,2.72s-1,1.5-1.61,2.15c-1.15,1.23-2.2,2.56-3.07,4.01-3.49,5.85-4.17,12.93-4.19,19.6-.02,8.35.55,16.72.8,25.07.27,8.9.47,17.8.62,26.7.07,4.49.13,8.98.18,13.48,0,1,.02,2,.03,2.99,0,.87.17,1.71.16,2.57,0,1.07-.38,2.05-1.01,2.91-1.34,1.81-3.36,3.01-4.79,4.75-2.16,2.64-2.68,6.21-3.07,9.5-.5,4.22-.45,8.51-.55,12.76-.1,4.47-.17,8.93-.22,13.4s-.08,8.93-.09,13.4c0,.99,0,1.98,0,2.98s-.26,2.28.44,3.05c1.14,1.23,3.33,1.96,4.94,2.14s2.99-.22,4.35-.9c1.73-.86.21-3.45-1.51-2.59-2.13,1.07-4.12.29-5.96-1l.74,1.3c-.01-8.27.05-16.54.19-24.81.07-4.13.16-8.27.26-12.4s.22-7.87,1.27-11.68c.64-2.3,1.85-3.68,3.6-5.23,1.63-1.45,3.24-2.94,3.99-5.04.39-1.09.49-2.28.37-3.42-.21-2.03-.13-4.1-.15-6.15-.04-4.16-.1-8.32-.17-12.48-.27-16.13-1-32.23-1.38-48.35-.14-6.14-.02-12.63,2.41-18.38.57-1.35,1.29-2.65,2.14-3.86.95-1.36,2.21-2.44,3.19-3.77s1.3-2.83,1.38-4.47c.1-2.13.14-4.26.2-6.39.14-4.38.07-8.81.83-13.14.38-2.15.86-4.28,1.27-6.42.37-1.96.69-3.92,1.25-5.84.66-2.28,1.62-4.81,3.54-6.34,1.28-1.02,2.78-1.31,4.34-1.33l-1.5-1.5c.53,5.19,2.34,10.17,4.3,14.96,2.37,5.77,5.1,11.38,7.87,16.97,2.47,4.97,5.02,9.92,7.24,15.01,2.92,6.72,4.28,13.88,4.9,21.16.71,8.37.82,16.81.82,25.21s.17,17.09-1.62,25.38-5.18,15.2-8.61,22.44c-3.62,7.63-7.24,15.27-10.86,22.9-3.14,6.62-6.26,13.31-10.53,19.29-1.06,1.48-2.19,2.9-3.4,4.25-1.08,1.2-2.32,2.26-3.39,3.47-1.94,2.19-3.41,4.75-5.33,6.96-.93,1.07-1.94,2.03-3.18,2.72-1.69.94-.18,3.53,1.51,2.59Z"/>
  </g>
  <g>
    <path class="cls-1" d="M203.68,38.94c-9.4-.28-15.12-10.57-19.98-25.32-4.86-14.75-23.66-12.49-23.66-12.49,0,0-70.17.85-83.46.57,0,0-16.53-2.13-22.37,12.34-5.83,14.47-7.05,24.69-20.42,24.9"/>
    <path class="cls-2" d="M33.8,39.94l-.03-2c10.53-.17,12.95-6.73,16.97-17.6.79-2.13,1.6-4.33,2.54-6.67C59.15-.89,75.5.58,76.64.7c13.09.28,81.19-.55,83.34-.57,1.21-.12,19.75-1.75,24.67,13.17,5.61,17.04,11.31,24.4,19.06,24.64l-.06,2c-10.97-.33-16.72-13.33-20.9-26.01-4.55-13.79-21.86-11.9-22.59-11.81h-.11c-.7.02-70.34.86-83.5.58h-.1c-.64-.09-15.84-1.85-21.31,11.72-.94,2.32-1.74,4.51-2.52,6.62-4.01,10.87-6.91,18.72-18.81,18.91Z"/>
  </g>
</svg>