<?xml version="1.0" encoding="UTF-8"?>
<svg id="Layer_1" data-name="Layer 1" xmlns="http://www.w3.org/2000/svg" viewBox="0 0 3953.97 2596.83" preserveAspectRatio="none">
  <defs>
    <style>
      .cls-1 {
        fill: #fef3ed;
      }

      .cls-2 {
        opacity: .2;
      }

      .cls-3 {
        opacity: .22;
      }

      .cls-4 {
        fill: #f4bdd3;
      }

      .cls-5 {
        fill: gray;
      }

      .cls-6 {
        fill: #fbeda6;
      }
    </style>
  </defs>
  <g class="cls-3">
    <path class="cls-5" d="M2880.76,2432.32c-129.87,7.61-258.98,15.14-383.92,22.18-233.66,17.02-571.64,41.82-805.3,58.84-184.91,11.23-463.34,27.72-648.25,38.95-179.12,7.01-382.51,20.45-560.98,32.59-49.1,3.81-98.2,7.63-147.3,11.44-2.29.18-5.11.18-6.3-1.19-.5-.58-.57-1.27-.62-1.94-2.42-28.65-8.69-59.03-15.02-85.47-12.5-84.14-21.77-188.96-24.3-273.45-6.03,3.69-17.61-37.26-23.64-33.57,6.11-182.15-47.71-372.85-80.84-565.8-22.37-159.8-44.73-319.6-67.1-479.41-7.43-53.08-14.86-106.15-22.29-159.23-4.43-31.67-8.87-63.34-13.3-95.02C59.37,737.39,27.63,548.34,5.41,384.49c.76-39.1,0-82.22-4.77-121.23-.28-2.32-.87-5.68,1.64-7.23,1.63-1.01,4.43-.56,6.61-.74,23.91-1.93,48.1-2.33,72.16-1.17,250.99,61.26,520.53,150.12,758.5,232.85,515.8,179.31,1033.32,359.32,1511.33,583.45,478.02,224.13,918.3,495.14,1236.84,827.8,73.92,77.2,141.05,157.46,200.9,240.18,29.3,40.5,98.56,133.4,83.27,177.1,9.17,20.21,15.44,41.03,18.67,62.05-150.31,5.21-300.43,12.64-450.21,22.28-181.23,10.21-371.22,21.44-559.6,32.49h.01Z"/>
    <path class="cls-5" d="M2880.76,2431.94c-13.92.82-27.83,1.63-41.75,2.45-13.89.81-27.78,1.63-41.67,2.44-13.81.81-27.63,1.61-41.44,2.42-13.77.8-27.54,1.6-41.32,2.4-13.72.8-27.44,1.59-41.16,2.38-13.72.79-27.41,1.58-41.11,2.37-13.7.79-27.27,1.57-40.91,2.35-13.52.77-27.04,1.54-40.56,2.31-13.52.77-26.87,1.53-40.3,2.28-6.12.35-12.25.67-18.36,1.11-4.84.35-9.68.7-14.52,1.06-10.01.73-20.02,1.46-30.04,2.19-10.02.73-20.64,1.51-30.95,2.26-10.56.77-21.12,1.54-31.69,2.31-10.81.79-21.62,1.58-32.42,2.37-11.03.81-22.05,1.61-33.08,2.42s-22.49,1.64-33.74,2.47c-11.25.83-22.81,1.67-34.22,2.5-11.5.84-23.01,1.68-34.51,2.52-11.6.85-23.21,1.7-34.81,2.55s-23.35,1.71-35.03,2.56c-11.68.85-23.51,1.72-35.27,2.58-11.77.86-23.54,1.72-35.31,2.58-11.77.86-23.44,1.72-35.16,2.57s-23.36,1.71-35.03,2.56c-11.61.85-23.21,1.7-34.82,2.55-11.54.84-23.08,1.69-34.62,2.53-11.41.83-22.82,1.67-34.22,2.5s-22.43,1.64-33.64,2.46c-11.21.82-22.05,1.61-33.08,2.42-10.81.79-21.62,1.58-32.43,2.37s-21.25,1.55-31.88,2.33c-10.29.75-20.57,1.5-30.86,2.25-9.98.73-19.97,1.46-29.95,2.18-9.57.7-19.14,1.4-28.72,1.98-9.59.58-19.19,1.16-28.78,1.74-9.59.58-20.12,1.22-30.18,1.82s-20.71,1.25-31.07,1.87c-10.67.64-21.33,1.28-32,1.92s-21.86,1.31-32.79,1.97c-10.93.66-22.3,1.34-33.44,2.01-11.39.68-22.77,1.36-34.16,2.05s-22.89,1.37-34.33,2.06-23.04,1.38-34.57,2.07c-11.55.69-23.11,1.38-34.66,2.07-11.55.69-23.08,1.38-34.61,2.07-11.55.69-23.09,1.38-34.64,2.07-11.55.69-22.74,1.36-34.1,2.04-11.36.68-22.43,1.34-33.64,2.02s-22.03,1.32-33.04,1.98c-11.01.66-21.59,1.3-32.39,1.95-10.8.65-21,1.26-31.5,1.9-10.5.64-20.26,1.22-30.39,1.83s-19.48,1.18-29.23,1.77c-4.74.29-9.48.57-14.22.86-5.53.34-11.07.54-16.61.77-12.43.5-24.87,1.03-37.3,1.58-12.43.55-25.24,1.14-37.86,1.74-12.74.61-25.47,1.24-38.21,1.88-12.86.65-25.72,1.32-38.57,2.01-12.85.69-25.9,1.4-38.85,2.13-13.05.73-26.1,1.48-39.14,2.24-13.08.76-26.15,1.54-39.23,2.32-13.04.78-26.07,1.58-39.1,2.39-13,.81-26,1.62-39,2.45-13,.83-25.87,1.65-38.81,2.49-12.94.84-25.75,1.68-38.63,2.52-12.88.84-25.5,1.69-38.24,2.54-12.55.84-25.1,1.68-37.65,2.53-12.36.83-24.72,1.67-37.08,2.51-13.35.91-26.68,1.96-40.02,2.99-13.92,1.08-27.83,2.16-41.75,3.24-13.92,1.08-27.83,2.16-41.75,3.24-6.9.54-13.79,1.07-20.69,1.61-3.49.27-6.98.54-10.47.81-1.68.13-3.36.29-5.04.39-1.3.08-2.67.11-3.94-.24-.52-.15-1.07-.37-1.44-.77-.57-.61-.58-1.45-.65-2.24-.14-1.62-.29-3.24-.45-4.86-.32-3.23-.69-6.45-1.09-9.67-.81-6.5-1.78-12.98-2.86-19.44-2.15-12.85-4.75-25.61-7.61-38.32-.69-3.06-1.4-6.12-2.12-9.18-.35-1.47-.76-2.94-.98-4.44-.21-1.4-.41-2.8-.62-4.21-.83-5.68-1.63-11.36-2.4-17.04-1.62-11.85-3.13-23.71-4.55-35.58-1.46-12.19-2.82-24.38-4.1-36.59-1.3-12.41-2.51-24.82-3.64-37.25-1.13-12.43-2.17-24.89-3.12-37.34-.94-12.32-1.8-24.65-2.57-36.98-.74-11.97-1.4-23.95-1.95-35.94-.49-10.54-.9-21.09-1.21-31.64,0-.28-.31-.47-.56-.32-.55.33-1.12.17-1.71-.22-.87-.58-1.55-1.47-2.15-2.31-1.95-2.72-3.44-5.79-4.9-8.78-1.73-3.54-3.37-7.13-5.1-10.67-1.47-3-2.95-6.06-4.9-8.78-.97-1.35-2.91-3.98-4.88-2.8l.56.32c.45-13.38.57-26.76.41-40.14-.16-13.38-.61-26.79-1.32-40.17-.71-13.49-1.67-26.96-2.85-40.41-1.18-13.45-2.61-27.19-4.2-40.76-1.59-13.57-3.4-27.25-5.35-40.84-1.96-13.71-4.08-27.39-6.32-41.05-2.26-13.77-4.64-27.51-7.11-41.24-2.47-13.73-5.09-27.78-7.75-41.64-2.66-13.86-5.37-27.72-8.12-41.56-2.76-13.91-5.55-27.8-8.34-41.7-2.79-13.9-5.64-28.04-8.43-42.07-2.78-13.97-5.53-27.95-8.23-41.94-2.7-14-5.34-28.01-7.89-42.04-1.28-7.05-2.55-14.11-3.78-21.17-.62-3.54-1.3-7.08-1.79-10.63s-1-7.18-1.51-10.77c-2.03-14.48-4.05-28.96-6.08-43.44-2.02-14.44-4.04-28.87-6.06-43.31-2.02-14.44-4.04-28.87-6.06-43.31-2.03-14.52-4.06-29.04-6.1-43.56-2.04-14.52-4.04-28.87-6.06-43.31-2.02-14.44-4.04-28.87-6.06-43.31-2.03-14.48-4.05-28.96-6.08-43.44-2.03-14.48-4.05-28.96-6.08-43.44-2.03-14.48-4.04-28.87-6.06-43.31-2.02-14.44-4.04-28.87-6.06-43.31-2.02-14.44-4.06-29.03-6.1-43.55-2.04-14.52-4.04-28.85-6.06-43.27s-4.04-28.85-6.06-43.27c-2.03-14.51-4.06-29.01-6.09-43.52-2.02-14.43-4.04-28.86-6.06-43.29-2.02-14.43-4.04-28.87-6.06-43.3-2.02-14.43-3.84-27.53-5.74-41.3-1.75-12.74-3.54-25.47-5.35-38.2-1.84-12.93-3.71-25.86-5.6-38.78-1.92-13.12-3.86-26.23-5.81-39.34-1.99-13.33-3.99-26.67-6.01-40-2.02-13.36-4.05-26.71-6.08-40.06-2.03-13.35-4.09-26.81-6.14-40.22-2.06-13.45-4.12-26.91-6.17-40.36-2.05-13.42-4.09-26.84-6.13-40.25-2.04-13.41-4.03-26.6-6.02-39.9-1.99-13.3-3.94-26.35-5.88-39.53-1.93-13.08-3.84-26.16-5.72-39.24-1.88-13.08-3.66-25.58-5.45-38.37-.88-6.34-1.76-12.67-2.63-19.01-.43-3.1-.95-6.21-1.27-9.32-.08-.81,0-1.66.01-2.48s.03-1.66.04-2.49c.03-1.67.05-3.34.07-5.01.17-13.69.13-27.39-.19-41.08-.32-13.69-.93-27.52-1.93-41.25-.49-6.74-1.08-13.48-1.79-20.2-.33-3.17-.69-6.34-1.09-9.5-.27-2.17-.62-5.17,1.66-6.42,1.23-.67,2.81-.57,4.16-.56,1.62,0,3.21-.14,4.82-.26,3.61-.27,7.22-.51,10.83-.72,7.2-.41,14.41-.67,21.62-.8,7.21-.13,14.44-.12,21.66.03,3.63.08,7.26.19,10.89.33,1.82.07,3.68.02,5.46.45,1.62.4,3.24.79,4.87,1.19,12.97,3.18,25.93,6.43,38.87,9.72,12.94,3.29,26.09,6.7,39.12,10.13,13.2,3.47,26.38,6.99,39.55,10.57,13.18,3.57,26.34,7.19,39.49,10.86,13.15,3.67,26.42,7.41,39.61,11.18,13.28,3.8,26.55,7.63,39.81,11.51,13.3,3.89,26.58,7.81,39.85,11.78,13.27,3.97,26.5,7.96,39.74,11.99,13.24,4.03,26.48,8.1,39.7,12.2,13.29,4.12,26.57,8.27,39.85,12.46s26.34,8.33,39.5,12.54c13.16,4.21,26.23,8.42,39.34,12.67,13.11,4.25,26.25,8.54,39.36,12.85,13.11,4.31,25.93,8.55,38.89,12.85,12.96,4.3,25.74,8.58,38.61,12.9,12.8,4.3,25.6,8.62,38.39,12.96,12.79,4.34,25.35,8.62,38.02,12.95s25.01,8.57,37.5,12.88c12.49,4.31,24.71,8.53,37.06,12.82,13.11,4.55,26.22,9.11,39.33,13.67,13.11,4.56,26.68,9.28,40.02,13.92,13.34,4.64,26.68,9.28,40.02,13.93,13.34,4.65,26.75,9.32,40.13,13.98,13.38,4.66,26.75,9.33,40.12,14,13.33,4.66,26.66,9.32,39.99,13.99s26.65,9.34,39.97,14.01c13.32,4.67,26.79,9.41,40.18,14.13,13.31,4.69,26.62,9.38,39.92,14.09,13.3,4.71,26.6,9.41,39.89,14.13,13.36,4.74,26.73,9.49,40.08,14.26,13.28,4.73,26.55,9.47,39.82,14.23,13.26,4.75,26.52,9.51,39.77,14.28,13.25,4.77,26.56,9.58,39.84,14.38,13.28,4.8,26.53,9.62,39.79,14.45,13.26,4.83,26.42,9.64,39.62,14.48,13.19,4.84,26.38,9.69,39.56,14.55,13.25,4.89,26.49,9.79,39.72,14.71,13.15,4.89,26.29,9.79,39.42,14.71,13.12,4.92,26.24,9.85,39.35,14.8,13.11,4.95,26.26,9.94,39.39,14.93,13.11,4.99,26.21,10,39.3,15.03s26.08,10.04,39.1,15.09c13.01,5.04,26.02,10.11,39.01,15.19s26.1,10.24,39.14,15.39c12.95,5.12,25.89,10.26,38.82,15.42,12.92,5.16,25.82,10.33,38.72,15.54,12.95,5.23,25.9,10.48,38.83,15.75,12.84,5.24,25.68,10.5,38.5,15.79,12.8,5.28,25.6,10.59,38.38,15.92,12.84,5.36,25.68,10.74,38.5,16.16,12.76,5.39,25.51,10.8,38.24,16.25,12.68,5.42,25.35,10.87,38.01,16.35,12.64,5.47,25.26,10.97,37.87,16.5,12.66,5.55,25.31,11.13,37.95,16.75,12.64,5.62,25.08,11.18,37.59,16.81,12.51,5.63,24.98,11.29,37.45,16.98,12.48,5.7,24.95,11.43,37.4,17.19,12.45,5.76,24.75,11.5,37.11,17.3,11.96,5.62,23.89,11.26,35.82,16.95,11.93,5.69,23.79,11.38,35.67,17.12,11.88,5.74,23.82,11.57,35.71,17.4,11.89,5.83,23.58,11.62,35.34,17.48,11.74,5.85,23.46,11.74,35.17,17.67,11.71,5.93,23.47,11.93,35.18,17.95,11.62,5.97,23.21,11.99,34.79,18.04,11.55,6.04,23.08,12.11,34.59,18.22,11.52,6.12,23.01,12.27,34.49,18.46,11.44,6.18,22.87,12.4,34.27,18.65,11.34,6.22,22.66,12.49,33.95,18.79,11.29,6.3,22.5,12.61,33.72,18.98,11.25,6.39,22.47,12.81,33.67,19.29,11.2,6.48,22.18,12.87,33.23,19.37,11.02,6.48,22.01,13,32.98,19.57,10.97,6.57,21.9,13.17,32.81,19.82s21.72,13.3,32.54,20.02c10.82,6.72,21.48,13.4,32.17,20.17,10.69,6.77,21.29,13.53,31.88,20.37,10.62,6.85,21.21,13.74,31.77,20.69s20.89,13.8,31.29,20.78c10.36,6.95,20.68,13.94,30.98,20.98,10.28,7.03,20.53,14.12,30.75,21.25,10.22,7.13,20.32,14.26,30.42,21.46s20.04,14.36,30,21.61c9.95,7.24,19.87,14.54,29.74,21.88,9.84,7.31,19.63,14.68,29.39,22.1s19.4,14.83,29.04,22.32c9.64,7.49,19.1,14.92,28.59,22.46,9.49,7.54,18.96,15.15,28.37,22.81,9.32,7.58,18.6,15.21,27.83,22.9,9.23,7.69,18.34,15.36,27.44,23.12,9.1,7.76,18.13,15.55,27.12,23.41,8.99,7.86,17.86,15.7,26.71,23.63,8.79,7.88,17.53,15.8,26.22,23.79,8.69,7.99,17.25,15.95,25.8,24.02,8.55,8.07,17.07,16.2,25.52,24.38s16.68,16.26,24.94,24.47c8.22,8.18,16.39,16.41,24.49,24.7,8.54,8.73,17.02,17.53,25.43,26.39,9.65,10.17,19.21,20.42,28.68,30.75,9.39,10.24,18.68,20.57,27.89,30.97,9.15,10.34,18.21,20.77,27.17,31.27,8.96,10.5,17.83,21.08,26.6,31.74,8.67,10.54,17.24,21.15,25.71,31.85,8.45,10.67,16.8,21.41,25.05,32.23,8.22,10.78,16.34,21.64,24.36,32.57,5.39,7.36,10.74,14.75,16.09,22.14,4.85,6.7,9.66,13.42,14.4,20.2,5.37,7.67,10.64,15.4,15.77,23.23,5.38,8.21,10.61,16.52,15.6,24.98,4.99,8.46,9.59,16.78,13.89,25.43,4.01,8.07,7.7,16.31,10.75,24.79,2.68,7.45,4.92,15.11,6.09,22.95.97,6.49,1.23,13.23-.14,19.68-.16.73-.33,1.46-.53,2.18s-.5,1.4-.66,2.11c-.12.55.38,1.2.6,1.7.39.88.78,1.76,1.16,2.64.72,1.66,1.42,3.32,2.1,4.99,2.6,6.37,4.93,12.85,6.98,19.42,3.42,10.98,6.04,22.21,7.8,33.58l.36-.47c-16.63.58-33.25,1.18-49.87,1.81-16.62.63-33.24,1.29-49.86,1.97s-33.23,1.4-49.84,2.14c-16.61.74-33.22,1.51-49.82,2.3-16.52.79-33.04,1.61-49.56,2.45-16.6.85-33.19,1.72-49.79,2.62-16.59.9-33.18,1.83-49.77,2.79-16.58.96-33.16,1.94-49.74,2.95-16.58,1.01-32.98,2.04-49.47,3.09-15.95,1.02-31.93,1.82-47.89,2.73-16.05.91-32.1,1.83-48.15,2.74-16.16.92-32.31,1.85-48.47,2.78-16.17.93-32.34,1.86-48.5,2.8-16.16.94-32.66,1.89-48.99,2.84-16.39.95-32.79,1.91-49.18,2.87-16.45.96-32.89,1.92-49.34,2.88-16.4.96-32.8,1.92-49.2,2.88-16.4.96-33.01,1.94-49.52,2.91-16.52.97-33.03,1.94-49.55,2.91s-33.03,1.94-49.54,2.91c-7.92.46-15.84.93-23.76,1.39-.48.03-.48.78,0,.75,16.51-.97,33.01-1.94,49.52-2.9,16.52-.97,33.03-1.94,49.55-2.91,16.51-.97,33.03-1.94,49.54-2.91,16.5-.97,32.99-1.94,49.49-2.9,16.38-.96,32.77-1.92,49.15-2.88,16.42-.96,32.84-1.92,49.26-2.87,16.36-.95,32.72-1.9,49.08-2.85,16.36-.95,32.58-1.89,48.87-2.83s32.24-1.86,48.36-2.78c16.1-.92,32.2-1.85,48.31-2.76,15.99-.91,31.98-1.82,47.96-2.72,16.29-.92,32.56-1.94,48.84-2.95,16.28-1.01,32.99-2.03,49.48-3.01,16.58-.98,33.17-1.94,49.75-2.86,16.59-.93,33.18-1.83,49.78-2.7,16.6-.87,33.2-1.72,49.8-2.54,16.52-.82,33.04-1.6,49.57-2.36,16.61-.77,33.22-1.5,49.83-2.21,16.61-.71,33.23-1.39,49.85-2.05,16.62-.66,33.24-1.29,49.87-1.89,7.98-.29,15.96-.57,23.94-.85.26,0,.4-.23.36-.47-2.09-13.55-5.42-26.89-9.85-39.86-2.24-6.54-4.76-12.98-7.53-19.31-.34-.77-.68-1.54-1.03-2.31-.13-.29-.21-.38-.16-.65.04-.21.14-.42.2-.62.22-.69.42-1.39.6-2.09.37-1.48.65-2.98.86-4.49.91-6.76.3-13.66-.96-20.33-1.5-7.93-3.97-15.66-6.86-23.18-3.28-8.54-7.15-16.86-11.32-25-4.43-8.65-9.22-17.11-14.22-25.43-5.04-8.39-10.31-16.65-15.71-24.8-5.11-7.7-10.35-15.32-15.67-22.88-4.65-6.6-9.36-13.15-14.09-19.68-5.9-8.15-11.8-16.3-17.78-24.4-8.01-10.86-16.12-21.64-24.33-32.35-8.21-10.71-16.66-21.52-25.13-32.16-8.51-10.68-17.11-21.28-25.81-31.81-8.78-10.62-17.65-21.16-26.62-31.61-9.02-10.52-18.14-20.96-27.35-31.32-9.21-10.36-18.57-20.7-27.99-30.93-9.42-10.23-19.15-20.61-28.86-30.8-8.17-8.57-16.4-17.07-24.7-25.52-8.17-8.33-16.41-16.6-24.7-24.81-8.28-8.2-16.61-16.35-25-24.44-8.39-8.09-17-16.29-25.58-24.35-8.57-8.05-17.19-16.04-25.87-23.98-8.74-8-17.52-15.94-26.36-23.83-8.84-7.89-17.8-15.79-26.77-23.6-8.97-7.81-18.02-15.59-27.1-23.31s-18.39-15.53-27.65-23.22c-9.26-7.69-18.55-15.3-27.89-22.87-9.43-7.65-18.91-15.24-28.43-22.78-9.51-7.53-19.05-15.01-28.64-22.43s-19.35-14.9-29.08-22.28c-9.75-7.39-19.53-14.72-29.36-22-9.89-7.33-19.82-14.62-29.79-21.85-10.01-7.26-20.05-14.48-30.13-21.64-10.09-7.17-20.22-14.29-30.38-21.37-10.16-7.08-20.55-14.24-30.88-21.28-10.33-7.04-20.65-14.02-31.02-20.95-10.37-6.93-20.98-13.96-31.51-20.86s-21.06-13.74-31.63-20.54c-10.64-6.84-21.32-13.64-32.02-20.4-10.7-6.76-21.51-13.51-32.3-20.19-10.79-6.68-21.63-13.33-32.49-19.94-10.95-6.66-21.94-13.28-32.94-19.85-11-6.57-21.99-13.07-33.02-19.54-11.13-6.53-22.28-13.01-33.46-19.45-11.15-6.42-22.32-12.81-33.52-19.15-11.2-6.34-22.61-12.75-33.95-19.06-11.31-6.29-22.63-12.55-33.98-18.76-11.41-6.25-22.85-12.46-34.3-18.62-11.48-6.18-22.99-12.33-34.52-18.43-11.52-6.1-23.06-12.17-34.62-18.19-11.56-6.02-23.33-12.11-35.02-18.11-11.69-6-23.32-11.92-35.01-17.82-11.78-5.95-23.58-11.86-35.4-17.74-11.82-5.88-23.56-11.67-35.37-17.46-11.81-5.79-23.81-11.62-35.74-17.37-11.88-5.73-23.78-11.43-35.69-17.1-11.91-5.67-23.98-11.36-35.99-16.99-12.01-5.63-24.83-11.59-37.27-17.34-12.44-5.75-24.86-11.44-37.32-17.12-12.55-5.71-25.11-11.4-37.68-17.05-12.52-5.63-25.06-11.22-37.62-16.79-12.64-5.6-25.3-11.18-37.97-16.72-12.62-5.52-25.25-11.01-37.89-16.47-12.7-5.49-25.41-10.94-38.14-16.37-12.7-5.42-25.41-10.81-38.14-16.17-12.75-5.37-25.51-10.72-38.28-16.04-12.77-5.32-25.74-10.69-38.62-15.99-12.83-5.28-25.67-10.54-38.52-15.77-12.94-5.27-25.89-10.51-38.85-15.73-12.9-5.2-25.81-10.37-38.73-15.52-12.92-5.15-26.03-10.35-39.06-15.49-12.97-5.12-25.95-10.21-38.94-15.29-12.99-5.08-26.09-10.17-39.14-15.22-13.07-5.06-26.15-10.1-39.23-15.11-13.08-5.01-26.13-10-39.2-14.97-13.07-4.97-26.33-9.99-39.51-14.96-13.11-4.95-26.24-9.87-39.36-14.78-13.12-4.91-26.44-9.87-39.66-14.78-13.16-4.89-26.33-9.76-39.5-14.61-13.17-4.85-26.52-9.76-39.8-14.62-13.2-4.83-26.41-9.66-39.63-14.46-13.26-4.82-26.53-9.64-39.8-14.44-13.27-4.8-26.56-9.59-39.85-14.37-13.29-4.78-26.52-9.53-39.78-14.27-13.26-4.74-26.7-9.54-40.05-14.3-13.35-4.76-26.57-9.45-39.86-14.17-13.37-4.74-26.75-9.48-40.13-14.2-13.38-4.72-26.62-9.39-39.93-14.08-13.31-4.69-26.71-9.39-40.07-14.08-13.36-4.69-26.72-9.37-40.09-14.05-13.37-4.68-26.66-9.33-39.99-13.98-13.41-4.68-26.82-9.36-40.23-14.04-13.41-4.68-26.67-9.3-40.01-13.94-13.41-4.67-26.83-9.34-40.24-14-13.34-4.64-26.68-9.28-40.02-13.92-13.34-4.64-25.83-8.98-38.75-13.46-12.92-4.48-24.76-8.57-37.14-12.83-12.38-4.26-25.12-8.63-37.69-12.93-12.69-4.34-25.39-8.65-38.09-12.96s-25.56-8.63-38.34-12.92c-12.95-4.34-25.91-8.67-38.88-12.97-12.97-4.3-25.95-8.58-38.94-12.84-12.99-4.26-26.26-8.58-39.4-12.83-13.14-4.25-26.24-8.46-39.37-12.65-13.13-4.19-26.49-8.42-39.75-12.59-13.26-4.17-26.42-8.27-39.64-12.35-13.22-4.08-26.54-8.16-39.82-12.2-13.28-4.04-26.56-8.02-39.86-11.98-13.3-3.96-26.48-7.84-39.73-11.7-13.25-3.86-26.59-7.7-39.91-11.49-13.32-3.79-26.38-7.46-39.59-11.12-13.22-3.66-26.44-7.28-39.68-10.85-13.24-3.57-26.18-7.01-39.29-10.43-13.05-3.41-26.11-6.77-39.18-10.08-6.48-1.64-12.96-3.26-19.44-4.87-3.25-.81-6.5-1.61-9.75-2.41-1.62-.4-3.25-.8-4.87-1.19-.81-.2-1.62-.4-2.43-.59s-1.64-.22-2.49-.26c-14.47-.65-28.96-.74-43.43-.27-7.2.23-14.4.6-21.59,1.11-1.8.13-3.61.28-5.41.41-1.43.1-2.86-.02-4.28.1-1.19.1-2.36.39-3.24,1.25-.78.76-1.16,1.79-1.3,2.85-.15,1.14-.03,2.29.11,3.43.19,1.51.37,3.03.54,4.54.38,3.34.74,6.68,1.06,10.03.65,6.72,1.19,13.46,1.64,20.19.92,13.83,1.44,27.68,1.7,41.54.25,13.55.23,27.11.01,40.67-.01.83-.03,1.66-.04,2.49s-.1,1.67-.05,2.48c.1,1.53.42,3.07.62,4.59.43,3.15.86,6.3,1.3,9.45.87,6.35,1.76,12.71,2.65,19.06,1.8,12.82,3.63,25.64,5.48,38.45s3.8,26.13,5.73,39.19c1.93,13.06,3.93,26.46,5.91,39.69,2,13.31,4.01,26.62,6.03,39.93,2.02,13.31,4.1,26.93,6.15,40.39,2.05,13.42,4.1,26.83,6.15,40.25,2.06,13.48,4.12,26.96,6.17,40.44,2.05,13.48,4.06,26.69,6.07,40.03,2.01,13.34,4.01,26.63,5.99,39.95s3.88,26.18,5.79,39.28c1.91,13.1,3.75,25.87,5.59,38.82,1.8,12.7,3.58,25.4,5.32,38.1,1.91,13.96,3.87,27.92,5.83,41.87,1.96,13.95,4.06,29.03,6.1,43.55,2.04,14.52,4.04,28.86,6.06,43.28,2.03,14.51,4.06,29.01,6.09,43.52,2.02,14.42,4.04,28.85,6.06,43.27,2.02,14.42,4.06,29.01,6.09,43.52,2.02,14.44,4.04,28.87,6.06,43.31,2.03,14.48,4.05,28.96,6.08,43.44,2.03,14.48,4.05,28.96,6.08,43.44s4.04,28.87,6.06,43.31c2.03,14.52,4.06,29.04,6.1,43.56,2.02,14.44,4.04,28.87,6.06,43.31s4.06,29.04,6.1,43.56c2.02,14.44,4.04,28.87,6.06,43.31,2.03,14.48,4.05,28.96,6.08,43.44,2.03,14.48,4.05,28.96,6.08,43.44,2.02,14.44,4.04,28.87,6.06,43.31,1.99,14.24,4.73,28.38,7.32,42.52s5.24,28.03,7.95,42.03c2.73,14.06,5.5,28.12,8.31,42.17,2.78,13.94,5.59,27.88,8.38,41.81,2.79,13.93,5.61,27.94,8.37,41.92s5.44,27.68,8.07,41.54c2.63,13.82,5.19,27.65,7.65,41.5,2.45,13.76,4.8,27.53,7.03,41.33,2.2,13.65,4.28,27.33,6.19,41.03,1.92,13.71,3.67,27.44,5.23,41.19,1.53,13.51,2.88,27.05,4,40.61,1.12,13.56,2.01,27.06,2.63,40.61.62,13.55.98,26.75,1.05,40.13.06,11.25-.09,22.5-.47,33.74,0,.29.33.47.56.32.55-.33,1.12-.17,1.71.22.87.58,1.55,1.47,2.15,2.31,1.95,2.72,3.44,5.79,4.9,8.78,1.73,3.54,3.37,7.13,5.1,10.67,1.47,3,2.95,6.06,4.9,8.78.97,1.35,2.91,3.98,4.88,2.8l-.56-.32c.35,11.53.8,23.06,1.35,34.59.57,11.98,1.24,23.96,2,35.94.76,11.98,1.65,24.62,2.61,36.93.97,12.53,2.04,25.06,3.19,37.58s2.36,24.82,3.68,37.21c1.32,12.39,2.68,24.42,4.15,36.62s2.94,23.5,4.55,35.23c.78,5.66,1.58,11.32,2.42,16.97.21,1.42.44,2.81.78,4.2.36,1.51.71,3.02,1.07,4.53.72,3.08,1.42,6.16,2.11,9.25,2.84,12.79,5.41,25.64,7.49,38.58,1.06,6.55,1.99,13.11,2.76,19.7.38,3.25.72,6.5,1.01,9.76.11,1.23-.02,2.85.77,3.89.66.88,1.8,1.24,2.85,1.41,1.27.19,2.56.15,3.84.05,1.75-.13,3.49-.27,5.23-.41,3.45-.27,6.9-.54,10.34-.8,6.94-.54,13.87-1.08,20.81-1.62,13.92-1.08,27.83-2.16,41.75-3.24,13.92-1.08,27.83-2.16,41.75-3.24,13.31-1.03,26.61-2.07,39.93-2.98,12.4-.84,24.8-1.68,37.2-2.52,12.59-.85,25.18-1.69,37.77-2.53,12.71-.85,25.43-1.69,38.14-2.53,12.92-.85,25.83-1.69,38.75-2.53,12.94-.84,25.87-1.67,38.81-2.49,13-.82,26-1.64,39.01-2.44,13.11-.81,26.23-1.61,39.34-2.4,13.04-.78,26.07-1.56,39.11-2.31,13.01-.76,26.02-1.5,39.02-2.23s26.05-1.44,39.07-2.14c12.85-.69,25.71-1.36,38.57-2.01,12.73-.65,25.46-1.27,38.2-1.88,12.65-.6,25.3-1.18,37.96-1.74s24.78-1.07,37.17-1.57c5.51-.22,11.01-.45,16.51-.79,4.72-.29,9.44-.57,14.16-.86,9.79-.59,19.57-1.18,29.36-1.78,10.14-.61,20.28-1.22,30.43-1.84,10.15-.62,21.03-1.27,31.54-1.9,10.81-.65,21.61-1.3,32.42-1.95s22.04-1.32,33.06-1.98c11.02-.66,22.51-1.35,33.76-2.02,11.25-.67,22.81-1.37,34.22-2.05,11.41-.68,22.96-1.37,34.44-2.06,11.57-.69,23.15-1.39,34.72-2.08,11.59-.69,23.17-1.39,34.76-2.08,11.52-.69,23.04-1.38,34.56-2.07,11.51-.69,23.02-1.38,34.52-2.07,11.31-.68,22.63-1.36,33.94-2.03,11.31-.67,22.28-1.34,33.42-2s21.97-1.32,32.95-1.98c10.98-.66,21.31-1.28,31.96-1.92,10.65-.64,20.68-1.25,31.02-1.87s20.08-1.21,30.12-1.82c10.04-.61,19.15-1.16,28.72-1.74,9.6-.58,19.19-1.3,28.78-2,9.59-.7,20.12-1.47,30.18-2.2,10.06-.73,20.61-1.5,30.91-2.25s21.22-1.55,31.82-2.32c10.6-.77,21.71-1.59,32.56-2.38,11.04-.81,22.07-1.61,33.11-2.42s22.51-1.65,33.77-2.47c11.26-.82,22.83-1.67,34.25-2.5,11.51-.84,23.02-1.68,34.53-2.53,11.64-.85,23.29-1.7,34.93-2.56,11.64-.86,23.43-1.71,35.15-2.57s23.45-1.72,35.17-2.57,23.54-1.72,35.31-2.58,23.51-1.72,35.26-2.58c11.67-.85,23.35-1.71,35.02-2.56,11.67-.85,23.34-1.71,35.01-2.56,11.5-.84,22.99-1.68,34.49-2.52s22.73-1.66,34.09-2.49c11.27-.82,22.54-1.65,33.81-2.47,11.27-.82,22.02-1.61,33.03-2.41,11.01-.8,21.59-1.58,32.38-2.36,10.79-.78,21.21-1.55,31.82-2.32,10.61-.77,20.53-1.5,30.8-2.25,9.96-.73,19.92-1.45,29.88-2.18,4.89-.36,9.77-.71,14.66-1.07,6.38-.46,12.78-.76,19.17-1.12,13.44-.76,26.88-1.52,40.32-2.29,13.57-.77,27.13-1.55,40.7-2.32,13.64-.78,27.28-1.56,40.92-2.35,13.64-.79,27.33-1.58,41-2.37,13.77-.8,27.53-1.59,41.3-2.39,13.77-.8,27.63-1.61,41.45-2.41,13.82-.81,27.64-1.61,41.45-2.42,13.89-.81,27.79-1.62,41.68-2.44,12.84-.75,25.67-1.5,38.51-2.26.48-.03.48-.78,0-.75v-.06Z"/>
  </g>
  <path class="cls-6" d="M353.44,2447.38c6.68,32.49,13.54,64.97,20.56,97.43.97,4.5,2.36,9.48,7.7,12.18,5.12,2.58,12.07,2.14,18.32,1.57,94.72-8.53,189.45-17.07,284.17-25.6,786.4-43.79,1630.3-99.8,2416.7-143.59,274.02-18.64,548.03-37.29,822.05-55.93,8.41-.57,17.46-1.33,23.64-5.28,9.74-6.21,7.92-17.02,5.34-26.06-9.96-34.95-19.92-69.91-29.87-104.86-41.29-128.49-37.34-296.14-48.65-427.3-7.46-86.49-22.97-172.6-38.48-258.63-33.02-183.21-71.31-366.09-99.05-549.63-60.17-87.57-98.23-184.12-96.49-280.61.99-54.69,12.23-108.96,17.24-163.52,11.74-127.85-14.04-279.9-36.52-407.31-9.35-36.83-19.43-73.58-30.23-110.24-176.99,6.41-353.62,16.74-529.53,30.96-234.05,11.6-495.19,30.1-728.57,46.52-179.93,16.45-343.86,26.95-525,36.02-28.78,1.44-57.55,2.88-86.33,4.33-122.76,6.15-245.51,12.3-368.27,18.45-112.25,8.7-225.91,19.3-338.83,22.72-44.48,2.02-127.91,5.2-172.4,7.21-63.12.99-162.41,6.89-225.28,10.56,0,0-25.09,1.47-50.18,2.93-45.21,4.78-90.43,9.56-90.43,9.56-70.87,7.49-142.43,12.05-214.18,13.66-15.48-.38-68.96,6.14-83.52,8.35-49.94,7.59-101.43,10.49-152.63,8.59,6.99,43.1,15.73,86.07,26.21,128.85,6.13,33.31,21.34,78.31,27.47,111.62,28.53,155.03,51.22,329.33,67.27,481.93,15.83,113.5,27.45,218.84,41.18,328.27,18.4,144.14,44.53,247.92,64.5,338.48,74.69,179.16,1.38,402.28,53.53,584.98,15.03,84.56,31.22,169.02,48.57,253.38h-.01Z"/>
  <g class="cls-2">
    <path class="cls-5" d="M3563.82,103.33c99.45,37.16,192.76,141.5,182.87,219.49-41.48,327.02-147.18,648.29-191.58,975.1-44.4,326.81,17.07,724.68,216.05,1023.94-4.58,21.78-6.1,43.9-4.53,65.93-140.22-13.25-280.92-23.77-421.9-31.56-360.93-18.02-757.02-22.13-1084.87-27.12-183.91-11.14-364.46-9.92-552.09-7.3-289.09-3.41-693.96-.07-983.05-3.47-140.1,1.16-272.05-3.37-412.14-2.2-32.04.07-93.08-.56-128.85-1.4-3.05-.07-6.53-.52-8.22-2.31-1.13-1.19-1.14-2.72-1.12-4.14.09-10.35,1.77-19.86.87-31.2-.26-56.9,11.77-114.77,13.35-168.05.76-25.79-.42-51.66,2.29-77.37,30.6-290.03,16.73-565.54-8.72-847.86-36.68-210.78-35.21-431.63-29.65-644.3,2.28-84.61.2-183.15,2.48-267.76,1.34-49.8-1.79-99.67-.45-149.47-.9-12.57-2.42-54.63,0-67.48,27.06-1.5,54.23-2.22,81.4-2.16,19.6,27.71,73.83,66.71,91.28,95.1,17.45,28.39,42.08,56.12,79.79,72.37,37.71,16.25,108.81-2.26,141.26-22.88,14.94-4.06,26.49-13.23,31.55-23.85,5.06-10.62,3.89-22.5-2.02-32.98-5.19-9.21-13.98-17.44-25.15-23.56-2.78-1.53-5.86-3.05-7.15-5.35-.88-1.58-.8-3.32-.7-5,.54-9.16,1.08-18.31,1.61-27.47.11-1.83.26-3.76,1.74-5.26,1.24-1.26,3.25-2.03,5.2-2.72,11.32-4.04,23.33-7.15,35.71-9.24-1.54,3.17,46.86-4.62,45.32-1.45,27.63-8.97,60.87,8.44,69.79,28.91,8.92,20.48,1.63,42.3-2.55,63.41-4.18,21.11-4.08,44.88,15.99,61.13,29.49,23.87,159.33-3.98,202.91-11.37,14.94-4.06,26.49-13.23,31.55-23.85,5.06-10.62,3.89-22.5-2.02-32.98-5.19-9.21-13.98-17.44-25.15-23.56-2.78-1.53-5.86-3.05-7.15-5.35-.88-1.58-.8-3.32-.7-5,.54-9.16,1.08-18.31,1.61-27.47.11-1.83.26-3.76,1.74-5.26,1.24-1.26,3.25-2.03,5.2-2.72,17.41-6.21,36.45-10.22,55.95-11.74-46.61,8.18,24.07-4.08,11.51-1.84,29.48-2.33,60.83-.33,86.3,10.51,25.47,10.84,43.39,31.95,38.09,52.29-5.44,20.89-32.65,36.23-39.04,56.98-10.13,32.91,33.92,61.01,73.16,81.01,6.62,3.37,13.55,6.85,21.6,7.83,12.82,1.57,25.11-3.45,36.04-8.27,26.6-11.72,58.39-43.64,84.99-55.37,14.94-4.06,26.49-13.23,31.55-23.85,5.06-10.62,3.89-22.5-2.02-32.98-5.19-9.21-13.98-17.44-25.15-23.56-2.78-1.53-5.86-3.05-7.15-5.35-.88-1.58-.8-3.32-.7-5,.54-9.16,1.08-18.31,1.61-27.47.11-1.83.26-3.76,1.74-5.26,1.24-1.26,3.25-2.03,5.2-2.72,11.32-4.04,23.33-7.15,35.71-9.24,35.02,5.95,122.01,50.53,129.22,75.16,7.21,24.63,8.17,51.15,27.7,72.35,30.97,33.62,133.99,21.16,174-6.9,14.94-4.06,26.49-13.23,31.55-23.85,5.06-10.62,3.89-22.5-2.02-32.98-5.19-9.21-13.98-17.44-25.15-23.56-2.78-1.53-5.86-3.05-7.15-5.35-.88-1.58-.8-3.32-.7-5,.54-9.16,1.08-18.31,1.61-27.47.11-1.83.26-3.76,1.74-5.26,1.24-1.26,3.25-2.03,5.2-2.72,11.32-4.04,23.33-7.15,35.71-9.24,25.78-6.39,84.51,17.25,95.13,34.98,10.62,17.73,8.15,37.66,6.64,56.77s-1.38,39.53,13.32,55.81c17.38,19.24,52,28.2,84.44,27.99,32.45-.21,98.46-27.18,128.82-34.96,14.94-4.06,26.49-13.23,31.55-23.85,5.06-10.62,3.89-22.5-2.02-32.98-5.19-9.21-13.98-17.44-25.15-23.56-2.78-1.53-5.86-3.05-7.15-5.35-.88-1.58-.8-3.32-.7-5,.54-9.16,1.08-18.31,1.61-27.47.11-1.83.26-3.76,1.74-5.26,1.24-1.26,3.25-2.03,5.2-2.72,11.32-4.04,23.33-7.15,35.71-9.24,36.81,7.02,101.08,31.66,115.14,56.44,15.62,27.53-11.6,60.2,5.3,87.36,13.15,21.13,49.87,31.2,82.63,29.34,32.76-1.86,98.78-21.56,127.52-32.52,14.94-4.06,26.49-13.23,31.55-23.85,5.06-10.62,3.89-22.5-2.02-32.98-5.19-9.21-13.98-17.44-25.15-23.56-2.78-1.53-5.86-3.05-7.15-5.35-.88-1.58-.8-3.32-.7-5,.54-9.16,1.08-18.31,1.61-27.47.11-1.83.26-3.76,1.74-5.26,1.24-1.26,3.25-2.03,5.2-2.72,11.32-4.04,23.33-7.15,35.71-9.24,47.87-.24,100.93,45.91,110.24,78.73,9.31,32.83,10.99,69.76,44.58,93.8,39.42,28.22,148.57,1.86,176.61-31.91,14.94-4.06,26.49-13.23,31.55-23.85,5.06-10.62,3.89-22.5-2.02-32.98-5.19-9.21-13.98-17.44-25.15-23.56-2.78-1.53-5.86-3.05-7.15-5.35-.88-1.58-.8-3.32-.7-5,.54-9.16,1.08-18.31,1.61-27.47.11-1.83.26-3.76,1.74-5.26,1.24-1.26,3.25-2.03,5.2-2.72,11.32-4.04,23.33-7.15,35.71-9.24,5.45-.9,30.16-6.61,30-2.7-.16,3.92,6.88,5.67,12.38,6.5,56.06,8.38,102.08,43.5,109,83.16,4.03,23.13-3.08,49.03,16.83,67.84,29.75,28.12,117.1-1.38,163.27-14.17,14.94-4.06,26.49-13.23,31.55-23.85,5.06-10.62,3.89-22.5-2.02-32.98-5.19-9.21-13.98-17.44-25.15-23.56-2.78-1.53-5.86-3.05-7.15-5.35-.88-1.58-.8-3.32-.7-5,.54-9.16,1.08-18.31,1.61-27.47.11-1.83.26-3.76,1.74-5.26,1.24-1.26,3.25-2.03,5.2-2.72,11.32-4.04,23.33-7.15,35.71-9.24,37.24-4.53,78.74,19.66,86.63,45.55,7.89,25.89-1.07,52.52-2.58,78.9-1.5,26.38,7.49,56.29,39.43,70.7,28.91,13.04,67.62,8.87,98.06-1.87,29.07-10.27,71.54-37.85,100.79-50.96,19.15-2.33,34.34-12.91,40.36-25.53,5.06-10.62,3.89-22.5-2.02-32.98-5.19-9.21-13.98-17.44-25.15-23.56-2.78-1.53-5.86-3.05-7.15-5.35-.88-1.58-.8-3.32-.7-5,.54-9.16,1.08-18.31,1.61-27.47.11-1.83.26-3.76,1.74-5.26,1.24-1.26,3.25-2.03,5.2-2.72,11.32-4.04,23.33-7.15,35.71-9.24"/>
    <path class="cls-5" d="M3563.72,103.69c8.18,3.06,16.2,6.52,24.05,10.34,7.85,3.82,15.79,8.11,23.42,12.65,7.63,4.54,15.23,9.5,22.56,14.69s14.52,10.73,21.46,16.5c6.94,5.77,13.5,11.68,19.9,17.9,6.4,6.22,12.33,12.45,18.11,19.04s10.97,13.03,16.01,19.89c5.04,6.86,9.4,13.41,13.6,20.45,4.2,7.04,7.65,13.6,10.88,20.7,3.06,6.73,5.72,13.64,7.86,20.72,2,6.62,3.55,13.39,4.49,20.25s1.22,13.14.85,19.72c-.23,4.02-.79,8-1.3,11.98-.72,5.6-1.46,11.19-2.22,16.78-1.51,11.09-3.08,22.18-4.72,33.25-1.64,11.08-3.35,22.15-5.12,33.22-1.77,11.07-3.6,22.13-5.48,33.18-1.88,11.05-3.83,22.11-5.82,33.15-1.99,11.04-4.04,22.09-6.13,33.13-2.09,11.04-4.23,22.08-6.4,33.1-2.17,10.99-4.38,21.98-6.63,32.96-2.25,10.98-4.55,22.05-6.87,33.06-2.32,11.01-4.68,22.03-7.06,33.04-2.38,11.02-4.79,22.02-7.21,33.03-2.42,11.01-4.86,21.94-7.32,32.9-2.47,11.01-4.95,22.01-7.44,33.01-2.49,11-5,22-7.51,33-2.51,11-5.03,22-7.56,33-2.52,11-5.05,22-7.57,33s-5.04,22-7.55,33c-2.51,11-5.01,22-7.5,33s-4.97,22-7.43,33.01c-2.46,11.01-4.9,22.01-7.32,33.02-2.42,11.01-4.8,21.94-7.16,32.92-2.36,10.98-4.71,22.03-7.02,33.05-2.31,11.02-4.59,22.04-6.83,33.07s-4.43,21.97-6.58,32.97c-2.16,11.03-4.28,22.06-6.35,33.11s-4.1,22.08-6.07,33.14c-1.97,11.06-3.89,22.1-5.76,33.16s-3.67,22.12-5.42,33.19c-1.75,11.07-3.43,22.14-5.05,33.23-1.62,11.09-3.03,21.1-4.43,31.67-1.14,8.63-2.2,17.26-3.19,25.91-.99,8.65-1.91,17.44-2.75,26.18-.84,8.74-1.61,17.55-2.3,26.34-.69,8.79-1.32,17.77-1.86,26.66-.54,8.89-1.01,17.92-1.41,26.88s-.71,18.05-.95,27.08c-.24,9.05-.41,18.11-.49,27.16-.08,9.05-.1,18.28-.03,27.42.07,9.14.21,18.38.43,27.56.22,9.18.52,18.46.9,27.69.38,9.23.84,18.53,1.37,27.79s1.15,18.59,1.85,27.88c.7,9.29,1.47,18.64,2.32,27.95.86,9.34,1.79,18.68,2.81,28,1.02,9.32,2.11,18.7,3.29,28.03,1.18,9.33,2.42,18.58,3.75,27.85,1.34,9.36,2.76,18.71,4.27,28.04,1.51,9.33,3.09,18.7,4.76,28.02s3.43,18.67,5.26,27.98,3.75,18.57,5.74,27.82c1.99,9.25,4.09,18.58,6.27,27.85,2.18,9.27,4.43,18.52,6.78,27.75s4.77,18.45,7.29,27.64c2.52,9.19,5.12,18.36,7.81,27.51,2.69,9.14,5.46,18.26,8.33,27.35s5.81,18.15,8.85,27.19c3.04,9.04,6.16,18.03,9.37,27,3.21,8.97,6.49,17.83,9.87,26.7,3.38,8.87,6.87,17.75,10.44,26.57,3.57,8.82,7.2,17.52,10.93,26.23,3.73,8.71,7.58,17.42,11.51,26.07,3.93,8.65,7.91,17.18,12.01,25.7,4.1,8.52,8.3,17.04,12.6,25.49,4.3,8.45,8.67,16.84,13.15,25.18,4.48,8.34,9.04,16.62,13.7,24.85,4.66,8.23,9.41,16.39,14.26,24.49,4.84,8.1,9.78,16.14,14.82,24.12,2.52,3.99,5.06,7.96,7.62,11.92,1.28,1.98,2.57,3.95,3.86,5.92.65.98,1.3,1.97,1.94,2.95.32.48.63.95.95,1.43.15.22.31.44.45.67.2.34.06.63,0,1.01-2.29,11.11-3.8,22.39-4.49,33.71-.64,10.44-.59,20.92.15,31.36l.38-.38c-12.95-1.22-25.91-2.42-38.86-3.6-12.96-1.18-25.92-2.33-38.88-3.46-12.96-1.13-25.94-2.24-38.91-3.32-12.93-1.08-25.87-2.14-38.81-3.17-12.94-1.03-25.88-2.05-38.83-3.03-12.99-.99-25.98-1.96-38.97-2.9s-25.99-1.87-38.99-2.76-26-1.77-39.01-2.62c-12.97-.85-25.93-1.67-38.9-2.48-12.97-.8-25.94-1.58-38.92-2.34-12.98-.76-25.68-1.51-38.53-2.15-11.95-.59-23.91-1.17-35.87-1.72-12.02-.56-24.05-1.11-36.07-1.64-12.02-.53-24.09-1.05-36.14-1.55-12.1-.5-24.2-.99-36.29-1.47s-24.36-.94-36.55-1.4c-12.22-.45-24.44-.89-36.66-1.32-12.22-.43-24.42-.84-36.64-1.25s-24.47-.8-36.71-1.18c-12.29-.38-24.58-.76-36.87-1.12-12.3-.36-24.6-.71-36.9-1.06-12.3-.35-24.6-.67-36.9-1-12.26-.32-24.51-.63-36.77-.94-12.26-.31-24.48-.6-36.73-.89-12.26-.29-24.52-.57-36.78-.84-12.23-.27-24.46-.54-36.69-.8-12.2-.26-24.39-.51-36.59-.75-12.11-.24-24.23-.48-36.34-.71-12.11-.23-24.13-.46-36.19-.68-12.06-.22-24.09-.43-36.13-.64-11.98-.21-23.96-.41-35.94-.61-11.91-.2-23.81-.4-35.72-.59-11.79-.19-23.58-.38-35.36-.56-11.7-.18-23.4-.36-35.1-.54-11.7-.18-23.29-.35-34.93-.53-11.64-.18-23.08-.34-34.62-.51-11.43-.17-22.86-.34-34.29-.5-11.28-.16-22.55-.33-33.83-.49-11.15-.16-22.31-.32-33.46-.49-11.15-.17-22.11-.32-33.17-.49-11.06-.17-21.83-.33-32.75-.49-2.81-.04-5.61-.06-8.41-.23-3.18-.19-6.36-.38-9.53-.56-6.43-.37-12.86-.73-19.29-1.07-12.72-.68-25.44-1.3-38.17-1.87-12.73-.57-25.4-1.09-38.11-1.55s-25.46-.89-38.19-1.26c-12.73-.37-25.45-.7-38.17-.99-12.72-.29-25.45-.53-38.18-.73s-25.39-.37-38.08-.5c-12.69-.13-25.42-.23-38.13-.3-12.71-.07-25.54-.1-38.31-.11-12.8,0-25.6.01-38.4.05-12.8.04-25.59.11-38.39.2-12.88.09-25.76.19-38.64.32s-25.78.26-38.67.41c-12.89.15-25.98.32-38.96.49-6.48.09-12.95.17-19.43.26-5.03.07-10.06-.03-15.09-.09-9.53-.11-19.05-.2-28.58-.29-9.53-.09-19.49-.18-29.23-.25-9.98-.08-19.96-.15-29.93-.22-10.17-.07-20.33-.13-30.5-.19-10.17-.06-20.68-.11-31.02-.16-10.46-.05-20.93-.09-31.39-.13-10.46-.04-21.21-.07-31.81-.1-10.6-.03-21.53-.06-32.29-.08-10.87-.02-21.75-.04-32.62-.06s-21.94-.03-32.91-.05c-11.01-.01-22.02-.02-33.04-.03-11.02-.01-22.15-.02-33.23-.02-11.16,0-22.32,0-33.48-.01-11.16-.01-22.38,0-33.57,0-11.21,0-22.42,0-33.62,0-11.2,0-22.35,0-33.52,0s-22.32,0-33.48,0c-11.16,0-22.33,0-33.49-.01-11.16-.01-22.24-.01-33.36-.02-11.06,0-22.12-.02-33.17-.03-11.05-.01-21.89-.03-32.84-.04-10.85-.02-21.71-.04-32.56-.06-10.78-.02-21.56-.05-32.34-.08-10.78-.03-21.32-.06-31.97-.1-10.52-.04-21.04-.08-31.56-.12-10.52-.04-20.66-.1-30.99-.15-10.33-.05-20.32-.11-30.48-.18-10.16-.07-20.02-.14-30.02-.21-10-.07-19.61-.16-29.42-.25-9.59-.09-19.18-.18-28.77-.29-4.68-.05-9.36-.1-14.04-.16-6.26-.07-12.52.06-18.78.09-12.91.07-25.82.09-38.73.08-12.85-.01-25.69-.06-38.54-.14-12.77-.08-25.54-.18-38.31-.3-12.68-.12-25.35-.26-38.03-.41-12.68-.15-25.3-.31-37.96-.46-12.69-.16-25.39-.31-38.08-.46-12.72-.15-25.44-.28-38.17-.4-12.78-.12-25.55-.22-38.33-.29s-25.63-.11-38.45-.12c-12.92,0-25.85.03-38.77.11-9.34.06-18.67.1-28,.07-9.24-.03-18.47-.09-27.71-.16-10.09-.08-20.18-.19-30.27-.31-9.85-.12-19.69-.26-29.54-.42-4.53-.08-9.06-.16-13.58-.25-4.1-.08-8.21-.11-12.31-.27-2.35-.09-5.38-.3-7.2-2.01-1.03-.97-1.18-2.32-1.18-3.67,0-1.46.05-2.93.11-4.39.24-5.76.83-11.5.99-17.26.08-3.06.05-6.13-.16-9.18s-.05-6.36,0-9.52c.1-6.31.34-12.62.69-18.92.69-12.63,1.8-25.23,3.09-37.81,1.29-12.58,2.73-24.9,4.13-37.35,1.37-12.2,2.69-24.42,3.71-36.65,1.01-12.13,1.66-24.28,1.86-36.45.21-12.95.09-25.9.36-38.84.14-6.43.37-12.86.79-19.27.42-6.41,1.15-13.03,1.82-19.55,1.33-12.92,2.57-25.85,3.73-38.78,1.15-12.87,2.23-25.74,3.22-38.62.99-12.86,1.9-25.73,2.73-38.6.83-12.87,1.58-25.64,2.25-38.46.67-12.77,1.27-25.55,1.79-38.33.52-12.78.97-25.4,1.34-38.1.38-12.66.68-25.33.92-37.99.24-12.67.41-25.35.51-38.02.1-12.65.15-25.29.12-37.94-.03-12.65-.11-25.25-.25-37.87-.14-12.62-.35-25.13-.6-37.7-.26-12.55-.57-25.1-.94-37.65-.37-12.58-.79-25.16-1.26-37.74-.47-12.57-.99-25.14-1.56-37.71-.57-12.53-1.18-25.06-1.84-37.58-.66-12.57-1.37-25.14-2.11-37.7-.74-12.53-1.53-25.06-2.35-37.59-.83-12.58-1.69-25.16-2.59-37.74-.9-12.58-1.84-25.18-2.8-37.77s-1.96-25.13-2.99-37.7c-1.03-12.57-2.08-25.17-3.16-37.75-1.08-12.58-2.2-25.3-3.33-37.94-.14-1.55-.19-3.15-.45-4.69s-.52-2.98-.77-4.47c-.53-3.1-1.05-6.2-1.57-9.31-1.02-6.17-2.01-12.35-2.97-18.54-1.92-12.39-3.72-24.79-5.39-37.21-1.67-12.42-3.24-24.92-4.69-37.4-1.45-12.45-2.78-24.92-4.01-37.4-1.24-12.54-2.37-25.08-3.4-37.64-1.03-12.57-1.97-25.15-2.82-37.74-.85-12.6-1.6-25.21-2.28-37.82-.67-12.58-1.26-25.17-1.77-37.75-.51-12.58-.95-25.19-1.31-37.79-.37-12.64-.66-25.28-.9-37.92-.23-12.64-.4-25.27-.52-37.91-.12-12.64-.17-25.25-.18-37.88,0-12.57.03-25.14.12-37.71.08-12.54.21-25.09.37-37.63.16-12.55.36-25.1.59-37.66.23-12.51.48-25.03.76-37.54.28-12.51.58-24.93.9-37.4.3-11.62.6-23.24.8-34.86s.34-23.39.43-35.09.15-23.99.19-35.99.05-24.26.06-36.39c.01-12.13.03-24.27.06-36.4.03-11.97.08-23.94.18-35.9s.22-23.43.42-35.14c.2-11.74.55-23.48.76-35.22.23-13.04.19-26.07.04-39.11-.15-13.04-.42-26.08-.64-39.12-.22-13-.39-25.99-.36-38.99.02-6.52.08-13.04.22-19.55.05-2.13.14-4.24,0-6.36-.08-1.29-.16-2.59-.22-3.88-.39-7.38-.64-14.76-.81-22.15-.18-8.23-.26-16.47-.04-24.71.14-4.99.24-10.1,1.16-15.02l-.36.28c10.56-.58,21.13-1.05,31.7-1.4,10.57-.35,21.17-.58,31.75-.69,5.98-.06,11.96-.09,17.95-.07l-.32-.19c4.41,6.23,9.59,11.9,14.9,17.37,6.36,6.54,13,12.81,19.68,19.01,7.07,6.56,14.2,13.05,21.24,19.64,6.68,6.26,13.3,12.61,19.58,19.29,5.3,5.63,10.46,11.5,14.72,17.98,2.4,3.65,4.64,7.4,7.1,11.02,2.65,3.91,5.43,7.74,8.33,11.48,6.03,7.76,12.63,15.08,19.82,21.78s15.72,13.36,24.45,18.83c4.58,2.87,9.31,5.5,14.16,7.89,4.13,2.03,8.34,3.98,12.73,5.39,7.7,2.49,15.81,3.62,23.88,4.02,9.07.45,18.17-.03,27.18-1.1s18.77-2.87,27.98-5.14c9.21-2.27,17.83-4.91,26.5-8.12,7.75-2.87,15.38-6.15,22.69-10.03,1.63-.87,3.25-1.77,4.84-2.71.73-.43,1.46-.87,2.18-1.32.47-.29.87-.54,1.41-.69.67-.19,1.34-.39,2-.6,4.92-1.57,9.66-3.77,13.98-6.61,7.81-5.13,14.41-12.49,17.09-21.58,3.16-10.71.38-22.08-5.65-31.24s-14.2-15.71-23.36-20.76c-2.25-1.24-4.8-2.38-6.52-4.35-2.02-2.32-1.34-5.69-1.17-8.5.38-6.43.76-12.87,1.13-19.3.1-1.65.19-3.3.29-4.95.07-1.27.12-2.57.57-3.77,1.04-2.76,4.26-3.68,6.78-4.57,5.71-2.01,11.51-3.76,17.38-5.27,5.87-1.51,11.74-2.74,17.68-3.75l-.42-.55c-.72,1.56,3.19,1.34,3.83,1.34,3.57-.02,7.14-.37,10.69-.69,4.5-.41,9-.87,13.5-1.3,3.94-.38,7.89-.76,11.85-.94,1.29-.06,2.59-.11,3.89-.03.43.03.76.05,1.16.14.07.02.14.03.2.06.1.03.11.04.11.04.04.02.08.05.12.07-.04-.02-.03,0-.03-.02,0-.04-.02-.07,0-.11-.13.27.09.66.42.55,10.85-3.5,22.62-2.96,33.45.32,10.26,3.1,20.02,8.64,27.53,16.33,3.27,3.35,6.13,7.17,8.1,11.43,2.91,6.28,4.24,13.23,4.45,20.12.43,14.13-3.51,27.92-6.34,41.64-2.17,10.51-3.47,21.34-1.93,32.04.76,5.26,2.23,10.42,4.55,15.21,2.47,5.1,5.9,9.7,10.01,13.6,2.32,2.2,4.77,4.14,7.61,5.6,2.37,1.21,4.87,2.14,7.42,2.89,6.33,1.87,12.95,2.74,19.52,3.24,8.04.62,16.12.63,24.18.37,9.15-.3,18.28-.97,27.39-1.85,9.11-.88,19.05-2.08,28.54-3.38s18.96-2.75,28.41-4.3c8.8-1.44,17.58-2.96,26.35-4.53,7.49-1.34,14.98-2.72,22.47-4.08,3.11-.57,6.23-1.13,9.35-1.69,1.36-.24,2.73-.48,4.09-.71,2.63-.45,5.2-1.41,7.67-2.4,10.09-4.05,19.62-11.08,24.68-20.92,2.91-5.67,4.12-12.1,3.51-18.44-.61-6.42-2.97-12.57-6.43-17.99-3.17-4.97-7.21-9.37-11.72-13.16-2.4-2.02-4.94-3.87-7.58-5.57s-5.66-3.14-8.38-4.88c-1.22-.78-2.45-1.7-3.21-2.96-.9-1.51-.83-3.27-.73-4.96.22-3.79.45-7.59.67-11.38.22-3.79.45-7.59.67-11.38.11-1.81.18-3.63.32-5.44.12-1.55.45-3.11,1.59-4.26s2.74-1.78,4.22-2.33c1.61-.6,3.24-1.15,4.87-1.69,3.33-1.11,6.68-2.12,10.06-3.06,6.81-1.88,13.71-3.42,20.67-4.63s14-2.09,21.06-2.64l-.1-.74c-5.15.91-10.31,1.79-15.46,2.73-.22.04-.52.04-.73.16-.16.09-.19.26-.17.42h0c.02.12.15.24.26.26.29.05.65-.07.93-.12.69-.12,1.38-.23,2.08-.35,2.31-.39,4.62-.79,6.93-1.19,2.8-.48,5.59-.96,8.39-1.44,2.44-.42,4.88-.84,7.33-1.26.81-.14,1.62-.28,2.43-.41.33-.06.88-.04,1.18-.2.08-.04-.07,0-.03,0l-.32-.19h0c.04-.17.09-.34.13-.51.18-.11-.19.02-.29.04-.38.07-.76.14-1.14.21-.41.07-.32.77.1.74,11.7-.92,23.47-1.16,35.19-.46,11.72.7,23.04,2.29,34.21,5.25,10.55,2.8,20.86,6.79,30.06,12.73,8.07,5.21,15.49,11.93,20.39,20.27,4.23,7.2,6.29,15.68,4.33,23.92-2.02,8.52-7.56,15.75-13.17,22.25-6.02,6.96-12.63,13.43-18.16,20.81-4.96,6.63-8.85,14.14-9.3,22.54-.42,7.8,2.18,15.35,6.24,21.93,4.73,7.67,11.21,14.17,18.08,19.94,7.92,6.65,16.55,12.43,25.4,17.77,8.85,5.34,18.66,10.65,28.27,15.41,5.1,2.53,10.38,4.81,16.01,5.86,5.63,1.05,11.7.79,17.44-.4s11.33-3.26,16.76-5.54c4.39-1.85,8.71-3.82,12.87-6.15,8.66-4.85,16.78-10.63,24.77-16.5,8.46-6.21,16.78-12.63,25.34-18.7,7.77-5.52,15.77-10.88,24.39-14.99,1.04-.49,2.04-.95,3.15-1.27,1.33-.39,2.65-.82,3.94-1.29,2.42-.88,4.78-1.92,7.06-3.12,4.33-2.27,8.38-5.12,11.88-8.54,3.12-3.05,5.82-6.57,7.74-10.5,2.41-4.92,3.56-10.39,3.36-15.86-.4-10.72-5.77-20.55-13.03-28.21-3.66-3.87-7.83-7.24-12.29-10.15-2.33-1.52-4.75-2.84-7.18-4.2-2.21-1.23-4.84-2.73-5.52-5.36-.37-1.41-.2-2.9-.12-4.33.1-1.65.19-3.3.29-4.95.19-3.22.38-6.43.57-9.65s.38-6.43.57-9.65c.15-2.61-.1-5.82,2.05-7.72,1.06-.94,2.44-1.51,3.76-2s2.77-.99,4.16-1.46c2.9-.98,5.82-1.89,8.76-2.74,5.9-1.7,11.88-3.14,17.91-4.33,1.56-.31,3.13-.6,4.7-.88.49-.09.94-.21,1.43-.13.32.06.64.12.96.18,1.29.25,2.56.53,3.84.83,2.85.68,5.67,1.47,8.46,2.34,6.7,2.07,13.28,4.53,19.77,7.17,7.41,3.02,14.71,6.31,21.91,9.8s14.82,7.45,22.04,11.53c7.22,4.08,13.73,8.02,20.33,12.43,5.79,3.87,11.46,7.98,16.75,12.52,4.07,3.49,8.06,7.27,11.17,11.67,1.16,1.64,2.21,3.39,2.92,5.27.63,1.69,1.05,3.47,1.51,5.2.66,2.48,1.27,4.97,1.85,7.46,2.33,9.93,4.27,19.98,7.4,29.7,3.17,9.89,7.66,19.35,14.18,27.49,2.29,2.85,4.76,5.54,7.61,7.83,2.28,1.84,4.74,3.45,7.3,4.87,5.74,3.17,11.97,5.41,18.3,7.06,7.18,1.87,14.55,2.99,21.94,3.64,8.05.71,16.15.84,24.23.55,8.08-.29,16.71-1.07,25-2.24s16.41-2.72,24.48-4.7c7.61-1.87,15.13-4.12,22.48-6.86,6.53-2.43,12.95-5.25,19.03-8.67,1.37-.77,2.72-1.57,4.04-2.4.64-.4,1.27-.81,1.9-1.23.3-.2.6-.4.9-.61.49-.34,1.02-.46,1.59-.63,5-1.47,9.83-3.57,14.25-6.32,7.9-4.91,14.73-12.04,17.79-20.97,3.63-10.6,1.29-22.13-4.53-31.48-5.52-8.88-13.73-15.91-22.73-21.1-2.33-1.34-4.91-2.45-6.96-4.22-.99-.86-1.78-1.88-2.09-3.18-.35-1.45-.16-3-.08-4.48.38-6.43.76-12.87,1.13-19.3.1-1.65.19-3.3.29-4.95.08-1.41.08-2.85.33-4.24.24-1.31.8-2.48,1.84-3.35,1.1-.92,2.49-1.46,3.82-1.96,5.64-2.1,11.43-3.84,17.24-5.37s12.09-2.91,18.21-3.98c1.62-.28,3.21-.67,4.84-.88,1.54-.19,3.09-.3,4.64-.34,7.41-.19,14.84.97,22.05,2.59,8.21,1.85,16.26,4.41,24.1,7.47,7.84,3.06,14.92,6.38,21.92,10.48,5.48,3.21,10.97,6.83,15.32,11.52,2.38,2.57,4.06,5.57,5.52,8.74,2.37,5.14,3.83,10.67,4.6,16.27,1.53,11.13.42,22.41-.48,33.55-.81,10.01-1.32,20.14.32,30.11s5.93,19.98,12.96,27.76c6.09,6.74,13.87,11.83,22.03,15.7,9.21,4.37,19.07,7.32,29.06,9.29,10.52,2.08,21.26,3.08,31.98,3.11,7.14.02,14.21-.94,21.22-2.29,8.38-1.61,16.65-3.75,24.85-6.07,8.94-2.53,17.81-5.3,26.65-8.16,8.84-2.86,17.26-5.69,25.89-8.56,7.47-2.48,14.95-4.96,22.49-7.23,3.07-.92,6.14-1.8,9.24-2.61,5.01-1.31,9.89-3.32,14.36-5.93,7.94-4.63,14.96-11.41,18.46-20.04,4.27-10.52,2.47-22.29-3.13-31.94-5.2-8.97-13.19-16.14-21.99-21.48-2.35-1.43-4.87-2.59-7.15-4.13-1.02-.69-2.03-1.49-2.7-2.54-.82-1.28-.92-2.78-.86-4.26.25-6.39.74-12.78,1.12-19.16.19-3.17.35-6.35.56-9.52.09-1.29.24-2.63.93-3.75s1.91-1.9,3.13-2.47c2.7-1.26,5.65-2.11,8.49-3.02,2.84-.91,5.79-1.79,8.72-2.59,5.98-1.64,12.04-3.01,18.14-4.13.75-.14,1.49-.27,2.24-.4.58-.1,1.02-.02,1.59.09.92.18,1.84.37,2.75.56,1.88.4,3.75.82,5.62,1.27,8.42,2.02,16.75,4.46,24.97,7.19,8.94,2.97,17.77,6.3,26.43,10.01s16.61,7.55,24.53,12.06c6.85,3.9,13.54,8.21,19.5,13.39,5.19,4.51,9.68,9.68,12.23,16.14,3.4,8.6,3.2,17.98,1.96,27-1.26,9.17-3.51,18.18-4.35,27.41-.82,9.01-.04,18.21,4.3,26.3,3.92,7.31,10.26,12.99,17.25,17.3,7.98,4.92,16.92,8.24,25.99,10.52,9.86,2.48,20.04,3.76,30.2,3.98,8.11.17,16.16-.46,24.19-1.63,8.03-1.17,16.63-2.87,24.87-4.71,9.15-2.04,18.25-4.33,27.3-6.78,9.05-2.45,17.88-5,26.76-7.72,7.87-2.42,15.71-4.94,23.49-7.64,3.21-1.11,6.41-2.25,9.59-3.43.7-.26,1.39-.55,2.1-.79,1.27-.43,2.58-.75,3.85-1.18,2.48-.85,4.91-1.86,7.26-3.04,8.24-4.12,15.8-10.42,20.15-18.67,2.52-4.79,3.84-10.16,3.82-15.57s-1.4-10.97-3.73-15.96c-4.4-9.41-12.03-17.08-20.55-22.86-2.31-1.57-4.71-2.98-7.16-4.31-2.17-1.18-4.79-2.44-6.07-4.66-.75-1.3-.79-2.8-.72-4.25.07-1.61.19-3.23.28-4.84.19-3.22.38-6.43.57-9.65s.38-6.43.57-9.65c.09-1.56.16-3.13.28-4.69.1-1.27.32-2.56,1.06-3.63.78-1.13,2.03-1.81,3.25-2.36,1.38-.62,2.83-1.09,4.26-1.58,2.85-.98,5.72-1.9,8.62-2.75,5.92-1.75,11.92-3.24,17.97-4.47,2.88-.59,5.83-1.36,8.77-1.31,2.23.04,4.46.18,6.68.4,9.26.95,18.33,3.44,26.96,6.88,8.63,3.44,17.5,8.2,25.53,13.53s15.31,11.2,22.13,17.78c6.25,6.04,12.03,12.61,16.94,19.79,4.08,5.98,7.67,12.45,9.75,19.41,2.55,8.53,4.36,17.28,6.4,25.94,2.08,8.84,4.32,17.67,7.44,26.21,3.13,8.58,7.19,16.86,12.58,24.25,2.85,3.91,6.05,7.56,9.56,10.9,3.28,3.12,6.83,6.06,10.64,8.52,5.08,3.28,10.78,5.53,16.59,7.13,6.69,1.84,13.6,2.84,20.51,3.34,7.7.55,15.45.47,23.15-.04,8.17-.54,16.3-1.57,24.36-2.99,8.19-1.44,16.32-3.3,24.33-5.54,8.01-2.24,15.35-4.69,22.82-7.63,6.87-2.71,13.61-5.77,20.07-9.33,5.59-3.07,11-6.52,15.93-10.58,2.14-1.76,4.2-3.65,6.08-5.69.43-.47.85-.95,1.27-1.43.34-.4.84-.43,1.33-.58.67-.2,1.33-.4,1.99-.62,2.47-.82,4.89-1.8,7.23-2.93,8.36-4.05,16.04-10.3,20.54-18.54,2.57-4.71,3.96-10.01,4.05-15.37s-1.2-10.97-3.45-15.99c-4.25-9.49-11.82-17.25-20.3-23.1-2.3-1.59-4.69-3.04-7.15-4.38-2.21-1.21-4.84-2.4-6.34-4.52-.85-1.2-1.04-2.61-1.02-4.04.03-1.58.17-3.16.26-4.73.19-3.22.38-6.43.57-9.65s.38-6.43.57-9.65c.1-1.63.19-3.26.29-4.88.08-1.22.19-2.49.76-3.6,1.3-2.54,4.61-3.38,7.09-4.25,2.88-1.01,5.78-1.95,8.71-2.82,5.87-1.76,11.82-3.25,17.83-4.5,3.83-.79,7.68-1.42,11.52-2.17,6.56-1.29,13.16-2.73,19.84-3.25,1.27-.1,2.56-.17,3.84-.08.66.04,1.63.11,2.12.53.23.2.18.29.19.65.03.73.29,1.42.72,2.01,1.11,1.51,3,2.34,4.71,2.94,2.22.79,4.56,1.25,6.88,1.61,2.62.41,5.22.83,7.82,1.34,5.19,1.01,10.33,2.26,15.4,3.74,9.76,2.86,19.28,6.6,28.34,11.23,8.52,4.36,16.66,9.51,24.12,15.5,6.88,5.53,13.22,11.8,18.59,18.82,4.93,6.45,9.05,13.56,11.83,21.2,1.32,3.64,2.34,7.38,3,11.2.81,4.69,1.16,9.45,1.37,14.2.43,9.42.29,18.94,2.09,28.24.87,4.53,2.23,8.97,4.27,13.11,2.22,4.51,5.25,8.59,8.88,12.07,4.44,4.27,9.99,7.12,15.84,8.94,6.76,2.1,13.89,2.93,20.95,3.16,8.19.26,16.39-.3,24.51-1.26,8.88-1.05,17.7-2.6,26.45-4.42,8.75-1.82,17.84-4.01,26.69-6.32,8.85-2.31,16.92-4.58,25.35-6.99,7.41-2.12,14.81-4.29,22.23-6.37,4.81-1.35,9.48-2.9,13.92-5.22s8.28-5.05,11.75-8.42c3.15-3.06,5.89-6.6,7.83-10.55,2.41-4.91,3.58-10.37,3.4-15.83-.37-10.73-5.71-20.57-12.96-28.25-3.63-3.84-7.76-7.21-12.18-10.11-2.38-1.57-4.87-2.92-7.36-4.31-2.17-1.21-4.78-2.69-5.49-5.26-.39-1.4-.24-2.88-.15-4.31.09-1.61.19-3.22.28-4.83.19-3.22.38-6.43.57-9.65.19-3.22.38-6.52.57-9.77.15-2.64-.12-5.92,2.05-7.84,1.01-.9,2.31-1.45,3.55-1.93,1.4-.54,2.83-1.02,4.26-1.5,2.86-.97,5.74-1.87,8.64-2.71,5.98-1.73,12.03-3.19,18.14-4.4,2.87-.57,5.73-1.12,8.65-1.36,2.49-.2,4.99-.29,7.49-.25,5.09.07,10.17.62,15.17,1.58,9.86,1.89,19.44,5.34,28.28,10.1,8.12,4.38,15.74,9.9,21.97,16.73,2.76,3.02,5.24,6.32,7.25,9.89,2.17,3.88,3.55,8.01,4.53,12.34,2.73,12.04,2.12,24.5.67,36.67-1.45,12.17-3.77,24.46-4.52,36.82-.49,8.08-.01,16.24,1.68,24.17,1.69,7.93,4.74,15.92,9.17,22.91,4.77,7.51,11.13,13.9,18.53,18.8,8.47,5.61,18.13,9.26,28.05,11.36,10.48,2.22,21.27,2.78,31.95,2.23,10.86-.56,21.65-2.28,32.2-4.9,9.32-2.32,18.42-5.4,27.22-9.24,8.8-3.84,17.65-8.36,26.27-12.94,9.24-4.91,18.38-10,27.54-15.04,8.68-4.77,17.38-9.53,26.25-13.96,2.01-1,4.03-1.99,6.06-2.95.96-.45,1.92-.9,2.88-1.34.53-.24.97-.42,1.55-.5.69-.09,1.37-.19,2.05-.3,5.06-.83,10.01-2.28,14.7-4.35,8.23-3.62,15.83-9.26,20.84-16.81,2.74-4.14,4.58-8.85,5.28-13.77.77-5.44.15-11-1.57-16.2-3.3-9.96-10.36-18.31-18.56-24.66-2.14-1.66-4.38-3.2-6.69-4.62-2.31-1.42-4.81-2.61-7.11-4.08-1.08-.69-2.16-1.48-2.92-2.53-.86-1.18-1.09-2.58-1.07-4.01.04-3.18.35-6.37.54-9.54.38-6.43.75-12.87,1.13-19.3.08-1.28.17-2.62.77-3.79.63-1.23,1.74-2.02,2.94-2.63,1.29-.65,2.68-1.11,4.04-1.59,1.45-.51,2.91-1,4.38-1.47,9.88-3.2,20.01-5.64,30.25-7.39.47-.08.27-.8-.2-.72-12.13,2.06-24.12,5.11-35.71,9.24-2.3.82-5,1.74-6.26,4.01-.58,1.05-.79,2.23-.9,3.41-.13,1.5-.19,3.01-.27,4.51-.38,6.48-.76,12.95-1.14,19.43-.1,1.63-.2,3.25-.29,4.88-.07,1.3-.08,2.64.37,3.88.84,2.32,3.05,3.76,5.08,4.94,2.42,1.4,4.9,2.69,7.26,4.2,2.36,1.51,4.58,3.11,6.72,4.86,8.17,6.68,15.08,15.48,17.7,25.87,1.37,5.41,1.48,11.12.11,16.54-1.17,4.63-3.39,8.93-6.35,12.67-5.82,7.35-14.09,12.57-22.87,15.65-2.48.87-5.01,1.57-7.58,2.12-1.27.27-2.56.5-3.85.69-.61.09-1.32.07-1.89.33-.49.22-.97.44-1.46.66-4.08,1.87-8.1,3.86-12.09,5.9-8.94,4.58-17.74,9.44-26.54,14.29s-18.32,10.13-27.6,14.97c-8.47,4.43-17.05,8.72-25.9,12.36-8.85,3.64-18.76,6.67-28.47,8.79-10.74,2.35-21.7,3.73-32.7,3.86-11,.13-21.41-.94-31.71-3.8-9.63-2.68-18.88-6.99-26.72-13.25-6.83-5.46-12.44-12.33-16.45-20.1-3.78-7.32-6.12-15.33-7.26-23.47-1.28-9.13-.87-18.29.16-27.43,1.37-12.29,3.71-24.46,4.6-36.81.44-6.08.52-12.21-.08-18.28-.54-5.54-1.55-11.19-3.51-16.41-2.85-7.57-8.03-14.11-13.9-19.58-6.89-6.42-14.96-11.58-23.49-15.55-9.05-4.21-18.72-7.11-28.62-8.4-5-.66-10.07-.89-15.11-.63-5.74.3-11.37,1.51-16.97,2.77-6.03,1.36-12,2.98-17.89,4.86-2.75.88-5.55,1.74-8.22,2.87-1.18.5-2.36,1.1-3.27,2.02-.82.83-1.33,1.9-1.57,3.03-.28,1.3-.29,2.65-.37,3.97-.09,1.61-.19,3.22-.28,4.83-.19,3.26-.38,6.52-.57,9.77-.19,3.25-.38,6.43-.57,9.65-.15,2.64-.56,5.48,1.17,7.71,1.53,1.96,3.9,3.15,6.04,4.31,2.48,1.35,4.91,2.8,7.24,4.39,4.41,3.02,8.51,6.52,12.07,10.52,7.2,8.09,12.18,18.55,11.52,29.57-.32,5.28-1.96,10.42-4.71,14.94-2.39,3.93-5.54,7.37-9.09,10.28-3.89,3.19-8.28,5.77-12.91,7.74-4.16,1.77-8.53,2.88-12.87,4.11-7.59,2.15-15.17,4.37-22.76,6.53-8.51,2.42-17.03,4.77-25.6,6.95-8.57,2.18-17.84,4.36-26.85,6.13-9.01,1.77-17.53,3.14-26.39,4.01-8,.79-16.07,1.14-24.09.6-6.86-.47-13.76-1.6-20.19-4.1-2.82-1.1-5.54-2.48-8.03-4.2-3.3-2.27-6.17-5.18-8.59-8.35-5.86-7.68-8.46-17.02-9.47-26.5-1.01-9.48-.7-18.95-1.54-28.4-.38-4.27-1-8.52-2.09-12.67-.98-3.74-2.3-7.39-3.88-10.91-3.37-7.51-7.98-14.42-13.32-20.67-5.81-6.8-12.5-12.82-19.69-18.12-7.79-5.74-16.2-10.63-24.97-14.72-9.29-4.33-18.98-7.77-28.9-10.32-5.13-1.32-10.31-2.4-15.54-3.23-2.42-.39-4.84-.73-7.21-1.38-1.97-.54-4.18-1.23-5.68-2.69-.55-.54-.98-1.21-1.04-2-.03-.39.02-.72-.21-1.06-.39-.59-1.22-.78-1.87-.89-2.64-.43-5.47-.02-8.1.32-6.37.81-12.65,2.17-18.95,3.36-4.98.94-9.96,1.82-14.9,2.98-5.93,1.39-11.8,3.03-17.58,4.94-1.46.48-2.91.98-4.36,1.49-1.26.45-2.54.9-3.72,1.54-1.06.58-2.03,1.33-2.66,2.37s-.86,2.21-.98,3.4c-.3,3.08-.38,6.19-.56,9.27s-.38,6.43-.57,9.65c-.19,3.22-.39,6.5-.57,9.76-.08,1.33-.13,2.7.28,3.99.36,1.14,1.08,2.11,1.96,2.92,1.91,1.74,4.32,2.84,6.56,4.09,2.43,1.37,4.79,2.86,7.06,4.48,8.55,6.11,16.11,14.31,19.89,24.25,1.99,5.25,2.87,10.91,2.27,16.5-.56,5.17-2.42,10.15-5.28,14.48-5.39,8.16-13.87,14.04-22.89,17.55-1.22.47-2.45.91-3.69,1.3-.67.21-1.34.41-2.01.6-.48.14-.63.29-.94.65-.84.99-1.73,1.94-2.64,2.85-2.01,2.01-4.17,3.87-6.43,5.61-5.2,4.02-10.86,7.43-16.68,10.47-6.66,3.48-13.57,6.48-20.6,9.11-7.6,2.85-15.36,5.29-23.21,7.35-7.85,2.06-16.21,3.85-24.43,5.16s-16.19,2.17-24.35,2.54c-7.6.34-15.23.25-22.8-.52-6.76-.68-13.5-1.9-19.96-4.01-6-1.96-11.55-4.76-16.58-8.57-7.86-5.96-14.57-13.32-19.78-21.7-4.82-7.75-8.33-16.22-11.09-24.89-2.76-8.66-4.8-17.53-6.85-26.39-1.03-4.43-2.06-8.86-3.19-13.26-.95-3.69-1.9-7.39-3.31-10.94-2.81-7.06-6.89-13.59-11.47-19.63-5.36-7.07-11.5-13.56-18.11-19.47-7.09-6.35-14.76-12.08-22.89-17.05s-16.73-9.2-25.72-12.34c-8.65-3.02-17.7-5.02-26.87-5.44-1.11-.05-2.22-.08-3.33-.08-1.45,0-2.96.42-4.38.69-3.04.57-6.07,1.2-9.09,1.9-5.94,1.37-11.82,3-17.61,4.88-2.74.89-5.6,1.71-8.19,2.97-1.09.53-2.13,1.2-2.87,2.17s-1.09,2.13-1.25,3.33c-.18,1.37-.21,2.76-.29,4.13-.1,1.65-.19,3.3-.29,4.95-.19,3.22-.38,6.43-.57,9.65-.19,3.22-.38,6.52-.57,9.77-.08,1.36-.2,2.75.08,4.1.25,1.21.88,2.27,1.74,3.16,1.77,1.82,4.18,2.93,6.37,4.15,2.45,1.35,4.83,2.83,7.12,4.44,8.59,6.03,16.24,14.14,20.16,24,2.07,5.19,3.06,10.8,2.58,16.38-.45,5.27-2.23,10.35-5.08,14.8-5.26,8.2-13.65,14.15-22.6,17.74-1.21.48-2.43.93-3.67,1.33-1.17.38-2.38.66-3.53,1.1-1.45.55-2.91,1.09-4.37,1.62-3.35,1.22-6.72,2.39-10.1,3.54-8.02,2.72-16.09,5.28-24.19,7.72-8.96,2.7-17.96,5.26-27.01,7.65-9.05,2.39-18.02,4.59-27.12,6.53-8.04,1.72-16.13,3.26-24.28,4.3-8.15,1.04-17.08,1.42-25.65.93-10.14-.58-20.26-2.22-29.99-5.15-8.78-2.64-17.38-6.36-24.81-11.79-6.87-5.03-12.53-11.66-15.28-19.82-2.93-8.72-2.34-18.06-.97-27.02,1.39-9.13,3.6-18.17,4.22-27.41.59-8.94-.6-18.05-5.26-25.86-3.29-5.52-8.18-10.02-13.2-13.95-6.45-5.04-13.49-9.31-20.69-13.17-8.12-4.36-16.52-8.2-25.05-11.69-8.53-3.49-17.44-6.72-26.34-9.53-8.01-2.53-16.11-4.79-24.31-6.6-.91-.2-1.82-.4-2.74-.58s-1.82-.46-2.72-.54c-.58-.05-1.28.19-1.85.29-.79.14-1.57.28-2.35.43-1.56.29-3.12.61-4.68.93-6.03,1.27-12.01,2.8-17.91,4.59-2.92.88-5.81,1.83-8.68,2.85-2.31.82-5.07,1.67-6.49,3.83-.65.98-.92,2.13-1.05,3.28-.17,1.44-.2,2.9-.28,4.35-.19,3.22-.38,6.43-.57,9.65s-.38,6.52-.57,9.77c-.09,1.61-.19,3.22-.28,4.83-.08,1.38-.17,2.79.2,4.14.66,2.37,2.76,3.89,4.78,5.09,2.36,1.41,4.82,2.65,7.16,4.11,8.83,5.56,16.8,13.05,21.64,22.39,2.63,5.08,4.26,10.71,4.4,16.44.14,5.73-1.13,11.03-3.71,15.93-4.43,8.41-12.21,14.72-20.68,18.79-2.41,1.16-4.91,2.15-7.46,2.96-1.81.58-3.65,1.03-5.48,1.53-3.28.9-6.54,1.88-9.79,2.88-7.76,2.41-15.47,4.98-23.18,7.55-8.71,2.9-17.43,5.81-26.17,8.61-8.74,2.8-17.57,5.5-26.46,7.93-8.03,2.19-16.14,4.18-24.35,5.6-3.51.6-7.03,1.09-10.58,1.38-4.09.33-8.2.28-12.3.15-10.75-.36-21.5-1.7-31.97-4.19-9.78-2.32-19.42-5.65-28.24-10.52-8.29-4.57-15.87-10.6-21.24-18.48-5.83-8.56-8.56-18.66-9.32-28.91-.76-10.4.39-20.76,1.15-31.13.81-11.01,1.16-22.27-1.65-33.05-1.33-5.09-3.33-10.23-6.23-14.64-1.38-2.1-3.14-3.95-5-5.64-5.04-4.58-10.93-8.21-16.9-11.44-7.24-3.91-14.82-7.21-22.55-10.02-7.73-2.81-15.86-5.18-24.04-6.75-6.94-1.33-14.12-2.2-21.19-1.56-1.45.13-2.91.33-4.34.63-2.57.53-5.15.96-7.73,1.48-6.06,1.22-12.07,2.69-18,4.42-2.93.86-5.85,1.78-8.74,2.77-2.47.84-5.31,1.57-7.34,3.28s-2.16,4.21-2.31,6.64c-.19,3.26-.38,6.52-.57,9.77-.19,3.25-.38,6.52-.57,9.77-.09,1.57-.18,3.13-.28,4.7s-.27,3.07-.19,4.59c.06,1.27.37,2.52,1.11,3.57.65.93,1.51,1.67,2.43,2.32,2.19,1.57,4.69,2.7,7,4.07,8.98,5.34,17.13,12.58,22.37,21.7,2.86,4.97,4.77,10.52,5.23,16.25.46,5.73-.53,11.34-2.94,16.47-4,8.53-11.51,15.06-19.76,19.35-2.35,1.22-4.79,2.28-7.29,3.16-1.31.46-2.63.88-3.97,1.26-.75.21-1.36.75-2,1.18-2.65,1.76-5.4,3.37-8.22,4.86-6.32,3.34-12.95,6.09-19.69,8.45-7.46,2.62-15.09,4.76-22.8,6.53-8.16,1.87-16.41,3.32-24.72,4.36s-16.61,1.66-24.94,1.81c-8.33.15-16.01-.14-23.96-1.02-7.26-.81-14.5-2.12-21.5-4.21-6.13-1.83-12.13-4.28-17.55-7.72-2.42-1.54-4.71-3.28-6.8-5.25-3.41-3.23-6.36-7.02-8.94-10.93-5.73-8.69-9.38-18.49-12.09-28.5s-4.5-19.84-7.07-29.68c-.74-2.85-1.4-5.75-2.79-8.37-1.03-1.95-2.32-3.75-3.71-5.45-3.63-4.46-7.98-8.33-12.44-11.93-5.59-4.52-11.49-8.63-17.52-12.53-6.77-4.37-13.72-8.46-20.79-12.33-7.07-3.87-14.66-7.74-22.15-11.27-7.09-3.34-14.28-6.48-21.58-9.35-6.31-2.48-12.7-4.77-19.22-6.64-2.66-.77-5.35-1.46-8.07-2.02-.62-.13-1.24-.25-1.87-.36-.26-.05-.55-.14-.82-.14-.71,0-1.53.26-2.22.38-3.09.55-6.17,1.17-9.23,1.86-6,1.34-11.94,2.94-17.79,4.8-2.81.89-5.65,1.78-8.37,2.89-2.3.94-4.37,2.27-5.04,4.81-.33,1.25-.35,2.56-.43,3.84-.09,1.61-.19,3.22-.28,4.83-.19,3.26-.38,6.52-.57,9.77s-.38,6.43-.57,9.65c-.16,2.65-.68,5.68.98,7.99,1.45,2.01,3.8,3.22,5.93,4.38,2.48,1.35,4.91,2.77,7.25,4.36,4.41,2.99,8.5,6.45,12.07,10.4,7.25,8.03,12.32,18.42,11.8,29.44-.25,5.34-1.86,10.56-4.6,15.15-2.34,3.91-5.44,7.34-8.94,10.26-3.86,3.22-8.22,5.81-12.82,7.81-2.52,1.09-5.12,2-7.77,2.74-1.01.28-1.98.83-2.92,1.29-1.01.49-2.01.99-3,1.51-8.65,4.54-16.72,10.14-24.61,15.86-8.48,6.15-16.78,12.55-25.27,18.69-7.85,5.68-15.88,11.23-24.5,15.69-4.64,2.4-9.49,4.46-14.37,6.31-5.53,2.1-11.27,3.81-17.17,4.41-5.9.6-12.01-.08-17.76-2.01-5.28-1.77-10.24-4.38-15.19-6.92-9.52-4.9-18.9-10.08-27.95-15.8-8.62-5.45-17.01-11.41-24.52-18.33-6.4-5.9-12.35-12.63-16.14-20.54-3.38-7.04-4.64-14.92-2.84-22.58,2-8.51,7.37-15.73,12.97-22.25,5.98-6.96,12.58-13.4,18.13-20.72,5.05-6.64,9.25-14.29,9.48-22.82.23-8.53-3.29-16.56-8.32-23.22-5.95-7.87-13.94-14.11-22.53-18.86-9.61-5.31-20.2-8.81-30.89-11.19-11.28-2.51-22.82-3.76-34.35-4.16-9.87-.34-19.75-.05-29.59.73l.1.74c.46-.08,1.2-.07,1.61-.32.17-.1.25-.34.13-.51-.21-.32-.77-.12-1.07-.07-.68.11-1.35.23-2.03.34-2.28.39-4.57.78-6.85,1.17-2.82.48-5.64.97-8.46,1.45-2.46.42-4.91.84-7.37,1.26-.83.14-1.65.28-2.48.42-.37.06-.88.06-1.22.2-.06.03.07,0,.13,0l.26.26h0c-.06.14-.11.28-.17.42-.16.09-.02.01.06,0,.13,0,.27-.05.4-.07.55-.1,1.11-.2,1.67-.3,2.38-.42,4.77-.84,7.15-1.26,2.25-.4,4.49-.79,6.74-1.18.41-.07.32-.77-.1-.74-14.32,1.12-28.54,3.57-42.37,7.42-3.37.94-6.72,1.97-10.05,3.08-1.62.54-3.25,1.09-4.84,1.7-1.37.53-2.77,1.13-3.89,2.12-2.37,2.11-2.11,5.61-2.28,8.5-.22,3.79-.45,7.59-.67,11.38-.22,3.79-.45,7.59-.67,11.38-.1,1.66-.32,3.38-.07,5.04.21,1.41.87,2.63,1.87,3.64,2.12,2.14,5.07,3.35,7.64,4.84,2.83,1.63,5.56,3.43,8.15,5.42,9.88,7.55,18.23,18.19,20.12,30.77.98,6.55,0,13.32-2.9,19.27-2.32,4.74-5.76,8.86-9.74,12.29-4.5,3.87-9.73,6.89-15.25,9.05-2.38.93-4.84,1.81-7.37,2.25-1.37.24-2.74.48-4.11.72-6.71,1.19-13.42,2.43-20.13,3.66-8.24,1.5-16.49,2.99-24.74,4.41-9.14,1.58-18.3,3.08-27.48,4.47-9.18,1.39-19.22,2.79-28.86,3.93-9.64,1.14-18.76,2.04-28.17,2.66-8.62.58-17.27.91-25.91.76-7.36-.12-14.75-.56-22.01-1.81-5.56-.95-11.21-2.35-16.2-5.05-3.16-1.71-5.87-4.09-8.36-6.67-3.93-4.06-7.1-8.81-9.3-14.01-4.22-9.95-4.79-21.02-3.68-31.65,1.33-12.85,5.2-25.26,7.2-38,2.03-12.98,2.19-27.05-4.15-38.96-4.69-8.82-12.76-15.67-21.36-20.5-9.61-5.4-20.62-8.62-31.67-8.67-5.43-.02-10.87.76-16.05,2.43l.42.55c.72-1.56-3.19-1.34-3.83-1.34-3.57.02-7.14.37-10.69.69-4.5.41-9,.87-13.5,1.3-3.94.38-7.89.76-11.85.94-1.29.06-2.59.11-3.89.03-.43-.03-.76-.05-1.16-.14-.07-.02-.14-.03-.2-.06-.1-.03-.11-.04-.11-.04-.04-.02-.08-.05-.12-.07.04.02.03,0,.03.02,0,.04.02.07,0,.11.14-.31-.09-.61-.42-.55-6.79,1.16-13.53,2.62-20.18,4.41-3.23.87-6.44,1.81-9.63,2.84-1.54.5-3.07,1.01-4.6,1.54s-2.95,1-4.35,1.69c-1.2.59-2.33,1.37-3.06,2.52s-.93,2.39-1.04,3.66c-.3,3.43-.41,6.89-.62,10.32-.21,3.43-.42,7.18-.63,10.76-.1,1.77-.21,3.55-.31,5.32-.1,1.63-.31,3.31-.09,4.94.38,2.79,2.51,4.54,4.79,5.92,2.6,1.58,5.31,2.92,7.87,4.56,4.96,3.18,9.57,6.95,13.54,11.32,8.04,8.84,13.45,20.69,11.61,32.84-1.64,10.86-8.86,19.71-17.86,25.58-4.87,3.18-10.25,5.54-15.85,7.09-.9.25-1.71.92-2.51,1.4-.86.52-1.72,1.02-2.59,1.52-1.79,1.02-3.6,1.99-5.43,2.93-8.36,4.27-17.09,7.8-25.96,10.83-9.75,3.33-19.71,6.05-29.79,8.14s-20.52,3.59-30.91,4.14c-9.5.5-19.11.26-28.49-1.4-4.2-.74-8.36-1.78-12.38-3.23-5.18-1.86-10.18-4.35-15.03-6.93-10.28-5.47-19.93-12.08-28.77-19.66-8.24-7.07-15.77-14.95-22.6-23.39-3.35-4.14-6.53-8.41-9.55-12.8-2.77-4.01-5.3-8.17-7.95-12.26-4.66-7.16-10.41-13.6-16.3-19.77-7.01-7.34-14.39-14.32-21.82-21.22-7.43-6.9-15.6-14.31-23.3-21.57-6.97-6.57-13.87-13.24-20.27-20.38-2.74-3.06-5.39-6.2-7.82-9.52-.25-.35-.49-.7-.75-1.04-.41-.53-1.28-.29-1.89-.29-1.83,0-3.66,0-5.48,0-3.57,0-7.14.03-10.72.07-14.36.15-28.72.51-43.07,1.1-6.88.28-13.75.61-20.63.99-.15,0-.33.11-.36.28-.49,2.61-.7,5.27-.87,7.91-.23,3.56-.33,7.12-.39,10.68-.14,8.33-.02,16.66.2,24.99.19,6.97.44,13.93.85,20.89.08,1.28.21,2.57.18,3.86-.08,3.24-.15,6.47-.2,9.71-.1,6.56-.13,13.12-.12,19.68.03,13.04.24,26.08.47,39.12.23,13.04.48,25.99.6,38.99.12,13,.1,26.07-.22,39.11-.28,11.49-.55,22.98-.72,34.47-.17,11.49-.3,23.59-.38,35.39-.08,12.03-.13,24.07-.15,36.1-.03,12.14-.04,24.28-.05,36.42s-.03,24.24-.07,36.35c-.04,11.97-.11,23.93-.22,35.9-.11,11.97-.26,23.29-.48,34.94-.22,11.8-.55,23.6-.85,35.4-.31,12.43-.61,24.87-.88,37.3-.27,12.52-.52,25.04-.74,37.56-.22,12.56-.41,25.11-.56,37.67-.15,12.56-.27,25.18-.34,37.77-.07,12.59-.1,25.22-.07,37.84.03,12.62.1,25.26.23,37.89.13,12.64.32,25.28.58,37.91.25,12.6.57,25.2.96,37.8.39,12.6.85,25.27,1.39,37.9.54,12.59,1.15,25.17,1.85,37.75.7,12.58,1.48,25.21,2.36,37.81.87,12.58,1.84,25.16,2.91,37.73,1.06,12.55,2.23,25.09,3.5,37.62s2.64,25.01,4.13,37.5c1.48,12.42,3.07,24.82,4.78,37.21,1.71,12.39,3.53,24.73,5.48,37.06.98,6.18,1.99,12.35,3.03,18.52.27,1.57.53,3.14.8,4.71s.58,3.08.72,4.63c.29,3.18.57,6.37.86,9.56,1.12,12.6,2.22,25.21,3.3,37.81,1.08,12.62,2.13,25.24,3.15,37.86s2.01,25.2,2.97,37.81c.96,12.59,1.88,25.17,2.77,37.76.89,12.59,1.74,25.15,2.55,37.73.81,12.58,1.59,25.14,2.32,37.71.73,12.52,1.42,25.05,2.06,37.58.65,12.57,1.25,25.13,1.8,37.7.55,12.57,1.06,25.06,1.51,37.6.45,12.58.86,25.16,1.21,37.74.35,12.58.65,25.18.89,37.78.24,12.61.42,25.22.55,37.82.12,12.63.19,25.26.19,37.88,0,12.62-.06,25.3-.19,37.96-.13,12.66-.32,25.36-.58,38.04-.26,12.67-.59,25.34-.99,38.01-.4,12.75-.88,25.49-1.42,38.24-.55,12.75-1.17,25.49-1.86,38.23-.7,12.83-1.48,25.66-2.33,38.48-.86,12.88-1.8,25.75-2.82,38.62-1.02,12.93-2.13,25.86-3.32,38.78-1.19,12.99-2.47,25.97-3.84,38.94-1.35,12.89-1.84,25.83-1.99,38.79-.15,12.91-.04,25.81-.4,38.72-.33,12.03-1.18,24.04-2.27,36.02-1.09,11.98-2.5,24.55-3.89,36.8-1.42,12.51-2.85,25.02-4.06,37.56-1.22,12.59-2.21,25.2-2.75,37.83-.27,6.3-.42,12.6-.42,18.91,0,3.15.28,6.29.27,9.44-.01,2.94-.16,5.87-.34,8.8s-.4,5.71-.56,8.57c-.08,1.47-.15,2.95-.19,4.42-.04,1.3-.14,2.65.05,3.94.75,5.08,7.71,4.85,11.56,4.94,8.79.2,17.58.36,26.36.5,9.92.16,19.84.29,29.76.41,10.05.12,20.1.22,30.15.29,9.06.07,18.11.12,27.17.15,9.81.03,19.62-.05,29.43-.1,12.95-.07,25.9-.09,38.86-.08,12.85.01,25.7.06,38.54.14,12.77.08,25.54.18,38.31.3,12.72.12,25.44.26,38.15.41s25.39.31,38.08.46c12.65.16,25.31.31,37.96.46,12.72.15,25.44.28,38.17.4,12.73.12,25.47.22,38.2.29,12.86.07,25.71.12,38.57.12,12.96,0,25.93-.03,38.89-.1,5.86-.04,11.71-.1,17.56-.03,4.72.05,9.44.11,14.17.16,9.61.1,19.23.2,28.84.28,9.61.08,19.66.17,29.49.24,10,.08,20,.15,29.99.21,9.99.06,20.43.12,30.64.18,10.35.05,20.7.1,31.05.15,10.54.05,21.07.09,31.61.12,10.67.04,21.35.07,32.02.1,10.79.03,21.59.05,32.38.08s21.8.04,32.7.06c10.99.02,21.98.03,32.97.04,11.03.01,22.06.02,33.09.03,11.03.01,22.25.01,33.38.02,11.13,0,22.27,0,33.4.01,11.13.01,22.39,0,33.59,0s22.42,0,33.63,0c11.21,0,22.41,0,33.62,0,11.21,0,22.38,0,33.56,0s22.31,0,33.46.01c11.15.01,22.21.01,33.31.02s22.01.02,33.01.03,21.92.03,32.87.05c10.83.02,21.65.04,32.48.06,10.75.02,21.5.05,32.25.08,10.75.03,21.24.07,31.86.11,10.48.04,20.96.08,31.43.13,10.32.05,20.64.1,30.96.16,10.32.06,20.29.12,30.43.19,9.92.07,19.84.14,29.77.22,9.93.08,19.5.17,29.24.26s18.99.19,28.49.3c5.49.06,10.98.06,16.47-.02,6.47-.09,12.94-.18,19.42-.26,12.98-.17,25.96-.33,38.94-.48,12.98-.15,25.85-.28,38.77-.4,12.87-.12,25.75-.22,38.62-.3,12.83-.08,25.66-.14,38.5-.18s25.51-.05,38.27-.03,25.54.06,38.3.13c12.76.07,25.41.18,38.12.32,12.73.14,25.46.32,38.2.53,12.73.22,25.45.47,38.17.77,12.72.3,25.45.64,38.17,1.02,12.73.39,25.46.82,38.19,1.3,12.75.48,25.49,1.01,38.23,1.6,12.77.59,25.53,1.23,38.3,1.92,6.35.35,12.71.71,19.06,1.08,3.03.18,6.05.39,9.08.43,2.73.04,5.46.08,8.19.12,10.94.16,21.87.33,32.81.49,11.04.16,22.08.33,33.12.49,11.21.16,22.41.33,33.62.49,11.21.16,22.66.33,33.99.49s22.89.33,34.34.5c11.55.17,23.11.34,34.66.51,11.66.17,23.31.35,34.97.53,11.66.18,23.43.36,35.14.54,11.71.18,23.67.37,35.51.57,11.84.2,23.76.39,35.63.59s23.98.41,35.96.62,24.11.43,36.16.65c12.11.22,24.22.45,36.33.68,12.16.23,24.32.47,36.48.72,12.16.25,24.4.5,36.6.76s24.39.53,36.59.8c12.26.28,24.53.56,36.79.85,12.24.29,24.49.59,36.73.89,12.3.31,24.59.62,36.89.95,12.3.33,24.6.66,36.9,1.01,12.3.34,24.6.7,36.9,1.06,12.29.36,24.58.74,36.87,1.13,12.29.39,24.54.78,36.82,1.19,12.25.41,24.5.83,36.74,1.26,12.18.43,24.35.87,36.53,1.33s24.35.92,36.53,1.41c12.09.48,24.18.97,36.27,1.48s24.15,1.03,36.23,1.57c12.01.53,24.03,1.08,36.04,1.65,11.95.56,23.89,1.13,35.83,1.74,13.01.66,26.02,1.46,39.03,2.22,13.01.76,26.03,1.55,39.04,2.37,12.97.81,25.93,1.64,38.9,2.5s26,1.74,39,2.65c12.96.9,25.91,1.83,38.86,2.78,12.95.95,25.98,1.93,38.97,2.92,12.99.99,25.97,2.02,38.95,3.06,12.98,1.04,25.95,2.11,38.93,3.2,12.97,1.09,25.94,2.21,38.9,3.34,12.96,1.14,25.92,2.3,38.88,3.48,10.89,1,21.78,2.01,32.67,3.04.19.02.39-.19.38-.38-.8-11.33-.8-22.71.03-34.03.42-5.72,1.04-11.43,1.87-17.1.41-2.82.88-5.64,1.39-8.45.26-1.45.54-2.89.83-4.33.12-.6.4-1.32.4-1.92,0-.47-.45-.92-.71-1.3-5.21-7.86-10.33-15.78-15.35-23.76s-9.95-16.04-14.78-24.15c-4.84-8.12-9.58-16.29-14.22-24.52-4.65-8.24-9.21-16.53-13.67-24.87-4.47-8.35-8.84-16.75-13.11-25.2-4.27-8.45-8.47-16.96-12.56-25.51-4.09-8.55-8.13-17.23-12.06-25.9-3.93-8.67-7.74-17.35-11.47-26.09-3.73-8.74-7.4-17.59-10.97-26.45-3.57-8.86-7.02-17.69-10.39-26.59-3.37-8.9-6.66-17.84-9.86-26.81s-6.31-17.98-9.33-27.02c-3.02-9.04-5.96-18.11-8.8-27.2-2.85-9.1-5.61-18.22-8.28-27.37-2.67-9.15-5.26-18.32-7.76-27.52-2.5-9.2-4.91-18.41-7.24-27.65-2.33-9.24-4.57-18.49-6.73-27.76-2.16-9.27-4.23-18.55-6.22-27.85-1.99-9.3-3.89-18.6-5.72-27.93-1.83-9.33-3.56-18.64-5.21-27.99-1.65-9.35-3.23-18.67-4.72-28.03-1.49-9.36-2.89-18.69-4.22-28.05s-2.58-18.82-3.75-28.25c-1.17-9.43-2.24-18.68-3.24-28.03s-1.91-18.66-2.75-28c-.84-9.34-1.59-18.62-2.27-27.94-.68-9.32-1.27-18.58-1.79-27.87s-.96-18.52-1.32-27.78c-.36-9.26-.64-18.45-.84-27.67-.2-9.22-.33-18.36-.38-27.55-.05-9.19-.02-18.27.09-27.4.11-9.13.29-18.16.55-27.24.26-9.08.59-18.04,1.01-27.06s.9-17.91,1.46-26.86,1.2-17.76,1.91-26.64c.71-8.88,1.49-17.61,2.36-26.4.87-8.79,1.79-17.44,2.8-26.15s2.09-17.31,3.25-25.96c1.47-10.93,3.02-21.86,4.64-32.77s3.34-22.16,5.1-33.22c1.76-11.06,3.59-22.14,5.46-33.19,1.87-11.05,3.82-22.12,5.8-33.16,1.99-11.05,4.03-22.1,6.11-33.13s4.22-22.08,6.39-33.11c2.17-11.04,4.39-22.06,6.64-33.08s4.54-22.05,6.86-33.06c2.32-11.01,4.67-22.04,7.05-33.05,2.38-11.01,4.78-22.03,7.21-33.03,2.43-11,4.87-22.02,7.34-33.02s4.95-22.01,7.44-33.01,5-22,7.51-33c2.51-11,5.03-22,7.55-33s5.05-22,7.57-33c2.52-11,5.04-22,7.55-33,2.51-11,5.01-22,7.51-33s4.97-22,7.43-33.01c2.46-11.01,4.9-22.01,7.33-33.02,2.42-11.01,4.82-22.02,7.19-33.03,2.37-11.01,4.72-22.02,7.03-33.05,2.31-11.03,4.59-22.03,6.84-33.06,2.25-11.03,4.46-22.13,6.64-33.2,2.16-11.03,4.29-22.06,6.36-33.11,2.07-11.05,4.1-22.08,6.08-33.13s3.9-22.1,5.77-33.16c1.87-11.06,3.68-22.12,5.43-33.19,1.75-11.07,3.44-22.14,5.06-33.22,1.62-11.08,3.16-22.07,4.64-33.12.74-5.55,1.47-11.09,2.17-16.64.42-3.34.73-6.67.82-10.04.18-6.6-.32-13.22-1.36-19.74-1.1-6.91-2.79-13.72-4.94-20.38-2.27-7.05-5.05-13.93-8.21-20.62-3.34-7.1-7.11-14-11.21-20.69-4.29-7.02-8.95-13.82-13.89-20.4-4.94-6.58-10.52-13.4-16.19-19.75-5.67-6.35-11.96-12.87-18.31-18.94-6.35-6.07-13.15-12.1-20.06-17.76s-14.08-11.1-21.43-16.23c-7.35-5.13-14.96-10.02-22.73-14.57-7.77-4.55-15.48-8.64-23.48-12.45-7.21-3.43-14.55-6.56-22.02-9.35-.45-.17-.65.56-.2.72h0l-.13.15Z"/>
  </g>
  <g>
    <path class="cls-1" d="M3808.81,652.77c6.65-192.58,16.56-384.3,31.1-572.78l-274.84-3.84-.93,66.33c29.28-2.29,47.19,98.45-36.19,102.86-85.99,4.55-58.14-100.6-27.08-105.87l1.02-64.21s-278.59-3.89-307.22-4.29c-.16,11.53-.89,64.11-.89,64.11,36.62-3.35,53.56,98.61-36.19,102.86-79.35,3.76-48.38-106.09-27.08-105.87l1.02-64.21s-281.28-3.93-307.62-4.29l-.92,66.33c33.38.47,51.35,104.45-36.19,102.86-85.9-1.56-61.6-103.98-27.08-105.87l1.02-64.21s-273.85-3.82-306.43-4.28l-.92,66.33c29.27.9,45,102.36-36.19,102.86-86.58.53-55.63-102.68-27.08-105.87l1.02-64.21s-281.28-3.93-307.61-4.3c-.16,11.53-.89,64.11-.89,64.11,30.54-.47,45.3,103.38-36.19,102.86-81.73-.51-53.61-102.98-27.08-105.87l1.02-64.21s-273.85-3.82-306.43-4.28l-.92,66.33c30.16,2.58,48.98,102.98-36.19,102.86-85.43-.12-58.26-100.34-27.08-105.87l1.02-64.21s-275.56-3.85-306.73-4.28c-.15,10.84-.9,64.41-.9,64.41,28.64,2.66,47.65,105.58-36.19,102.86-84.9-2.76-54.15-102.4-27.08-105.87l1.02-64.21s-279.24-3.9-307.32-4.29c-.16,11.21-.9,64.26-.9,64.26,36.74.61,55.96,101.07-36.19,102.86-85.71,1.67-56.59-101.12-27.08-105.87l1.02-64.21s-287.61-4.01-308.4-4.3c-.07,4.91-.12,8.54-.12,8.54l-.93,66.33c34.43.52,49.89,103.86-36.19,102.86-96.78-1.12-62.22-103.73-27.08-105.87l1.02-64.21-309.59-4.32c-2.2,64.14-14.61,107.18-16.81,171.32-9.05,263.24-18.09,526.82.89,789.93,8.23,114.13,21.73,228.04,31.64,342.1,31.28,360.02,32.06,742.47-8.2,1101.55,1053.44-13.75,2107.8-.64,3160.64,39.31,100.4,3.81,303.96,11.44,404.39,9.39-.74-30.51,3.71-183.59,3.01-214.11-5.08-221.63-7.84-443.28-8.28-664.92-.62-312.32,1.46-633.08,12.46-951.5l-.08.08Z"/>
    <path class="cls-4" d="M3811.81,652.77c2.59-74.88,5.67-149.75,9.34-224.58,3.65-74.35,7.88-148.68,12.8-222.96,2.76-41.76,5.75-83.51,8.96-125.24.13-1.63-1.48-2.98-3-3-30.91-.43-61.82-.86-92.74-1.29-49.32-.69-98.64-1.38-147.95-2.07-11.38-.16-22.77-.32-34.15-.48-1.64-.02-2.98,1.39-3,3-.31,22.11-.62,44.22-.93,66.33-.02,1.55,1.39,3.1,3,3,14.29-.87,19.87,21.31,21.02,31.83,2.14,19.54-4,40.43-20.02,52.74-10.43,8.01-23.61,11.49-36.56,12.26-12.27.73-25.34-.51-36.03-7.07-16.97-10.41-21.04-31.54-18.19-49.98,1.54-9.98,4.87-19.85,10.21-28.45,3.89-6.27,9.46-13.02,17.1-14.44,1.29-.24,2.18-1.66,2.2-2.89.34-21.4.68-42.81,1.02-64.21.03-1.64-1.4-2.98-3-3-31.92-.45-63.83-.89-95.75-1.34l-161.88-2.26c-16.53-.23-33.06-.46-49.59-.69-1.64-.02-2.98,1.39-3,3-.3,21.37-.6,42.74-.89,64.11-.02,1.53,1.39,3.12,3,3,15.85-1.23,23.79,17.27,25.86,30.2,3.12,19.52-3.73,40.24-19.42,52.64-10.46,8.27-23.74,12.28-36.85,13.6-12.21,1.22-25.33.64-35.97-6.13-16.94-10.78-19.69-33.23-17.42-51.54,1.23-9.91,3.93-19.97,8.47-28.9,2.3-4.52,6.92-12.79,12.06-12.87,1.64-.02,2.97-1.36,3-3,.34-21.4.68-42.81,1.02-64.21.03-1.64-1.4-2.98-3-3-32.32-.45-64.63-.9-96.95-1.35-53.95-.75-107.9-1.51-161.85-2.26-16.27-.23-32.55-.45-48.82-.68-1.64-.02-2.98,1.39-3,3-.25,22.11-.62,44.22-.92,66.33-.02,1.66,1.39,2.95,3,3,15.1.44,21.94,21.08,23.78,33.13,2.89,18.92-2.41,39.79-17.93,51.97-9.79,7.69-22.34,10.95-34.58,11.62-13.47.74-27.83-.82-39.78-7.49-18.13-10.12-25.07-30.46-23-50.32,1.05-10.09,4.34-20.24,9.94-28.73,4.12-6.25,10.4-12.65,18.3-13.19,1.64-.11,2.97-1.28,3-3,.34-21.4.68-42.81,1.02-64.21.03-1.64-1.4-2.98-3-3-31.54-.44-63.07-.88-94.61-1.32l-161.12-2.25c-16.9-.24-33.8-.47-50.7-.71-1.64-.02-2.98,1.39-3,3-.25,22.11-.62,44.22-.92,66.33-.02,1.68,1.4,2.92,3,3,14.21.69,19.35,23.42,20.36,34.21,1.81,19.33-3.97,40.44-20.32,52.26-10.3,7.45-23.08,10.22-35.62,10.38-12.48.17-25.58-1.8-36.16-8.85-16.35-10.9-20.28-31.76-17.24-50.04,1.62-9.77,4.94-19.42,10.25-27.81,3.35-5.3,8.68-12.29,15.44-13.16,1.63-.21,2.97-1.21,3-3,.34-21.4.68-42.81,1.02-64.21.03-1.64-1.4-2.98-3-3-32.32-.45-64.63-.9-96.95-1.35-53.95-.75-107.9-1.51-161.85-2.26-16.27-.23-32.55-.45-48.82-.68-1.64-.02-2.98,1.39-3,3-.3,21.37-.6,42.74-.89,64.11-.02,1.62,1.39,3,3,3,14.3.02,19.69,21.89,20.88,32.7,2.05,18.72-2.97,39.19-17.74,51.79-9.11,7.77-21.01,11.38-32.79,12.18-12.68.85-26.3-.61-37.37-7.29-17.17-10.36-21.92-31.11-19.82-49.87,1.12-9.99,4.09-20.07,9.06-28.84,2.95-5.21,7.91-12.83,14.51-13.68,1.63-.21,2.97-1.21,3-3,.34-21.4.68-42.81,1.02-64.21.03-1.64-1.4-2.98-3-3-31.54-.44-63.07-.88-94.61-1.32-53.71-.75-107.41-1.5-161.12-2.25-16.9-.24-33.8-.47-50.7-.71-1.64-.02-2.98,1.39-3,3-.25,22.11-.62,44.22-.92,66.33-.02,1.74,1.4,2.84,3,3,14.21,1.45,20.28,22.91,21.81,34.26,2.53,18.84-2.73,39.56-18.47,51.41-9.88,7.43-22.32,10.49-34.5,11.08-12.93.62-26.72-.84-38.12-7.41-17.59-10.13-23.17-30.59-20.57-49.71,1.36-10.02,4.74-19.98,10.16-28.54,3.96-6.25,9.6-12.73,17.21-14.2,1.29-.25,2.18-1.65,2.2-2.89.34-21.4.68-42.81,1.02-64.21.03-1.64-1.4-2.98-3-3-31.81-.44-63.62-.89-95.43-1.33-53.62-.75-107.23-1.5-160.85-2.24-16.82-.23-33.64-.47-50.46-.7-1.64-.02-2.98,1.39-3,3-.29,21.47-.6,42.94-.9,64.41-.02,1.75,1.4,2.82,3,3,5.86.65,10.24,6.34,13.01,11.02,4.2,7.09,6.59,15.3,7.69,23.43,2.5,18.47-1.85,39.27-16.97,51.43-9.34,7.52-21.44,10.53-33.23,10.97-13.14.5-27.21-1.31-38.66-8.21-17.46-10.52-22.62-31.23-19.84-50.38,1.43-9.87,4.7-19.68,9.97-28.18,3.49-5.63,8.56-12.16,15.57-13.19,1.3-.19,2.18-1.69,2.2-2.89.34-21.4.68-42.81,1.02-64.21.03-1.64-1.4-2.98-3-3-32.18-.45-64.36-.9-96.53-1.35-53.86-.75-107.72-1.5-161.58-2.26-16.4-.23-32.81-.46-49.21-.69-1.64-.02-2.98,1.39-3,3-.3,21.42-.6,42.84-.9,64.26-.02,1.66,1.39,2.95,3,3,15.8.47,24.13,19.09,26.54,32.33,3.45,18.98-2.72,39.33-18.28,51.3-10.44,8.03-23.68,11.7-36.64,12.82-12.96,1.12-27.72.49-39.73-5.91-18.35-9.78-23.81-30.7-21.2-50.13,1.37-10.23,4.74-20.43,10.15-29.24,3.76-6.12,9.18-12.95,16.68-14.28,1.3-.23,2.18-1.66,2.2-2.89.34-21.4.68-42.81,1.02-64.21.03-1.64-1.4-2.98-3-3-32.95-.46-65.9-.92-98.85-1.38-54.34-.76-108.68-1.52-163.02-2.28-15.51-.22-31.02-.43-46.53-.65-1.64-.02-2.98,1.39-3,3-.35,24.96-.7,49.92-1.05,74.88-.02,1.66,1.39,2.95,3,3,15.82.47,22.62,21.92,24.03,34.61,2.21,19.9-4.58,41.24-21.9,52.59-11.32,7.42-24.98,9.8-38.32,9.66-13.34-.14-28.25-2.32-40.12-9.71-17.2-10.71-22.59-30.97-18.66-50.05,3.09-14.98,13.73-38.78,31.69-40.11,1.64-.12,2.97-1.28,3-3,.34-21.4.68-42.81,1.02-64.21.03-1.64-1.4-2.98-3-3-35.05-.49-70.1-.98-105.15-1.47-55.43-.77-110.85-1.55-166.28-2.32-12.72-.18-25.44-.36-38.15-.53-1.66-.02-2.94,1.39-3,3-1.28,35.42-6.52,70.33-11.05,105.43-4.83,37.47-6.08,74.93-7.36,112.65-2.74,80.58-5.32,161.17-6.95,241.78-1.62,80.59-2.29,161.21-1.19,241.81,1.1,80.63,3.96,161.24,9.38,241.7,5.42,80.46,13.66,160.98,21.65,241.36,7.73,77.76,14.83,155.56,20.12,233.52,5.26,77.58,9.05,155.25,11.34,232.98,2.29,77.7,3.07,155.44,2.28,233.17-.8,78.25-3.2,156.49-7.34,234.63-4.08,77-9.85,153.91-17.51,230.64-1.84,18.43-3.8,36.85-5.85,55.25-.18,1.6,1.52,3.02,3,3,123.12-1.61,246.24-2.85,369.37-3.72,122.47-.87,244.95-1.37,367.43-1.52,123.15-.14,246.3.08,369.45.67,122.49.59,244.98,1.54,367.46,2.85,122.48,1.31,244.97,2.99,367.44,5.02,123.14,2.05,246.27,4.46,369.4,7.25,123.13,2.79,244.9,5.9,367.34,9.39,122.76,3.5,245.51,7.37,368.25,11.6,102.21,3.52,204.4,7.57,306.61,11.15,87.27,3.06,174.61,5.97,261.94,6.32,16.78.07,33.56.02,50.34-.32,1.59-.03,3.04-1.35,3-3-.71-30.47.56-61.07,1.17-91.53.72-35.96,1.67-71.92,1.89-107.88.13-21.54-.7-43.08-1.16-64.61-.72-33.94-1.39-67.89-2.01-101.83-1.23-67.89-2.25-135.78-3.04-203.67s-1.38-135.78-1.74-203.67c-.36-67.11-.49-134.22-.49-201.33,0-66.73.15-133.46.5-200.18.36-67.18.92-134.36,1.75-201.54.83-67.43,1.93-134.86,3.35-202.29,1.42-67.48,3.17-134.96,5.31-202.42.52-16.52,1.07-33.04,1.64-49.56.13-3.86-5.87-3.86-6,0-2.33,67.44-4.26,134.9-5.84,202.36-1.59,67.45-2.83,134.91-3.8,202.38-.96,67.26-1.65,134.52-2.11,201.78-.46,67.26-.7,133.71-.78,200.57-.08,66.77-.02,133.55.23,200.32.26,67.89.73,135.78,1.42,203.67s1.6,135.78,2.72,203.67c1.12,67.36,2.7,134.72,3.99,202.08.59,30.74-.62,61.58-1.24,92.32-.72,35.8-1.68,71.6-1.85,107.41-.02,4.66-.04,9.32.07,13.98l3-3c-83.18,1.66-166.52-1.29-249.65-3.91-93.5-2.95-186.96-6.76-280.45-10.12-123.06-4.42-246.14-8.47-369.22-12.16-122.43-3.67-244.87-6.97-367.32-9.91-122.45-2.94-244.92-5.52-367.39-7.73-123.14-2.23-246.28-4.09-369.43-5.58-122.48-1.49-244.97-2.61-367.46-3.37-122.82-.76-245.64-1.16-368.46-1.19-122.81-.03-245.62.3-368.43,1-122.47.7-244.93,1.75-367.39,3.17-29.95.35-59.89.72-89.84,1.11l3,3c8.54-76.33,15.18-152.87,20.07-229.52,4.96-77.64,8.16-155.39,9.74-233.17,1.59-78.07,1.56-156.18,0-234.25-1.55-77.64-4.61-155.25-9.14-232.77-4.55-77.82-10.68-155.54-18.1-233.14-7.63-79.74-16.24-159.4-22.8-239.24-6.63-80.67-10.71-161.53-12.72-242.44-1.99-80.25-2.04-160.54-.94-240.8,1.11-80.95,3.38-161.88,6.01-242.8,1.3-39.91,1.86-79.96,4.23-119.82,2.07-34.76,7.87-69.07,11.93-103.61,2.08-17.72,3.56-35.5,4.21-53.34l-3,3c35.05.49,70.1.98,105.15,1.47,55.43.77,110.85,1.55,166.28,2.32,12.72.18,25.44.36,38.15.53l-3-3c-.34,21.4-.68,42.81-1.02,64.21l3-3c-18.54,1.38-30.61,21.51-35.62,37.39-6.33,20.05-4.07,43.82,12.31,58.52,10.35,9.29,23.99,13.51,37.56,15.14,15.61,1.88,32.19.98,46.68-5.57,21.84-9.87,33.29-32.5,32.77-55.87-.39-17.59-8.66-45.95-30.42-46.61l3,3c.35-24.96.7-49.92,1.05-74.88l-3,3c37.9.53,75.81,1.06,113.71,1.59,52.95.74,105.91,1.48,158.86,2.22,11.94.17,23.89.33,35.83.5l-3-3c-.34,21.4-.68,42.81-1.02,64.21l2.2-2.89c-17.41,3.09-26.67,26.67-29.93,41.59-4.56,20.89-1.45,45.22,16.56,58.97,10.66,8.14,24.31,10.98,37.48,11.2,15.31.27,31.36-2.27,44.84-9.86,19.93-11.22,30.31-33.19,28.32-55.72-1.59-18.01-12.01-42.65-33.2-43.28l3,3c.3-21.42.6-42.84.9-64.26l-3,3c38.87.54,77.73,1.08,116.6,1.63,51.98.73,103.96,1.45,155.95,2.18,11.59.16,23.18.32,34.77.49l-3-3c-.34,21.4-.68,42.81-1.02,64.21l2.2-2.89c-7.25,1.06-12.95,7.08-17.01,12.73-5.67,7.88-9.41,17.3-11.56,26.73-4.7,20.56-1.85,44.63,15.27,58.85,10.5,8.71,23.98,12.32,37.38,13.26s28.79-.72,41.13-7.81c19.41-11.15,27.37-33.69,26.05-55.18-.97-15.8-7.72-43.53-27.19-45.68l3,3c.3-21.47.6-42.94.9-64.41l-3,3c39.23.55,78.47,1.1,117.7,1.64,51.54.72,103.07,1.44,154.61,2.16,11.47.16,22.95.32,34.42.48l-3-3c-.34,21.4-.68,42.81-1.02,64.21l2.2-2.89c-17.45,3.36-27.02,25.52-30.44,40.81-4.61,20.59-1.32,44.43,15.99,58.35,10.36,8.33,23.61,11.7,36.67,12.44,14.37.82,29.53-1.08,42.31-8.07,19.92-10.91,29.06-33.14,27.82-55.15-.92-16.4-8.38-43.44-28.29-45.47l3,3c.31-22.11.68-44.22.92-66.33l-3,3c39.29.55,78.58,1.1,117.88,1.65,51.52.72,103.05,1.44,154.57,2.16,11.33.16,22.66.32,33.99.47l-3-3c-.34,21.4-.68,42.81-1.02,64.21l3-3c-16.83,2.15-25.06,25.18-28.07,39.19-4.41,20.48-2.06,44.96,14.66,59.52,19.72,17.18,54.58,17.47,76.52,4.47,19.48-11.55,28.24-34.26,27.43-56.18-.57-15.41-7.15-43.96-27.26-43.99l3,3c.3-21.37.6-42.74.89-64.11l-3,3c38.59.54,77.18,1.08,115.77,1.62,52.2.73,104.4,1.46,156.61,2.19,11.75.16,23.5.33,35.24.49l-3-3c-.34,21.4-.68,42.81-1.02,64.21l3-3c-17,2.19-26.25,23.88-29.97,38.25-5.17,19.98-3.59,43.98,12.2,58.95,9.23,8.75,21.58,12.79,34.01,14.14,14.53,1.58,30.06.08,43.24-6.55,20.74-10.43,30.73-32.96,30.47-55.43-.18-15.77-6.33-45.37-26.69-46.36l3,3c.31-22.11.68-44.22.92-66.33l-3,3c39.29.55,78.58,1.1,117.88,1.65,51.52.72,103.05,1.44,154.57,2.16,11.33.16,22.66.32,33.99.47l-3-3c-.34,21.4-.68,42.81-1.02,64.21l3-3c-18.72,1.3-29.24,22.78-32.79,38.79-4.73,21.33-.37,45.64,17.42,59.85,10.62,8.48,24.07,12.11,37.45,13.02,14.76,1,30.37-.86,43.5-8.07,20.14-11.06,29.51-33.67,28.06-55.97-1.1-16.84-9.56-44-30.36-44.61l3,3c.31-22.11.67-44.22.92-66.33l-3,3c38.59.54,77.18,1.08,115.77,1.62,52.2.73,104.4,1.46,156.61,2.19,11.75.16,23.5.33,35.24.49l-3-3c-.34,21.4-.68,42.81-1.02,64.21l3-3c-6.74.1-11.64,6.42-14.88,11.62-5.11,8.22-8.28,17.8-10.22,27.24-4.19,20.37-3.36,45.78,12.91,60.96,9.1,8.49,21.43,11.85,33.64,12.13,15.13.35,31.13-2.72,44.36-10.28,20.18-11.53,31.26-33.77,29.93-56.77-1.01-17.4-10.91-43.56-32.47-41.89l3,3c.3-21.37.6-42.74.89-64.11l-3,3c38.73.54,77.45,1.08,116.18,1.62,52.06.73,104.13,1.45,156.19,2.18,11.62.16,23.23.32,34.85.49l-3-3c-.34,21.4-.68,42.81-1.02,64.21l2.2-2.89c-17.39,3.22-26.79,25.93-30.31,40.98-4.7,20.09-2.71,44.43,13.99,58.65,9.64,8.21,22.15,11.57,34.6,12.17,14.73.72,30.29-1.69,43.3-8.91,20.48-11.36,30.66-34.05,29.88-56.91-.51-14.82-7.35-44.29-27.39-43.08l3,3c.31-22.11.62-44.22.93-66.33l-3,3c30.91.43,61.82.86,92.74,1.29,49.32.69,98.64,1.38,147.95,2.07,11.38.16,22.77.32,34.15.48l-3-3c-5.69,73.84-10.65,147.73-14.97,221.66-4.36,74.56-8.07,149.15-11.24,223.77-1.8,42.44-3.43,84.89-4.89,127.35-.13,3.86,5.87,3.86,6,0l.04-.12Z"/>
  </g>
</svg>