<?xml version="1.0" encoding="UTF-8"?>
<svg id="Layer_1" data-name="Layer 1" xmlns="http://www.w3.org/2000/svg" viewBox="0 0 489.68 304.95" preserveAspectRatio="none">
  <defs>
    <style>
      .cls-1 {
        fill: #f6bcc9;
      }

      .cls-2 {
        fill: #ffdde3;
      }
    </style>
  </defs>
  <path class="cls-2" d="M296.63,303.95h187.83c2.33,0,4.22-2.23,4.22-4.98V32.2c0-2.75-1.89-4.98-4.22-4.98H183.19c-9.74-.2-15.66-7.3-20.7-17.49-5.04-10.19-24.52-8.63-24.52-8.63,0,0-72.71.59-86.49.39,0,0-17.13-1.47-23.17,8.53-6.05,10-7.31,17.05-21.17,17.2h-1.92c-2.33,0-4.22,2.23-4.22,4.98v266.78c0,2.75,1.89,4.98,4.22,4.98h291.41Z"/>
  <path class="cls-1" d="M484.46,304.95H5.22c-2.88,0-5.22-2.68-5.22-5.98V32.2c0-3.3,2.34-5.98,5.22-5.98h1.92c11.04-.12,13.54-4.63,17.67-12.1.82-1.47,1.66-2.99,2.64-4.62C33.75-.91,50.84.43,51.57.5c13.53.19,85.66-.39,86.39-.4.75-.06,20.14-1.5,25.42,9.18,5.79,11.71,11.72,16.77,19.82,16.94h301.25c2.88,0,5.22,2.68,5.22,5.98v266.78c0,3.3-2.34,5.98-5.22,5.98ZM49.26,2.42c-4.71,0-15.69.82-20.1,8.11-.96,1.6-1.8,3.1-2.6,4.56-4.18,7.55-7.2,13-19.41,13.13h-1.93c-1.78,0-3.22,1.79-3.22,3.98v266.78c0,2.19,1.45,3.98,3.22,3.98h479.24c1.78,0,3.22-1.79,3.22-3.98V32.2c0-2.19-1.45-3.98-3.22-3.98H183.19c-11.28-.23-17.25-9.25-21.6-18.05-4.68-9.46-23.35-8.09-23.54-8.07-.8,0-72.95.59-86.58.4-.05,0-.88-.07-2.21-.07Z"/>
</svg>