<?xml version="1.0" encoding="UTF-8"?>
<svg id="Layer_1" data-name="Layer 1" xmlns="http://www.w3.org/2000/svg" xmlns:xlink="http://www.w3.org/1999/xlink" viewBox="0 0 576.73 681">
  <defs>
    <style>
      .cls-1 {
        fill: none;
      }

      .cls-2 {
        fill: #ff8cbe;
      }

      .cls-3 {
        fill: #f9cbe8;
      }

      .cls-4 {
        clip-path: url(#clippath);
      }
    </style>
    <clipPath id="clippath">
      <rect class="cls-1" width="126.59" height="125.56"/>
    </clipPath>
  </defs>
  <g class="cls-4">
    <g>
      <path class="cls-3" d="M122.42,67.1c-.11-1.03-.44-2.07-.89-3.02-1.07-2.21-2.84-3.98-4.68-5.53-9.3-7.71-21.62-10.59-33.35-13.35,4.76-10.55,10.29-21.65,9.96-33.34-.04-1.7-.26-3.47-1.18-4.91-1.55-2.4-4.83-3.21-7.6-2.62-2.77.59-5.2,2.32-7.41,4.09-8.04,6.53-14.86,14.57-19.96,23.57-8.71-6.71-17.74-14.35-28.7-16.45-3.5-.7-7.56-.63-10.18,1.81-2.62,2.43-2.95,6.49-2.36,10.03,1.81,10.92,10.36,19.44,18,27.26-9.07,5.02-17.37,11.47-24.46,19.03-1.84,1.95-3.65,4.06-4.65,6.53-1,2.47-1.18,5.46.22,7.78.81,1.36,2.14,2.4,3.54,3.21,4.87,2.69,10.81,2.51,16.34,1.7,7.19-1.07,14.24-3.02,20.95-5.86,2.66,6.97,5.64,13.87,8.93,20.62,1.81,3.69,3.76,7.41,6.75,10.25,2.29,2.18,5.35,3.8,8.48,3.5,3.21-.33,5.98-2.65,7.6-5.46,1.62-2.8,2.25-6.05,2.8-9.26,1.44-8.82,2.07-17.74,1.88-26.63,10.7,1.07,21.61-.18,31.83-3.61,3.02-1,6.23-2.43,7.6-5.31.59-1.25.78-2.66.59-4.06l-.07.04Z"/>
      <path class="cls-3" d="M126.44,65.99c-1.73-8.26-9.85-13.57-17-16.97-7.89-3.76-16.38-5.79-24.82-7.82l2.47,6.09c3.76-8.3,7.93-16.67,9.63-25.67,1.33-7.05,2.51-17.3-5.61-20.69-8.11-3.39-14.94,2.69-20.32,7.6-6.79,6.16-12.5,13.46-17.08,21.36l6.53-.85c-7.08-5.5-14.05-11.29-22.35-14.9-6.93-3.02-16.89-5.57-22.83.74-5.57,5.94-3.28,15.42-.22,21.98,3.76,8,10.22,14.42,16.3,20.66l.85-6.53c-7.78,4.39-15.01,9.66-21.47,15.82-5.46,5.2-12.32,12.06-10.07,20.36,2.1,7.82,11.32,10.36,18.48,10.33,9.59-.07,19.36-2.91,28.18-6.57l-5.09-2.91c3.25,8.48,6.71,17.08,11.14,25.05,3.54,6.38,9.52,13.17,17.59,12.32,8.08-.85,12.17-8.85,13.54-16.08,1.84-9.63,2.43-19.55,2.29-29.36l-4.13,4.13c9.96.89,20.07,0,29.69-2.73,7.34-2.1,14.83-5.53,14.5-14.39-.22-5.31-8.52-5.35-8.3,0,.22,5.98-10.62,7.12-15.01,7.97-6.9,1.33-13.91,1.48-20.88.85-2.21-.18-4.17,2.07-4.13,4.13.11,6.53-.15,13.06-.89,19.59-.55,4.87-1,17.19-7.86,17.56-5.83.29-9.3-8.19-11.36-12.43-2.99-6.16-5.68-12.47-8.15-18.85-.74-1.88-2.88-3.84-5.09-2.91-6.2,2.55-12.65,4.54-19.29,5.61-4.39.7-17.85,2.25-17.19-5.24.48-5.27,7.75-10.55,11.43-13.76,5.02-4.39,10.51-8.11,16.34-11.4,2.36-1.33,2.66-4.65.85-6.53-4.13-4.24-8.45-8.48-11.8-13.43-2.69-3.95-7.89-12.73-4.24-17.34,3.65-4.61,13.61.59,17.45,2.73,5.68,3.17,10.81,7.27,15.93,11.25,2.07,1.59,5.05,1.7,6.53-.85,3.21-5.53,6.93-10.7,11.32-15.34,3.17-3.36,9.22-10.66,14.31-10.4,9.18.48-4.72,30.62-6.6,34.75-1.07,2.32-.37,5.42,2.47,6.09,6.64,1.55,13.35,3.1,19.7,5.61,6.01,2.36,14.86,6.46,16.34,13.39,1.11,5.24,9.11,3.02,8-2.21l-.07.22Z"/>
      <path class="cls-2" d="M4.43,40.39c-3.58,14.98,16.34,26.45,27.66,31.28l-1.48-5.68c-5.68,9.44-16.89,30.84-5.31,40.06,5.31,4.24,12.69.89,17.67-2.29,6.82-4.35,13.02-9.81,18.7-15.53h-5.86c8.34,8.93,25.89,24.93,38.95,16.12,6.64-4.5,5.75-11.25,3.02-17.82-3.14-7.64-7.19-14.72-12.14-21.28l-1.48,5.68c7.67-3.84,14.9-8.45,21.5-13.91,5.35-4.43,10.33-10.84,7.71-18.18-2.21-6.23-8.78-8.11-14.72-8.74-8.63-.85-17.41.07-25.78,2.21l5.24,3.98c-1.14-10.88-1.36-37.4-18.3-35.23-16.93,2.18-19.18,23.31-20.29,35.96l5.24-3.98c-8.37-1.55-17.08-2.47-25.56-1.77-5.79.48-11.84,2.25-14.35,8.04-2.14,4.83,5.02,9.07,7.16,4.2,1.95-4.46,7.82-4.06,11.99-4.09,6.23-.07,12.43.48,18.59,1.62,2.8.52,5.02-1.14,5.24-3.98.74-8.48,1.73-23.35,11.21-27.26,9.48-3.91,10.22,21.25,10.77,26.52.3,2.69,2.43,4.72,5.24,3.98,5.57-1.44,11.18-2.21,16.93-2.25,3.65,0,13.39-.59,13.65,4.65.26,5.24-7.3,9.63-10.92,12.17-4.68,3.32-9.63,6.23-14.79,8.78-1.84.92-2.77,3.95-1.48,5.68,3.14,4.17,5.98,8.56,8.41,13.21,1.88,3.61,7.82,12.65,2.51,15.23-4.83,2.36-11.43-2.07-15.38-4.65-4.61-3.02-8.59-6.82-12.32-10.84-1.51-1.62-4.32-1.55-5.86,0-3.87,3.87-7.89,7.56-12.28,10.84-2.47,1.84-9.89,8.34-13.24,6.2-3.58-2.25-.55-10.84.33-13.72,1.73-5.5,4.17-10.62,7.12-15.53,1.03-1.73.55-4.8-1.48-5.68-5.39-2.29-10.55-5.16-15.12-8.85-3.65-2.95-10.03-7.67-8.74-13.06s-6.75-7.41-8-2.21l.04.11Z"/>
    </g>
  </g>
</svg>