<?xml version="1.0" encoding="UTF-8"?>
<svg id="Layer_1" data-name="Layer 1" xmlns="http://www.w3.org/2000/svg" viewBox="0 0 489.68 315.83" preserveAspectRatio="none">
  <defs>
    <style>
      .cls-1 {
        fill: #f6bcc9;
      }

      .cls-2 {
        fill: #ffdde3;
      }
    </style>
  </defs>
  <path class="cls-2" d="M288.83,314.83H5.22c-2.33,0-4.22-2.23-4.22-4.98V43.08c0-2.75,1.89-4.98,4.22-4.98h1.93c13.86-.21,15.11-10.2,21.16-24.36C34.35-.42,51.48,1.67,51.48,1.67c13.77.28,86.49-.56,86.49-.56,0,0,19.48-2.22,24.52,12.22,5.04,14.43,10.96,24.5,20.7,24.77h301.27c2.33,0,4.22,2.23,4.22,4.98v266.78c0,2.75-1.89,4.98-4.22,4.98h-195.63Z"/>
  <path class="cls-1" d="M484.46,315.83H5.22c-2.88,0-5.22-2.68-5.22-5.98V43.08c0-3.3,2.34-5.98,5.22-5.98h1.93c10.93-.16,13.44-6.58,17.6-17.22.81-2.08,1.66-4.23,2.64-6.53C33.48-.91,50.41.55,51.54.67c13.56.27,84.21-.53,86.37-.56,1.2-.12,20.42-1.73,25.52,12.89,5.82,16.67,11.73,23.87,19.79,24.1h301.24c2.88,0,5.22,2.68,5.22,5.98v266.78c0,3.3-2.34,5.98-5.22,5.98ZM49.02,2.55c-4.81,0-15.38,1.24-19.8,11.59-.97,2.27-1.8,4.41-2.61,6.47-4.16,10.63-7.16,18.31-19.45,18.49h-1.94c-1.78,0-3.22,1.79-3.22,3.98v266.78c0,2.19,1.45,3.98,3.22,3.98h479.24c1.78,0,3.22-1.79,3.22-3.98V43.08c0-2.19-1.45-3.98-3.22-3.98H183.19c-11.36-.32-17.32-13.04-21.65-25.44-4.71-13.5-23.27-11.58-23.46-11.55h-.1c-.73.01-72.89.84-86.52.56-.17-.02-1.07-.12-2.44-.12Z"/>
</svg>