<?xml version="1.0" encoding="UTF-8"?>
<svg id="Layer_1" data-name="Layer 1" xmlns="http://www.w3.org/2000/svg" viewBox="0 0 576.73 681">
  <defs>
    <style>
      .cls-1 {
        fill: #83d3f4;
      }

      .cls-2 {
        fill: #c07d5b;
      }

      .cls-3 {
        fill: #ffeaea;
      }

      .cls-4 {
        fill: #b3b3b3;
      }

      .cls-5 {
        fill: #c34843;
      }
    </style>
  </defs>
  <path class="cls-3" d="M464.87,572.06c1.4-11.41,2.97-22.76,4.77-33.91l-14.84-1.21-.41,3.94c3.02.34,3.52,6.54-2.52,5.98-6.39-.6-4.13-6.49-.89-6.39l.4-3.81s-15.05-1.23-16.59-1.35c-.07.69-.4,3.8-.4,3.8,3.02.34,3.52,6.54-2.52,5.98-6.39-.6-4.13-6.49-.89-6.39l.4-3.81-16.61-1.35-.41,3.94c3.02.34,3.52,6.54-2.52,5.98-6.39-.6-4.13-6.49-.89-6.39l.4-3.81s-14.79-1.2-16.55-1.34l-.41,3.94c3.02.34,3.52,6.54-2.52,5.98-6.39-.6-4.13-6.49-.89-6.39l.4-3.81s-15.19-1.23-16.61-1.35c-.07.69-.4,3.8-.4,3.8,3.02.34,3.52,6.54-2.52,5.98-6.39-.6-4.13-6.49-.89-6.39l.4-3.81s-14.79-1.2-16.55-1.34l-.41,3.94c3.02.34,3.52,6.55-2.52,5.98-6.39-.6-4.13-6.49-.89-6.39l.4-3.81s-14.89-1.21-16.56-1.34c-.07.65-.39,3.83-.39,3.83,3.02.34,3.52,6.55-2.52,5.98-6.39-.6-4.13-6.49-.89-6.39l.4-3.81-16.6-1.35c-.07.66-.39,3.81-.39,3.81,3.02.34,3.52,6.54-2.52,5.98-6.39-.6-4.13-6.49-.89-6.39l.4-3.81s-15.53-1.26-16.66-1.35l-.05.5-.41,3.94c3.02.34,3.52,6.54-2.52,5.98-6.39-.6-4.13-6.49-.89-6.39l.4-3.81-16.72-1.36c-.47,3.8-1.37,6.31-1.84,10.12-1.91,15.6-3.83,31.22-4.22,46.92-.17,6.81-.06,13.62-.13,20.43-.25,21.5-2.27,44.21-6.39,65.4,57.04,2.93,114,7.46,170.72,13.58,5.41.59,16.38,1.76,21.82,2,.13-1.81,1.19-10.89,1.32-12.7.92-13.18,1.97-26.36,3.15-39.52,1.65-18.55,3.5-37.6,5.81-56.47h0Z"/>
  <path class="cls-5" d="M465.19,572.06c1.08-8.83,2.27-17.65,3.61-26.45.38-2.46.76-4.92,1.16-7.38.03-.21-.08-.38-.3-.39-4.33-.35-8.66-.7-13-1.06-.61-.05-1.23-.1-1.85-.15-.18-.02-.3.16-.32.32-.13,1.31-.27,2.63-.41,3.94-.02.18.16.29.32.32,1.06.13,1.72,1.13,1.85,2.12.14,1.2-.47,2.32-1.55,2.84-2.21,1.08-7.5.13-6.44-3.26.37-1.18,1.47-2.14,2.74-2.11.18,0,.29-.15.32-.32.13-1.27.27-2.54.4-3.81.02-.18-.16-.3-.32-.32-4.64-.38-9.28-.76-13.92-1.13l-2.68-.22c-.18-.02-.3.16-.32.32-.13,1.27-.26,2.53-.39,3.8-.02.18.16.29.32.32,1.06.13,1.72,1.13,1.85,2.12.14,1.2-.47,2.32-1.55,2.84-2.21,1.08-7.5.13-6.44-3.26.37-1.18,1.47-2.14,2.74-2.11.18,0,.29-.15.32-.32.13-1.27.27-2.54.4-3.81.02-.18-.16-.3-.32-.32-4.66-.38-9.32-.76-13.98-1.13l-2.63-.21c-.19-.02-.3.16-.32.32-.13,1.31-.27,2.63-.41,3.94-.02.18.16.29.32.32,1.06.13,1.72,1.13,1.85,2.12.14,1.2-.47,2.32-1.55,2.84-2.21,1.08-7.5.13-6.45-3.26.37-1.18,1.47-2.14,2.74-2.11.18,0,.29-.15.32-.32.13-1.27.27-2.54.4-3.81.02-.18-.16-.3-.32-.32-4.59-.37-9.19-.75-13.78-1.12l-2.77-.23c-.19-.02-.3.16-.32.32-.14,1.31-.27,2.63-.41,3.94-.02.18.16.29.32.32,1.06.13,1.72,1.13,1.85,2.12.14,1.2-.47,2.32-1.55,2.84-2.21,1.08-7.5.13-6.44-3.26.37-1.18,1.47-2.14,2.73-2.11.19,0,.29-.15.32-.32.13-1.27.27-2.54.4-3.81.02-.18-.16-.3-.32-.32-4.66-.38-9.32-.76-13.98-1.13-.88-.07-1.75-.14-2.64-.21-.18-.02-.3.16-.32.32-.13,1.27-.26,2.53-.39,3.8-.02.18.16.29.32.32,1.06.13,1.72,1.13,1.85,2.12.14,1.2-.47,2.32-1.55,2.84-2.21,1.08-7.5.13-6.44-3.26.37-1.18,1.47-2.14,2.74-2.11.18,0,.29-.15.32-.32.13-1.27.27-2.54.4-3.81.02-.18-.16-.3-.32-.32-4.59-.37-9.19-.75-13.78-1.12l-2.77-.23c-.18-.02-.3.16-.32.32-.13,1.31-.27,2.63-.41,3.94-.02.18.16.29.32.32,1.06.13,1.72,1.13,1.85,2.12.14,1.2-.47,2.32-1.55,2.84-2.21,1.08-7.5.13-6.44-3.26.37-1.18,1.47-2.14,2.74-2.11.18,0,.29-.15.32-.32.13-1.27.27-2.54.4-3.81.02-.18-.16-.3-.32-.32-4.61-.38-9.23-.75-13.85-1.12l-2.72-.22c-.18-.02-.3.16-.32.32-.13,1.28-.26,2.55-.39,3.83-.02.18.16.29.32.32,1.06.13,1.72,1.13,1.85,2.12.14,1.2-.47,2.32-1.55,2.84-2.21,1.08-7.5.13-6.44-3.26.37-1.18,1.47-2.14,2.74-2.11.18,0,.29-.15.32-.32.13-1.27.27-2.54.4-3.81.02-.18-.16-.3-.32-.32-4.64-.38-9.27-.76-13.91-1.13l-2.69-.22c-.18-.02-.3.16-.32.32-.13,1.27-.26,2.54-.39,3.81-.02.18.16.29.32.32,1.06.13,1.72,1.13,1.85,2.12.14,1.2-.47,2.32-1.55,2.84-2.21,1.08-7.5.13-6.44-3.26.37-1.18,1.47-2.14,2.74-2.11.18,0,.29-.15.32-.32.13-1.27.27-2.54.4-3.81.02-.18-.16-.3-.32-.32-4.72-.39-9.43-.76-14.15-1.15-.84-.07-1.67-.13-2.51-.2-.18-.02-.3.16-.32.32-.15,1.49-.31,2.96-.46,4.45-.02.18.16.29.32.32,1.06.13,1.72,1.13,1.85,2.12.14,1.2-.47,2.32-1.55,2.84-2.21,1.08-7.5.13-6.44-3.26.37-1.18,1.47-2.14,2.74-2.11.18,0,.29-.15.32-.32.13-1.27.27-2.54.4-3.81.02-.18-.16-.3-.32-.32-4.88-.39-9.76-.79-14.63-1.19-.7-.06-1.39-.11-2.09-.17-.18-.02-.29.16-.32.32-.27,2.14-.76,4.23-1.2,6.34-.44,2.11-.71,4.36-.98,6.56-.59,4.77-1.16,9.56-1.69,14.34-1.05,9.56-1.89,19.15-2.16,28.76-.28,9.47-.03,18.95-.31,28.42-.27,9.21-.86,18.39-1.77,27.56-.91,9.16-2.18,18.41-3.85,27.52-.2,1.09-.4,2.18-.62,3.27-.04.21.09.39.3.4,13.31.68,26.61,1.45,39.9,2.31,13.26.86,26.51,1.8,39.76,2.83,13.27,1.03,26.55,2.15,39.81,3.35,13.22,1.2,26.44,2.48,39.65,3.86,10.24,1.07,20.47,2.35,30.74,3.07.9.06,1.8.12,2.69.16.18,0,.3-.15.32-.32.28-3.96.86-7.9,1.24-11.86.32-3.29.48-6.6.73-9.9.3-4.02.61-8.05.93-12.07.65-8.03,1.34-16.06,2.07-24.08.72-7.93,1.48-15.85,2.28-23.77.82-8.01,1.7-16.03,2.66-24.03.12-1,.24-1.99.36-2.99.05-.4-.58-.39-.63,0-.98,8-1.88,16.01-2.71,24.02-.82,7.93-1.59,15.87-2.32,23.8-.73,7.94-1.44,16.01-2.1,24.02-.65,8.01-1.23,16.08-1.83,24.13-.29,3.96-.87,7.9-1.24,11.86-.02.29-.05.56-.08.85l.32-.32c-4.53-.2-9.04-.67-13.55-1.12-5.08-.51-10.14-1.07-15.21-1.61-13.21-1.39-26.42-2.7-39.64-3.92-13.26-1.22-26.52-2.36-39.8-3.41-13.27-1.06-26.49-2.01-39.75-2.89-13.26-.87-26.52-1.66-39.79-2.37-1.59-.08-3.2-.17-4.79-.25l.3.4c1.75-8.99,3.09-18.07,4.09-27.18,1.01-9.1,1.69-18.51,2.05-27.79.36-9.44.2-18.89.34-28.34.15-9.66.88-19.29,1.88-28.89.5-4.75,1.05-9.5,1.62-14.24.29-2.43.54-4.88.91-7.3.31-2.06.81-4.08,1.22-6.13.2-1.02.37-2.06.49-3.09l-.32.32c4.88.39,9.76.79,14.63,1.19.7.06,1.39.11,2.09.17l-.32-.32c-.13,1.27-.27,2.54-.4,3.81l.32-.32c-2.92-.05-4.76,3.94-2.37,5.87,2.38,1.94,8.36,1.67,8.27-2.42-.03-1.47-.97-2.86-2.49-3.05l.32.32c.15-1.49.31-2.96.46-4.45l-.32.32c4.91.39,9.82.8,14.73,1.19.65.05,1.29.1,1.93.16l-.32-.32c-.13,1.27-.27,2.54-.4,3.81l.32-.32c-2.92-.05-4.76,3.94-2.37,5.87,2.38,1.94,8.36,1.67,8.27-2.42-.03-1.47-.97-2.86-2.49-3.05l.32.32c.13-1.27.26-2.54.39-3.81l-.32.32c4.9.39,9.79.8,14.69,1.19.64.05,1.27.1,1.9.15l-.32-.32c-.13,1.27-.27,2.54-.4,3.81l.32-.32c-2.92-.05-4.76,3.94-2.37,5.87,2.38,1.94,8.36,1.67,8.27-2.42-.03-1.47-.97-2.86-2.49-3.05l.32.32c.13-1.28.27-2.55.39-3.83l-.32.32c4.9.39,9.81.8,14.71,1.19.62.05,1.23.1,1.85.15l-.32-.32c-.13,1.27-.27,2.54-.4,3.81l.32-.32c-2.92-.05-4.76,3.94-2.37,5.87,2.38,1.94,8.36,1.67,8.27-2.42-.03-1.47-.97-2.86-2.49-3.05l.32.32c.13-1.31.28-2.63.41-3.94l-.32.32c4.89.39,9.79.8,14.68,1.19.62.05,1.24.1,1.86.15l-.32-.32c-.14,1.27-.27,2.54-.4,3.81l.32-.32c-2.92-.05-4.76,3.94-2.38,5.87,2.38,1.94,8.36,1.67,8.27-2.42-.03-1.47-.97-2.86-2.49-3.05l.32.32c.14-1.27.26-2.53.39-3.8l-.32.32c4.9.4,9.81.8,14.71,1.19.63.05,1.27.1,1.9.15l-.32-.32c-.13,1.27-.27,2.54-.4,3.81l.32-.32c-2.92-.05-4.76,3.94-2.38,5.87,2.38,1.94,8.36,1.67,8.27-2.42-.03-1.47-.97-2.86-2.49-3.05l.32.32c.14-1.31.28-2.63.41-3.94l-.32.32c4.89.39,9.79.8,14.68,1.19.62.05,1.24.1,1.86.15l-.32-.32c-.13,1.27-.27,2.54-.4,3.81l.32-.32c-2.92-.05-4.76,3.94-2.38,5.87s8.36,1.67,8.27-2.42c-.03-1.47-.97-2.86-2.49-3.05l.32.32c.13-1.31.28-2.63.41-3.94l-.32.32c4.9.39,9.81.8,14.71,1.19.63.05,1.27.1,1.9.15l-.32-.32c-.13,1.27-.27,2.54-.4,3.81l.32-.32c-2.92-.05-4.76,3.94-2.38,5.87,2.38,1.94,8.36,1.67,8.27-2.42-.03-1.47-.97-2.86-2.49-3.05l.32.32c.13-1.27.26-2.53.4-3.8l-.32.32c4.9.39,9.81.8,14.71,1.19.63.05,1.25.1,1.88.15l-.32-.32c-.13,1.27-.27,2.54-.4,3.81l.32-.32c-2.92-.05-4.76,3.94-2.38,5.87,2.38,1.94,8.36,1.67,8.27-2.42-.03-1.47-.97-2.86-2.49-3.05l.32.32c.13-1.31.27-2.63.41-3.94l-.32.32c4.33.35,8.66.7,13,1.06.61.05,1.23.1,1.85.15l-.3-.39c-1.42,8.77-2.68,17.56-3.83,26.37-.33,2.54-.65,5.08-.96,7.62-.05.4.58.39.63,0l.1.19Z"/>
  <path class="cls-1" d="M452.41,546.89l-13.8,132.62.83.09,13.8-132.62-.83-.09Z"/>
  <path class="cls-1" d="M430.33,544.87l-13.75,132.17.83.09,13.75-132.17-.83-.09Z"/>
  <path class="cls-1" d="M408.49,532.84l-14.71,141.35.83.09,14.71-141.35-.83-.09Z"/>
  <path class="cls-1" d="M386.15,531.35l-14.71,141.35.83.09,14.71-141.35-.83-.09Z"/>
  <path class="cls-1" d="M363.46,529.51l-14.71,141.35.83.09,14.71-141.35-.83-.09Z"/>
  <path class="cls-1" d="M340.75,527.89l-14.68,141.12.83.09,14.68-141.12-.83-.09Z"/>
  <path class="cls-1" d="M318.15,525.21l-14.77,141.96.83.09,14.77-141.96-.83-.09Z"/>
  <path class="cls-1" d="M294.41,533.41l-13.8,132.62.83.09,13.8-132.62-.83-.09Z"/>
  <path class="cls-2" d="M271.77,539.84l-.07.84,195.3,15.85.07-.84-195.3-15.85Z"/>
  <path class="cls-5" d="M465.19,572.06c1.08-8.83,2.27-17.65,3.61-26.45.38-2.46.76-4.92,1.16-7.38.03-.21-.08-.38-.3-.39-4.33-.35-8.66-.7-13-1.06-.61-.05-1.23-.1-1.85-.15-.18-.02-.3.16-.32.32-.13,1.31-.27,2.63-.41,3.94-.02.18.16.29.32.32,1.06.13,1.72,1.13,1.85,2.12.14,1.2-.47,2.32-1.55,2.84-2.21,1.08-7.5.13-6.44-3.26.37-1.18,1.47-2.14,2.74-2.11.18,0,.29-.15.32-.32.13-1.27.27-2.54.4-3.81.02-.18-.16-.3-.32-.32-4.64-.38-9.28-.76-13.92-1.13l-2.68-.22c-.18-.02-.3.16-.32.32-.13,1.27-.26,2.53-.39,3.8-.02.18.16.29.32.32,1.06.13,1.72,1.13,1.85,2.12.14,1.2-.47,2.32-1.55,2.84-2.21,1.08-7.5.13-6.44-3.26.37-1.18,1.47-2.14,2.74-2.11.18,0,.29-.15.32-.32.13-1.27.27-2.54.4-3.81.02-.18-.16-.3-.32-.32-4.66-.38-9.32-.76-13.98-1.13l-2.63-.21c-.19-.02-.3.16-.32.32-.13,1.31-.27,2.63-.41,3.94-.02.18.16.29.32.32,1.06.13,1.72,1.13,1.85,2.12.14,1.2-.47,2.32-1.55,2.84-2.21,1.08-7.5.13-6.45-3.26.37-1.18,1.47-2.14,2.74-2.11.18,0,.29-.15.32-.32.13-1.27.27-2.54.4-3.81.02-.18-.16-.3-.32-.32-4.59-.37-9.19-.75-13.78-1.12l-2.77-.23c-.19-.02-.3.16-.32.32-.14,1.31-.27,2.63-.41,3.94-.02.18.16.29.32.32,1.06.13,1.72,1.13,1.85,2.12.14,1.2-.47,2.32-1.55,2.84-2.21,1.08-7.5.13-6.44-3.26.37-1.18,1.47-2.14,2.73-2.11.19,0,.29-.15.32-.32.13-1.27.27-2.54.4-3.81.02-.18-.16-.3-.32-.32-4.66-.38-9.32-.76-13.98-1.13-.88-.07-1.75-.14-2.64-.21-.18-.02-.3.16-.32.32-.13,1.27-.26,2.53-.39,3.8-.02.18.16.29.32.32,1.06.13,1.72,1.13,1.85,2.12.14,1.2-.47,2.32-1.55,2.84-2.21,1.08-7.5.13-6.44-3.26.37-1.18,1.47-2.14,2.74-2.11.18,0,.29-.15.32-.32.13-1.27.27-2.54.4-3.81.02-.18-.16-.3-.32-.32-4.59-.37-9.19-.75-13.78-1.12l-2.77-.23c-.18-.02-.3.16-.32.32-.13,1.31-.27,2.63-.41,3.94-.02.18.16.29.32.32,1.06.13,1.72,1.13,1.85,2.12.14,1.2-.47,2.32-1.55,2.84-2.21,1.08-7.5.13-6.44-3.26.37-1.18,1.47-2.14,2.74-2.11.18,0,.29-.15.32-.32.13-1.27.27-2.54.4-3.81.02-.18-.16-.3-.32-.32-4.61-.38-9.23-.75-13.85-1.12l-2.72-.22c-.18-.02-.3.16-.32.32-.13,1.28-.26,2.55-.39,3.83-.02.18.16.29.32.32,1.06.13,1.72,1.13,1.85,2.12.14,1.2-.47,2.32-1.55,2.84-2.21,1.08-7.5.13-6.44-3.26.37-1.18,1.47-2.14,2.74-2.11.18,0,.29-.15.32-.32.13-1.27.27-2.54.4-3.81.02-.18-.16-.3-.32-.32-4.64-.38-9.27-.76-13.91-1.13l-2.69-.22c-.18-.02-.3.16-.32.32-.13,1.27-.26,2.54-.39,3.81-.02.18.16.29.32.32,1.06.13,1.72,1.13,1.85,2.12.14,1.2-.47,2.32-1.55,2.84-2.21,1.08-7.5.13-6.44-3.26.37-1.18,1.47-2.14,2.74-2.11.18,0,.29-.15.32-.32.13-1.27.27-2.54.4-3.81.02-.18-.16-.3-.32-.32-4.72-.39-9.43-.76-14.15-1.15-.84-.07-1.67-.13-2.51-.2-.18-.02-.3.16-.32.32-.15,1.49-.31,2.96-.46,4.45-.02.18.16.29.32.32,1.06.13,1.72,1.13,1.85,2.12.14,1.2-.47,2.32-1.55,2.84-2.21,1.08-7.5.13-6.44-3.26.37-1.18,1.47-2.14,2.74-2.11.18,0,.29-.15.32-.32.13-1.27.27-2.54.4-3.81.02-.18-.16-.3-.32-.32-4.88-.39-9.76-.79-14.63-1.19-.7-.06-1.39-.11-2.09-.17-.18-.02-.29.16-.32.32-.27,2.14-.76,4.23-1.2,6.34-.44,2.11-.71,4.36-.98,6.56-.59,4.77-1.16,9.56-1.69,14.34-1.05,9.56-1.89,19.15-2.16,28.76-.28,9.47-.03,18.95-.31,28.42-.27,9.21-.86,18.39-1.77,27.56-.91,9.16-2.18,18.41-3.85,27.52-.2,1.09-.4,2.18-.62,3.27-.04.21.09.39.3.4,13.31.68,26.61,1.45,39.9,2.31,13.29.86,26.51,1.8,39.76,2.83,13.27,1.03,26.55,2.15,39.81,3.35,13.22,1.2,26.44,2.48,39.65,3.86,10.24,1.07,20.47,2.35,30.74,3.07.9.06,1.8.12,2.69.16.18,0,.3-.15.32-.32.28-3.96.86-7.9,1.24-11.86.32-3.29.48-6.6.73-9.9.3-4.02.61-8.05.93-12.07.65-8.03,1.34-16.06,2.07-24.08.72-7.93,1.48-15.85,2.28-23.77.82-8.01,1.7-16.03,2.66-24.03.12-1,.24-1.99.36-2.99.05-.4-.58-.39-.63,0-.98,8-1.88,16.01-2.71,24.02-.82,7.93-1.59,15.87-2.32,23.8-.73,7.94-1.44,16.01-2.1,24.02-.65,8.01-1.23,16.08-1.83,24.13-.29,3.96-.87,7.9-1.24,11.86-.02.29-.05.56-.08.85l.32-.32c-4.53-.2-9.04-.67-13.55-1.12-5.08-.51-10.14-1.07-15.21-1.61-13.21-1.39-26.42-2.7-39.64-3.92-13.26-1.22-26.52-2.36-39.8-3.41-13.24-1.05-26.49-2.01-39.75-2.89-13.26-.87-26.52-1.66-39.79-2.37-1.59-.08-3.2-.17-4.79-.25l.3.4c1.75-8.99,3.09-18.07,4.09-27.18,1.01-9.1,1.69-18.51,2.05-27.79.36-9.44.2-18.89.34-28.34.15-9.66.88-19.29,1.88-28.89.5-4.75,1.05-9.5,1.62-14.24.29-2.43.54-4.88.91-7.3.31-2.06.81-4.08,1.22-6.13.2-1.02.37-2.06.49-3.09l-.32.32c4.88.39,9.76.79,14.63,1.19.7.06,1.39.11,2.09.17l-.32-.32c-.13,1.27-.27,2.54-.4,3.81l.32-.32c-2.92-.05-4.76,3.94-2.37,5.87,2.46,2.01,8.36,1.67,8.27-2.42-.03-1.47-.97-2.86-2.49-3.05l.32.32c.15-1.49.31-2.96.46-4.45l-.32.32c4.91.39,9.82.8,14.73,1.19.65.05,1.29.1,1.93.16l-.32-.32c-.13,1.27-.27,2.54-.4,3.81l.32-.32c-2.92-.05-4.76,3.94-2.37,5.87,2.38,1.94,8.36,1.67,8.27-2.42-.03-1.47-.97-2.86-2.49-3.05l.32.32c.13-1.27.26-2.54.39-3.81l-.32.32c4.9.39,9.79.8,14.69,1.19.64.05,1.27.1,1.9.15l-.32-.32c-.13,1.27-.27,2.54-.4,3.81l.32-.32c-2.92-.05-4.76,3.94-2.37,5.87,2.38,1.94,8.36,1.67,8.27-2.42-.03-1.47-.97-2.86-2.49-3.05l.32.32c.13-1.28.27-2.55.39-3.83l-.32.32c4.9.39,9.81.8,14.71,1.19.62.05,1.23.1,1.85.15l-.32-.32c-.13,1.27-.27,2.54-.4,3.81l.32-.32c-2.92-.05-4.76,3.94-2.37,5.87,2.38,1.94,8.36,1.67,8.27-2.42-.03-1.47-.97-2.86-2.49-3.05l.32.32c.13-1.31.28-2.63.41-3.94l-.32.32c4.89.39,9.79.8,14.68,1.19.62.05,1.24.1,1.86.15l-.32-.32c-.14,1.27-.27,2.54-.4,3.81l.32-.32c-2.92-.05-4.76,3.94-2.38,5.87,2.38,1.94,8.36,1.67,8.27-2.42-.03-1.47-.97-2.86-2.49-3.05l.32.32c.14-1.27.26-2.53.39-3.8l-.32.32c4.9.4,9.81.8,14.71,1.19.63.05,1.27.1,1.9.15l-.32-.32c-.13,1.27-.27,2.54-.4,3.81l.32-.32c-2.92-.05-4.76,3.94-2.38,5.87,2.38,1.94,8.36,1.67,8.27-2.42-.03-1.47-.97-2.86-2.49-3.05l.32.32c.14-1.31.28-2.63.41-3.94l-.32.32c4.89.39,9.79.8,14.68,1.19.62.05,1.24.1,1.86.15l-.32-.32c-.13,1.27-.27,2.54-.4,3.81l.32-.32c-2.92-.05-4.76,3.94-2.38,5.87s8.36,1.67,8.27-2.42c-.03-1.47-.97-2.86-2.49-3.05l.32.32c.13-1.31.28-2.63.41-3.94l-.32.32c4.9.39,9.81.8,14.71,1.19.63.05,1.27.1,1.9.15l-.32-.32c-.13,1.27-.27,2.54-.4,3.81l.32-.32c-2.92-.05-4.76,3.94-2.38,5.87,2.38,1.94,8.36,1.67,8.27-2.42-.03-1.47-.97-2.86-2.49-3.05l.32.32c.13-1.27.26-2.53.4-3.8l-.32.32c4.9.39,9.81.8,14.71,1.19.63.05,1.25.1,1.88.15l-.32-.32c-.13,1.27-.27,2.54-.4,3.81l.32-.32c-2.92-.05-4.76,3.94-2.38,5.87,2.38,1.94,8.36,1.67,8.27-2.42-.03-1.47-.97-2.86-2.49-3.05l.32.32c.13-1.31.27-2.63.41-3.94l-.32.32c4.33.35,8.66.7,13,1.06.61.05,1.23.1,1.85.15l-.3-.39c-1.42,8.77-2.68,17.56-3.83,26.37-.33,2.54-.65,5.08-.96,7.62-.05.4.58.39.63,0l.1.19Z"/>
  <path class="cls-4" d="M422.02,538.62c1.11-3.83,2.32-7.62,3.49-11.42.58-1.88,1.15-3.76,1.7-5.65.47-1.63,1.07-3.32,1.31-5.01.36-2.61-1.26-5-3.24-5.59-1.11-.33-2.35-.22-3.39.54-1.12.81-1.82,2.23-2.37,3.61-2.3,5.83-3.67,12.11-5.41,18.16-.85,2.98-1.88,5.88-2.74,8.86-.96,3.31-2.17,6.9-1.98,10.38.17,3.18,1.78,5.68,4.37,6.26,2.58.58,5.42-1.01,7.11-3.75,1.7-2.74,2.56-6.41,3.52-9.68,1.15-3.96,2.32-7.91,3.47-11.87,1.15-3.96,2.3-7.9,3.46-11.85,1.16-3.95,2.4-7.62,3.26-11.5.73-3.29.84-6.89-.66-9.69-1.35-2.52-4.03-3.52-6.48-3.52-2.17,0-4.51.72-6.13,2.72-1.62,2-2.84,4.96-3.76,7.57-.61,1.72-1.07,3.53-1.58,5.29-.56,1.93-1.11,3.87-1.67,5.81-1.1,3.85-2.19,7.69-3.29,11.53-.53,1.86-1.07,3.71-1.62,5.57-.36,1.23,1.14,1.91,1.51.67,2.03-6.91,3.98-13.85,5.96-20.78.9-3.14,1.69-6.35,2.94-9.34.86-2.05,1.87-4.63,3.57-5.88,1.81-1.33,4.29-1.44,6.18-.81,1.05.35,2.08.92,2.75,1.97.68,1.05,1.04,2.45,1.14,3.85.24,3.36-.95,6.73-1.88,9.91-1.05,3.56-2.09,7.13-3.13,10.69-2.11,7.23-4.23,14.46-6.34,21.69-.79,2.72-1.62,5.84-3.49,7.84-1.87,2-4.8,2.46-6.47.4-1.67-2.06-1.15-5.52-.52-8.16.76-3.2,1.74-6.37,2.76-9.48,1.75-5.32,3.03-10.79,4.65-16.16.38-1.25.8-2.46,1.21-3.7.45-1.36.87-2.8,1.62-3.98,1.41-2.2,3.86-1.41,4.84.61.4.83.24,1.76,0,2.68-.45,1.73-.96,3.45-1.47,5.17-1.03,3.46-2.12,6.89-3.18,10.34-.52,1.68-1.03,3.36-1.51,5.05-.36,1.23,1.15,1.91,1.5.67h0Z"/>
</svg>