<?xml version="1.0" encoding="UTF-8"?>
<svg id="tema2_folder" data-name="tema2 folder" xmlns="http://www.w3.org/2000/svg" viewBox="0 0 489.68 315.84">
  <defs>
    <style>
      .cls-1 {
        fill: #f6bcc9;
      }

      .cls-2 {
        fill: #ffdde3;
      }
    </style>
  </defs>
  <path class="cls-2" d="M153.02,38.1c-8.07-.28-12.98-10.34-17.15-24.77S115.55,1.11,115.55,1.11c0,0-60.26.84-71.67.56,0,0-14.19-2.08-19.2,12.07-5.01,14.16-6.05,24.15-17.53,24.36"/>
  <path class="cls-1" d="M7.17,39.1l-.04-2c8.92-.16,10.99-6.56,14.43-17.16.67-2.08,1.37-4.23,2.18-6.53C28.78-.83,42.83.53,43.96.67,55.2.93,113.42.14,115.49.11c1.19-.14,17.12-1.66,21.34,12.94,4.81,16.63,9.66,23.83,16.23,24.05l-.07,2c-9.53-.33-14.49-13.07-18.08-25.5-3.88-13.42-18.6-11.59-19.22-11.5h-.12c-.6.02-60.4.84-71.71.57h-.12c-.55-.09-13.45-1.78-18.12,11.41-.8,2.27-1.5,4.41-2.17,6.48-3.45,10.66-5.95,18.36-16.29,18.55h.01Z"/>
</svg>