<?xml version="1.0" encoding="UTF-8"?>
<svg id="tema2_folder" data-name="tema2 folder" xmlns="http://www.w3.org/2000/svg" viewBox="0 0 152.66 64.99">
  <defs>
    <style>
      .cls-1 {
        fill: #f6bcc9;
      }

      .cls-2 {
        fill: #ffdde3;
      }
    </style>
  </defs>
  <rect class="cls-2" y="36.41" width="152.66" height="28.58" rx="12" ry="12"/>
  <g>
    <path class="cls-2" d="M148.52,38.15c-8.07-.28-12.98-10.34-17.15-24.77S111.05,1.16,111.05,1.16c0,0-60.26.84-71.67.56,0,0-14.19-2.08-19.2,12.07-5.01,14.16-6.05,24.15-17.53,24.36"/>
    <path class="cls-1" d="M2.67,39.15l-.04-2c8.92-.16,10.99-6.56,14.43-17.16.67-2.08,1.37-4.23,2.18-6.53C24.28-.78,38.33-.09,39.46.05c11.24.26,69.43.03,71.5,0,1.33,0,17.15-1.55,21.37,13.05,4.81,16.63,9.66,23.83,16.23,24.05l-.07,2c-9.53-.33-14.49-13.07-18.08-25.5C126.53.23,111.82,2.15,111.16,2.15l-71.86.39c-.56.07-13.51-1.6-18.18,11.59-.8,2.27-1.5,4.41-2.17,6.48-3.45,10.66-5.95,18.36-16.29,18.55h.01Z"/>
  </g>
</svg>