<?xml version="1.0" encoding="UTF-8"?>
<svg id="Layer_1" data-name="Layer 1" xmlns="http://www.w3.org/2000/svg" viewBox="0 0 1016.45 937.6" preserveAspectRatio="none">
  <defs>
    <style>
      .cls-1 {
        fill: #fef3ed;
      }

      .cls-2 {
        fill: #f7729b;
      }

      .cls-3 {
        opacity: .2;
      }

      .cls-4 {
        fill: gray;
      }

      .cls-5 {
        fill: #fbeda6;
      }

      .cls-6 {
        opacity: .22;
      }
    </style>
  </defs>
  <g class="cls-6">
    <path class="cls-4" d="M939.29,262.54c3.63,30.08,7.21,59.98,10.59,88.92,7.8,54.11,19.15,132.37,26.95,186.47,5.31,42.82,13.15,107.31,18.46,150.13,3.66,41.5,9.92,88.6,15.54,129.92,1.73,11.37,3.46,22.74,5.19,34.11.08.53.1,1.18-.42,1.46-.22.12-.49.14-.74.15-11.01.65-22.65,2.21-32.79,3.76-32.29,3.17-72.56,5.66-105.04,6.52,1.45,1.39-14.24,4.2-12.79,5.59-70.09-.83-143.14,12.26-217.18,20.57-61.34,5.7-122.68,11.4-184.02,17.1-20.37,1.89-40.75,3.79-61.12,5.68-12.16,1.13-24.32,2.26-36.47,3.39-62.9,5.68-135.44,13.65-198.34,19.33-15.04-.05-31.62.27-46.6,1.5-.89.07-2.18.22-2.79-.36-.4-.37-.24-1.03-.32-1.53-.87-5.54-1.15-11.14-.84-16.72,22.21-58.38,54.94-121.14,85.48-176.57,66.2-120.14,132.65-240.68,216.29-352.2,83.64-111.52,185.5-214.46,311.74-289.37,29.29-17.38,59.8-33.2,91.3-47.34,15.42-6.92,50.78-23.28,67.67-19.87,7.72-2.19,15.7-3.71,23.76-4.53,2.81,34.82,6.47,69.6,10.98,104.28,4.9,41.97,10.24,85.98,15.5,129.6Z"/>
    <path class="cls-4" d="M938.92,262.54c1.67,13.82,3.33,27.64,4.98,41.46,1.62,13.59,3.24,27.18,4.83,40.77,1.25,10.69,2.89,21.32,4.43,31.97,1.6,11.09,3.21,22.19,4.81,33.28s3.35,23.19,5.03,34.78c1.68,11.59,3.36,23.19,5.03,34.78s3.21,22.19,4.81,33.28c1.45,10.03,3,20.05,4.24,30.11s2.55,20.7,3.83,31.06c1.39,11.34,2.78,22.68,4.17,34.02s2.8,22.86,4.2,34.29c1.31,10.7,2.63,21.39,3.95,32.09.6,4.9,1.34,9.81,1.78,14.72.55,6.23,1.16,12.46,1.79,18.68,1.32,12.89,2.78,25.77,4.34,38.63s3.23,25.93,4.93,38.88c1.67,12.65,3.27,25.32,5.19,37.93,1.05,6.88,2.09,13.76,3.14,20.64.26,1.73.53,3.46.79,5.19.13.87.26,1.73.39,2.6.05.32.14.67.1,1-.06.55-.47.61-.95.64-3.3.21-6.59.47-9.88.8-6.42.64-12.81,1.47-19.19,2.41-5.84.86-11.73,1.32-17.61,1.83-12.31,1.07-24.64,1.97-36.98,2.74s-24.79,1.43-37.2,1.92c-5.62.22-11.23.41-16.85.56-.32,0-.5.4-.27.64.04.05-.06-.13,0-.13,0,0-.13.13-.19.18-.31.22-.69.37-1.04.52-1.16.47-2.36.82-3.56,1.18-2.39.72-4.97,1.25-7.21,2.37-.51.25-1.4.84-.78,1.47l.27-.64c-8.42-.1-16.85,0-25.27.27-8.47.27-16.93.7-25.39,1.26s-17.16,1.28-25.72,2.08c-8.61.81-17.2,1.71-25.79,2.68-8.7.98-17.4,2.04-26.08,3.12s-17.41,2.21-26.12,3.34c-8.79,1.14-17.58,2.29-26.37,3.4s-17.65,2.22-26.48,3.26-17.73,1.87-26.62,2.69-17.9,1.66-26.86,2.5c-8.91.83-17.82,1.66-26.73,2.48-8.95.83-17.9,1.66-26.86,2.5s-17.82,1.66-26.73,2.48c-8.95.83-17.9,1.66-26.86,2.5s-17.9,1.66-26.86,2.5-17.81,1.66-26.72,2.48c-8.94.83-17.89,1.66-26.83,2.49-8.9.83-17.79,1.65-26.69,2.48s-17.6,1.65-26.41,2.45c-7.88.72-15.76,1.45-23.64,2.21s-16.26,1.57-24.39,2.37-16.46,1.63-24.69,2.46c-8.34.84-16.68,1.68-25.02,2.52s-16.67,1.68-25.01,2.51-16.44,1.64-24.66,2.45c-8.11.8-16.22,1.58-24.34,2.36s-15.71,1.48-23.57,2.19c-2.02.18-4.11.03-6.14.04s-4.19.02-6.28.05c-4.25.05-8.51.13-12.76.27s-8.47.31-12.7.55c-2.07.12-4.14.25-6.21.4-.98.07-1.96.15-2.94.23-.7.06-1.85.29-2.44-.19-.35-.28-.24-.77-.28-1.17-.04-.49-.14-.97-.21-1.46-.16-1.13-.29-2.27-.4-3.4-.21-2.18-.33-4.36-.36-6.55-.01-1.09,0-2.19.03-3.28.02-.53.04-1.05.06-1.58.03-.59.24-1.1.45-1.64.71-1.86,1.43-3.72,2.16-5.58,2.96-7.56,6.05-15.08,9.23-22.56s6.61-15.23,10.04-22.78,7.06-15.28,10.7-22.87,7.37-15.17,11.15-22.71,7.65-15.11,11.55-22.62,7.75-14.81,11.68-22.18,7.82-14.55,11.77-21.8,7.93-14.44,11.9-21.66,8.09-14.67,12.14-22c4.07-7.37,8.15-14.74,12.23-22.1s8.15-14.65,12.24-21.97,8.24-14.7,12.38-22.04,8.27-14.6,12.43-21.89,8.39-14.63,12.62-21.93,8.45-14.52,12.72-21.75c4.29-7.27,8.61-14.53,12.96-21.77s8.74-14.47,13.16-21.67,8.85-14.33,13.32-21.45,9.05-14.31,13.64-21.43,9.18-14.16,13.84-21.19,9.42-14.12,14.2-21.14,9.59-13.95,14.46-20.87c4.9-6.97,9.86-13.9,14.86-20.79s9.94-13.57,14.99-20.29c4.51-5.99,9.06-11.95,13.65-17.87s9.22-11.78,13.91-17.61c4.67-5.82,9.39-11.61,14.16-17.35s9.66-11.53,14.56-17.23c4.89-5.69,9.83-11.33,14.82-16.93s10.1-11.23,15.23-16.77,10.28-11.01,15.5-16.44,10.57-10.88,15.93-16.24,10.8-10.69,16.29-15.95,10.99-10.44,16.57-15.57,11.29-10.28,17.02-15.32c5.71-5.03,11.48-10,17.31-14.91,5.87-4.94,11.79-9.81,17.77-14.62s12.05-9.57,18.16-14.24,12.31-9.3,18.55-13.84,12.57-9.03,18.94-13.42,12.78-8.7,19.25-12.93,13.11-8.45,19.75-12.54,13.72-8.34,20.67-12.37c7.39-4.29,14.84-8.47,22.35-12.54,7.5-4.07,15.06-8.03,22.67-11.88s15.4-7.66,23.18-11.33c6.45-3.04,12.95-5.99,19.45-8.91,4.96-2.23,9.93-4.42,14.95-6.49,5.76-2.38,11.58-4.63,17.49-6.6s11.32-3.53,17.15-4.56c2.53-.45,5.1-.77,7.67-.86,1.14-.04,2.27-.03,3.41.06.53.04,1.07.09,1.6.16.49.07,1.05.27,1.54.18.97-.2,1.92-.53,2.88-.78s1.85-.47,2.78-.69c1.94-.46,3.9-.88,5.86-1.25,3.98-.76,8-1.35,12.03-1.76l-.38-.38c1.25,15.43,2.66,30.86,4.24,46.26,1.57,15.33,3.31,30.64,5.21,45.94,1.86,14.95,3.62,29.91,5.4,44.88s3.61,30.25,5.43,45.37c1.84,15.26,3.68,30.52,5.52,45.79.23,1.89.46,3.77.68,5.66.06.47.81.48.75,0-1.85-15.35-3.7-30.69-5.55-46.04-1.82-15.15-3.64-30.3-5.45-45.45-1.78-14.92-3.46-29.86-5.35-44.77-1.94-15.29-3.72-30.6-5.33-45.93s-3.06-30.65-4.34-46c-.16-1.9-.31-3.8-.47-5.69-.02-.19-.16-.4-.38-.38-4.26.44-8.5,1.06-12.7,1.88-2.12.41-4.22.87-6.32,1.39-1.04.26-2.09.52-3.12.8-.49.13-1,.33-1.5.41-.27.04-.53-.03-.8-.07-4.75-.77-9.67-.16-14.35.72-5.91,1.11-11.71,2.84-17.4,4.77s-11.68,4.26-17.41,6.66c-4.92,2.05-9.79,4.2-14.65,6.39-6.69,3.01-13.38,6.05-20.01,9.19-7.77,3.68-15.49,7.46-23.16,11.36s-15.29,7.91-22.86,12.03-14.94,8.28-22.32,12.57c-6.94,4.04-13.82,8.17-20.64,12.4s-13.21,8.3-19.73,12.57-12.93,8.6-19.32,13.02-12.67,8.89-18.92,13.45c-6.23,4.55-12.4,9.17-18.52,13.87-6.1,4.68-12.14,9.43-18.12,14.25-5.97,4.81-11.89,9.69-17.75,14.64-5.84,4.93-11.63,9.93-17.37,15s-11.38,10.17-16.99,15.34c-5.6,5.16-11.14,10.39-16.62,15.67-5.5,5.29-10.95,10.64-16.34,16.05s-10.66,10.79-15.9,16.26-10.42,10.97-15.55,16.54c-5.12,5.55-10.19,11.15-15.21,16.79s-9.96,11.31-14.87,17.03-9.74,11.45-14.53,17.24-9.56,11.64-14.27,17.53-9.3,11.72-13.88,17.63-9.04,11.77-13.49,17.7c-5.12,6.82-10.17,13.68-15.18,20.58s-9.95,13.83-14.84,20.81-9.71,13.95-14.5,20.98-9.54,14.13-14.24,21.25-9.3,14.17-13.88,21.3-9.12,14.27-13.61,21.44c-4.49,7.16-8.95,14.35-13.37,21.56s-8.79,14.43-13.14,21.68-8.66,14.5-12.94,21.78-8.57,14.63-12.82,21.96c-4.23,7.3-8.43,14.61-12.61,21.94-4.18,7.32-8.34,14.65-12.48,22s-8.26,14.69-12.37,22.04-8.2,14.71-12.29,22.08-8.2,14.8-12.29,22.2-8.13,14.74-12.19,22.11-7.92,14.38-11.85,21.59-7.89,14.56-11.78,21.87-7.86,14.87-11.72,22.33c-3.89,7.52-7.73,15.08-11.51,22.66s-7.54,15.26-11.2,22.94-7.17,15.21-10.62,22.87-6.71,15.09-9.92,22.69-6.18,14.91-9.09,22.44c-.36.93-.72,1.86-1.07,2.79-.16.41-.39.85-.48,1.29-.1.52-.06,1.1-.08,1.63-.08,2.19-.07,4.37.03,6.56s.3,4.37.58,6.54c.13.96.26,1.9.34,2.86.05.66.38,1.12,1.01,1.35.72.26,1.53.18,2.27.11,1-.08,1.99-.16,2.99-.23,2.07-.15,4.14-.29,6.21-.41,4.23-.24,8.46-.42,12.7-.56,4.29-.13,8.58-.22,12.87-.27,2.09-.02,4.19-.04,6.28-.05s4.12.14,6.14-.04c7.9-.71,15.79-1.45,23.68-2.2s16.23-1.56,24.34-2.36c8.26-.81,16.52-1.63,24.78-2.46,8.34-.83,16.67-1.67,25.01-2.51,8.34-.84,16.68-1.68,25.01-2.52,8.31-.83,16.61-1.66,24.92-2.48s16.25-1.59,24.38-2.37c7.91-.75,15.82-1.49,23.73-2.21,8.83-.8,17.66-1.64,26.49-2.46s17.88-1.66,26.82-2.49c8.99-.84,17.97-1.67,26.96-2.51,8.95-.83,17.89-1.66,26.84-2.49,8.95-.83,17.9-1.66,26.86-2.5s17.9-1.66,26.86-2.5,17.9-1.66,26.86-2.5,17.9-1.66,26.86-2.5c8.99-.84,17.99-1.67,26.98-2.51,8.95-.83,17.9-1.66,26.86-2.5,4.48-.42,8.95-.83,13.43-1.25s8.87-.97,13.29-1.49c8.83-1.04,17.65-2.15,26.48-3.27s17.58-2.27,26.36-3.41c8.74-1.13,17.48-2.26,26.23-3.35s17.46-2.14,26.19-3.12,17.26-1.87,25.9-2.66,17.13-1.48,25.7-2.03,16.99-.96,25.49-1.2c7.8-.22,15.59-.3,23.39-.21.33,0,.49-.41.27-.64-.04-.05.06.13,0,.13,0,0,.13-.13.19-.18.31-.22.69-.37,1.04-.52,1.16-.47,2.36-.82,3.56-1.18,2.39-.72,4.97-1.25,7.21-2.37.51-.25,1.4-.84.78-1.47l-.27.64c12.05-.32,24.09-.82,36.12-1.45,12.53-.65,25.06-1.45,37.57-2.38,6.06-.45,12.12-.94,18.18-1.47,2.94-.26,5.88-.52,8.82-.8,1.41-.13,2.83-.25,4.24-.41,1.53-.17,3.05-.45,4.57-.68,6.52-.95,13.07-1.79,19.63-2.41,1.65-.16,3.3-.3,4.95-.42.78-.06,1.56-.11,2.34-.17.7-.05,1.59.05,2.24-.25,1.11-.52.68-1.98.53-2.91-.26-1.73-.53-3.46-.79-5.19-2.03-13.37-4.1-26.73-5.91-40.13s-3.44-25.69-5.08-38.54-3.24-25.97-4.71-38.98c-1.44-12.7-2.76-25.4-3.91-38.13-.45-4.97-1.16-9.93-1.77-14.88-.64-5.2-1.28-10.4-1.92-15.61-1.38-11.22-2.76-22.45-4.13-33.67s-2.83-23.09-4.25-34.64-2.69-21.93-4.04-32.9c-1.22-9.88-2.43-19.75-3.85-29.6-1.53-10.61-3.06-21.21-4.6-31.82-1.66-11.49-3.32-22.97-4.98-34.46s-3.38-23.39-5.08-35.08-3.31-22.86-4.96-34.29c-1.55-10.69-3.09-21.38-4.63-32.07-.8-5.57-1.56-11.13-2.22-16.72-.79-6.76-1.59-13.52-2.39-20.27-1.64-13.81-3.29-27.62-4.95-41.42-.8-6.68-1.61-13.36-2.41-20.04-.06-.47-.81-.48-.75,0Z"/>
  </g>
  <path class="cls-5" d="M958.65,848.3c12.46-1.65,24.91-3.35,37.36-5.08,1.72-.24,3.64-.58,4.64-1.82.97-1.19.76-2.81.51-4.25-3.79-21.93-7.58-43.86-11.37-65.78-21.06-182.14-47.14-377.57-68.2-559.7-8.64-63.45-17.28-126.91-25.92-190.36-.27-1.95-.61-4.04-2.16-5.46-2.44-2.24-6.59-1.78-10.05-1.15-13.39,2.42-26.78,4.84-40.17,7.26-49.2,9.99-113.7,9.61-164.08,12.66-33.22,2.01-66.26,5.88-99.27,9.76-70.29,8.25-140.42,17.71-210.86,24.74-33.36,14.23-70.29,23.36-107.41,23.27-21.04-.05-41.97-2.48-62.98-3.47-49.23-2.31-107.58,4.16-156.46,9.78-14.12,2.29-28.2,4.74-42.24,7.36,3.42,41,8.34,81.91,14.75,122.64,5.72,54.21,14.23,114.68,21.8,168.72,7.29,41.65,12.21,79.62,16.67,121.57.71,6.67,1.42,13.33,2.13,20,3.02,28.43,6.05,56.87,9.07,85.3,3.95,25.99,8.64,52.3,10.56,78.47,1.01,10.3,2.69,29.63,3.7,39.94.72,14.63,3.52,37.62,5.27,52.18,0,0,.7,5.81,1.4,11.62,2.08,10.46,4.16,20.93,4.16,20.93,3.26,16.4,5.4,32.97,6.4,49.6-.06,3.59,2.73,15.96,3.66,19.33,3.19,11.55,4.58,23.48,4.12,35.35,16.54-1.76,33.02-3.92,49.42-6.49,12.78-1.53,30-5.2,42.78-6.73,59.47-7.11,126.39-12.94,184.99-17.15,43.57-4.04,84.02-7.07,126.03-10.61,55.34-4.73,95.11-11.12,129.84-16.05,68.51-17.89,154.71-1.62,224.7-14.3,32.44-3.76,64.84-7.78,97.19-12.08Z"/>
  <g class="cls-3">
    <path class="cls-4" d="M47.41,123.95c13.41-22.83,52.02-44.47,81.29-42.46,122.76,8.43,243.7,31.54,366.4,40.64,122.7,9.1,271.46-6.21,382.57-52.6,8.19.98,16.48,1.25,24.73.82-4.23,32.06-7.44,64.23-9.62,96.45-4.86,82.48-4.33,172.95-4.49,247.83-3.21,42.03-1.81,83.26.15,126.1.23,66.03,3.6,158.48,3.84,224.5,1.17,31.99.16,62.14,1.33,94.13.19,7.32.28,21.26.15,29.43-.01.7-.16,1.49-.82,1.88-.44.26-1.01.27-1.55.27-3.88.01-7.45-.34-11.7-.1-21.32.24-43.07-2.32-63.04-2.51-9.67-.09-19.36.26-29-.28-108.84-6.06-212.01-2.02-317.67,4.69-78.79,9.05-161.56,9.42-241.28,8.83-31.72-.25-68.63.54-100.35.29-18.67-.15-37.34.73-56.01.58-4.71.25-20.46.73-25.29.22-.7-6.18-1.11-12.38-1.23-18.58,10.28-4.57,24.61-17.07,35.16-21.15,10.55-4.08,20.81-9.79,26.7-18.45,5.89-8.66-1.42-24.84-9.31-32.19-1.6-3.4-5.1-6.01-9.1-7.13s-8.45-.82-12.35.57c-3.42,1.22-6.46,3.25-8.7,5.82-.56.64-1.11,1.35-1.97,1.65-.59.21-1.24.19-1.87.18-3.43-.09-6.87-.19-10.3-.28-.68-.02-1.41-.05-1.98-.38-.48-.28-.78-.74-1.05-1.18-1.57-2.57-2.8-5.31-3.65-8.13,1.2.34-1.98-10.69-.78-10.35-3.5-6.28,2.84-13.93,10.47-16.03s15.84-.51,23.77.38c7.93.89,16.84.79,22.82-3.85,8.79-6.81-2.33-36.37-5.32-46.3-1.6-3.4-5.1-6.01-9.1-7.13s-8.45-.82-12.35.57c-3.42,1.22-6.46,3.25-8.7,5.82-.56.64-1.11,1.35-1.97,1.65-.59.21-1.24.19-1.87.18-3.43-.09-6.87-.19-10.3-.28-.68-.02-1.41-.05-1.98-.38-.48-.28-.78-.74-1.05-1.18-2.42-3.96-4.02-8.29-4.69-12.74,3.31,10.62-1.66-5.48-.75-2.62-1.03-6.72-.44-13.89,3.49-19.74,3.93-5.85,11.74-10.01,19.4-8.87,7.85,1.18,13.75,7.34,21.56,8.73,12.39,2.21,22.68-7.94,29.97-16.97,1.23-1.52,2.49-3.12,2.82-4.96.52-2.93-1.43-5.72-3.29-8.2-4.53-6.04-16.66-13.19-21.19-19.23-1.6-3.4-5.1-6.01-9.1-7.13s-8.45-.82-12.35.57c-3.42,1.22-6.46,3.25-8.7,5.82-.56.64-1.11,1.35-1.97,1.65-.59.21-1.24.19-1.87.18-3.43-.09-6.87-.19-10.3-.28-.68-.02-1.41-.05-1.98-.38-.48-.28-.78-.74-1.05-1.18-1.57-2.57-2.8-5.31-3.65-8.13,2.05-8.02,18.3-28.02,27.49-29.75,9.19-1.72,19.13-2.03,26.97-6.56,12.43-7.18,7.23-30.67-3.49-39.71-1.6-3.4-5.1-6.01-9.1-7.13-4.01-1.12-8.45-.82-12.35.57-3.42,1.22-6.46,3.25-8.7,5.82-.56.64-1.11,1.35-1.97,1.65-.59.21-1.24.19-1.87.18-3.43-.09-6.87-.19-10.3-.28-.68-.02-1.41-.05-1.98-.38-.48-.28-.78-.74-1.05-1.18-1.57-2.57-2.8-5.31-3.65-8.13-2.53-5.87,6.02-19.35,12.61-21.84,6.59-2.48,14.07-1.98,21.24-1.7,7.17.28,14.82.19,20.84-3.22,7.12-4.03,10.29-11.96,10.05-19.37-.25-7.41-10.7-22.4-13.77-29.31-1.6-3.4-5.1-6.01-9.1-7.13-4.01-1.12-8.45-.82-12.35.57-3.42,1.22-6.46,3.25-8.7,5.82-.56.64-1.11,1.35-1.97,1.65-.59.21-1.24.19-1.87.18-3.43-.09-6.87-.19-10.3-.28-.68-.02-1.41-.05-1.98-.38-.48-.28-.78-.74-1.05-1.18-1.57-2.57-2.8-5.31-3.65-8.13,2.44-8.43,11.34-23.18,20.55-26.47,10.23-3.65,22.62,2.46,32.71-1.49,7.85-3.07,11.43-11.49,10.56-18.96-.87-7.48-8.59-22.49-12.85-29.02-1.6-3.4-5.1-6.01-9.1-7.13-4.01-1.12-8.45-.82-12.35.57-3.42,1.22-6.46,3.25-8.7,5.82-.56.64-1.11,1.35-1.97,1.65-.59.21-1.24.19-1.87.18-3.43-.09-6.87-.19-10.3-.28-.68-.02-1.41-.05-1.98-.38-.48-.28-.78-.74-1.05-1.18-1.57-2.57-2.8-5.31-3.65-8.13-.34-10.93,16.67-23.2,28.93-25.43,12.25-2.23,26.08-2.73,34.92-10.48,10.37-9.09-.08-33.93-12.88-40.23-1.6-3.4-5.1-6.01-9.1-7.13s-8.45-.82-12.35.57c-3.42,1.22-6.46,3.25-8.7,5.82-.56.64-1.11,1.35-1.97,1.65-.59.21-1.24.19-1.87.18-3.43-.09-6.87-.19-10.3-.28-.68-.02-1.41-.05-1.98-.38-.48-.28-.78-.74-1.05-1.18-1.57-2.57-2.8-5.31-3.65-8.13-.37-1.24-2.64-6.87-1.17-6.84s2.09-1.59,2.37-2.85c2.85-12.83,15.77-23.45,30.59-25.16,8.64-.99,18.39.55,25.33-4.06,10.38-6.88-1.13-26.74-6.16-37.24-1.6-3.4-5.1-6.01-9.1-7.13s-8.45-.82-12.35.57c-3.42,1.22-6.46,3.25-8.7,5.82-.56.64-1.11,1.35-1.97,1.65-.59.21-1.24.19-1.87.18-3.43-.09-6.87-.19-10.3-.28-.68-.02-1.41-.05-1.98-.38-.48-.28-.78-.74-1.05-1.18-1.57-2.57-2.8-5.31-3.65-8.13-1.89-8.49,6.95-18.04,16.61-19.93,9.66-1.89,19.69.08,29.58.34,9.89.26,21.06-1.89,26.29-9.23,4.73-6.64,2.97-15.47-1.22-22.39-4-6.61-14.56-16.22-19.62-22.85-.97-4.37-5.02-7.8-9.78-9.14-4.01-1.12-8.45-.82-12.35.57-3.42,1.22-6.46,3.25-8.7,5.82-.56.64-1.11,1.35-1.97,1.65-.59.21-1.24.19-1.87.18-3.43-.09-6.87-.19-10.3-.28-.68-.02-1.41-.05-1.98-.38-.48-.28-.78-.74-1.05-1.18-1.57-2.57-2.8-5.31-3.65-8.13"/>
    <path class="cls-4" d="M47.74,124.14c5.6-9.51,14.14-17.19,23.13-23.43,10.07-6.99,21.32-12.48,33.13-15.83,5.55-1.58,11.26-2.67,17.03-3.02,2.81-.17,5.61-.13,8.41.06,4.01.28,8.02.57,12.03.88,16.03,1.23,32.04,2.7,48.03,4.33,15.9,1.63,31.79,3.42,47.66,5.32s31.89,3.92,47.82,5.98,31.7,4.13,47.55,6.2,31.87,4.13,47.81,6.1c15.91,1.96,31.82,3.84,47.75,5.57,15.94,1.73,31.89,3.31,47.87,4.68,14.2,1.21,28.41,2.28,42.65,2.96,13.31.63,26.63.98,39.96,1.06,13.73.08,27.46-.13,41.17-.61s27.71-1.26,41.54-2.32,27.96-2.44,41.89-4.1,27.55-3.6,41.26-5.87c13.68-2.26,27.3-4.84,40.85-7.77,13.31-2.88,26.54-6.09,39.67-9.68,12.73-3.48,25.37-7.32,37.87-11.57,6.13-2.09,12.23-4.27,18.29-6.56,2.99-1.13,5.97-2.29,8.94-3.47,1.44-.58,2.88-1.16,4.32-1.75.72-.29,1.43-.59,2.15-.88.34-.14.71-.36,1.07-.45.54-.13,1.24.07,1.78.13,7.64.82,15.35,1.02,23.03.63l-.38-.38c-1.93,14.63-3.65,29.28-5.15,43.96-1.5,14.63-2.79,29.27-3.86,43.94-1.01,13.79-1.67,27.61-2.25,41.43s-1.04,27.65-1.4,41.48-.63,27.77-.82,41.65c-.19,13.77-.32,27.55-.41,41.32-.08,13.34-.12,26.69-.15,40.03s-.03,25.72-.05,38.57c0,3.07,0,6.14-.01,9.2,0,3.47-.32,6.92-.54,10.38-.46,7.17-.78,14.35-1.01,21.54-.44,14.42-.45,28.84-.19,43.26.26,14.48.8,28.96,1.43,43.43.16,3.63.44,7.27.46,10.9.01,2.66.03,5.33.04,7.99.04,5.61.1,11.22.17,16.83.15,11.86.36,23.73.59,35.59.25,12.52.52,25.04.8,37.55.28,12.64.58,25.27.86,37.91s.53,24.72.76,37.08c.21,11.68.39,23.37.51,35.05.03,2.73.05,5.46.07,8.18s-.04,5.4.06,8.1c.26,7.31.41,14.62.5,21.92.18,14.4.11,28.79.23,43.19.06,7.23.16,14.46.36,21.69.16,5.61.33,11.21.38,16.82s.07,11.08.02,16.62c0,.59-.01,1.17-.02,1.76s.05,1.21-.1,1.77c-.25.96-1.04,1.05-1.91,1.06-.81,0-1.62-.01-2.43-.03-1.69-.04-3.37-.12-5.06-.14s-3.45.07-5.18.09c-14.33.11-28.63-1.01-42.94-1.81-6.95-.39-13.91-.69-20.87-.73-7.36-.03-14.71.15-22.07-.05-7.38-.2-14.75-.73-22.12-1.08s-14.51-.63-21.77-.89c-14.55-.51-29.1-.85-43.66-1.04-14.38-.19-28.76-.23-43.14-.13-14.29.09-28.58.32-42.86.66-14.28.34-28.56.8-42.83,1.35s-28.38,1.19-42.56,1.91c-14.3.73-28.6,1.53-42.89,2.39-3.54.21-7.09.43-10.63.65s-7.11.32-10.64.68c-7.05.72-14.08,1.54-21.13,2.21-14.21,1.35-28.45,2.44-42.7,3.32-14.28.88-28.57,1.55-42.86,2.05-14.42.51-28.84.85-43.26,1.07-14.31.22-28.63.31-42.95.33-14.29.02-28.58-.04-42.88-.14-13.31-.09-26.63-.1-39.94,0-13.69.09-27.38.23-41.07.28-13.72.06-27.44-.15-41.15.06-7.34.11-14.69.28-22.03.4-3.73.06-7.47.1-11.2.11-2.65,0-5.3-.05-7.94.07-4.11.17-8.22.28-12.33.33-3.72.05-7.52.19-11.23-.2l.38.38c-.7-6.17-1.11-12.37-1.23-18.58l-.19.32c4.73-2.11,9.08-5.07,13.36-7.96,4.72-3.18,9.37-6.49,14.27-9.39,2.11-1.25,4.28-2.44,6.55-3.4,2.68-1.14,5.4-2.16,8.03-3.42,5.35-2.56,10.52-5.69,14.84-9.79,1.97-1.87,3.9-3.98,5.3-6.32,1.11-1.86,1.65-4.01,1.8-6.16.34-4.95-1.22-9.96-3.33-14.38-1.13-2.37-2.47-4.63-4.01-6.75-.7-.97-1.45-1.9-2.24-2.8-.38-.43-.78-.85-1.18-1.26-.18-.18-.37-.35-.54-.53-.25-.27-.39-.6-.57-.91-2.94-5.09-9.14-7.38-14.78-7.21-3.14.1-6.25.88-9.08,2.26s-4.9,3.17-6.89,5.39c-.49.55-1.03,1.03-1.78,1.17-.91.18-1.92.04-2.84.01-1.8-.05-3.6-.1-5.4-.15-.86-.02-1.72-.05-2.58-.07s-1.89.09-2.65-.35c-.7-.41-1.11-1.36-1.5-2.04-.42-.73-.81-1.48-1.17-2.25-.74-1.55-1.35-3.15-1.85-4.79l-.46.46c1.26.28.6-2.56.52-3.07-.31-1.96-.76-3.89-1.01-5.86-.05-.38-.09-.76-.09-1.14,0-.1.05-.25.02-.32-.02-.06.04-.05.02-.06,0,0-.17.12-.24.1.32.07.58-.26.42-.55-3.06-5.61,1.93-11.49,6.7-14.05,3.25-1.75,7.01-2.33,10.66-2.44,4.01-.12,8.02.35,11.99.84,6.91.86,14.1,1.79,20.93-.12,2.59-.72,5.47-1.9,7.39-3.87,1.13-1.16,1.81-2.69,2.2-4.24,1.08-4.2.54-8.79-.14-13.01-.83-5.14-2.17-10.19-3.64-15.17-1.22-4.12-2.59-8.2-3.88-12.3-.31-.99-.62-1.87-1.19-2.76-.82-1.25-1.87-2.33-3.05-3.24-2.73-2.09-6.08-3.19-9.5-3.41-3.67-.23-7.39.53-10.71,2.1-1.54.73-2.99,1.64-4.31,2.7-.67.54-1.31,1.13-1.91,1.76-.55.58-1.02,1.25-1.65,1.74-.83.64-1.83.57-2.82.54s-2.04-.06-3.07-.08c-2.13-.06-4.25-.12-6.38-.17-.96-.03-2.05.05-2.74-.74-.63-.72-1.07-1.68-1.52-2.52-.92-1.73-1.69-3.52-2.3-5.38-.58-1.76-1-3.56-1.29-5.39l-.72.2c.38,1.23.66,2.58,1.19,3.76.05.12.2.18.32.19h0c.26,0,.4-.24.36-.47-.12-.75-.46-1.52-.68-2.24-.36-1.17-.72-2.35-1.08-3.52-.06-.2-.12-.41-.18-.61-.02-.08-.07-.37-.06-.16l-.7.19c-.1-.19.05.19.07.26.15.47.79.27.72-.2-.93-6.21-.47-12.86,2.77-18.37,2.91-4.95,8.05-8.5,13.67-9.6,2.95-.58,5.97-.39,8.84.49s5.32,2.22,7.84,3.59,5.08,2.77,7.82,3.7,5.55,1.29,8.39,1.02c5.45-.51,10.37-3.2,14.58-6.57,2.25-1.8,4.32-3.81,6.27-5.92s3.82-4.22,5.45-6.52c.87-1.23,1.58-2.59,1.68-4.12.09-1.45-.37-2.86-1.02-4.14-1.19-2.35-2.93-4.5-4.8-6.36-3.82-3.78-8.26-6.89-12.39-10.31-1.92-1.59-3.83-3.23-5.48-5.1-.33-.37-.71-.76-.96-1.2-.34-.6-.64-1.19-1.05-1.74-.78-1.06-1.72-1.99-2.77-2.79-5.02-3.82-11.98-4.2-17.81-2.2-2.81.96-5.43,2.48-7.62,4.5-.51.47-.99.97-1.45,1.49-.52.59-1.04,1.27-1.8,1.55s-1.69.16-2.51.14c-.9-.02-1.8-.05-2.7-.07-1.84-.05-3.68-.1-5.52-.15-.81-.02-1.68.04-2.48-.13-1.01-.21-1.44-1.05-1.92-1.88-.87-1.49-1.64-3.05-2.28-4.65-.31-.78-.57-1.57-.84-2.36-.14-.41-.02-.68.12-1.09,1.18-3.49,3.37-6.7,5.49-9.66,2.73-3.81,5.79-7.42,9.14-10.71,2.88-2.84,6.07-5.69,9.78-7.4,1.93-.9,4.05-1.14,6.14-1.46,3.19-.5,6.39-.91,9.57-1.47s6.19-1.24,9.16-2.33c2.35-.86,4.73-1.92,6.67-3.54,3.04-2.54,4.67-6.33,5.23-10.18.63-4.3.12-8.73-1.05-12.89s-3.12-8.38-5.79-11.91c-.64-.84-1.32-1.66-2.06-2.42-.31-.33-.64-.64-.97-.95-.19-.18-.43-.34-.6-.53-.23-.26-.36-.64-.54-.94-1.39-2.33-3.59-4.13-6.02-5.3-5.67-2.74-12.6-2.13-18.11.7-1.3.67-2.53,1.47-3.66,2.38s-2.1,2.1-3.18,3.16c-1.28,1.27-3.15.88-4.8.84-1.8-.05-3.6-.1-5.4-.15-.9-.02-1.8-.05-2.7-.07s-1.91-.01-2.56-.81c-.48-.59-.84-1.31-1.2-1.98-.44-.81-.86-1.63-1.24-2.47-.66-1.45-1.14-2.95-1.68-4.45-.29-.8-.36-1.65-.32-2.5.09-2.04.77-4.06,1.6-5.91.98-2.18,2.23-4.25,3.66-6.16s2.94-3.55,4.75-4.92c1.96-1.48,4.22-2.21,6.6-2.72,6.68-1.42,13.55-.6,20.31-.48,6.1.1,12.6-.28,18.03-3.36,4.66-2.64,7.9-7.18,9.34-12.29.69-2.45,1.03-5.07.88-7.61-.11-1.85-.68-3.67-1.34-5.39-1.72-4.54-4.15-8.81-6.54-13.03-1.19-2.09-2.4-4.17-3.56-6.27-.93-1.67-1.71-3.4-2.61-5.08-2.79-5.23-9.06-7.64-14.73-7.52-3.15.06-6.27.82-9.11,2.18s-5.01,3.16-7.02,5.41c-.51.58-1.06,1.09-1.84,1.24-.84.16-1.75.04-2.6.02-1.88-.05-3.76-.1-5.64-.15-.86-.02-1.72-.05-2.58-.07s-1.89.09-2.65-.35c-.7-.41-1.11-1.36-1.5-2.04-.44-.77-.84-1.55-1.22-2.35s-.69-1.54-1-2.33c-.15-.39-.29-.78-.43-1.18-.13-.37-.38-.84-.31-1.23.16-.97.65-1.98,1.01-2.88.92-2.31,2.04-4.55,3.27-6.71,2.61-4.58,5.78-8.99,9.75-12.49,1.75-1.54,3.72-2.94,5.92-3.78,2.73-1.04,5.67-1.33,8.57-1.3,6.03.06,12.01,1.45,18.05,1.05,2.77-.19,5.52-.79,7.99-2.07,2.21-1.15,4.11-2.81,5.59-4.79,2.92-3.9,4.18-9.03,3.6-13.85-.54-4.43-2.41-8.75-4.2-12.8-2.04-4.61-4.35-9.12-6.91-13.46-.51-.86-1.02-1.71-1.56-2.55-.68-1.05-1.21-2.13-2.05-3.09-1.83-2.08-4.31-3.56-6.94-4.39-6.04-1.92-12.98-.59-18.16,2.95-1.18.81-2.29,1.74-3.28,2.78-.48.5-.89,1.07-1.4,1.54-.72.66-1.53.78-2.49.77-3.57-.06-7.15-.15-10.72-.29-.96-.04-1.72-.21-2.28-1.04-.51-.74-.93-1.55-1.35-2.34-.8-1.52-1.49-3.1-2.05-4.73-.23-.67-.43-1.26-.4-1.98.02-.5.08-.99.17-1.48.19-1.06.52-2.09.95-3.08,1.94-4.45,5.57-8.09,9.34-11.04,4.13-3.23,8.83-5.87,13.8-7.54,2.45-.82,4.95-1.27,7.49-1.68,2.96-.48,5.94-.89,8.9-1.37,5.63-.91,11.32-2.04,16.52-4.46,3.97-1.85,7.97-4.49,9.7-8.68,1.53-3.72,1.41-7.94.66-11.82-.86-4.46-2.64-8.76-4.96-12.65s-5.05-7.22-8.54-9.85c-.82-.61-1.67-1.18-2.57-1.67-.17-.09-.43-.17-.57-.3-.17-.16-.27-.49-.39-.7-.34-.6-.74-1.16-1.18-1.68-1.77-2.12-4.21-3.65-6.8-4.55-5.99-2.06-12.95-.83-18.19,2.6-1.2.79-2.33,1.7-3.34,2.72-.49.5-.93,1.05-1.42,1.56-.66.7-1.36,1.01-2.33,1.03-1.76.03-3.54-.09-5.3-.14s-3.6-.1-5.4-.15c-.86-.02-1.78,0-2.43-.66-.61-.62-1.03-1.57-1.44-2.33-.82-1.52-1.53-3.09-2.12-4.71-.67-1.86-1.34-3.78-1.86-5.68-.11-.4-.21-.8-.28-1.21-.05-.27-.18-.8-.04-1.07.13-.25.36-.12.64-.19.48-.12.89-.42,1.21-.81.75-.92.91-2.12,1.2-3.22.32-1.21.73-2.4,1.22-3.55,4.22-9.94,13.93-17,24.24-19.53,5.85-1.44,11.88-1.07,17.84-1.5,2.9-.21,5.82-.6,8.56-1.61,2.12-.78,4.27-1.9,5.74-3.67,2.56-3.1,2.6-7.36,1.95-11.13-.81-4.75-2.68-9.31-4.67-13.68-1-2.21-2.07-4.39-3.15-6.56-.48-.96-.95-1.91-1.43-2.87s-.94-2.04-1.55-2.98c-3.27-5-9.61-7.05-15.36-6.63-3.15.23-6.23,1.13-9,2.64-1.31.71-2.54,1.56-3.67,2.53-.55.47-1.08.98-1.58,1.51-.47.5-.88,1.07-1.41,1.51-.69.59-1.48.66-2.35.64-.93-.01-1.86-.05-2.79-.08-1.84-.05-3.68-.1-5.52-.15-.87-.02-1.75-.03-2.62-.07-.98-.06-1.65-.36-2.18-1.19-.93-1.43-1.71-2.99-2.38-4.56-.63-1.47-1.31-3.04-1.5-4.64-.14-1.17-.08-2.36.15-3.52.5-2.53,1.74-4.87,3.33-6.88,3.46-4.37,8.5-7.32,13.98-8.25,7.16-1.21,14.46-.41,21.64.14,6.09.46,12.18.69,18.21-.49,5.01-.98,10.13-2.92,13.74-6.67,4-4.16,5.11-9.93,4-15.48s-3.81-9.88-7.2-13.99-7.49-8.27-11.25-12.39c-.91-1-1.82-2.01-2.7-3.03-.35-.41-.71-.83-1.05-1.25-.4-.48-.93-1-1.12-1.6-.8-2.52-2.22-4.6-4.31-6.23-4.86-3.8-11.59-4.32-17.35-2.54-2.76.85-5.36,2.25-7.58,4.11-1.06.89-1.89,1.94-2.86,2.91-1.27,1.27-3.16.88-4.8.84s-3.43-.09-5.15-.14c-.9-.02-1.8-.05-2.7-.07-.84-.02-1.85.06-2.53-.52-.55-.47-.89-1.24-1.25-1.86-.42-.73-.81-1.48-1.17-2.25-.74-1.55-1.35-3.15-1.85-4.79-.14-.46-.86-.26-.72.2.5,1.63,1.11,3.22,1.83,4.77.66,1.4,1.36,2.99,2.36,4.18s2.67,1.01,4.07,1.05c1.88.05,3.76.1,5.64.15.82.02,1.64.04,2.45.07s1.72.11,2.55-.05c1.38-.28,2.16-1.48,3.06-2.44,2.15-2.27,4.87-3.99,7.8-5.07,5.89-2.16,13.12-1.82,18.08,2.34,1.06.89,1.98,1.93,2.68,3.12.3.52.56,1.06.76,1.62.22.62.29,1.15.7,1.67,1.56,2.01,3.27,3.9,4.99,5.77,3.76,4.1,7.69,8.06,11.21,12.38s6.21,9.19,6.92,14.71c.37,2.88.14,5.86-.95,8.57-1.02,2.53-2.78,4.71-4.92,6.38-4.29,3.35-9.87,4.79-15.2,5.38-6.45.71-12.91,0-19.35-.48-3.6-.27-7.22-.47-10.84-.33-3.19.12-6.48.43-9.52,1.45-4.99,1.68-9.54,5.16-12.29,9.67-1.23,2.02-2.09,4.29-2.28,6.65-.23,2.89.86,5.58,2.07,8.16.66,1.4,1.36,2.99,2.36,4.18s2.85,1.02,4.32,1.06c1.8.05,3.6.1,5.4.15.9.02,1.8.05,2.7.07.76.02,1.55.09,2.31-.06,1.44-.29,2.24-1.59,3.2-2.58,1.05-1.08,2.23-2.04,3.5-2.86,2.78-1.78,5.99-2.92,9.27-3.26,5.9-.62,12.75,1.4,15.79,6.88,1.05,1.9,1.94,3.91,2.9,5.85,1.06,2.15,2.11,4.3,3.09,6.49,1.98,4.43,3.86,9.11,4.48,13.95.48,3.82,0,8-3.17,10.57-2.17,1.75-4.98,2.68-7.67,3.21-2.94.58-5.94.71-8.93.81s-6.15.13-9.21.48c-2.74.32-5.44.93-8.05,1.82-9.76,3.36-18.62,10.79-22.08,20.71-.41,1.16-.63,2.37-.99,3.54-.16.53-.39,1.09-.79,1.49-.25.25-.53.38-.88.43-.18.02-.34,0-.51.08-.53.25-.54.94-.5,1.44.08.91.34,1.81.61,2.68.63,2.05,1.3,4.14,2.11,6.12.63,1.56,1.37,3.07,2.21,4.52.34.59.68,1.25,1.19,1.71.54.49,1.24.65,1.95.7,1.75.14,3.53.11,5.28.15s3.6.1,5.4.15c.74.02,1.51.06,2.22-.18.66-.23,1.19-.68,1.65-1.19.98-1.07,1.93-2.12,3.08-3.02,5.12-4.03,12.38-5.65,18.65-3.66,2.75.88,5.35,2.51,7.12,4.82.4.52.75,1.07,1.04,1.65.26.5.61.6,1.09.87.89.5,1.75,1.07,2.56,1.69,3.54,2.7,6.36,6.33,8.56,10.18s3.95,8.3,4.67,12.8c.62,3.86.52,8.14-1.43,11.64-1.03,1.85-2.58,3.24-4.3,4.45-2.3,1.62-4.85,2.85-7.49,3.81-5.5,1.98-11.32,2.86-17.08,3.73-2.9.44-5.81.83-8.68,1.4-2.36.47-4.65,1.24-6.86,2.18-4.81,2.03-9.34,4.85-13.26,8.31-3.42,3.02-6.66,6.75-8.05,11.17-.3.95-.5,1.94-.57,2.93-.03.48-.07.96.06,1.43.24.87.57,1.73.91,2.57.61,1.52,1.32,3,2.13,4.43.74,1.31,1.39,2.48,3.01,2.68,1.75.22,3.58.13,5.35.18s3.6.1,5.4.15c1.53.04,2.79-.01,3.92-1.16,1.03-1.06,1.95-2.16,3.11-3.1,5.08-4.09,12.33-5.76,18.62-3.84,2.75.84,5.33,2.42,7.14,4.67.74.92,1.25,1.99,1.88,2.99.54.85,1.06,1.72,1.56,2.59,2.59,4.44,4.93,9.05,6.97,13.76.98,2.25,1.88,4.54,2.62,6.88.63,1.98,1.14,4,1.23,6.08.23,4.97-1.46,10.1-4.96,13.69-8.91,9.14-22.72,2.72-33.67,4.08-2.53.31-4.98,1.01-7.18,2.3-2.04,1.19-3.87,2.75-5.52,4.43-3.73,3.78-6.77,8.29-9.22,12.99-1.06,2.02-2.01,4.11-2.77,6.26-.17.47-.32.93-.47,1.41-.21.7.11,1.3.35,1.97.55,1.58,1.22,3.12,1.98,4.6.39.75.8,1.49,1.25,2.21.35.56.74,1.11,1.36,1.4s1.32.32,1.99.34c.94.03,1.88.05,2.82.08,1.84.05,3.68.1,5.52.15,1.44.04,3.23.37,4.53-.42.56-.34.99-.84,1.41-1.32.5-.57,1.01-1.12,1.57-1.63,1.14-1.05,2.42-1.96,3.77-2.73,2.88-1.62,6.15-2.57,9.46-2.72,5.86-.27,12.38,2.18,14.97,7.8,1.82,3.94,4.14,7.65,6.27,11.42,2.37,4.19,4.81,8.47,6.38,13.04.64,1.87,1.03,3.71.99,5.69-.05,2.67-.54,5.34-1.49,7.84-2.04,5.39-6.22,9.54-11.66,11.48-6.05,2.15-12.65,1.88-18.97,1.62s-13.61-.65-19.85,1.82c-1.75.69-3.28,1.88-4.64,3.17-1.69,1.6-3.16,3.44-4.43,5.38s-2.38,4.02-3.17,6.2c-.64,1.76-1.12,3.68-.97,5.57.08.98.41,1.87.72,2.8.51,1.55,1.14,3.06,1.86,4.52.37.76.77,1.5,1.2,2.23.36.62.72,1.29,1.29,1.74.52.4,1.15.52,1.79.58.94.08,1.89.06,2.83.09,1.8.05,3.6.1,5.4.15.9.02,1.8.05,2.7.07.73.02,1.47.02,2.15-.26,1.25-.52,2.03-1.83,2.97-2.75,1.11-1.09,2.34-2.03,3.67-2.83,5.52-3.32,12.9-4.24,18.79-1.31,2.59,1.29,4.61,3.2,6,5.73.22.4.65.67.98.99.38.36.75.73,1.1,1.11.73.79,1.41,1.62,2.04,2.49,2.65,3.65,4.51,7.88,5.61,12.25s1.44,8.69.51,12.94c-.84,3.84-2.88,7.38-6.3,9.45-5.39,3.26-11.86,4.31-17.99,5.23-3.07.46-6.17.83-9.21,1.45-1.56.32-3.03,1.03-4.38,1.83-3.64,2.16-6.83,5.12-9.74,8.17-3.22,3.37-6.19,7.01-8.81,10.87-1.09,1.61-2.12,3.26-3.02,4.98-.39.74-.75,1.49-1.06,2.26-.23.56-.59,1.26-.64,1.88-.02.28.12.58.2.85.14.43.29.86.45,1.29.27.74.57,1.48.9,2.2.69,1.55,1.46,3.19,2.47,4.57.93,1.27,2.33,1.23,3.76,1.27,1.8.05,3.6.1,5.4.15.9.02,1.8.05,2.7.07s1.84.12,2.74,0c1.42-.18,2.2-1.2,3.1-2.19,2.1-2.31,4.78-4.08,7.68-5.21,5.91-2.29,13.24-2.07,18.32,2.06,1.05.86,1.99,1.87,2.71,3.03.31.5.53,1.02.9,1.48.34.43.7.85,1.08,1.25,1.7,1.84,3.62,3.47,5.55,5.06,4.14,3.4,8.6,6.51,12.36,10.35.83.85,1.59,1.74,2.29,2.69.96,1.3,1.92,2.66,2.48,4.19s.6,3.23-.14,4.78c-.69,1.45-1.77,2.68-2.78,3.91-6.76,8.24-16.18,17.61-27.8,16.34-5.99-.65-10.91-4.35-16.24-6.81-2.54-1.17-5.21-2.07-8.02-2.26s-5.76.31-8.42,1.36c-5.07,1.99-9.29,5.82-11.58,10.77-2.47,5.33-2.74,11.36-1.88,17.1l.72-.2c-.04-.14-.08-.31-.15-.44-.18-.33-.71-.18-.7.19,0,.24.13.5.2.72.16.52.31,1.03.47,1.55.37,1.2.73,2.4,1.1,3.6.09.28.21.58.26.87l.36-.47h0c.11.06.22.12.32.19.09.19-.02-.09-.04-.14-.07-.22-.14-.43-.2-.64-.29-.93-.58-1.86-.87-2.79-.15-.47-.8-.27-.72.2.58,3.75,1.79,7.39,3.56,10.75.72,1.38,1.5,3.34,3.19,3.7.87.19,1.8.13,2.68.16,1.06.03,2.13.06,3.19.09,2.06.06,4.13.16,6.19.17.82,0,1.62-.11,2.3-.58.65-.44,1.12-1.08,1.64-1.66,2.39-2.63,5.52-4.56,8.9-5.64,6.66-2.13,15.37-1.05,19.56,5.14,1.07,1.59,1.48,3.57,2.07,5.38.68,2.1,1.36,4.21,2.02,6.32,1.53,4.93,2.95,9.9,4,14.96.94,4.54,1.72,9.33,1.19,13.98-.2,1.72-.61,3.48-1.53,4.96-1.27,2.04-3.68,3.27-5.85,4.11-6.51,2.52-13.8,1.89-20.58,1.06-3.99-.49-7.98-1.05-12.01-1.13-3.73-.07-7.66.22-11.17,1.59-4.94,1.92-10.33,6.63-10.08,12.42.06,1.27.42,2.5,1.03,3.61l.42-.55c-1.26-.28-.6,2.56-.52,3.07.31,1.96.76,3.89,1.01,5.86.05.38.09.76.09,1.14,0,.1-.05.25-.02.32.02.06-.04.05-.02.06,0,0,.17-.12.24-.1-.27-.06-.55.18-.46.46.48,1.56,1.05,3.08,1.74,4.56s1.38,2.97,2.34,4.23,2.5,1.16,3.95,1.2c1.8.05,3.6.1,5.4.15.9.02,1.8.05,2.7.07.82.02,1.67.1,2.49,0,1.42-.18,2.2-1.2,3.1-2.19,2.05-2.26,4.66-4.01,7.49-5.13,5.81-2.31,12.92-2.19,18.07,1.64,1.09.81,2.08,1.8,2.85,2.92.35.5.57,1.13.94,1.61.33.43.82.79,1.19,1.18,1.71,1.8,3.21,3.8,4.53,5.91,2.72,4.36,4.86,9.34,5.47,14.48.27,2.27.23,4.62-.4,6.84-.69,2.41-2.2,4.41-3.82,6.28-3.81,4.4-8.65,7.8-13.74,10.55-2.7,1.46-5.49,2.75-8.34,3.92-2.32.95-4.61,1.86-6.83,3.04-9.61,5.13-17.95,12.34-27.54,17.51-.98.53-1.98,1.03-3,1.48-.12.05-.19.2-.19.32.12,6.21.54,12.41,1.23,18.58.02.22.15.35.38.38,3.87.4,7.83.25,11.72.19,4.18-.06,8.37-.17,12.55-.36,3.07-.14,6.16-.03,9.23-.04,3.65-.02,7.3-.07,10.95-.13,7.38-.12,14.77-.3,22.15-.4,13.7-.18,27.41.02,41.11-.04,13.7-.06,27.39-.2,41.09-.29,13.42-.08,26.84-.05,40.26.03,14.22.09,28.44.15,42.66.12s28.8-.13,43.2-.36c14.42-.23,28.84-.59,43.26-1.11,14.37-.52,28.74-1.21,43.09-2.12,14.24-.9,28.47-2.01,42.68-3.39,3.49-.34,6.97-.69,10.46-1.06s7.13-.86,10.7-1.08c7.17-.45,14.34-.89,21.51-1.32,14.21-.85,28.43-1.64,42.64-2.35s28.53-1.35,42.8-1.89,28.56-.98,42.84-1.31c14.33-.33,28.66-.54,43-.62s28.86-.02,43.28.19c14.57.21,29.13.58,43.69,1.11,7.31.27,14.61.58,21.91.93,7.33.35,14.65.88,21.99.99,7.32.11,14.65-.08,21.97.02s13.91.46,20.85.86,14.35.89,21.53,1.22,14.43.45,21.66.34c3.28-.05,6.57.26,9.85.17,1.33-.04,2.24-.67,2.4-2.03.14-1.13.06-2.33.07-3.47.05-5.55.03-11.1-.02-16.64s-.23-11.34-.39-17.01c-.2-7.27-.3-14.53-.36-21.8-.11-14.4-.05-28.79-.23-43.19-.09-7.27-.33-14.54-.51-21.81-.14-5.42-.06-10.86-.12-16.29-.12-11.7-.3-23.39-.51-35.08-.23-12.4-.49-24.8-.76-37.2-.28-12.67-.57-25.35-.86-38.02-.28-12.51-.56-25.02-.8-37.53-.23-11.91-.44-23.83-.59-35.74-.07-5.57-.13-11.13-.17-16.7-.02-2.68.02-5.37-.04-8.06-.08-3.64-.33-7.29-.49-10.93-.63-14.55-1.16-29.1-1.41-43.66s-.23-28.84.23-43.26c.23-7.23.57-14.45,1.05-21.66.12-1.79.24-3.58.37-5.37.12-1.61.1-3.23.1-4.85,0-3.11,0-6.22.01-9.32.02-12.88.02-25.75.05-38.63s.07-26.86.15-40.3c.09-13.7.22-27.41.41-41.11s.47-27.85.84-41.77c.37-13.87.83-27.73,1.42-41.59.59-13.89,1.28-27.78,2.31-41.65,1.09-14.7,2.4-29.39,3.92-44.06s3.12-28.18,4.98-42.23c.03-.19-.19-.38-.38-.38-8,.41-16.04.17-24-.74-.47-.05-.75-.1-1.19.08-.36.15-.71.3-1.07.44-.78.32-1.55.64-2.33.96-1.44.59-2.88,1.17-4.33,1.74-2.97,1.18-5.95,2.34-8.94,3.46-12.23,4.61-24.62,8.79-37.12,12.6s-25.87,7.44-38.95,10.62c-13.37,3.25-26.82,6.13-40.34,8.69-13.71,2.59-27.47,4.85-41.29,6.8-13.93,1.97-27.91,3.62-41.91,4.97-13.93,1.35-27.89,2.4-41.87,3.16-13.82.75-27.66,1.22-41.5,1.41-13.56.18-27.13.09-40.69-.29s-26.31-1.01-39.44-1.95c-15.84-1.13-31.67-2.54-47.47-4.1-15.99-1.58-31.96-3.35-47.92-5.22-15.96-1.88-31.9-3.87-47.83-5.91-15.94-2.04-31.86-4.14-47.8-6.22-15.93-2.08-31.86-4.15-47.8-6.14-15.94-1.99-31.89-3.91-47.86-5.68s-31.96-3.41-47.97-4.83c-8.01-.71-16.02-1.37-24.04-1.98-6.54-.49-13.07-1.18-19.63-.59-11.85,1.05-23.41,4.92-34.03,10.19-10.57,5.24-20.59,12.05-28.84,20.53-3.48,3.58-6.65,7.49-9.19,11.79-.25.42.4.79.65.38h0Z"/>
  </g>
  <path class="cls-1" d="M252.02,66.26c-72.2-.91-144.09-2.56-214.8-5.28v62.78h24.86c.55-12.81,39.21-17.58,38.73,7.94-.51,27.08-38.53,20.14-39.53,6.52l-24.07-.03v70.17c4.32,0,24.03,0,24.03,0,.55-12.81,39.21-17.58,38.73,7.94-.51,27.08-38.53,20.14-39.53,6.52l-24.07-.03v70.26s24.86,0,24.86,0c.55-12.81,39.21-17.58,38.73,7.94-.51,27.08-38.53,20.14-39.53,6.52l-24.07-.03v69.99s24.86,0,24.86,0c.55-12.81,39.21-17.58,38.73,7.94-.51,27.08-38.53,20.14-39.53,6.52l-24.07-.03s0,64.25,0,70.26c4.32,0,24.03,0,24.03,0,.55-12.81,39.21-17.58,38.73,7.94-.51,27.08-38.53,20.14-39.53,6.52l-24.07-.03v69.99s24.86,0,24.86,0c.55-12.81,39.21-17.58,38.73,7.94-.51,27.08-38.53,20.14-39.53,6.52l-24.07-.03v70.06c4.06,0,24.14,0,24.14,0,.55-12.81,39.21-17.58,38.73,7.94-.51,27.08-38.53,20.14-39.53,6.52l-24.07-.03v70.19c4.2,0,24.08,0,24.08,0,.55-12.81,39.21-17.58,38.73,7.94-.51,27.08-38.53,20.14-39.53,6.52l-24.07-.03s0,65.69,0,70.44h3.2s24.86,0,24.86,0c.55-12.81,39.21-17.58,38.73,7.94-.51,27.08-38.53,20.14-39.53,6.52l-24.07-.03v70.71c24.05.3,40.24,2.99,64.29,3.29,98.69,1.23,197.51,2.45,296-2.72,42.72-2.24,85.34-5.69,128.03-8.32,134.75-8.29,278.05-9.69,412.82-1.64-10.66-240.52-11.26-481.34-1.8-721.9.9-22.94,2.7-69.45,1.4-92.38-11.43.27-68.82-.26-80.25,0-83.02,1.87-166.07,3.2-249.12,4.01-117.03,1.14-237.24,1.68-356.61.19Z"/>
  <path class="cls-2" d="M134.32,60.09c-1.91-11.03-4.66-22.17-4.6-33.43.02-2.97,0-6.35,2.01-8.77s5.82-4.05,8.64-5.42c6.11-2.98,12.81-4.95,19.56-5.76,6.19-.75,12.99-1.64,15.26,5.49,1.85,5.83,2.04,12.46,2.83,18.5,1.79,13.56,3.61,27.11,5.37,40.68,1.76,13.62,3.42,27.25,4.64,40.93.61,6.83,1.11,13.68,1.46,20.53.29,5.7,1.88,13.95-.12,19.43-1.64,4.52-10.07,11.04-15.08,10.94-6.49-.13-7.78-13.5-9.02-18.33-3.36-13.06-6.33-26.23-8.89-39.47-1.24-6.42-3.12-12.78-4.12-19.24-.6-3.91-1.16-8.5,2.04-11.26.78-.68,2.24-1.68,3.19-2.1,3.19-1.41,4.6.95,5.98,3.81,3.12,6.46,4.26,14.78,5.55,21.78,1.43,7.78,2.36,15.64,3.12,23.52.37,3.81,6.38,3.85,6,0-1.62-16.57-3.19-35.22-10.24-50.54-2.46-5.34-7.76-6.86-12.87-4.1-5.41,2.92-8.68,6.14-9.12,12.44-.53,7.65,2.3,15.16,3.77,22.57,1.75,8.82,3.47,17.64,5.47,26.41s4.18,17.49,6.53,26.17c1.58,5.84,3.07,12.5,9.83,14.08,6.34,1.47,11.92-2.57,16.62-6.25,5.63-4.41,7.87-9.23,7.82-16.36-.12-18.2-1.98-36.45-4.06-54.51s-4.69-36.89-7.13-55.33c-1.05-7.93-1.55-16.18-3.32-23.98-1.17-5.16-3.88-10.24-9.34-11.72-7.64-2.07-17.72.29-25.06,2.6-6.92,2.18-16.97,5.65-21.04,12.12-3.69,5.86-2.42,14.63-1.66,21.11.99,8.42,2.71,16.72,4.16,25.06.66,3.8,6.44,2.19,5.79-1.6h0Z"/>
</svg>