<?xml version="1.0" encoding="UTF-8"?>
<svg id="Layer_1" data-name="Layer 1" xmlns="http://www.w3.org/2000/svg" viewBox="0 0 1375.24 2018.74" preserveAspectRatio="none">
  <defs>
    <style>
      .cls-1 {
        fill: #fef3ed;
      }

      .cls-2 {
        opacity: .2;
      }

      .cls-3 {
        fill: gray;
      }

      .cls-4 {
        fill: #fbeda6;
      }

      .cls-5 {
        opacity: .22;
      }
    </style>
  </defs>
  <g class="cls-5">
    <path class="cls-3" d="M1270.96,543.11c4.91,65.77,9.76,131.15,14.33,194.43,10.55,118.31,25.92,289.44,36.47,407.74,7.19,93.64,17.79,234.64,24.98,328.28,4.95,90.74,13.42,193.73,21.03,284.09,2.34,24.86,4.68,49.72,7.02,74.58.11,1.16.13,2.59-.57,3.2-.3.26-.66.3-1.01.33-14.89,1.43-30.65,4.82-44.37,8.22-43.7,6.93-98.18,12.37-142.13,14.25,1.96,3.03-19.26,9.19-17.3,12.22-94.84-1.81-193.69,26.82-293.86,44.97-83,12.47-166,24.93-249,37.4-27.57,4.14-55.14,8.28-82.7,12.42-16.45,2.47-32.9,4.94-49.35,7.41-85.11,12.43-183.26,29.85-268.37,42.27-20.36-.11-42.79.58-63.06,3.27-1.21.16-2.95.48-3.77-.78-.54-.82-.33-2.24-.43-3.35-1.18-12.1-1.56-24.36-1.13-36.56,30.05-127.65,74.34-264.89,115.67-386.09,89.57-262.69,179.49-526.27,292.66-770.13,113.17-243.86,251-468.93,421.81-632.73,39.64-38.01,80.92-72.6,123.53-103.53,20.86-15.14,68.71-50.9,91.56-43.46,10.45-4.79,21.24-8.11,32.15-9.9,3.8,76.15,8.76,152.18,14.86,228.03,6.63,91.78,13.85,188,20.97,283.4Z"/>
    <path class="cls-3" d="M1270.58,543.11c1.05,14.09,2.1,28.19,3.15,42.28s2.09,28.13,3.13,42.2c1.03,13.92,2.06,27.84,3.08,41.76,1.01,13.78,2.02,27.56,3.02,41.35.9,12.38,1.76,24.76,2.86,37.13.92,10.31,1.84,20.63,2.76,30.94.97,10.87,1.94,21.75,2.92,32.62s2.02,22.63,3.04,33.94c1.04,11.64,2.08,23.27,3.12,34.91,1.06,11.84,2.12,23.68,3.18,35.52s2.14,23.85,3.2,35.77,2.13,23.78,3.19,35.67,2.1,23.48,3.15,35.21,2.05,22.94,3.08,34.4,1.98,22.16,2.97,33.24,1.89,21.14,2.83,31.72c.88,9.9,1.81,19.8,2.57,29.72.77,10.01,1.53,20.01,2.29,30.02.82,10.72,1.63,21.45,2.45,32.17.86,11.25,1.71,22.51,2.57,33.76s1.76,23.18,2.64,34.77c.89,11.74,1.78,23.48,2.67,35.21.89,11.73,1.78,23.46,2.67,35.19s1.74,22.92,2.61,34.38c.84,11.04,1.68,22.07,2.52,33.11.8,10.45,1.59,20.9,2.39,31.35.38,4.92.75,9.84,1.13,14.76.42,5.47.76,10.93,1.07,16.41.72,12.73,1.49,25.46,2.31,38.19s1.71,26.06,2.62,39.09,1.88,26.41,2.86,39.61,2,26.5,3.04,39.75,2.08,26.34,3.15,39.5c1.05,12.96,2.12,25.91,3.19,38.87s2.11,25.24,3.17,37.86c1.18,14,2.61,27.98,3.93,41.96.66,7.04,1.33,14.09,1.99,21.13.33,3.52.66,7.04.99,10.57.15,1.54.47,3.18.33,4.74-.06.67-.25,1.35-.99,1.5-.83.16-1.71.17-2.56.27-13.13,1.43-26.11,4.11-38.94,7.21-1.47.35-2.92.74-4.41.97s-2.95.46-4.42.69c-2.87.44-5.75.86-8.62,1.28-6.05.87-12.11,1.69-18.17,2.47-12.5,1.6-25.03,3.03-37.57,4.29s-25.1,2.37-37.67,3.29c-11.45.84-22.92,1.54-34.39,2.03-.27.01-.48.31-.32.56.14.23.07.45-.15.76-.33.44-.81.78-1.25,1.09-1.44.99-3.02,1.77-4.59,2.53-1.85.91-3.72,1.77-5.56,2.68-1.51.75-3.06,1.52-4.42,2.53-.75.56-1.97,1.57-1.33,2.62l.32-.56c-13.73-.26-27.47.12-41.18.99s-27.8,2.28-41.63,4.04-27.98,3.93-41.9,6.33c-14.17,2.44-28.29,5.12-42.38,7.94-14.25,2.84-28.47,5.81-42.69,8.8-14.31,3-28.62,6.01-42.95,8.93-7.18,1.46-14.36,2.89-21.56,4.28s-14.4,2.9-21.66,3.99c-14.82,2.23-29.64,4.45-44.46,6.68-14.82,2.23-29.64,4.45-44.46,6.68-14.78,2.22-29.56,4.44-44.34,6.66s-29.56,4.44-44.34,6.66c-14.82,2.23-29.64,4.45-44.46,6.68-14.82,2.23-29.64,4.45-44.45,6.68-14.81,2.22-29.63,4.45-44.44,6.67-14.81,2.22-29.62,4.45-44.43,6.67-13.93,2.09-27.86,4.15-41.79,6.24s-26.56,4.06-39.83,6.16-27.22,4.33-40.82,6.54-27.52,4.47-41.28,6.71c-13.73,2.24-27.47,4.47-41.21,6.68s-26.99,4.32-40.49,6.43-26.23,4.06-39.35,6c-1.64.24-3.29.49-4.93.73-.81.12-1.65.31-2.47.33s-1.66,0-2.48,0c-3.44,0-6.88.01-10.33.06-7.04.09-14.09.3-21.12.67s-14,.88-20.98,1.62c-1.74.18-3.49.38-5.23.6-1.4.17-2.83.48-4.24.5-.62,0-1.31-.08-1.75-.56-.53-.58-.48-1.5-.49-2.23-.02-1.68-.26-3.37-.4-5.04-.61-7.4-.93-14.82-.95-22.24,0-1.9,0-3.8.04-5.7s-.1-3.73.32-5.49c.78-3.33,1.58-6.65,2.38-9.98,3.24-13.44,6.59-26.86,10.05-40.24s7.12-27.12,10.83-40.64c3.74-13.65,7.57-27.27,11.49-40.87s7.95-27.31,12.03-40.93,8.24-27.23,12.46-40.81,8.46-27.03,12.77-40.53c4.26-13.33,8.57-26.65,12.93-39.95s8.63-26.23,13.01-39.32c4.3-12.89,8.64-25.76,13.01-38.62s9.1-26.72,13.66-40.08,9.37-27.47,14.07-41.21,9.4-27.46,14.11-41.19c4.71-13.72,9.43-27.44,14.16-41.16s9.48-27.41,14.24-41.11,9.54-27.37,14.34-41.04,9.61-27.31,14.46-40.95,9.7-27.24,14.59-40.85,9.77-27.09,14.71-40.62c4.93-13.51,9.89-27,14.88-40.48,5-13.49,10.04-26.97,15.12-40.44s10.18-26.86,15.33-40.26c5.14-13.38,10.33-26.73,15.57-40.07s10.5-26.6,15.82-39.86c5.31-13.23,10.67-26.45,16.09-39.64s10.87-26.29,16.39-39.39c5.52-13.11,11.11-26.2,16.76-39.26,5.61-12.98,11.29-25.93,17.03-38.85s11.49-25.66,17.34-38.45c5.74-12.54,11.54-25.05,17.42-37.52,5.74-12.18,11.55-24.33,17.44-36.44s11.84-24.18,17.87-36.21c6.01-11.99,12.1-23.94,18.27-35.84s12.36-23.67,18.66-35.44c6.27-11.71,12.63-23.39,19.07-35.01,6.41-11.56,12.9-23.08,19.48-34.54,6.54-11.4,13.17-22.75,19.9-34.04,6.68-11.23,13.45-22.4,20.32-33.51,6.82-11.04,13.74-22.03,20.75-32.95s13.99-21.57,21.13-32.26,14.28-21.16,21.57-31.64c7.26-10.43,14.61-20.79,22.08-31.07,7.4-10.2,14.91-20.33,22.53-30.37,7.58-9.99,15.27-19.91,23.06-29.73s15.53-19.35,23.46-28.88,15.84-18.82,23.94-28.09,16.16-18.28,24.42-27.27,16.49-17.72,24.91-26.41c8.35-8.62,16.82-17.13,25.4-25.52,9.69-9.47,19.53-18.79,29.53-27.94,10.46-9.58,21.09-18.97,31.88-28.18s21.51-18.02,32.5-26.73,22.04-17.14,33.29-25.4c7.12-5.23,14.26-10.44,21.5-15.51,8.08-5.66,16.31-11.13,24.8-16.15s16.85-9.45,25.9-12.72c3.82-1.38,7.75-2.52,11.76-3.14,3.35-.51,6.84-.66,10.17.04.33.07.67.15,1,.24s.74.3,1.07.3c.21,0,.44-.17.62-.25.44-.2.87-.39,1.31-.59.77-.34,1.54-.67,2.32-1,3.05-1.28,6.15-2.44,9.29-3.47,6.11-2.02,12.36-3.56,18.71-4.61l-.47-.36c.42,8.43.86,16.85,1.31,25.28s.91,16.77,1.38,25.15.97,16.84,1.47,25.26,1.02,16.75,1.55,25.13c.53,8.41,1.08,16.83,1.64,25.24.56,8.41,1.14,16.82,1.73,25.23s1.19,16.73,1.8,25.09c.62,8.4,1.25,16.81,1.9,25.21.64,8.36,1.3,16.71,1.97,25.07s1.18,16.19,1.77,24.28c.59,8.1,1.18,16.19,1.77,24.29s1.2,16.38,1.8,24.57,1.21,16.47,1.82,24.71c.61,8.24,1.22,16.47,1.83,24.71s1.23,16.62,1.85,24.93,1.23,16.59,1.85,24.89,1.25,16.71,1.87,25.07,1.25,16.74,1.87,25.1,1.24,16.66,1.87,24.99c.63,8.37,1.25,16.74,1.87,25.11.3,4.04.6,8.08.9,12.11.04.48.79.48.75,0-.62-8.37-1.25-16.73-1.87-25.1s-1.24-16.66-1.87-24.99-1.25-16.74-1.87-25.11-1.24-16.64-1.86-24.96-1.24-16.69-1.86-25.04c-.62-8.32-1.24-16.65-1.86-24.97s-1.22-16.51-1.83-24.76-1.22-16.51-1.83-24.77-1.2-16.35-1.8-24.52-1.2-16.33-1.79-24.49-1.17-16.13-1.76-24.19c-.6-8.25-1.24-16.5-1.89-24.75-.66-8.4-1.31-16.8-1.94-25.2-.63-8.36-1.24-16.72-1.84-25.09s-1.19-16.82-1.77-25.22c-.57-8.37-1.13-16.74-1.68-25.11s-1.08-16.83-1.6-25.25c-.52-8.42-1.02-16.84-1.52-25.26s-.96-16.76-1.42-25.14-.91-16.85-1.35-25.28c-.21-4.07-.42-8.14-.62-12.21-.01-.26-.23-.4-.47-.36-6.92,1.14-13.74,2.88-20.38,5.17-3.35,1.16-6.66,2.46-9.9,3.89-.36.16-.73.32-1.09.49-.25.11-.53.31-.77.3-.37-.02-.81-.24-1.18-.33-.78-.19-1.56-.33-2.36-.43-3.47-.44-7.01-.12-10.43.53-4.08.77-8.07,2.04-11.94,3.53-9.03,3.47-17.6,8.11-25.88,13.08-8.41,5.05-16.56,10.52-24.58,16.17-7.46,5.25-14.83,10.63-22.17,16.05-11.23,8.28-22.31,16.77-33.22,25.46s-21.87,17.73-32.56,26.89c-10.81,9.26-21.45,18.71-31.93,28.34-9.87,9.07-19.59,18.31-29.16,27.7-8.57,8.41-17.03,16.94-25.37,25.58s-16.79,17.63-25.01,26.61-16.37,18.11-24.39,27.32c-8.08,9.28-16.05,18.67-23.91,28.15s-15.73,19.2-23.43,28.93c-7.74,9.78-15.37,19.65-22.9,29.6-7.65,10.11-15.19,20.31-22.63,30.58-7.45,10.3-14.8,20.67-22.05,31.11-7.3,10.52-14.5,21.11-21.6,31.77s-14.2,21.53-21.16,32.39c-7,10.94-13.91,21.93-20.72,32.99-6.89,11.19-13.69,22.44-20.4,33.74-6.71,11.31-13.33,22.67-19.87,34.08s-13.05,23-19.45,34.58-12.78,23.32-19.04,35.04c-6.29,11.78-12.5,23.61-18.64,35.47s-12.3,24.01-18.34,36.07c-6.02,12.04-11.97,24.12-17.84,36.24s-11.71,24.35-17.46,36.57c-5.89,12.52-11.7,25.07-17.44,37.66-5.86,12.83-11.64,25.69-17.36,38.58-5.77,13-11.46,26.03-17.1,39.09s-11.14,25.99-16.62,39.03c-5.51,13.11-10.97,26.25-16.36,39.41-5.41,13.2-10.77,26.42-16.07,39.66s-10.58,26.57-15.8,39.88c-5.26,13.42-10.47,26.86-15.63,40.31s-10.25,26.84-15.31,40.28-10.1,26.95-15.1,40.45-9.97,27.06-14.91,40.61c-4.96,13.61-9.88,27.23-14.77,40.86-4.9,13.65-9.77,27.31-14.62,40.98-4.84,13.65-9.65,27.3-14.44,40.96s-9.57,27.36-14.33,41.05-9.5,27.4-14.23,41.11-9.48,27.51-14.2,41.28-9.43,27.54-14.14,41.31-9.38,27.47-14.07,41.21-9.05,26.51-13.55,39.78-8.71,25.8-13.02,38.71-8.76,26.4-13.08,39.61-8.71,26.81-12.98,40.23c-4.3,13.5-8.55,27.03-12.74,40.57-4.2,13.59-8.35,27.2-12.42,40.84s-8.06,27.27-11.97,40.93c-3.9,13.63-7.72,27.29-11.45,40.97-3.69,13.55-7.28,27.12-10.77,40.72s-6.75,26.76-9.95,40.18c-.39,1.62-.77,3.25-1.16,4.87-.19.83-.33,1.57-.36,2.42-.03.99-.06,1.98-.08,2.97-.08,3.71-.08,7.43,0,11.14s.22,7.42.44,11.13c.11,1.89.24,3.78.4,5.67.14,1.73.39,3.48.45,5.21.04,1.23-.12,2.69.95,3.54.89.71,2.11.61,3.16.47,3.32-.43,6.64-.83,9.96-1.17,6.99-.71,14-1.2,21.02-1.54s14.06-.53,21.09-.6c3.43-.04,6.86-.05,10.29-.03,1.64,0,3.24-.3,4.86-.54s3.22-.47,4.83-.71c13.22-1.96,26.42-3.98,39.62-6.05,13.55-2.12,27.09-4.28,40.63-6.46s27.48-4.45,41.22-6.69,27.51-4.48,41.27-6.71,27.27-4.39,40.91-6.54,26.59-4.15,39.89-6.15c14.01-2.1,28.02-4.18,42.02-6.28,14.81-2.22,29.62-4.45,44.43-6.67,14.81-2.22,29.63-4.45,44.44-6.67,14.86-2.23,29.72-4.46,44.58-6.7,14.86-2.23,29.73-4.46,44.59-6.7,14.82-2.23,29.64-4.45,44.46-6.68s29.64-4.45,44.46-6.68,29.64-4.45,44.46-6.68c7.41-1.11,14.82-2.23,22.23-3.34l11.24-1.69c3.7-.56,7.42-1.02,11.1-1.69,14.46-2.63,28.87-5.47,43.27-8.4,14.32-2.92,28.63-5.94,42.93-8.94,14.21-2.98,28.43-5.94,42.67-8.76,14.09-2.79,28.2-5.46,42.36-7.86,14.04-2.38,28.12-4.51,42.25-6.25,13.86-1.7,27.77-3.03,41.71-3.84,12.64-.73,25.3-1.03,37.96-.79.28,0,.47-.32.32-.56s-.07-.45.15-.76c.33-.44.81-.78,1.25-1.09,1.44-.99,3.02-1.77,4.59-2.53,1.85-.91,3.72-1.77,5.56-2.68,1.51-.75,3.06-1.52,4.42-2.53.75-.56,1.97-1.57,1.33-2.62l-.32.56c11.98-.51,23.95-1.25,35.91-2.14,12.58-.94,25.15-2.06,37.71-3.34,12.52-1.28,25.03-2.71,37.51-4.33,6.01-.78,12.01-1.6,18-2.47,2.9-.42,5.8-.85,8.7-1.3,1.4-.22,2.81-.4,4.21-.66,1.58-.29,3.15-.76,4.72-1.13,12.94-3.09,26.04-5.75,39.29-7.06.57-.06,1.18-.06,1.66-.43.4-.31.61-.8.71-1.28.31-1.45-.03-3.03-.16-4.48-.33-3.48-.66-6.96-.98-10.44-.66-7.04-1.33-14.09-1.99-21.13-1.33-14.1-2.78-28.19-3.97-42.3-1.06-12.61-2.12-25.22-3.17-37.83s-2.14-25.9-3.19-38.86c-1.07-13.24-2.13-26.48-3.17-39.73-1.04-13.25-2.05-26.5-3.04-39.75s-1.95-26.49-2.87-39.73c-.91-13.07-1.79-26.14-2.63-39.21-.81-12.73-1.59-25.46-2.31-38.2-.31-5.49-.65-10.98-1.07-16.46-.38-4.95-.76-9.89-1.14-14.84-.8-10.45-1.6-20.9-2.39-31.34-.84-11.03-1.68-22.07-2.52-33.1-.87-11.49-1.75-22.99-2.62-34.48-.89-11.73-1.78-23.46-2.67-35.19-.89-11.74-1.78-23.48-2.67-35.21-.88-11.62-1.76-23.25-2.65-34.87-.86-11.28-1.71-22.57-2.57-33.85s-1.63-21.44-2.45-32.16c-.77-10.03-1.53-20.06-2.3-30.09-.76-9.95-1.7-19.89-2.59-29.82-.94-10.58-1.89-21.16-2.84-31.74-.99-11.12-1.99-22.24-2.98-33.35s-2.06-23.01-3.09-34.52c-1.05-11.74-2.1-23.48-3.15-35.23-1.07-11.93-2.14-23.85-3.2-35.78-1.07-11.96-2.14-23.92-3.21-35.87-1.06-11.84-2.12-23.67-3.18-35.51-1.05-11.7-2.09-23.39-3.14-35.09-1.01-11.3-2.02-22.6-3.03-33.91s-1.94-21.72-2.91-32.58-1.85-20.71-2.77-31.07c-1.11-12.45-1.96-24.93-2.87-37.4-1-13.79-2.01-27.57-3.03-41.36-1.03-14.01-2.06-28.01-3.1-42.02-1.04-14.03-2.08-28.05-3.12-42.08-1.01-13.6-2.02-27.19-3.04-40.79-.04-.48-.79-.48-.75,0Z"/>
  </g>
  <path class="cls-4" d="M1297.15,1823.94c16.86-3.62,33.71-7.32,50.55-11.11,2.33-.52,4.92-1.27,6.28-3.99,1.31-2.61,1.02-6.13.69-9.3-5.13-47.95-10.26-95.9-15.39-143.85-28.5-398.27-63.78-825.59-92.28-1223.86-11.69-138.75-23.39-277.5-35.08-416.25-.36-4.26-.82-8.84-2.92-11.95-3.3-4.89-8.91-3.89-13.6-2.52-18.12,5.29-36.24,10.59-54.35,15.88-66.57,21.84-153.84,21.02-222.02,27.68-44.96,4.39-89.65,12.86-134.32,21.33-95.1,18.03-190,38.73-285.31,54.09-45.13,31.12-95.1,51.09-145.33,50.89-28.47-.11-56.79-5.43-85.22-7.58-66.62-5.05-145.56,9.1-211.7,21.39-19.1,5-38.15,10.37-57.15,16.1,4.62,89.66,11.28,179.11,19.96,268.17,7.74,118.54,19.26,250.77,29.5,368.94,9.87,91.08,16.52,174.09,22.56,265.83.96,14.57,1.92,29.15,2.88,43.72,4.09,62.17,8.19,124.35,12.28,186.52,5.34,56.83,11.68,114.36,14.28,171.57,1.37,22.53,3.63,64.8,5.01,87.33.97,31.99,4.76,82.27,7.13,114.11,0,0,.95,12.71,1.89,25.41,2.82,22.88,5.63,45.76,5.63,45.76,4.41,35.87,7.31,72.1,8.66,108.46-.09,7.85,3.7,34.91,4.95,42.27,4.31,25.26,6.19,51.34,5.58,77.3,22.38-3.85,44.68-8.58,66.87-14.2,17.29-3.34,40.6-11.37,57.89-14.71,80.47-15.56,171.01-28.29,250.31-37.5,58.95-8.83,113.69-15.46,170.53-23.19,74.88-10.35,128.7-24.32,175.68-35.08,92.69-39.12,209.34-3.55,304.04-31.27,43.89-8.22,87.73-17.02,131.51-26.41Z"/>
  <g class="cls-2">
    <path class="cls-3" d="M61.84,240.08c18.5-49.92,71.8-97.24,112.2-92.84,169.44,18.43,336.37,68.97,505.72,88.87,169.35,19.89,374.69-13.57,528.04-115.02,11.3,2.14,22.75,2.74,34.13,1.8-5.84,70.11-10.27,140.44-13.28,210.89-6.71,180.35-5.98,378.17-6.19,541.91-4.43,91.91-2.5,182.06.21,275.73.32,144.38,4.98,346.53,5.3,490.9,1.61,69.95.22,135.87,1.83,205.82.27,16,.38,46.48.2,64.35-.02,1.53-.22,3.26-1.13,4.12-.61.57-1.4.59-2.13.59-5.35.03-10.28-.74-16.14-.22-29.43.53-59.45-5.08-87.01-5.5-13.34-.2-26.72.57-40.03-.6-150.23-13.26-292.63-4.41-438.46,10.26-108.75,19.78-222.99,20.59-333.03,19.3-43.78-.55-94.73,1.17-138.51.63-25.77-.32-51.54,1.59-77.31,1.27-6.49.54-28.24,1.59-34.9.47-.97-13.5-1.54-27.06-1.7-40.63,14.19-9.98,33.97-37.33,48.53-46.24,14.56-8.91,28.72-21.4,36.85-40.35,8.13-18.94-1.95-54.32-12.85-70.38-2.21-7.43-7.03-13.14-12.56-15.59-5.53-2.45-11.66-1.79-17.04,1.24-4.72,2.66-8.92,7.1-12,12.72-.77,1.4-1.54,2.95-2.72,3.61-.81.45-1.71.42-2.58.38-4.74-.2-9.48-.41-14.22-.61-.94-.04-1.95-.11-2.73-.83-.66-.61-1.07-1.61-1.44-2.58-2.17-5.63-3.86-11.6-5.04-17.77,1.65.75-2.73-23.37-1.08-22.62-4.84-13.73,3.92-30.45,14.45-35.05,10.53-4.6,21.86-1.11,32.81.83,10.95,1.94,23.24,1.72,31.5-8.41,12.14-14.89-3.21-79.54-7.35-101.24-2.21-7.43-7.03-13.14-12.56-15.59-5.53-2.45-11.66-1.79-17.04,1.24-4.72,2.66-8.92,7.1-12,12.72-.77,1.4-1.54,2.95-2.72,3.61-.81.45-1.71.42-2.58.38-4.74-.2-9.48-.41-14.22-.61-.94-.04-1.95-.11-2.73-.83-.66-.61-1.07-1.61-1.44-2.58-3.34-8.65-5.55-18.13-6.48-27.86,4.57,23.22-2.29-11.99-1.03-5.73-1.42-14.7-.61-30.37,4.81-43.17,5.42-12.79,16.21-21.89,26.77-19.39,10.84,2.57,18.97,16.05,29.75,19.1,17.1,4.83,31.31-17.37,41.37-37.1,1.7-3.33,3.44-6.82,3.89-10.84.72-6.41-1.97-12.51-4.54-17.94-6.26-13.2-23-28.85-29.25-42.05-2.21-7.43-7.03-13.14-12.56-15.59-5.53-2.45-11.66-1.79-17.04,1.24-4.72,2.66-8.92,7.1-12,12.72-.77,1.4-1.54,2.95-2.72,3.61-.81.45-1.71.42-2.58.38-4.74-.2-9.48-.41-14.22-.61-.94-.04-1.95-.11-2.73-.83-.66-.61-1.07-1.61-1.44-2.58-2.17-5.63-3.86-11.6-5.04-17.77,2.82-17.53,25.26-61.28,37.94-65.05,12.69-3.77,26.4-4.44,37.22-14.34,17.16-15.7,9.97-67.05-4.82-86.84-2.21-7.43-7.03-13.14-12.56-15.59-5.53-2.45-11.66-1.79-17.04,1.24-4.72,2.66-8.92,7.1-12,12.72-.77,1.4-1.54,2.95-2.72,3.61-.81.45-1.71.42-2.58.38-4.74-.2-9.48-.41-14.22-.61-.94-.04-1.95-.11-2.73-.83-.66-.61-1.07-1.61-1.44-2.58-2.17-5.63-3.86-11.6-5.04-17.77-3.49-12.83,8.31-42.32,17.41-47.75,9.09-5.43,19.42-4.33,29.31-3.71,9.89.62,20.46.42,28.77-7.04,9.83-8.81,14.21-26.16,13.87-42.36s-14.77-48.98-19.01-64.08c-2.21-7.43-7.03-13.14-12.56-15.59-5.53-2.45-11.66-1.79-17.04,1.24-4.72,2.66-8.92,7.1-12,12.72-.77,1.4-1.54,2.95-2.72,3.61-.81.45-1.71.42-2.58.38-4.74-.2-9.48-.41-14.22-.61-.94-.04-1.95-.11-2.73-.83-.66-.61-1.07-1.61-1.44-2.58-2.17-5.63-3.86-11.6-5.04-17.77,3.36-18.43,15.65-50.7,28.36-57.89,14.12-7.99,31.22,5.37,45.15-3.26,10.83-6.71,15.78-25.12,14.58-41.46-1.2-16.35-11.86-49.18-17.74-63.45-2.21-7.43-7.03-13.14-12.56-15.59-5.53-2.45-11.66-1.79-17.04,1.24-4.72,2.66-8.92,7.1-12,12.72-.77,1.4-1.54,2.95-2.72,3.61-.81.45-1.71.42-2.58.38-4.74-.2-9.48-.41-14.22-.61-.94-.04-1.95-.11-2.73-.83-.66-.61-1.07-1.61-1.44-2.58-2.17-5.63-3.86-11.6-5.04-17.77-.47-23.9,23.01-50.72,39.93-55.6,16.91-4.88,36-5.97,48.2-22.91,14.31-19.88-.11-74.2-17.78-87.97-2.21-7.43-7.03-13.14-12.56-15.59-5.53-2.45-11.66-1.79-17.04,1.24-4.72,2.66-8.92,7.1-12,12.72-.77,1.4-1.54,2.95-2.72,3.61-.81.45-1.71.42-2.58.38-4.74-.2-9.48-.41-14.22-.61-.94-.04-1.95-.11-2.73-.83-.66-.61-1.07-1.61-1.44-2.58-2.17-5.63-3.86-11.6-5.04-17.77-.51-2.72-3.64-15.02-1.61-14.96,2.03.05,2.88-3.47,3.27-6.23,3.93-28.05,21.76-51.28,42.23-55.01,11.93-2.17,25.38,1.2,34.97-8.88,14.33-15.05-1.56-58.46-8.51-81.43-2.21-7.43-7.03-13.14-12.56-15.59-5.53-2.45-11.66-1.79-17.04,1.24-4.72,2.66-8.92,7.1-12,12.72-.77,1.4-1.54,2.95-2.72,3.61-.81.45-1.71.42-2.58.38-4.74-.2-9.48-.41-14.22-.61-.94-.04-1.95-.11-2.73-.83-.66-.61-1.07-1.61-1.44-2.58-2.17-5.63-3.86-11.6-5.04-17.77-2.61-18.56,9.6-39.46,22.93-43.58,13.33-4.12,27.17.17,40.83.74,13.65.57,29.06-4.13,36.28-20.18,6.53-14.53,4.1-33.83-1.68-48.95-5.52-14.45-20.09-35.46-27.08-49.97-1.34-9.55-6.92-17.06-13.5-19.98-5.53-2.45-11.66-1.79-17.04,1.24-4.72,2.66-8.92,7.1-12,12.72-.77,1.4-1.54,2.95-2.72,3.61-.81.45-1.71.42-2.58.38-4.74-.2-9.48-.41-14.22-.61-.94-.04-1.95-.11-2.73-.83-.66-.61-1.07-1.61-1.44-2.58-2.17-5.63-3.86-11.6-5.04-17.77"/>
    <path class="cls-3" d="M62.2,240.18c3.13-8.43,7.14-16.53,11.78-24.23s10.16-15.39,16.11-22.42,12.25-13.4,19.13-19.31,13.59-10.75,21.08-15.07c6.79-3.92,13.99-7.19,21.55-9.33,6.74-1.91,13.8-2.9,20.81-2.34,5.42.43,10.83,1.18,16.23,1.83,5.75.69,11.49,1.41,17.22,2.16,11.49,1.51,22.97,3.15,34.42,4.9,11.43,1.74,22.84,3.6,34.23,5.54s22.89,3.99,34.31,6.1,22.78,4.28,34.16,6.5,22.76,4.5,34.14,6.81,22.83,4.66,34.24,7.02,22.74,4.71,34.12,7.07,22.74,4.7,34.12,7.02c11.41,2.33,22.83,4.63,34.25,6.88s22.76,4.45,34.16,6.58,22.78,4.2,34.19,6.19,22.88,3.9,34.35,5.7,22.83,3.48,34.28,5.05,21.95,2.91,32.95,4.14c8.98,1,17.98,1.85,26.98,2.54s18.25,1.25,27.39,1.65,18.54.65,27.82.75,18.85.04,28.27-.17,18.9-.57,28.35-1.09,19.18-1.2,28.75-2.04,19.27-1.84,28.87-2.99,19.1-2.45,28.62-3.91,19.29-3.12,28.9-4.93,19.23-3.78,28.8-5.92,18.99-4.42,28.42-6.88,18.96-5.12,28.37-7.94,18.69-5.78,27.95-8.94c9.24-3.15,18.43-6.47,27.55-9.97s18.12-7.17,27.07-11.02,17.77-7.87,26.52-12.08c8.73-4.2,17.36-8.58,25.9-13.16s16.97-9.34,25.28-14.29c4.15-2.47,8.27-4.99,12.35-7.56,2.04-1.28,4.07-2.58,6.1-3.88.98-.63,1.97-1.27,2.95-1.91.48-.31.95-.62,1.43-.94.25-.17.5-.33.75-.5.38-.25.45-.32.9-.24,11.08,2.04,22.4,2.62,33.63,1.7l-.38-.38c-1.09,13.13-2.14,26.27-3.13,39.41s-1.94,26.3-2.84,39.46c-.89,13.12-1.74,26.24-2.53,39.37s-1.54,26.27-2.23,39.4c-.7,13.18-1.34,26.37-1.94,39.56-.56,12.45-1.02,24.9-1.44,37.35s-.78,24.38-1.12,36.57c-.35,12.33-.66,24.66-.95,37-.29,12.41-.55,24.81-.79,37.22s-.45,24.74-.64,37.12-.37,24.93-.52,37.39c-.15,12.45-.29,24.89-.4,37.34s-.22,24.72-.3,37.07c-.09,12.28-.16,24.56-.22,36.84-.06,12.21-.11,24.42-.15,36.62s-.07,24.06-.1,36.09c-.02,11.86-.04,23.72-.06,35.57-.01,11.69-.02,23.39-.03,35.08s-.01,22.92-.02,34.38c0,11.16-.02,22.32-.03,33.48,0,2.74,0,5.47,0,8.21,0,3.13-.19,6.25-.33,9.37-.29,6.43-.55,12.87-.77,19.3-.46,12.91-.81,25.83-1.05,38.75-.24,12.86-.39,25.71-.45,38.57-.06,12.87-.03,25.73.06,38.6.09,12.95.26,25.89.47,38.84.22,13.02.49,26.03.79,39.04.31,13.03.65,26.06,1.01,39.09.18,6.31.46,12.63.47,18.94.01,4.78.03,9.56.05,14.34.04,9.96.1,19.91.18,29.87.08,10.32.16,20.63.26,30.95s.22,21.28.34,31.92c.12,10.94.26,21.88.4,32.81.14,11.1.29,22.2.44,33.3.15,11.23.31,22.47.47,33.7.16,11.34.32,22.68.49,34.01s.33,22.68.49,34.03c.16,11.25.32,22.49.47,33.74s.3,22.24.44,33.36c.14,10.97.28,21.93.4,32.9.12,10.68.24,21.35.34,32.03s.19,20.72.27,31.07.14,20.01.19,30.02c.02,4.81.04,9.62.06,14.42.02,5.88.15,11.75.26,17.63.24,12.97.39,25.94.49,38.9.1,12.9.14,25.81.16,38.71.03,12.86.04,25.73.08,38.59.04,12.89.1,25.79.23,38.68s.38,26.15.63,39.22c.17,8.94.21,17.89.25,26.83.05,9.94.06,19.88,0,29.82-.01,2.12-.02,4.24-.04,6.36-.01,1.18.04,2.39-.23,3.55-.13.59-.35,1.23-.81,1.65-.57.52-1.38.48-2.09.48-2.97,0-5.92-.24-8.89-.35s-6.13.13-9.2.16c-12.8.1-25.59-.89-38.33-2.07-12.46-1.15-24.92-2.51-37.42-3.14-12.8-.64-25.59,0-38.39-.33-6.58-.17-13.12-.8-19.68-1.35-6.52-.54-13.04-1.04-19.57-1.5-13.04-.92-26.09-1.68-39.14-2.29s-25.82-1.06-38.74-1.38-25.66-.5-38.5-.55-25.62.03-38.43.23-25.53.51-38.28.94c-12.65.42-25.3.95-37.94,1.57s-25.42,1.35-38.13,2.16-25.42,1.7-38.12,2.67c-12.68.97-25.36,2-38.03,3.1s-25.42,2.27-38.12,3.48c-6.39.61-12.78,1.23-19.16,1.87-3.12.31-6.25.53-9.34,1.09s-6.26,1.11-9.39,1.64c-12.54,2.12-25.11,4-37.72,5.66-12.53,1.65-25.08,3.08-37.66,4.32s-25.4,2.32-38.13,3.22c-12.75.9-25.51,1.63-38.27,2.23s-25.47,1.05-38.21,1.39-25.45.57-38.18.71-25.45.19-38.18.18-25.24-.09-37.86-.21c-12.03-.11-24.05-.29-36.08-.29s-24.17.11-36.26.25c-12.28.14-24.56.31-36.85.43-11.9.12-23.8.2-35.7.14-6.1-.03-12.2-.14-18.29-.13-6.55.01-13.09.15-19.64.32-13.17.35-26.34.88-39.52,1-3.27.03-6.55.03-9.82,0-1.49-.01-2.98.13-4.47.22-3.79.24-7.58.41-11.37.54s-7.69.22-11.54.19c-2.83-.02-5.74-.01-8.54-.48l.28.36c-.76-10.55-1.27-21.12-1.54-31.7-.08-2.98-.13-5.96-.17-8.93l-.19.32c3.2-2.26,6.12-4.9,8.94-7.62,3.32-3.21,6.5-6.56,9.66-9.93,6.53-6.99,12.89-14.17,19.89-20.7,2.91-2.71,5.94-5.35,9.28-7.52,3.9-2.53,7.8-5,11.48-7.85,8.07-6.25,15.2-13.73,20.64-22.39,1.47-2.34,2.81-4.75,4.02-7.23,1.01-2.07,1.97-4.17,2.67-6.37,1.22-3.87,1.75-7.95,1.9-12,.34-9.36-1.25-18.79-3.71-27.79-2.33-8.51-5.49-16.94-9.92-24.59-.47-.81-.95-1.6-1.45-2.39-.25-.4-.58-.79-.76-1.22-.26-.63-.42-1.3-.66-1.94-.91-2.4-2.13-4.68-3.66-6.74-2.81-3.76-6.67-6.8-11.28-7.96-11.03-2.75-21,5.36-26.21,14.36-.68,1.17-1.23,2.49-2.14,3.5-1.09,1.21-2.51,1.08-4,1.02-3.33-.14-6.65-.29-9.98-.43-.75-.03-1.5-.06-2.25-.1-.82-.04-1.68,0-2.48-.18-1.55-.34-2.11-1.78-2.62-3.12-1.1-2.85-2.05-5.75-2.88-8.69s-1.54-5.95-2.11-8.97l-.46.46c.92.37.86-1.49.85-1.91-.02-1.73-.21-3.46-.4-5.18-.45-4.24-1.07-8.46-1.36-12.71-.05-.75-.1-1.51-.06-2.26.01-.24.03-.35.08-.58.03-.17-.06.07-.18.02.26.11.55-.21.46-.46-3.66-10.52.41-23.1,8.36-30.61,1.74-1.65,3.72-3.06,5.92-4.02,3.29-1.44,6.87-2.1,10.45-2.21,7.13-.2,14.11,1.61,21.07,2.89,5.41,1,10.94,1.56,16.42.77s10.63-3.12,14.59-7.03c1.24-1.23,2.39-2.56,3.22-4.09.64-1.19,1.13-2.46,1.53-3.75.96-3.16,1.38-6.47,1.61-9.76.61-8.65-.11-17.39-1.09-25.98-1.1-9.62-2.67-19.18-4.43-28.7-1.51-8.2-3.19-16.36-4.85-24.53-.31-1.53-.62-3.07-.93-4.6-.13-.68-.26-1.37-.4-2.05-.3-1.4-.91-2.8-1.5-4.1-2.27-4.97-6.08-9.55-11.13-11.85-6-2.73-12.84-1.74-18.36,1.64-2.49,1.52-4.71,3.47-6.64,5.66-2.16,2.44-3.77,5.16-5.39,7.97-.36.63-.76,1.27-1.29,1.77-.68.64-1.49.82-2.4.81-1.86-.01-3.73-.15-5.6-.23-2-.09-3.99-.17-5.99-.26-.91-.04-1.83-.08-2.74-.12-.85-.04-1.78,0-2.55-.44-.7-.4-1.09-1.13-1.41-1.84-.37-.83-.68-1.7-.99-2.56-.6-1.64-1.15-3.29-1.66-4.95-1.06-3.46-1.94-6.98-2.63-10.53s-1.2-7.04-1.54-10.59l-.74.1c.41,2.07.81,4.14,1.22,6.21.11.56.14,1.28.37,1.81.11.26.4.37.63.17.29-.27-.08-1.31-.14-1.62-.22-1.14-.44-2.28-.66-3.42-.51-2.64-1.02-5.27-1.52-7.91-.09-.46-.18-.91-.26-1.37-.03-.13-.05-.27-.08-.4-.04-.21.03-.12-.03.04l-.69.09c-.08-.18,0,.04,0,.11.03.19.08.38.11.56.08.41.78.32.74-.1-1.12-11.72-.95-23.81,2.13-35.24,2.64-9.8,7.9-20.13,17.2-25.12,3.86-2.07,8.3-2.85,12.56-1.62s8.07,4.12,11.49,6.98c6.56,5.47,13.44,12.78,22.67,12.6s15.92-6.79,21.18-13.17c3.3-4,6.18-8.33,8.84-12.78s5.34-9.36,7.69-14.2c1.24-2.56,2.32-5.23,2.74-8.06s.17-5.86-.53-8.71-1.82-5.57-3.04-8.24c-.98-2.16-2.04-4.26-3.27-6.29-5.33-8.82-12.35-16.5-18.54-24.69-2.88-3.81-5.69-7.75-7.86-12.02-.59-1.16-.92-2.42-1.41-3.63s-1.04-2.35-1.68-3.47c-1.19-2.09-2.67-4.04-4.41-5.72-3.59-3.47-8.29-5.56-13.32-5.47-5.38.1-10.4,2.56-14.39,6.05-1.96,1.72-3.69,3.69-5.2,5.81-.82,1.15-1.57,2.35-2.26,3.58-.63,1.14-1.2,2.45-2.21,3.32-1.17,1.02-2.95.67-4.37.61-1.66-.07-3.33-.14-4.99-.22s-3.33-.14-4.99-.22c-.75-.03-1.5-.06-2.25-.1s-1.53-.02-2.24-.3c-1.41-.56-1.88-2.32-2.36-3.61-.53-1.4-1.02-2.82-1.49-4.25-.97-2.98-1.79-6-2.49-9.05-.18-.77-.34-1.55-.5-2.32-.11-.55-.3-1.1-.2-1.65.11-.64.24-1.28.39-1.91.32-1.43.71-2.84,1.13-4.24,2.18-7.25,5.2-14.26,8.49-21.06,3.59-7.43,7.6-14.7,12.22-21.54,1.97-2.92,4.05-5.78,6.37-8.44,1.8-2.07,3.76-4.1,6.04-5.65.83-.56,1.72-1.07,2.68-1.4,2.25-.77,4.61-1.28,6.92-1.83,5.09-1.21,10.23-2.26,15.2-3.93,8.04-2.69,16.04-7.22,20.22-14.87,3.4-6.23,4.71-13.49,5.21-20.5.59-8.31-.01-16.7-1.38-24.9s-3.43-16-6.55-23.53c-1.34-3.22-2.86-6.36-4.71-9.32-.42-.68-.86-1.35-1.32-2-.24-.34-.54-.67-.7-1.04-.27-.62-.42-1.31-.66-1.94-.91-2.4-2.13-4.68-3.66-6.74-2.81-3.76-6.67-6.8-11.28-7.96-5.42-1.35-11.12.03-15.75,3.02-4.37,2.81-7.87,6.87-10.46,11.35-.68,1.17-1.23,2.49-2.14,3.5-1.09,1.21-2.51,1.08-4,1.02-3.33-.14-6.65-.29-9.98-.43-.75-.03-1.5-.06-2.25-.1-.82-.04-1.68,0-2.48-.18-1.55-.34-2.11-1.78-2.62-3.12-1.1-2.85-2.05-5.75-2.88-8.69s-1.42-6.05-2.14-9.08c-.36-1.51-.55-3.03-.58-4.58-.08-3.76.52-7.53,1.36-11.18.96-4.18,2.29-8.27,3.88-12.24,1.5-3.75,3.26-7.42,5.36-10.87,1.64-2.69,3.5-5.4,5.94-7.42,1.67-1.38,3.76-2.32,5.78-3.06,2.67-.98,5.48-1.55,8.3-1.82,5.63-.54,11.28,0,16.9.33,5.05.3,10.18.35,15.17-.67s9.85-3.3,13.66-6.85c7.14-6.64,10.64-16.6,12.34-25.97.96-5.28,1.37-10.66,1.28-16.02-.06-3.54-.66-7.05-1.42-10.5-1.93-8.81-4.88-17.4-7.88-25.89-2.83-8.02-5.89-15.97-8.51-24.07-.54-1.66-.98-3.35-1.54-5.01-.81-2.43-1.94-4.77-3.37-6.89-2.61-3.87-6.28-7.12-10.76-8.6-5.34-1.76-11.16-.74-15.96,2.04-4.48,2.59-8.1,6.51-10.82,10.87-.73,1.18-1.34,2.43-2.07,3.6-.34.53-.71,1.06-1.21,1.46-.63.5-1.38.62-2.17.61-3.28-.03-6.56-.28-9.84-.42-1.62-.07-3.24-.14-4.86-.21-.67-.03-1.38-.05-2-.33-.67-.31-1.09-.92-1.41-1.56-.68-1.35-1.14-2.84-1.64-4.27s-.98-2.94-1.43-4.42c-.9-3.01-1.65-6.07-2.28-9.15-.07-.35-.22-.75-.2-1.1,0-.2.08-.41.11-.6.09-.48.19-.96.29-1.44.2-.96.41-1.92.64-2.88,1-4.23,2.21-8.41,3.57-12.53,2.93-8.85,6.5-17.59,11.18-25.68,2-3.46,4.23-6.84,6.92-9.81,2.42-2.67,5.21-4.85,8.66-6.03,9.13-3.13,18.82.7,28.05,1.21,4.64.26,9.33-.37,13.41-2.74,3.58-2.08,6.38-5.28,8.5-8.8,5.04-8.36,6.89-18.62,6.92-28.27.02-8.33-1.75-16.54-3.75-24.58-2.27-9.16-5.01-18.2-8.01-27.15-1.32-3.93-2.69-7.83-4.16-11.71-.59-1.56-1.19-3.11-1.82-4.65-.46-1.13-.78-2.32-1.25-3.45s-1.03-2.28-1.66-3.36c-2.32-4.01-5.74-7.58-10.02-9.48-5.09-2.26-10.84-1.9-15.85.43-4.74,2.2-8.64,5.97-11.59,10.23-.81,1.16-1.54,2.37-2.22,3.61-.61,1.12-1.23,2.5-2.34,3.21-1.22.78-3.05.4-4.41.34-1.62-.07-3.24-.14-4.86-.21s-3.33-.14-4.99-.22c-.83-.04-1.66-.07-2.49-.11-.7-.03-1.42-.07-2.05-.42-1.26-.71-1.71-2.53-2.17-3.79-.54-1.44-1.04-2.9-1.51-4.37-.95-2.98-1.77-6.01-2.45-9.07-.31-1.41-.68-2.81-.66-4.25.01-1.13.08-2.25.19-3.38.93-9.49,5.09-18.52,10.38-26.35s11.62-14.54,19.28-19.63c3.09-2.05,6.41-3.81,9.98-4.84,4.44-1.27,8.94-2.27,13.42-3.36,8.97-2.18,18.06-4.82,25.6-10.35,3.78-2.76,7.21-6.2,9.77-10.13,1.68-2.57,2.82-5.47,3.62-8.42,1.93-7.15,2.01-14.77,1.38-22.11-.71-8.32-2.42-16.56-4.89-24.53-2.3-7.43-5.27-14.76-9.29-21.44-1.67-2.77-3.53-5.44-5.7-7.84-.95-1.04-1.95-2.03-3.04-2.92-.38-.31-.45-.51-.61-.99-.23-.71-.49-1.41-.78-2.1-.49-1.18-1.05-2.34-1.7-3.45-2.3-3.96-5.66-7.49-9.87-9.41-5.12-2.33-10.94-1.98-15.99.36-4.68,2.17-8.53,5.88-11.47,10.06-.81,1.16-1.56,2.36-2.24,3.6-.62,1.13-1.22,2.51-2.3,3.29-1.21.88-3.03.5-4.43.44-1.66-.07-3.33-.14-4.99-.22s-3.24-.14-4.86-.21c-.79-.03-1.58-.07-2.37-.1-.74-.03-1.53-.04-2.21-.39-1.27-.65-1.72-2.38-2.18-3.62-.54-1.44-1.05-2.9-1.52-4.36-.96-2.98-1.78-6-2.47-9.06-.41-1.83-.75-3.67-1.15-5.49-.72-3.27-1.53-6.59-1.8-9.94-.05-.61-.09-1.24-.02-1.84.02-.17.05-.36.12-.52.06-.15.1-.17.14-.18.15-.06.61-.06.85-.16.39-.17.71-.45.98-.78.64-.79.99-1.8,1.26-2.77.67-2.44.86-5.01,1.35-7.49s1.15-5.12,1.9-7.64c1.48-4.94,3.43-9.75,5.85-14.31,4.34-8.18,10.25-15.76,17.81-21.2,3.35-2.41,7.03-4.4,10.95-5.71,4.35-1.44,8.88-1.84,13.43-2.06s9.54-.31,14.19-1.38,9.11-3.37,12.39-6.97c4.57-5.01,5.62-12.27,5.68-18.79.07-8.68-1.55-17.36-3.53-25.78s-4.69-17.45-7.39-26.07c-1.14-3.63-2.29-7.26-3.4-10.91-1.46-4.81-4.05-9.35-7.87-12.67s-8.75-5.09-13.84-4.62-10.14,3.19-13.96,6.83c-1.93,1.84-3.63,3.94-5.09,6.17-.75,1.15-1.4,2.34-2.07,3.54s-1.42,2.49-2.83,2.77c-.69.14-1.42.06-2.11.03-.83-.04-1.66-.07-2.49-.11-1.66-.07-3.33-.14-4.99-.22s-3.33-.14-4.99-.22c-1.47-.06-3.19.09-4.13-1.27-.83-1.19-1.24-2.72-1.73-4.08-.52-1.45-1.01-2.92-1.46-4.4-.91-2.96-1.69-5.97-2.33-9-1.1-5.16-.98-10.44.06-15.61,1.89-9.34,6.63-18.64,13.9-24.93,1.58-1.36,3.3-2.57,5.15-3.52,2.17-1.11,4.53-1.76,6.91-2.23,6.18-1.21,12.53-.86,18.74-.18s12.34,1.69,18.56,1.9c4.12.14,8.28-.2,12.3-1.12,8.56-1.97,16.2-6.77,21.1-14.14,5.88-8.84,7.33-19.91,6.6-30.3s-3.49-20.48-7.89-29.8-9.79-18.01-14.98-26.83c-2.54-4.32-5.07-8.65-7.42-13.08-.51-.97-1.02-1.94-1.51-2.92-.22-.44-.51-.9-.67-1.37-.22-.64-.24-1.4-.38-2.07-.52-2.51-1.37-4.95-2.51-7.24-2.02-4.04-5.08-7.7-9-10.01-4.58-2.7-10.11-3.13-15.13-1.49s-9.3,5.08-12.57,9.16c-1.71,2.14-3.02,4.46-4.4,6.82-.7,1.2-1.53,2.35-3.03,2.48s-3.16-.09-4.71-.15c-3.08-.13-6.15-.27-9.23-.4-1.27-.05-2.95.13-3.96-.79-.94-.86-1.32-2.33-1.75-3.48-2.02-5.42-3.54-11.02-4.63-16.7-.09-.47-.81-.27-.72.2,1.17,6.11,2.83,12.17,5.11,17.96.44,1.11.94,2.35,2.04,2.97s2.56.53,3.8.58c3.28.14,6.57.28,9.85.43,1.47.06,3.05.3,4.51.1,1.23-.17,2.09-.92,2.79-1.9.79-1.11,1.36-2.38,2.06-3.54s1.5-2.36,2.35-3.47c3.24-4.23,7.56-7.87,12.68-9.54s10.91-1.07,15.5,2.01c3.91,2.63,6.83,6.63,8.61,10.95.5,1.2.91,2.44,1.24,3.7.16.62.31,1.24.43,1.86s.13,1.37.4,1.95c.96,2.03,2.02,4.02,3.1,5.99,2.4,4.42,4.96,8.75,7.51,13.09,5.14,8.72,10.5,17.41,14.68,26.65s6.92,20.26,7.23,30.81-1.82,21.42-8.6,29.63c-5.61,6.8-13.8,10.64-22.43,11.84-11.04,1.54-22.05-1.43-33.05-2.01-5.86-.31-12.08-.05-17.63,2.02-3.83,1.43-7.17,3.99-9.98,6.93-6.64,6.96-10.91,16.39-12.19,25.89-.34,2.51-.47,5.05-.34,7.58.14,2.78.72,5.47,1.36,8.17.73,3.04,1.59,6.04,2.58,9,.49,1.44.99,2.88,1.56,4.29.45,1.12.99,2.31,2.13,2.87s2.71.45,4,.51c1.62.07,3.24.14,4.86.21s3.33.14,4.99.22c1.4.06,2.94.31,4.33.05,2.56-.47,3.58-3.65,4.77-5.6,1.44-2.37,3.13-4.59,5.09-6.55,3.83-3.84,8.81-6.76,14.3-7.18s10.29,1.69,14.03,5.38c1.77,1.75,3.25,3.79,4.43,5.98s1.92,4.45,2.64,6.79c1.16,3.79,2.37,7.56,3.54,11.34,2.7,8.68,5.3,17.41,7.29,26.29,1.87,8.35,3.38,16.99,2.98,25.58-.16,3.48-.66,6.98-1.87,10.26-1.27,3.44-3.42,6.3-6.33,8.54-7.99,6.13-18.47,4.99-27.91,5.88-4.23.4-8.3,1.31-12.2,3.01s-7.4,3.97-10.63,6.65c-7.23,5.99-12.81,13.87-16.84,22.31-2.2,4.62-3.95,9.45-5.25,14.4-.68,2.59-1.23,5.22-1.65,7.86-.35,2.19-.44,4.89-1.8,6.75-.25.34-.56.66-.98.77-.25.07-.51.01-.75.13-.33.16-.49.53-.57.87-.3,1.23-.06,2.63.11,3.86.44,3.27,1.2,6.48,1.89,9.7.5,2.32.94,4.65,1.52,6.95.76,3.02,1.65,6.01,2.68,8.94.48,1.35.93,2.75,1.55,4.04.54,1.13,1.33,2.02,2.59,2.3,1.38.3,2.89.21,4.3.27,1.62.07,3.24.14,4.86.21s3.33.14,4.99.22c1.32.06,2.84.32,4.08-.27,1.08-.51,1.78-1.6,2.36-2.6.7-1.21,1.34-2.45,2.1-3.62,2.85-4.42,6.69-8.35,11.43-10.72,5.18-2.59,11.34-2.98,16.57-.3,4.29,2.2,7.57,6.06,9.7,10.33.61,1.23,1.13,2.51,1.56,3.82.17.52.23.86.65,1.2.26.21.52.43.77.65,1.08.95,2.08,1.99,3.02,3.08,2.15,2.49,3.99,5.26,5.63,8.11,3.96,6.86,6.86,14.32,9.09,21.9,2.35,8.01,3.96,16.3,4.49,24.64.46,7.22.21,14.74-2.05,21.68-2.57,7.88-8.69,14.17-15.69,18.4-8.01,4.84-17.24,6.97-26.25,9.12-2.26.54-4.51,1.08-6.76,1.67-1.87.49-3.75,1-5.55,1.73-3.61,1.46-6.94,3.54-10.04,5.88-7.39,5.59-13.67,12.76-18.53,20.64-4.87,7.9-8.52,16.95-8.89,26.31-.02.53-.03,1.07-.03,1.6,0,.72.15,1.39.3,2.09.32,1.55.67,3.09,1.05,4.62.75,2.98,1.63,5.93,2.64,8.83.46,1.33.92,2.68,1.5,3.97.51,1.13,1.24,2.1,2.49,2.44,1.38.37,2.95.25,4.36.31,1.66.07,3.33.14,4.99.22s3.33.14,4.99.22c1.32.06,2.84.32,4.08-.27,1.05-.5,1.74-1.54,2.31-2.51.7-1.21,1.34-2.44,2.1-3.62,2.86-4.45,6.72-8.42,11.49-10.81,5.13-2.57,11.22-2.98,16.42-.37,4.36,2.19,7.69,6.09,9.84,10.41,1.02,2.04,1.67,4.23,2.51,6.34.64,1.61,1.25,3.22,1.86,4.84,1.48,3.99,2.87,8.01,4.21,12.04,2.96,8.96,5.67,18.02,7.87,27.2,1.97,8.24,3.56,16.56,3.22,25.07-.2,5.08-.95,10.15-2.37,15.03-1.3,4.49-3.17,8.88-5.94,12.67-2.58,3.53-6.01,6.39-10.2,7.78-4.52,1.5-9.37,1.23-14.02.6-9-1.23-18.9-4.04-27.32.89-2.8,1.64-5.1,4.07-7.1,6.59-2.58,3.25-4.76,6.8-6.73,10.45-4.42,8.18-7.86,16.92-10.65,25.78-1.27,4.05-2.4,8.15-3.29,12.31-.2.91-.42,1.83-.55,2.75-.08.59.16,1.27.28,1.85.17.81.34,1.63.53,2.43.69,3.01,1.51,5.99,2.47,8.93.48,1.46.99,2.91,1.53,4.35.43,1.13.83,2.43,1.75,3.28.96.89,2.26.91,3.5.97,1.66.07,3.33.14,4.99.22s3.33.14,4.99.22c1.57.07,3.18.25,4.75.17,2.77-.13,3.78-2.75,4.98-4.85,2.65-4.61,6.28-8.8,10.87-11.56,4.95-2.98,10.99-4.02,16.48-1.94,4.55,1.72,8.16,5.39,10.56,9.54,2.1,3.63,3.03,7.69,4.35,11.64,2.73,8.21,5.83,16.3,8.68,24.47,2.93,8.39,5.82,16.9,7.56,25.63.76,3.81,1.12,7.57,1.06,11.46-.08,5.39-.67,10.77-1.85,16.03-2.13,9.45-6.33,19.51-14.63,25.15-9.04,6.13-20.14,5.12-30.47,4.5-5.62-.34-11.36-.48-16.87.86-3.94.95-7.94,2.59-10.79,5.56-2.37,2.46-4.24,5.4-5.88,8.37-1.99,3.59-3.66,7.36-5.09,11.21s-2.68,8.07-3.49,12.23c-.68,3.51-1.12,7.14-.82,10.72.16,1.9.63,3.76,1.02,5.62.65,3.03,1.43,6.03,2.34,9,.46,1.48.94,2.94,1.47,4.4.46,1.27.87,2.64,1.56,3.82.63,1.07,1.55,1.68,2.79,1.84,1.54.2,3.14.17,4.7.23,3.33.14,6.65.29,9.98.43,1.29.06,2.61.14,3.69-.7.94-.72,1.53-1.82,2.09-2.83,2.6-4.74,5.96-9.09,10.48-12.14s10.58-4.68,16.15-3.11c4.75,1.34,8.63,4.78,11.28,8.87.71,1.09,1.33,2.23,1.88,3.4.28.61.54,1.23.78,1.86s.39,1.41.69,2.04c.32.67.9,1.28,1.32,1.9.44.66.86,1.34,1.27,2.02,1.84,3.09,3.36,6.36,4.68,9.7,3.01,7.65,5.01,15.7,6.24,23.82s1.71,16.61.91,24.88c-.66,6.86-2.18,14.03-5.95,19.9-2.14,3.32-5.14,5.89-8.44,8.01-4.49,2.88-9.52,4.72-14.64,6.11s-10.07,2.34-15.07,3.67c-1.46.39-2.93.74-4.27,1.45-1.02.54-1.96,1.22-2.85,1.95-2.27,1.85-4.25,4.06-6.1,6.33-2.32,2.86-4.43,5.88-6.43,8.97-4.5,6.96-8.44,14.29-11.95,21.8-3.1,6.63-5.98,13.46-7.93,20.52-.37,1.33-.7,2.67-.95,4.02-.05.29-.12.58-.15.87-.07.61.19,1.32.31,1.92.32,1.55.67,3.08,1.06,4.61.76,3.02,1.66,6,2.7,8.93.47,1.34.92,2.74,1.56,4.01.57,1.12,1.42,1.92,2.69,2.15,1.42.25,2.93.19,4.36.25,1.62.07,3.24.14,4.86.21s3.33.14,4.99.22c1.32.06,2.81.29,4.02-.38,1.04-.57,1.7-1.68,2.27-2.68.69-1.22,1.35-2.45,2.12-3.62,1.48-2.27,3.21-4.37,5.19-6.22,4.01-3.75,9.2-6.44,14.78-6.49,5.22-.04,9.95,2.37,13.46,6.15,1.72,1.85,3.13,3.97,4.23,6.23.61,1.24,1.12,2.53,1.54,3.84.34,1.06.88,2.04,1.41,3.01,2.35,4.28,5.27,8.24,8.24,12.11,3.21,4.17,6.55,8.24,9.78,12.4,3.04,3.91,6.02,7.91,8.47,12.23,1.24,2.18,2.3,4.47,3.29,6.77,1.19,2.77,2.19,5.66,2.64,8.66s.22,6.17-.72,9.14c-.86,2.72-2.19,5.26-3.5,7.79-4.77,9.26-10.03,18.61-17.12,26.32-5.57,6.06-13.27,11.72-21.97,9.97-4.47-.9-8.31-3.56-11.8-6.37s-7.01-6.18-10.81-8.88c-3.51-2.5-7.52-4.53-11.91-4.6s-8.42,1.65-11.84,4.16c-8.56,6.27-13.13,16.59-15.38,26.68-2.37,10.63-2.46,21.7-1.43,32.5l.74-.1c-.05-.27-.08-.59-.19-.85-.15-.32-.58-.18-.69.09-.05.14.03.39.06.53.06.34.13.68.19,1.02.22,1.13.44,2.27.65,3.4.51,2.62,1.01,5.24,1.51,7.86.09.45.17.9.26,1.35.02.12.03.26.07.38.09.28-.09,0,.12-.21l.63.17c-.23-.53-.25-1.25-.37-1.81-.41-2.07-.82-4.14-1.22-6.21-.08-.41-.78-.32-.74.1.7,7.22,2.08,14.38,4.2,21.32.51,1.66,1.06,3.31,1.66,4.95.51,1.39.94,3.02,1.92,4.16s2.56,1.18,4,1.24c2,.09,3.99.17,5.99.26s3.82.17,5.74.25c1.5.06,3.32.4,4.66-.45,1.21-.77,1.9-2.17,2.56-3.39.79-1.45,1.66-2.86,2.63-4.21,3.68-5.11,8.89-9.48,15.15-10.88,3.24-.73,6.64-.57,9.78.55,2.65.95,5.01,2.58,6.99,4.56,2.11,2.12,3.79,4.64,5.05,7.35.6,1.3,1.24,2.73,1.51,4.15.13.67.26,1.34.39,2.01,1.48,7.47,3.06,14.92,4.51,22.4,1.84,9.47,3.52,18.97,4.83,28.52,1.24,9.03,2.21,18.17,2.14,27.3-.03,3.67-.22,7.37-.86,11-.49,2.76-1.21,5.57-2.65,8-1.08,1.82-2.63,3.39-4.24,4.75-2.15,1.82-4.62,3.23-7.27,4.18-5.17,1.86-10.77,2.01-16.18,1.42-6.6-.71-13.02-2.55-19.61-3.36s-13.6-.58-19.48,2.71c-4.4,2.47-7.85,6.53-10.27,10.91-2.66,4.82-4.23,10.33-4.15,15.86.04,2.7.49,5.38,1.38,7.93l.46-.46c-.92-.37-.86,1.49-.85,1.91.02,1.73.21,3.46.4,5.18.45,4.24,1.07,8.46,1.36,12.71.05.75.1,1.51.06,2.26-.01.24-.03.35-.08.58-.03.17.06-.07.18-.02-.29-.12-.51.21-.46.46.65,3.4,1.46,6.77,2.44,10.1.48,1.63,1,3.26,1.57,4.86.52,1.47.99,3.03,1.73,4.41.63,1.16,1.57,1.84,2.88,2.01,1.71.22,3.48.18,5.19.26,1.83.08,3.66.16,5.49.24s3.54.24,5.3.21c1.38-.02,2.43-.57,3.27-1.65s1.46-2.45,2.18-3.67c1.55-2.62,3.41-5.06,5.59-7.19,4.29-4.19,9.99-7.18,16.12-6.95,5.7.22,10.66,3.4,14.07,7.84,1.75,2.28,3.11,4.87,4.07,7.58.2.58.32,1.22.67,1.74.29.43.57.86.84,1.3.55.88,1.08,1.78,1.59,2.69,4.84,8.61,8.18,18.13,10.44,27.71s3.66,20.1,2.03,30.03c-.35,2.12-.85,4.22-1.56,6.25-.93,2.64-2.2,5.19-3.52,7.66-2.76,5.17-6.1,10.02-9.93,14.45-3.61,4.18-7.63,7.98-11.92,11.44-2.13,1.71-4.33,3.33-6.58,4.88-2.03,1.39-4.14,2.67-6.21,4.01-3.68,2.38-6.99,5.31-10.16,8.32-3.75,3.55-7.31,7.29-10.84,11.06-6.97,7.45-13.72,15.22-21.36,22.02-1.57,1.4-3.19,2.75-4.89,3.99-.41.3-.71.41-.71.95,0,.99.03,1.99.04,2.98.03,1.74.07,3.47.11,5.21.18,7.27.47,14.54.88,21.81.2,3.46.42,6.92.67,10.38.01.15.11.33.28.36,3.09.51,6.29.49,9.41.51,4.18.02,8.37-.09,12.55-.25,3.64-.14,7.27-.31,10.9-.56.6-.04,1.2-.08,1.8-.13,1.34-.11,2.73,0,4.08,0,3.31.02,6.63,0,9.94-.05,13.18-.17,26.35-.71,39.52-1.04,6.54-.16,13.09-.27,19.64-.25,6,.02,11.99.12,17.99.14,12.02.04,24.03-.05,36.05-.18s24.49-.3,36.74-.44,24.1-.23,36.16-.22,24.17.21,36.26.32c12.67.11,25.33.18,38,.19,12.73,0,25.46-.06,38.19-.21,12.77-.15,25.54-.4,38.3-.76,12.78-.36,25.56-.84,38.33-1.45,12.76-.62,25.52-1.38,38.26-2.3,12.68-.92,25.34-2.01,37.99-3.29s25.23-2.75,37.81-4.44c12.49-1.68,24.95-3.57,37.37-5.71,1.57-.27,3.13-.54,4.7-.82s3.22-.64,4.85-.8c3.22-.32,6.43-.64,9.65-.96,6.34-.63,12.69-1.24,19.04-1.84,12.74-1.21,25.48-2.37,38.23-3.46,12.71-1.09,25.43-2.12,38.15-3.08,12.7-.95,25.41-1.83,38.12-2.63s25.42-1.5,38.13-2.11,25.38-1.12,38.07-1.52c12.76-.4,25.53-.7,38.29-.87,12.77-.18,25.55-.23,38.32-.16s25.76.28,38.64.62c12.97.35,25.93.83,38.88,1.47,13.07.64,26.12,1.43,39.17,2.38,6.57.48,13.14,1,19.71,1.55s13.08,1.02,19.66,1.09,13.02-.07,19.53-.08,12.48.16,18.71.55c12.55.77,25.06,2.17,37.58,3.29,6.34.56,12.69,1.06,19.05,1.37s12.81.55,19.19.21c3-.16,6,0,9,.15,1.48.08,2.95.15,4.43.17,1.17.02,2.6.18,3.52-.69,1.59-1.5,1.24-4.36,1.26-6.34.02-2.12.03-4.23.04-6.35.05-10,.03-19.99-.02-29.99-.04-9.02-.06-18.04-.27-27.06-.3-13.11-.49-26.22-.62-39.32-.13-12.93-.19-25.86-.23-38.79s-.05-25.73-.07-38.59-.07-25.81-.17-38.72-.26-26.03-.5-39.05c-.11-5.72-.22-11.44-.24-17.16-.02-4.82-.03-9.63-.06-14.45-.05-10.02-.11-20.04-.19-30.06s-.17-20.8-.28-31.21c-.11-10.72-.22-21.44-.35-32.16s-.26-21.95-.4-32.92c-.14-11.16-.29-22.32-.45-33.49-.15-11.28-.31-22.57-.47-33.85s-.32-22.61-.49-33.92-.32-22.6-.48-33.9-.32-22.53-.47-33.8c-.15-11.13-.3-22.26-.44-33.39-.14-10.93-.27-21.86-.39-32.78s-.23-21.32-.33-31.98c-.1-10.33-.19-20.66-.26-30.99s-.13-19.87-.17-29.8c-.02-4.77-.04-9.54-.05-14.31-.02-6.45-.34-12.92-.52-19.37-.36-13.11-.71-26.21-1.01-39.32s-.57-25.94-.78-38.91-.37-25.89-.46-38.83c-.09-12.91-.1-25.81-.04-38.72.07-12.9.22-25.8.48-38.69s.61-25.84,1.09-38.76c.24-6.44.5-12.87.8-19.31.14-3.02.23-6.02.24-9.04,0-2.78,0-5.55,0-8.33.01-11.18.02-22.35.03-33.53,0-11.47.01-22.95.02-34.42,0-11.67.02-23.34.03-35.01.01-11.91.03-23.81.06-35.72s.06-24.15.1-36.23.09-24.43.15-36.65c.06-12.32.14-24.65.23-36.97s.19-24.8.31-37.2c.12-12.41.26-24.82.41-37.23s.33-24.93.53-37.39c.2-12.41.41-24.82.66-37.23s.51-24.81.8-37.21c.29-12.33.61-24.65.97-36.98.35-12.22.73-24.44,1.14-36.66s.91-25.14,1.49-37.7c.61-13.19,1.26-26.37,1.96-39.56.7-13.14,1.45-26.27,2.26-39.4.8-13.17,1.66-26.33,2.56-39.49.9-13.11,1.85-26.22,2.85-39.33.93-12.15,1.9-24.29,2.91-36.44.02-.19-.19-.39-.38-.38-5.85.48-11.73.56-17.59.23-2.93-.17-5.86-.43-8.78-.8-1.51-.19-3.02-.41-4.52-.66-.73-.12-1.46-.24-2.18-.38-.31-.06-.66-.18-.97-.18-.27,0-.4.11-.62.26-8.05,5.32-16.23,10.44-24.53,15.37s-16.76,9.7-25.3,14.26-17.18,8.94-25.92,13.13-17.67,8.25-26.63,12.09-18.05,7.53-27.19,11.02-18.38,6.82-27.66,9.96-18.65,6.12-28.06,8.92-18.88,5.43-28.39,7.89c-9.5,2.46-19.05,4.75-28.63,6.87s-19.1,4.06-28.7,5.85-19.24,3.41-28.9,4.88-19.26,2.76-28.92,3.89-19.23,2.11-28.87,2.92-19.15,1.47-28.73,1.97-19.01.84-28.53,1.03-18.83.22-28.24.1-18.53-.39-27.79-.82-18.31-.99-27.45-1.72-17.91-1.58-26.85-2.6c-11.33-1.3-22.64-2.76-33.94-4.33s-22.94-3.31-34.39-5.13-22.91-3.75-34.34-5.75-22.88-4.1-34.3-6.25-22.78-4.36-34.15-6.62c-11.42-2.26-22.84-4.57-34.25-6.91s-22.75-4.68-34.12-7.03-22.82-4.73-34.24-7.09-22.82-4.7-34.24-7-22.83-4.58-34.26-6.8c-11.42-2.22-22.84-4.39-34.28-6.48s-22.78-4.1-34.2-6.02-22.89-3.77-34.36-5.49c-11.37-1.71-22.75-3.31-34.15-4.79-5.74-.74-11.48-1.45-17.23-2.12-2.87-.34-5.75-.66-8.62-.98-2.07-.23-4.14-.48-6.22-.56-7.08-.28-14.16.94-20.91,3.03-7.55,2.34-14.73,5.77-21.51,9.82-7.42,4.43-14.37,9.63-20.86,15.32-6.83,5.99-13.17,12.54-18.97,19.54s-11.19,14.57-15.84,22.47c-4.36,7.39-8.13,15.14-11.12,23.19-.17.45.56.65.72.2h0Z"/>
  </g>
  <path class="cls-1" d="M344.24,113.91c-99.65-1.98-198.88-5.59-296.48-11.54v137.27h34.31c.77-28.01,54.13-38.45,53.46,17.36-.7,59.22-53.18,44.04-54.56,14.26l-33.22-.06v153.44c5.97,0,33.17,0,33.17,0,.77-28.01,54.13-38.45,53.46,17.36-.7,59.22-53.18,44.04-54.56,14.26l-33.22-.06v153.64s34.31,0,34.31,0c.77-28.01,54.13-38.45,53.46,17.36-.7,59.22-53.18,44.04-54.56,14.26l-33.22-.06v153.04s34.31,0,34.31,0c.77-28.01,54.13-38.45,53.46,17.36-.7,59.22-53.18,44.04-54.56,14.26l-33.22-.06s0,140.48,0,153.64c5.97,0,33.17,0,33.17,0,.77-28.01,54.13-38.45,53.46,17.36-.7,59.22-53.18,44.04-54.56,14.26l-33.22-.06v153.04s34.31,0,34.31,0c.77-28.01,54.13-38.45,53.46,17.36-.7,59.22-53.18,44.04-54.56,14.26l-33.22-.06v153.19c5.61,0,33.32,0,33.32,0,.77-28.01,54.13-38.45,53.46,17.36-.7,59.22-53.18,44.04-54.56,14.26l-33.22-.06v153.49c5.8,0,33.24,0,33.24,0,.77-28.01,54.13-38.45,53.46,17.36-.7,59.22-53.18,44.04-54.56,14.26l-33.22-.06s0,143.64,0,154.03h4.42s34.31,0,34.31,0c.77-28.01,54.13-38.45,53.46,17.36-.7,59.22-53.18,44.04-54.56,14.26l-33.22-.06v154.62c33.19.65,55.54,6.55,88.73,7.2,136.22,2.68,272.61,5.36,408.56-5.95,58.97-4.91,117.79-12.44,176.71-18.18,185.98-18.13,383.78-21.18,569.8-3.58-14.72-525.93-15.55-1052.51-2.49-1578.52,1.25-50.16,3.72-151.86,1.94-201.99-15.78.58-94.98-.57-110.76,0-114.6,4.08-229.22,7.01-343.85,8.77-161.53,2.49-327.45,3.68-492.22.41Z"/>
</svg>