<?xml version="1.0" encoding="UTF-8"?>
<svg id="Layer_1" data-name="Layer 1" xmlns="http://www.w3.org/2000/svg" viewBox="0 0 1662.62 1970.91" preserveAspectRatio="none">
  <defs>
    <style>
      .cls-1 {
        fill: #fef3ed;
      }

      .cls-2 {
        opacity: .2;
      }

      .cls-3 {
        fill: gray;
      }

      .cls-4 {
        fill: #fbeda6;
      }

      .cls-5 {
        opacity: .22;
      }
    </style>
  </defs>
  <g class="cls-5">
    <path class="cls-3" d="M1552.66,536.21c5.11,64.88,10.16,129.37,14.89,191.78,11.3,116.73,27.78,285.57,39.08,402.3,7.52,92.37,18.58,231.45,26.09,323.82,4.82,89.47,13.78,191.07,21.87,280.23,2.53,24.53,5.05,49.06,7.58,73.59.12,1.14.13,2.55-.75,3.14-.37.25-.81.28-1.24.31-18.27,1.15-37.63,4.23-54.48,7.34-53.64,6.08-120.48,10.51-174.36,11.61,2.36,3.02-23.73,8.72-21.37,11.74-116.19-3.4-237.7,23.11-360.7,39.28-101.88,10.86-203.75,21.72-305.63,32.59-33.84,3.61-67.67,7.22-101.51,10.82-20.19,2.15-40.38,4.31-60.57,6.46-104.46,10.78-224.97,26.27-329.43,37.06-24.94-.46-52.44-.16-77.31,2.15-1.48.14-3.62.42-4.61-.83-.64-.82-.37-2.21-.49-3.3-1.28-11.94-1.58-24.03-.89-36.04,38.58-125.23,94.74-259.67,147.04-378.36,113.37-257.25,227.17-515.36,369.2-753.66,142.02-238.3,314.02-457.66,525.57-616.1,49.09-36.77,100.15-70.14,152.8-99.87,25.77-14.55,84.89-48.96,112.79-41.25,12.87-4.54,26.14-7.63,39.54-9.21,3.61,75.08,8.64,150.06,15.08,224.89,6.86,90.53,14.39,185.43,21.8,279.54Z"/>
    <path class="cls-3" d="M1552.29,536.21c1.13,14.35,2.26,28.69,3.38,43.04s2.24,28.54,3.35,42.81c1.1,14.12,2.2,28.24,3.29,42.36,1.08,13.97,2.15,27.94,3.22,41.92.53,6.94,1.06,13.88,1.58,20.82.39,5.13.97,10.25,1.47,15.37,1.03,10.59,2.05,21.18,3.08,31.77,1.08,11.09,2.15,22.17,3.23,33.26s2.25,23.17,3.38,34.76c1.16,11.89,2.31,23.79,3.47,35.68s2.34,24.08,3.51,36.12c1.18,12.09,2.35,24.18,3.53,36.28,1.17,12.05,2.34,24.1,3.52,36.16,1.15,11.85,2.3,23.7,3.46,35.55,1.11,11.45,2.23,22.91,3.34,34.36,1.07,11.06,2.15,22.13,3.22,33.19,1.02,10.48,2.03,20.96,3.05,31.43.95,9.85,1.75,19.71,2.55,29.58.86,10.57,1.71,21.14,2.56,31.71.91,11.22,1.81,22.44,2.71,33.66s1.87,23.26,2.8,34.89,1.91,23.73,2.86,35.6,1.92,23.86,2.87,35.8c.94,11.76,1.89,23.52,2.83,35.28s1.82,22.63,2.73,33.95c.87,10.8,1.74,21.6,2.62,32.4.81,10.01,1.68,20.01,2.44,30.03.47,6.31.7,12.65,1.08,18.97s.78,12.97,1.19,19.45c.84,13.17,1.73,26.34,2.68,39.51.96,13.42,1.97,26.84,3.01,40.25s2.14,26.98,3.25,40.46c1.1,13.34,2.24,26.68,3.39,40.02,1.14,13.21,2.31,26.42,3.48,39.63s2.31,25.73,3.47,38.6c1.28,14.15,2.87,28.28,4.32,42.41.74,7.17,1.48,14.34,2.21,21.5.37,3.56.73,7.13,1.1,10.69.09.83.18,1.66.26,2.49.07.7.14,1.49-.11,2.17-.29.81-.98.87-1.73.92-.85.06-1.71.11-2.56.18-13.52.99-26.96,2.87-40.32,5.13-3.18.54-6.36,1.1-9.53,1.67-2.94.54-5.93.8-8.9,1.12-6.03.65-12.07,1.27-18.11,1.86-12.5,1.21-25,2.3-37.52,3.27-12.91,1-25.82,1.89-38.75,2.67s-25.46,1.41-38.2,1.94c-11.57.48-23.14.85-34.71,1.09-.26,0-.5.33-.32.56.11.15.12.2.09.27-.04.13-.13.27-.25.4-.43.46-1.02.78-1.57,1.08-1.79.97-3.72,1.69-5.62,2.41-2.29.87-4.59,1.68-6.88,2.56-1.85.71-3.74,1.42-5.46,2.41-.77.44-2.53,1.51-1.69,2.61l.32-.56c-15.4-.45-30.81-.37-46.21.12s-31,1.42-46.47,2.67-31.31,2.85-46.92,4.66-31.47,3.89-47.17,6.09-31.94,4.62-47.89,7.05c-15.98,2.44-31.96,4.92-47.94,7.38-16.05,2.46-32.1,4.89-48.18,7.19-8.1,1.16-16.2,2.29-24.31,3.38-8.15,1.09-16.33,1.89-24.5,2.76-16.4,1.75-32.8,3.5-49.2,5.25-16.48,1.76-32.96,3.51-49.45,5.27-16.4,1.75-32.8,3.5-49.2,5.25s-32.8,3.5-49.2,5.25-32.8,3.5-49.2,5.25c-16.4,1.75-32.79,3.5-49.19,5.24-16.46,1.76-32.93,3.51-49.39,5.27s-32.76,3.49-49.14,5.24c-16.38,1.75-32.77,3.49-49.15,5.24-14.64,1.56-29.29,3.08-43.93,4.68-14.84,1.62-29.67,3.28-44.5,4.97-15.2,1.73-30.4,3.48-45.6,5.25s-30.5,3.56-45.75,5.34-30.44,3.55-45.66,5.31c-15.02,1.73-30.05,3.45-45.08,5.14-14.67,1.65-29.34,3.26-44.01,4.83-3.63.39-7.26.77-10.89,1.15-1.8.19-3.6.38-5.41.56s-3.62.46-5.43.43c-7.63-.13-15.27-.19-22.9-.15-15.5.08-31.02.55-46.48,1.74-1.89.15-3.79.3-5.68.47-1.38.12-2.96.46-4.33.09-1.88-.51-1.39-2.49-1.54-3.99-.21-2.05-.4-4.1-.56-6.15-.63-8.13-.81-16.3-.53-24.46.07-2.03-.05-4.21.55-6.16.55-1.79,1.11-3.59,1.67-5.38,1.1-3.53,2.21-7.05,3.33-10.57,2.28-7.17,4.61-14.33,6.97-21.47,4.79-14.48,9.73-28.91,14.8-43.3s10.47-29.26,15.88-43.82c5.43-14.6,10.97-29.16,16.62-43.67s11.4-29.06,17.24-43.53c5.81-14.42,11.71-28.81,17.68-43.18s11.92-28.51,17.98-42.73,12-28.03,18.08-42.01c5.95-13.69,11.95-27.37,17.97-41.03,6.35-14.41,12.7-28.82,19.06-43.22s12.72-28.81,19.09-43.21,12.83-28.94,19.26-43.4,12.82-28.76,19.26-43.13c6.44-14.36,12.9-28.72,19.39-43.06,6.49-14.33,13-28.66,19.55-42.96,6.54-14.3,13.12-28.58,19.73-42.85s13.33-28.64,20.05-42.93,13.42-28.39,20.2-42.55c6.77-14.15,13.59-28.27,20.47-42.37,6.87-14.08,13.79-28.14,20.77-42.16s14.01-27.99,21.11-41.94c7.13-14,14.32-27.97,21.58-41.9,7.22-13.84,14.5-27.65,21.86-41.42s14.78-27.46,22.28-41.13,15.07-27.26,22.73-40.82c7.65-13.54,15.39-27.04,23.21-40.48,7.71-13.25,15.51-26.45,23.41-39.6,7.39-12.31,14.86-24.57,22.42-36.78s15.19-24.34,22.91-36.43c7.72-12.07,15.52-24.09,23.41-36.05s15.85-23.82,23.92-35.63,16.28-23.64,24.56-35.35c8.22-11.63,16.54-23.2,24.96-34.69s16.9-22.85,25.5-34.16,17.3-22.55,26.11-33.7c8.76-11.09,17.62-22.09,26.59-33.01,8.99-10.94,18.08-21.79,27.28-32.54,9.13-10.67,18.36-21.24,27.71-31.71s18.74-20.78,28.28-31.02,19.13-20.3,28.86-30.28c9.7-9.95,19.52-19.79,29.45-29.51s20.02-19.36,30.2-28.85c10.1-9.42,20.32-18.71,30.65-27.87,10.3-9.13,20.73-18.13,31.26-27,10.51-8.84,21.14-17.54,31.88-26.09s21.73-17.05,32.77-25.33c12.51-9.39,25.17-18.58,37.97-27.56s25.8-17.77,38.92-26.34c13.07-8.53,26.27-16.85,39.62-24.95,12.83-7.79,25.8-15.34,38.87-22.73,8.06-4.56,16.11-9.11,24.27-13.47,9.83-5.25,19.79-10.27,30-14.76s19.97-8.28,30.44-10.89c4.48-1.12,9.04-1.99,13.65-2.33,3.88-.29,7.84-.22,11.66.64.38.09.76.22,1.14.28.36.06.64-.09.98-.21.45-.16.91-.32,1.37-.47,1.75-.59,3.5-1.16,5.26-1.7,3.44-1.05,6.91-2.01,10.4-2.86,7.16-1.74,14.41-3.06,21.73-3.92l-.38-.38c.8,16.59,1.67,33.18,2.6,49.76.94,16.58,1.94,33.16,3.02,49.73,1.07,16.57,2.22,33.13,3.43,49.69,1.21,16.56,2.49,33.11,3.84,49.65.68,8.27,1.37,16.54,2.08,24.81.68,7.96,1.22,15.93,1.83,23.9,1.23,16.07,2.46,32.15,3.71,48.22,1.26,16.26,2.52,32.52,3.79,48.78,1.28,16.39,2.57,32.78,3.85,49.17,1.29,16.47,2.59,32.93,3.89,49.4,1.3,16.48,2.6,32.97,3.9,49.45.31,3.95.62,7.91.93,11.86.04.48.79.48.75,0-1.3-16.48-2.6-32.96-3.9-49.44-1.3-16.47-2.6-32.95-3.89-49.42-1.29-16.41-2.58-32.83-3.86-49.24-1.28-16.3-2.55-32.59-3.81-48.89-1.25-16.12-2.5-32.25-3.73-48.37-1.23-16.11-2.46-32.21-3.8-48.31-1.38-16.54-2.7-33.09-3.94-49.64s-2.42-33.12-3.53-49.68-2.15-33.14-3.12-49.72c-.97-16.58-1.87-33.17-2.7-49.75-.2-3.98-.4-7.96-.59-11.95,0-.18-.17-.4-.38-.38-7.86.93-15.65,2.36-23.32,4.29-3.8.96-7.57,2.04-11.3,3.24-.92.29-1.83.6-2.74.9-.46.15-.91.31-1.37.47-.41.14-.7.32-1.12.21-.88-.23-1.77-.41-2.66-.55-8.61-1.38-17.6.34-25.92,2.57-10.46,2.81-20.58,6.85-30.45,11.27s-20.12,9.62-29.94,14.9c-7.93,4.27-15.76,8.72-23.6,13.15-13.57,7.67-27.02,15.56-40.33,23.68s-26.52,16.47-39.57,25.04-26.19,17.5-39.06,26.57c-12.67,8.93-25.19,18.06-37.57,27.39-10.97,8.27-21.82,16.69-32.55,25.26s-21.35,17.29-31.85,26.14c-10.58,8.92-21.04,17.99-31.38,27.19s-20.53,18.49-30.61,27.93c-10.17,9.51-20.22,19.15-30.16,28.91-9.92,9.74-19.72,19.6-29.41,29.57s-19.43,20.22-28.97,30.49c-9.53,10.25-18.94,20.61-28.24,31.07s-18.65,21.19-27.81,31.92-18.18,21.53-27.1,32.43-17.89,22.06-26.68,33.22-17.39,22.29-25.93,33.55-17.16,22.84-25.59,34.37-16.72,23.08-24.93,34.72-16.45,23.53-24.53,35.39c-8.05,11.82-16.02,23.71-23.89,35.66-7.92,12.03-15.75,24.11-23.49,36.26s-15.34,24.25-22.88,36.46-15.08,24.61-22.5,36.99c-7.89,13.17-15.68,26.39-23.39,39.67-7.85,13.52-15.61,27.09-23.29,40.71s-15.21,27.18-22.7,40.84-14.98,27.53-22.36,41.36c-7.35,13.78-14.62,27.59-21.83,41.44-7.25,13.94-14.43,27.91-21.55,41.92-7.09,13.95-14.11,27.94-21.08,41.96-7.01,14.1-13.96,28.24-20.85,42.4s-13.68,28.23-20.44,42.38-13.56,28.5-20.27,42.78c-6.68,14.22-13.33,28.46-19.93,42.72s-13.24,28.7-19.82,43.08c-6.54,14.31-13.05,28.64-19.53,42.97s-13.01,28.85-19.47,43.28c-6.44,14.37-12.85,28.75-19.25,43.14s-12.85,28.93-19.25,43.41-12.73,28.81-19.09,43.21-12.75,28.91-19.12,43.36c-6.01,13.65-12,27.32-17.93,41.01s-12.08,27.98-18.04,42c-6.04,14.23-12.03,28.48-17.95,42.76-5.96,14.38-11.84,28.78-17.64,43.22-5.85,14.56-11.61,29.15-17.27,43.78s-11.14,29.08-16.54,43.68-10.65,29.15-15.79,43.8c-5.04,14.37-9.94,28.79-14.69,43.26-2.34,7.13-4.64,14.28-6.9,21.44-1.13,3.59-2.25,7.18-3.37,10.77-.27.87-.54,1.65-.59,2.56-.06,1.07-.11,2.14-.15,3.21-.08,2.06-.13,4.12-.16,6.18-.09,8.16.27,16.32,1.08,24.43.09.86.18,1.71.19,2.57,0,.71,0,1.48.33,2.12.59,1.13,1.97,1.41,3.13,1.42,1.63.02,3.29-.25,4.91-.39,1.9-.16,3.8-.31,5.7-.45,15.56-1.14,31.16-1.56,46.76-1.61,3.81-.01,7.61,0,11.42.03,1.91.02,3.83.04,5.74.07s3.77.18,5.62-.01c7.17-.74,14.33-1.5,21.49-2.26,14.77-1.58,29.53-3.21,44.29-4.87s30.08-3.41,45.11-5.15c15.3-1.77,30.6-3.55,45.9-5.34s30.5-3.56,45.75-5.33c15.19-1.76,30.38-3.52,45.57-5.24,14.81-1.68,29.63-3.34,44.44-4.95,14.81-1.61,29.63-3.15,44.45-4.73,16.38-1.75,32.77-3.49,49.15-5.24s32.93-3.51,49.39-5.27c16.38-1.75,32.76-3.49,49.14-5.24,16.48-1.76,32.96-3.51,49.44-5.27,16.4-1.75,32.8-3.5,49.2-5.25,16.48-1.76,32.96-3.51,49.45-5.27,16.4-1.75,32.8-3.5,49.2-5.25,16.48-1.76,32.96-3.51,49.45-5.27,16.4-1.75,32.8-3.5,49.2-5.25,4.14-.44,8.28-.88,12.42-1.32s8.09-.98,12.12-1.53c8.06-1.09,16.11-2.22,24.16-3.38,16.07-2.32,32.12-4.75,48.16-7.22,16.06-2.47,32.11-4.97,48.17-7.41s31.74-4.77,47.63-6.97c15.86-2.2,31.75-4.26,47.66-6.07s31.23-3.32,46.89-4.53c15.53-1.2,31.09-2.07,46.67-2.5,14.15-.39,28.32-.42,42.47,0,.26,0,.5-.33.32-.56-.11-.15-.12-.2-.09-.27.04-.13.13-.27.25-.4.43-.46,1.02-.78,1.57-1.08,1.79-.97,3.72-1.69,5.62-2.41,2.29-.87,4.59-1.68,6.88-2.56,1.85-.71,3.74-1.42,5.46-2.41.77-.44,2.53-1.51,1.69-2.61l-.32.56c12.08-.25,24.16-.64,36.23-1.15,12.76-.54,25.51-1.2,38.26-1.97,12.92-.78,25.83-1.68,38.73-2.69,12.56-.99,25.12-2.08,37.66-3.32,6.02-.59,12.03-1.21,18.04-1.87,1.44-.16,2.89-.32,4.33-.48s2.96-.46,4.44-.73c3.19-.58,6.39-1.13,9.58-1.67,13.46-2.24,27.01-4.1,40.63-5,1.22-.08,2.56-.04,3.1-1.37s.15-2.91.01-4.26c-.37-3.56-.73-7.13-1.1-10.69-.73-7.13-1.47-14.25-2.2-21.38-1.46-14.2-3.07-28.4-4.36-42.62-1.17-12.86-2.33-25.72-3.47-38.57-1.18-13.2-2.34-26.41-3.49-39.62-1.16-13.41-2.3-26.83-3.41-40.25s-2.21-26.97-3.26-40.46c-1.05-13.41-2.05-26.83-3.02-40.25-.95-13.21-1.85-26.42-2.69-39.63-.42-6.52-.82-13.04-1.2-19.56s-.64-12.69-1.07-19.03c-.69-10.01-1.63-20.01-2.43-30.01-.87-10.79-1.74-21.59-2.61-32.39-.92-11.38-1.83-22.76-2.75-34.14s-1.89-23.52-2.83-35.28c-.96-11.93-1.92-23.86-2.87-35.8s-1.91-23.8-2.87-35.7c-.94-11.66-1.87-23.32-2.81-34.98s-1.81-22.43-2.71-33.65c-.85-10.57-1.71-21.13-2.56-31.7-.8-9.92-1.61-19.85-2.57-29.76-1.02-10.49-2.03-20.97-3.05-31.46-1.07-11.07-2.15-22.14-3.22-33.21-1.12-11.53-2.24-23.05-3.36-34.58s-2.3-23.71-3.46-35.56c-1.17-12.05-2.34-24.11-3.52-36.16s-2.36-24.25-3.54-36.38-2.35-24.14-3.52-36.21c-1.16-11.89-2.31-23.78-3.47-35.66s-2.25-23.15-3.38-34.73-2.16-22.28-3.24-33.41-2.05-21.14-3.08-31.71c-.51-5.26-1.09-10.52-1.48-15.8-.52-6.9-1.05-13.8-1.58-20.71-1.07-14.02-2.15-28.03-3.23-42.05s-2.19-28.33-3.3-42.49c-1.11-14.27-2.23-28.55-3.35-42.82-1.09-13.85-2.18-27.7-3.27-41.55-.04-.48-.79-.48-.75,0Z"/>
  </g>
  <path class="cls-4" d="M1567.15,1798.43c20.71-3.27,41.41-6.63,62.1-10.08,2.87-.48,6.04-1.16,7.75-3.82,1.64-2.55,1.34-6.03.97-9.15-5.63-47.32-11.25-94.65-16.88-141.97-29.45-392.83-66.8-814.39-96.25-1207.22-12.42-136.88-24.84-273.77-37.26-410.65-.38-4.2-.88-8.72-3.41-11.82-3.98-4.88-10.87-3.99-16.63-2.72-22.27,4.91-44.55,9.81-66.82,14.72-81.87,20.37-188.8,18.08-272.43,23.47-55.15,3.56-110.03,11.14-164.88,18.72-116.78,16.14-233.35,34.91-350.35,48.41-55.73,29.88-117.24,48.7-178.78,47.65-34.88-.6-69.52-6.32-104.32-8.93-81.56-6.11-178.49,6.47-259.71,17.45-23.47,4.6-46.89,9.56-70.25,14.89,4.43,88.4,11.36,176.64,20.77,264.52,7.85,116.91,20.15,247.37,31.08,363.95,10.84,89.89,17.85,171.78,23.99,262.26.98,14.37,1.95,28.75,2.93,43.12,4.16,61.32,8.32,122.64,12.48,183.96,5.76,56.08,12.74,112.86,15.14,169.26,1.37,22.22,3.56,63.89,4.93,86.11.75,31.53,4.71,81.12,7.17,112.53,0,0,.98,12.53,1.97,25.07,3.14,22.59,6.27,45.18,6.27,45.18,4.91,35.41,7.96,71.16,9.13,106.99-.22,7.73,4.05,34.45,5.49,41.73,4.94,24.95,6.88,50.68,5.77,76.24,27.47-3.41,54.86-7.69,82.13-12.84,21.23-3,49.9-10.51,71.14-13.5,98.82-13.95,209.94-24.95,307.24-32.67,72.36-7.69,139.52-13.29,209.28-19.93,91.9-8.91,158.04-21.76,215.76-31.56,114.12-36.95,256.56.09,372.99-25.61,53.9-7.34,107.74-15.27,161.51-23.77Z"/>
  <g class="cls-2">
    <path class="cls-3" d="M65.95,190.58c23.51-49.59,89.88-95.99,139.63-90.9,208.65,21.35,413.75,74.76,622.28,97.56,208.52,22.81,462.15-7.12,652.64-105.92,13.9,2.33,28.01,3.13,42.06,2.39-8.18,70-14.62,140.25-19.31,210.65-10.79,180.22-12.65,378.03-15.2,541.75-6.75,91.83-5.63,182-3.59,275.71-1.62,144.37,1.3,346.58-.32,490.95,1.01,69.97-1.62,135.86-.61,205.83.1,16-.18,46.49-.65,64.35-.04,1.52-.32,3.26-1.46,4.1-.76.56-1.73.56-2.64.55-6.6-.06-12.67-.92-19.9-.5-36.29.02-73.22-6.1-107.21-6.99-16.45-.43-32.95.11-49.35-1.29-185.04-15.84-360.72-9.45-540.73,2.72-134.36,17.91-275.22,16.75-410.87,13.57-53.97-1.3-116.81-.46-170.78-1.76-31.77-.77-63.56.7-95.33-.06-8.01.43-34.84,1.1-43.04-.13-1.01-13.52-1.52-27.09-1.53-40.66,17.64-9.74,42.4-36.74,60.48-45.4,18.07-8.66,35.71-20.91,46-39.71,10.29-18.8-1.65-54.35-14.86-70.59-2.62-7.47-8.49-13.26-15.27-15.81-6.78-2.55-14.36-1.99-21.03.95-5.86,2.58-11.09,6.95-14.98,12.51-.97,1.39-1.94,2.92-3.4,3.56-1,.44-2.11.39-3.19.34-5.84-.29-11.68-.57-17.52-.86-1.16-.06-2.4-.14-3.36-.88-.8-.62-1.3-1.63-1.75-2.6-2.6-5.66-4.6-11.67-5.96-17.85,2.02.78-3.04-23.41-1.01-22.64-5.77-13.82,5.26-30.38,18.31-34.8,13.04-4.42,26.97-.73,40.44,1.39,13.47,2.13,28.63,2.12,38.96-7.87,15.17-14.68-2.85-79.58-7.65-101.36-2.62-7.47-8.49-13.26-15.27-15.81-6.78-2.55-14.36-1.99-21.03.95-5.86,2.58-11.09,6.95-14.98,12.51-.97,1.39-1.94,2.92-3.4,3.56-1,.44-2.11.39-3.19.34-5.84-.29-11.68-.57-17.52-.86-1.16-.06-2.4-.14-3.36-.88-.8-.62-1.3-1.63-1.75-2.6-3.99-8.71-6.59-18.22-7.6-27.96,5.31,23.29-2.65-12.03-1.2-5.75-1.54-14.73-.33-30.38,6.54-43.08,6.86-12.7,20.29-21.61,33.28-18.92,13.33,2.76,23.17,16.38,36.42,19.61,21.01,5.12,38.85-16.82,51.53-36.38,2.14-3.3,4.34-6.76,4.95-10.77.97-6.4-2.25-12.55-5.35-18.02-7.53-13.31-27.95-29.24-35.48-42.55-2.62-7.47-8.49-13.26-15.27-15.81-6.78-2.55-14.36-1.99-21.03.95-5.86,2.58-11.09,6.95-14.98,12.51-.97,1.39-1.94,2.92-3.4,3.56-1,.44-2.11.39-3.19.34-5.84-.29-11.68-.57-17.52-.86-1.16-.06-2.4-.14-3.36-.88-.8-.62-1.3-1.63-1.75-2.6-2.6-5.66-4.6-11.67-5.96-17.85,3.73-17.48,31.99-60.84,47.69-64.39,15.69-3.55,32.61-3.98,46.09-13.7,21.38-15.4,13.23-66.88-4.73-86.91-2.62-7.47-8.49-13.26-15.27-15.81-6.78-2.55-14.36-1.99-21.03.95-5.86,2.58-11.09,6.95-14.98,12.51-.97,1.39-1.94,2.92-3.4,3.56-1,.44-2.11.39-3.19.34-5.84-.29-11.68-.57-17.52-.86-1.16-.06-2.4-.14-3.36-.88-.8-.62-1.3-1.63-1.75-2.6-2.6-5.66-4.6-11.67-5.96-17.85-4.12-12.89,10.84-42.17,22.13-47.44,11.29-5.27,24-4,36.19-3.21,12.19.79,25.21.77,35.57-6.54,12.24-8.64,17.88-25.91,17.69-42.12-.19-16.21-17.52-49.23-22.54-64.4-2.62-7.47-8.49-13.26-15.27-15.81-6.78-2.55-14.36-1.99-21.03.95-5.86,2.58-11.09,6.95-14.98,12.51-.97,1.39-1.94,2.92-3.4,3.56-1,.44-2.11.39-3.19.34-5.84-.29-11.68-.57-17.52-.86-1.16-.06-2.4-.14-3.36-.88-.8-.62-1.3-1.63-1.75-2.6-2.6-5.66-4.6-11.67-5.96-17.85,4.4-18.37,20-50.42,35.77-57.39,17.53-7.75,38.42,5.91,55.71-2.48,13.45-6.53,19.8-24.84,18.55-41.21-1.25-16.36-13.94-49.37-20.99-63.75-2.62-7.47-8.49-13.26-15.27-15.81-6.78-2.55-14.36-1.99-21.03.95-5.86,2.58-11.09,6.95-14.98,12.51-.97,1.39-1.94,2.92-3.4,3.56-1,.44-2.11.39-3.19.34-5.84-.29-11.68-.57-17.52-.86-1.16-.06-2.4-.14-3.36-.88-.8-.62-1.3-1.63-1.75-2.6-2.6-5.66-4.6-11.67-5.96-17.85-.25-23.91,29.08-50.32,50-54.9,20.92-4.59,44.47-5.35,59.74-22.08,17.92-19.63.9-74.19-20.69-88.26-2.62-7.47-8.49-13.26-15.27-15.81-6.78-2.55-14.36-1.99-21.03.95-5.86,2.58-11.09,6.95-14.98,12.51-.97,1.39-1.94,2.92-3.4,3.56-1,.44-2.11.39-3.19.34-5.84-.29-11.68-.57-17.52-.86-1.16-.06-2.4-.14-3.36-.88-.8-.62-1.3-1.63-1.75-2.6-2.6-5.66-4.6-11.67-5.96-17.85-.59-2.72-4.28-15.08-1.78-14.99,2.5.09,3.6-3.42,4.12-6.17,5.24-27.98,27.55-50.9,52.83-54.28,14.74-1.97,31.27,1.63,43.23-8.27,17.87-14.8-1.1-58.49-9.35-81.57-2.62-7.47-8.49-13.26-15.27-15.81-6.78-2.55-14.36-1.99-21.03.95-5.86,2.58-11.09,6.95-14.98,12.51-.97,1.39-1.94,2.92-3.4,3.56-1,.44-2.11.39-3.19.34-5.84-.29-11.68-.57-17.52-.86-1.16-.06-2.4-.14-3.36-.88-.8-.62-1.3-1.63-1.75-2.6-2.6-5.66-4.6-11.67-5.96-17.85-2.96-18.6,12.39-39.29,28.88-43.18,16.5-3.89,33.5.64,50.32,1.44,16.83.8,35.89-3.63,45.02-19.56,8.26-14.41,5.53-33.75-1.38-48.98-6.6-14.54-24.28-35.8-32.7-50.44-1.52-9.57-8.3-17.18-16.36-20.21-6.78-2.55-14.36-1.99-21.03.95-5.86,2.58-11.09,6.95-14.98,12.51-.97,1.39-1.94,2.92-3.4,3.56-1,.44-2.11.39-3.19.34-5.84-.29-11.68-.57-17.52-.86-1.16-.06-2.4-.14-3.36-.88-.8-.62-1.3-1.63-1.75-2.6-2.6-5.66-4.6-11.67-5.96-17.85"/>
    <path class="cls-3" d="M66.28,190.77c4.27-8.98,9.67-17.41,15.78-25.25,6.45-8.28,13.68-15.94,21.46-22.97s16.47-13.71,25.49-19.49,18.04-10.56,27.71-14.48c8.98-3.64,18.35-6.45,27.95-7.89,4.48-.67,9.01-1.04,13.53-1.02,5.47.02,10.91.74,16.34,1.32,13.8,1.47,27.58,3.08,41.34,4.81,13.9,1.74,27.78,3.61,41.65,5.57s27.48,3.99,41.2,6.12,27.44,4.34,41.14,6.61,27.57,4.64,41.34,7.04,27.39,4.81,41.07,7.27,27.37,4.94,41.06,7.43,27.45,5.01,41.17,7.51,27.45,4.99,41.18,7.45,27.38,4.88,41.07,7.27,27.39,4.72,41.11,7,27.58,4.51,41.39,6.65,27.46,4.17,41.2,6.12,27.4,3.78,41.13,5.5c13.45,1.69,26.91,3.29,40.39,4.71,11.08,1.17,22.18,2.18,33.28,3.04s22.54,1.59,33.82,2.15,22.91.99,34.37,1.25,23.35.38,35.02.34,23.45-.24,35.18-.59,23.63-.86,35.44-1.52,23.82-1.5,35.71-2.48c11.94-.99,23.88-2.14,35.79-3.46s23.73-2.78,35.56-4.41c11.88-1.64,23.73-3.44,35.56-5.42,11.89-1.98,23.74-4.14,35.56-6.46,11.72-2.31,23.41-4.79,35.06-7.45s23.16-5.48,34.67-8.49c11.51-3.01,22.98-6.21,34.39-9.59s22.47-6.88,33.61-10.6,22.03-7.59,32.94-11.68c10.84-4.07,21.6-8.33,32.27-12.81,10.53-4.42,20.98-9.04,31.32-13.88,5.1-2.38,10.17-4.82,15.22-7.31,2.54-1.25,5.08-2.52,7.61-3.81,1.29-.65,2.58-1.31,3.87-1.97.58-.3,1.17-.6,1.75-.9.36-.18.5-.29.9-.24.49.05.97.16,1.46.23,13.29,2.09,26.78,2.79,40.22,2.09l-.38-.38c-1.66,14.23-3.25,28.47-4.77,42.72-1.52,14.25-2.97,28.51-4.34,42.78-1.38,14.27-2.68,28.55-3.91,42.83s-2.38,28.41-3.46,42.63c-1.08,14.21-2.16,28.42-3.01,42.65-.78,13.21-1.51,26.42-2.2,39.63s-1.33,26.7-1.94,40.06c-.6,13.38-1.17,26.76-1.69,40.14-.53,13.52-1.02,27.04-1.49,40.56-.46,13.54-.89,27.09-1.29,40.63s-.77,27.06-1.12,40.59c-.34,13.4-.67,26.79-.97,40.19-.3,13.38-.58,26.76-.85,40.14s-.51,26.49-.74,39.73c-.23,13.07-.45,26.14-.66,39.21-.21,12.82-.4,25.64-.6,38.46s-.38,25.13-.56,37.7-.36,24.62-.55,36.93c-.09,6-.18,12-.27,17.99-.05,3.14-.07,6.27-.29,9.4-.25,3.54-.5,7.07-.73,10.61-.92,13.98-1.66,27.98-2.25,41.98s-1.03,27.93-1.35,41.89c-.31,14.01-.5,28.03-.59,42.04-.09,14.06-.07,28.12.03,42.18.09,14.1.27,28.21.49,42.31.22,14.22.5,28.45.8,42.67.07,3.48.23,6.96.19,10.44-.03,2.61-.06,5.22-.08,7.83-.05,5.26-.1,10.53-.14,15.79-.08,10.97-.14,21.94-.19,32.91s-.07,22.75-.08,34.13c-.01,11.73-.01,23.46,0,35.19s.03,24.07.06,36.1c.03,12.22.07,24.44.11,36.67.04,12.29.09,24.58.13,36.87.05,12.31.09,24.62.14,36.93.04,12.28.09,24.57.12,36.85s.07,24.27.09,36.41.03,23.74.03,35.61c0,11.56-.01,23.12-.04,34.68s-.07,22.39-.13,33.58c-.06,10.71-.14,21.43-.25,32.14-.13,13.24.13,26.48.15,39.72.02,14-.07,28-.21,42-.14,13.98-.32,27.96-.48,41.95-.16,14.02-.3,28.05-.36,42.07-.06,14.21-.04,28.42.13,42.63.12,10.22.1,20.43.02,30.65-.08,10.83-.21,21.66-.43,32.49-.05,2.27-.09,4.53-.16,6.8-.04,1.29-.13,2.98-1.22,3.88-.59.49-1.38.54-2.11.55-.84,0-1.68-.02-2.51-.05-3.2-.1-6.4-.35-9.6-.48-3.38-.14-6.74.04-10.12.02-14-.07-27.98-1.03-41.93-2.21-13.67-1.16-27.31-2.56-40.99-3.58-6.69-.5-13.38-.91-20.08-1.12-7.04-.23-14.09-.25-21.13-.3s-14.31-.13-21.46-.47-14.32-1.05-21.47-1.63c-14.27-1.15-28.55-2.17-42.83-3.07-14.09-.89-28.19-1.66-42.3-2.32s-28.19-1.2-42.29-1.63c-14.02-.43-28.05-.76-42.08-.98-13.97-.22-27.94-.35-41.91-.37-13.84-.03-27.69.03-41.53.18-13.89.15-27.79.38-41.68.7-13.87.31-27.75.7-41.62,1.16-13.87.46-27.73.99-41.6,1.58s-27.67,1.25-41.49,1.95c-13.85.71-27.7,1.47-41.55,2.28-13.92.81-27.85,1.67-41.76,2.57-6.94.45-13.87.9-20.81,1.37-1.77.12-3.56.16-5.32.39s-3.39.45-5.09.67c-3.44.44-6.88.88-10.32,1.3-13.69,1.67-27.4,3.14-41.13,4.44s-27.61,2.44-41.43,3.42-27.84,1.81-41.77,2.51-27.95,1.25-41.93,1.69c-13.96.44-27.92.76-41.88.98s-27.93.34-41.89.38c-13.98.04-27.96,0-41.95-.12s-27.87-.29-41.81-.51c-13.82-.22-27.65-.49-41.47-.79-13.13-.28-26.26-.63-39.39-.83s-26.15-.31-39.23-.38c-13.36-.08-26.72-.12-40.08-.17-13.18-.06-26.36-.13-39.53-.28s-25.85-.48-38.78-.67c-14.39-.22-28.78-.04-43.17.12s-28.78.3-43.17,0c-3.6-.07-7.19.16-10.79.26-4.44.13-8.88.21-13.32.24-4.11.03-8.22.02-12.33-.09-2.99-.08-6.03-.15-8.99-.59l.28.36c-.78-10.56-1.27-21.14-1.45-31.72-.05-2.98-.08-5.96-.08-8.94l-.19.32c3.89-2.15,7.52-4.74,11.06-7.42,4.1-3.12,8.07-6.4,12-9.72,8.17-6.88,16.17-14,24.78-20.34,3.63-2.67,7.39-5.23,11.4-7.3,2.3-1.19,4.65-2.27,6.94-3.48,2.47-1.3,4.91-2.68,7.3-4.12,9.59-5.81,18.51-12.92,25.6-21.66,1.79-2.21,3.46-4.51,5-6.9,1.35-2.11,2.68-4.29,3.66-6.6,1.7-3.98,2.49-8.3,2.74-12.61.57-9.95-1.55-20.03-4.74-29.41s-7.19-17.78-12.94-25.32c-.28-.36-.55-.72-.84-1.07-.38-.47-.52-1.14-.76-1.69-.54-1.29-1.19-2.54-1.93-3.74-1.4-2.25-3.13-4.3-5.12-6.04-4.21-3.68-9.46-5.89-15.04-6.31-6.1-.46-12.23,1.18-17.5,4.24s-8.99,6.97-12.28,11.68c-.84,1.2-1.8,2.49-3.28,2.87s-3.36.07-4.94,0c-3.54-.17-7.07-.35-10.61-.52-1.74-.09-3.49-.11-5.22-.27-.71-.06-1.43-.19-2.05-.56-.69-.41-1.13-1.09-1.5-1.78-1.54-2.91-2.68-6.11-3.74-9.22s-1.92-6.26-2.63-9.45l-.46.46c.98.34.96-1.4.96-1.92,0-1.74-.22-3.49-.42-5.21-.5-4.23-1.2-8.45-1.5-12.7-.05-.74-.1-1.5-.05-2.25.02-.22.05-.37.11-.59.02-.06-.06.05-.12.03.25.09.57-.2.46-.46-4.61-11.17,1.72-23.86,10.92-30.57,12.21-8.91,28.53-5.63,42.3-3.23,12.39,2.16,26.1,3.91,37.69-2.25,3.76-2,7.42-4.75,9.41-8.6,1.54-2.98,2.31-6.32,2.76-9.63,1.24-8.94.48-18.14-.61-27.05-1.24-10.2-3.15-20.31-5.3-30.35-1.84-8.58-3.89-17.11-5.9-25.65-.36-1.55-.73-3.1-1.07-4.66-.61-2.74-2.19-5.41-3.84-7.65-3.7-5.03-9.1-8.72-15.22-10.08-6.99-1.55-14.36-.13-20.59,3.29-2.89,1.59-5.56,3.61-7.91,5.93-1.22,1.2-2.35,2.48-3.4,3.83s-1.84,2.81-3.01,3.99c-.6.61-1.3,1.06-2.15,1.23-.98.2-2.02.08-3.01.03-2.06-.1-4.11-.2-6.17-.3s-4.11-.2-6.17-.3c-.99-.05-1.97-.1-2.96-.15s-1.98-.03-2.94-.21c-.85-.15-1.61-.5-2.18-1.17s-.95-1.58-1.32-2.41c-.8-1.76-1.53-3.56-2.21-5.37-1.33-3.58-2.43-7.24-3.3-10.95s-1.46-7.33-1.85-11.04l-.74.1c.48,2.09.95,4.17,1.43,6.26.13.58.18,1.33.46,1.87.09.18.35.24.51.13.4-.26-.02-1.31-.09-1.66-.25-1.14-.51-2.28-.76-3.41-.59-2.67-1.19-5.33-1.78-8-.1-.45-.2-.9-.3-1.35-.03-.13-.05-.27-.09-.4-.02-.08-.02-.24-.02-.06l-.38.38h0c-.11-.06-.22-.12-.32-.19-.08-.19,0,.05.01.11.04.19.09.38.13.56.09.4.78.33.74-.1-1.28-12.31-.75-25.19,3.72-36.86,3.96-10.34,11.61-19.79,22.27-23.65,4.85-1.76,10.09-2.1,15.08-.7s9.63,4.36,13.92,7.38,8.53,6.32,13.21,8.82c4.42,2.36,9.24,3.83,14.28,3.75,10.18-.16,19.1-6.25,26.17-13.09,4.05-3.92,7.69-8.26,11.09-12.76s6.76-9.3,9.7-14.21c1.56-2.6,2.9-5.4,3.3-8.44s-.13-6.21-1.16-9.13-2.52-5.75-4.06-8.47c-1.13-2.01-2.42-3.92-3.8-5.77-6.51-8.65-14.54-16.04-21.79-24.04-3.33-3.68-6.61-7.48-9.25-11.7-.26-.42-.55-.85-.77-1.29-.32-.64-.53-1.36-.82-2.02-.55-1.25-1.2-2.46-1.94-3.61-1.43-2.23-3.19-4.25-5.2-5.96-4.27-3.64-9.59-5.77-15.2-6.1-6.16-.36-12.32,1.39-17.57,4.57-2.43,1.47-4.69,3.24-6.71,5.24-1.02,1.01-1.98,2.07-2.88,3.19s-1.71,2.35-2.58,3.52c-.93,1.25-2,2.28-3.63,2.43s-3.48-.09-5.18-.18c-3.54-.17-7.07-.35-10.61-.52-1.67-.08-3.47,0-5.11-.34s-2.38-1.54-3.04-2.94c-1.42-3.04-2.63-6.19-3.67-9.38-.53-1.63-1.02-3.27-1.45-4.93-.2-.75-.39-1.51-.57-2.27-.14-.59-.34-1.1-.2-1.69.33-1.4.75-2.77,1.22-4.12,2.57-7.37,6.38-14.35,10.39-21.03,4.63-7.72,9.78-15.17,15.56-22.08,2.59-3.09,5.31-6.08,8.27-8.83,2.38-2.22,4.93-4.32,7.78-5.91,3.42-1.9,7.36-2.38,11.17-3.07,5.84-1.06,11.71-1.94,17.5-3.28s11.3-3.09,16.46-5.84c3.81-2.04,7.36-4.51,10.05-7.94,4.66-5.95,6.75-13.55,7.59-20.94,1-8.73.33-17.64-1.36-26.24s-4.38-16.93-8.41-24.64c-1.76-3.37-3.79-6.61-6.2-9.55-.27-.33-.55-.66-.83-.99-.42-.49-.57-1.1-.82-1.69-.5-1.21-1.09-2.38-1.77-3.5-1.37-2.27-3.08-4.34-5.05-6.12-4.16-3.75-9.4-6.04-14.99-6.53-6.14-.54-12.34,1.06-17.65,4.11-5.03,2.89-9.1,6.96-12.4,11.7-.83,1.19-1.77,2.51-3.24,2.92-1.58.44-3.44.1-5.05.03-3.54-.17-7.07-.35-10.61-.52-1.74-.09-3.49-.11-5.22-.27-.71-.06-1.44-.19-2.05-.56-.69-.41-1.13-1.09-1.5-1.78-1.54-2.91-2.68-6.11-3.74-9.22-.55-1.62-1.05-3.26-1.51-4.91-.43-1.55-.74-3.14-1.17-4.69s-.64-3.21-.64-4.86c0-4.02.93-8.03,2.14-11.85,1.39-4.39,3.25-8.62,5.44-12.67s4.46-7.56,7.29-10.9c2.16-2.56,4.66-5.12,7.72-6.57,11.72-5.57,25.18-3.79,37.67-3.08,11.52.66,23.92.31,33.78-6.45,8.72-5.99,13.87-15.94,16.34-26.01,1.3-5.32,1.92-10.82,1.89-16.29-.02-3.72-.77-7.41-1.7-11-2.43-9.33-6.17-18.32-9.91-27.19-3.44-8.16-7.19-16.23-10.21-24.56-.75-2.08-1.44-4.15-2.5-6.09-1.27-2.34-2.9-4.49-4.81-6.35-3.95-3.87-9.02-6.4-14.5-7.14-12.09-1.65-23.77,5.03-30.66,14.68-.82,1.15-1.56,2.45-2.71,3.3-1.39,1.03-3.16.78-4.78.7-3.54-.17-7.07-.35-10.61-.52-1.81-.09-3.62-.18-5.43-.27-1.49-.07-3.09-.09-4.13-1.33s-1.6-2.98-2.21-4.44-1.22-3.01-1.76-4.54c-1.12-3.15-2.07-6.37-2.83-9.63-.08-.36-.25-.77-.21-1.14.02-.24.12-.49.18-.72.12-.49.25-.98.39-1.47.28-1.01.57-2.01.88-3.01,1.41-4.57,3.13-9.04,5.04-13.42,4.05-9.29,8.96-18.4,15.26-26.37,2.69-3.4,5.68-6.67,9.19-9.25,3.77-2.78,8.15-4.36,12.79-4.9,10.97-1.29,21.76,2.37,32.69,2.57,5.26.1,10.56-.69,15.29-3.1,4.2-2.14,7.68-5.46,10.37-9.3,5.89-8.4,8.32-19.15,8.06-29.3-.1-4.08-.75-8.11-1.62-12.1-1.01-4.63-2.29-9.2-3.68-13.72-2.98-9.68-6.5-19.21-10.39-28.56-1.56-3.74-3.17-7.47-4.92-11.12-1.07-2.24-1.89-4.55-3.25-6.66-1.43-2.23-3.19-4.25-5.2-5.96-4.27-3.64-9.59-5.77-15.2-6.1-6.13-.36-12.25,1.37-17.49,4.52-2.46,1.48-4.75,3.27-6.8,5.29-1.02,1.01-1.98,2.07-2.88,3.19s-1.71,2.35-2.58,3.52c-.93,1.25-2,2.28-3.63,2.43s-3.48-.09-5.18-.18c-3.54-.17-7.07-.35-10.61-.52-1.65-.08-3.39,0-5.01-.32s-2.46-1.52-3.13-2.96c-1.42-3.04-2.63-6.19-3.67-9.38-.53-1.63-1.02-3.27-1.45-4.93-.38-1.44-.9-2.95-.86-4.45.05-2.23.35-4.44.85-6.61,2.21-9.61,8-18.2,14.62-25.35s14.83-13.58,23.79-17.92c4.03-1.95,8.18-3.29,12.55-4.19,5.32-1.1,10.68-1.98,16.02-2.97,10.41-1.94,21.01-4.3,30.29-9.62,4.46-2.55,8.69-5.81,12.03-9.74,2.19-2.58,3.76-5.62,4.85-8.82,2.55-7.48,2.65-15.71,1.78-23.49-.99-8.85-3.3-17.57-6.6-25.83-3.1-7.78-7.1-15.34-12.42-21.84-2.22-2.71-4.7-5.24-7.53-7.32-.3-.22-.6-.44-.91-.65-.18-.13-.29-.19-.38-.36-.18-.33-.28-.74-.42-1.08-.51-1.24-1.11-2.44-1.81-3.59-1.37-2.27-3.08-4.34-5.05-6.12-4.16-3.75-9.41-6.04-14.99-6.53-6.14-.54-12.33,1.06-17.65,4.11-5.03,2.89-9.1,6.97-12.4,11.7-.81,1.16-1.72,2.45-3.13,2.89-.79.25-1.64.22-2.47.19-.89-.04-1.79-.09-2.68-.13-3.54-.17-7.07-.35-10.61-.52-1.74-.09-3.49-.11-5.22-.27-.71-.06-1.44-.19-2.05-.56-.69-.41-1.13-1.09-1.5-1.78-1.54-2.91-2.68-6.11-3.74-9.22-1.51-4.47-2.54-9.08-3.68-13.66-.47-1.89-.92-3.79-1.25-5.71-.14-.81-.26-1.63-.3-2.45-.03-.57-.08-1.23.11-1.78.17-.5.37-.33.87-.41.99-.15,1.75-.84,2.29-1.64,1.38-2.04,1.61-4.64,2.13-6.98,2.29-10.37,6.98-20.19,13.56-28.53s14.32-14.64,23.57-18.89c4.44-2.04,9.15-3.5,13.98-4.24,5.53-.85,11.15-.82,16.73-.97s11.02-.41,16.34-1.84c4.78-1.28,9.59-3.61,13-7.28,5.16-5.55,6.13-13.63,5.82-20.89-.4-9.44-2.79-18.76-5.54-27.75s-6.07-17.78-9.33-26.59c-.7-1.89-1.36-3.79-2.07-5.68-.94-2.5-2.25-4.85-3.89-6.97-3.22-4.17-7.66-7.39-12.7-8.98-11.82-3.73-24.53,1.59-32.44,10.58-.93,1.06-1.8,2.16-2.61,3.31s-1.63,2.56-2.9,3.34c-1.39.85-3.17.56-4.72.48-1.81-.09-3.62-.18-5.43-.27-3.54-.17-7.07-.35-10.61-.52-1.64-.08-3.18-.24-4.18-1.71-.86-1.28-1.42-2.84-2.01-4.26-1.28-3.08-2.39-6.23-3.32-9.43-.85-2.93-1.63-5.87-1.77-8.92-.23-5.24.89-10.48,2.9-15.31,3.9-9.4,11.29-17.92,20.6-22.25,5.44-2.53,11.63-3.24,17.56-3.41,6.88-.2,13.74.51,20.57,1.29s13.14,1.62,19.74,1.75c4.93.1,9.89-.26,14.73-1.21,9.6-1.87,18.93-6.23,25.2-13.95,7.17-8.83,9.19-20.48,8.05-31.57s-4.91-21.04-10.42-30.32-12.28-18.38-18.61-27.43c-2.94-4.21-5.86-8.45-8.54-12.84-.28-.45-.55-.91-.82-1.36-.13-.22-.28-.44-.39-.67-.18-.35-.21-.74-.28-1.12-.27-1.36-.65-2.69-1.13-3.99-.91-2.43-2.17-4.73-3.74-6.8-3.01-3.97-7.11-7.1-11.79-8.82-5.91-2.16-12.5-1.98-18.43.02-5.5,1.85-10.44,5.21-14.38,9.45-.96,1.03-1.85,2.11-2.69,3.23-.89,1.18-1.63,2.52-2.71,3.55-1.22,1.17-2.68,1.25-4.29,1.17-1.81-.09-3.62-.18-5.43-.27-3.25-.16-6.5-.32-9.75-.48-1.42-.07-3,.03-4.38-.38-1.47-.43-2.14-1.73-2.74-3.03-2.62-5.68-4.57-11.66-5.93-17.76-.1-.47-.83-.27-.72.2.73,3.31,1.64,6.58,2.74,9.78,1.04,3.03,2.18,6.12,3.65,8.98.62,1.2,1.47,2.17,2.8,2.56,1.49.44,3.17.34,4.7.41,3.54.17,7.07.35,10.61.52,1.7.08,3.39.2,5.09.24,1.44.04,2.77-.21,3.89-1.17,1.02-.86,1.73-2.04,2.49-3.12.89-1.27,1.86-2.47,2.91-3.62,3.97-4.36,9.01-7.83,14.64-9.66,6.02-1.95,12.66-2,18.56.41,4.76,1.95,8.86,5.47,11.65,9.77,1.48,2.28,2.59,4.78,3.29,7.4.17.64.32,1.29.43,1.95.11.62.36,1.05.68,1.59.59,1,1.2,1.99,1.81,2.97,2.81,4.47,5.84,8.81,8.87,13.13,6.26,8.9,12.8,17.69,18.22,27.15s9.04,20.34,9.6,31.36c.3,5.78-.28,11.65-2.13,17.15-1.72,5.09-4.56,9.77-8.38,13.56-7.12,7.06-16.98,10.54-26.78,11.73-12.11,1.47-24.2-.78-36.23-1.93-6.84-.66-13.77-.99-20.61-.14-2.9.36-5.82.87-8.59,1.82-2.24.77-4.39,1.81-6.41,3.05-8.69,5.32-15.42,14.1-18.6,23.76-1.6,4.84-2.28,10.02-1.64,15.09.2,1.56.62,3.1,1.02,4.62s.88,3.15,1.38,4.7c1.02,3.16,2.22,6.26,3.59,9.28.55,1.22,1.15,2.56,2.35,3.27s2.72.68,4.08.75c3.58.18,7.16.35,10.74.53,1.73.08,3.46.17,5.18.25,1.5.07,3.08.24,4.45-.52,1.12-.62,1.92-1.69,2.64-2.72.89-1.26,1.78-2.5,2.78-3.68,7.93-9.29,20.97-14.83,32.96-10.57,5.07,1.8,9.47,5.36,12.46,9.81,2.59,3.85,3.87,8.41,5.47,12.73,3.31,8.91,6.62,17.83,9.31,26.95,2.63,8.91,4.89,18.2,4.94,27.54.04,7.34-1.56,15.21-7.54,20.06-8.99,7.28-21.09,6.97-32.03,7.26-5.3.14-10.61.42-15.78,1.65-4.73,1.12-9.29,2.92-13.56,5.23-8.91,4.81-16.54,11.85-22.41,20.07-3.07,4.29-5.67,8.93-7.73,13.79-1.03,2.42-1.93,4.9-2.68,7.43s-1.29,5.15-1.85,7.75c-.43,1.98-1.18,5.09-3.63,5.25-1.08.07-1.22,1.27-1.23,2.14-.03,1.66.31,3.35.64,4.97.38,1.85.83,3.68,1.3,5.51.43,1.7.82,3.41,1.24,5.12.8,3.25,1.79,6.45,2.95,9.58.58,1.55,1.2,3.09,1.86,4.6.57,1.31,1.09,2.8,2.11,3.83.95.98,2.28,1.21,3.58,1.29,1.73.11,3.47.17,5.2.26,3.58.18,7.16.35,10.74.53,1.51.07,3.16.33,4.65-.05,1.31-.33,2.29-1.29,3.09-2.33.89-1.15,1.66-2.38,2.57-3.52s1.94-2.29,3.01-3.35c2.08-2.04,4.39-3.84,6.9-5.32,5.39-3.17,11.69-4.81,17.94-4.18,5.7.57,11.01,3.14,15.07,7.17,1.94,1.92,3.57,4.15,4.83,6.57.34.65.65,1.32.93,2,.21.5.31,1.22.75,1.55.63.48,1.3.9,1.93,1.38,2.83,2.21,5.31,4.87,7.52,7.7,5.25,6.71,9.18,14.47,12.17,22.42s5.32,17.1,6.06,25.98c.64,7.69.3,15.85-2.73,23.05-1.46,3.48-3.61,6.41-6.31,9.03-3.85,3.74-8.36,6.73-13.2,9.03-9.74,4.63-20.5,6.55-31.03,8.43-5.06.91-10.22,1.66-15.19,3-4.27,1.15-8.35,2.98-12.21,5.12-8.76,4.86-16.67,11.48-23.13,19.13-6.09,7.22-11.31,15.85-12.8,25.31-.17,1.09-.3,2.2-.36,3.3-.03.51-.04,1.01-.05,1.52,0,.74.21,1.44.38,2.15.79,3.29,1.76,6.54,2.92,9.72.55,1.52,1.15,3.02,1.78,4.51.58,1.37,1.12,2.89,2.04,4.07.84,1.08,2.02,1.51,3.34,1.64,1.71.18,3.45.19,5.17.27,3.54.17,7.07.35,10.61.52,1.56.08,3.2.31,4.76.1,1.43-.19,2.52-.98,3.42-2.07s1.59-2.24,2.43-3.33c.94-1.22,1.95-2.39,3.03-3.49,2.04-2.08,4.33-3.92,6.82-5.45,5.31-3.25,11.55-5.01,17.8-4.54,5.75.43,11.16,2.87,15.33,6.84,1.97,1.88,3.65,4.06,4.96,6.46.68,1.25,1.16,2.56,1.72,3.87.34.78.75,1.55,1.11,2.32,1.81,3.86,3.49,7.78,5.1,11.73,3.82,9.37,7.3,18.91,10.19,28.61,2.53,8.48,4.87,17.25,4.67,26.16-.22,10.17-3.15,20.97-9.86,28.82-3.22,3.76-7.32,6.65-12.06,8.16-5.15,1.64-10.62,1.63-15.96,1.12-10.65-1.02-21.71-4.28-32.34-1.42-4.13,1.11-7.71,3.21-10.92,6-3.42,2.97-6.36,6.48-9.02,10.13-5.98,8.21-10.73,17.35-14.59,26.73-1.75,4.24-3.31,8.56-4.57,12.97-.28.98-.54,1.96-.78,2.95-.15.6.11,1.23.25,1.83.2.84.41,1.67.63,2.5.86,3.23,1.9,6.4,3.12,9.51.6,1.54,1.25,3.06,1.94,4.56.56,1.22,1.21,2.48,2.47,3.1s2.8.56,4.19.63c1.77.09,3.54.17,5.31.26,3.58.18,7.16.35,10.74.53,1.41.07,2.86.13,4.11-.63,1.16-.7,1.95-1.86,2.71-2.95,3.36-4.84,7.67-8.95,12.88-11.75,5.57-2.98,12.1-4.34,18.37-3.28,5.54.93,10.56,3.75,14.34,7.89,1.85,2.03,3.38,4.34,4.51,6.84.82,1.8,1.38,3.72,2.08,5.58,3.22,8.52,7.04,16.81,10.55,25.21s7.29,17.62,9.48,26.85c.44,1.86.81,3.73,1.04,5.63.24,2.05.25,4.11.18,6.17-.18,5.53-1.03,11.05-2.63,16.36-3.09,10.31-9.24,20.01-19.12,24.93-10.84,5.4-23.38,4.45-35.08,3.68-6.34-.42-12.73-.77-19.07-.06-3.09.35-6.15.95-9.1,1.91-2.14.7-4.31,1.53-6.19,2.8-3.03,2.05-5.51,4.88-7.7,7.77-2.7,3.57-5.01,7.44-6.99,11.44s-3.69,8.25-4.87,12.6c-1,3.67-1.71,7.56-1.42,11.38.15,1.98.71,3.9,1.19,5.82.8,3.25,1.79,6.45,2.95,9.58.58,1.55,1.2,3.09,1.86,4.6.56,1.28,1.07,2.73,2.04,3.77s2.31,1.27,3.65,1.36c1.73.11,3.47.17,5.2.26,3.54.17,7.07.35,10.61.52,1.55.08,3.25.35,4.77-.04,1.31-.34,2.29-1.29,3.09-2.33.89-1.15,1.66-2.38,2.57-3.52s1.94-2.29,3.01-3.35c2.07-2.04,4.39-3.84,6.9-5.32,5.39-3.17,11.69-4.81,17.94-4.18,5.7.57,11.01,3.14,15.07,7.17,1.94,1.93,3.57,4.15,4.83,6.57.32.61.61,1.24.87,1.87.24.58.38,1.27.8,1.75.57.65,1.12,1.31,1.66,1.99,2.4,3.08,4.4,6.46,6.13,9.95,3.91,7.87,6.5,16.42,8.02,25.06s2,17.5.7,26.14c-1.09,7.28-3.53,14.79-8.7,20.22-3.38,3.55-7.91,6.02-12.38,7.91-5.46,2.31-11.25,3.72-17.06,4.84s-11.71,1.99-17.52,3.2c-1.63.34-3.21.67-4.74,1.34-1.27.56-2.48,1.26-3.64,2.03-2.86,1.91-5.45,4.22-7.88,6.64-2.95,2.94-5.69,6.09-8.3,9.34-5.64,7.03-10.7,14.54-15.22,22.33-3.74,6.46-7.33,13.22-9.57,20.37-.21.68-.41,1.36-.58,2.05-.07.29-.15.58-.21.87-.13.63.18,1.35.33,1.97.78,3.25,1.74,6.46,2.88,9.61.56,1.56,1.17,3.1,1.82,4.62.58,1.37,1.12,2.89,2.04,4.07.84,1.08,2.02,1.51,3.34,1.64,1.67.17,3.37.18,5.05.27,3.58.18,7.16.35,10.74.53,1.56.08,3.2.31,4.76.1,1.43-.19,2.52-.98,3.42-2.07s1.59-2.24,2.43-3.33c.94-1.22,1.95-2.39,3.03-3.49,2.05-2.08,4.33-3.92,6.82-5.45,5.31-3.25,11.55-5.01,17.8-4.54,5.75.43,11.16,2.87,15.33,6.84,1.97,1.88,3.65,4.06,4.96,6.46.34.62.65,1.25.93,1.89s.49,1.34.79,1.98c.45.95,1.11,1.86,1.69,2.73,2.82,4.2,6.18,8.02,9.6,11.73,3.78,4.11,7.7,8.09,11.51,12.17,3.54,3.78,7.04,7.65,10.06,11.87,1.45,2.03,2.7,4.16,3.89,6.35,1.52,2.83,2.92,5.76,3.67,8.9s.69,6.4-.39,9.49-2.78,5.6-4.48,8.2c-6.15,9.44-12.93,18.79-21.49,26.22-7.49,6.51-17.03,11.58-27.24,9.93s-18.48-9.79-27.25-15.21c-4.33-2.68-9.08-4.84-14.22-5.23s-10.15.91-14.63,3.26c-10.04,5.26-16.67,15.05-20.03,25.66s-3.81,22.58-2.64,33.87l.74-.1c-.08-.35-.1-.98-.54-1.04-.2-.03-.37.19-.38.38,0,.49.22,1.04.32,1.51.25,1.15.51,2.29.77,3.44.58,2.61,1.17,5.22,1.75,7.84.1.44.2.88.29,1.32.03.13.04.27.08.39.03.07.02.24.02.06l.19-.32h0c.17.04.34.09.51.13.09.17,0,.02,0-.04,0-.1-.05-.22-.08-.32-.11-.47-.22-.94-.32-1.4-.47-2.06-.94-4.13-1.42-6.19-.09-.4-.78-.33-.74.1.79,7.58,2.51,15.05,5.17,22.19.65,1.73,1.35,3.45,2.1,5.14.64,1.43,1.28,3.11,2.75,3.88s3.39.63,5.02.71c2.06.1,4.11.2,6.17.3s4.11.2,6.17.3c1.03.05,2.06.1,3.08.15.86.04,1.74.08,2.59-.09,1.55-.32,2.63-1.47,3.54-2.7,1.03-1.4,1.99-2.83,3.12-4.16,4.48-5.25,10.44-9.33,17.15-11.08s14.38-1.03,20.47,2.78c2.66,1.66,5.02,3.82,6.92,6.32,1.72,2.26,3.36,4.98,3.99,7.77.76,3.39,1.57,6.77,2.37,10.15,1.02,4.31,2.04,8.63,3.02,12.96,1.1,4.89,2.16,9.79,3.13,14.71s1.94,10.25,2.73,15.41,1.4,10.09,1.8,15.16c.35,4.52.52,9.06.31,13.59-.18,3.74-.61,7.51-1.7,11.1-.9,2.94-2.28,5.64-4.55,7.74-4.7,4.34-10.72,6.8-16.98,7.81s-12.83.66-19.15-.22c-7.54-1.05-14.97-2.77-22.56-3.47s-14.97-.44-21.77,2.44c-5.21,2.21-9.68,6.08-12.96,10.66s-5.47,10.19-5.47,15.9c0,2.76.53,5.49,1.58,8.04l.46-.46c-.98-.34-.96,1.4-.96,1.92,0,1.74.22,3.49.42,5.21.5,4.23,1.2,8.45,1.5,12.7.05.74.1,1.5.05,2.25-.02.22-.05.37-.11.59-.02.06.06-.05.12-.03-.29-.1-.52.2-.46.46.73,3.27,1.62,6.5,2.71,9.67s2.19,6.13,3.64,9c.59,1.17,1.38,2.15,2.66,2.59,1.37.47,2.96.38,4.39.45,3.54.17,7.07.35,10.61.52,1.72.08,3.43.18,5.15.25,1.47.06,2.89-.04,4.1-.97,1.03-.79,1.75-1.91,2.48-2.96.86-1.24,1.79-2.44,2.8-3.57,3.88-4.38,8.81-7.9,14.35-9.83,5.97-2.08,12.59-2.29,18.55-.05,4.98,1.87,9.29,5.46,12.2,9.89.75,1.14,1.41,2.34,1.98,3.59.28.62.52,1.25.76,1.88.17.47.55.83.86,1.22,1.32,1.7,2.54,3.48,3.69,5.31,2.52,4.02,4.68,8.27,6.56,12.63,4,9.31,6.85,19.35,7.55,29.49.32,4.57.19,9.22-.77,13.72-.44,2.08-1.06,4.13-1.92,6.08-1.04,2.37-2.42,4.6-3.82,6.76-6.18,9.5-14.52,17.39-23.8,23.82-4.6,3.19-9.44,6.04-14.41,8.62-2.18,1.13-4.41,2.15-6.58,3.29-1.92,1.02-3.77,2.14-5.59,3.33-8.57,5.61-16.37,12.38-24.16,19.01-7.72,6.57-15.39,13.33-23.81,19-1.68,1.13-3.4,2.21-5.17,3.19-.11.06-.19.19-.19.32.01,10.59.33,21.18.94,31.75.17,2.97.37,5.94.59,8.91.01.15.11.34.28.36,3.27.49,6.61.55,9.9.63,4.49.11,8.99.1,13.49.05s8.71-.14,13.06-.28c1.63-.05,3.27-.11,4.9-.18,2.43-.11,4.85-.01,7.28.03,14.39.24,28.78.07,43.17-.09s28.78-.31,43.17-.03c12.87.25,25.73.52,38.6.65s26.48.2,39.72.26,26.71.1,40.06.18,26.08.19,39.12.41c13.25.22,26.5.57,39.74.85,13.87.3,27.74.56,41.61.77,13.9.22,27.8.38,41.7.48s27.97.13,41.95.08,27.93-.18,41.89-.42c14-.24,28-.57,42-1.03s27.95-1.03,41.92-1.75,27.85-1.57,41.76-2.58,27.7-2.17,41.52-3.51c13.76-1.33,27.5-2.84,41.22-4.55,3.4-.42,6.79-.86,10.19-1.3s6.99-.61,10.48-.84c6.97-.46,13.95-.92,20.92-1.37,13.92-.89,27.83-1.74,41.75-2.55s27.77-1.56,41.66-2.26c13.87-.7,27.74-1.34,41.61-1.93,13.86-.58,27.73-1.1,41.6-1.55,13.87-.45,27.75-.82,41.62-1.12,13.85-.3,27.71-.52,41.56-.65,13.93-.13,27.86-.18,41.78-.13,13.93.05,27.87.19,41.8.43s28.07.59,42.1,1.04c14.11.45,28.21,1.02,42.31,1.7s28.39,1.48,42.57,2.4c14.3.93,28.58,1.97,42.86,3.15,7.15.59,14.29,1.21,21.46,1.46s14.31.28,21.46.32,13.94.12,20.9.42,13.39.75,20.07,1.28c13.79,1.1,27.56,2.52,41.35,3.64,13.94,1.13,27.95,2.08,41.94,1.76,3.25-.07,6.5.09,9.75.27,1.61.09,3.22.19,4.83.25,1.42.06,2.96.23,4.37,0,2.83-.46,2.96-3.64,3.02-5.92s.11-4.66.16-7c.22-10.87.34-21.75.42-32.62.08-10.42.06-20.83-.05-31.24-.15-14.16-.17-28.32-.1-42.47.07-13.98.21-27.96.37-41.94s.34-27.97.47-41.95c.13-14.09.22-28.18.19-42.26-.01-7.17-.05-14.34-.13-21.51-.06-5.92-.06-11.84,0-17.76.1-10.73.18-21.47.24-32.2.06-11.21.1-22.42.13-33.64s.04-23.21.04-34.82-.01-23.84-.04-35.75c-.02-12.14-.05-24.29-.09-36.43-.04-12.29-.08-24.58-.12-36.86-.04-12.35-.09-24.69-.14-37.04-.05-12.32-.09-24.65-.13-36.97-.04-12.18-.08-24.36-.11-36.54-.03-12.02-.05-24.05-.06-36.07-.01-11.71-.01-23.43,0-35.14.01-11.39.04-22.78.09-34.17s.11-21.89.19-32.84c.04-5.31.09-10.62.14-15.93.03-2.67.11-5.34.05-8-.08-3.57-.15-7.13-.23-10.7-.3-14.26-.57-28.51-.79-42.77-.22-14.14-.38-28.27-.47-42.41-.08-14.06-.09-28.11,0-42.17.1-14.01.3-28.03.63-42.04.33-14.01.79-28.02,1.4-42.02s1.38-28.08,2.32-42.11c.23-3.49.59-7,.74-10.49.13-2.97.09-5.95.14-8.91.09-6.08.18-12.16.28-18.23.18-12.33.36-24.66.55-36.99.19-12.58.37-25.17.56-37.75.2-12.87.39-25.74.6-38.61s.43-26.09.66-39.14.48-26.51.75-39.76.55-26.77.85-40.16c.31-13.48.63-26.96.98-40.44.35-13.53.73-27.06,1.13-40.59.41-13.55.84-27.09,1.3-40.63s.96-27.04,1.5-40.55c.53-13.45,1.1-26.9,1.72-40.35.61-13.35,1.26-26.69,1.96-40.03s1.38-26.4,2.22-39.59c.9-14.31,1.98-28.61,3.08-42.91,1.09-14.25,2.26-28.5,3.5-42.75s2.56-28.56,3.94-42.83c1.38-14.22,2.84-28.44,4.36-42.65,1.41-13.18,2.89-26.35,4.43-39.51.02-.19-.19-.38-.38-.38-7.02.37-14.06.36-21.09-.04-3.51-.2-7.02-.49-10.51-.89-1.76-.2-3.51-.42-5.26-.66-.89-.13-1.78-.26-2.67-.39-.4-.06-.81-.13-1.21-.19s-.91-.25-1.31-.21c-.52.05-1.13.54-1.59.78-.64.33-1.29.66-1.93.99-1.29.66-2.58,1.32-3.87,1.97-2.5,1.26-5.01,2.52-7.53,3.75-5.08,2.5-10.19,4.95-15.33,7.34-10.45,4.87-20.99,9.52-31.63,13.96s-21.4,8.69-32.21,12.73-21.98,7.98-33.07,11.67-22.43,7.25-33.74,10.59-22.82,6.53-34.31,9.52c-11.55,3-23.15,5.82-34.79,8.46s-23.35,5.11-35.08,7.4c-11.83,2.31-23.69,4.45-35.58,6.42s-23.69,3.75-35.57,5.37-23.97,3.1-35.99,4.41c-11.88,1.29-23.77,2.42-35.68,3.39-11.89.97-23.79,1.78-35.71,2.43-11.84.65-23.68,1.14-35.53,1.47-11.72.33-23.44.51-35.16.53s-23.33-.11-35-.4c-11.45-.28-22.9-.72-34.33-1.31-11.34-.59-22.66-1.33-33.98-2.22s-22.11-1.91-33.14-3.09c-13.71-1.48-27.4-3.11-41.08-4.84s-27.62-3.62-41.41-5.59-27.56-4.04-41.32-6.18-27.52-4.38-41.26-6.67c-13.71-2.29-27.41-4.63-41.1-7.02s-27.55-4.85-41.31-7.33-27.37-4.95-41.05-7.44-27.53-5.03-41.29-7.53-27.37-4.97-41.06-7.42-27.46-4.89-41.19-7.27c-13.73-2.38-27.47-4.72-41.23-6.99-13.7-2.26-27.42-4.46-41.15-6.58-13.8-2.13-27.62-4.17-41.44-6.11s-27.41-3.74-41.13-5.45c-13.85-1.72-27.71-3.32-41.59-4.77-5.04-.53-10.05-1.06-15.13-.94-4.52.1-9.03.58-13.49,1.33-9.63,1.64-19.01,4.61-28,8.4-9.59,4.05-18.77,9.05-27.48,14.75s-17.39,12.44-25.25,19.66-14.86,14.79-21.22,23.11c-5.77,7.54-10.88,15.61-14.96,24.19-.21.43.44.81.65.38h0Z"/>
  </g>
  <path class="cls-1" d="M415.9,69.29c-122.83-3.69-245.13-9.01-365.37-16.64l-1.92,137.25,42.31.59c1.34-27.99,67.27-37.52,65.67,18.27-1.69,59.21-66.18,43.12-67.47,13.32l-40.95-.63s-1.94,139.13-2.14,153.42c7.35.1,40.89.57,40.89.57,1.34-27.99,67.27-37.52,65.67,18.27-1.69,59.21-66.18,43.12-67.47,13.32l-40.95-.63s-1.96,140.47-2.14,153.62c0,0,42.31.59,42.31.59,1.34-27.99,67.27-37.52,65.67,18.27-1.69,59.21-66.18,43.12-67.47,13.32l-40.95-.63s-1.91,136.76-2.14,153.03c0,0,42.31.59,42.31.59,1.34-27.99,67.27-37.52,65.67,18.27-1.69,59.21-66.18,43.12-67.47,13.32l-40.95-.63s-1.96,140.47-2.15,153.62c7.36.1,40.89.57,40.89.57,1.34-27.99,67.27-37.52,65.67,18.27-1.69,59.21-66.18,43.12-67.47,13.32l-40.95-.63s-1.91,136.76-2.14,153.03c0,0,42.31.59,42.31.59,1.34-27.99,67.27-37.52,65.67,18.27-1.69,59.21-66.18,43.12-67.47,13.32l-40.95-.63s-1.92,137.61-2.14,153.18c6.91.09,41.08.57,41.08.57,1.34-27.99,67.27-37.52,65.67,18.27-1.69,59.21-66.18,43.12-67.47,13.32l-40.95-.63s-1.95,139.45-2.14,153.47c7.15.1,40.98.57,40.98.57,1.34-27.99,67.27-37.52,65.67,18.27-1.69,59.21-66.18,43.12-67.47,13.32l-40.95-.63s-2,143.63-2.15,154.01l5.45.08,42.31.59c1.34-27.99,67.27-37.52,65.67,18.27-1.69,59.21-66.18,43.12-67.47,13.32l-40.95-.63-2.16,154.61c40.91,1.22,68.39,7.5,109.3,8.73,167.91,5.03,336.03,10.05,503.8,1.08,72.77-3.89,145.4-10.41,218.12-15.14,229.56-14.93,473.47-14.58,702.57,6.22-10.81-526.14-4.48-1052.68,18.96-1578.41,2.24-50.13,6.71-151.78,5.21-201.94-19.46.31-117.1-2.21-136.56-1.92-141.34,2.11-282.7,3.06-424.06,2.85-199.19-.29-403.77-1.95-606.88-8.06Z"/>
</svg>