<?xml version="1.0" encoding="UTF-8"?>
<svg id="Layer_1" data-name="Layer 1" xmlns="http://www.w3.org/2000/svg" viewBox="0 0 558.41 448.36">
  <defs>
    <style>
      .cls-1 {
        fill: #fab6c3;
      }

      .cls-2 {
        opacity: .2;
      }

      .cls-3 {
        fill: #fa84a1;
      }

      .cls-4 {
        fill: gray;
      }
    </style>
  </defs>
  <g class="cls-2">
    <path class="cls-4" d="M507.48,44.38c-1.39-2.2-3.06-4.15-5.24-5.55-4.69-3.01-10.67-2.76-16.23-2.52-15.32.66-36.58.58-51.89-.45-30.6.99-67.68.63-98.27-.79-21.74.62-48.39.47-70.1-.74-21.92-.32-43.85.02-65.74,1.03-3.73.35-13.47.1-17.21,0-2.63-.07-4.8.1-6.65-1.78-1.59-1.62-3.09-4.29-3.52-6.52-1.83-9.5-6.38-19.42-15.21-23.36-4.47-1.99-9.51-2.08-14.4-2.14-18.01-.21-42.83.51-60.85.3-2.98.16-5.96.32-8.94.48-2.69.14-5.42.3-7.97,1.18-4.89,1.69-8.54,5.89-10.9,10.49s-3.63,9.66-5.27,14.56c-.89,2.68-3.03,8.43-4.78,10.65s-2.59,3.24-5.09,3.45c6.28,18.43,23.96,38.88,42.62,44.51,9.52,2.87,19.57,3.4,29.5,3.91,57.69,2.96,115.47,5.91,173.18,3.58,29.45-1.19,58.98-3.76,88.33-1.1,17.06,1.55,34.13,4.86,51.19,3.34,31.62-2.83,60.86-27.73,86.82-46.01-1.01-2.2-2.07-4.45-3.37-6.5v-.02Z"/>
    <path class="cls-4" d="M508.78,43.62c-2.23-3.46-5.1-6.23-9.02-7.65s-8.22-1.38-12.32-1.22c-8.13.31-16.25.5-24.39.48s-16.58-.18-24.86-.63-16.85.11-25.26.22c-18.11.22-36.23.07-54.34-.42-4.36-.12-8.72-.26-13.08-.42s-8.48-.43-12.73-.32c-8.71.21-17.42.3-26.14.27s-18.01-.18-27.01-.48c-4.22-.14-8.45-.32-12.67-.55-4.96-.27-9.95-.17-14.92-.18-9.96-.02-19.93.1-29.89.35-5.06.13-10.13.29-15.19.5-3.69.15-7.39.42-11.09.47-3.29.04-6.58,0-9.87-.09-1.33-.03-2.66-.07-4-.1-1.74-.04-3.5-.03-4.82-1.32-2.94-2.9-3.2-6.93-4.3-10.68-1.04-3.52-2.47-6.98-4.44-10.08s-4.43-5.8-7.48-7.82c-3.51-2.32-7.58-3.3-11.73-3.66s-8.16-.28-12.25-.29-8.14.02-12.21.05c-8.62.08-17.24.21-25.86.28-4.09.03-8.19.05-12.28.04-4.49-.02-8.94.2-13.42.45-4.24.23-8.44.66-12.08,3.04-3.18,2.07-5.69,5.08-7.55,8.37-3.99,7.09-5.2,15.34-8.6,22.7-1.12,2.41-2.81,5.91-5.78,6.23-.9.1-1.79.89-1.45,1.9,4.51,13.09,13.11,25.05,23.61,34.02,5.15,4.39,10.88,8.14,17.22,10.57,7.67,2.94,16.08,3.86,24.21,4.44,8.8.63,17.62.96,26.43,1.41,8.81.45,17.91.89,26.87,1.29,17.99.81,36,1.49,54,1.87,18,.38,36.01.48,54.01.11,17.91-.36,35.78-1.41,53.68-2.19s35.92-1.16,53.82.37,35.14,5.09,52.82,3.41c14.55-1.39,28.25-7.21,40.83-14.39,13.21-7.54,25.42-16.66,37.7-25.59,2.87-2.09,5.74-4.16,8.64-6.21.71-.5.9-1.26.54-2.05-1.02-2.22-2.07-4.43-3.37-6.5-1.02-1.63-3.62-.13-2.59,1.51,1.3,2.08,2.35,4.28,3.37,6.5l.54-2.05c-12.11,8.53-23.83,17.61-36.28,25.65-12.26,7.92-25.39,15.08-39.69,18.48-16.28,3.87-33.2,1.53-49.58-.4-8.75-1.03-17.5-1.85-26.31-2.18s-17.7-.29-26.54-.06c-17.73.47-35.43,1.7-53.15,2.31s-35.5.73-53.25.53-35.51-.74-53.26-1.45-35.5-1.59-53.24-2.5c-15.6-.8-32.54-.48-46.42-8.65-11.92-7.01-21.62-18.18-27.96-30.38-1.46-2.8-2.72-5.68-3.75-8.67l-1.45,1.9c3.39-.36,5.61-2.67,7.26-5.53s2.83-6.09,3.9-9.22c2.65-7.73,4.36-16.69,11.08-22.09,3.44-2.77,7.51-3.27,11.77-3.5,4.48-.24,8.93-.47,13.42-.45,8.29.03,16.58-.07,24.87-.17s16.73-.21,25.09-.2c7.88,0,16.89-.87,23.61,4.03,5.88,4.29,8.96,11.57,10.56,18.45.86,3.7,2.04,7.67,5.34,9.99,2.57,1.82,6.21,1.37,9.2,1.44,6.84.16,13.6-.03,20.43-.31,9.96-.41,19.92-.67,29.88-.81,9.95-.13,19.94-.26,29.89.02,8.54.24,17.08.75,25.62.92,8.96.18,17.93.22,26.89.15,4.3-.04,8.6-.1,12.9-.2s8.29.03,12.46.2c17.87.7,35.76,1.03,53.64,1.03,8.86,0,17.72-.08,26.58-.28,4.1-.09,8.25-.41,12.34-.17s7.88.4,11.83.52c8.47.25,16.94.3,25.41.17,3.92-.06,7.83-.16,11.74-.31s8.17-.5,12.12.44,6.93,3.42,9.14,6.85c1.04,1.62,3.64.11,2.59-1.51h.02Z"/>
  </g>
  <g>
    <path class="cls-1" d="M178.23,41.27h338.21c2.32,0,4.21,3.14,4.21,7.02v376.21c0,3.88-1.88,7.02-4.21,7.02H38.99c-2.32,0-4.21-3.14-4.21-7.02V48.29c0-3.88,1.88-7.02,4.21-7.02h3.18"/>
    <path class="cls-3" d="M516.44,432.52H38.99c-2.92,0-5.21-3.52-5.21-8.02V48.29c0-4.5,2.29-8.02,5.21-8.02h3.17v2h-3.17c-1.52,0-3.21,2.47-3.21,6.02v376.21c0,3.55,1.69,6.02,3.21,6.02h477.45c1.52,0,3.21-2.47,3.21-6.02V48.29c0-3.55-1.69-6.02-3.21-6.02H178.23v-2h338.21c2.92,0,5.21,3.52,5.21,8.02v376.21c0,4.5-2.29,8.02-5.21,8.02Z"/>
  </g>
  <rect class="cls-1" x="42.68" y="37.41" width="137.04" height="24" rx="12" ry="12"/>
  <g>
    <path class="cls-1" d="M178.45,41.27c-7.57-.26-12.17-9.72-16.08-23.28-3.91-13.57-19.04-11.48-19.04-11.48,0,0-56.48.79-67.17.52,0,0-13.3-1.96-18,11.35-4.7,13.3-5.67,22.7-16.43,22.89"/>
    <path class="cls-3" d="M41.74,42.27l-.04-2c8.31-.15,10.25-6.15,13.46-16.09.63-1.95,1.29-3.98,2.05-6.13,4.73-13.4,17.92-12.15,19.02-12.01,10.53.25,65.04-.5,67.03-.52,1.16-.14,16.1-1.54,20.07,12.2,4.5,15.6,9.03,22.35,15.15,22.56l-.07,2c-8.97-.31-13.63-12.31-17.01-24-3.63-12.59-17.36-10.85-17.95-10.77h-.12c-.56.02-56.62.79-67.21.53h-.12c-.51-.08-12.56-1.66-16.91,10.68-.75,2.13-1.4,4.14-2.03,6.08-3.25,10.04-5.59,17.3-15.33,17.47h.01Z"/>
  </g>
</svg>