<?xml version="1.0" encoding="UTF-8"?>
<svg id="back_folder" xmlns="http://www.w3.org/2000/svg" viewBox="0 0 542.01 502.64">
  <defs>
    <style>
      .cls-1 {
        fill: #f8efdc;
      }

      .cls-2 {
        fill: #e5ce9e;
      }
    </style>
  </defs>
  <g id="beige_folder_bottom">
    <path class="cls-1" d="M189.23,38.94h339.78c6.6,0,12,5.4,12,12v438.7c0,6.6-5.4,12-12,12H13.3c-6.6,0-12-5.4-12-12V50.94c0-6.6,5.4-12,12-12h6.2"/>
    <path class="cls-2" d="M529.01,502.64H13.3c-7.17,0-13-5.83-13-13V50.94c0-7.17,5.83-13,13-13h6.2v2h-6.2c-6.07,0-11,4.93-11,11v438.7c0,6.07,4.93,11,11,11h515.71c6.07,0,11-4.93,11-11V50.94c0-6.07-4.93-11-11-11H189.23v-2h339.78c7.17,0,13,5.83,13,13v438.7c0,7.17-5.83,13-13,13Z"/>
  </g>
  <g id="beige_folder_top">
    <path class="cls-1" d="M189.27,38.94c-9.4-.28-15.12-10.57-19.98-25.32-4.86-14.75-23.66-12.49-23.66-12.49,0,0-70.17.85-83.46.57,0,0-16.53-2.13-22.37,12.34-5.83,14.47-7.05,24.69-20.42,24.9"/>
    <path class="cls-2" d="M19.4,39.94l-.03-2c10.53-.17,12.95-6.73,16.97-17.6.79-2.13,1.6-4.33,2.54-6.67C44.74-.89,61.09.57,62.23.7c13.1.28,81.19-.54,83.34-.57,1.21-.12,19.75-1.75,24.67,13.17,5.61,17.04,11.31,24.4,19.06,24.64l-.06,2c-10.97-.33-16.72-13.33-20.9-26.01-4.55-13.82-22.41-11.83-22.59-11.81h-.11c-.7.02-70.34.86-83.5.58h-.1c-.65-.09-15.84-1.85-21.31,11.72-.94,2.32-1.74,4.51-2.52,6.62-4.01,10.87-6.91,18.72-18.81,18.91Z"/>
  </g>
</svg>