<?xml version="1.0" encoding="UTF-8"?>
<svg id="beige_folder_front" xmlns="http://www.w3.org/2000/svg" viewBox="0 0 542.01 502.64">
  <defs>
    <style>
      .cls-1 {
        fill: #f8efdc;
      }

      .cls-2 {
        fill: #e5ce9e;
      }

      .cls-3 {
        fill: #bfdae5;
      }

      .cls-4 {
        fill: #c9c9c9;
      }

      .cls-5 {
        fill: #fff;
      }

      .cls-6 {
        fill: #ea8784;
      }

      .cls-7 {
        fill: #d65751;
      }
    </style>
  </defs>
  <g id="folder_top">
    <path class="cls-1" d="M529.5,220.95H198.88c-2.21,0-4.28,1.09-5.55,2.92-10.61,15.21-9.25,14.16-17.07,24.82-9.33,12.72-35.18,11.64-35.18,11.64-11.87-.29-91.42-.36-91.42-.36,0,0-24.95,0-41.46-.13-3.96-.03-7.19,3.22-7.19,7.24v222.65c0,6.42,5.18,11.68,11.5,11.68h517c6.33,0,11.5-5.26,11.5-11.68V232.63c0-6.42-5.18-11.68-11.5-11.68Z"/>
    <path class="cls-2" d="M529.5,502.41H12.5C5.61,502.41,0,496.73,0,489.73v-222.65c0-2.24.87-4.33,2.45-5.89,1.55-1.53,3.61-2.34,5.75-2.35,16.31.14,41.21.13,41.45.13.8,0,79.7.07,91.45.36.27,0,25.45.91,34.35-11.23,4.2-5.73,5.76-8.1,7.93-11.38,1.88-2.85,4.23-6.41,9.13-13.43,1.46-2.09,3.84-3.34,6.37-3.34h330.62c6.89,0,12.5,5.69,12.5,12.68v257.11c0,6.99-5.61,12.68-12.5,12.68ZM8.13,260.84c-1.61,0-3.12.63-4.28,1.77-1.2,1.19-1.85,2.77-1.85,4.47v222.65c0,5.89,4.71,10.68,10.5,10.68h517c5.79,0,10.5-4.79,10.5-10.68V232.63c0-5.89-4.71-10.68-10.5-10.68H198.88c-1.88,0-3.65.93-4.73,2.49-4.88,7-7.22,10.54-9.1,13.38-2.18,3.3-3.76,5.69-7.99,11.46-9.53,13-34.95,12.09-36.03,12.05-11.71-.29-90.58-.36-91.38-.36-.24,0-25.15,0-41.46-.13h-.05Z"/>
  </g>
  <g id="papir">
    <g>
      <path class="cls-5" d="M509.19,300.5c1.61-14.55,3.44-29.02,5.57-43.24l-18.91-1.31-.46,5.02c3.85.38,4.57,8.28-3.11,7.65-8.15-.67-5.35-8.2-1.23-8.11l.45-4.86s-19.17-1.33-21.14-1.46c-.08.87-.45,4.85-.45,4.85,3.85.38,4.57,8.28-3.11,7.65-8.15-.67-5.35-8.2-1.23-8.11l.45-4.86s-19.36-1.34-21.17-1.47c0,0-.46,5.02-.46,5.02,3.85.38,4.57,8.28-3.11,7.65-8.15-.67-5.35-8.2-1.23-8.11l.45-4.86s-18.84-1.31-21.09-1.46c0,0-.46,5.02-.46,5.02,3.85.38,4.57,8.28-3.11,7.65-8.15-.67-5.35-8.2-1.23-8.11l.45-4.86s-19.36-1.34-21.17-1.47l-.45,4.85c3.85.38,4.57,8.28-3.11,7.65-8.15-.67-5.35-8.2-1.23-8.11l.45-4.86s-18.84-1.31-21.09-1.46c0,0-.46,5.02-.46,5.02,3.85.38,4.57,8.28-3.11,7.65-8.15-.67-5.35-8.2-1.23-8.11l.45-4.86-21.11-1.46c-.08.82-.45,4.87-.45,4.87,3.85.38,4.57,8.28-3.11,7.65-8.15-.67-5.35-8.2-1.23-8.11l.45-4.86s-19.22-1.33-21.15-1.46c-.08.85-.45,4.86-.45,4.86,3.85.38,4.57,8.28-3.11,7.65-8.15-.67-5.35-8.2-1.23-8.11l.45-4.86s-19.79-1.37-21.22-1.47l-.06.65-.46,5.02c3.85.38,4.57,8.28-3.11,7.65-8.15-.67-5.35-8.2-1.23-8.11l.45-4.86-21.3-1.48c-.54,4.85-1.65,8.06-2.18,12.9-2.2,19.89-4.4,39.81-4.66,59.79-.12,8.67.13,17.34.13,26.01,0,27.36-2.23,56.31-7.15,83.34,72.66,2.87,145.22,7.77,217.52,14.7,6.89.66,20.87,1.99,27.8,2.21.13-2.31,1.35-13.88,1.49-16.19.98-16.79,2.11-33.58,3.41-50.36,1.83-23.64,3.89-47.91,6.55-71.97Z"/>
      <path class="cls-7" d="M509.56,300.5c1.25-11.25,2.62-22.49,4.19-33.71.44-3.15.89-6.29,1.36-9.43.04-.25-.1-.46-.36-.47-5.53-.38-11.06-.77-16.58-1.15-.78-.05-1.55-.11-2.33-.16-.22-.01-.36.18-.38.38-.15,1.67-.31,3.34-.46,5.02-.02.22.19.35.38.38,1.37.16,2.25,1.44,2.41,2.73.19,1.52-.57,2.94-1.93,3.63-2.82,1.45-9.64.28-8.29-4.11.46-1.5,1.85-2.73,3.47-2.72.22,0,.36-.17.38-.38.15-1.62.3-3.24.45-4.86.02-.21-.19-.36-.38-.38-5.9-.41-11.81-.82-17.71-1.23-1.14-.08-2.29-.16-3.43-.24-.22-.01-.36.18-.38.38-.15,1.62-.3,3.23-.45,4.85-.02.22.19.35.38.38,1.37.16,2.25,1.44,2.41,2.73.19,1.52-.57,2.94-1.93,3.63-2.82,1.45-9.64.28-8.29-4.11.46-1.5,1.85-2.73,3.47-2.72.22,0,.36-.17.38-.38.15-1.62.3-3.24.45-4.86.02-.21-.19-.36-.38-.38-5.95-.41-11.9-.82-17.84-1.24l-3.32-.23c-.22-.01-.36.18-.38.38-.15,1.67-.31,3.34-.46,5.02-.02.22.19.35.38.38,1.37.16,2.25,1.44,2.41,2.73.19,1.52-.57,2.94-1.93,3.63-2.82,1.45-9.64.28-8.29-4.11.46-1.5,1.85-2.73,3.47-2.72.22,0,.36-.17.38-.38.15-1.62.3-3.24.45-4.86.02-.21-.19-.36-.38-.38-5.86-.41-11.71-.81-17.57-1.22l-3.52-.24c-.22-.01-.36.18-.38.38-.15,1.67-.31,3.34-.46,5.02-.02.22.19.35.38.38,1.37.16,2.25,1.44,2.41,2.73.19,1.52-.57,2.94-1.93,3.63-2.82,1.45-9.64.28-8.29-4.11.46-1.5,1.85-2.73,3.47-2.72.22,0,.36-.17.38-.38.15-1.62.3-3.24.45-4.86.02-.21-.19-.36-.38-.38-5.95-.41-11.9-.82-17.84-1.24-1.11-.08-2.22-.15-3.32-.23-.22-.01-.36.18-.38.38-.15,1.62-.3,3.23-.45,4.85-.02.22.19.35.38.38,1.37.16,2.25,1.44,2.41,2.73.19,1.52-.57,2.94-1.93,3.63-2.82,1.45-9.64.28-8.29-4.11.46-1.5,1.85-2.73,3.47-2.72.22,0,.36-.17.38-.38.15-1.62.3-3.24.45-4.86.02-.21-.19-.36-.38-.38-5.86-.41-11.71-.81-17.57-1.22l-3.52-.24c-.22-.01-.36.18-.38.38-.15,1.67-.31,3.34-.46,5.02-.02.22.19.35.38.38,1.37.16,2.25,1.44,2.41,2.73.19,1.52-.57,2.94-1.93,3.63-2.82,1.45-9.64.28-8.29-4.11.46-1.5,1.85-2.73,3.47-2.72.22,0,.36-.17.38-.38.15-1.62.3-3.24.45-4.86.02-.21-.19-.36-.38-.38-5.89-.41-11.78-.82-17.67-1.22-1.15-.08-2.29-.16-3.44-.24-.22-.01-.36.18-.38.38-.15,1.62-.3,3.25-.45,4.87-.02.22.19.35.38.38,1.37.16,2.25,1.44,2.41,2.73.19,1.52-.57,2.94-1.93,3.63-2.82,1.45-9.64.28-8.29-4.11.46-1.5,1.85-2.73,3.47-2.72.22,0,.36-.17.38-.38.15-1.62.3-3.24.45-4.86.02-.21-.19-.36-.38-.38-5.92-.41-11.84-.82-17.76-1.23l-3.39-.23c-.22-.01-.36.18-.38.38-.15,1.62-.3,3.24-.45,4.86-.02.22.19.35.38.38,1.37.16,2.25,1.44,2.41,2.73.19,1.52-.57,2.94-1.93,3.63-2.82,1.45-9.64.28-8.29-4.11.46-1.5,1.85-2.73,3.47-2.72.22,0,.36-.17.38-.38.15-1.62.3-3.24.45-4.86.02-.21-.19-.36-.38-.38-5.99-.42-11.98-.83-17.98-1.25-1.08-.07-2.16-.15-3.24-.22-.22-.01-.36.18-.38.38-.17,1.89-.35,3.78-.52,5.66-.02.22.19.35.38.38,1.37.16,2.25,1.44,2.41,2.73.19,1.52-.57,2.94-1.93,3.63-2.82,1.45-9.64.28-8.29-4.11.46-1.5,1.85-2.73,3.47-2.72.22,0,.36-.17.38-.38.15-1.62.3-3.24.45-4.86.02-.21-.19-.36-.38-.38-2.39-.17-4.78-.33-7.17-.5l-11.5-.8c-.88-.06-1.76-.12-2.64-.18-.22-.02-.35.19-.38.38-.3,2.69-.88,5.32-1.41,7.97s-.85,5.57-1.16,8.38c-.67,6.08-1.33,12.17-1.92,18.26-1.19,12.21-2.12,24.45-2.34,36.72s.24,24.09.04,36.14-.81,23.56-1.85,35.29-2.5,23.42-4.48,35.03c-.24,1.38-.48,2.77-.73,4.15-.04.24.1.46.36.47,8.46.33,16.92.7,25.38,1.08s16.91.81,25.37,1.25c8.45.44,16.91.92,25.36,1.42,8.45.5,16.9,1.03,25.34,1.58,8.44.55,16.89,1.14,25.33,1.75,8.44.61,16.88,1.25,25.31,1.91,8.43.66,16.87,1.36,25.3,2.08s16.85,1.47,25.28,2.24c7.03.65,14.06,1.33,21.1,1.99,6.02.56,12.04,1.11,18.08,1.46,1.16.07,2.33.13,3.49.16.21,0,.36-.18.38-.38.29-5.03.98-10.04,1.4-15.07.35-4.17.51-8.36.77-12.54.32-5.17.66-10.34,1.01-15.51.7-10.2,1.46-20.4,2.26-30.59.8-10.14,1.64-20.27,2.56-30.39s1.92-20.41,3.02-30.6c.14-1.27.28-2.55.42-3.82.05-.48-.7-.48-.75,0-1.13,10.19-2.14,20.39-3.09,30.6-.94,10.18-1.8,20.37-2.62,30.56s-1.59,20.35-2.3,30.53c-.71,10.22-1.32,20.44-1.96,30.67-.31,5.04-.99,10.05-1.41,15.08-.03.36-.06.72-.08,1.08l.38-.38c-5.72-.18-11.44-.71-17.14-1.22-6.45-.57-12.88-1.21-19.33-1.81-8.42-.79-16.85-1.55-25.27-2.28s-16.86-1.44-25.29-2.12-16.87-1.33-25.31-1.95-16.88-1.22-25.33-1.79-16.89-1.11-25.34-1.62-16.9-1-25.35-1.46c-8.45-.46-16.91-.89-25.36-1.29s-16.92-.78-25.37-1.13c-2.07-.09-4.15-.17-6.22-.25l.36.47c2.1-11.54,3.68-23.18,4.82-34.85s1.86-23.46,2.17-35.23c.32-12.05-.03-24.1.02-36.15s.83-24.43,1.94-36.61c.56-6.14,1.2-12.26,1.87-18.39.33-3.05.61-6.11,1.02-9.14.36-2.65.98-5.25,1.46-7.88.24-1.29.43-2.59.58-3.9l-.38.38c2.39.17,4.78.33,7.17.5l11.5.8c.88.06,1.76.12,2.64.18l-.38-.38c-.15,1.62-.3,3.24-.45,4.86l.38-.38c-3.7-.02-5.96,5.04-2.93,7.47s10.61,2.01,10.46-3.18c-.06-1.86-1.26-3.61-3.19-3.83l.38.38c.17-1.89.35-3.78.52-5.66l-.38.38c6.24.43,12.48.86,18.72,1.3.83.06,1.67.12,2.5.17l-.38-.38c-.15,1.62-.3,3.24-.45,4.86l.38-.38c-3.7-.02-5.96,5.04-2.93,7.47s10.61,2.01,10.46-3.18c-.06-1.86-1.26-3.61-3.19-3.83l.38.38c.15-1.62.3-3.24.45-4.86l-.38.38c6.25.43,12.5.87,18.75,1.3.8.06,1.6.11,2.4.17l-.38-.38c-.15,1.62-.3,3.24-.45,4.86l.38-.38c-3.7-.02-5.96,5.04-2.93,7.47s10.61,2.01,10.46-3.18c-.06-1.86-1.26-3.61-3.19-3.83l.38.38c.15-1.62.3-3.25.45-4.87l-.38.38c6.26.43,12.51.87,18.77,1.3.78.05,1.56.11,2.34.16l-.38-.38c-.15,1.62-.3,3.24-.45,4.86l.38-.38c-3.7-.02-5.96,5.04-2.93,7.47s10.61,2.01,10.46-3.18c-.06-1.86-1.26-3.61-3.19-3.83l.38.38c.15-1.67.31-3.34.46-5.02l-.38.38c6.24.43,12.48.86,18.72,1.3.79.05,1.58.11,2.36.16l-.38-.38c-.15,1.62-.3,3.24-.45,4.86l.38-.38c-3.7-.02-5.96,5.04-2.93,7.47s10.61,2.01,10.46-3.18c-.06-1.86-1.26-3.61-3.19-3.83l.38.38c.15-1.62.3-3.23.45-4.85l-.38.38c6.26.43,12.52.87,18.77,1.3.8.06,1.6.11,2.39.17l-.38-.38c-.15,1.62-.3,3.24-.45,4.86l.38-.38c-3.7-.02-5.96,5.04-2.93,7.47s10.61,2.01,10.46-3.18c-.06-1.86-1.26-3.61-3.19-3.83l.38.38c.15-1.67.31-3.34.46-5.02l-.38.38c6.24.43,12.48.86,18.72,1.3.79.05,1.58.11,2.36.16l-.38-.38c-.15,1.62-.3,3.24-.45,4.86l.38-.38c-3.7-.02-5.96,5.04-2.93,7.47s10.61,2.01,10.46-3.18c-.06-1.86-1.26-3.61-3.19-3.83l.38.38c.15-1.67.31-3.34.46-5.02l-.38.38c6.26.43,12.52.87,18.77,1.3.8.06,1.6.11,2.39.17l-.38-.38c-.15,1.62-.3,3.24-.45,4.86l.38-.38c-3.7-.02-5.96,5.04-2.93,7.47s10.61,2.01,10.46-3.18c-.06-1.86-1.26-3.61-3.19-3.83l.38.38c.15-1.62.3-3.23.45-4.85l-.38.38c6.24.43,12.49.86,18.73,1.3.8.06,1.61.11,2.41.17l-.38-.38c-.15,1.62-.3,3.24-.45,4.86l.38-.38c-3.7-.02-5.96,5.04-2.93,7.47s10.61,2.01,10.46-3.18c-.06-1.86-1.26-3.61-3.19-3.83l.38.38c.15-1.67.31-3.34.46-5.02l-.38.38c5.53.38,11.06.77,16.58,1.15.78.05,1.55.11,2.33.16l-.36-.47c-1.68,11.22-3.16,22.47-4.49,33.73-.38,3.2-.74,6.4-1.1,9.6-.05.48.7.48.75,0Z"/>
    </g>
    <rect class="cls-3" x="400.85" y="352.73" width="169.74" height="1" transform="translate(89.4 804.48) rotate(-84.73)"/>
    <rect class="cls-3" x="372.77" y="349.92" width="169.74" height="1" transform="translate(66.7 773.97) rotate(-84.73)"/>
    <rect class="cls-3" x="338.63" y="341.07" width="180.9" height="1" transform="translate(49.58 737.5) rotate(-84.73)"/>
    <rect class="cls-3" x="310.17" y="339.51" width="180.9" height="1" transform="translate(25.29 707.74) rotate(-84.73)"/>
    <rect class="cls-3" x="281.26" y="337.5" width="180.9" height="1" transform="translate(1.02 677.13) rotate(-84.73)"/>
    <rect class="cls-3" x="252.48" y="335.64" width="180.62" height="1" transform="translate(-23.39 646.63) rotate(-84.73)"/>
    <rect class="cls-3" x="223.08" y="333.1" width="181.7" height="1" transform="translate(-47.08 615.59) rotate(-84.73)"/>
    <rect class="cls-3" x="199.52" y="337.95" width="169.74" height="1" transform="translate(-78.73 590.58) rotate(-84.73)"/>
    <rect class="cls-6" x="386.79" y="146.84" width="1" height="249.45" transform="translate(89.61 639.16) rotate(-86.04)"/>
    <path class="cls-7" d="M509.56,300.5c1.25-11.25,2.62-22.49,4.19-33.71.44-3.15.89-6.29,1.36-9.43.04-.25-.1-.46-.36-.47-5.53-.38-11.06-.77-16.58-1.15-.78-.05-1.55-.11-2.33-.16-.22-.01-.36.18-.38.38-.15,1.67-.31,3.34-.46,5.02-.02.22.19.35.38.38,1.37.16,2.25,1.44,2.41,2.73.19,1.52-.57,2.94-1.93,3.63-2.82,1.45-9.64.28-8.29-4.11.46-1.5,1.85-2.73,3.47-2.72.22,0,.36-.17.38-.38.15-1.62.3-3.24.45-4.86.02-.21-.19-.36-.38-.38-5.9-.41-11.81-.82-17.71-1.23-1.14-.08-2.29-.16-3.43-.24-.22-.01-.36.18-.38.38-.15,1.62-.3,3.23-.45,4.85-.02.22.19.35.38.38,1.37.16,2.25,1.44,2.41,2.73.19,1.52-.57,2.94-1.93,3.63-2.82,1.45-9.64.28-8.29-4.11.46-1.5,1.85-2.73,3.47-2.72.22,0,.36-.17.38-.38.15-1.62.3-3.24.45-4.86.02-.21-.19-.36-.38-.38-5.95-.41-11.9-.82-17.84-1.24l-3.32-.23c-.22-.01-.36.18-.38.38-.15,1.67-.31,3.34-.46,5.02-.02.22.19.35.38.38,1.37.16,2.25,1.44,2.41,2.73.19,1.52-.57,2.94-1.93,3.63-2.82,1.45-9.64.28-8.29-4.11.46-1.5,1.85-2.73,3.47-2.72.22,0,.36-.17.38-.38.15-1.62.3-3.24.45-4.86.02-.21-.19-.36-.38-.38-5.86-.41-11.71-.81-17.57-1.22l-3.52-.24c-.22-.01-.36.18-.38.38-.15,1.67-.31,3.34-.46,5.02-.02.22.19.35.38.38,1.37.16,2.25,1.44,2.41,2.73.19,1.52-.57,2.94-1.93,3.63-2.82,1.45-9.64.28-8.29-4.11.46-1.5,1.85-2.73,3.47-2.72.22,0,.36-.17.38-.38.15-1.62.3-3.24.45-4.86.02-.21-.19-.36-.38-.38-5.95-.41-11.9-.82-17.84-1.24-1.11-.08-2.22-.15-3.32-.23-.22-.01-.36.18-.38.38-.15,1.62-.3,3.23-.45,4.85-.02.22.19.35.38.38,1.37.16,2.25,1.44,2.41,2.73.19,1.52-.57,2.94-1.93,3.63-2.82,1.45-9.64.28-8.29-4.11.46-1.5,1.85-2.73,3.47-2.72.22,0,.36-.17.38-.38.15-1.62.3-3.24.45-4.86.02-.21-.19-.36-.38-.38-5.86-.41-11.71-.81-17.57-1.22l-3.52-.24c-.22-.01-.36.18-.38.38-.15,1.67-.31,3.34-.46,5.02-.02.22.19.35.38.38,1.37.16,2.25,1.44,2.41,2.73.19,1.52-.57,2.94-1.93,3.63-2.82,1.45-9.64.28-8.29-4.11.46-1.5,1.85-2.73,3.47-2.72.22,0,.36-.17.38-.38.15-1.62.3-3.24.45-4.86.02-.21-.19-.36-.38-.38-5.89-.41-11.78-.82-17.67-1.22-1.15-.08-2.29-.16-3.44-.24-.22-.01-.36.18-.38.38-.15,1.62-.3,3.25-.45,4.87-.02.22.19.35.38.38,1.37.16,2.25,1.44,2.41,2.73.19,1.52-.57,2.94-1.93,3.63-2.82,1.45-9.64.28-8.29-4.11.46-1.5,1.85-2.73,3.47-2.72.22,0,.36-.17.38-.38.15-1.62.3-3.24.45-4.86.02-.21-.19-.36-.38-.38-5.92-.41-11.84-.82-17.76-1.23l-3.39-.23c-.22-.01-.36.18-.38.38-.15,1.62-.3,3.24-.45,4.86-.02.22.19.35.38.38,1.37.16,2.25,1.44,2.41,2.73.19,1.52-.57,2.94-1.93,3.63-2.82,1.45-9.64.28-8.29-4.11.46-1.5,1.85-2.73,3.47-2.72.22,0,.36-.17.38-.38.15-1.62.3-3.24.45-4.86.02-.21-.19-.36-.38-.38-5.99-.42-11.98-.83-17.98-1.25-1.08-.07-2.16-.15-3.24-.22-.22-.01-.36.18-.38.38-.17,1.89-.35,3.78-.52,5.66-.02.22.19.35.38.38,1.37.16,2.25,1.44,2.41,2.73.19,1.52-.57,2.94-1.93,3.63-2.82,1.45-9.64.28-8.29-4.11.46-1.5,1.85-2.73,3.47-2.72.22,0,.36-.17.38-.38.15-1.62.3-3.24.45-4.86.02-.21-.19-.36-.38-.38-2.39-.17-4.78-.33-7.17-.5l-11.5-.8c-.88-.06-1.76-.12-2.64-.18-.22-.02-.35.19-.38.38-.3,2.69-.88,5.32-1.41,7.97s-.85,5.57-1.16,8.38c-.67,6.08-1.33,12.17-1.92,18.26-1.19,12.21-2.12,24.45-2.34,36.72s.24,24.09.04,36.14-.81,23.56-1.85,35.29c-1.04,11.73-2.5,23.42-4.48,35.03-.24,1.38-.48,2.77-.73,4.15-.04.24.1.46.36.47,8.46.33,16.92.7,25.38,1.08s16.91.81,25.37,1.25c8.45.44,16.91.92,25.36,1.42,8.45.5,16.9,1.03,25.34,1.58,8.44.55,16.89,1.14,25.33,1.75,8.44.61,16.88,1.25,25.31,1.91s16.87,1.36,25.3,2.08,16.85,1.47,25.28,2.24c7.03.65,14.06,1.33,21.1,1.99,6.02.56,12.04,1.11,18.08,1.46,1.16.07,2.33.13,3.49.16.21,0,.36-.18.38-.38.29-5.03.98-10.04,1.4-15.07.35-4.17.51-8.36.77-12.54.32-5.17.66-10.34,1.01-15.51.7-10.2,1.46-20.4,2.26-30.59.8-10.14,1.64-20.27,2.56-30.39s1.92-20.41,3.02-30.6c.14-1.27.28-2.55.42-3.82.05-.48-.7-.48-.75,0-1.13,10.19-2.14,20.39-3.09,30.6-.94,10.18-1.8,20.37-2.62,30.56s-1.59,20.35-2.3,30.53c-.71,10.22-1.32,20.44-1.96,30.67-.31,5.04-.99,10.05-1.41,15.08-.03.36-.06.72-.08,1.08l.38-.38c-5.72-.18-11.44-.71-17.14-1.22-6.45-.57-12.88-1.21-19.33-1.81-8.42-.79-16.85-1.55-25.27-2.28-8.43-.73-16.86-1.44-25.29-2.12s-16.87-1.33-25.31-1.95c-8.44-.62-16.88-1.22-25.33-1.79-8.44-.57-16.89-1.11-25.34-1.62s-16.9-1-25.35-1.46c-8.45-.46-16.91-.89-25.36-1.29s-16.92-.78-25.37-1.13c-2.07-.09-4.15-.17-6.22-.25l.36.47c2.1-11.54,3.68-23.18,4.82-34.85s1.86-23.46,2.17-35.23-.03-24.1.02-36.15.83-24.43,1.94-36.61c.56-6.14,1.2-12.26,1.87-18.39.33-3.05.61-6.11,1.02-9.14.36-2.65.98-5.25,1.46-7.88.24-1.29.43-2.59.58-3.9l-.38.38c2.39.17,4.78.33,7.17.5l11.5.8c.88.06,1.76.12,2.64.18l-.38-.38c-.15,1.62-.3,3.24-.45,4.86l.38-.38c-3.7-.02-5.96,5.04-2.93,7.47s10.61,2.01,10.46-3.18c-.06-1.86-1.26-3.61-3.19-3.83l.38.38c.17-1.89.35-3.78.52-5.66l-.38.38c6.24.43,12.48.86,18.72,1.3.83.06,1.67.12,2.5.17l-.38-.38c-.15,1.62-.3,3.24-.45,4.86l.38-.38c-3.7-.02-5.96,5.04-2.93,7.47s10.61,2.01,10.46-3.18c-.06-1.86-1.26-3.61-3.19-3.83l.38.38c.15-1.62.3-3.24.45-4.86l-.38.38c6.25.43,12.5.87,18.75,1.3.8.06,1.6.11,2.4.17l-.38-.38c-.15,1.62-.3,3.24-.45,4.86l.38-.38c-3.7-.02-5.96,5.04-2.93,7.47s10.61,2.01,10.46-3.18c-.06-1.86-1.26-3.61-3.19-3.83l.38.38c.15-1.62.3-3.25.45-4.87l-.38.38c6.26.43,12.51.87,18.77,1.3.78.05,1.56.11,2.34.16l-.38-.38c-.15,1.62-.3,3.24-.45,4.86l.38-.38c-3.7-.02-5.96,5.04-2.93,7.47s10.61,2.01,10.46-3.18c-.06-1.86-1.26-3.61-3.19-3.83l.38.38c.15-1.67.31-3.34.46-5.02l-.38.38c6.24.43,12.48.86,18.72,1.3.79.05,1.58.11,2.36.16l-.38-.38c-.15,1.62-.3,3.24-.45,4.86l.38-.38c-3.7-.02-5.96,5.04-2.93,7.47s10.61,2.01,10.46-3.18c-.06-1.86-1.26-3.61-3.19-3.83l.38.38c.15-1.62.3-3.23.45-4.85l-.38.38c6.26.43,12.52.87,18.77,1.3.8.06,1.6.11,2.39.17l-.38-.38c-.15,1.62-.3,3.24-.45,4.86l.38-.38c-3.7-.02-5.96,5.04-2.93,7.47s10.61,2.01,10.46-3.18c-.06-1.86-1.26-3.61-3.19-3.83l.38.38c.15-1.67.31-3.34.46-5.02l-.38.38c6.24.43,12.48.86,18.72,1.3.79.05,1.58.11,2.36.16l-.38-.38c-.15,1.62-.3,3.24-.45,4.86l.38-.38c-3.7-.02-5.96,5.04-2.93,7.47s10.61,2.01,10.46-3.18c-.06-1.86-1.26-3.61-3.19-3.83l.38.38c.15-1.67.31-3.34.46-5.02l-.38.38c6.26.43,12.52.87,18.77,1.3.8.06,1.6.11,2.39.17l-.38-.38c-.15,1.62-.3,3.24-.45,4.86l.38-.38c-3.7-.02-5.96,5.04-2.93,7.47s10.61,2.01,10.46-3.18c-.06-1.86-1.26-3.61-3.19-3.83l.38.38c.15-1.62.3-3.23.45-4.85l-.38.38c6.24.43,12.49.86,18.73,1.3.8.06,1.61.11,2.41.17l-.38-.38c-.15,1.62-.3,3.24-.45,4.86l.38-.38c-3.7-.02-5.96,5.04-2.93,7.47s10.61,2.01,10.46-3.18c-.06-1.86-1.26-3.61-3.19-3.83l.38.38c.15-1.67.31-3.34.46-5.02l-.38.38c5.53.38,11.06.77,16.58,1.15.78.05,1.55.11,2.33.16l-.36-.47c-1.68,11.22-3.16,22.47-4.49,33.73-.38,3.2-.74,6.4-1.1,9.6-.05.48.7.48.75,0Z"/>
  </g>
  <g id="klips">
    <path class="cls-4" d="M417.8,238.71c-.03,5.78-.06,11.55-.08,17.34,0,2.48-.06,4.96-.04,7.44.02,2.32.12,4.76.9,6.97,1.34,3.86,5.09,6.24,9.17,5.7,4.08-.54,6.29-3.88,6.97-7.69.38-2.13.4-4.27.41-6.42.02-2.91.05-5.82.07-8.74.05-5.82.08-11.66.13-17.48.04-5.68.17-11.38.11-17.06-.05-4.69-.81-9.75-4.7-12.86-3.49-2.78-9.42-2.83-12.57.51-3.15,3.34-3.56,8.32-3.58,12.66,0,1.82,2.83,1.82,2.84,0,0-3.28.2-6.93,2.04-9.76.94-1.44,2.22-2.33,3.94-2.48,1.8-.16,3.5-.13,5.05.9,3.74,2.47,4.12,7.38,4.14,11.45.02,4.99-.07,9.98-.1,14.97-.08,9.99-.03,20-.23,29.99-.06,2.82-.25,6.9-2.96,8.55-2.86,1.73-6.79.19-7.94-2.85-.78-2.07-.84-4.37-.85-6.56,0-2.5.03-4.99.05-7.49.03-5.7.06-11.4.09-17.1,0-1.83-2.83-1.83-2.84,0h0Z"/>
  </g>
</svg>