<?xml version="1.0" encoding="UTF-8"?>
<svg id="darkpink_folder" xmlns="http://www.w3.org/2000/svg" viewBox="0 0 542.01 502.64">
  <defs>
    <style>
      .cls-1 {
        fill: #fab6c3;
      }

      .cls-2 {
        fill: #fa84a1;
      }
    </style>
  </defs>
  <g id="darkpink_bottom_folder">
    <path class="cls-1" d="M162.82,111.16h338.21c2.32,0,4.21,3.14,4.21,7.02v376.21c0,3.88-1.88,7.02-4.21,7.02H23.59c-2.32,0-4.21-3.14-4.21-7.02V118.18c0-3.88,1.88-7.02,4.21-7.02h3.18"/>
    <path class="cls-2" d="M501.04,502.41H23.59c-2.92,0-5.21-3.52-5.21-8.02V118.18c0-4.5,2.29-8.02,5.21-8.02h3.17v2h-3.17c-1.52,0-3.21,2.47-3.21,6.02v376.21c0,3.55,1.69,6.02,3.21,6.02h477.45c1.52,0,3.21-2.47,3.21-6.02V118.18c0-3.55-1.69-6.02-3.21-6.02H162.82v-2h338.21c2.92,0,5.21,3.52,5.21,8.02v376.21c0,4.5-2.29,8.02-5.21,8.02Z"/>
  </g>
  <g id="darkpink_top_folder">
    <path class="cls-1" d="M163.04,111.16c-7.57-.26-12.17-9.72-16.08-23.28-3.91-13.57-19.04-11.48-19.04-11.48,0,0-56.48.79-67.17.52,0,0-13.3-1.96-18,11.35-4.7,13.3-5.67,22.7-16.43,22.89"/>
    <path class="cls-2" d="M26.33,112.16l-.04-2c8.31-.15,10.25-6.15,13.46-16.09.63-1.95,1.29-3.98,2.05-6.13,4.73-13.4,17.92-12.15,19.02-12.01,10.53.25,65.04-.5,67.04-.52,1.16-.13,16.11-1.54,20.07,12.2,4.5,15.6,9.03,22.35,15.15,22.56l-.07,2c-8.97-.31-13.63-12.31-17.01-24-3.62-12.56-17.36-10.85-17.95-10.77h-.12c-.56.02-56.62.79-67.21.53h-.12c-.51-.08-12.56-1.66-16.91,10.68-.75,2.13-1.4,4.14-2.03,6.08-3.25,10.04-5.59,17.3-15.33,17.48Z"/>
  </g>
</svg>