<?xml version="1.0" encoding="UTF-8"?>
<svg id="green_folder" xmlns="http://www.w3.org/2000/svg" viewBox="0 0 542.01 502.64">
  <defs>
    <style>
      .cls-1 {
        fill: #9cb776;
      }

      .cls-2 {
        fill: #c2d3ae;
      }
    </style>
  </defs>
  <g id="green_folder_bottom">
    <path class="cls-2" d="M505.08,61.38h5.47c2.32,0,4.21,3.54,4.21,7.92v424.2c0,4.37-1.88,7.92-4.21,7.92H33.1c-2.32,0-4.21-3.54-4.21-7.92V69.3c0-4.37,1.88-7.92,4.21-7.92h336.1"/>
    <path class="cls-1" d="M510.55,502.41H33.1c-2.92,0-5.21-3.92-5.21-8.92V69.3c0-5,2.29-8.92,5.21-8.92h336.1v2H33.1c-1.52,0-3.21,2.84-3.21,6.92v424.2c0,4.08,1.69,6.92,3.21,6.92h477.45c1.52,0,3.21-2.84,3.21-6.92V69.3c0-4.08-1.69-6.92-3.21-6.92h-5.47v-2h5.47c2.92,0,5.21,3.92,5.21,8.92v424.2c0,5-2.29,8.92-5.21,8.92Z"/>
  </g>
  <g id="green_folder_top">
    <path class="cls-2" d="M505.24,61.38c-7.57-.26-12.17-9.72-16.08-23.28-3.91-13.57-19.04-11.48-19.04-11.48,0,0-56.48.79-67.17.52,0,0-13.3-1.96-18,11.35-4.7,13.3-5.67,22.7-16.43,22.89"/>
    <path class="cls-1" d="M368.53,62.38l-.04-2c8.31-.15,10.25-6.15,13.46-16.09.63-1.95,1.29-3.98,2.05-6.13,4.73-13.4,17.92-12.14,19.02-12.01,10.54.25,65.04-.5,67.04-.52,1.16-.13,16.11-1.54,20.07,12.2,4.5,15.6,9.03,22.35,15.15,22.56l-.07,2c-8.97-.31-13.63-12.31-17.01-24-3.62-12.56-17.37-10.85-17.95-10.77h-.12c-.57.02-56.62.79-67.21.53h-.12c-.51-.08-12.56-1.66-16.91,10.68-.75,2.13-1.4,4.14-2.03,6.08-3.25,10.04-5.59,17.3-15.33,17.48Z"/>
  </g>
</svg>