<?xml version="1.0" encoding="UTF-8"?>
<svg id="gul_folder" xmlns="http://www.w3.org/2000/svg" viewBox="0 0 542.01 502.64">
  <defs>
    <style>
      .cls-1 {
        fill: #fff1c5;
      }

      .cls-2 {
        fill: #f4d47b;
      }
    </style>
  </defs>
  <g id="gul_folder_bottom">
    <path class="cls-1" d="M514.36,161.08h4.91c2.32,0,4.21,2.74,4.21,6.12v328.09c0,3.38-1.88,6.12-4.21,6.12H41.82c-2.32,0-4.21-2.74-4.21-6.12V167.2c0-3.38,1.88-6.12,4.21-6.12h336.28"/>
    <path class="cls-2" d="M519.27,502.41H41.82c-2.92,0-5.21-3.13-5.21-7.12V167.2c0-3.99,2.29-7.12,5.21-7.12h336.28v2H41.82c-1.74,0-3.21,2.35-3.21,5.12v328.09c0,2.78,1.47,5.12,3.21,5.12h477.45c1.74,0,3.21-2.35,3.21-5.12V167.2c0-2.78-1.47-5.12-3.21-5.12h-4.91v-2h4.91c2.92,0,5.21,3.13,5.21,7.12v328.09c0,3.99-2.29,7.12-5.21,7.12Z"/>
  </g>
  <g id="gul_folder_top">
    <path class="cls-1" d="M514.56,161.08c-7.57-.26-12.17-9.72-16.08-23.28-3.91-13.57-19.04-11.48-19.04-11.48,0,0-56.48.79-67.17.52,0,0-13.3-1.96-18,11.35-4.7,13.3-5.67,22.7-16.43,22.89"/>
    <path class="cls-2" d="M377.85,162.08l-.04-2c8.31-.15,10.25-6.15,13.46-16.09.63-1.96,1.29-3.98,2.05-6.14,4.73-13.4,17.92-12.14,19.02-12.01,10.54.25,65.04-.5,67.03-.53,1.16-.13,16.11-1.54,20.07,12.2,4.5,15.6,9.03,22.35,15.15,22.56l-.07,2c-8.97-.31-13.63-12.31-17.01-24-3.63-12.59-17.36-10.85-17.95-10.77h-.12c-.57.02-56.62.79-67.21.53h-.12c-.51-.08-12.56-1.67-16.91,10.68-.75,2.13-1.4,4.14-2.03,6.09-3.25,10.04-5.59,17.29-15.33,17.47Z"/>
  </g>
</svg>