<svg width="707" height="98" viewBox="0 0 707 98" fill="none" xmlns="http://www.w3.org/2000/svg">
<g clip-path="url(#clip0_175_130)">
<path d="M95.1376 28.3217C95.0412 28.0324 94.8965 27.7432 94.7519 27.478C94.1011 26.3693 93.0406 25.5979 91.8836 25.0195C87.4485 22.826 82.1939 23.7178 77.349 24.6579C71.3954 25.8149 65.3454 27.0201 60.0185 30.0812C57.9696 21.7413 56.0414 12.8953 50.6421 6.12214C49.461 4.62771 47.9907 3.20559 46.1347 2.79582C43.6761 2.26554 41.097 3.71176 39.6508 5.76058C38.2046 7.8094 37.6502 10.3644 37.3128 12.8712C36.2763 20.1023 36.4691 27.5021 37.9154 34.6609C29.238 33.7209 20.4161 34.4199 11.9798 36.6615C9.95504 37.2159 7.90623 37.8667 6.17076 39.0478C4.43529 40.2289 3.01317 42.0367 2.74803 44.1337C2.24186 47.8698 5.39944 51.0997 8.62934 53.0521C16.1256 57.5836 25.1645 58.7406 33.7454 59.9457C30.2745 68.1651 28.0087 76.8906 27.0205 85.7367C26.7071 88.5568 26.7071 91.9073 28.9729 93.6668C30.4191 94.7997 32.492 94.8961 34.2516 94.3417C36.0112 93.7874 37.5297 92.6545 38.9518 91.5216C45.8937 85.9778 51.9196 79.301 56.6922 71.8289C62.5252 77.2522 69.4189 81.5427 76.8911 84.3869C79.2291 85.2787 81.8805 86.026 84.1945 85.0859C86.7254 84.0495 88.1234 81.1811 88.1475 78.4333C88.1716 75.6855 87.0628 73.0823 85.7853 70.6719C82.0493 63.5854 76.7464 57.3666 70.2866 52.6423C78.0963 48.9544 85.2309 43.8927 91.3292 37.7944C92.7031 36.4205 94.0529 34.9261 94.8483 33.1424C95.4991 31.648 95.7161 29.8884 95.1858 28.3458L95.1376 28.3217Z" fill="#FAB6C3"/>
<path d="M97.4754 26.9719C94.4866 20.5603 86.0262 20.5362 80.0484 21.4522C72.7209 22.5609 65.1764 24.1518 58.6202 27.7673L62.5973 29.3823C61.0306 23.0189 59.5362 16.5591 56.6196 10.6537C54.2575 5.83296 50.0393 -0.91608 43.7482 0.144484C37.4572 1.20505 35.3602 7.3515 34.5888 12.7748C33.5283 20.3434 33.8175 27.9361 35.2637 35.4323L37.8669 32.0096C29.8886 31.2142 21.8139 31.6721 13.9802 33.4317C8.02654 34.7333 0 37.457 0 45.0015C0 51.4372 6.55621 55.4384 11.7385 57.6801C18.4875 60.5725 25.791 61.5607 33.0221 62.5972L31.1179 59.2709C28.129 66.502 25.9838 74.0224 24.8268 81.7597C24.0555 86.9179 22.9467 94.3659 29.0209 96.8245C35.095 99.2831 40.9763 93.6428 45.1463 89.8103C50.4732 84.9173 55.1011 79.3011 59.03 73.227L54.7636 73.7813C60.0665 78.6262 66.0442 82.6756 72.6245 85.5681C78.3853 88.0989 86.0021 90.3647 89.6176 83.4228C92.7511 77.3728 89.1596 70.5996 85.8574 65.4415C82.0732 59.536 77.2524 54.4984 71.6362 50.3284V55.0045C77.9273 51.9916 83.7604 48.1591 89.0632 43.6035C93.7635 39.5541 99.5001 34.5405 97.7647 27.6468C96.921 24.2723 91.6905 25.6944 92.5342 29.093C93.7635 34.0343 86.0262 39.2166 82.6757 41.8439C78.4094 45.1702 73.7574 47.9663 68.8884 50.3043C66.8637 51.2685 67.4181 53.8958 68.8884 54.9804C73.0584 58.0898 76.7703 61.85 79.7592 66.0922C82.2901 69.6596 86.3877 75.2035 85.2066 79.7832C82.7963 89.1595 62.0671 73.1305 58.572 69.9488C57.2463 68.7437 55.2939 68.9847 54.3057 70.5032C51.2686 75.1794 47.7977 79.5421 43.8447 83.4951C42.1574 85.1824 40.3978 86.7973 38.5659 88.34C36.9028 89.738 33.7452 92.8715 31.2625 91.9073C27.43 90.4129 30.4189 80.5063 30.9974 77.7102C32.2267 71.8771 34.0344 66.2128 36.3002 60.7171C36.8064 59.4878 35.7217 57.5595 34.396 57.3908C29.0691 56.6436 23.694 55.9205 18.5117 54.4019C14.414 53.1968 6.72494 50.7864 5.51975 45.9415C4.00122 39.8433 15.4987 38.5176 19.3312 37.8668C25.4535 36.8544 31.6964 36.7821 37.8669 37.4088C39.747 37.6017 40.7835 35.5287 40.4701 33.9861C39.4096 28.5387 39.0721 23.0189 39.4578 17.4992C39.6747 14.3657 40.0845 4.8206 45.2427 5.4473C47.5807 5.71244 49.4367 9.03875 50.4732 10.7983C51.7266 12.8712 52.7148 15.0647 53.5344 17.3304C55.1252 21.7414 56.1858 26.297 57.2945 30.8526C57.7284 32.5881 59.7772 33.2871 61.2716 32.4676C66.2852 29.6956 71.8532 28.5146 77.4211 27.4299C81.7598 26.5863 90.2684 24.5374 92.6788 29.7438C94.1491 32.9014 98.8252 30.1536 97.3549 26.996L97.4754 26.9719Z" fill="#FAB6C3"/>
</g>
<g clip-path="url(#clip1_175_130)">
<path d="M399.138 28.3217C399.041 28.0324 398.897 27.7432 398.752 27.478C398.101 26.3693 397.041 25.5979 395.884 25.0195C391.448 22.826 386.194 23.7178 381.349 24.6579C375.395 25.8149 369.345 27.0201 364.018 30.0812C361.97 21.7413 360.041 12.8953 354.642 6.12214C353.461 4.62771 351.991 3.20559 350.135 2.79582C347.676 2.26554 345.097 3.71176 343.651 5.76058C342.205 7.8094 341.65 10.3644 341.313 12.8712C340.276 20.1023 340.469 27.5021 341.915 34.6609C333.238 33.7209 324.416 34.4199 315.98 36.6615C313.955 37.2159 311.906 37.8667 310.171 39.0478C308.435 40.2289 307.013 42.0367 306.748 44.1337C306.242 47.8698 309.399 51.0997 312.629 53.0521C320.126 57.5836 329.164 58.7406 337.745 59.9457C334.274 68.1651 332.009 76.8906 331.02 85.7367C330.707 88.5568 330.707 91.9073 332.973 93.6668C334.419 94.7997 336.492 94.8961 338.252 94.3417C340.011 93.7874 341.53 92.6545 342.952 91.5216C349.894 85.9778 355.92 79.301 360.692 71.8289C366.525 77.2522 373.419 81.5427 380.891 84.3869C383.229 85.2787 385.881 86.026 388.194 85.0859C390.725 84.0495 392.123 81.1811 392.147 78.4333C392.172 75.6855 391.063 73.0823 389.785 70.6719C386.049 63.5854 380.746 57.3666 374.287 52.6423C382.096 48.9544 389.231 43.8927 395.329 37.7944C396.703 36.4205 398.053 34.9261 398.848 33.1424C399.499 31.648 399.716 29.8884 399.186 28.3458L399.138 28.3217Z" fill="#FAB6C3"/>
<path d="M401.475 26.9719C398.487 20.5603 390.026 20.5362 384.048 21.4522C376.721 22.5609 369.176 24.1518 362.62 27.7673L366.597 29.3823C365.031 23.0189 363.536 16.5591 360.62 10.6537C358.257 5.83296 354.039 -0.91608 347.748 0.144484C341.457 1.20505 339.36 7.3515 338.589 12.7748C337.528 20.3434 337.818 27.9361 339.264 35.4323L341.867 32.0096C333.889 31.2142 325.814 31.6721 317.98 33.4317C312.027 34.7333 304 37.457 304 45.0015C304 51.4372 310.556 55.4384 315.739 57.6801C322.488 60.5725 329.791 61.5607 337.022 62.5972L335.118 59.2709C332.129 66.502 329.984 74.0224 328.827 81.7597C328.056 86.9179 326.947 94.3659 333.021 96.8245C339.095 99.2831 344.976 93.6428 349.146 89.8103C354.473 84.9173 359.101 79.3011 363.03 73.227L358.764 73.7813C364.066 78.6262 370.044 82.6756 376.624 85.5681C382.385 88.0989 390.002 90.3647 393.618 83.4228C396.751 77.3728 393.16 70.5996 389.857 65.4415C386.073 59.536 381.252 54.4984 375.636 50.3284V55.0045C381.927 51.9916 387.76 48.1591 393.063 43.6035C397.763 39.5541 403.5 34.5405 401.765 27.6468C400.921 24.2723 395.691 25.6944 396.534 29.093C397.763 34.0343 390.026 39.2166 386.676 41.8439C382.409 45.1702 377.757 47.9663 372.888 50.3043C370.864 51.2685 371.418 53.8958 372.888 54.9804C377.058 58.0898 380.77 61.85 383.759 66.0922C386.29 69.6596 390.388 75.2035 389.207 79.7832C386.796 89.1595 366.067 73.1305 362.572 69.9488C361.246 68.7437 359.294 68.9847 358.306 70.5032C355.269 75.1794 351.798 79.5421 347.845 83.4951C346.157 85.1824 344.398 86.7973 342.566 88.34C340.903 89.738 337.745 92.8715 335.263 91.9073C331.43 90.4129 334.419 80.5063 334.997 77.7102C336.227 71.8771 338.034 66.2128 340.3 60.7171C340.806 59.4878 339.722 57.5595 338.396 57.3908C333.069 56.6436 327.694 55.9205 322.512 54.4019C318.414 53.1968 310.725 50.7864 309.52 45.9415C308.001 39.8433 319.499 38.5176 323.331 37.8668C329.454 36.8544 335.696 36.7821 341.867 37.4088C343.747 37.6017 344.783 35.5287 344.47 33.9861C343.41 28.5387 343.072 23.0189 343.458 17.4992C343.675 14.3657 344.084 4.8206 349.243 5.4473C351.581 5.71244 353.437 9.03875 354.473 10.7983C355.727 12.8712 356.715 15.0647 357.534 17.3304C359.125 21.7414 360.186 26.297 361.295 30.8526C361.728 32.5881 363.777 33.2871 365.272 32.4676C370.285 29.6956 375.853 28.5146 381.421 27.4299C385.76 26.5863 394.268 24.5374 396.679 29.7438C398.149 32.9014 402.825 30.1536 401.355 26.996L401.475 26.9719Z" fill="#FAB6C3"/>
</g>
<g clip-path="url(#clip2_175_130)">
<path d="M553.475 26.9719C550.487 20.5603 542.026 20.5362 536.048 21.4522C528.721 22.5609 521.176 24.1518 514.62 27.7673L518.597 29.3823C517.031 23.0189 515.536 16.5591 512.62 10.6537C510.257 5.83296 506.039 -0.91608 499.748 0.144484C493.457 1.20505 491.36 7.3515 490.589 12.7748C489.528 20.3434 489.818 27.9361 491.264 35.4323L493.867 32.0096C485.889 31.2142 477.814 31.6721 469.98 33.4317C464.027 34.7333 456 37.457 456 45.0015C456 51.4372 462.556 55.4384 467.739 57.6801C474.488 60.5725 481.791 61.5607 489.022 62.5972L487.118 59.2709C484.129 66.502 481.984 74.0224 480.827 81.7597C480.056 86.9179 478.947 94.3659 485.021 96.8245C491.095 99.2831 496.976 93.6428 501.146 89.8103C506.473 84.9173 511.101 79.3011 515.03 73.227L510.764 73.7813C516.066 78.6262 522.044 82.6756 528.624 85.5681C534.385 88.0989 542.002 90.3647 545.618 83.4228C548.751 77.3728 545.16 70.5996 541.857 65.4415C538.073 59.536 533.252 54.4984 527.636 50.3284V55.0045C533.927 51.9916 539.76 48.1591 545.063 43.6035C549.763 39.5541 555.5 34.5405 553.765 27.6468C552.921 24.2723 547.691 25.6944 548.534 29.093C549.763 34.0343 542.026 39.2166 538.676 41.8439C534.409 45.1702 529.757 47.9663 524.888 50.3043C522.864 51.2685 523.418 53.8958 524.888 54.9804C529.058 58.0898 532.77 61.85 535.759 66.0922C538.29 69.6596 542.388 75.2035 541.207 79.7832C538.796 89.1595 518.067 73.1305 514.572 69.9488C513.246 68.7437 511.294 68.9847 510.306 70.5032C507.269 75.1794 503.798 79.5421 499.845 83.4951C498.157 85.1824 496.398 86.7973 494.566 88.34C492.903 89.738 489.745 92.8715 487.263 91.9073C483.43 90.4129 486.419 80.5063 486.997 77.7102C488.227 71.8771 490.034 66.2128 492.3 60.7171C492.806 59.4878 491.722 57.5595 490.396 57.3908C485.069 56.6436 479.694 55.9205 474.512 54.4019C470.414 53.1968 462.725 50.7864 461.52 45.9415C460.001 39.8433 471.499 38.5176 475.331 37.8668C481.454 36.8544 487.696 36.7821 493.867 37.4088C495.747 37.6017 496.783 35.5287 496.47 33.9861C495.41 28.5387 495.072 23.0189 495.458 17.4992C495.675 14.3657 496.084 4.8206 501.243 5.4473C503.581 5.71244 505.437 9.03875 506.473 10.7983C507.727 12.8712 508.715 15.0647 509.534 17.3304C511.125 21.7414 512.186 26.297 513.295 30.8526C513.728 32.5881 515.777 33.2871 517.272 32.4676C522.285 29.6956 527.853 28.5146 533.421 27.4299C537.76 26.5863 546.268 24.5374 548.679 29.7438C550.149 32.9014 554.825 30.1536 553.355 26.996L553.475 26.9719Z" fill="#F05E87"/>
</g>
<g clip-path="url(#clip3_175_130)">
<path d="M705.475 26.9719C702.487 20.5603 694.026 20.5362 688.048 21.4522C680.721 22.5609 673.176 24.1518 666.62 27.7673L670.597 29.3823C669.031 23.0189 667.536 16.5591 664.62 10.6537C662.257 5.83296 658.039 -0.91608 651.748 0.144484C645.457 1.20505 643.36 7.3515 642.589 12.7748C641.528 20.3434 641.818 27.9361 643.264 35.4323L645.867 32.0096C637.889 31.2142 629.814 31.6721 621.98 33.4317C616.027 34.7333 608 37.457 608 45.0015C608 51.4372 614.556 55.4384 619.739 57.6801C626.488 60.5725 633.791 61.5607 641.022 62.5972L639.118 59.2709C636.129 66.502 633.984 74.0224 632.827 81.7597C632.056 86.9179 630.947 94.3659 637.021 96.8245C643.095 99.2831 648.976 93.6428 653.146 89.8103C658.473 84.9173 663.101 79.3011 667.03 73.227L662.764 73.7813C668.066 78.6262 674.044 82.6756 680.624 85.5681C686.385 88.0989 694.002 90.3647 697.618 83.4228C700.751 77.3728 697.16 70.5996 693.857 65.4415C690.073 59.536 685.252 54.4984 679.636 50.3284V55.0045C685.927 51.9916 691.76 48.1591 697.063 43.6035C701.763 39.5541 707.5 34.5405 705.765 27.6468C704.921 24.2723 699.691 25.6944 700.534 29.093C701.763 34.0343 694.026 39.2166 690.676 41.8439C686.409 45.1702 681.757 47.9663 676.888 50.3043C674.864 51.2685 675.418 53.8958 676.888 54.9804C681.058 58.0898 684.77 61.85 687.759 66.0922C690.29 69.6596 694.388 75.2035 693.207 79.7832C690.796 89.1595 670.067 73.1305 666.572 69.9488C665.246 68.7437 663.294 68.9847 662.306 70.5032C659.269 75.1794 655.798 79.5421 651.845 83.4951C650.157 85.1824 648.398 86.7973 646.566 88.34C644.903 89.738 641.745 92.8715 639.263 91.9073C635.43 90.4129 638.419 80.5063 638.997 77.7102C640.227 71.8771 642.034 66.2128 644.3 60.7171C644.806 59.4878 643.722 57.5595 642.396 57.3908C637.069 56.6436 631.694 55.9205 626.512 54.4019C622.414 53.1968 614.725 50.7864 613.52 45.9415C612.001 39.8433 623.499 38.5176 627.331 37.8668C633.454 36.8544 639.696 36.7821 645.867 37.4088C647.747 37.6017 648.783 35.5287 648.47 33.9861C647.41 28.5387 647.072 23.0189 647.458 17.4992C647.675 14.3657 648.084 4.8206 653.243 5.4473C655.581 5.71244 657.437 9.03875 658.473 10.7983C659.727 12.8712 660.715 15.0647 661.534 17.3304C663.125 21.7414 664.186 26.297 665.295 30.8526C665.728 32.5881 667.777 33.2871 669.272 32.4676C674.285 29.6956 679.853 28.5146 685.421 27.4299C689.76 26.5863 698.268 24.5374 700.679 29.7438C702.149 32.9014 706.825 30.1536 705.355 26.996L705.475 26.9719Z" fill="#F05E87"/>
</g>
<g clip-path="url(#clip4_175_130)">
<path d="M247.138 28.3217C247.041 28.0324 246.897 27.7432 246.752 27.478C246.101 26.3693 245.041 25.5979 243.884 25.0195C239.448 22.826 234.194 23.7178 229.349 24.6579C223.395 25.8149 217.345 27.0201 212.018 30.0812C209.97 21.7413 208.041 12.8953 202.642 6.12214C201.461 4.62771 199.991 3.20559 198.135 2.79582C195.676 2.26554 193.097 3.71176 191.651 5.76058C190.205 7.8094 189.65 10.3644 189.313 12.8712C188.276 20.1023 188.469 27.5021 189.915 34.6609C181.238 33.7209 172.416 34.4199 163.98 36.6615C161.955 37.2159 159.906 37.8667 158.171 39.0478C156.435 40.2289 155.013 42.0367 154.748 44.1337C154.242 47.8698 157.399 51.0997 160.629 53.0521C168.126 57.5836 177.164 58.7406 185.745 59.9457C182.274 68.1651 180.009 76.8906 179.02 85.7367C178.707 88.5568 178.707 91.9073 180.973 93.6668C182.419 94.7997 184.492 94.8961 186.252 94.3417C188.011 93.7874 189.53 92.6545 190.952 91.5216C197.894 85.9778 203.92 79.301 208.692 71.8289C214.525 77.2522 221.419 81.5427 228.891 84.3869C231.229 85.2787 233.881 86.026 236.194 85.0859C238.725 84.0495 240.123 81.1811 240.147 78.4333C240.172 75.6855 239.063 73.0823 237.785 70.6719C234.049 63.5854 228.746 57.3666 222.287 52.6423C230.096 48.9544 237.231 43.8927 243.329 37.7944C244.703 36.4205 246.053 34.9261 246.848 33.1424C247.499 31.648 247.716 29.8884 247.186 28.3458L247.138 28.3217Z" fill="#FAB6C3"/>
<path d="M249.475 26.9719C246.487 20.5603 238.026 20.5362 232.048 21.4522C224.721 22.5609 217.176 24.1518 210.62 27.7673L214.597 29.3823C213.031 23.0189 211.536 16.5591 208.62 10.6537C206.257 5.83296 202.039 -0.91608 195.748 0.144484C189.457 1.20505 187.36 7.3515 186.589 12.7748C185.528 20.3434 185.818 27.9361 187.264 35.4323L189.867 32.0096C181.889 31.2142 173.814 31.6721 165.98 33.4317C160.027 34.7333 152 37.457 152 45.0015C152 51.4372 158.556 55.4384 163.739 57.6801C170.488 60.5725 177.791 61.5607 185.022 62.5972L183.118 59.2709C180.129 66.502 177.984 74.0224 176.827 81.7597C176.056 86.9179 174.947 94.3659 181.021 96.8245C187.095 99.2831 192.976 93.6428 197.146 89.8103C202.473 84.9173 207.101 79.3011 211.03 73.227L206.764 73.7813C212.066 78.6262 218.044 82.6756 224.624 85.5681C230.385 88.0989 238.002 90.3647 241.618 83.4228C244.751 77.3728 241.16 70.5996 237.857 65.4415C234.073 59.536 229.252 54.4984 223.636 50.3284V55.0045C229.927 51.9916 235.76 48.1591 241.063 43.6035C245.763 39.5541 251.5 34.5405 249.765 27.6468C248.921 24.2723 243.691 25.6944 244.534 29.093C245.763 34.0343 238.026 39.2166 234.676 41.8439C230.409 45.1702 225.757 47.9663 220.888 50.3043C218.864 51.2685 219.418 53.8958 220.888 54.9804C225.058 58.0898 228.77 61.85 231.759 66.0922C234.29 69.6596 238.388 75.2035 237.207 79.7832C234.796 89.1595 214.067 73.1305 210.572 69.9488C209.246 68.7437 207.294 68.9847 206.306 70.5032C203.269 75.1794 199.798 79.5421 195.845 83.4951C194.157 85.1824 192.398 86.7973 190.566 88.34C188.903 89.738 185.745 92.8715 183.263 91.9073C179.43 90.4129 182.419 80.5063 182.997 77.7102C184.227 71.8771 186.034 66.2128 188.3 60.7171C188.806 59.4878 187.722 57.5595 186.396 57.3908C181.069 56.6436 175.694 55.9205 170.512 54.4019C166.414 53.1968 158.725 50.7864 157.52 45.9415C156.001 39.8433 167.499 38.5176 171.331 37.8668C177.454 36.8544 183.696 36.7821 189.867 37.4088C191.747 37.6017 192.783 35.5287 192.47 33.9861C191.41 28.5387 191.072 23.0189 191.458 17.4992C191.675 14.3657 192.084 4.8206 197.243 5.4473C199.581 5.71244 201.437 9.03875 202.473 10.7983C203.727 12.8712 204.715 15.0647 205.534 17.3304C207.125 21.7414 208.186 26.297 209.295 30.8526C209.728 32.5881 211.777 33.2871 213.272 32.4676C218.285 29.6956 223.853 28.5146 229.421 27.4299C233.76 26.5863 242.268 24.5374 244.679 29.7438C246.149 32.9014 250.825 30.1536 249.355 26.996L249.475 26.9719Z" fill="#FAB6C3"/>
</g>
<defs>
<clipPath id="clip0_175_130">
<rect width="98.078" height="97.4031" fill="white"/>
</clipPath>
<clipPath id="clip1_175_130">
<rect width="98.078" height="97.4031" fill="white" transform="translate(304)"/>
</clipPath>
<clipPath id="clip2_175_130">
<rect width="98.078" height="97.4031" fill="white" transform="translate(456)"/>
</clipPath>
<clipPath id="clip3_175_130">
<rect width="98.078" height="97.4031" fill="white" transform="translate(608)"/>
</clipPath>
<clipPath id="clip4_175_130">
<rect width="98.078" height="97.4031" fill="white" transform="translate(152)"/>
</clipPath>
</defs>
</svg>
