<?xml version="1.0" encoding="UTF-8"?>
<svg id="Layer_1" data-name="Layer 1" xmlns="http://www.w3.org/2000/svg" viewBox="0 0 898.39 937.59" preserveAspectRatio="none">
  <defs>
    <style>
      .cls-1 {
        fill: #fef3ed;
      }

      .cls-2 {
        fill: #f7729b;
      }

      .cls-3 {
        opacity: .2;
      }

      .cls-4 {
        fill: gray;
      }

      .cls-5 {
        fill: #fbeda6;
      }

      .cls-6 {
        opacity: .22;
      }
    </style>
  </defs>
  <g class="cls-6">
    <path class="cls-4" d="M830.18,262.54c3.2,30.08,6.37,59.98,9.36,88.92,6.89,54.11,16.93,132.37,23.82,186.47,4.69,42.82,11.62,107.31,16.32,150.13,3.23,41.5,8.76,88.6,13.74,129.92,1.53,11.37,3.06,22.74,4.59,34.11.07.53.09,1.18-.37,1.46-.19.12-.43.14-.66.15-9.73.65-20.02,2.21-28.98,3.76-28.54,3.17-64.13,5.66-92.84,6.52,1.28,1.39-12.58,4.2-11.3,5.59-61.95-.83-126.52,12.26-191.95,20.57-54.22,5.7-108.43,11.4-162.65,17.1-18.01,1.89-36.01,3.79-54.02,5.68-10.75,1.13-21.49,2.26-32.24,3.39-55.59,5.68-119.7,13.65-175.3,19.33-13.3-.05-27.95.27-41.19,1.5-.79.07-1.93.22-2.46-.36-.35-.37-.21-1.03-.28-1.53-.77-5.54-1.02-11.14-.74-16.72,19.63-58.38,48.56-121.14,75.55-176.57,58.51-120.14,117.24-240.68,191.16-352.2s163.95-214.46,275.52-289.37c25.89-17.38,52.85-33.2,80.69-47.34,13.63-6.92,44.88-23.28,59.81-19.87,6.83-2.19,13.87-3.71,21-4.53,2.48,34.82,5.72,69.6,9.71,104.28,4.33,41.97,9.05,85.98,13.7,129.6Z"/>
    <path class="cls-4" d="M829.8,262.54c1.44,13.53,2.88,27.06,4.31,40.59,1.41,13.31,2.8,26.62,4.18,39.93.58,5.55,1.21,11.09,1.92,16.62.64,5.03,1.28,10.07,1.93,15.1,1.38,10.8,2.76,21.6,4.14,32.39,1.45,11.35,2.9,22.7,4.35,34.05s2.92,22.8,4.37,34.2,2.8,21.9,4.2,32.85c.66,5.15,1.31,10.3,1.97,15.45.62,4.84,1.31,9.68,1.85,14.53,1.08,9.86,2.15,19.72,3.23,29.58,1.19,10.96,2.38,21.92,3.57,32.88,1.22,11.25,2.44,22.51,3.66,33.76s2.33,21.48,3.5,32.22c.54,4.92,1.07,9.85,1.61,14.77.26,2.34.57,4.68.76,7.03.24,3.02.48,6.03.74,9.04,1.05,12.48,2.25,24.94,3.53,37.4,1.31,12.72,2.7,25.43,4.15,38.13,1.42,12.42,2.88,24.83,4.37,37.24,1.58,13.16,3.42,26.28,5.19,39.41.11.84.26,1.69.34,2.53.03.31.08.76-.21.98-.27.21-.84.12-1.17.15-1.65.12-3.3.26-4.95.42-3.2.31-6.39.7-9.58,1.13s-6.31.91-9.45,1.43c-1.5.25-2.99.56-4.5.75-1.41.18-2.83.31-4.25.46-11.82,1.25-23.66,2.29-35.52,3.18s-24.26,1.66-36.4,2.22c-5.49.25-10.98.47-16.47.63-.34.01-.47.4-.27.64-.02-.03-.04-.1-.02-.11-.04.02-.1.12-.18.19-.28.22-.62.37-.94.51-1.01.46-2.08.81-3.13,1.17-2.1.71-4.42,1.26-6.36,2.37-.51.29-1.2.84-.67,1.46l.27-.64c-15.64-.2-31.28.47-46.87,1.69-15.86,1.25-31.67,3.05-47.44,5.12-16.09,2.11-32.14,4.48-48.19,6.84-16.22,2.38-32.45,4.75-48.72,6.82-4.12.53-8.27.89-12.41,1.32s-8.28.87-12.42,1.31c-8.19.86-16.39,1.72-24.58,2.59-16.55,1.74-33.11,3.48-49.66,5.22-16.47,1.73-32.94,3.46-49.41,5.2-16.45,1.73-32.9,3.46-49.34,5.19s-33.05,3.48-49.58,5.21c-14.79,1.55-29.57,3.11-44.35,4.75s-30.66,3.45-45.99,5.2c-15.25,1.74-30.5,3.48-45.75,5.17-7.48.83-14.96,1.65-22.44,2.45-3.59.38-7.18.76-10.77,1.14-1.81.19-3.62.38-5.43.56-.86.09-1.72.2-2.59.27-.97.07-1.96.02-2.94.02-7.82,0-15.64.13-23.45.49-3.88.18-7.75.41-11.63.72-.91.07-1.81.15-2.72.23-.75.07-1.65.27-2.39.07-.54-.15-.61-.48-.63-.98-.02-.43-.07-.84-.13-1.27-.14-1.06-.26-2.12-.36-3.18-.38-4.01-.48-8.04-.32-12.07.04-.96.43-1.85.73-2.75s.62-1.83.94-2.75c.61-1.77,1.22-3.54,1.84-5.31,2.52-7.17,5.13-14.3,7.83-21.41,5.51-14.52,11.34-28.91,17.41-43.21s12.51-28.83,19.04-43.11,12.94-27.88,19.6-41.74,13.41-27.66,20.15-41.48,13.83-28.32,20.8-42.45c6.93-14.07,13.9-28.12,20.94-42.13s14.21-28.13,21.44-42.14c7.19-13.93,14.48-27.81,21.88-41.63s14.91-27.57,22.56-41.25c7.69-13.74,15.52-27.41,23.51-40.97s16.07-26.91,24.37-40.2,16.67-26.3,25.3-39.25c7.84-11.78,15.85-23.44,24.04-34.97s16.5-22.86,25.03-34.08c8.56-11.26,17.3-22.37,26.25-33.32s18.13-21.78,27.51-32.4c9.32-10.56,18.85-20.94,28.59-31.12s19.78-20.23,30-30.01c10.16-9.72,20.55-19.22,31.16-28.46s21.44-18.23,32.49-26.93,22.53-17.28,34.13-25.46c12.32-8.68,24.88-17.01,37.69-24.95,13.39-8.31,27.04-16.21,40.91-23.69,10.48-5.65,21.07-11.16,31.82-16.26,5.12-2.43,10.31-4.74,15.59-6.79s10.31-3.75,15.66-4.9c4.06-.87,8.42-1.5,12.55-.71.2.04.43.13.63.13.39-.01.86-.26,1.24-.37.91-.28,1.83-.55,2.75-.81,1.84-.52,3.7-.98,5.56-1.4,3.78-.85,7.6-1.5,11.45-1.94l-.38-.38c1.1,15.39,2.34,30.76,3.73,46.12,1.39,15.36,2.93,30.71,4.61,46.04,1.64,14.96,3.2,29.93,4.78,44.9,1.59,15.12,3.19,30.25,4.8,45.37,1.62,15.26,3.25,30.52,4.88,45.79.2,1.89.4,3.77.6,5.66.05.47.8.48.75,0-1.63-15.27-3.26-30.53-4.88-45.8-1.61-15.15-3.22-30.3-4.82-45.45s-3.06-29.87-4.73-44.78-3.3-30.67-4.72-46.03c-1.43-15.36-2.71-30.73-3.84-46.11-.14-1.9-.28-3.8-.41-5.71-.01-.18-.16-.4-.38-.38-3.91.45-7.8,1.1-11.65,1.97-1.94.44-3.88.93-5.79,1.47-.92.26-1.84.53-2.75.82-.36.11-.67.26-1.03.22-.25-.03-.51-.1-.76-.14-4.36-.69-8.88,0-13.14.97-5.37,1.22-10.6,3.03-15.72,5.05s-10.44,4.39-15.56,6.83c-10.84,5.17-21.51,10.72-32.07,16.43-13.94,7.53-27.64,15.49-41.08,23.87s-25.39,16.34-37.72,25.06c-11.53,8.15-22.83,16.62-33.91,25.36s-21.97,17.8-32.62,27.1-21.07,18.86-31.28,28.64-20.2,19.82-29.97,30.05c-9.78,10.24-19.34,20.68-28.7,31.31-9.36,10.64-18.51,21.46-27.46,32.44-8.93,10.96-17.66,22.08-26.2,33.34s-16.93,22.72-25.12,34.28-16.17,23.21-24,35c-8.69,13.08-17.17,26.29-25.47,39.62-8.33,13.37-16.47,26.85-24.45,40.43s-15.79,27.25-23.47,41c-7.68,13.75-15.22,27.58-22.64,41.48-7.43,13.9-14.74,27.86-21.96,41.86-7.22,14.01-14.35,28.06-21.42,42.15-7.07,14.09-14.07,28.21-21.03,42.35-6.96,14.14-13.88,28.29-20.79,42.46-6.76,13.85-13.53,27.7-20.19,41.6s-13.27,27.97-19.68,42.06-12.82,28.59-18.91,43.03-11.84,28.73-17.31,43.28c-2.67,7.09-5.25,14.22-7.74,21.37-.61,1.76-1.22,3.53-1.82,5.3-.27.78-.69,1.63-.74,2.46-.07,1.07-.08,2.14-.09,3.2-.05,4.11.19,8.22.71,12.3.06.44.13.89.15,1.33.02.33,0,.67.1.99.21.61.81.88,1.4.96.68.09,1.37-.02,2.04-.08.98-.09,1.96-.17,2.95-.25,3.87-.31,7.75-.54,11.63-.72,7.81-.36,15.63-.49,23.45-.49.9,0,1.82.05,2.72,0s1.87-.19,2.8-.29c1.81-.19,3.62-.37,5.43-.56,3.66-.38,7.33-.77,10.99-1.16,7.48-.8,14.97-1.62,22.45-2.45,15.33-1.7,30.66-3.45,45.99-5.2,15.33-1.75,30.65-3.5,45.99-5.2s29.76-3.22,44.64-4.78c16.53-1.74,33.05-3.48,49.58-5.21,16.53-1.74,33.06-3.48,49.59-5.22,16.55-1.74,33.11-3.48,49.66-5.22,16.55-1.74,33.11-3.48,49.66-5.22,8.28-.87,16.55-1.74,24.83-2.61s16.56-1.6,24.8-2.66c16.25-2.09,32.46-4.46,48.66-6.84,16.14-2.37,32.28-4.75,48.45-6.85,15.84-2.06,31.72-3.84,47.65-5.05,14.96-1.13,29.97-1.74,44.97-1.55.35,0,.47-.4.27-.64.02.03.04.1.02.11.04-.02.1-.12.18-.19.28-.22.62-.37.94-.51,1.01-.46,2.08-.81,3.13-1.17,2.1-.71,4.42-1.26,6.36-2.37.51-.29,1.2-.84.67-1.46l-.27.64c11.8-.35,23.6-.93,35.39-1.66,12.22-.75,24.43-1.67,36.63-2.77,5.8-.52,11.6-1.09,17.4-1.71,6.1-.65,12.13-1.86,18.22-2.67,3.23-.43,6.47-.81,9.72-1.11,1.57-.14,3.18-.16,4.74-.38,1.23-.17,1.22-1.32,1.09-2.31-.91-6.8-1.83-13.59-2.74-20.39-1.71-12.68-3.25-25.38-4.75-38.09-1.49-12.69-2.95-25.38-4.35-38.09-1.39-12.65-2.7-25.32-3.91-37.99-1.11-11.67-1.91-23.38-3.18-35.03-1.11-10.15-2.21-20.29-3.31-30.44-1.21-11.15-2.42-22.31-3.63-33.46s-2.44-22.5-3.66-33.74c-1.14-10.56-2.29-21.12-3.44-31.67-.52-4.75-1.04-9.5-1.56-14.26s-1.24-9.79-1.86-14.68c-1.34-10.53-2.69-21.06-4.03-31.59-1.44-11.3-2.89-22.61-4.34-33.91s-2.93-22.88-4.39-34.31-2.86-22.41-4.3-33.61c-1.32-10.33-2.64-20.65-3.95-30.98-1.56-12.24-2.73-24.52-4.02-36.79-1.41-13.48-2.84-26.97-4.27-40.45-.7-6.58-1.4-13.15-2.1-19.73-.05-.47-.8-.48-.75,0Z"/>
  </g>
  <path class="cls-5" d="M847.29,848.3c11.01-1.65,22.02-3.35,33.02-5.08,1.52-.24,3.21-.58,4.1-1.82.85-1.19.67-2.81.45-4.25-3.35-21.93-6.7-43.86-10.05-65.78-18.62-182.14-41.66-377.57-60.28-559.7-7.64-63.45-15.27-126.91-22.91-190.36-.23-1.95-.54-4.04-1.91-5.46-2.16-2.24-5.82-1.78-8.88-1.15-11.83,2.42-23.67,4.84-35.5,7.26-43.48,9.99-100.49,9.61-145.02,12.66-29.36,2.01-58.56,5.88-87.73,9.76-62.12,8.25-124.1,17.71-186.36,24.74-29.48,14.23-62.12,23.36-94.93,23.27-18.6-.05-37.1-2.48-55.67-3.47-43.51-2.31-95.08,4.16-138.28,9.78-12.48,2.29-24.92,4.74-37.33,7.36,3.02,41,7.37,81.91,13.04,122.64,5.06,54.21,12.58,114.68,19.27,168.72,6.45,41.65,10.79,79.62,14.74,121.57.63,6.67,1.25,13.33,1.88,20,2.67,28.43,5.35,56.87,8.02,85.3,3.49,25.99,7.63,52.3,9.33,78.47.9,10.3,2.37,29.63,3.27,39.94.64,14.63,3.11,37.62,4.66,52.18,0,0,.62,5.81,1.23,11.62l3.68,20.93c2.88,16.4,4.77,32.97,5.66,49.6-.06,3.59,2.41,15.96,3.24,19.33,2.82,11.55,4.05,23.48,3.64,35.35,14.62-1.76,29.18-3.92,43.68-6.49,11.29-1.53,26.52-5.2,37.81-6.73,52.57-7.11,111.7-12.94,163.5-17.15,38.51-4.04,74.26-7.07,111.39-10.61,48.91-4.73,84.06-11.12,114.75-16.05,60.55-17.89,136.74-1.62,198.6-14.3,28.67-3.76,57.31-7.78,85.9-12.08Z"/>
  <g class="cls-3">
    <path class="cls-4" d="M41.91,123.95c11.85-22.83,45.97-44.47,71.85-42.46,108.5,8.43,215.39,31.54,323.83,40.64,108.44,9.1,239.93-6.21,338.12-52.6,7.24.98,14.57,1.25,21.86.82-3.74,32.06-6.58,64.23-8.5,96.45-4.3,82.48-3.83,172.95-3.97,247.83-2.84,42.03-1.6,83.26.13,126.1.21,66.03,3.19,158.48,3.39,224.5,1.03,31.99.14,62.14,1.17,94.13.17,7.32.24,21.26.13,29.43,0,.7-.14,1.49-.73,1.88-.39.26-.89.27-1.37.27-3.43.01-6.58-.34-10.34-.1-18.84.24-38.07-2.32-55.72-2.51-8.55-.09-17.11.26-25.64-.28-96.2-6.06-187.38-2.02-280.76,4.69-69.64,9.05-142.79,9.42-213.25,8.83-28.03-.25-60.66.54-88.69.29-16.5-.15-33,.73-49.5.58-4.16.25-18.08.73-22.35.22-.62-6.18-.98-12.38-1.09-18.58,9.09-4.57,21.75-17.07,31.08-21.15,9.32-4.08,18.39-9.79,23.6-18.45s-1.25-24.84-8.23-32.19c-1.41-3.4-4.5-6.01-8.04-7.13s-7.47-.82-10.91.57c-3.03,1.22-5.71,3.25-7.69,5.82-.49.64-.98,1.35-1.74,1.65-.52.21-1.09.19-1.65.18-3.03-.09-6.07-.19-9.1-.28-.61-.02-1.25-.05-1.75-.38-.42-.28-.69-.74-.93-1.18-1.39-2.57-2.47-5.31-3.23-8.13,1.06.34-1.75-10.69-.69-10.35-3.1-6.28,2.51-13.93,9.25-16.03s14-.51,21.01.38c7.01.89,14.88.79,20.17-3.85,7.77-6.81-2.06-36.37-4.7-46.3-1.41-3.4-4.5-6.01-8.04-7.13s-7.47-.82-10.91.57c-3.03,1.22-5.71,3.25-7.69,5.82-.49.64-.98,1.35-1.74,1.65-.52.21-1.09.19-1.65.18-3.03-.09-6.07-.19-9.1-.28-.61-.02-1.25-.05-1.75-.38-.42-.28-.69-.74-.93-1.18-2.14-3.96-3.55-8.29-4.15-12.74,2.93,10.62-1.46-5.48-.66-2.62-.91-6.72-.39-13.89,3.08-19.74,3.47-5.85,10.38-10.01,17.14-8.87,6.94,1.18,12.15,7.34,19.05,8.73,10.95,2.21,20.05-7.94,26.49-16.97,1.09-1.52,2.2-3.12,2.49-4.96.46-2.93-1.26-5.72-2.91-8.2-4.01-6.04-14.72-13.19-18.73-19.23-1.41-3.4-4.5-6.01-8.04-7.13-3.54-1.12-7.47-.82-10.91.57-3.03,1.22-5.71,3.25-7.69,5.82-.49.64-.98,1.35-1.74,1.65-.52.21-1.09.19-1.65.18-3.03-.09-6.07-.19-9.1-.28-.61-.02-1.25-.05-1.75-.38-.42-.28-.69-.74-.93-1.18-1.39-2.57-2.47-5.31-3.23-8.13,1.81-8.02,16.17-28.02,24.3-29.75,8.12-1.72,16.9-2.03,23.84-6.56,10.99-7.18,6.39-30.67-3.09-39.71-1.41-3.4-4.5-6.01-8.04-7.13-3.54-1.12-7.47-.82-10.91.57-3.03,1.22-5.71,3.25-7.69,5.82-.49.64-.98,1.35-1.74,1.65-.52.21-1.09.19-1.65.18-3.03-.09-6.07-.19-9.1-.28-.61-.02-1.25-.05-1.75-.38-.42-.28-.69-.74-.93-1.18-1.39-2.57-2.47-5.31-3.23-8.13-2.23-5.87,5.32-19.35,11.15-21.84,5.82-2.48,12.43-1.98,18.77-1.7,6.34.28,13.1.19,18.42-3.22,6.29-4.03,9.1-11.96,8.88-19.37s-9.46-22.4-12.17-29.31c-1.41-3.4-4.5-6.01-8.04-7.13s-7.47-.82-10.91.57c-3.03,1.22-5.71,3.25-7.69,5.82-.49.64-.98,1.35-1.74,1.65-.52.21-1.09.19-1.65.18-3.03-.09-6.07-.19-9.1-.28-.61-.02-1.25-.05-1.75-.38-.42-.28-.69-.74-.93-1.18-1.39-2.57-2.47-5.31-3.23-8.13,2.15-8.43,10.02-23.18,18.16-26.47,9.04-3.65,19.99,2.46,28.91-1.49,6.94-3.07,10.1-11.49,9.34-18.96-.77-7.48-7.6-22.49-11.36-29.02-1.41-3.4-4.5-6.01-8.04-7.13s-7.47-.82-10.91.57c-3.03,1.22-5.71,3.25-7.69,5.82-.49.64-.98,1.35-1.74,1.65-.52.21-1.09.19-1.65.18-3.03-.09-6.07-.19-9.1-.28-.61-.02-1.25-.05-1.75-.38-.42-.28-.69-.74-.93-1.18-1.39-2.57-2.47-5.31-3.23-8.13-.3-10.93,14.74-23.2,25.57-25.43,10.83-2.23,23.05-2.73,30.86-10.48,9.16-9.09-.07-33.93-11.38-40.23-1.41-3.4-4.5-6.01-8.04-7.13s-7.47-.82-10.91.57c-3.03,1.22-5.71,3.25-7.69,5.82-.49.64-.98,1.35-1.74,1.65-.52.21-1.09.19-1.65.18-3.03-.09-6.07-.19-9.1-.28-.61-.02-1.25-.05-1.75-.38-.42-.28-.69-.74-.93-1.18-1.39-2.57-2.47-5.31-3.23-8.13-.32-1.24-2.33-6.87-1.03-6.84s1.85-1.59,2.09-2.85c2.52-12.83,13.93-23.45,27.04-25.16,7.64-.99,16.25.55,22.39-4.06,9.17-6.88-1-26.74-5.45-37.24-1.41-3.4-4.5-6.01-8.04-7.13s-7.47-.82-10.91.57c-3.03,1.22-5.71,3.25-7.69,5.82-.49.64-.98,1.35-1.74,1.65-.52.21-1.09.19-1.65.18-3.03-.09-6.07-.19-9.1-.28-.61-.02-1.25-.05-1.75-.38-.42-.28-.69-.74-.93-1.18-1.39-2.57-2.47-5.31-3.23-8.13-1.67-8.49,6.15-18.04,14.68-19.93s17.4.08,26.14.34c8.74.26,18.61-1.89,23.23-9.23,4.18-6.64,2.63-15.47-1.07-22.39-3.53-6.61-12.87-16.22-17.34-22.85-.86-4.37-4.43-7.8-8.64-9.14-3.54-1.12-7.47-.82-10.91.57-3.03,1.22-5.71,3.25-7.69,5.82-.49.64-.98,1.35-1.74,1.65-.52.21-1.09.19-1.65.18-3.03-.09-6.07-.19-9.1-.28-.61-.02-1.25-.05-1.75-.38-.42-.28-.69-.74-.93-1.18-1.39-2.57-2.47-5.31-3.23-8.13"/>
    <path class="cls-4" d="M42.23,124.14c4.69-9,11.89-16.59,19.76-22.9,8.51-6.82,18.2-12.36,28.52-15.9,4.85-1.66,9.87-2.88,14.98-3.37,5.7-.55,11.37.12,17.05.6,14.24,1.21,28.46,2.66,42.66,4.28s28.48,3.44,42.69,5.35,28.32,3.93,42.47,5.99,28.3,4.17,42.44,6.26c14.15,2.09,28.3,4.16,42.46,6.14,14.11,1.97,28.23,3.86,42.37,5.61,14.19,1.75,28.39,3.34,42.62,4.72,12.61,1.22,25.24,2.3,37.89,2.99,11.8.64,23.61.99,35.42,1.07s24.22-.12,36.31-.61,24.57-1.26,36.82-2.32c12.31-1.07,24.59-2.42,36.83-4.07,12.27-1.66,24.51-3.61,36.68-5.89s24.1-4.83,36.03-7.75,23.43-6.08,35-9.65,22.52-7.35,33.58-11.6c5.39-2.07,10.74-4.24,16.04-6.5,2.65-1.13,5.3-2.29,7.93-3.48,1.31-.59,2.61-1.18,3.92-1.79.59-.27,1.18-.55,1.77-.82.29-.14.59-.28.88-.41.49-.23.91-.12,1.44-.06,6.88.86,13.84,1.08,20.76.68l-.38-.38c-1.61,13.81-3.05,27.64-4.33,41.49s-2.37,27.54-3.3,41.33c-.89,13.11-1.52,26.23-2.05,39.35-.52,13.02-.94,26.05-1.28,39.08s-.6,26.24-.8,39.36-.33,26-.43,39-.15,25.5-.19,38.25-.05,24.8-.06,37.19c0,5.91,0,11.83-.02,17.74,0,2.93,0,5.86-.01,8.79,0,3.27-.26,6.51-.45,9.77-.77,13.52-1.14,27.06-1.23,40.6-.08,13.6.12,27.2.48,40.8.18,6.84.41,13.68.66,20.52s.64,13.2.67,19.8c.04,10.56.15,21.12.29,31.69.15,11.37.34,22.73.54,34.1.22,11.88.45,23.76.69,35.64.24,11.89.48,23.79.71,35.68s.44,23.23.62,34.85c.17,11.01.32,22.02.42,33.03.05,5.14.08,10.27.1,15.41.01,3.29.16,6.58.24,9.87s.14,6.88.19,10.32c.18,13.51.15,27.03.21,40.54.03,6.83.08,13.66.2,20.48.1,6,.33,12.01.42,18.01.08,5.19.11,10.37.12,15.56,0,2.52,0,5.04-.03,7.56,0,.53,0,1.06-.02,1.59,0,.6.05,1.25-.1,1.84-.25.94-1.01.99-1.85.99s-1.61-.02-2.42-.05c-1.55-.05-3.09-.13-4.64-.14-1.63,0-3.25.09-4.88.1-3.37.01-6.73-.06-10.1-.19-6.79-.25-13.57-.73-20.36-1.19s-13.18-.89-19.78-1.08-13.56,0-20.34-.05-13.93-.62-20.89-1-13.77-.7-20.65-.98c-13.68-.56-27.36-.92-41.05-1.12-13.51-.19-27.02-.22-40.53-.09s-26.93.4-40.39.8c-13.42.4-26.84.93-40.25,1.56s-26.76,1.36-40.13,2.17c-13.42.81-26.84,1.71-40.26,2.66-1.69.12-3.39.24-5.08.36s-3.32.4-4.97.61c-3.32.41-6.64.81-9.96,1.18-6.67.75-13.35,1.43-20.04,2.03-13.38,1.21-26.79,2.16-40.21,2.89s-26.99,1.26-40.49,1.62-27.09.56-40.64.66c-13.47.09-26.95.08-40.42,0-12.77-.07-25.53-.2-38.29-.15-12.86.06-25.71.21-38.56.3-6.34.04-12.68.07-19.02.06s-13.02-.1-19.52-.03c-6.88.07-13.76.25-20.65.39-3.48.07-6.96.13-10.45.16-1.74.02-3.48.02-5.22.02-1.35,0-2.7-.06-4.05.02-3.68.2-7.37.3-11.05.37s-7.19.23-10.73-.18l.38.38c-.62-6.18-.98-12.38-1.09-18.58l-.19.32c4.28-2.16,8.14-5.15,11.94-8.06,4.15-3.17,8.24-6.45,12.59-9.36,1.89-1.26,3.84-2.46,5.89-3.43,2.4-1.13,4.82-2.19,7.15-3.47,4.85-2.65,9.45-5.89,13.18-9.99,1.69-1.86,3.35-3.93,4.48-6.18.93-1.85,1.37-3.91,1.49-5.97.28-4.73-.97-9.53-2.74-13.88-.93-2.26-2.02-4.46-3.31-6.54-1.16-1.88-2.5-3.54-3.9-5.24-.38-.47-.59-1.08-.9-1.61s-.68-1.05-1.07-1.53c-.81-1-1.78-1.86-2.84-2.59-2.32-1.59-5.1-2.4-7.9-2.46-5.75-.13-11.28,2.74-14.77,7.25-.41.53-.82,1.14-1.44,1.44-.77.37-1.79.2-2.62.17-1.72-.05-3.45-.11-5.17-.16-.82-.03-1.64-.05-2.46-.08s-1.8.05-2.39-.67c-.46-.56-.77-1.31-1.09-1.95-.38-.76-.73-1.54-1.05-2.33-.6-1.46-1.09-2.96-1.5-4.48l-.46.46c1.2.3.58-2.59.52-3.05-.27-1.95-.67-3.89-.89-5.85-.04-.38-.09-.77-.08-1.16,0-.1.03-.27.02-.32-.03-.1.05-.05.01-.06-.01,0-.19.12-.26.1.33.08.56-.26.42-.55-2.59-5.38,1.36-11.31,5.95-14.08,6.25-3.77,14.29-2.36,21.1-1.4,6.2.88,12.89,1.63,18.85-.82,2.05-.84,4.25-2.09,5.54-3.96.88-1.28,1.35-2.83,1.62-4.34.75-4.18.28-8.56-.34-12.72-.72-4.88-1.84-9.69-3.08-14.46-1.05-4.05-2.23-8.06-3.36-12.08-.21-.76-.37-1.56-.7-2.28-.61-1.33-1.48-2.54-2.52-3.58-2.18-2.17-5.05-3.52-8.09-3.93-3.49-.47-7.08.24-10.2,1.83-1.42.72-2.74,1.63-3.93,2.69-.56.49-1.08,1.02-1.58,1.58-.56.63-1.01,1.36-1.61,1.96-.66.65-1.41.72-2.29.7-1.07-.03-2.13-.07-3.2-.1-1.97-.06-3.94-.11-5.91-.18-.46-.02-.96-.02-1.39-.23s-.65-.59-.87-.98c-.44-.77-.82-1.57-1.19-2.38-.76-1.67-1.4-3.4-1.91-5.17s-.86-3.49-1.1-5.27l-.72.2c.26.96.53,1.92.8,2.88.08.28.12.62.26.88.17.33.71.18.7-.19,0-.23-.12-.49-.17-.71-.14-.52-.28-1.04-.42-1.56-.32-1.19-.64-2.38-.96-3.57-.06-.21-.11-.42-.17-.62-.02-.06-.07-.39-.06-.17l-.7.19c-.11-.18.04.18.06.26.11.39.79.33.74-.1-.78-5.91-.54-12.2,2.04-17.68,2.31-4.92,6.67-8.94,12.01-10.29,2.62-.66,5.31-.56,7.88.27s4.85,2.22,7.11,3.61,4.4,2.73,6.81,3.69,4.83,1.37,7.33,1.17c5.01-.41,9.43-3.16,13.1-6.44,2.02-1.8,3.85-3.81,5.57-5.9s3.39-4.24,4.85-6.5c.77-1.2,1.42-2.5,1.59-3.93s-.18-2.91-.75-4.26c-.99-2.32-2.49-4.49-4.15-6.39-3.35-3.82-7.38-7.01-11.08-10.47-1.74-1.63-3.47-3.3-4.94-5.19-.31-.4-.64-.82-.87-1.28-.31-.62-.6-1.22-.99-1.8-.71-1.06-1.59-2.02-2.58-2.83-4.55-3.71-10.93-4.01-16.2-1.74-2.58,1.11-4.91,2.81-6.75,4.93-.43.49-.8,1.03-1.22,1.53-.59.69-1.21.98-2.12.98-1.7,0-3.4-.1-5.1-.15s-3.31-.02-4.94-.16c-.96-.09-1.4-.55-1.84-1.35-.39-.71-.74-1.43-1.08-2.17-.69-1.51-1.28-3.06-1.76-4.65-.16-.52-.37-.95-.23-1.48.08-.32.18-.63.29-.94,1.16-3.44,3.09-6.66,5.05-9.7,2.4-3.72,5.09-7.27,8.07-10.54,2.44-2.67,5.16-5.42,8.42-7.08,1.77-.9,3.78-1.12,5.71-1.46,2.88-.5,5.78-.92,8.64-1.52s5.59-1.35,8.21-2.52c2.04-.91,4.07-2.04,5.62-3.68,2.52-2.66,3.73-6.27,4.19-9.85.53-4.15.1-8.42-.88-12.48s-2.54-8.02-4.78-11.55c-.99-1.56-2.12-3.05-3.44-4.35-.41-.4-.59-1.03-.88-1.53-.33-.57-.71-1.1-1.12-1.61-.81-1-1.78-1.86-2.84-2.59-4.88-3.34-11.4-3.07-16.51-.4-2.47,1.29-4.58,3.13-6.27,5.33-.43.56-.89,1.19-1.6,1.4-.8.24-1.76.08-2.59.06-1.72-.05-3.45-.11-5.17-.16-.82-.03-1.64-.05-2.46-.08-.92-.03-1.75-.05-2.31-.89-.86-1.29-1.48-2.83-2.06-4.27s-1-2.93-1.47-4.41c-.24-.76-.34-1.52-.34-2.31.01-1.93.54-3.84,1.19-5.64.77-2.11,1.8-4.13,3-6.04,1.13-1.8,2.42-3.51,3.95-4.99s3.18-2.39,5.22-3.01c6.06-1.84,12.47-1.01,18.69-.85,5.65.15,11.71-.23,16.59-3.4,4.22-2.74,6.92-7.26,8.15-12.07.63-2.46.92-5.04.84-7.58-.06-1.75-.51-3.48-1.04-5.14-1.41-4.4-3.48-8.58-5.54-12.7-1.85-3.71-3.9-7.37-5.46-11.22-2.02-4.95-6.75-8.05-12.03-8.4-5.83-.39-11.66,2.43-15.25,6.98-.4.51-.77,1.09-1.3,1.48-.71.52-1.62.4-2.44.38-1.72-.05-3.45-.11-5.17-.16-.82-.03-1.64-.05-2.46-.08s-1.86.11-2.54-.36c-.59-.41-.9-1.24-1.22-1.86-.38-.75-.74-1.52-1.07-2.3s-.61-1.51-.88-2.28-.68-1.63-.75-2.42c-.04-.42.18-.91.3-1.31.15-.51.31-1.01.49-1.51.74-2.17,1.64-4.28,2.65-6.33,2.15-4.41,4.77-8.72,8.12-12.33,1.45-1.57,3.07-3.03,4.93-4.09,2.19-1.24,4.72-1.74,7.22-1.84,5.52-.23,10.94,1.28,16.46,1.08,2.57-.09,5.15-.6,7.45-1.8,2.04-1.06,3.76-2.64,5.11-4.49,2.81-3.85,3.99-8.84,3.7-13.56-.26-4.23-1.77-8.39-3.26-12.32-1.71-4.53-3.68-8.97-5.86-13.3-.89-1.78-1.85-3.53-2.77-5.29-1.17-2.25-3.07-4.1-5.27-5.33-5.14-2.87-11.62-2.15-16.53.85-1.18.72-2.29,1.58-3.28,2.54-.49.47-.95.97-1.38,1.49s-.83,1.15-1.35,1.62c-.62.56-1.36.59-2.16.57-.9-.02-1.8-.06-2.71-.08-1.72-.05-3.45-.11-5.17-.16-.76-.02-1.61.06-2.34-.16-.85-.25-1.19-1.14-1.57-1.86-.76-1.47-1.42-3-1.98-4.56-.26-.72-.49-1.46-.7-2.19-.18-.63-.19-1.19-.14-1.84.08-1.03.3-2.05.6-3.04,1.38-4.45,4.5-8.28,7.86-11.4,3.57-3.32,7.76-6.12,12.29-7.96s9.74-2.33,14.62-3.21c5.19-.94,10.45-2.09,15.14-4.57,3.65-1.93,7.06-4.64,8.53-8.61,1.31-3.54,1.27-7.48.72-11.16-.64-4.27-2.05-8.43-3.96-12.29-1.81-3.66-4.12-7.18-7.09-10.01-.65-.62-1.34-1.2-2.06-1.74-.33-.25-.67-.48-1.02-.71-.17-.11-.35-.2-.51-.32-.27-.2-.33-.41-.49-.72-1.14-2.3-3.05-4.19-5.28-5.45-5.09-2.88-11.52-2.23-16.44.7-1.19.71-2.3,1.55-3.31,2.51-.49.46-.96.96-1.39,1.47s-.85,1.15-1.34,1.65c-.59.59-1.26.71-2.08.7-.89-.01-1.78-.05-2.67-.08-1.72-.05-3.45-.11-5.17-.16-.78-.02-1.62.04-2.39-.12-.91-.19-1.26-.95-1.65-1.7-.77-1.47-1.44-2.99-2.01-4.55-.7-1.93-1.26-3.94-1.81-5.93-.24-.86-.49-1.73-.58-2.62-.02-.22-.11-.62.01-.83.1-.17.46-.1.69-.19.96-.37,1.4-1.46,1.65-2.38.32-1.18.52-2.37.88-3.54,2.96-9.58,10.85-17.43,20.31-20.64,2.46-.84,5.01-1.32,7.6-1.53,2.8-.23,5.61-.22,8.41-.38,4.7-.27,10.38-1.05,13.65-4.86,2.4-2.8,2.69-6.69,2.33-10.21-.48-4.55-1.94-8.97-3.57-13.22s-3.41-8.11-5.15-12.15c-.47-1.09-.94-2.15-1.63-3.12-.75-1.04-1.65-1.97-2.67-2.75-2.16-1.67-4.76-2.64-7.48-2.9-5.77-.55-11.61,2.09-15.31,6.48-.44.52-.81,1.09-1.28,1.58-.61.64-1.28.78-2.15.77-1.71-.03-3.42-.1-5.13-.16-.82-.03-1.64-.05-2.46-.08s-1.79.05-2.63-.13-1.18-.8-1.55-1.5c-.4-.75-.77-1.51-1.12-2.28-1.19-2.65-2.31-5.51-2.16-8.46.12-2.47.96-4.87,2.18-7.01,2.5-4.35,6.73-7.98,11.61-9.35,3.11-.87,6.43-1.04,9.64-1s6.67.36,10,.66c5.64.5,11.29.86,16.87-.3,4.69-.98,9.37-3.02,12.53-6.74,3.52-4.13,4.46-9.6,3.66-14.86s-3.02-9.8-6.01-13.98-6.53-8.25-9.84-12.33c-1.55-1.91-3.09-3.83-4.5-5.85-.35-.51-.44-1.06-.63-1.64s-.44-1.19-.73-1.74c-.57-1.09-1.31-2.09-2.17-2.96-4.03-4.08-10.18-5.04-15.53-3.35-2.56.81-4.93,2.18-6.91,3.98-1,.91-1.81,1.94-2.66,2.98-.49.6-1.02,1.04-1.82,1.11s-1.55-.02-2.32-.04c-1.64-.05-3.28-.1-4.92-.15-.82-.03-1.64-.05-2.46-.08-.77-.02-1.6,0-2.14-.66-.46-.56-.77-1.31-1.09-1.95-.36-.73-.7-1.47-1.01-2.22-.61-1.49-1.13-3.02-1.55-4.58-.13-.47-.85-.27-.72.2.42,1.56.93,3.09,1.55,4.58.57,1.39,1.17,2.87,2,4.13s2.09,1.23,3.45,1.27c1.72.05,3.45.11,5.17.16.82.03,1.64.05,2.46.08.75.02,1.56.12,2.29-.1,1.27-.38,1.93-1.66,2.74-2.6,1.91-2.21,4.36-3.96,7.09-5.02,5.45-2.11,12-1.36,16.11,3.04.87.94,1.6,2.02,2.12,3.2.25.58.45,1.18.59,1.79.13.57.48.98.82,1.46,1.42,1.99,2.95,3.89,4.49,5.78,3.36,4.12,6.89,8.14,9.93,12.51s5.18,9.28,5.65,14.56-1.15,10.79-5.32,14.44c-3.79,3.32-8.91,4.82-13.83,5.37-6.03.67-12.06-.2-18.07-.65-3.35-.25-6.72-.39-10.06-.08-2.73.25-5.43.75-7.91,1.94-4.44,2.12-8.2,5.98-10.16,10.51-.93,2.14-1.46,4.49-1.33,6.83.08,1.38.45,2.67.88,3.97.5,1.49,1.09,2.95,1.77,4.36.52,1.1,1.07,2.67,2.29,3.16.64.25,1.36.23,2.03.25.86.03,1.72.05,2.58.08,1.72.05,3.45.11,5.17.16,1.37.04,2.64.15,3.68-.89.45-.45.81-1,1.22-1.49.47-.57.98-1.12,1.52-1.63,1.06-1,2.24-1.87,3.51-2.59,2.72-1.55,5.86-2.37,8.99-2.25,2.94.11,5.84,1.11,8.13,2.97,1.04.85,1.96,1.85,2.67,2.99.59.94.99,1.98,1.43,3,1.78,4.1,3.63,8.16,5.19,12.35s3.01,8.65,3.3,13.17c.23,3.61-.43,7.54-3.48,9.86-4.46,3.39-10.4,3.41-15.74,3.58-2.67.09-5.35.18-7.98.66-2.43.44-4.8,1.19-7.06,2.19-8.99,3.99-16.23,12.17-18.56,21.79-.26,1.08-.34,2.41-1.07,3.3-.18.22-.39.39-.66.46-.16.04-.33,0-.49.06-.25.09-.4.26-.49.51-.22.57-.06,1.3.04,1.88.16.91.42,1.81.68,2.69.63,2.13,1.22,4.29,2.04,6.36.57,1.44,1.21,2.88,1.98,4.23.28.5.62.97,1.14,1.25.61.32,1.34.32,2.01.34,1.72.05,3.45.11,5.17.16.82.03,1.64.05,2.46.08s1.6.12,2.38,0c1.39-.21,2.06-1.37,2.89-2.37.93-1.12,1.99-2.14,3.16-3,4.81-3.56,11.63-4.77,17.04-1.81,2.43,1.34,4.2,3.31,5.41,5.78.19.38.58.51.93.73.38.24.76.5,1.12.77.74.55,1.44,1.17,2.1,1.81,2.98,2.9,5.27,6.5,7.05,10.24s3.21,8.11,3.72,12.4c.44,3.65.34,7.62-1.29,10.99-1.98,4.09-6.43,6.72-10.49,8.36-4.97,2.01-10.31,2.9-15.56,3.8-2.53.43-5.1.8-7.6,1.42-2.13.53-4.19,1.35-6.15,2.33-4.39,2.18-8.45,5.16-11.83,8.71-3.05,3.19-5.81,7.09-6.72,11.48-.19.94-.32,1.91-.3,2.87.02.66.3,1.35.5,1.97.26.81.54,1.6.85,2.39.56,1.42,1.2,2.82,1.93,4.17.29.53.61,1.05,1.15,1.36.56.33,1.22.36,1.85.38,1.72.06,3.45.11,5.17.16.82.03,1.64.05,2.46.08s1.7.12,2.53.02c1.37-.16,2.06-1.24,2.86-2.23.91-1.13,1.96-2.16,3.12-3.04,4.82-3.66,11.74-4.93,17.2-1.93,2.33,1.28,4.28,3.26,5.37,5.7.37.83.88,1.61,1.3,2.42.48.89.94,1.8,1.39,2.7,2.19,4.4,4.18,8.91,5.88,13.52,1.47,3.99,2.94,8.21,2.96,12.51.03,4.83-1.51,9.89-4.87,13.45-8.18,8.64-20.64,1.63-30.65,3.79-4.4.95-7.76,3.91-10.56,7.31-3.11,3.78-5.61,8.09-7.63,12.54-.9,1.99-1.71,4.02-2.36,6.11-.13.43-.26.87-.38,1.31-.17.66.19,1.37.38,2,.47,1.5,1.04,2.97,1.69,4.39.32.7.66,1.39,1.02,2.07.3.56.62,1.16,1.17,1.52.52.33,1.14.4,1.74.43.89.04,1.78.06,2.66.08,1.72.05,3.45.11,5.17.16,1.35.04,2.9.32,4.02-.62.49-.41.85-.94,1.23-1.43.44-.56.91-1.09,1.41-1.59,1.03-1.03,2.19-1.94,3.43-2.69,2.63-1.59,5.68-2.5,8.76-2.52s5.87.84,8.28,2.58c1.11.8,2.1,1.8,2.88,2.92.64.92,1.06,1.92,1.5,2.94,3.45,8.1,8.46,15.56,10.99,24.05.54,1.83.84,3.62.81,5.53-.04,2.61-.46,5.21-1.28,7.69-1.69,5.12-5.19,9.5-10.26,11.55-5.54,2.24-11.68,1.87-17.52,1.6-3.11-.14-6.23-.26-9.34.05-2.71.26-5.63.78-8.06,2.08-1.57.84-2.91,2.14-4.07,3.47-1.42,1.63-2.65,3.44-3.71,5.33s-1.97,3.9-2.6,5.98c-.52,1.72-.91,3.57-.76,5.38.08.9.35,1.74.6,2.61.43,1.47.95,2.91,1.55,4.32.32.74.66,1.48,1.02,2.2.31.61.6,1.28,1.05,1.8.94,1.09,2.61.88,3.91.92,1.72.05,3.45.11,5.17.16.82.03,1.64.05,2.46.08.68.02,1.39.02,2.01-.3,1.15-.59,1.84-1.95,2.69-2.87.99-1.07,2.11-2.02,3.32-2.82,5.06-3.33,11.97-4.08,17.17-.64,1.1.73,2.08,1.62,2.9,2.65.43.53.8,1.11,1.13,1.71.28.52.44.98.86,1.4,1.33,1.34,2.47,2.85,3.46,4.46,2.24,3.62,3.77,7.68,4.69,11.82s1.25,8.4.53,12.53c-.61,3.52-2.07,7.01-4.9,9.32-2.06,1.69-4.67,2.79-7.18,3.62-2.78.92-5.67,1.5-8.55,2s-5.84.93-8.74,1.54c-1.4.29-2.68.93-3.88,1.71-3.22,2.08-5.96,4.93-8.45,7.82-2.84,3.29-5.42,6.82-7.71,10.52-1.8,2.91-3.6,6.02-4.55,9.33-.08.28-.19.58-.17.88.02.35.21.78.31,1.11.13.44.27.88.42,1.32.51,1.49,1.11,2.94,1.79,4.35.55,1.14,1.09,2.64,2.43,3.03.65.19,1.37.15,2.04.17.86.03,1.72.05,2.58.08,1.72.05,3.45.11,5.17.16,1.38.04,2.57.05,3.57-1.03.95-1.03,1.72-2.17,2.76-3.13s2.26-1.85,3.54-2.55c5.3-2.93,12.29-3.07,17.09.94,1.03.86,1.93,1.88,2.62,3.03.31.52.52,1.1.84,1.62.27.44.61.85.93,1.26,1.49,1.88,3.22,3.56,4.98,5.19,3.7,3.45,7.73,6.64,11.05,10.47,1.74,2,3.42,4.41,4.24,6.95.49,1.53.52,3.09-.07,4.6-.55,1.42-1.5,2.66-2.38,3.88-3.14,4.36-6.62,8.62-10.88,11.94-3.99,3.11-8.9,5.29-14.05,4.54s-9.53-4.43-14.17-6.84c-2.27-1.18-4.71-2.07-7.28-2.22s-5.1.43-7.41,1.48c-4.67,2.13-8.18,6.13-10.1,10.85-2.15,5.3-2.34,11.21-1.6,16.81l.74-.1c-.04-.14-.06-.31-.14-.44-.18-.31-.73-.19-.7.19.07.76.4,1.55.6,2.28.32,1.19.64,2.38.96,3.57.06.21.11.41.17.62.02.07.06.38.05.16l.7-.19c.1.18,0-.07-.03-.13-.06-.21-.12-.43-.18-.64-.26-.94-.52-1.87-.78-2.81-.13-.48-.79-.26-.72.2.49,3.6,1.5,7.1,2.99,10.41.34.75.7,1.49,1.09,2.22s.76,1.37,1.52,1.69,1.56.25,2.32.28c.98.03,1.97.06,2.95.09,1.94.06,3.89.18,5.83.18.76,0,1.45-.14,2.05-.61s1.02-1.14,1.5-1.73c2.14-2.63,5.03-4.64,8.25-5.71,3.4-1.12,7.2-1.2,10.56.13,2.9,1.15,5.42,3.37,6.74,6.21.34.74.49,1.6.72,2.38.24.85.48,1.7.73,2.54.58,2.02,1.16,4.05,1.71,6.08,1.3,4.76,2.51,9.55,3.4,14.41.82,4.44,1.48,9.04,1.14,13.57-.13,1.68-.4,3.42-1.1,4.97-.82,1.83-2.31,3.02-4.03,4-5.64,3.21-12.62,2.72-18.81,1.88-6.93-.94-14.69-2.55-21.37.39-4.7,2.07-9.04,6.95-8.85,12.34.04,1.28.37,2.5.92,3.65l.42-.55c-1.2-.3-.58,2.59-.52,3.05.27,1.95.67,3.89.89,5.85.04.38.09.77.08,1.16,0,.1-.03.27-.02.32.03.1-.05.05-.01.06.01,0,.19-.12.26-.1-.28-.07-.54.18-.46.46.79,2.94,1.88,6.03,3.5,8.63.77,1.23,1.92,1.31,3.25,1.35,1.72.05,3.45.11,5.17.16.78.02,1.56.05,2.34.07s1.52.11,2.26,0c1.39-.21,2.07-1.38,2.89-2.37,1.79-2.17,4.09-3.91,6.67-5.05,5.41-2.39,12.14-1.87,16.46,2.42.95.95,1.74,2.04,2.32,3.25.44.93,1.26,1.65,1.9,2.46,1.45,1.83,2.7,3.83,3.79,5.89,2.27,4.29,3.98,9.03,4.47,13.88.22,2.18.2,4.41-.3,6.54-.53,2.25-1.69,4.16-3.05,6.02-3.29,4.49-7.67,8.07-12.38,10.97-2.34,1.44-4.77,2.72-7.26,3.89-2.09.98-4.16,1.88-6.14,3.07-8.64,5.18-15.89,12.36-24.48,17.59-.86.52-1.74,1.02-2.64,1.47-.11.06-.19.2-.19.32.11,6.21.47,12.4,1.09,18.58.02.22.16.35.38.38,3.69.43,7.51.25,11.21.18s7.42-.28,11.13-.39c1.74-.05,3.49.02,5.22.01s3.48-.02,5.22-.04c3.48-.04,6.97-.11,10.45-.18,6.92-.15,13.85-.32,20.77-.38,6.4-.05,12.81.05,19.21.05,6.36,0,12.72-.03,19.08-.08,12.92-.09,25.85-.25,38.77-.29,12.8-.05,25.6.1,38.4.16,13.52.07,27.04.08,40.56-.03,13.51-.1,27.02-.32,40.53-.69,13.58-.38,27.16-.92,40.72-1.68,13.45-.76,26.89-1.73,40.3-2.98,6.64-.62,13.28-1.3,19.9-2.07,3.32-.38,6.63-.78,9.95-1.2s6.73-.62,10.1-.85c13.49-.95,26.99-1.84,40.49-2.65,13.37-.8,26.75-1.52,40.13-2.14s26.92-1.13,40.38-1.52c13.46-.39,26.93-.64,40.4-.75s27.12-.06,40.67.15,27.47.61,41.2,1.2c6.89.29,13.78.63,20.67,1.02s13.83.85,20.77.85,13.58-.13,20.37.13c6.64.25,13.27.73,19.9,1.18s13.59.91,20.39,1.09c3.36.09,6.72.15,10.08.02,3.09-.11,6.17.19,9.25.15,1.32-.01,2.22-.52,2.42-1.9.15-1.07.07-2.2.08-3.28.02-2.52.03-5.04.03-7.56,0-5.19-.04-10.37-.12-15.56-.09-6.09-.32-12.17-.42-18.26-.11-6.79-.17-13.57-.2-20.36-.06-13.55-.03-27.11-.21-40.66-.09-6.71-.39-13.42-.42-20.12-.02-5.17-.05-10.34-.1-15.51-.1-10.98-.25-21.96-.42-32.95-.19-11.69-.4-23.38-.63-35.07s-.47-23.86-.71-35.79-.47-23.68-.68-35.53c-.21-11.42-.39-22.85-.54-34.27-.14-10.54-.24-21.09-.29-31.63-.03-6.66-.46-13.34-.7-20s-.47-13.75-.65-20.63c-.36-13.55-.55-27.11-.46-40.67s.48-27.25,1.28-40.85c.1-1.71.21-3.42.32-5.13.1-1.5.07-3,.07-4.5,0-2.93,0-5.87.01-8.8,0-5.96.01-11.92.02-17.87.01-12.37.02-24.75.06-37.12.04-12.83.09-25.67.19-38.5.1-13.01.24-26.01.44-39.01.2-13.16.47-26.32.81-39.47s.77-26.05,1.3-39.07c.54-13.2,1.2-26.39,2.1-39.57.95-13.87,2.07-27.73,3.36-41.58,1.24-13.27,2.63-26.52,4.17-39.76.02-.19-.19-.39-.38-.38-3.6.21-7.22.25-10.83.12-1.8-.07-3.61-.18-5.4-.33s-3.59-.43-5.38-.58c-.64-.05-1.28.42-1.84.68-.65.3-1.3.6-1.95.9-1.3.6-2.61,1.2-3.92,1.79-2.63,1.18-5.28,2.34-7.93,3.47-10.79,4.6-21.76,8.78-32.85,12.59s-22.8,7.41-34.36,10.58-23.78,6.14-35.79,8.7c-12.08,2.58-24.22,4.83-36.42,6.77-12.32,1.96-24.68,3.61-37.08,4.96-12.32,1.34-24.66,2.39-37.03,3.14s-24.39,1.21-36.59,1.39-23.99.08-35.98-.31-23.26-1.02-34.87-1.97c-14.1-1.15-28.17-2.56-42.23-4.14s-28.47-3.38-42.68-5.28-28.51-3.92-42.74-5.99-28.3-4.16-42.45-6.25c-14.23-2.1-28.46-4.19-42.7-6.19s-28.23-3.89-42.36-5.65c-14.18-1.77-28.38-3.39-42.6-4.8-7.15-.71-14.31-1.36-21.47-1.96-3.06-.25-6.14-.6-9.22-.64-2.42-.03-4.83.13-7.23.45-10.39,1.36-20.38,5.34-29.41,10.55s-17.82,12.11-24.76,20.25c-3.03,3.55-5.75,7.39-7.9,11.53-.22.43.42.81.65.38h0Z"/>
  </g>
  <path class="cls-1" d="M210.95,66.28c-59.91-.91-119.56-2.57-178.23-5.3v63.03h20.63c.46-12.86,32.54-17.66,32.14,7.97-.42,27.19-31.97,20.22-32.8,6.55l-19.97-.03v70.45c3.59,0,19.94,0,19.94,0,.46-12.86,32.54-17.66,32.14,7.97-.42,27.19-31.97,20.22-32.8,6.55l-19.97-.03v70.55s20.63,0,20.63,0c.46-12.86,32.54-17.66,32.14,7.97-.42,27.19-31.97,20.22-32.8,6.55l-19.97-.03v70.27s20.63,0,20.63,0c.46-12.86,32.54-17.66,32.14,7.97-.42,27.19-31.97,20.22-32.8,6.55l-19.97-.03s0,64.5,0,70.54c3.59,0,19.94,0,19.94,0,.46-12.86,32.54-17.66,32.14,7.97-.42,27.19-31.97,20.22-32.8,6.55l-19.97-.03v70.27s20.63,0,20.63,0c.46-12.86,32.54-17.66,32.14,7.97-.42,27.19-31.97,20.22-32.8,6.55l-19.97-.03v70.34c3.37,0,20.03,0,20.03,0,.46-12.86,32.54-17.66,32.14,7.97-.42,27.19-31.97,20.22-32.8,6.55l-19.97-.03v70.48c3.49,0,19.98,0,19.98,0,.46-12.86,32.54-17.66,32.14,7.97-.42,27.19-31.97,20.22-32.8,6.55l-19.97-.03s0,65.96,0,70.73h2.66s20.63,0,20.63,0c.46-12.86,32.54-17.66,32.14,7.97-.42,27.19-31.97,20.22-32.8,6.55l-19.97-.03v71c19.95.3,33.39,3.01,53.34,3.31,81.89,1.23,163.88,2.46,245.61-2.73,35.45-2.25,70.81-5.71,106.23-8.35,111.8-8.32,230.71-9.73,342.54-1.64-8.85-241.49-9.35-483.28-1.5-724.81.75-23.03,2.24-69.73,1.16-92.75-9.48.27-57.1-.26-66.58,0-68.89,1.87-137.79,3.22-206.7,4.03-97.11,1.14-196.85,1.69-295.9.19Z"/>
  <path class="cls-2" d="M134.32,60.09c-1.91-11.03-4.66-22.17-4.6-33.43.02-2.97,0-6.35,2.01-8.77s5.82-4.05,8.64-5.42c6.11-2.98,12.81-4.95,19.56-5.76,6.19-.75,12.99-1.64,15.26,5.49,1.85,5.83,2.04,12.46,2.83,18.5,1.79,13.56,3.61,27.11,5.37,40.68s3.42,27.25,4.64,40.93c.61,6.83,1.11,13.68,1.46,20.53.29,5.7,1.88,13.95-.12,19.43-1.64,4.52-10.07,11.04-15.08,10.94-6.49-.13-7.78-13.5-9.02-18.33-3.36-13.06-6.33-26.23-8.89-39.47-1.24-6.42-3.12-12.78-4.12-19.24-.6-3.91-1.16-8.5,2.04-11.26.78-.68,2.24-1.68,3.19-2.1,3.19-1.41,4.6.95,5.98,3.81,3.12,6.46,4.26,14.78,5.55,21.78,1.43,7.78,2.36,15.64,3.12,23.52.37,3.81,6.38,3.85,6,0-1.62-16.57-3.19-35.22-10.24-50.54-2.46-5.34-7.76-6.86-12.87-4.1-5.41,2.92-8.68,6.14-9.12,12.44-.53,7.65,2.3,15.16,3.77,22.57,1.75,8.82,3.47,17.64,5.47,26.41s4.18,17.49,6.53,26.17c1.58,5.84,3.07,12.5,9.83,14.08,6.34,1.47,11.92-2.57,16.62-6.25,5.63-4.41,7.87-9.23,7.82-16.36-.12-18.2-1.98-36.45-4.06-54.51s-4.69-36.89-7.13-55.33c-1.05-7.93-1.55-16.18-3.32-23.98-1.17-5.16-3.88-10.24-9.34-11.72-7.64-2.07-17.72.29-25.06,2.6-6.92,2.18-16.97,5.65-21.04,12.12-3.69,5.86-2.42,14.63-1.66,21.11.99,8.42,2.71,16.72,4.16,25.06.66,3.8,6.44,2.19,5.79-1.6h0Z"/>
</svg>