<?xml version="1.0" encoding="UTF-8"?>
<svg id="Layer_1" data-name="Layer 1" xmlns="http://www.w3.org/2000/svg" viewBox="0 0 228.42 147.73">
  <defs>
    <style>
      .cls-1 {
        fill: #f6bcc9;
      }

      .cls-2 {
        fill: #ffdde3;
      }
    </style>
  </defs>
  <g>
    <path class="cls-2" d="M71.53,18.25h153.92c1.08,0,1.96,1.03,1.96,2.31v123.86c0,1.28-.88,2.31-1.96,2.31H2.96c-1.08,0-1.96-1.03-1.96-2.31V20.56c0-1.28.88-2.31,1.96-2.31h.99"/>
    <path class="cls-1" d="M225.46,147.73H2.96c-1.63,0-2.96-1.49-2.96-3.31V20.56c0-1.83,1.33-3.31,2.96-3.31h.99v2h-.99c-.52,0-.96.6-.96,1.31v123.86c0,.71.44,1.31.96,1.31h222.5c.52,0,.96-.6.96-1.31V20.56c0-.71-.44-1.31-.96-1.31H71.53v-2h153.92c1.63,0,2.96,1.49,2.96,3.31v123.86c0,1.83-1.33,3.31-2.96,3.31Z"/>
  </g>
  <g>
    <path class="cls-2" d="M71.58,18.25c-3.75-.13-6.03-4.8-7.96-11.5C61.68.04,54.18,1.07,54.18,1.07c0,0-27.98.39-33.27.26,0,0-6.59-.97-8.92,5.61-2.33,6.57-2.81,11.21-8.14,11.31"/>
    <path class="cls-1" d="M3.87,19.25l-.04-2c3.61-.07,4.51-2.38,6.2-7.6.31-.96.64-1.97,1.02-3.04C13.09.84,18.41-.02,20.99.33c5.24.12,31.67-.24,33.12-.26,2.91-.37,8.76.48,10.47,6.39,2.13,7.36,4.3,10.69,7.04,10.78l-.07,2c-4.77-.16-7.17-6.27-8.89-12.22-1.67-5.77-8.07-5-8.34-4.96h-.12c-1.14.02-28.06.4-33.31.27h-.12c-.23-.04-5.81-.75-7.83,4.94-.37,1.05-.7,2.05-1,2.99-1.61,4.97-2.88,8.89-8.06,8.98Z"/>
  </g>
</svg>