<svg width="267" height="163" viewBox="0 0 267 163" fill="none" xmlns="http://www.w3.org/2000/svg">
<path d="M157.108 17.9748C157.108 17.9748 149.724 31.7981 151.423 101.495C151.423 101.495 151.423 156.324 175.142 157.464C198.861 158.603 203.122 153.347 200.001 135.734C196.879 118.121 199.151 116.277 199.151 116.277C199.151 116.277 202.491 109.387 212.502 111.943C212.502 111.943 216.837 112.698 216.837 119.515C216.837 126.332 210.114 140.351 222.616 154.93C222.616 154.93 236.156 163.787 251.308 150.908C251.308 150.908 255.853 148.446 260.775 121.744C265.697 95.041 265.32 61.1363 265.32 61.1363C265.32 61.1363 266.264 31.9724 259.069 15.8694C251.874 -0.226276 231.226 5.07361 231.226 5.07361C231.226 5.07361 215.341 5.37854 215.341 38.4774C215.341 38.4774 217.091 59.5971 210.368 61.1072C203.645 62.6173 200.422 57.695 201.322 47.3783C202.222 37.0617 204.059 24.2839 201.307 16.5156C198.556 8.74723 188.05 5.43662 182.845 5.62538C177.639 5.81414 162.792 3.99185 157.1 17.9748H157.108Z" fill="#FFDDE3"/>
<path d="M233.956 158.952C226.899 158.952 222.101 155.902 222.013 155.844L221.883 155.757L221.781 155.641C211.697 143.88 213.722 132.401 215.058 124.807C215.428 122.724 215.741 120.923 215.741 119.515C215.741 113.677 212.343 113.017 212.307 113.01L212.227 112.995C203.246 110.701 200.248 116.502 200.124 116.756L200.015 116.966L199.935 117.032C199.718 117.438 198.425 120.647 201.068 135.545C202.738 144.947 202.164 150.203 199.093 153.695C195.492 157.79 188.537 159.206 175.084 158.56C150.61 157.383 150.327 103.789 150.327 101.51C148.672 33.8597 155.518 18.7006 156.106 17.5317C161.457 4.46351 174.525 4.52885 180.79 4.56515C181.56 4.56515 182.242 4.57241 182.802 4.55063C187.956 4.36913 199.326 7.67249 202.331 16.1668C204.756 23.0276 203.74 33.5621 202.832 42.855C202.68 44.4377 202.527 45.9841 202.397 47.487C201.888 53.3096 202.723 57.3462 204.807 59.1685C206.07 60.272 207.856 60.5697 210.114 60.0615C214.339 59.1104 214.884 46.3834 214.238 38.5788V38.4917C214.238 5.90827 229.368 4.10051 231.06 4.00612C232.802 3.59956 252.854 -0.654872 260.049 15.4408C267.266 31.5801 266.431 59.9816 266.395 61.1868C266.395 61.4772 266.721 95.4546 261.835 121.954C257.261 146.747 252.905 151.111 251.954 151.786C245.398 157.347 239.075 158.959 233.942 158.959L233.956 158.952ZM223.335 154.102C224.765 154.98 236.875 161.754 250.604 150.08L250.793 149.949C250.909 149.862 255.083 146.638 259.708 121.54C264.558 95.244 264.238 61.4845 264.238 61.1433C264.246 60.8093 265.095 31.9939 258.082 16.312C251.344 1.25454 232.308 5.9228 231.502 6.12608L231.256 6.16238C231.118 6.16238 216.452 7.00455 216.438 38.4336C216.641 40.8948 218.006 60.5116 210.615 62.1742C207.638 62.8421 205.206 62.3847 203.391 60.7948C200.727 58.4643 199.667 53.9194 200.248 47.2837C200.378 45.7808 200.531 44.2199 200.683 42.6372C201.562 33.5693 202.556 23.289 200.291 16.8856C197.779 9.78518 187.767 6.53991 182.889 6.72141C182.301 6.74319 181.589 6.73593 180.783 6.73593C174.532 6.69963 162.894 6.64155 158.11 18.3884L158.066 18.4828C157.95 18.7079 150.85 33.4749 152.512 101.473C152.512 102.04 152.781 155.307 175.2 156.382C187.731 156.977 194.396 155.75 197.467 152.258C200.008 149.368 200.451 144.482 198.934 135.93C196.24 120.763 197.409 116.719 198.258 115.652C198.868 114.578 202.883 108.378 212.75 110.89C213.338 111.013 217.926 112.218 217.926 119.529C217.926 121.126 217.592 123.014 217.207 125.199C215.871 132.793 214.042 143.175 223.335 154.116V154.102ZM199.856 117.104L199.841 117.119C199.841 117.119 199.856 117.112 199.856 117.104Z" fill="#EF8DAA"/>
<path d="M96.1377 14.4616C96.1377 14.4616 63.4671 40.3729 86.7648 79.9696C86.7648 79.9696 92.3551 91.9198 114.985 104.894C114.985 104.894 127.204 109.25 120.19 117.584C113.177 125.919 92.0647 111.428 92.0647 111.428C92.0647 111.428 74.7348 101.576 80.5139 133.774C86.2929 165.973 133.825 160.731 133.825 160.731C133.825 160.731 166.967 157.072 177.008 126.202C187.049 95.332 152.955 70.3282 152.955 70.3282C152.955 70.3282 130.064 54.0873 128.619 51.8149C127.175 49.5425 125.541 43.0084 129.091 39.8139C132.642 36.6194 141.238 32.5683 142.515 47.27C142.515 47.27 142.733 55.2271 157.224 52.9547C171.715 50.6823 173.276 31.5083 173.276 31.5083C173.276 31.5083 178.148 3.81097 128.619 1.11021C128.619 1.11021 110.193 0.115573 96.1377 14.4616Z" fill="#FFDDE3"/>
<path d="M126.529 162.147C121.911 162.147 115.631 161.798 109.104 160.397C92.1446 156.745 81.8861 147.605 79.4394 133.97C77.1597 121.243 78.1689 113.257 82.4523 110.23C86.7286 107.209 92.3624 110.353 92.602 110.484L92.6819 110.534C98.3302 114.404 114.135 123.102 119.356 116.887C120.967 114.97 121.563 113.17 121.127 111.536C120.161 107.95 114.673 105.939 114.615 105.924L114.44 105.844C92.2753 93.1392 86.2784 81.4722 85.7993 80.4848C73.5587 59.641 76.8258 42.5652 81.7263 31.9146C86.8592 20.7485 94.6131 14.3015 95.4044 13.6554C109.634 -0.828545 127.901 -0.022671 128.678 0.0208897C148.49 1.10265 162.176 6.22829 169.356 15.2744C175.549 23.0718 174.474 30.8982 174.351 31.6532C174.242 32.7931 172.166 51.7202 157.391 54.0362C151.256 54.9945 146.748 54.3193 143.975 52.0179C141.528 49.9778 141.426 47.4149 141.426 47.3133C140.983 42.224 139.553 39.0222 137.31 38.1365C135.045 37.2435 131.916 38.7464 129.825 40.634C126.732 43.4219 128.387 49.426 129.541 51.241C130.434 52.6205 142.595 61.652 153.587 69.4494C153.957 69.718 162.35 75.9254 169.632 86.0606C179.353 99.5789 182.264 113.576 178.046 126.543C167.911 157.725 134.29 161.784 133.948 161.82C133.709 161.849 130.848 162.154 126.529 162.154V162.147ZM86.7866 111.101C85.7339 111.101 84.6449 111.333 83.7011 112.008C81.2762 113.729 78.9457 118.869 81.5811 133.585C87.1133 164.405 133.237 159.7 133.702 159.649C134.028 159.613 166.27 155.685 175.97 125.861C185.648 96.1086 152.643 71.4532 152.309 71.2064C148.469 68.4838 129.186 54.7331 127.697 52.4026C126.173 50.0068 124.198 42.754 128.358 39.0077C130.877 36.7426 134.762 34.7896 138.101 36.1037C141.216 37.3306 143.06 41.0551 143.597 47.1826C143.597 47.306 143.706 48.9904 145.412 50.3771C146.973 51.6476 150.262 52.9472 157.05 51.8799C170.51 49.7672 172.173 31.6024 172.187 31.4209L172.202 31.3193C172.216 31.2467 173.4 23.8268 167.614 16.5812C160.825 8.07962 147.685 3.23712 128.561 2.19893C128.38 2.19167 110.44 1.42209 96.9145 15.2236L96.8129 15.3107C96.733 15.376 88.7396 21.8158 83.6648 32.8947C76.8911 47.6981 78.2487 63.3436 87.7014 79.4103L87.7522 79.5047C87.8031 79.6208 93.524 91.3096 115.45 103.899C116.299 104.218 122.035 106.527 123.232 110.956C123.871 113.315 123.131 115.783 121.025 118.281C119.232 120.415 116.669 121.236 113.802 121.236C104.741 121.236 92.5584 113.083 91.4985 112.357C91.2081 112.204 89.0736 111.101 86.7939 111.101H86.7866Z" fill="#EF8DAA"/>
<path d="M28.4665 9.55391C28.4665 9.55391 -14.1504 44.6276 6.87491 121.549C6.87491 121.549 26.7604 175.172 73.3558 156.992C119.944 138.813 101.198 100.175 101.198 100.175C101.198 100.175 93.2413 82.5617 70.5171 100.741C70.5171 100.741 49.637 120.677 47.3646 96.8133C45.0922 72.9493 46.5079 60.4909 46.5079 60.4909C46.7693 57.173 46.7547 35.6686 62.6108 58.9372C76.3905 79.1567 113.606 59.9319 97.2706 28.256C80.9281 -3.41992 51.8078 1.69121 51.8078 1.69121C51.8078 1.69121 37.5054 2.49708 28.4665 9.55391Z" fill="#FFDDE3"/>
<path d="M54.7477 161.842C48.7799 161.842 43.0589 160.622 37.6066 158.175C15.8843 148.432 6.25013 123.007 5.85082 121.926L5.82178 121.831C-5.11922 81.7917 1.39311 53.2014 8.78391 36.2708C16.8209 17.8591 27.3263 9.07437 27.7691 8.71136L27.7909 8.69684C36.808 1.66179 50.5514 0.674413 51.6912 0.609072C53.3393 0.354968 82.1111 -3.4929 98.2286 27.7547C107.079 44.9103 100.661 58.7699 90.3731 64.8974C81.5303 70.1683 68.8396 70.0231 61.7029 59.5467C54.8857 49.5423 51.8001 49.1212 50.791 49.4043C49.0413 49.8908 47.9813 53.3538 47.6328 59.6992C47.611 60.0549 47.5965 60.3526 47.582 60.5704C47.5675 60.7301 46.2026 73.2611 48.4387 96.704C48.9977 102.541 50.7111 106.033 53.5425 107.093C59.7427 109.409 69.66 100.051 69.7544 99.9493L69.827 99.8839C78.4302 93.0013 86.0316 90.2933 92.4132 91.8252C99.2958 93.4805 102.069 99.4629 102.185 99.717C102.49 100.334 109.794 115.74 103.449 131.945C99.0054 143.278 89.0155 152.041 73.7475 158.001C67.1988 160.557 60.8462 161.835 54.7477 161.835V161.842ZM7.9127 121.214C8.36282 122.39 18.0333 147.009 38.5141 156.193C48.9832 160.883 60.5703 160.811 72.9561 155.976C87.6216 150.255 97.1976 141.906 101.409 131.175C107.42 115.871 100.283 100.791 100.211 100.646C100.174 100.566 97.7131 95.3318 91.876 93.9452C86.1913 92.5948 79.2434 95.1576 71.2282 101.561C70.4223 102.323 60.1202 111.87 52.7875 109.133C49.1066 107.761 46.9141 103.652 46.2752 96.9146C44.0173 73.2103 45.404 60.4905 45.4185 60.3671C45.433 60.2001 45.4475 59.917 45.462 59.583C45.6581 55.9747 46.0646 48.4605 50.2102 47.3062C53.528 46.3769 57.7534 49.8762 63.5034 58.3198C69.8851 67.6781 81.2907 67.7724 89.2623 63.0243C98.6714 57.4195 104.494 44.649 96.2974 28.7493C89.6834 15.9279 80.2307 7.65139 68.208 4.16653C59.22 1.56015 52.0687 2.75081 51.9961 2.76533L51.8727 2.77985C51.7348 2.78711 37.8171 3.65106 29.1485 10.403C28.7783 10.7079 18.4471 19.5144 10.7296 37.2654C3.51306 53.8548 -2.83228 81.8861 7.90544 121.221L7.9127 121.214Z" fill="#EF8DAA"/>
</svg>
