<?xml version="1.0" encoding="UTF-8"?>
<svg id="Layer_1" data-name="Layer 1" xmlns="http://www.w3.org/2000/svg" viewBox="0 0 719.46 947.23">
  <defs>
    <style>
      .cls-1 {
        fill: #fef3ed;
      }

      .cls-2 {
        fill: #f7729b;
      }

      .cls-3 {
        opacity: .2;
      }

      .cls-4 {
        fill: gray;
      }

      .cls-5 {
        fill: #fbeda6;
      }

      .cls-6 {
        opacity: .22;
      }
    </style>
  </defs>
  <g class="cls-6">
    <path class="cls-4" d="M664.74,272.2c2.57,30.08,5.1,59.98,7.49,88.92,5.52,54.11,13.56,132.37,19.07,186.47,3.76,42.82,9.31,107.31,13.06,150.13,2.59,41.5,7.02,88.6,11,129.92,1.22,11.37,2.45,22.74,3.67,34.11.06.53.07,1.18-.3,1.46-.15.12-.34.14-.53.15-7.79.65-16.03,2.21-23.21,3.76-22.85,3.17-51.35,5.66-74.34,6.52,1.03,1.39-10.08,4.2-9.05,5.59-49.6-.83-101.3,12.26-153.7,20.57-43.41,5.7-86.82,11.4-130.23,17.1-14.42,1.89-28.84,3.79-43.26,5.68-8.6,1.13-17.21,2.26-25.81,3.39-44.51,5.68-95.85,13.65-140.36,19.33-10.65-.05-22.38.27-32.98,1.5-.63.07-1.54.22-1.97-.36-.28-.37-.17-1.03-.23-1.53-.62-5.54-.82-11.14-.59-16.72,15.72-58.38,38.88-121.14,60.5-176.57,46.85-120.14,93.88-240.68,153.07-352.2s131.28-214.46,220.62-289.37c20.73-17.38,42.32-33.2,64.61-47.34,10.91-6.92,35.93-23.28,47.89-19.87,5.47-2.19,11.11-3.71,16.82-4.53,1.99,34.82,4.58,69.6,7.77,104.28,3.47,41.97,7.25,85.98,10.97,129.6Z"/>
    <path class="cls-4" d="M664.37,272.2c1.12,13.12,2.24,26.24,3.35,39.36,1.09,12.84,2.17,25.68,3.23,38.51.47,5.6.93,11.21,1.5,16.8.49,4.81.98,9.61,1.47,14.42,1.06,10.4,2.13,20.8,3.19,31.19,1.12,10.91,2.23,21.82,3.35,32.73,1.13,11.07,2.27,22.14,3.4,33.21,1.1,10.74,2.2,21.48,3.3,32.22,1.02,9.92,2.03,19.85,3.04,29.77.95,9.3,1.74,18.62,2.55,27.94.9,10.38,1.81,20.75,2.71,31.13.94,10.86,1.88,21.73,2.83,32.59.93,10.72,1.86,21.44,2.79,32.16.84,9.71,1.69,19.41,2.54,29.12.47,5.37.79,10.75,1.15,16.12.41,5.98.85,11.96,1.3,17.94.94,12.33,1.97,24.65,3.05,36.97,1.07,12.21,2.19,24.42,3.34,36.63,1.14,12.14,2.29,24.27,3.59,36.39.7,6.51,1.4,13.02,2.1,19.52.17,1.61.37,3.21.52,4.82.02.27.08.62,0,.88-.15.44-.75.38-1.14.42-.78.07-1.56.15-2.33.23-3.1.34-6.18.8-9.26,1.32s-5.92,1.08-8.86,1.7c-2.76.58-5.55.93-8.35,1.28-5.64.72-11.28,1.37-16.93,1.96-11.69,1.22-23.41,2.2-35.14,2.92-5.32.33-10.65.6-15.98.8-.27.01-.49.32-.32.56.03.05.03-.03.02-.01-.02.04-.09.12-.15.18-.21.22-.5.37-.75.51-.81.46-1.68.82-2.53,1.18-1.67.71-3.55,1.28-5.04,2.35-.42.3-.97.82-.6,1.37l.32-.56c-13.62-.22-27.25.6-40.79,2.02-13.87,1.46-27.66,3.56-41.41,5.9s-28.09,5.04-42.13,7.59c-7.07,1.28-14.15,2.54-21.24,3.72-3.61.6-7.22,1.21-10.85,1.69s-7.26.95-10.89,1.43c-14.48,1.9-28.97,3.8-43.45,5.71-14.48,1.9-28.97,3.8-43.45,5.71s-29.04,3.81-43.55,5.72c-14.48,1.9-28.95,3.8-43.43,5.7-13.27,1.74-26.55,3.46-39.81,5.28s-26.8,3.75-40.2,5.66-26.78,3.82-40.18,5.67c-6.57.91-13.15,1.81-19.73,2.68-3.15.42-6.3.83-9.46,1.24-.79.1-1.58.2-2.36.3s-1.65.05-2.47.05c-1.69,0-3.38,0-5.07.03-6.89.09-13.78.35-20.64.94-1.67.15-3.34.31-5.01.5-.56.06-1.7.35-1.97-.34-.11-.28-.05-.67-.07-.97-.03-.47-.1-.93-.14-1.4-.36-3.59-.54-7.21-.55-10.82,0-1.78-.16-3.73.31-5.45.43-1.6.87-3.21,1.31-4.81.89-3.23,1.8-6.45,2.72-9.67,1.87-6.52,3.81-13.03,5.8-19.52,4.05-13.2,8.32-26.33,12.76-39.4,4.46-13.14,9.08-26.22,13.82-39.26s9.43-25.55,14.28-38.27c4.81-12.6,9.71-25.17,14.62-37.73,5.12-13.12,10.24-26.24,15.39-39.35s10.32-26.2,15.53-39.28,10.45-26.11,15.76-39.13,10.65-25.97,16.08-38.92,10.92-25.8,16.51-38.65,11.21-25.48,16.97-38.16c5.76-12.66,11.62-25.28,17.62-37.83s12.07-24.95,18.32-37.32,12.45-24.32,18.91-36.36c6.11-11.39,12.37-22.71,18.78-33.94s12.88-22.2,19.57-33.15,13.45-21.67,20.44-32.34,14.08-21.12,21.4-31.49c7.25-10.28,14.69-20.43,22.33-30.43,7.59-9.93,15.38-19.71,23.37-29.32s15.98-18.79,24.29-27.91,16.61-17.8,25.23-26.39,17.3-16.78,26.27-24.82c9.55-8.55,19.36-16.83,29.41-24.79,10.89-8.62,22.07-16.86,33.52-24.71,8.97-6.14,18.09-12.1,27.39-17.73,4.2-2.54,8.46-4.98,12.84-7.19s8.63-4.11,13.2-5.46c3.37-.99,7.1-1.8,10.61-1.13.35.07.77.26,1.12.22s.78-.31,1.11-.43c.37-.14.74-.28,1.12-.42,1.56-.57,3.14-1.08,4.73-1.55,3.23-.94,6.53-1.65,9.86-2.13l-.47-.36c.88,15.42,1.88,30.83,3,46.23,1.11,15.31,2.34,30.61,3.68,45.91,1.32,14.98,2.57,29.96,3.83,44.94s2.56,30.28,3.85,45.42,2.6,30.47,3.9,45.71c.16,1.89.32,3.79.48,5.68.04.48.79.48.75,0-1.31-15.32-2.62-30.65-3.92-45.97-1.29-15.13-2.58-30.25-3.85-45.38s-2.45-29.89-3.79-44.83c-1.38-15.33-2.64-30.67-3.78-46.02-1.14-15.32-2.16-30.64-3.07-45.98-.11-1.91-.22-3.81-.33-5.72-.02-.27-.23-.4-.47-.36-3.45.5-6.86,1.24-10.2,2.23-1.67.49-3.32,1.04-4.95,1.65-.58.21-1.27.69-1.87.54-.42-.1-.84-.17-1.26-.23-3.78-.51-7.69.42-11.27,1.55-4.54,1.45-8.9,3.45-13.14,5.62s-8.58,4.67-12.75,7.21c-9.46,5.76-18.75,11.83-27.88,18.12-11.36,7.82-22.45,16.04-33.26,24.62-10.01,7.95-19.77,16.21-29.28,24.74-9.05,8.12-17.87,16.49-26.47,25.08-8.64,8.63-17.06,17.47-25.27,26.51-8.32,9.16-16.42,18.51-24.32,28.03s-15.7,19.35-23.26,29.26-15.06,20.17-22.31,30.46-14.51,21.01-21.49,31.7c-7,10.71-13.81,21.54-20.47,32.47s-13.26,22.16-19.65,33.37-12.68,22.63-18.79,34.06c-6.46,12.08-12.76,24.25-18.93,36.49s-12.39,24.97-18.39,37.56-11.84,25.18-17.59,37.85-11.45,25.55-17.03,38.39c-5.58,12.84-11.06,25.72-16.47,38.63s-10.77,25.93-16.07,38.93-10.6,26.23-15.83,39.37c-5.21,13.08-10.37,26.18-15.52,39.28s-10.3,26.3-15.43,39.46-9.83,25.21-14.64,37.85c-4.87,12.78-9.65,25.6-14.31,38.46s-9.39,26.29-13.84,39.51c-4.41,13.07-8.64,26.19-12.66,39.38-1.97,6.48-3.88,12.98-5.73,19.49-.91,3.21-1.81,6.43-2.69,9.65-.22.8-.44,1.6-.65,2.4s-.17,1.67-.19,2.51c-.04,1.81-.04,3.62.01,5.42s.14,3.69.29,5.53c.07.86.14,1.72.23,2.57.08.77.06,1.6.19,2.35.25,1.37,1.67,1.23,2.74,1.11,1.67-.19,3.34-.36,5.01-.5,6.86-.6,13.76-.86,20.64-.94,1.69-.02,3.38-.03,5.07-.03.78,0,1.58.06,2.36-.04.82-.11,1.65-.21,2.47-.32,3.19-.41,6.38-.83,9.57-1.25,6.5-.86,12.99-1.75,19.48-2.65,13.51-1.87,27.01-3.8,40.52-5.72,13.4-1.91,26.79-3.81,40.2-5.66,13.36-1.84,26.73-3.56,40.1-5.32,14.56-1.91,29.12-3.82,43.68-5.74,14.52-1.91,29.04-3.81,43.55-5.72,14.61-1.92,29.22-3.84,43.82-5.76s29.05-3.82,43.58-5.72c3.63-.48,7.26-.95,10.89-1.43s7.03-1.08,10.54-1.67c7.09-1.19,14.16-2.45,21.23-3.73,14.12-2.56,28.22-5.23,42.36-7.62,13.83-2.34,27.71-4.43,41.66-5.86,13.08-1.34,26.23-2.09,39.39-1.88.27,0,.48-.33.32-.56-.03-.05-.03.03-.02.01.02-.04.09-.12.15-.18.21-.22.5-.37.75-.51.81-.46,1.68-.82,2.53-1.18,1.67-.71,3.55-1.28,5.04-2.35.42-.3.97-.82.6-1.37l-.32.56c11.42-.43,22.82-1.18,34.2-2.13s23.15-2.16,34.67-3.65c1.32-.17,2.64-.35,3.96-.53,1.42-.19,2.8-.48,4.2-.77,3.03-.63,6.07-1.21,9.12-1.72s6.18-.95,9.29-1.27c.75-.08,1.53-.1,2.27-.22.46-.07.78-.3.94-.75.2-.54.08-1.16.02-1.72-.09-.82-.18-1.65-.27-2.47-1.38-12.8-2.82-25.59-4.05-38.4-1.16-12.06-2.3-24.12-3.41-36.19-1.13-12.36-2.23-24.73-3.25-37.1s-1.96-24.33-2.8-36.5c-.38-5.47-.68-10.94-1.16-16.39-.41-4.73-.83-9.46-1.24-14.18-.9-10.31-1.8-20.63-2.69-30.94-.95-10.91-1.89-21.83-2.84-32.74-.93-10.77-1.87-21.54-2.8-32.31-.86-9.89-1.72-19.77-2.59-29.66-.82-9.4-1.82-18.79-2.78-28.18-1.07-10.43-2.13-20.86-3.2-31.29-1.13-11-2.25-21.99-3.38-32.99s-2.27-22.2-3.41-33.3-2.19-21.42-3.29-32.13c-1.02-9.93-2.03-19.86-3.04-29.79-1.23-12.07-2.11-24.18-3.13-36.27-1.1-13.04-2.2-26.08-3.31-39.12-.54-6.37-1.08-12.74-1.63-19.11-.04-.48-.79-.48-.75,0Z"/>
  </g>
  <path class="cls-5" d="M678.44,857.97c8.82-1.65,17.63-3.35,26.44-5.08,1.22-.24,2.57-.58,3.29-1.82.68-1.19.54-2.81.36-4.25-2.68-21.93-5.37-43.86-8.05-65.78-14.91-182.14-33.36-377.57-48.26-559.7-6.12-63.45-12.23-126.91-18.35-190.36-.19-1.95-.43-4.04-1.53-5.46-1.73-2.24-4.66-1.78-7.11-1.15-9.48,2.42-18.95,4.84-28.43,7.26-34.82,9.99-80.46,9.61-116.12,12.66-23.51,2.01-46.89,5.88-70.25,9.76-49.74,8.25-99.37,17.71-149.23,24.74-23.61,14.23-49.74,23.36-76.01,23.27-14.89-.05-29.7-2.48-44.57-3.47-34.84-2.31-76.13,4.16-110.73,9.78-9.99,2.29-19.95,4.74-29.89,7.36,2.42,41,5.9,81.91,10.44,122.64,4.05,54.21,10.07,114.68,15.43,168.72,5.16,41.65,8.64,79.62,11.8,121.57.5,6.67,1,13.33,1.51,20,2.14,28.43,4.28,56.87,6.42,85.3,2.79,25.99,6.11,52.3,7.47,78.47.72,10.3,1.9,29.63,2.62,39.94.51,14.63,2.49,37.62,3.73,52.18,0,0,.49,5.81.99,11.62l2.94,20.93c2.31,16.4,3.82,32.97,4.53,49.6-.05,3.59,1.93,15.96,2.59,19.33,2.26,11.55,3.24,23.48,2.92,35.35,11.7-1.76,23.37-3.92,34.97-6.49,9.04-1.53,21.23-5.2,30.28-6.73,42.09-7.11,89.44-12.94,130.92-17.15,30.83-4.04,59.46-7.07,89.19-10.61,39.16-4.73,67.31-11.12,91.89-16.05,48.48-17.89,109.49-1.62,159.02-14.3,22.96-3.76,45.89-7.78,68.78-12.08Z"/>
  <g class="cls-3">
    <path class="cls-4" d="M33.56,133.62c9.49-22.83,36.81-44.47,57.53-42.46,86.88,8.43,172.47,31.54,259.3,40.64,86.83,9.1,192.12-6.21,270.74-52.6,5.79.98,11.66,1.25,17.5.82-2.99,32.06-5.26,64.23-6.81,96.45-3.44,82.48-3.07,172.95-3.18,247.83-2.27,42.03-1.28,83.26.11,126.1.17,66.03,2.55,158.48,2.72,224.5.83,31.99.11,62.14.94,94.13.14,7.32.2,21.26.1,29.43,0,.7-.11,1.49-.58,1.88-.31.26-.72.27-1.09.27-2.75.01-5.27-.34-8.28-.1-15.09.24-30.48-2.32-44.62-2.51-6.84-.09-13.7.26-20.53-.28-77.03-6.06-150.04-2.02-224.81,4.69-55.76,9.05-114.34,9.42-170.76,8.83-22.45-.25-48.57.54-71.02.29-13.21-.15-26.42.73-39.64.58-3.33.25-14.48.73-17.89.22-.5-6.18-.79-12.38-.87-18.58,7.28-4.57,17.42-17.07,24.88-21.15,7.47-4.08,14.73-9.79,18.9-18.45,4.17-8.66-1-24.84-6.59-32.19-1.13-3.4-3.61-6.01-6.44-7.13s-5.98-.82-8.74.57c-2.42,1.22-4.57,3.25-6.15,5.82-.39.64-.79,1.35-1.39,1.65-.41.21-.88.19-1.32.18-2.43-.09-4.86-.19-7.29-.28-.48-.02-1-.05-1.4-.38-.34-.28-.55-.74-.74-1.18-1.11-2.57-1.98-5.31-2.58-8.13.85.34-1.4-10.69-.55-10.35-2.48-6.28,2.01-13.93,7.41-16.03,5.4-2.1,11.21-.51,16.82.38s11.92.79,16.15-3.85c6.22-6.81-1.65-36.37-3.77-46.3-1.13-3.4-3.61-6.01-6.44-7.13s-5.98-.82-8.74.57c-2.42,1.22-4.57,3.25-6.15,5.82-.39.64-.79,1.35-1.39,1.65-.41.21-.88.19-1.32.18-2.43-.09-4.86-.19-7.29-.28-.48-.02-1-.05-1.4-.38-.34-.28-.55-.74-.74-1.18-1.71-3.96-2.85-8.29-3.32-12.74,2.34,10.62-1.17-5.48-.53-2.62-.73-6.72-.31-13.89,2.47-19.74,2.78-5.85,8.31-10.01,13.73-8.87,5.56,1.18,9.73,7.34,15.25,8.73,8.77,2.21,16.05-7.94,21.21-16.97.87-1.52,1.77-3.12,2-4.96.37-2.93-1.01-5.72-2.33-8.2-3.21-6.04-11.79-13.19-15-19.23-1.13-3.4-3.61-6.01-6.44-7.13s-5.98-.82-8.74.57c-2.42,1.22-4.57,3.25-6.15,5.82-.39.64-.79,1.35-1.39,1.65-.41.21-.88.19-1.32.18-2.43-.09-4.86-.19-7.29-.28-.48-.02-1-.05-1.4-.38-.34-.28-.55-.74-.74-1.18-1.11-2.57-1.98-5.31-2.58-8.13,1.45-8.02,12.95-28.02,19.45-29.75,6.5-1.72,13.54-2.03,19.09-6.56,8.8-7.18,5.11-30.67-2.47-39.71-1.13-3.4-3.61-6.01-6.44-7.13s-5.98-.82-8.74.57c-2.42,1.22-4.57,3.25-6.15,5.82-.39.64-.79,1.35-1.39,1.65-.41.21-.88.19-1.32.18-2.43-.09-4.86-.19-7.29-.28-.48-.02-1-.05-1.4-.38-.34-.28-.55-.74-.74-1.18-1.11-2.57-1.98-5.31-2.58-8.13-1.79-5.87,4.26-19.35,8.92-21.84s9.96-1.98,15.03-1.7,10.49.19,14.75-3.22c5.04-4.03,7.28-11.96,7.11-19.37s-7.57-22.4-9.75-29.31c-1.13-3.4-3.61-6.01-6.44-7.13s-5.98-.82-8.74.57c-2.42,1.22-4.57,3.25-6.15,5.82-.39.64-.79,1.35-1.39,1.65-.41.21-.88.19-1.32.18-2.43-.09-4.86-.19-7.29-.28-.48-.02-1-.05-1.4-.38-.34-.28-.55-.74-.74-1.18-1.11-2.57-1.98-5.31-2.58-8.13,1.72-8.43,8.02-23.18,14.54-26.47,7.24-3.65,16.01,2.46,23.15-1.49,5.55-3.07,8.09-11.49,7.48-18.96s-6.08-22.49-9.1-29.02c-1.13-3.4-3.61-6.01-6.44-7.13s-5.98-.82-8.74.57c-2.42,1.22-4.57,3.25-6.15,5.82-.39.64-.79,1.35-1.39,1.65-.41.21-.88.19-1.32.18-2.43-.09-4.86-.19-7.29-.28-.48-.02-1-.05-1.4-.38-.34-.28-.55-.74-.74-1.18-1.11-2.57-1.98-5.31-2.58-8.13-.24-10.93,11.8-23.2,20.47-25.43,8.67-2.23,18.46-2.73,24.71-10.48,7.34-9.09-.06-33.93-9.12-40.23-1.13-3.4-3.61-6.01-6.44-7.13s-5.98-.82-8.74.57c-2.42,1.22-4.57,3.25-6.15,5.82-.39.64-.79,1.35-1.39,1.65-.41.21-.88.19-1.32.18-2.43-.09-4.86-.19-7.29-.28-.48-.02-1-.05-1.4-.38-.34-.28-.55-.74-.74-1.18-1.11-2.57-1.98-5.31-2.58-8.13-.26-1.24-1.87-6.87-.83-6.84s1.48-1.59,1.68-2.85c2.02-12.83,11.16-23.45,21.65-25.16,6.12-.99,13.01.55,17.93-4.06,7.35-6.88-.8-26.74-4.36-37.24-1.13-3.4-3.61-6.01-6.44-7.13s-5.98-.82-8.74.57c-2.42,1.22-4.57,3.25-6.15,5.82-.39.64-.79,1.35-1.39,1.65-.41.21-.88.19-1.32.18-2.43-.09-4.86-.19-7.29-.28-.48-.02-1-.05-1.4-.38-.34-.28-.55-.74-.74-1.18-1.11-2.57-1.98-5.31-2.58-8.13-1.34-8.49,4.92-18.04,11.76-19.93s13.93.08,20.93.34c7,.26,14.9-1.89,18.6-9.23,3.35-6.64,2.1-15.47-.86-22.39s-10.3-16.22-13.89-22.85c-.69-4.37-3.55-7.8-6.92-9.14-2.83-1.12-5.98-.82-8.74.57-2.42,1.22-4.57,3.25-6.15,5.82-.39.64-.79,1.35-1.39,1.65-.41.21-.88.19-1.32.18-2.43-.09-4.86-.19-7.29-.28-.48-.02-1-.05-1.4-.38-.34-.28-.55-.74-.74-1.18-1.11-2.57-1.98-5.31-2.58-8.13"/>
    <path class="cls-4" d="M33.92,133.72c3.43-8.21,8.76-15.6,14.94-21.96s13.42-11.9,21.46-15.75c3.62-1.73,7.43-3.12,11.38-3.91,1.83-.37,3.69-.61,5.56-.67,2.1-.08,4.17.14,6.26.35,11.68,1.17,23.34,2.6,34.97,4.22,11.6,1.62,23.18,3.42,34.73,5.35,11.53,1.92,23.05,3.96,34.55,6.05,11.59,2.1,23.18,4.26,34.76,6.4s23.01,4.23,34.53,6.25,23.11,3.97,34.7,5.75,23.07,3.4,34.64,4.81c10.12,1.23,20.25,2.31,30.42,3,9.45.64,18.92.99,28.39,1.07s19.41-.12,29.1-.61,19.63-1.26,29.41-2.32,19.71-2.42,29.5-4.07,19.66-3.62,29.4-5.89,19.28-4.83,28.78-7.72,18.82-6.09,28.05-9.65c9.09-3.5,18.04-7.34,26.82-11.55,4.34-2.08,8.64-4.25,12.89-6.52,2.11-1.13,4.21-2.27,6.3-3.45,1.04-.58,2.08-1.17,3.11-1.77.52-.3,1.03-.6,1.55-.9.23-.13.46-.27.68-.4.36-.21.53-.21.95-.15,5.58.88,11.24,1.12,16.88.72l-.38-.38c-1.17,12.53-2.23,25.08-3.18,37.63-.95,12.56-1.79,25.13-2.51,37.71s-1.27,24.29-1.71,36.45c-.42,11.72-.77,23.45-1.05,35.18-.29,11.89-.52,23.78-.71,35.67s-.33,23.7-.43,35.55-.18,23.52-.23,35.28c-.05,11.5-.08,23-.1,34.5-.02,11.11-.02,22.22-.03,33.34,0,5.37,0,10.74-.01,16.11,0,2.69.07,5.4-.07,8.09-.16,3.1-.31,6.19-.44,9.29-.51,12.29-.77,24.59-.83,36.9s.06,24.64.3,36.95c.24,12.5.6,25,1,37.5.31,9.79.2,19.61.29,29.41.09,10.14.21,20.29.35,30.43.14,10.62.3,21.25.47,31.87s.34,21.59.52,32.38.34,21.46.5,32.19.3,20.87.42,31.3c.11,9.83.21,19.66.27,29.48.03,4.89.01,9.77.12,14.66.14,6.23.23,12.47.29,18.7.11,12.29.09,24.59.13,36.88.04,12.15.26,24.29.46,36.43.15,9.01.18,18.02.1,27.03,0,.82.28,2.72-.57,3.19-.55.3-1.57.1-2.17.09-.69-.02-1.38-.06-2.06-.09-2.96-.14-5.92.06-8.88.01-6.12-.09-12.23-.56-18.33-1.07s-11.9-1.06-17.87-1.31c-6.14-.26-12.28-.02-18.43-.12s-12.57-.77-18.84-1.18-12.5-.75-18.75-1.04c-12.37-.56-24.75-.89-37.13-1-12.21-.11-24.43-.01-36.64.27-12.15.28-24.29.73-36.43,1.33-12.17.6-24.33,1.35-36.49,2.21-12.2.86-24.39,1.84-36.57,2.89-3.06.26-6.12.53-9.18.81s-5.9.85-8.84,1.29c-6.04.89-12.09,1.69-18.15,2.39-12.11,1.41-24.26,2.47-36.42,3.26-12.18.79-24.37,1.32-36.57,1.66-12.22.34-24.45.48-36.67.51s-24.1-.06-36.16-.18-22.95.02-34.42.15c-11.48.13-22.97.27-34.45.16-12.57-.12-25.12.58-37.69.58-1.87,0-3.71.03-5.57.12s-3.58.17-5.37.22c-1.93.06-3.85.09-5.78.08-1.43-.01-2.9,0-4.32-.21l.28.36c-.49-6.18-.79-12.38-.87-18.58l-.19.32c3.54-2.23,6.6-5.22,9.61-8.1,3.35-3.19,6.62-6.48,10.18-9.44,1.5-1.24,3.05-2.44,4.74-3.41,2.05-1.17,4.08-2.34,6.02-3.69,4.01-2.8,7.64-6.17,10.46-10.17,1.34-1.91,2.63-3.99,3.43-6.19.66-1.81.94-3.75,1.01-5.67.18-4.45-.71-8.95-2.05-13.17-1.27-4-2.98-7.97-5.36-11.45-.25-.36-.56-.71-.76-1.11-.27-.56-.45-1.15-.73-1.7-.53-1.03-1.21-1.99-2-2.83-1.62-1.71-3.74-2.91-6.07-3.25-5.2-.77-10.02,2.42-12.8,6.61-.34.51-.62,1.08-1.01,1.55-.54.65-1.18.64-1.96.61-1.54-.06-3.08-.12-4.62-.18-.73-.03-1.46-.06-2.19-.08-.88-.03-1.46-.15-1.89-1.01-.65-1.32-1.13-2.75-1.58-4.15s-.82-2.83-1.14-4.27l-.46.46c1.1.35.56-2.65.51-3.04-.22-1.96-.54-3.91-.72-5.88-.03-.37-.07-.75-.07-1.13,0-.09.02-.3.01-.33,0-.02.04-.13.03-.13.04.03-.26.18-.32.16.26.08.56-.19.46-.46-1.92-5.01.48-10.87,4.57-14.07,5.34-4.18,12.71-2.19,18.76-1.2,5.2.85,11.03.98,15.4-2.42,1.33-1.04,2.34-2.22,2.95-3.79.55-1.43.8-2.98.94-4.5.38-4.04,0-8.16-.51-12.18-.58-4.56-1.42-9.08-2.35-13.58-.8-3.84-1.68-7.65-2.55-11.47-.16-.7-.31-1.39-.47-2.09-.25-1.14-.76-2.23-1.38-3.23-1.39-2.25-3.51-4.08-6.04-4.89-5.98-1.91-11.76,2.01-14.8,6.94-.42.69-.83,1.41-1.72,1.48s-1.86-.05-2.77-.09c-1.76-.07-3.53-.07-5.29-.2-.41-.03-.79-.08-1.09-.39-.28-.29-.43-.71-.59-1.07-.36-.83-.68-1.67-.98-2.52-.55-1.57-1.02-3.18-1.39-4.8s-.67-3.4-.86-5.12l-.74.1c.21.95.42,1.89.63,2.84.06.27.1.57.19.83.11.31.66.4.72,0,.04-.24-.07-.52-.12-.75-.11-.52-.22-1.04-.33-1.55-.26-1.2-.52-2.4-.78-3.6-.05-.22-.09-.43-.14-.65-.01-.06-.07-.4-.05-.18l-.64.27c-.21-.23-.07-.19-.07-.08,0,.08.04.18.06.26.09.4.78.33.74-.1-.59-5.53-.47-11.28,1.26-16.61,1.51-4.66,4.61-9.36,9.37-11.16,2.09-.79,4.3-.85,6.4-.1s4.01,2.17,5.8,3.54c3.43,2.62,7.08,5.56,11.67,5.09,4.33-.44,7.9-3.46,10.67-6.59,1.63-1.85,3.09-3.85,4.44-5.91s2.77-4.31,3.91-6.59c.58-1.16,1.03-2.39,1.16-3.69s-.11-2.75-.53-4.04c-.76-2.31-1.97-4.54-3.36-6.53-2.77-3.94-6.23-7.35-9.33-11.02-1.44-1.7-2.85-3.47-3.95-5.41-.59-1.04-.9-2.18-1.56-3.2-.61-.96-1.36-1.84-2.21-2.59-3.93-3.44-9.5-3.26-13.71-.39-2.12,1.45-3.65,3.37-5.03,5.52-.37.58-.78,1.1-1.52,1.16s-1.53-.04-2.28-.07c-1.54-.06-3.08-.12-4.62-.18-.62-.02-1.48.09-2.03-.26-.63-.4-.9-1.47-1.16-2.12-.54-1.35-1.01-2.74-1.41-4.14-.19-.67-.37-1.35-.53-2.03-.12-.52-.19-.84-.08-1.34.15-.65.33-1.29.53-1.92,1.09-3.4,2.66-6.65,4.35-9.79,1.88-3.5,3.98-6.91,6.38-10.08,1.8-2.38,3.86-4.99,6.49-6.5,1.55-.89,3.5-1.11,5.22-1.47,2.52-.53,5.06-1.01,7.53-1.76,3.91-1.2,7.98-3.18,10.2-6.77,1.78-2.87,2.48-6.32,2.74-9.65.3-3.92-.05-7.89-.8-11.74s-1.91-7.59-3.63-11.08c-.73-1.5-1.58-2.94-2.59-4.27-.24-.31-.48-.57-.62-.94-.22-.58-.46-1.14-.76-1.69-.55-1.02-1.24-1.96-2.04-2.79-1.63-1.67-3.73-2.81-6.05-3.14-2.57-.36-5.19.27-7.42,1.56s-3.97,3.07-5.34,5.15c-.35.53-.63,1.14-1.07,1.6-.55.57-1.23.5-1.97.47-1.58-.06-3.16-.12-4.74-.18-.73-.03-1.46-.05-2.19-.08-.32-.02-.64-.02-.93-.16-.42-.2-.62-.62-.8-1.02-.62-1.35-1.12-2.77-1.56-4.18s-.75-2.76-1.1-4.15c-.18-.72-.27-1.43-.28-2.16-.04-3.81,1.36-7.71,2.97-11.1.83-1.74,1.78-3.44,2.93-5,.85-1.15,1.85-2.33,3.12-3.03,4.95-2.74,10.88-1.8,16.27-1.6,4.95.18,10.13-.36,14.02-3.72,3.53-3.06,5.4-7.72,6.25-12.21.45-2.4.67-4.88.57-7.32-.07-1.67-.42-3.32-.83-4.93-2.06-8.02-5.88-15.42-8.58-23.22-.72-2.07-1.52-3.98-3.02-5.62s-3.61-2.93-5.88-3.34c-5.16-.92-10.01,2.11-12.88,6.21-.35.49-.64,1.02-.98,1.52-.47.7-.94,1.01-1.8,1-1.52-.02-3.05-.12-4.57-.17-.77-.03-1.54-.06-2.31-.09-.82-.03-1.63.05-2.11-.75-.74-1.22-1.17-2.74-1.62-4.09s-.89-2.81-1.17-4.25c-.09-.44.09-.92.19-1.36.11-.48.24-.95.37-1.43.55-2.02,1.21-4.02,1.96-5.97,1.58-4.17,3.52-8.27,6.05-11.95,1.07-1.55,2.26-3.05,3.69-4.29,1.52-1.31,3.33-2.11,5.32-2.41,4.72-.71,9.39,1.07,14.1.96,2.21-.05,4.41-.55,6.29-1.75,1.7-1.08,3.05-2.63,4.08-4.34,2.36-3.91,3.26-8.72,3.12-13.24-.12-3.92-1.16-7.8-2.25-11.56-1.25-4.3-2.72-8.54-4.34-12.71-.67-1.72-1.36-3.43-2.1-5.12-.88-2.01-1.63-3.97-3.12-5.63s-3.57-2.95-5.84-3.38c-2.6-.5-5.29.04-7.61,1.29-2.16,1.16-3.98,2.9-5.38,4.9-.35.49-.64,1.02-.98,1.52-.46.69-.95,1.01-1.8,1-1.52-.02-3.05-.12-4.57-.17-.73-.03-1.46-.06-2.19-.08-.78-.03-1.69.08-2.18-.67-.38-.57-.6-1.28-.85-1.91-.28-.71-.54-1.43-.78-2.16-.46-1.39-.89-2.81-1.18-4.25-.22-1.06-.05-2.24.13-3.29.76-4.45,3.1-8.56,5.93-12.02s6.1-6.36,9.93-8.44,8.01-2.54,12.1-3.46c4.49-1.01,9.04-2.3,12.83-4.99,3.03-2.15,5.4-4.94,6.4-8.56.94-3.41.91-7.05.51-10.54-.46-3.96-1.43-7.86-2.83-11.58-1.29-3.45-2.92-6.84-5.13-9.81-.91-1.22-1.91-2.38-3.07-3.36-.24-.2-.53-.38-.75-.59-.31-.3-.43-.89-.63-1.33-.49-1.06-1.13-2.05-1.89-2.94-1.51-1.75-3.54-3.06-5.81-3.55-2.57-.55-5.25-.07-7.57,1.11s-4.07,2.86-5.51,4.87c-.73,1.01-1.26,2.65-2.7,2.69s-3.02-.11-4.52-.17c-.73-.03-1.46-.06-2.19-.08s-1.72.12-2.24-.44c-.47-.5-.7-1.31-.94-1.93-.28-.71-.55-1.43-.79-2.15-.7-2.07-1.17-4.19-1.69-6.32-.36-1.47-.88-3.09-.82-4.62,0-.09.13-.47-.02-.36.04-.03.36-.04.45-.08.2-.07.37-.19.52-.34.68-.66.89-1.74,1.04-2.63,1.53-9.1,6.52-18.07,14.79-22.65,1.82-1.01,3.78-1.76,5.82-2.18,2.36-.49,4.79-.51,7.18-.61,4.39-.19,9.32-.76,12.34-4.37,2.12-2.53,2.53-6.03,2.43-9.22-.13-4.18-1.09-8.32-2.22-12.33s-2.56-8.08-3.96-12.08c-.65-1.85-1.17-3.81-2.13-5.53-1.09-1.95-2.72-3.65-4.7-4.69-4.69-2.48-10.22-.68-13.8,2.88-.89.89-1.69,1.89-2.37,2.95-.33.52-.62,1.14-1.08,1.55-.58.5-1.37.36-2.08.34-1.58-.06-3.16-.12-4.74-.18-.71-.03-1.42-.03-2.13-.08-.94-.07-1.28-.56-1.63-1.37-.6-1.37-1.11-2.78-1.55-4.21s-.89-2.83-1.06-4.27c-.28-2.35,0-4.74.7-7,1.33-4.34,4.2-8.54,8.16-10.87,2.22-1.3,4.81-1.76,7.36-1.91,3.03-.18,6.06.13,9.07.46,4.87.54,9.76,1.1,14.58-.09,4.11-1.02,7.88-3.27,10.32-6.79,2.89-4.17,3.55-9.47,3.01-14.42s-2.07-9.36-4.38-13.55-5.13-8.25-7.79-12.31c-1.28-1.95-2.55-3.91-3.72-5.92-.26-.44-.62-.93-.74-1.43-.14-.6-.25-1.2-.45-1.78-.37-1.12-.88-2.19-1.54-3.16-1.19-1.76-2.83-3.24-4.77-4.09-2.37-1.04-5.05-1.1-7.51-.33-2.27.71-4.31,2.09-5.95,3.8-.85.89-1.6,1.88-2.25,2.93-.31.5-.6,1.1-1.11,1.43-.56.36-1.38.2-2.01.18-1.5-.06-3-.12-4.5-.17-.75-.03-1.5-.03-2.25-.09-.83-.06-1.21-.44-1.55-1.18-1.2-2.61-2.02-5.42-2.63-8.23-.1-.47-.83-.27-.72.2.61,2.81,1.46,5.58,2.62,8.22.23.51.48,1.04.95,1.37s1.07.36,1.63.38c1.54.06,3.08.12,4.62.18.77.03,1.54.06,2.31.09.58.02,1.18.06,1.71-.2,1-.49,1.49-1.72,2.09-2.59,1.49-2.15,3.51-3.99,5.9-5.08,2.58-1.18,5.63-1.39,8.26-.25,2.06.89,3.76,2.52,4.89,4.44.62,1.05,1.08,2.2,1.36,3.39.13.53.19.98.45,1.46s.54.95.81,1.42c1.19,2.01,2.46,3.96,3.74,5.91,2.67,4.05,5.46,8.06,7.76,12.35s3.86,9.31,4.12,14.29-.84,10.21-4.3,13.97c-2.96,3.22-7.19,4.88-11.46,5.39-5.39.65-10.77-.55-16.14-.88-2.92-.18-5.89-.11-8.75.59-2.04.5-3.87,1.49-5.49,2.83-3.48,2.87-5.94,7.1-6.89,11.49-.49,2.26-.59,4.64-.07,6.91.33,1.43.73,2.85,1.2,4.24.44,1.28.87,2.66,1.53,3.85s1.72,1.17,2.93,1.21c1.54.06,3.08.12,4.62.18,1.15.04,2.74.4,3.74-.33.91-.68,1.4-1.91,2.06-2.81,3.19-4.32,9.05-7.3,14.26-4.73,2.16,1.07,3.87,2.91,4.93,5.05.87,1.74,1.39,3.71,2.03,5.55,1.41,4.01,2.8,8.02,3.92,12.12s2.01,8.12,2,12.26c-.01,3.42-.77,6.89-3.58,9.09-3.95,3.11-9.24,2.71-13.96,3.02-2.16.14-4.3.45-6.35,1.16s-3.8,1.64-5.51,2.81c-3.65,2.51-6.64,5.93-8.86,9.74-1.18,2.03-2.15,4.19-2.9,6.41-.4,1.19-.73,2.39-1,3.62-.25,1.12-.33,2.3-.7,3.39-.13.4-.35.99-.78,1.15-.26.09-.47.02-.68.24-.33.35-.28.99-.24,1.43.12,1.6.56,3.18.94,4.73.56,2.28,1.08,4.54,1.88,6.75.23.64.48,1.28.75,1.92.23.56.45,1.19.88,1.63.84.87,2.41.65,3.5.69,1.54.06,3.08.12,4.62.18,1.2.05,2.37.2,3.22-.8s1.37-2.14,2.18-3.12,1.77-1.9,2.83-2.65c2.21-1.58,4.91-2.5,7.65-2.25,2.54.24,4.81,1.54,6.48,3.45.82.94,1.49,2.02,1.97,3.17.18.43.24.91.63,1.19.29.22.58.44.86.68,1.19,1.03,2.22,2.24,3.13,3.52,2.17,3.05,3.79,6.49,5.04,10.01,1.33,3.75,2.26,7.67,2.61,11.63.31,3.44.23,7.05-.92,10.34-1.34,3.82-4.62,6.66-8.11,8.52-4.12,2.2-8.77,3.13-13.3,4.1-2.07.44-4.22.81-6.22,1.52-1.79.63-3.47,1.54-5.06,2.58-3.66,2.42-6.86,5.57-9.42,9.12s-4.5,7.54-4.92,11.86c-.05.5-.07,1.01-.07,1.52,0,.64.2,1.28.36,1.89.36,1.46.8,2.9,1.31,4.31.23.64.48,1.28.75,1.92.23.56.45,1.19.88,1.63.84.88,2.41.64,3.5.69,1.54.06,3.08.12,4.62.18,1.2.05,2.36.21,3.22-.8s1.37-2.14,2.18-3.12,1.77-1.9,2.83-2.65c2.22-1.58,4.91-2.5,7.65-2.25,2.51.23,4.76,1.51,6.42,3.38,1.46,1.65,2.18,3.66,3.04,5.64.78,1.78,1.5,3.59,2.19,5.4,1.61,4.22,3.08,8.51,4.31,12.86,1.08,3.82,2.04,7.74,1.99,11.73-.06,4.54-1.17,9.44-4.01,13.09-1.33,1.71-3.07,3.05-5.14,3.72-2.26.72-4.66.64-6.98.38-4.51-.51-9.33-1.83-13.72.03-3.35,1.42-5.71,4.66-7.58,7.65-2.36,3.77-4.2,7.87-5.7,12.05-.68,1.91-1.29,3.85-1.78,5.82-.1.41-.19.82-.28,1.23-.13.61.11,1.23.26,1.83.35,1.42.77,2.83,1.27,4.21.24.68.5,1.36.78,2.03.24.57.45,1.19.86,1.66.81.93,2.34.71,3.44.76,1.54.06,3.08.12,4.62.18,1.19.05,2.41.25,3.28-.73s1.41-2.19,2.24-3.18,1.77-1.9,2.83-2.65c2.21-1.58,4.91-2.5,7.65-2.25,2.51.23,4.76,1.51,6.42,3.38.82.92,1.48,1.98,1.97,3.1.37.83.61,1.71.91,2.57,2.78,7.79,6.62,15.26,8.56,23.34,1.01,4.23.79,8.63-.25,12.84-1.14,4.61-3.48,9.25-7.73,11.68-4.62,2.65-10.12,2.14-15.22,1.87-2.69-.14-5.4-.21-8.06.26-2.08.37-4.31,1.05-5.95,2.42-1.22,1.02-2.2,2.34-3.07,3.67-1.09,1.68-2.01,3.46-2.79,5.3-1.4,3.3-2.66,7.1-2.38,10.74.06.83.27,1.61.46,2.42.33,1.43.73,2.85,1.2,4.24.44,1.28.87,2.66,1.53,3.85s1.73,1.17,2.93,1.21c1.54.06,3.08.12,4.62.18,1.15.04,2.74.41,3.74-.33.91-.68,1.4-1.92,2.06-2.81.8-1.08,1.73-2.07,2.78-2.91,2.12-1.71,4.78-2.81,7.53-2.76,2.59.05,4.99,1.17,6.79,3.02.85.87,1.56,1.89,2.1,2.98.26.52.39,1.13.67,1.63.19.34.51.64.74.95,1,1.36,1.83,2.84,2.55,4.36,1.67,3.52,2.79,7.32,3.48,11.15s.98,7.87.58,11.79c-.34,3.29-1.2,6.77-3.27,9.42-2.87,3.68-7.88,5.24-12.24,6.24-2.48.57-4.99,1.01-7.47,1.62-1.27.31-2.33.79-3.38,1.58-2.59,1.95-4.65,4.61-6.53,7.23-2.33,3.25-4.39,6.7-6.22,10.26-1.55,3.02-3.02,6.16-3.96,9.44-.16.55-.42,1.23-.42,1.81s.29,1.33.44,1.92c.19.75.41,1.49.64,2.23.42,1.34.91,2.67,1.47,3.96.22.52.45,1.08.89,1.46.41.36.95.45,1.48.48,1.52.1,3.04.12,4.56.18.73.03,1.46.06,2.19.08.64.02,1.35.12,1.97-.08,1.07-.35,1.56-1.57,2.14-2.43.74-1.1,1.6-2.12,2.58-3.01,1.99-1.81,4.53-3.11,7.25-3.31s5.18.68,7.15,2.43c.9.8,1.67,1.74,2.28,2.78s.91,2.13,1.5,3.13c1.14,1.92,2.55,3.67,3.99,5.37,3.12,3.67,6.61,7.08,9.33,11.07,1.41,2.06,2.68,4.43,3.3,6.85.37,1.46.4,2.95-.02,4.4-.39,1.34-1.09,2.55-1.78,3.75-2.49,4.34-5.24,8.68-8.83,12.2-3.05,2.98-7.11,5.47-11.53,4.51s-7.73-4.8-11.54-7.11c-1.81-1.1-3.83-1.91-5.98-1.91s-4.2.75-5.97,1.9c-3.99,2.58-6.46,6.89-7.75,11.37-1.48,5.14-1.56,10.61-1,15.9l.74-.1c-.04-.17-.05-.38-.18-.51-.21-.22-.68-.06-.64.27.09.76.32,1.53.48,2.28.26,1.19.52,2.39.77,3.58.04.2.09.4.13.61.04.18,0,.39.05.07h.72c-.09-.26-.13-.56-.19-.83-.21-.94-.42-1.89-.63-2.84-.09-.41-.78-.33-.74.1.37,3.37,1.09,6.7,2.2,9.91.26.74.54,1.48.83,2.21.27.65.5,1.41,1,1.93.44.46,1.01.57,1.62.61.87.06,1.74.07,2.61.1s1.78.07,2.67.1,1.86.14,2.77.09c1.43-.09,1.99-1.3,2.69-2.37,1.65-2.55,4.04-4.74,6.91-5.82s6.37-.91,9.07.88c2.14,1.42,3.98,3.83,4.53,6.36.75,3.45,1.58,6.88,2.33,10.33.97,4.45,1.87,8.92,2.57,13.42s1.18,8.61,1.11,12.94c-.03,1.73-.15,3.48-.55,5.16-.29,1.23-.72,2.5-1.54,3.49-3.66,4.43-9.96,4.77-15.22,4.03-6.09-.85-12.98-3.06-18.82,0-4.34,2.28-7.38,7.4-7.3,12.3.02,1.27.26,2.52.71,3.7l.46-.46c-1.1-.35-.56,2.65-.51,3.04.22,1.96.54,3.91.72,5.88.03.37.07.75.07,1.13,0,.09-.02.3-.01.33,0,.02-.04.13-.03.13-.04-.03.26-.18.32-.16-.29-.09-.52.19-.46.46.34,1.59.77,3.16,1.28,4.7.24.73.5,1.45.78,2.16s.52,1.46.93,2.09c.78,1.22,2.29,1.02,3.56,1.07,1.66.06,3.32.13,4.98.19,1.33.05,2.41.13,3.27-1.03s1.55-2.42,2.55-3.51c1.95-2.12,4.51-3.74,7.39-4.2s5.76.37,7.94,2.27c1,.88,1.84,1.93,2.49,3.09.33.6.6,1.22.84,1.86.18.48.54.87.83,1.29,2.63,3.84,4.46,8.28,5.73,12.74s2.12,9.52,1.3,14.23c-.4,2.34-1.37,4.42-2.58,6.45-1.42,2.4-3.14,4.6-5.07,6.61-3.69,3.82-8.05,6.64-12.62,9.27-3.96,2.27-7.33,5.58-10.62,8.7-3.61,3.43-7.1,7.02-10.99,10.14-.8.64-1.62,1.26-2.48,1.82-.15.1-.41.2-.53.35-.17.21-.11.51-.1.76.01.91.03,1.82.06,2.73.09,3.43.24,6.86.45,10.29.11,1.69.23,3.38.36,5.07.01.15.11.34.28.36,1.44.21,2.92.22,4.37.24,2,.02,4-.02,6.01-.08,1.87-.06,3.73-.13,5.6-.23,2.13-.12,4.25-.1,6.38-.11,6.32-.03,12.63-.23,18.95-.4s12.39-.22,18.59-.17c11.55.09,23.09-.05,34.64-.18s22.9-.25,34.35-.13c12.13.13,24.26.21,36.38.17,12.23-.04,24.46-.2,36.68-.55,12.28-.35,24.55-.9,36.81-1.72,12.2-.82,24.38-1.91,36.52-3.35,5.97-.71,11.92-1.51,17.87-2.4,3.05-.46,6.08-.96,9.16-1.24s6.11-.54,9.17-.8c12.18-1.05,24.37-2.01,36.57-2.87,12.15-.85,24.32-1.59,36.48-2.18s24.45-1.03,36.68-1.29,24.52-.34,36.78-.2c12.43.14,24.86.49,37.28,1.08,6.26.3,12.52.66,18.77,1.08s12.54,1.03,18.84,1.05,12.18-.13,18.27.2c5.99.32,11.97.9,17.95,1.39s12.22.92,18.34.91c1.5,0,3-.11,4.5-.1,1.39.01,2.78.11,4.17.16,1,.03,2.51.32,3.16-.66.55-.82.43-1.96.44-2.9.08-9.07.05-18.15-.1-27.22-.2-12.16-.42-24.31-.46-36.47s-.02-24.58-.13-36.88c-.06-6.23-.14-12.47-.29-18.7-.11-4.91-.1-9.81-.13-14.72-.06-9.82-.15-19.65-.27-29.47-.12-10.43-.26-20.86-.42-31.29s-.33-21.6-.5-32.4-.35-21.73-.52-32.6-.32-21.24-.47-31.86-.25-20.28-.35-30.42c-.09-9.82.02-19.65-.29-29.46-.4-12.54-.76-25.08-1-37.62s-.36-24.79-.29-37.19c.07-12.34.33-24.69.86-37.02.13-3.1.28-6.19.45-9.29.14-2.65.03-5.33.04-7.98,0-5.38,0-10.75.01-16.13,0-11.12.01-22.24.03-33.36s.05-23.01.1-34.52.13-23.6.24-35.41c.11-11.93.25-23.86.44-35.79s.43-23.78.72-35.67c.29-11.76.64-23.52,1.07-35.28s1.03-24.37,1.74-36.54c.74-12.62,1.58-25.23,2.54-37.83s1.95-24.19,3.08-36.27c.02-.19-.19-.39-.38-.38-2.96.21-5.93.25-8.89.11-1.46-.07-2.92-.19-4.38-.35-.74-.08-1.47-.17-2.2-.27-.36-.05-.73-.11-1.09-.16-.3-.05-.69-.19-1-.14-.43.06-.96.53-1.34.75-.57.33-1.14.67-1.72,1-1.03.6-2.07,1.18-3.11,1.77-2.09,1.17-4.19,2.32-6.3,3.44-8.6,4.57-17.4,8.76-26.35,12.6s-18.31,7.42-27.65,10.61-18.92,6.09-28.53,8.64-19.46,4.83-29.3,6.78-19.72,3.59-29.65,4.93c-9.87,1.34-19.77,2.37-29.7,3.13s-19.54,1.2-29.32,1.37-19.23.06-28.84-.33-18.59-1.04-27.85-1.98c-11.63-1.19-23.23-2.66-34.8-4.3s-23.18-3.47-34.73-5.41-23.2-4.01-34.79-6.12-23.1-4.25-34.64-6.38-23.09-4.23-34.65-6.25c-11.59-2.02-23.19-3.95-34.82-5.71-11.56-1.76-23.15-3.36-34.77-4.73-5.75-.68-11.51-1.34-17.28-1.86-3.66-.33-7.37.07-10.93.93-8.17,1.97-15.74,6.21-22.38,11.27-7.17,5.47-13.5,12.1-18.51,19.6-2.31,3.46-4.31,7.11-5.91,10.94-.19.44.54.64.72.2h0Z"/>
  </g>
  <path class="cls-1" d="M168.92,75.94c-47.97-.91-95.73-2.57-142.71-5.3v63.03h16.52c.37-12.86,26.05-17.66,25.73,7.97-.34,27.19-25.6,20.22-26.26,6.55l-15.99-.03v70.45c2.87,0,15.96,0,15.96,0,.37-12.86,26.05-17.66,25.73,7.97-.34,27.19-25.6,20.22-26.26,6.55l-15.99-.03v70.55s16.52,0,16.52,0c.37-12.86,26.05-17.66,25.73,7.97-.34,27.19-25.6,20.22-26.26,6.55l-15.99-.03v70.27s16.52,0,16.52,0c.37-12.86,26.05-17.66,25.73,7.97-.34,27.19-25.6,20.22-26.26,6.55l-15.99-.03s0,64.5,0,70.54c2.87,0,15.96,0,15.96,0,.37-12.86,26.05-17.66,25.73,7.97-.34,27.19-25.6,20.22-26.26,6.55l-15.99-.03v70.27s16.52,0,16.52,0c.37-12.86,26.05-17.66,25.73,7.97-.34,27.19-25.6,20.22-26.26,6.55l-15.99-.03v70.34c2.7,0,16.04,0,16.04,0,.37-12.86,26.05-17.66,25.73,7.97-.34,27.19-25.6,20.22-26.26,6.55l-15.99-.03v70.48c2.79,0,16,0,16,0,.37-12.86,26.05-17.66,25.73,7.97-.34,27.19-25.6,20.22-26.26,6.55l-15.99-.03s0,65.96,0,70.73h2.13s16.52,0,16.52,0c.37-12.86,26.05-17.66,25.73,7.97-.34,27.19-25.6,20.22-26.26,6.55l-15.99-.03v71c15.98.3,26.74,3.01,42.71,3.31,65.57,1.23,131.22,2.46,196.66-2.73,28.39-2.25,56.7-5.71,85.06-8.35,89.52-8.32,184.74-9.73,274.28-1.64-7.08-241.49-7.48-483.28-1.2-724.81.6-23.03,1.79-69.73.93-92.75-7.59.27-45.72-.26-53.32,0-55.16,1.87-110.33,3.22-165.51,4.03-77.76,1.14-157.62,1.69-236.93.19Z"/>
  <path class="cls-2" d="M91.96,60.09c-1.91-11.03-4.66-22.17-4.6-33.43.02-2.97,0-6.35,2.01-8.77s5.82-4.05,8.64-5.42c6.11-2.98,12.81-4.95,19.56-5.76,6.19-.75,12.99-1.64,15.26,5.49,1.85,5.83,2.04,12.46,2.83,18.5,1.79,13.56,3.61,27.11,5.37,40.68s3.42,27.25,4.64,40.93c.61,6.83,1.11,13.68,1.46,20.53.29,5.7,1.88,13.95-.12,19.43-1.64,4.52-10.07,11.04-15.08,10.94-6.49-.13-7.78-13.5-9.02-18.33-3.36-13.06-6.33-26.23-8.89-39.47-1.24-6.42-3.12-12.78-4.12-19.24-.6-3.91-1.16-8.5,2.04-11.26.78-.68,2.24-1.68,3.19-2.1,3.19-1.41,4.6.95,5.98,3.81,3.12,6.46,4.26,14.78,5.55,21.78,1.43,7.78,2.36,15.64,3.12,23.52.37,3.81,6.38,3.85,6,0-1.62-16.57-3.19-35.22-10.24-50.54-2.46-5.34-7.76-6.86-12.87-4.1-5.41,2.92-8.68,6.14-9.12,12.44-.53,7.65,2.3,15.16,3.77,22.57,1.75,8.82,3.47,17.64,5.47,26.41s4.18,17.49,6.53,26.17c1.58,5.84,3.07,12.5,9.83,14.08,6.34,1.47,11.92-2.57,16.62-6.25,5.63-4.41,7.87-9.23,7.82-16.36-.12-18.2-1.98-36.45-4.06-54.51s-4.69-36.89-7.13-55.33c-1.05-7.93-1.55-16.18-3.32-23.98-1.17-5.16-3.88-10.24-9.34-11.72-7.64-2.07-17.72.29-25.06,2.6-6.92,2.18-16.97,5.65-21.04,12.12-3.69,5.86-2.42,14.63-1.66,21.11.99,8.42,2.71,16.72,4.16,25.06.66,3.8,6.44,2.19,5.79-1.6h0Z"/>
</svg>