<svg width="1369" height="243" viewBox="0 0 1369 243" fill="none" xmlns="http://www.w3.org/2000/svg">
<g clip-path="url(#clip0_139_1299)">
<path d="M770.166 109.214C802.237 119.186 830.821 137.175 859.763 153.8C888.375 170.246 917.604 184.488 949.881 192.023C955.04 193.221 957.236 185.26 952.076 184.047C918.826 176.293 889.102 161.224 859.708 144.213C831.59 127.946 803.568 110.935 772.362 101.225C767.285 99.6407 765.116 107.616 770.166 109.2V109.214Z" fill="#FF6590"/>
<path d="M1347.65 89.4343C1337.41 81.955 1323.66 79.2415 1311.33 77.8779C1299.85 76.6107 1285.49 76.1837 1275.47 82.9605C1271.09 85.9219 1275.21 93.0844 1279.63 90.0954C1288.41 84.1588 1301.3 85.0128 1311.33 86.1423C1322.28 87.3682 1334.42 89.9439 1343.49 96.5692C1347.79 99.7096 1351.89 92.5334 1347.65 89.4343Z" fill="#FF6590"/>
<path d="M1075.29 189.874C1106.91 181.265 1135.36 165.37 1165.44 152.781C1170.26 150.77 1168.14 142.767 1163.24 144.806C1133.19 157.381 1104.7 173.304 1073.1 181.899C1067.99 183.29 1070.16 191.265 1075.29 189.874Z" fill="#FF6590"/>
<path d="M1303.26 77.6575C1280.46 74.0074 1257.41 72.3545 1234.7 68.0157C1209.01 63.1122 1181.54 55.7569 1161.02 38.6497C1149.74 29.2421 1141.73 17.1623 1137.88 2.93384C1136.5 -2.19007 1128.55 -0.013787 1129.94 5.13767C1145.24 61.6797 1212.76 74.1451 1262.36 80.674C1275.26 82.3682 1288.23 83.5803 1301.08 85.6464C1306.26 86.4728 1308.49 78.5115 1303.27 77.6713L1303.26 77.6575Z" fill="#FF6590"/>
<path d="M518.901 174.433C540.789 176.403 563.13 178.138 584.853 173.772C606.576 169.406 623.648 157.436 639.511 142.12C643.34 138.428 637.508 132.588 633.693 136.279C618.186 151.252 601.993 162.395 580.434 166.224C560.152 169.833 539.266 168.001 518.915 166.169C513.645 165.701 513.673 173.965 518.915 174.433H518.901Z" fill="#FF6590"/>
<path d="M40.0432 116.844C28.0632 124.448 16.9203 133.291 8.37095 144.723C5.18725 148.979 12.3368 153.097 15.4794 148.896C23.1367 138.649 33.4974 130.77 44.2013 123.979C48.6612 121.142 44.5443 113.993 40.0432 116.844Z" fill="#FF6590"/>
<path d="M174.294 101.762C168.516 60.2473 134.95 42.2172 134.95 42.2172C110.428 32.1209 67.7908 37.5478 67.7908 37.5478C58.8984 38.085 39.5904 43.1676 35.7891 59.8754C35.7891 59.8754 19.1433 127.202 38.52 224.447C38.52 224.447 43.7621 241.623 65.8421 242.27C87.7712 242.917 109.069 235.975 101.247 186.169C101.247 186.169 99.0102 179.929 118.208 177.505C137.407 175.067 152.488 163.662 152.488 163.662C152.488 163.662 180.071 143.277 174.294 101.762ZM96.8694 130.109C92.0253 125.247 93.8916 89.145 93.8916 89.145C94.6326 83.1671 108.616 80.922 112.527 96.4452C116.438 111.968 101.714 134.971 96.8694 130.109Z" fill="#FFA4B6"/>
<path d="M68.5456 243C67.6124 243 66.7067 242.986 65.8284 242.959C43.5151 242.298 37.9162 224.818 37.8613 224.639C18.6631 128.291 34.9521 60.3712 35.1167 59.6963C38.9317 42.961 58.1299 37.4238 67.7359 36.8453C68.1202 36.7902 110.784 31.5148 135.197 41.5698C135.595 41.7764 169.203 60.2748 174.966 101.666C180.73 143.111 153.174 164.006 152.9 164.213C152.749 164.323 137.448 175.756 118.291 178.18C106.75 179.64 103.347 182.477 102.359 184.048C101.659 185.136 101.892 185.907 101.906 185.948C105.515 208.827 103.388 224.309 95.4286 233.372C88.1967 241.609 77.1498 243 68.5456 243ZM93.6858 36.7902C79.4552 36.7902 68.1064 38.1952 67.8869 38.2227C58.5828 38.7875 40.0981 44.0767 36.4616 60.0269C36.2969 60.7156 20.0765 128.346 39.1924 224.309C39.3845 224.929 44.5718 240.948 65.8696 241.581C79.5101 241.981 88.5809 239.088 94.3857 232.463C102.057 223.716 104.074 208.606 100.561 186.279C100.547 186.279 100.136 185.025 101.124 183.4C102.455 181.21 106.489 178.29 118.099 176.816C136.872 174.433 151.912 163.221 152.049 163.111C152.323 162.905 179.234 142.464 173.58 101.858C167.926 61.1839 134.923 43.0023 134.594 42.8232C122.957 38.0299 107.024 36.7902 93.6446 36.7902H93.6858ZM98.4476 131.459C97.4458 131.459 96.7597 130.99 96.3755 130.605C91.4627 125.674 92.9997 92.8502 93.1918 89.1312C93.5486 86.2938 96.3069 84.1864 99.916 83.966C104.527 83.663 110.771 86.7346 113.172 96.2937C116.479 109.393 106.983 127.216 100.753 130.77C99.8473 131.293 99.0789 131.472 98.4476 131.472V131.459ZM100.547 85.3021C100.369 85.3021 100.177 85.3021 99.9983 85.3159C97.1028 85.4949 94.8111 87.1478 94.5503 89.2277C94.0426 99.1311 93.5348 125.797 97.3361 129.613C97.5694 129.847 98.2829 130.563 100.067 129.544C105.844 126.252 114.942 108.924 111.841 96.6105C109.728 88.2497 104.733 85.3021 100.547 85.3021Z" fill="#FFA4B6"/>
<path d="M142.47 202.697C159.761 195.838 176.201 185.618 191.955 175.797C207.668 165.99 222.653 155.095 237.995 144.737C253.337 134.379 269.132 124.503 285.901 116.61C302.094 108.98 320.826 109.145 337.458 115.439C342.426 117.313 344.567 109.338 339.654 107.464C324.367 101.679 306.444 100.605 290.814 105.701C273.606 111.307 257.18 122.285 242.126 132.106C225.946 142.657 210.385 154.117 194.164 164.612C177.203 175.59 159.102 187.271 140.288 194.736C135.417 196.664 137.544 204.667 142.484 202.711L142.47 202.697Z" fill="#FF6590"/>
<path d="M334.645 127.45C334.645 127.45 329.677 78.0707 300.118 53.1399C270.559 28.209 227.483 32.6718 206.089 64.3657C206.089 64.3657 176.023 116.101 186.905 168.91C197.773 221.705 232.3 233.427 232.3 233.427C232.3 233.427 272.549 255.617 309.066 225.452C345.582 195.273 334.659 127.45 334.659 127.45H334.645ZM260.35 177.918C260.35 177.918 248.562 175.425 248.562 153.483C248.562 131.541 253.529 116.583 253.529 116.583C253.529 116.583 264.96 86.6657 273.4 134.282C281.853 181.913 260.35 177.918 260.35 177.918Z" fill="#FFA4B6"/>
<path d="M265.852 241.884C246.586 241.884 232.19 234.157 231.957 234.019C231.724 233.951 197.032 221.609 186.219 169.034C175.419 116.583 205.184 64.5172 205.486 64.0075C215.586 49.049 230.818 39.4761 248.411 37.0244C266.772 34.4624 285.778 40.1373 300.544 52.6027C329.746 77.2443 335.18 126.114 335.317 127.354C335.551 128.855 345.664 196.086 309.491 225.975C294.643 238.248 279.095 241.884 265.866 241.884H265.852ZM257.125 37.7957C254.284 37.7957 251.43 37.9886 248.603 38.388C231.408 40.7847 216.505 50.151 206.652 64.7376C206.378 65.2197 176.874 116.831 187.564 168.758C198.213 220.521 232.177 232.656 232.506 232.766C233.014 233.028 272.892 254.419 308.613 224.901C344.402 195.328 334.069 128.222 333.959 127.547V127.505C333.904 127.01 328.662 78.1258 299.665 53.6495C287.466 43.3604 272.33 37.7819 257.125 37.7819V37.7957ZM261.543 178.703C260.775 178.703 260.281 178.621 260.212 178.607H260.199C259.691 178.497 247.862 175.742 247.862 153.497C247.862 131.252 252.816 116.528 252.871 116.376C253.035 115.935 256.823 106.128 262.051 106.652C266.937 107.12 270.861 116.128 274.072 134.186C277.75 154.929 276.337 168.717 269.887 175.15C266.799 178.235 263.382 178.717 261.543 178.717V178.703ZM260.473 177.243C260.775 177.298 265.125 177.959 268.94 174.13C273.139 169.929 277.187 159.626 272.714 134.406C268.926 113.084 264.755 108.277 261.914 108.002C258.428 107.643 255.135 114.255 254.147 116.831C254.106 116.955 249.22 131.927 249.22 153.483C249.22 175.039 260.116 177.161 260.459 177.243H260.473Z" fill="#FFA4B6"/>
<path d="M490.454 187.684L466.604 155.136C466.604 155.136 506.661 128.952 488.588 74.1589C470.515 19.3662 409.585 32.0795 409.585 32.0795C409.585 32.0795 359.181 35.3577 354.859 66.2527C354.859 66.2527 342.933 154.53 350.879 217.863C350.879 217.863 351.867 240.3 384.665 237.311C417.462 234.322 414.114 214.722 414.114 214.722L413.304 188.979C413.304 188.979 430.814 251.072 469.389 234.984C507.964 218.896 490.44 187.67 490.44 187.67L490.454 187.684ZM417.984 130.66C407.554 137.023 408.789 130.412 408.666 124.048C408.542 117.685 408.666 100.853 408.666 100.853C409.434 92.4783 415.129 90.8805 415.129 90.8805C415.129 90.8805 425.312 88.0155 430.526 102.354C435.741 116.693 428.413 124.296 417.984 130.66Z" fill="#FFA4B6"/>
<path d="M456.956 238.344C452.661 238.344 448.489 237.366 444.482 235.424C427.425 227.146 417.682 203.854 414.155 193.827L414.814 214.722C414.841 214.874 415.802 220.838 411.232 226.788C406.429 233.069 397.509 236.843 384.733 238C372.657 239.102 363.435 236.939 357.315 231.581C350.618 225.714 350.207 218.221 350.193 217.904C342.33 155.26 354.049 67.0516 354.172 66.17C358.536 35.0685 409.036 31.4321 409.544 31.4046C410.066 31.2944 471.187 19.2146 489.246 73.9523C506.057 124.93 472.518 151.706 467.578 155.301L491.058 187.339C491.346 187.863 498.125 200.191 493.542 213.551C490.317 222.945 482.289 230.369 469.678 235.631C465.341 237.435 461.101 238.344 456.97 238.344H456.956ZM412.453 183.414L413.977 188.8C414.073 189.144 424.118 224.006 445.072 234.171C452.579 237.821 460.675 237.876 469.129 234.35C481.356 229.254 489.123 222.105 492.224 213.111C496.506 200.673 490.262 188.758 489.864 188.042L465.616 154.957L466.219 154.557C466.617 154.296 505.618 128.001 487.929 74.3655C470.254 20.7711 410.326 32.6167 409.722 32.7407C409.132 32.782 359.73 36.3494 355.531 66.3353C355.407 67.2169 343.716 155.246 351.551 217.766C351.551 217.89 351.963 225.08 358.221 230.548C364.053 235.645 372.918 237.683 384.596 236.623C396.947 235.493 405.537 231.912 410.107 225.962C414.32 220.493 413.441 214.887 413.441 214.832L412.453 183.386V183.414ZM411.575 133.938C410.944 133.938 410.395 133.8 409.928 133.538C407.966 132.423 407.966 129.324 407.98 126.045C407.98 125.398 407.98 124.723 407.98 124.062C407.856 117.767 407.98 101.018 407.98 100.853C408.789 92.0513 414.69 90.2882 414.937 90.2193C415.047 90.1918 425.792 87.3544 431.171 102.12C436.743 117.45 428.303 125.178 418.34 131.252C415.363 133.07 413.194 133.938 411.589 133.938H411.575ZM417.325 91.3213C416.172 91.3213 415.417 91.5141 415.308 91.5416C415.102 91.5967 410.066 93.1532 409.352 100.922C409.352 101.032 409.228 117.753 409.352 124.034C409.352 124.709 409.352 125.384 409.352 126.045C409.352 128.91 409.338 131.61 410.601 132.326C411.74 132.974 414.1 132.202 417.613 130.067C427.068 124.296 435.11 116.982 429.868 102.588C426.286 92.74 420.399 91.3213 417.311 91.3213H417.325Z" fill="#FFA4B6"/>
<path d="M548.927 106.817C548.927 106.817 534.765 210.053 551.534 226.884C568.303 243.716 605.19 256.058 612.271 208.551C619.352 161.045 606.316 110.55 606.316 110.55C606.316 110.55 642.832 105.687 647.676 98.2082C652.52 90.729 657.269 70.1507 643.161 54.4484C629.054 38.7323 579.858 36.5009 579.858 36.5009C579.858 36.5009 535.89 36.5009 517.996 48.4705C500.115 60.4401 494.516 103.456 548.927 106.817Z" fill="#FFA4B6"/>
<path d="M583.769 242.587C571.775 242.587 559.082 235.424 551.054 227.367C534.792 211.044 546.814 117.492 548.158 107.451C516.829 105.288 508.184 90.302 505.823 81.5142C502.159 67.8642 508.952 53.6908 517.625 47.892C535.478 35.95 578.06 35.8123 579.858 35.8123C581.903 35.9087 629.535 38.2502 643.669 53.9939C658.215 70.192 652.905 91.4039 648.253 98.5939C643.628 105.729 612.587 110.384 607.167 111.142C608.731 117.63 619.517 164.695 612.958 208.662C610.323 226.375 603.118 237.669 592.126 241.306C589.437 242.201 586.623 242.601 583.769 242.601V242.587ZM579.817 37.1897C579.405 37.1897 535.876 37.3274 518.366 49.049C510.091 54.5861 503.614 68.1122 507.127 81.1699C509.405 89.6684 517.872 104.214 548.954 106.142L549.695 106.183L549.599 106.913C549.462 107.946 535.671 209.998 552.014 226.402C561.662 236.085 578.184 244.46 591.687 239.997C602.158 236.54 609.033 225.631 611.599 208.469C618.584 161.651 605.781 111.252 605.657 110.743L605.465 109.985L606.233 109.889C606.59 109.833 642.489 104.985 647.114 97.8501C651.587 90.9356 656.678 70.5364 642.654 54.9305C628.89 39.6139 580.325 37.231 579.831 37.2034L579.817 37.1897Z" fill="#FFA4B6"/>
<path d="M667.602 70.3298C667.602 70.3298 661.646 140.15 675.547 216.953C675.547 216.953 684.618 242.89 711.076 241.388C737.533 239.887 734.734 221.94 732.127 187.147C732.127 187.147 728.778 173.304 741.074 175.37C753.37 177.422 778.345 168.634 777.783 138.897C777.22 109.159 743.146 116.101 743.146 116.101C741.98 116.39 729.766 122.23 731.948 107.671C733.993 93.9659 739.194 95.3984 742.57 95.3295C742.57 95.3295 770.139 97.5746 773.309 66.1563C776.479 34.7379 723.934 36.983 723.934 36.983C723.934 36.983 666.984 36.7351 667.602 70.3298Z" fill="#FFA4B6"/>
<path d="M708.908 242.146C683.919 242.146 674.985 217.449 674.903 217.188C661.235 141.761 666.751 72.2581 666.916 70.316C666.792 63.1122 669.263 56.8864 674.258 51.8038C689.449 36.3357 722.548 36.3357 723.934 36.3081C725.197 36.253 755.497 35.1236 768.451 48.9113C772.815 53.5531 774.681 59.3795 773.981 66.2389C770.784 97.9603 742.776 96.0457 742.501 96.032C742.254 96.032 741.939 96.032 741.596 96.032C738.398 95.9769 734.391 95.908 732.607 107.795C732.003 111.872 732.497 114.613 734.075 115.908C736.422 117.836 740.704 116.266 742.323 115.674C742.625 115.563 742.858 115.481 742.968 115.453C743.695 115.302 760.19 112.065 770.523 120.384C775.628 124.503 778.304 130.729 778.455 138.91C778.743 154.282 772.252 163.194 766.75 167.96C758.447 175.163 747.812 177.229 740.951 176.072C737.836 175.549 735.544 176.059 734.144 177.574C731.29 180.659 732.772 186.954 732.786 187.009L733.197 192.243C734.83 213.4 735.914 227.38 729.067 235.231C725.416 239.433 719.708 241.609 711.103 242.091C710.362 242.132 709.621 242.16 708.908 242.16V242.146ZM723.948 37.6718C723.234 37.6718 689.943 37.7819 675.232 52.768C670.498 57.5889 668.151 63.4979 668.288 70.3298V70.3711V70.4124C668.233 71.1149 662.497 141.031 676.234 216.857C676.289 217.009 684.92 240.782 708.935 240.796C709.621 240.796 710.335 240.782 711.049 240.741C719.255 240.273 724.662 238.248 728.065 234.35C734.528 226.94 733.458 213.193 731.852 192.381L731.454 187.257C731.4 187.078 729.808 180.287 733.156 176.665C734.899 174.791 737.602 174.144 741.198 174.736C747.743 175.838 757.898 173.841 765.871 166.94C771.141 162.367 777.385 153.8 777.097 138.965C776.946 131.211 774.462 125.343 769.673 121.5C759.833 113.58 743.448 116.803 743.284 116.831C743.215 116.844 743.036 116.913 742.803 116.996C740.992 117.657 736.175 119.42 733.225 116.996C731.235 115.371 730.59 112.216 731.276 107.616C733.225 94.5444 738.302 94.6408 741.637 94.6821C741.952 94.6821 742.268 94.6821 742.556 94.6821C743.723 94.7785 769.576 96.4865 772.637 66.1287C773.282 59.6825 771.553 54.228 767.477 49.8892C754.948 36.5561 724.277 37.6993 723.975 37.7131L723.948 37.6718Z" fill="#FFA4B6"/>
<path d="M942.759 127.45C942.759 127.45 937.791 78.0707 908.232 53.1399C878.673 28.209 835.597 32.6718 814.203 64.3657C814.203 64.3657 784.136 116.101 795.005 168.91C805.873 221.705 840.4 233.427 840.4 233.427C840.4 233.427 880.649 255.617 917.165 225.452C953.682 195.273 942.759 127.45 942.759 127.45ZM868.463 177.918C868.463 177.918 856.675 175.425 856.675 153.483C856.675 131.541 861.643 116.583 861.643 116.583C861.643 116.583 873.074 86.6657 881.514 134.282C889.953 181.899 868.463 177.918 868.463 177.918Z" fill="#FFA4B6"/>
<path d="M873.98 241.884C854.713 241.884 840.318 234.157 840.071 234.019C839.837 233.951 805.146 221.609 794.332 169.034C783.533 116.583 813.297 64.5172 813.599 64.0075C823.699 49.049 838.931 39.4761 856.524 37.0244C874.885 34.4624 893.891 40.1373 908.657 52.6027C937.859 77.2443 943.294 126.114 943.431 127.354C943.664 128.855 953.778 196.086 917.591 225.975C902.743 238.248 887.195 241.884 873.966 241.884H873.98ZM865.238 37.7957C862.398 37.7957 859.543 37.9886 856.716 38.388C839.522 40.7847 824.619 50.151 814.766 64.7376C814.491 65.2197 784.987 116.831 795.677 168.758C806.326 220.521 840.29 232.656 840.619 232.766C841.127 233.028 881.006 254.419 916.726 224.901C952.515 195.328 942.182 128.222 942.072 127.547V127.505C942.017 127.01 936.775 78.1258 907.779 53.6495C895.579 43.3604 880.443 37.7819 865.238 37.7819V37.7957ZM869.671 178.703C868.902 178.703 868.408 178.621 868.34 178.607H868.326C867.818 178.497 855.989 175.742 855.989 153.497C855.989 131.252 860.943 116.528 860.998 116.376C861.162 115.935 864.95 106.156 870.178 106.652C875.064 107.12 878.988 116.128 882.2 134.186C885.877 154.929 884.464 168.717 878.014 175.15C874.927 178.235 871.496 178.717 869.671 178.717V178.703ZM868.6 177.243C868.916 177.298 873.252 177.959 877.067 174.13C881.253 169.929 885.315 159.626 880.841 134.406C877.054 113.084 872.882 108.277 870.041 108.002C866.569 107.643 863.262 114.255 862.274 116.831C862.233 116.955 857.348 131.927 857.348 153.483C857.348 175.039 868.244 177.161 868.587 177.243H868.6Z" fill="#FFA4B6"/>
<path d="M965.14 65.7982C965.14 65.7982 950.237 186.981 969.614 217.408C988.991 247.835 1036.2 235.865 1036.2 235.865C1036.2 235.865 1078.93 235.369 1064.03 181.499C1064.03 181.499 1059.06 166.541 1028.25 176.017C1028.25 176.017 1022.3 176.844 1024.78 151.996C1027.26 127.147 1033.23 76.2801 1023.79 54.3382C1014.35 32.3963 971.618 35.8811 965.168 65.8119L965.14 65.7982Z" fill="#FFA4B6"/>
<path d="M1015.32 238.799C999.983 238.799 980.03 235.025 969.038 217.78C949.743 187.491 963.85 70.6741 964.468 65.7155V65.6604C968.214 48.3466 983.323 40.8673 995.125 39.7103C1008.61 38.388 1020.09 44.0216 1024.41 54.0628C1033.33 74.8063 1028.72 120.095 1025.96 147.161L1025.47 152.064C1023.83 168.428 1025.88 173.304 1027.24 174.764C1027.69 175.246 1028.03 175.315 1028.16 175.329C1059.16 165.825 1064.48 180.645 1064.69 181.279C1069.85 199.901 1068.76 214.254 1061.47 223.992C1052.66 235.755 1037.57 236.512 1036.31 236.554C1035.39 236.774 1026.6 238.813 1015.35 238.813L1015.32 238.799ZM965.813 65.9221C965.511 68.4152 951.266 187.339 970.19 217.05C989.073 246.705 1035.55 235.328 1036.02 235.204L1036.18 235.176C1036.33 235.176 1051.64 234.846 1060.36 223.152C1067.36 213.785 1068.38 199.832 1063.35 181.678C1063.31 181.568 1058.15 167.533 1028.44 176.665C1028.24 176.706 1027.35 176.789 1026.37 175.852C1024.42 173.965 1022.45 168.29 1024.09 151.913L1024.59 147.009C1027.15 121.844 1031.93 75.0129 1023.15 54.5999C1019.07 45.1235 1008.12 39.8067 995.262 41.0739C983.927 42.1758 969.422 49.3521 965.826 65.9221H965.813Z" fill="#FFA4B6"/>
<path d="M1093.63 61.3905C1093.63 61.3905 1070.52 116.004 1091.02 224.474C1091.02 224.474 1092.89 231.389 1101.64 236.444C1110.4 241.499 1126.05 239.433 1134.25 234.006C1142.44 228.579 1150.65 212.312 1151.76 191.361C1152.87 170.411 1157.9 119.544 1155.42 85.1368C1155.42 85.1368 1155.91 61.1977 1149.2 49.2281C1142.49 37.2585 1111.32 30.1512 1093.61 61.3905H1093.63Z" fill="#FFA4B6"/>
<path d="M1114.39 240.011C1109.55 240.011 1104.88 239.102 1101.3 237.05C1092.39 231.912 1090.43 224.956 1090.36 224.667C1070.05 117.175 1092.76 61.6797 1093 61.1426L1093.04 61.0737C1104.21 41.3632 1119.38 38.388 1127.48 38.388H1127.56C1137.21 38.4155 1146.36 42.7406 1149.82 48.9113C1156.55 60.9084 1156.13 84.1864 1156.12 85.1643C1158.07 112.065 1155.39 149.296 1153.62 173.937C1153.13 180.866 1152.7 186.857 1152.46 191.417C1151.26 213.772 1142.38 229.474 1134.63 234.598C1129.64 237.904 1121.8 240.025 1114.39 240.025V240.011ZM1094.24 61.6935C1093.56 63.3602 1071.68 118.484 1091.69 224.336C1091.69 224.35 1093.6 231.003 1101.98 235.838C1110.62 240.81 1125.94 238.675 1133.88 233.427C1141.34 228.482 1149.92 213.207 1151.08 191.32C1151.33 186.747 1151.76 180.756 1152.25 173.813C1154.02 149.213 1156.68 112.037 1154.75 85.1781C1154.75 84.8751 1155.16 61.2252 1148.63 49.5587C1145.4 43.8012 1136.73 39.7516 1127.56 39.7378H1127.48C1119.69 39.7378 1105.09 42.6028 1094.24 61.6935Z" fill="#FFA4B6"/>
<path d="M1321.6 127.45C1321.6 127.45 1316.64 78.0707 1287.08 53.1399C1257.52 28.209 1214.44 32.6718 1193.05 64.3657C1193.05 64.3657 1162.98 116.101 1173.86 168.91C1184.73 221.705 1219.26 233.427 1219.26 233.427C1219.26 233.427 1259.51 255.617 1296.03 225.452C1332.54 195.273 1321.62 127.45 1321.62 127.45H1321.6ZM1247.31 177.918C1247.31 177.918 1235.52 175.425 1235.52 153.483C1235.52 131.541 1240.49 116.583 1240.49 116.583C1240.49 116.583 1251.92 86.6657 1260.36 134.282C1268.8 181.899 1247.31 177.918 1247.31 177.918Z" fill="#FFA4B6"/>
<path d="M1252.83 241.884C1233.56 241.884 1219.16 234.157 1218.92 234.019C1218.68 233.951 1183.99 221.609 1173.18 169.034C1162.38 116.583 1192.14 64.5172 1192.45 64.0075C1202.55 49.049 1217.78 39.4761 1235.37 37.0244C1253.73 34.4624 1272.74 40.1511 1287.5 52.6027C1316.72 77.2443 1322.14 126.114 1322.28 127.354C1322.51 128.855 1332.62 196.086 1296.44 225.975C1281.59 238.248 1266.04 241.884 1252.81 241.884H1252.83ZM1244.08 37.7957C1241.24 37.7957 1238.39 37.9885 1235.56 38.388C1218.37 40.7847 1203.46 50.1509 1193.61 64.7376C1193.34 65.2196 1163.83 116.831 1174.52 168.758C1185.17 220.521 1219.14 232.656 1219.47 232.766C1219.97 233.028 1259.85 254.419 1295.57 224.901C1331.36 195.328 1321.03 128.222 1320.92 127.547V127.505C1320.86 127.01 1315.62 78.1258 1286.63 53.6495C1274.43 43.3604 1259.29 37.7819 1244.08 37.7819V37.7957ZM1248.52 178.703C1247.75 178.703 1247.25 178.621 1247.19 178.607H1247.17C1246.66 178.497 1234.84 175.742 1234.84 153.497C1234.84 131.252 1239.79 116.528 1239.84 116.376C1240.01 115.935 1243.8 106.156 1249.02 106.652C1253.91 107.12 1257.83 116.128 1261.05 134.186C1264.72 154.929 1263.31 168.717 1256.86 175.15C1253.77 178.235 1250.34 178.717 1248.52 178.717V178.703ZM1247.45 177.243C1247.75 177.298 1252.1 177.959 1255.91 174.13C1260.1 169.929 1264.16 159.626 1259.69 134.406C1255.9 113.084 1251.73 108.277 1248.89 108.002C1245.44 107.643 1242.11 114.255 1241.12 116.831C1241.08 116.955 1236.19 131.927 1236.19 153.483C1236.19 175.039 1247.09 177.161 1247.43 177.243H1247.45Z" fill="#FFA4B6"/>
<path d="M1165.44 152.781C1185.73 144.475 1207.07 137.822 1229.24 138.91C1251.32 139.998 1271.74 149.406 1292.66 155.591C1316.8 162.725 1370.28 169.819 1368.77 130.88C1368.18 115.563 1360.43 99.6545 1348.49 90.0679C1344.38 86.7759 1338.52 92.5885 1342.67 95.908C1354.31 105.261 1363.98 123.814 1359.78 139.103C1356.98 149.268 1345.41 151.651 1336.21 152.739C1324.28 154.144 1312.16 152.243 1300.62 149.241C1277.97 143.332 1256.56 132.96 1233 130.921C1209.43 128.883 1185.35 135.77 1163.26 144.819C1158.41 146.803 1160.54 154.805 1165.45 152.794L1165.44 152.781Z" fill="#FF6590"/>
<path d="M949.88 192.036C991.296 201.265 1034.22 200.604 1075.29 189.874C1080.41 188.538 1078.24 180.563 1073.1 181.899C1033.47 192.243 992.037 192.959 952.062 184.061C946.903 182.904 944.693 190.879 949.867 192.036H949.88Z" fill="#FF6590"/>
<path d="M639.511 142.12C657.461 124.654 674.573 109.406 699.768 104.09C723.166 99.1587 747.496 102.464 770.18 109.214C775.271 110.729 777.44 102.754 772.376 101.239C748.251 94.0623 722.438 90.8668 697.586 96.1146C671.101 101.693 652.575 117.891 633.693 136.266C629.878 139.971 635.71 145.811 639.511 142.106V142.12Z" fill="#FF6590"/>
<path d="M337.458 115.412C367.292 127.547 393.543 147.106 424.022 157.863C454.473 168.607 486.968 171.527 518.901 174.42C524.171 174.902 524.144 166.637 518.901 166.155C486.845 163.249 454.294 160.246 423.857 149.034C394.394 138.194 368.719 119.241 339.654 107.423C334.741 105.426 332.614 113.415 337.458 115.398V115.412Z" fill="#FF6590"/>
<path d="M8.37093 144.723C-0.178394 157.078 -3.62282 172.546 5.00884 185.893C12.5838 197.601 26.3341 203.496 39.1924 207.229C72.9917 217.05 109.591 214.929 142.457 202.697C147.383 200.866 145.256 192.877 140.261 194.722C112.541 205.039 82.337 208.111 53.272 202.188C41.0999 199.708 27.5966 196.224 17.8534 188.028C4.96767 177.174 6.58696 161.734 15.4656 148.896C18.4984 144.516 11.3625 140.384 8.35721 144.723H8.37093Z" fill="#FF6590"/>
</g>
<defs>
<clipPath id="clip0_139_1299">
<rect width="1368.8" height="243" fill="white"/>
</clipPath>
</defs>
</svg>
