<?xml version="1.0" encoding="UTF-8"?>
<svg id="Layer_1" data-name="Layer 1" xmlns="http://www.w3.org/2000/svg" viewBox="0 0 681.79 579.9">
  <defs>
    <style>
      .cls-1 {
        fill: #fdb2c1;
      }

      .cls-2 {
        fill: #fef3ec;
      }

      .cls-3 {
        opacity: .12;
      }

      .cls-4 {
        fill: #666;
      }

      .cls-5 {
        opacity: .2;
      }

      .cls-6 {
        fill: #bfdae5;
        stroke: #bfdae5;
        stroke-miterlimit: 10;
      }

      .cls-7 {
        fill: #ec887e;
      }

      .cls-8 {
        fill: #fbeda6;
      }
    </style>
  </defs>
  <g class="cls-5">
    <path class="cls-4" d="M630.45,219.65c8.08,89.27,4.29,183.98-5.73,272.67.5,18.41-.69,36.86-3.56,55.05-.83,5.24-2.06,10.92-6.22,14.21-4.48,3.55-10.8,3.12-16.28,4.78-36.51,2.9-73.18,3.83-109.78,2.79-23.21.39-46.43.33-69.64-.18-23.18.96-46.41.99-69.59.06-25.56.6-51.15-.04-76.64-1.93-25.04-1.73-53.25-3.37-78.25-5.11-11.77.45-26.76.02-38.1.59-11.35.57-25.15-.62-36.3-1.73-9.65-.51-22.62.91-32.45-.29-9.2-1.12-19.2-5.75-24.13-13.25,21.56-83.02,76.95-165.7,136.94-227.07,110.12-112.65,253.25-211.18,407.56-242.91,9.29,2.25,18.6,10.54,21.51,19.64s2.63,18.87,2.33,28.42c-.89,27.88-1.78,55.76-2.68,83.64.36,3.53.7,7.06,1.02,10.6Z"/>
    <path class="cls-4" d="M628.95,219.65c2.67,29.56,4.02,59.23,4.32,88.9.3,30.09-.47,60.18-2.13,90.22-1.63,29.61-4.13,59.18-7.37,88.66-.2,1.78-.52,3.59-.53,5.38-.02,1.95.08,3.91.09,5.87.02,3.75-.02,7.5-.14,11.24-.24,7.66-.77,15.3-1.59,22.92-.41,3.76-.88,7.5-1.43,11.24-.47,3.19-.91,6.42-1.88,9.5-.83,2.64-2.16,5.24-4.4,6.95-2.42,1.85-5.52,2.45-8.45,2.95-3.24.56-6.46,1.37-9.74,1.62-3.8.29-7.6.56-11.41.81-7.77.51-15.55.92-23.33,1.25-15.48.65-30.98.95-46.47.9-7.71-.03-15.41-.14-23.12-.34s-15.59.12-23.38.16c-15.59.08-31.17-.04-46.76-.37-3.81-.08-7.62.18-11.43.3s-7.62.21-11.43.27c-7.79.13-15.58.16-23.37.08s-15.58-.26-23.36-.56c-3.81-.14-7.63.04-11.45.09s-7.97.06-11.95.05c-30.12-.11-60.11-2.52-90.14-4.42-7.18-.46-14.36-.91-21.54-1.37s-14.24-1.11-21.36-1.42c-3.16-.14-6.39.14-9.55.17-3.52.04-7.03.04-10.55.05-6.56.02-13.11.14-19.67.39-6.71.26-13.43-.03-20.12-.49s-13.02-1.4-19.55-1.41c-12.47-.03-25.77,2.05-37.65-2.75-5.09-2.06-9.95-5.31-13.03-9.93l.15,1.16c3.62-13.91,8.11-27.58,13.31-40.98s11.48-27.36,18.19-40.59c6.78-13.36,14.16-26.41,22.05-39.15s16.34-25.25,25.2-37.39,18.09-23.84,27.76-35.26,19.07-21.76,29.16-32.13,19.89-20.01,30.12-29.72,20.76-19.33,31.42-28.68,21.67-18.62,32.79-27.58,22.66-17.86,34.28-26.41,23.33-16.75,35.28-24.71,24.06-15.61,36.38-22.95,24.86-14.39,37.57-21.08,25.36-12.89,38.31-18.77c12.94-5.88,26.07-11.37,39.36-16.43,13.14-5,26.43-9.57,39.87-13.68s26.89-7.71,40.52-10.83c3.42-.78,6.84-1.53,10.27-2.25.82-.17,1.12-.27,1.87-.05.83.24,1.65.53,2.46.85,1.48.6,2.9,1.35,4.25,2.19,5.48,3.38,10.38,8.59,12.52,14.75,2.55,7.34,2.74,15.29,2.6,22.98-.15,8.33-.51,16.66-.77,24.98-.54,16.84-1.08,33.69-1.62,50.53-.13,4.07-.26,8.13-.39,12.2s.61,8.11.97,12.1c.17,1.91,3.17,1.93,3,0-.36-3.99-1.1-8.1-.97-12.1s.27-8.3.4-12.45c.26-8.13.52-16.26.78-24.39.52-16.34,1.14-32.67,1.56-49.01.19-7.5.11-15.13-1.73-22.45-1.63-6.46-5.18-12.03-10.25-16.36-2.37-2.02-4.98-3.78-7.8-5.1-1.36-.63-2.76-1.19-4.2-1.61-.81-.24-1.42-.36-2.26-.2-.94.18-1.88.39-2.82.59-6.59,1.4-13.16,2.91-19.69,4.55-26.57,6.63-52.65,15.17-78.1,25.27-25.6,10.16-50.57,21.87-74.85,34.87s-48.3,27.55-71.38,43.03c-23.23,15.59-45.74,32.26-67.52,49.82s-42.31,35.56-62.39,54.54-39.56,38.53-57.57,59.44c-18.99,22.04-36.51,45.37-52.21,69.86s-29.43,49.9-40.67,76.57c-5.49,13.02-10.35,26.31-14.41,39.85-.97,3.22-1.89,6.46-2.76,9.71-.43,1.58-1.23,3.12-.2,4.58.9,1.28,1.92,2.48,3.04,3.57,4.41,4.29,10.18,7.14,16.09,8.72,13.05,3.48,26.71.27,39.95,1.57,7.26.71,14.53,1.33,21.82,1.6,6.84.25,13.63-.14,20.47-.27s14.26-.07,21.39-.14c3.46-.04,6.99-.35,10.44-.11,3.75.26,7.51.51,11.26.76,15.23,1.01,30.47,1.94,45.7,2.93,15.77,1.02,31.52,2.26,47.32,2.87,8.13.32,16.26.51,24.4.57s16.6-.26,24.9-.19,16.24.53,24.35.62,16.24.07,24.36-.07c8.28-.14,16.58-.69,24.85-.53,8.12.16,16.25.27,24.37.32,16.41.1,32.83-.37,49.24-.03s32.48.28,48.72-.16c16.4-.44,32.79-1.28,49.15-2.52,1.86-.14,3.69-.22,5.5-.67,1.66-.42,3.36-.68,5.05-.96,3.04-.5,6.14-1.07,8.86-2.59,5.71-3.2,7.47-9.79,8.44-15.81,2.54-15.69,3.77-31.61,3.78-47.51,0-1.96-.02-3.91-.06-5.87-.04-2.1.13-4.09.36-6.17.43-3.89.85-7.79,1.25-11.68.8-7.69,1.55-15.38,2.24-23.07,2.82-31.35,4.76-62.79,5.65-94.26.9-31.68.73-63.39-.76-95.05-.71-14.98-1.72-29.94-3.07-44.88-.17-1.91-3.17-1.93-3,0Z"/>
  </g>
  <g>
    <path class="cls-8" d="M185.87,553.23c-25.29-.82-50.78-1.88-74.15-3.65-11.87-.05-23.74-.11-35.62-.16-2.51-.01-5.04-.02-7.48-.59-8.3-1.92-13.83-9.63-17.98-17.07,25.07-39.47,52.58-90.74,77.65-130.21,20.88-32.87,41.8-65.81,65.68-96.57,19.75-25.44,41.45-49.3,63.13-73.13,15.92-17.5,31.83-35,47.75-52.5,15.36-16.89,30.93-33.96,49.99-46.52,12.63-8.32,26.53-14.49,40.48-20.34,19.92-8.35,40.15-16.16,61.18-21.13,18.51-4.37,37.47-6.49,56.38-8.6,25.29-2.83,65.91-8.54,90.92-11.32,7.18.66,11.5,7.03,12.72,15.36.99,6.75,1.74,13.49,1.58,20.31-.24,9.98-.29,20.42-.72,29.94-.27,6.08,1.44,11.88,1.13,20.36,5.89,101.47,1.71,233.93-3.01,335.47l-.39,8.46c-.96,14.3-2.4,28.65-7.38,42.04-.74,2-1.58,4-2.89,5.69-4.31,5.56-18.61,7.66-25.64,7.94-52.62,3.57-112.15,4.27-164.88,3.83-56.4.26-112.8-1.69-169.05-5.86-18.88-.59-39.09-1.09-59.42-1.75Z"/>
    <path class="cls-8" d="M185.87,551.73c-19.39-.63-38.78-1.38-58.15-2.56-4.57-.28-9.15-.58-13.72-.92-4.86-.36-9.77-.2-14.65-.23s-9.89-.04-14.84-.07c-2.47-.01-4.95-.02-7.42-.03-2.3-.01-4.64.05-6.92-.32-8.76-1.4-14.21-9.44-18.23-16.61v1.51c14.27-22.47,27.51-45.58,40.85-68.6,13.35-23.04,26.85-45.97,41.14-68.45,15.61-24.55,31.35-49.04,48.46-72.57,17.25-23.72,36.2-46.05,55.76-67.88,20.08-22.41,40.45-44.58,60.7-66.84,18.46-20.3,36.69-41.72,60.26-56.29,12.13-7.5,25.24-13.21,38.37-18.69,13.41-5.6,26.96-10.91,40.83-15.26,14.07-4.41,28.43-7.55,43.01-9.75,13.41-2.02,26.9-3.34,40.36-4.95,23.33-2.8,46.61-6.03,69.93-8.87,2.6-.32,5.19-.63,7.79-.93,1.16-.13,2.32-.27,3.48-.4,1.25-.14,2.4.08,3.59.52,4.61,1.71,7.04,6.55,8.12,11.06.81,3.38,1.13,6.93,1.48,10.38.38,3.7.6,7.42.55,11.14-.08,7.36-.25,14.73-.44,22.09-.09,3.4-.33,6.82-.33,10.22,0,2.77.35,5.52.65,8.26.35,3.24.6,6.48.54,9.74-.06,3.01.26,6.05.42,9.06.63,12.13,1.11,24.27,1.47,36.41.77,25.97,1.03,51.95.97,77.93-.06,26.9-.47,53.81-1.11,80.7s-1.48,52.48-2.49,78.72c-.48,12.3-.99,24.6-1.53,36.9-.45,10.1-.73,20.23-1.52,30.3-.56,7.15-1.33,14.29-2.73,21.33-.68,3.41-1.5,6.8-2.52,10.13-.96,3.16-1.94,6.53-3.71,9.35-2.38,3.78-7.4,5.23-11.47,6.27-4.46,1.14-9.01,1.72-13.6,1.98-13.82.79-27.63,1.65-41.47,2.2-14.26.57-28.53.98-42.81,1.25-28.2.55-56.39.31-84.59.39-30.35.09-60.71-.47-91.04-1.67-15.25-.6-30.49-1.37-45.72-2.29-7.62-.46-15.23-.97-22.84-1.51-7.28-.52-14.57-.68-21.87-.89-14.34-.41-28.67-.8-43.01-1.26-1.93-.06-1.93,2.94,0,3,15.13.49,30.26.89,45.38,1.33,7.34.21,14.65.48,21.98.99s15.23,1.03,22.84,1.49c30.63,1.83,61.3,3,91.99,3.52,15.26.26,30.52.3,45.78.28,14.09-.02,28.18.15,42.27.08,28.69-.14,57.37-.67,86.03-1.89,13.27-.57,26.61-1.06,39.85-2.2,4.88-.42,9.8-1.22,14.47-2.72s8.76-3.58,11.06-7.94c1.59-3.01,2.62-6.37,3.58-9.62s1.83-6.88,2.49-10.37c1.34-7,2.1-14.11,2.66-21.21.8-10.21,1.09-20.47,1.54-30.7,1.13-25.5,2.12-51,2.93-76.51.85-26.91,1.51-53.83,1.87-80.75.37-26.86.45-53.72.1-80.58-.33-25.19-1.03-50.37-2.39-75.52-.17-3.21-.16-6.41-.3-9.61-.13-3.03-.51-6.04-.81-9.05-.65-6.42-.05-12.9.08-19.33.15-7.37.55-14.8.3-22.16-.13-3.72-.48-7.43-.95-11.12-.4-3.16-.74-6.37-1.73-9.4-1.57-4.78-4.63-9.19-9.48-11.01-1.11-.42-2.41-.79-3.61-.79s-2.53.28-3.75.42c-2.58.3-5.16.6-7.73.92-11.77,1.43-23.52,2.96-35.27,4.48s-23.34,3.03-35.02,4.43c-13.52,1.62-27.07,2.96-40.54,4.96-14.67,2.18-29.12,5.28-43.29,9.68-14.04,4.36-27.74,9.73-41.3,15.38s-26.32,11.16-38.52,18.6c-11.68,7.12-22.18,15.98-31.94,25.53s-19.52,20.51-29.04,30.98c-10.31,11.34-20.62,22.68-30.94,34.01-20.08,22.07-40.35,44.01-59.4,66.99-18.7,22.56-35.76,46.34-51.92,70.77s-30.48,46.86-44.78,70.85-27.54,47.45-41.5,71.06c-6.36,10.76-12.82,21.46-19.52,32.01-.29.45-.26,1.06,0,1.51,3.68,6.57,8.38,13.52,15.53,16.63,4.21,1.83,8.69,1.76,13.2,1.78,5.03.02,10.06.04,15.09.07s10.06.05,15.09.07,9.69.48,14.54.8c9.72.63,19.44,1.15,29.17,1.59,11.3.51,22.6.92,33.9,1.29,1.93.06,1.93-2.94,0-3Z"/>
  </g>
  <g class="cls-5">
    <path class="cls-4" d="M631.06,151.35c.03.18.06.36.09.54,4.81,26.84,10.32,62.04,15.12,88.86,3.23,20.24,7.67,48.63,10.9,68.88,3.87,22.46,8.91,51.13,12.78,73.59,4.12,24.38,7.97,55.14,10.18,79.77.5,7.52.15,21.01-5.5,25.99-2.1,1.85-4.74,2.93-7.36,3.9-11.88,4.44-24.22,7.46-36.54,10.48-20.51,3.59-51.48,9.93-71.99,13.53-30.46,4.1-60.76,9.37-90.82,15.79-18.39,2.74-43.01,6.34-61.4,9.08-23.67,3.99-54.09,9.31-77.91,12.21-27.81,2.73-61.14,7.41-88.83,11.24-19.89,2.5-44.89,6.88-64.67,10.07-4.05.78-12.57,1.59-16.65,2.2-5.55.82-11.26,1.47-16.74.22s-10.65-4.69-12.62-9.89c-1.39-28.41,4.94-71.86,14.53-98.92,29.69-83.71,82.4-157.82,144.05-221.77,61.65-63.95,132.31-118.43,203.48-171.58,27.61-20.62,68.59-50.89,100.27-63.38,4.64.08,8.79,3.09,11.44,6.87s3.96,7.98,5.26,12.26c3.36,11.07,6.33,22.3,7.8,33.78,4.63,27.06,10.46,59.16,15.1,86.29Z"/>
    <path class="cls-4" d="M629.61,151.75c2.42,14.12,4.87,28.24,7.22,42.37,2.4,14.41,4.77,28.83,7.32,43.22,2.42,13.69,4.43,27.47,6.59,41.2,2.15,13.62,4.25,27.25,6.6,40.84,2.56,14.8,5.15,29.6,7.72,44.39s4.91,28.27,6.94,42.47c2.13,14.99,3.97,30.03,5.51,45.09.63,6.15,1.42,12.31,1.26,18.51-.14,5.31-.59,11.4-3.48,16.02-1.67,2.68-4.58,4.09-7.44,5.2-3.84,1.49-7.76,2.79-11.69,3.99-7.9,2.43-15.93,4.43-23.96,6.4-6.2,1.52-12.61,2.4-18.89,3.58-6.87,1.3-13.74,2.63-20.6,3.95-13.37,2.58-26.74,5.37-40.23,7.25-16.77,2.34-33.48,5.04-50.13,8.08-8.33,1.52-16.64,3.13-24.93,4.83-3.97.81-7.93,1.78-11.94,2.37-3.35.5-6.69.99-10.04,1.49-14.41,2.13-28.82,4.25-43.22,6.38s-28.38,4.71-42.58,7.03-28.81,4.8-43.3,6.26c-15.22,1.53-30.41,3.43-45.58,5.43s-29.81,4.09-44.73,6.07c-14.8,1.97-29.54,4.41-44.26,6.84-6.6,1.09-13.19,2.29-19.81,3.25-3.01.43-6.04.76-9.06,1.12-3.18.38-6.36.91-9.55,1.22-6.94.68-14.7.22-19.94-4.99-1.05-1.05-1.94-2.25-2.57-3.6-.55-1.17-.33-2.87-.36-4.16-.07-3.01-.06-6.02,0-9.03.3-13.4,1.67-26.78,3.74-40.01,2.04-13,4.72-25.96,8.57-38.55,4.08-13.34,9.43-26.38,15.02-39.15,5.86-13.4,12.3-26.54,19.25-39.41,6.99-12.94,14.49-25.61,22.44-37.99s16.29-24.41,25.04-36.19c8.77-11.81,17.92-23.33,27.4-34.59s19.25-22.2,29.31-32.9c10.68-11.36,21.67-22.43,32.91-33.25s23.27-21.89,35.23-32.47,24.03-20.85,36.29-30.98c12.27-10.14,24.69-20.1,37.21-29.93s25.2-19.57,37.91-29.21,24.24-18.29,36.42-27.35c10.78-8.02,21.62-15.95,32.67-23.58,11.64-8.04,23.49-15.8,35.79-22.81,5.65-3.22,11.4-6.28,17.28-9.04,2.67-1.25,5.37-2.45,8.1-3.55,1.42-.57,3.26.13,4.58.75,1.52.72,2.87,1.72,4.06,2.9,2.54,2.53,4.16,5.83,5.38,9.17,1.36,3.74,2.43,7.6,3.52,11.42,2.26,7.96,4.22,16.02,5.46,24.2,2.3,15.23,5.18,30.38,7.86,45.54,2.58,14.61,5.17,29.22,7.68,43.85.33,1.9,3.22,1.09,2.89-.8-2.64-15.38-5.36-30.75-8.08-46.11-1.37-7.76-2.74-15.52-4.1-23.28s-2.51-15.24-3.82-22.85c-1.41-8.24-3.51-16.35-5.87-24.36-2.05-6.98-4.02-14.9-9.8-19.82-2.5-2.13-5.66-3.75-9-3.85-1.41-.04-3,.93-4.28,1.47-1.39.59-2.78,1.2-4.16,1.83-5.91,2.69-11.68,5.7-17.35,8.88-12.43,6.97-24.4,14.75-36.14,22.82s-22.25,15.76-33.2,23.89c-12.27,9.12-24.5,18.3-36.69,27.54-12.79,9.7-25.53,19.47-38.16,29.38s-25.32,20.06-37.77,30.35c-12.38,10.22-24.62,20.63-36.65,31.27-12.08,10.68-23.96,21.59-35.57,32.78s-22.41,22.09-33.18,33.56c-10.2,10.87-20.12,22-29.7,33.42s-18.73,22.98-27.55,34.9c-8.86,11.96-17.32,24.21-25.33,36.76-7.95,12.46-15.46,25.2-22.44,38.23-7.01,13.07-13.49,26.43-19.37,40.05-5.53,12.8-10.87,25.84-14.84,39.22s-6.5,26.15-8.48,39.44-3.33,26.75-3.52,40.2c-.04,3.02-.02,6.04.08,9.06.06,1.63.18,2.86.96,4.33.73,1.37,1.7,2.64,2.8,3.73,5.12,5.09,12.52,6.44,19.49,6.07,3.47-.19,6.88-.78,10.32-1.2,3.03-.38,6.07-.71,9.1-1.1,6.48-.84,12.93-2.04,19.38-3.1,14.99-2.48,29.98-4.99,45.03-7.04s30-4.13,45.01-6.11c15.41-2.03,30.83-3.97,46.29-5.53,14.68-1.49,29.3-3.94,43.86-6.31,14.28-2.32,28.53-4.95,42.84-7.07,14.61-2.17,29.21-4.31,43.82-6.47,3.4-.5,6.81-1.01,10.21-1.51,4.04-.6,8.04-1.6,12.05-2.42,8.37-1.71,16.76-3.33,25.17-4.87,16.9-3.08,33.86-5.8,50.87-8.15,13.54-1.87,26.97-4.77,40.39-7.36,6.9-1.33,13.8-2.66,20.71-3.96s13.22-2.28,19.73-3.89c8.1-2,16.19-4.08,24.14-6.63,3.78-1.22,7.61-2.46,11.24-4.09,2.79-1.26,5.29-2.99,6.93-5.62,2.97-4.75,3.62-10.9,3.85-16.37.26-6.24-.48-12.42-1.11-18.62-1.54-15.17-3.38-30.32-5.51-45.42-2.03-14.43-4.51-28.78-7-43.14-2.6-14.95-5.21-29.89-7.8-44.84-2.39-13.8-4.53-27.63-6.71-41.46s-4.2-27.63-6.63-41.38c-2.58-14.62-4.99-29.27-7.43-43.92-2.29-13.77-4.68-27.52-7.04-41.29-.33-1.9-3.22-1.09-2.89.8Z"/>
  </g>
  <g>
    <path class="cls-1" d="M556.43,505.14c31.6-4.96,62.96-11.43,93.94-19.38,4.29-1.1,8.75-2.32,12.08-5.26,4.08-3.61,5.59-8.93,5.89-14.51-7.3-57.35-16.19-118.61-25.58-175.65-8.02-49.39-16.4-102.08-24.42-151.47-5.2-37.26-13.76-82.29-24.48-118.35-1.93-6.5-4.51-13.54-10.43-16.85-4-2.23-8.82-2.31-13.4-2.12-7.43.31-14.83,1.17-22.13,2.59-20.77,3.77-47.62,8.76-68.01,11.32-27.54,3.46-54.84,8.53-82.12,13.6-27.15,5.05-54.79,10.83-81.95,15.9-20.18,13.11-32.76,42.05-41.01,64.72-19.48,53.5-40.87,106.31-64.13,158.29-11.4,25.48-23.25,50.78-36.25,75.49-29.65,56.35-68.24,123.33-69.26,186.95,3.37,13.38,8.74,29.57,21.2,35.51,9.04,4.31,19.63,2.92,29.54,1.45,82.5-12.29,165-24.59,247.51-36.88"/>
    <path class="cls-1" d="M556.83,506.59c29.99-4.71,59.76-10.77,89.19-18.18,6.08-1.53,13.01-2.68,17.77-7.11,2.13-1.99,3.63-4.54,4.59-7.27s1.7-6.07,1.34-8.96c-1.85-14.53-3.78-29.05-5.76-43.57-4.02-29.41-8.29-58.78-12.83-88.11-4.47-28.88-9.26-57.72-13.9-86.57-4.73-29.37-9.43-58.74-14.17-88.1-4.38-27.11-8.23-54.27-13.72-81.19-2.71-13.3-5.7-26.54-9.12-39.67-1.64-6.29-3.33-12.57-5.24-18.78-1.61-5.25-3.69-10.84-7.89-14.59C582.1,0,575.42-.21,569.06.09c-7.45.36-14.8,1.38-22.13,2.71-12.92,2.34-25.83,4.72-38.77,6.89s-26.63,3.95-39.97,5.83c-15.05,2.12-30.04,4.66-44.99,7.34-29.99,5.39-59.85,11.39-89.75,17.2-3.77.73-7.54,1.46-11.31,2.18-1.76.33-3.52.67-5.28,1-.75.14-1.43.21-2.08.61s-1.33.9-1.97,1.36c-4.39,3.2-8.31,6.99-11.81,11.14-7.56,8.96-13.35,19.29-18.26,29.89-5.13,11.07-9.17,22.57-13.4,34-5.23,14.15-10.6,28.25-16.09,42.3-10.95,27.98-22.42,55.75-34.42,83.29-11.99,27.52-24.38,54.89-37.89,81.7-12.35,24.51-25.82,48.45-37.99,73.06-12.08,24.45-23.19,49.58-30.66,75.86-3.56,12.52-6.25,25.3-7.64,38.25-.35,3.23-.61,6.47-.78,9.72-.08,1.58-.14,3.16-.18,4.74s.33,2.83.71,4.28c1.41,5.3,3.09,10.53,5.34,15.53s4.99,9.49,8.8,13.21c4.28,4.18,9.72,6.72,15.62,7.61,6.65,1.01,13.36.27,19.97-.68,7.48-1.07,14.95-2.22,22.42-3.34,30.46-4.54,60.93-9.08,91.39-13.62,30.63-4.56,61.26-9.13,91.89-13.69,14.66-2.18,29.31-4.37,43.97-6.55,1.9-.28,1.09-3.17-.8-2.89-30.14,4.49-60.27,8.98-90.41,13.47-30.14,4.49-60.27,8.98-90.41,13.47-15.15,2.26-30.3,4.52-45.45,6.77-7.37,1.1-14.74,2.21-22.11,3.29-6.6.97-13.46,1.89-20.1.8-5.75-.94-10.82-3.47-14.81-7.73-3.55-3.8-6.11-8.49-8.09-13.27-1.06-2.54-1.97-5.15-2.78-7.78-.39-1.24-.75-2.49-1.1-3.74s-.87-2.66-1.06-3.99c-.2-1.42.04-3.03.11-4.46.07-1.65.17-3.3.29-4.95.23-3.18.55-6.36.94-9.52,3.28-26.28,11.86-51.74,22.15-76.03s23.06-48.77,35.7-72.59c6.4-12.07,12.84-24.12,18.95-36.33,6.65-13.28,13.01-26.7,19.21-40.2,12.34-26.88,24.1-54.03,35.39-81.36,11.33-27.44,22.16-55.09,32.46-82.93,8.14-22.01,15.85-45.27,31.23-63.49,3.47-4.12,7.36-7.95,11.76-11.07.44-.31.92-.74,1.41-.96.81-.38,1.93-.41,2.8-.57,1.92-.36,3.84-.73,5.77-1.09,3.61-.69,7.23-1.39,10.84-2.09,14.74-2.87,29.46-5.83,44.2-8.69,29.58-5.74,59.25-11.37,89.1-15.57,13.05-1.84,26.1-3.51,39.1-5.68,12.91-2.16,25.79-4.52,38.68-6.86,7.08-1.29,14.13-2.33,21.32-2.72,6.32-.34,13.22-.53,17.89,4.44,3.89,4.14,5.45,9.98,7,15.29,1.79,6.13,3.46,12.3,5.04,18.49,6.67,26.13,11.84,52.65,16.08,79.28,2.15,13.5,4.15,27.02,6.33,40.52,2.32,14.37,4.63,28.74,6.94,43.12,4.63,28.82,9.22,57.65,13.93,86.46,4.7,28.72,9.17,57.48,13.37,86.28,4.21,28.85,8.17,57.74,11.87,86.66.21,1.62.3,3.06.09,4.69-.2,1.53-.53,3.05-1.02,4.51-.92,2.77-2.53,5.3-4.86,7.09s-5.22,2.81-8.04,3.62c-3.42.97-6.89,1.79-10.34,2.65-14.57,3.62-29.22,6.91-43.94,9.87s-28.22,5.36-42.4,7.59c-1.9.3-1.09,3.19.8,2.89h0Z"/>
  </g>
  <g class="cls-3">
    <path class="cls-4" d="M379.87,142.17c-53.39,30.16-106.37,61.31-154.26,99.52-30.5,24.33-58.74,51.38-85.77,79.51-14.68,15.27-29.05,30.93-41.28,48.23-32.33,45.76-48.06,109.26-63.53,162.93-.22,2.86.21,7.06,0,9.92,34.43-1.5,74.63-3.63,109.06-5.13,30.78-1.32,61.56-2.64,92.33-3.96,14.08-.44,34.96-.23,49.04-.67,6.71-.56,19.18-1,25.88-1.55,2.99-.25,6-.5,8.89-1.29,2.95-.81,5.72-2.16,8.47-3.51,13.11-6.41,27.37-13.94,39.98-19.87.44-.09.87-.17,1.31-.22,3.69-.45,7.56.84,10.25,3.41,2.88,2.76,4.04,9.18,3.51,12.81,11.08,10.57,33.25,20.16,51.54,18.44,14.75-1.39,34.57-8.12,49-11.51,24.89-6.94,53.71-8.93,79.44-6.5,2.24-5.24,4.47-12.87,6.71-18.1,1.72-4.04,3.47-8.12,6.08-11.65,2.59-3.5,5.94-6.35,9.37-9.03,4.04-3.16,8.22-6.13,12.54-8.9.02-28.82-.55-68.94.07-97.76-.63-32.6-.42-70.43.39-103.03.09-28.27-.11-60.05-.02-88.32-1.5-45.74-2.44-92.11-.79-137.84-2.89-.12-8.13-.04-10.5.05-60.72,17.02-130.38,50.56-185.37,81.44-7.45,4.18-14.9,8.36-22.34,12.57Z"/>
    <path class="cls-4" d="M379.11,140.88c-16.4,9.26-32.75,18.61-48.94,28.24-16.17,9.62-32.18,19.51-47.89,29.86s-30.97,21.04-45.85,32.39-29.54,23.55-43.6,36.17-27.66,25.72-40.94,39.14c-13.21,13.35-26.33,26.87-38.46,41.22-11.18,13.22-21.28,27.22-29.62,42.4-8.01,14.56-14.64,29.86-20.5,45.4-5.95,15.78-11.08,31.86-15.89,48.02-4.68,15.73-9.04,31.54-13.58,47.31-1.03,3.57-.08,7.58-.33,11.26-.05.79.73,1.53,1.5,1.5,18.95-.82,37.9-1.75,56.84-2.68,19.07-.93,38.14-1.85,57.21-2.66,20.96-.9,41.92-1.8,62.89-2.7,9.79-.42,19.59-.97,29.38-1.17,8.47-.17,16.93-.19,25.4-.25,7.67-.06,15.34-.12,23-.6s15.04-.69,22.55-1.33c2.41-.21,4.84-.45,7.2-.98s4.51-1.39,6.66-2.36c4.4-1.99,8.7-4.23,13.01-6.4,8.7-4.38,17.37-8.84,26.14-13.07.99-.48,1.98-.95,2.98-1.42,1.14-.54,2.26-.68,3.52-.65,2.06.05,4.09.7,5.82,1.82,3.05,1.95,4.24,5.48,4.64,8.94.09.79.14,1.59.13,2.38-.01.85-.33,1.85.2,2.57.94,1.28,2.57,2.35,3.81,3.32,3,2.34,6.2,4.41,9.54,6.23,7.29,3.98,15.23,6.94,23.39,8.51,4.02.77,8.12,1.22,12.22,1.17s7.85-.62,11.71-1.31c16.99-3.05,33.37-8.85,50.19-12.65,18.51-4.18,37.65-5.73,56.61-5.11,4.57.15,9.13.44,13.69.86.46.04,1.11-.31,1.3-.74,2.79-6.61,4.71-13.54,7.57-20.12,1.52-3.49,3.16-7,5.5-10.01s5.33-5.56,8.33-7.93c3.24-2.56,6.59-4.98,10.02-7.28.84-.56,1.7-1.09,2.53-1.66s.94-1.16.94-2.14c0-1.66,0-3.32,0-4.98-.01-6.96-.05-13.93-.08-20.89-.08-15-.17-30-.12-45,.02-6.95.07-13.9.18-20.85.12-7.41-.07-14.82-.15-22.23-.17-16.16-.16-32.32,0-48.48.15-15.77.64-31.54.66-47.3.02-16.52-.03-33.03-.05-49.55-.01-8.06-.01-16.12,0-24.18.02-8.54-.38-17.08-.62-25.61-.49-17.39-.85-34.79-.98-52.19s-.02-34.77.42-52.16c.11-4.27.24-8.54.4-12.8.03-.83-.71-1.47-1.5-1.5-3.06-.12-6.14-.07-9.2,0-3.29.09-6.66,1.5-9.8,2.45-7.3,2.19-14.54,4.55-21.74,7.05-14.89,5.16-29.58,10.89-44.1,17.01-14.89,6.27-29.6,12.95-44.16,19.94s-28.4,14.02-42.38,21.45-27.91,15.28-41.78,23.08c-1.93,1.09-3.87,2.18-5.8,3.27-1.68.95-.17,3.54,1.51,2.59,14.04-7.93,28.08-15.89,42.28-23.53,13.73-7.38,27.6-14.51,41.61-21.34s28.94-13.75,43.66-20.08,29.18-12.1,44.04-17.42c7.18-2.57,14.4-5.01,21.68-7.29,3.5-1.1,7.01-2.16,10.54-3.18,1.54-.44,2.99-.96,4.6-1,1.51-.04,3.02-.06,4.53-.07s3.01,0,4.52.06l-1.5-1.5c-1.09,30.3-1.05,60.64-.47,90.95.29,14.98.71,29.95,1.19,44.92.23,7.01.04,14.04.04,21.05,0,7.18.01,14.36.03,21.54.03,14.18.06,28.37.03,42.55s-.49,27.29-.63,40.94-.18,28.28-.08,42.42c.05,6.76.12,13.52.23,20.28.1,5.91-.06,11.82-.12,17.74-.25,25.4.06,50.8.12,76.2,0,2.78.01,5.57,0,8.35l.74-1.3c-3.66,2.36-7.23,4.84-10.69,7.47-3.2,2.43-6.4,4.92-9.15,7.86-5.4,5.77-8.39,13.46-11,20.8-1.44,4.03-2.72,8.14-4.39,12.08l1.3-.74c-26.01-2.43-52.87-.68-78.15,6.09-5.57,1.49-11.16,2.89-16.72,4.42-5.95,1.64-11.9,3.29-17.91,4.7-5.51,1.29-11.12,2.5-16.77,2.88s-11.3-.26-16.8-1.54c-11.76-2.74-23.72-8.19-32.56-16.56l.44,1.06c.56-4.22-.46-9.44-3.07-12.86-3.03-3.97-9.94-6.42-14.65-4.25-11.45,5.26-22.58,11.23-33.85,16.85-5.64,2.81-11.24,6.03-17.56,6.95-5.03.72-10.18.87-15.24,1.13s-9.83.47-14.74.85-10.23.27-15.32.32c-10.9.1-21.81.06-32.71.36-13.38.36-26.76,1.12-40.14,1.7-26.35,1.13-52.7,2.21-79.04,3.46-25.09,1.19-50.18,2.46-75.27,3.6-2.88.13-5.77.26-8.65.38l1.5,1.5c.13-1.92.03-3.85-.02-5.77-.03-.97-.05-1.95-.03-2.92s.28-1.79.55-2.71c1.1-3.82,2.18-7.64,3.27-11.46,2.23-7.85,4.44-15.7,6.71-23.54,4.65-16.09,9.52-32.13,15.06-47.94s11.67-31.16,19.09-46.05c7.47-15,16.31-29.16,26.65-42.35,11.47-14.62,24.26-28.16,37.18-41.5,13.09-13.5,26.47-26.73,40.26-39.51s27.99-25.1,42.71-36.78c14.62-11.61,29.75-22.57,45.19-33.05,15.43-10.47,31.19-20.46,47.14-30.13,15.97-9.69,32.13-19.06,48.36-28.3,3.99-2.27,7.99-4.53,11.98-6.79,1.68-.95.17-3.54-1.51-2.59Z"/>
  </g>
  <g>
    <path class="cls-2" d="M8.46,79.02c-2.02-12.57-4.33-25.1-6.98-37.58,63.22,2.81,126.52,5.69,189.78,3.62,16.93-.55,34.57-1.34,50.04,5.54,3.69,1.64,7.37,3.74,11.41,3.79,2.79.03,5.49-.94,8.11-1.89,5.78-2.1,11.56-4.2,17.34-6.3,103.16-2.95,206.32-5.91,309.48-8.86-1.09,142.75-.53,285.52,1.67,428.26-19.31,8.32-33.28,27.49-35.69,48.31-29.58-3.22-59.83-.19-88.19,8.82-9.44,3-18.73,6.67-28.5,8.29-30.88,5.14-61.61-10.82-85.43-31.13-12.33,9.09-26.09,16.24-40.6,21.14-95.16,3.78-190.33,7.55-285.49,11.33,4.36-80.53,1.68-161.24-1-241.84-2.35-70.7-4.74-141.76-15.97-211.5Z"/>
    <path class="cls-2" d="M9.91,78.62c-2.03-12.58-4.34-25.11-6.98-37.58l-1.45,1.9c19.42.86,38.84,1.73,58.26,2.46,19.42.73,38.85,1.32,58.29,1.63s38.86.33,58.29-.07c9.24-.19,18.48-.64,27.73-.74,8.69-.09,17.47.24,25.97,2.22,4.19.97,8.22,2.37,12.12,4.18s7.84,3.66,12.2,3.18,8.95-2.6,13.22-4.15c2.27-.82,4.53-1.65,6.8-2.47,1.09-.4,2.18-.82,3.28-1.19,1.3-.44,2.67-.35,4.03-.39,19.38-.56,38.77-1.11,58.15-1.67,19.47-.56,38.93-1.12,58.4-1.67s38.93-1.12,58.4-1.67c19.47-.56,38.93-1.12,58.4-1.67s38.93-1.12,58.4-1.67l14.23-.41-1.5-1.5c-.21,27.9-.36,55.8-.45,83.71-.09,27.9-.11,55.8-.07,83.71.04,27.82.14,55.64.3,83.46.16,27.82.39,55.64.68,83.45.29,27.9.64,55.8,1.06,83.7.05,3.41.1,6.83.16,10.24l.74-1.3c-15.42,6.71-27.44,20.12-33.19,35.84-1.63,4.45-2.68,9.06-3.24,13.76l1.5-1.5c-28.63-3.08-57.87-.39-85.45,7.9-13.49,4.06-26.55,9.71-40.83,10.15-12.85.4-25.61-2.67-37.36-7.73-13.64-5.89-26.13-14.29-37.41-23.9-.47-.4-1.26-.64-1.82-.23-7.92,5.81-16.38,10.85-25.28,15-4.4,2.05-8.9,3.88-13.48,5.48-2.51.88-5.42.63-8.07.73l-8.24.33c-21.88.87-43.76,1.74-65.63,2.6s-43.59,1.73-65.38,2.59c-21.88.87-43.76,1.74-65.63,2.6s-43.76,1.74-65.63,2.6l-7.99.32,1.5,1.5c1.61-29.8,2.26-59.63,2.3-89.47.04-29.85-.52-59.7-1.34-89.53s-1.81-59.25-2.85-88.87c-1.03-29.32-2.26-58.65-4.3-87.92s-4.9-58.33-9.19-87.28c-.53-3.56-1.08-7.11-1.65-10.66-.31-1.9-3.2-1.09-2.89.8,4.65,28.95,7.78,58.11,10.01,87.34s3.58,58.57,4.66,87.9c1.09,29.57,2.06,59.14,2.92,88.72.86,29.59,1.51,59.18,1.61,88.78.1,29.75-.36,59.51-1.74,89.23-.17,3.65-.35,7.31-.55,10.96-.04.79.72,1.53,1.5,1.5,21.96-.87,43.92-1.74,65.88-2.61,22.04-.87,44.09-1.75,66.13-2.62,21.96-.87,43.92-1.74,65.88-2.61s43.92-1.74,65.88-2.61c5.49-.22,10.98-.44,16.47-.65l3.99-.16c1.38-.05,2.46-.37,3.75-.83,2.31-.82,4.61-1.7,6.87-2.63,9.06-3.73,17.77-8.3,25.94-13.72,2.05-1.36,4.06-2.76,6.03-4.22l-1.82-.23c19.81,16.85,44.13,31.06,70.68,32.44,6.52.34,13.06-.19,19.45-1.54,7.24-1.53,14.22-4.03,21.22-6.36,13.86-4.61,28.1-7.97,42.61-9.74,16.33-1.99,32.87-2.1,49.22-.34.87.09,1.41-.77,1.5-1.5,1.87-15.75,10.57-30.64,23.22-40.18,3.62-2.73,7.56-5.02,11.72-6.83.46-.2.75-.82.74-1.3-.43-27.9-.8-55.8-1.1-83.7-.31-27.9-.55-55.8-.73-83.7s-.3-55.64-.35-83.46c-.05-27.82-.04-55.64.03-83.46.07-27.9.21-55.8.4-83.71.02-3.41.05-6.83.08-10.24,0-.79-.69-1.52-1.5-1.5-19.47.56-38.93,1.12-58.4,1.67-19.47.56-38.93,1.12-58.4,1.67s-38.93,1.12-58.4,1.67-38.93,1.12-58.4,1.67c-19.47.56-38.93,1.12-58.4,1.67l-14.48.41c-1.08.03-2.33-.08-3.39.14-1.17.25-2.39.87-3.52,1.28-2.27.82-4.53,1.65-6.8,2.47s-4.69,1.7-7.03,2.55c-2.12.77-4.3,1.6-6.56,1.79-4.33.37-8.19-1.95-12.02-3.63-16.14-7.09-34.13-6.19-51.34-5.63-19.42.62-38.86.78-58.28.62s-38.86-.64-58.29-1.3-38.85-1.48-58.27-2.34c-4.73-.21-9.46-.42-14.19-.63-1.03-.05-1.64.99-1.45,1.9,2.64,12.47,4.95,25,6.98,37.58.31,1.9,3.2,1.09,2.89-.8Z"/>
  </g>
  <rect class="cls-6" x="24.87" y="346.49" width="564.58" height="1" transform="translate(-10.03 9.14) rotate(-1.68)"/>
  <rect class="cls-6" x="26.11" y="415.49" width="564.07" height="1" transform="translate(-12.05 9.2) rotate(-1.68)"/>
  <rect class="cls-6" x="25.46" y="484.6" width="548.32" height="1" transform="translate(-14.08 8.98) rotate(-1.68)"/>
  <rect class="cls-6" x="22.68" y="277.41" width="566.3" height="1" transform="translate(-8.01 9.08) rotate(-1.68)"/>
  <rect class="cls-6" x="20.04" y="208.44" width="568.71" height="1" transform="translate(-5.99 9) rotate(-1.68)"/>
  <rect class="cls-6" x="15.48" y="139.98" width="573.31" height="1" transform="translate(-3.98 8.91) rotate(-1.68)"/>
  <rect class="cls-6" x="6.99" y="70.45" width="582.11" height="1" transform="translate(-1.95 8.76) rotate(-1.68)"/>
  <rect class="cls-6" x="62.49" y="42.21" width="1" height="489.97" transform="translate(-8.33 1.95) rotate(-1.67)"/>
  <rect class="cls-6" x="132.37" y="44.07" width="1" height="485.34" transform="translate(-8.29 3.99) rotate(-1.67)"/>
  <rect class="cls-6" x="202.29" y="43.39" width="1" height="483.22" transform="translate(-8.09 5.93) rotate(-1.64)"/>
  <rect class="cls-6" x="272.37" y="49.29" width="1" height="474.56" transform="translate(-8.22 8.06) rotate(-1.67)"/>
  <rect class="cls-6" x="341.34" y="42.98" width="1" height="460.63" transform="translate(-7.81 10.06) rotate(-1.67)"/>
  <rect class="cls-6" x="411.45" y="41.04" width="1" height="492.27" transform="translate(-8.18 12.11) rotate(-1.67)"/>
  <rect class="cls-6" x="481.25" y="38.99" width="1" height="479.32" transform="translate(-7.9 14.13) rotate(-1.67)"/>
  <rect class="cls-6" x="550.72" y="37.03" width="1" height="463.63" transform="translate(-7.59 16.15) rotate(-1.67)"/>
  <path class="cls-7" d="M241.22,53.13c-1.15-9.35-4.22-19.32-2.34-28.74,2.07-10.36,12.44-12.64,21.62-13.47,4.15-.37,8.84-.85,12.89.3,7.04,2.01,7.19,9.47,8.41,15.59,2.41,12.05,4.47,24.16,6.15,36.33s2.98,24.5,3.92,36.81c.47,6.13.84,12.26,1.12,18.39s1.38,12.79.36,18.64c-.91,5.25-10.76,14.4-15.68,9.04-3.79-4.14-5.62-11.7-7.29-16.95-3.49-10.96-6.19-22.19-7.94-33.55-1.09-7.11-2.82-14.57-2.04-21.8.28-2.57.93-6.41,3.48-7.82,3.75-2.08,7.29,2.28,8.66,5.11,2.84,5.87,2.38,14.29,2.97,20.72s1.12,12.97,1.67,19.45c.33,3.82,6.33,3.85,6,0-.66-7.71-1.29-15.43-2.01-23.14-.62-6.52-.39-14.11-3.44-20.06-5.3-10.33-18.67-11.63-22.41.54-2.11,6.86-.78,14.44.25,21.36,1.17,7.82,2.27,15.65,4.21,23.33s3.86,15.22,6.56,22.56c1.99,5.42,4.34,13.37,9.29,16.79,5.46,3.78,11.3.21,15.85-3.24,5.11-3.88,7.97-8.04,8.03-14.58.17-16.71-1.33-33.64-3.01-50.25s-3.96-32.64-6.91-48.8c-1.34-7.33-1.82-16.33-5.13-23.05-2.37-4.8-7.46-7.11-12.56-7.8-10.61-1.42-27.11.19-34.6,8.82-9.11,10.5-3.57,27.34-2.09,39.46.46,3.78,6.47,3.83,6,0h0Z"/>
  <g>
    <rect class="cls-2" x="229.96" y="48.28" width="12" height="6.2" rx="3.1" ry="3.1" transform="translate(443.87 174.24) rotate(-161.7)"/>
    <path class="cls-2" d="M238.72,56.39c-.43,0-.86-.07-1.28-.21l-5.51-1.82c-1.04-.34-1.88-1.07-2.37-2.05-.49-.98-.58-2.09-.23-3.13.34-1.04,1.07-1.88,2.05-2.37.98-.49,2.09-.58,3.13-.23l5.51,1.82c1.04.34,1.88,1.07,2.37,2.05s.58,2.09.23,3.13c-.34,1.04-1.07,1.88-2.05,2.37-.58.29-1.21.44-1.84.44ZM233.21,48.37c-.32,0-.65.08-.95.23-.5.25-.88.68-1.05,1.21-.18.53-.13,1.1.12,1.6.25.5.68.88,1.21,1.05l5.51,1.82c.53.17,1.1.13,1.6-.12.5-.25.88-.68,1.05-1.21.18-.53.13-1.1-.12-1.6-.25-.5-.68-.88-1.21-1.05l-5.51-1.82c-.21-.07-.43-.11-.65-.11Z"/>
  </g>
</svg>