<?xml version="1.0" encoding="UTF-8"?>
<svg id="pink_folder" xmlns="http://www.w3.org/2000/svg" viewBox="0 0 542.01 502.64">
  <defs>
    <style>
      .cls-1 {
        fill: #fab6c3;
      }

      .cls-2 {
        fill: #f6bcc9;
      }

      .cls-3 {
        fill: #ffdde3;
      }
    </style>
  </defs>
  <g id="pink_folder_bottom">
    <path class="cls-3" d="M150.63,210.69h340.51c2.32,0,4.21,2.34,4.21,5.23v280.48c0,2.89-1.88,5.23-4.21,5.23H13.69c-2.32,0-4.21-2.34-4.21-5.23V215.93c0-2.89,1.88-5.23,4.21-5.23h1.1"/>
    <path class="cls-2" d="M491.14,502.64H13.69c-2.87,0-5.21-2.8-5.21-6.24V215.93c0-3.44,2.34-6.23,5.21-6.23h1.1v2h-1.1c-1.77,0-3.21,1.9-3.21,4.23v280.48c0,2.33,1.44,4.24,3.21,4.24h477.45c1.77,0,3.21-1.9,3.21-4.24V215.93c0-2.33-1.44-4.23-3.21-4.23H150.63v-2h340.51c2.87,0,5.21,2.8,5.21,6.23v280.48c0,3.44-2.33,6.24-5.21,6.24Z"/>
  </g>
  <g id="pink_folder_top">
    <path class="cls-3" d="M151.11,210.69c-7.57-.26-12.17-9.72-16.08-23.28-3.91-13.57-19.04-11.48-19.04-11.48,0,0-56.48.79-67.17.52,0,0-13.3-1.96-18,11.35-4.7,13.3-5.67,22.7-16.43,22.89"/>
    <path class="cls-1" d="M14.4,211.69l-.04-2c8.31-.15,10.25-6.15,13.46-16.09.63-1.96,1.29-3.98,2.05-6.14,4.73-13.4,17.92-12.14,19.02-12.01,10.53.25,65.04-.5,67.03-.53,1.16-.13,16.11-1.54,20.07,12.2,4.5,15.6,9.03,22.35,15.15,22.56l-.07,2c-8.97-.31-13.63-12.31-17.01-24-3.62-12.56-17.37-10.85-17.95-10.77h-.12c-.56.02-56.62.79-67.21.53h-.12c-.51-.08-12.56-1.66-16.91,10.68-.75,2.13-1.4,4.14-2.03,6.08-3.25,10.04-5.59,17.3-15.33,17.47Z"/>
  </g>
</svg>