<?xml version="1.0" encoding="UTF-8"?>
<svg id="Layer_1" data-name="Layer 1" xmlns="http://www.w3.org/2000/svg" viewBox="0 0 719.46 771.8">
  <defs>
    <style>
      .cls-1 {
        fill: #fef3ed;
      }

      .cls-2 {
        fill: #f7729b;
      }

      .cls-3 {
        opacity: .2;
      }

      .cls-4 {
        fill: gray;
      }

      .cls-5 {
        fill: #fbeda6;
      }

      .cls-6 {
        opacity: .22;
      }
    </style>
  </defs>
  <g class="cls-6">
    <path class="cls-4" d="M664.74,224.99c2.57,24.36,5.1,48.58,7.49,72.02,5.52,43.82,13.56,107.21,19.07,151.03,3.76,34.68,9.31,86.91,13.06,121.6,2.59,33.61,7.02,71.76,11,105.23,1.22,9.21,2.45,18.42,3.67,27.62.06.43.07.96-.3,1.19-.15.1-.34.11-.53.12-7.79.53-16.03,1.79-23.21,3.04-22.85,2.57-51.35,4.58-74.34,5.28,1.03,1.12-10.08,3.4-9.05,4.53-49.6-.67-101.3,9.93-153.7,16.66-43.41,4.62-86.82,9.24-130.23,13.85-14.42,1.53-28.84,3.07-43.26,4.6-8.6.92-17.21,1.83-25.81,2.75-44.51,4.6-95.85,11.06-140.36,15.66-10.65-.04-22.38.22-32.98,1.21-.63.06-1.54.18-1.97-.29-.28-.3-.17-.83-.23-1.24-.62-4.48-.82-9.02-.59-13.54,15.72-47.28,38.88-98.11,60.5-143.01,46.85-97.3,93.88-194.93,153.07-285.25,59.19-90.33,131.28-173.69,220.62-234.36,20.73-14.08,42.32-26.89,64.61-38.35,10.91-5.61,35.93-18.85,47.89-16.1,5.47-1.77,11.11-3.01,16.82-3.67,1.99,28.2,4.58,56.37,7.77,84.46,3.47,34,7.25,69.63,10.97,104.97Z"/>
    <path class="cls-4" d="M664.37,224.99c1.16,10.97,2.31,21.94,3.45,32.91,1.12,10.71,2.23,21.43,3.33,32.14.88,8.61,2,17.18,3.08,25.76,1.1,8.69,2.19,17.37,3.29,26.06,1.16,9.2,2.33,18.4,3.49,27.61,1.16,9.21,2.33,18.42,3.49,27.64s2.24,17.71,3.36,26.56c1.02,8.09,2.09,16.18,3.06,24.27.95,7.93,1.72,15.89,2.57,23.83.95,8.84,1.9,17.69,2.84,26.53s1.95,18.19,2.92,27.28,1.86,17.39,2.8,26.08c.43,4.01.86,8.02,1.3,12.03.46,4.25.84,8.5,1.19,12.77.83,10.08,1.78,20.16,2.8,30.22,1.04,10.29,2.15,20.57,3.31,30.85s2.31,20.19,3.51,30.28,2.71,21.14,4.11,31.7c.09.66.17,1.32.26,1.97.04.33.09.66.13.99.05.47.11.81-.45.93s-1.26.09-1.86.14c-.66.05-1.33.11-1.99.18-2.55.24-5.09.54-7.62.88-4.93.66-9.82,1.64-14.76,2.18-9.52,1.03-19.06,1.88-28.61,2.61s-19.58,1.36-29.38,1.82c-4.44.21-8.89.39-13.33.52-.34.01-.47.39-.27.64-.14-.17.06-.21-.2-.02-.24.18-.53.3-.8.42-.84.38-1.73.67-2.6.97-1.63.56-3.48.99-4.96,1.89-.45.27-.92.74-.5,1.26l.27-.64c-12.58-.17-25.16.38-37.69,1.38s-25.44,2.49-38.11,4.17c-12.85,1.71-25.67,3.62-38.49,5.53-6.53.97-13.06,1.94-19.59,2.87s-13.2,1.93-19.82,2.7-13.26,1.41-19.88,2.12c-6.63.71-13.26,1.41-19.88,2.12-13.26,1.41-26.51,2.82-39.77,4.23-13.34,1.42-26.68,2.84-40.01,4.26s-26.4,2.81-39.61,4.21c-13.22,1.41-26.43,2.81-39.65,4.22-11.94,1.27-23.87,2.55-35.8,3.89-12.28,1.38-24.56,2.8-36.85,4.22-12.26,1.41-24.51,2.83-36.77,4.2-6.01.67-12.02,1.34-18.03,1.99-2.92.32-5.84.63-8.77.93-1.44.15-2.88.3-4.32.45-1.52.16-3.12.03-4.65.03-6.26.03-12.52.17-18.77.5-3.07.16-6.14.37-9.21.65-.57.05-1.16.16-1.73.11-.39-.03-.65-.14-.73-.55-.07-.35-.05-.79-.1-1.15-.21-1.63-.37-3.27-.47-4.91s-.15-3.29-.14-4.93c0-.82.02-1.65.05-2.47s.32-1.56.58-2.33c.95-2.84,1.93-5.68,2.92-8.5,2.02-5.75,4.11-11.48,6.26-17.18,4.43-11.73,9.12-23.37,13.99-34.93s9.98-23.17,15.18-34.66c5.1-11.24,10.31-22.42,15.61-33.57s10.77-22.46,16.19-33.68c5.48-11.36,10.97-22.71,16.5-34.05,5.53-11.34,11.08-22.66,16.7-33.96s11.35-22.7,17.12-34,11.54-22.41,17.44-33.55,11.89-22.22,17.99-33.24c6.14-11.09,12.38-22.11,18.76-33.06s12.81-21.69,19.42-32.4c6.57-10.65,13.29-21.2,20.17-31.65,6.26-9.5,12.65-18.92,19.18-28.23,6.54-9.32,13.23-18.55,20.07-27.65s13.84-18.11,21-26.97c7.15-8.86,14.46-17.58,21.95-26.16s15.11-16.99,22.93-25.25c7.78-8.22,15.73-16.28,23.86-24.16s16.47-15.6,24.98-23.1,17.19-14.79,26.05-21.86c8.87-7.07,17.93-13.92,27.16-20.51,9.86-7.04,19.93-13.8,30.18-20.25,10.74-6.75,21.69-13.18,32.83-19.26,8.39-4.58,16.87-9.04,25.48-13.19,8.05-3.88,16.41-7.65,25.17-9.57,3.26-.72,6.77-1.25,10.09-.62.16.03.32.09.48.1.3.02.6-.13.88-.22.76-.24,1.53-.47,2.29-.69,1.46-.42,2.93-.79,4.41-1.13,3.08-.71,6.2-1.24,9.33-1.61l-.38-.38c.88,12.49,1.88,24.97,3,37.44,1.11,12.43,2.34,24.85,3.69,37.25,1.31,12.1,2.56,24.21,3.82,36.32s2.56,24.55,3.85,36.82,2.6,24.69,3.9,37.04c.16,1.52.32,3.03.48,4.55.05.48.8.48.75,0-1.3-12.39-2.61-24.78-3.92-37.17-1.29-12.25-2.58-24.51-3.85-36.77-1.26-12.08-2.44-24.16-3.78-36.23-1.38-12.44-2.64-24.9-3.79-37.37-1.14-12.43-2.17-24.86-3.07-37.31-.11-1.53-.22-3.06-.33-4.59-.01-.18-.16-.4-.38-.38-3.17.37-6.31.9-9.42,1.61-1.6.36-3.18.77-4.75,1.23-.69.2-1.38.41-2.06.62-.3.1-.5.19-.8.15-.22-.03-.44-.08-.66-.12-3.49-.53-7.1.03-10.51.82-8.74,2.01-17.08,5.79-25.13,9.67-8.72,4.21-17.32,8.74-25.81,13.39-11.16,6.11-22.14,12.57-32.91,19.36-10.25,6.47-20.32,13.24-30.17,20.3-9.22,6.6-18.26,13.46-27.12,20.53s-17.59,14.42-26.11,21.96c-8.52,7.54-16.87,15.28-25.03,23.2s-16.16,16.05-23.98,24.34-15.48,16.75-22.97,25.36-14.82,17.38-21.98,26.27-14.13,17.87-20.96,26.98-13.51,18.34-20.04,27.67-12.95,18.8-19.21,28.34c-6.93,10.56-13.71,21.23-20.33,31.98-6.62,10.76-13.1,21.6-19.45,32.52s-12.61,21.99-18.73,33.08c-6.13,11.1-12.15,22.26-18.07,33.47s-11.76,22.48-17.53,33.78-11.46,22.65-17.1,34.01-11.23,22.76-16.79,34.18c-5.56,11.41-11.08,22.83-16.59,34.26s-10.81,22.37-16.13,33.6-10.58,22.53-15.7,33.87c-5.18,11.49-10.24,23.03-15.1,34.66s-9.49,23.18-13.88,34.91c-2.13,5.69-4.2,11.41-6.19,17.15-.49,1.42-.98,2.83-1.46,4.25s-1.19,2.86-1.25,4.32c-.14,3.33-.04,6.67.28,9.99.08.78.16,1.55.26,2.33.07.57,0,1.3.23,1.83.44.97,1.8.75,2.65.67,3.06-.28,6.12-.5,9.19-.67,6.33-.35,12.67-.49,19.01-.52,1.51,0,3.05.08,4.56,0s2.89-.3,4.32-.45c2.92-.31,5.84-.62,8.76-.93,6.05-.65,12.09-1.32,18.14-2,12.3-1.38,24.59-2.79,36.88-4.21,12.36-1.43,24.71-2.85,37.07-4.25,11.93-1.34,23.87-2.62,35.81-3.89,13.26-1.41,26.52-2.82,39.77-4.23s26.57-2.83,39.86-4.24c13.34-1.42,26.68-2.84,40.01-4.26s26.68-2.84,40.01-4.26c6.71-.71,13.42-1.43,20.13-2.14,6.62-.7,13.27-1.28,19.87-2.14,13.06-1.69,26.09-3.61,39.11-5.55,12.99-1.93,25.98-3.87,39-5.59,12.74-1.68,25.51-3.14,38.33-4.12,12.07-.93,24.17-1.43,36.27-1.27.35,0,.46-.4.27-.64.14.17-.06.21.2.02.24-.18.53-.3.8-.42.84-.38,1.73-.67,2.6-.97,1.63-.56,3.48-.99,4.96-1.89.45-.27.92-.74.5-1.26l-.27.64c9.5-.29,19-.76,28.49-1.35,9.9-.62,19.79-1.37,29.67-2.28,4.66-.43,9.32-.89,13.97-1.4,4.94-.54,9.82-1.55,14.75-2.2,2.62-.34,5.24-.64,7.87-.87.62-.05,1.24-.11,1.87-.15.49-.04,1.11.02,1.56-.2.92-.45.54-1.75.44-2.53-.73-5.47-1.45-10.93-2.18-16.4-1.36-10.24-2.59-20.5-3.78-30.76s-2.36-20.5-3.47-30.76c-1.11-10.27-2.17-20.55-3.13-30.84-.88-9.39-1.52-18.8-2.53-28.17-.89-8.24-1.78-16.48-2.66-24.72-.97-9.03-1.94-18.06-2.9-27.09s-1.95-18.18-2.92-27.27c-.91-8.53-1.83-17.05-2.75-25.58-.84-7.81-1.75-15.61-2.74-23.41-1.08-8.55-2.16-17.09-3.24-25.64-1.15-9.11-2.3-18.23-3.46-27.34s-2.35-18.55-3.52-27.83c-1.14-9.03-2.28-18.06-3.42-27.09-1.06-8.4-2.12-16.81-3.18-25.21-1.25-9.88-2.18-19.79-3.2-29.69-1.13-10.9-2.27-21.8-3.41-32.7-.56-5.34-1.12-10.67-1.68-16.01-.05-.48-.8-.48-.75,0Z"/>
  </g>
  <path class="cls-5" d="M678.44,699.41c8.82-1.34,17.63-2.71,26.44-4.12,1.22-.19,2.57-.47,3.29-1.48.68-.97.54-2.27.36-3.44-2.68-17.76-5.37-35.52-8.05-53.28-14.91-147.52-33.36-305.8-48.26-453.32-6.12-51.39-12.23-102.79-18.35-154.18-.19-1.58-.43-3.27-1.53-4.42-1.73-1.81-4.66-1.44-7.11-.94-9.48,1.96-18.95,3.92-28.43,5.88-34.82,8.09-80.46,7.79-116.12,10.25-23.51,1.63-46.89,4.77-70.25,7.9-49.74,6.68-99.37,14.35-149.23,20.03-23.61,11.53-49.74,18.92-76.01,18.85-14.89-.04-29.7-2.01-44.57-2.81-34.84-1.87-76.13,3.37-110.73,7.92-9.99,1.85-19.95,3.84-29.89,5.96,2.42,33.21,5.9,66.34,10.44,99.33,4.05,43.91,10.07,92.89,15.43,136.65,5.16,33.74,8.64,64.48,11.8,98.46.5,5.4,1,10.8,1.51,16.2,2.14,23.03,4.28,46.06,6.42,69.09,2.79,21.05,6.11,42.36,7.47,63.55.72,8.35,1.9,24,2.62,32.35.51,11.85,2.49,30.47,3.73,42.27,0,0,.49,4.71.99,9.41l2.94,16.95c2.31,13.28,3.82,26.71,4.53,40.17-.05,2.91,1.93,12.93,2.59,15.66,2.26,9.35,3.24,19.01,2.92,28.63,11.7-1.42,23.37-3.18,34.97-5.26,9.04-1.24,21.23-4.21,30.28-5.45,42.09-5.76,89.44-10.48,130.92-13.89,30.83-3.27,59.46-5.73,89.19-8.59,39.16-3.83,67.31-9.01,91.89-13,48.48-14.49,109.49-1.31,159.02-11.58,22.96-3.04,45.89-6.3,68.78-9.78Z"/>
  <g class="cls-3">
    <path class="cls-4" d="M33.56,112.75c9.49-18.49,36.81-36.02,57.53-34.39,86.88,6.83,172.47,25.55,259.3,32.92s192.12-5.03,270.74-42.6c5.79.79,11.66,1.01,17.5.67-2.99,25.97-5.26,52.02-6.81,78.11-3.44,66.8-3.07,140.07-3.18,200.72-2.27,34.04-1.28,67.44.11,102.13.17,53.48,2.55,128.35,2.72,181.83.83,25.91.11,50.33.94,76.23.14,5.92.2,17.22.1,23.84,0,.56-.11,1.21-.58,1.53-.31.21-.72.22-1.09.22-2.75.01-5.27-.28-8.28-.08-15.09.2-30.48-1.88-44.62-2.04-6.84-.07-13.7.21-20.53-.22-77.03-4.91-150.04-1.63-224.81,3.8-55.76,7.33-114.34,7.63-170.76,7.15-22.45-.2-48.57.43-71.02.23-13.21-.12-26.42.59-39.64.47-3.33.2-14.48.59-17.89.18-.5-5-.79-10.02-.87-15.05,7.28-3.7,17.42-13.83,24.88-17.13s14.73-7.93,18.9-14.94-1-20.12-6.59-26.07c-1.13-2.75-3.61-4.87-6.44-5.77s-5.98-.66-8.74.46c-2.42.98-4.57,2.63-6.15,4.71-.39.52-.79,1.09-1.39,1.34-.41.17-.88.16-1.32.14-2.43-.08-4.86-.15-7.29-.23-.48-.02-1-.04-1.4-.31-.34-.23-.55-.6-.74-.95-1.11-2.08-1.98-4.3-2.58-6.58.85.28-1.4-8.66-.55-8.38-2.48-5.09,2.01-11.28,7.41-12.98s11.21-.41,16.82.31,11.92.64,16.15-3.12c6.22-5.52-1.65-29.46-3.77-37.5-1.13-2.75-3.61-4.87-6.44-5.77s-5.98-.66-8.74.46c-2.42.98-4.57,2.63-6.15,4.71-.39.52-.79,1.09-1.39,1.34-.41.17-.88.16-1.32.14-2.43-.08-4.86-.15-7.29-.23-.48-.02-1-.04-1.4-.31-.34-.23-.55-.6-.74-.95-1.71-3.2-2.85-6.72-3.32-10.32,2.34,8.6-1.17-4.44-.53-2.12-.73-5.45-.31-11.25,2.47-15.99s8.31-8.11,13.73-7.18c5.56.95,9.73,5.95,15.25,7.07,8.77,1.79,16.05-6.43,21.21-13.74.87-1.23,1.77-2.52,2-4.02.37-2.38-1.01-4.63-2.33-6.64-3.21-4.89-11.79-10.69-15-15.58-1.13-2.75-3.61-4.87-6.44-5.77-2.83-.91-5.98-.66-8.74.46-2.42.98-4.57,2.63-6.15,4.71-.39.52-.79,1.09-1.39,1.34-.41.17-.88.16-1.32.14-2.43-.08-4.86-.15-7.29-.23-.48-.02-1-.04-1.4-.31-.34-.23-.55-.6-.74-.95-1.11-2.08-1.98-4.3-2.58-6.58,1.45-6.49,12.95-22.7,19.45-24.09s13.54-1.64,19.09-5.31c8.8-5.82,5.11-24.84-2.47-32.17-1.13-2.75-3.61-4.87-6.44-5.77s-5.98-.66-8.74.46c-2.42.98-4.57,2.63-6.15,4.71-.39.52-.79,1.09-1.39,1.34-.41.17-.88.16-1.32.14-2.43-.08-4.86-.15-7.29-.23-.48-.02-1-.04-1.4-.31-.34-.23-.55-.6-.74-.95-1.11-2.08-1.98-4.3-2.58-6.58-1.79-4.75,4.26-15.68,8.92-17.69s9.96-1.6,15.03-1.37,10.49.15,14.75-2.61c5.04-3.26,7.28-9.69,7.11-15.69s-7.57-18.14-9.75-23.74c-1.13-2.75-3.61-4.87-6.44-5.77-2.83-.91-5.98-.66-8.74.46-2.42.98-4.57,2.63-6.15,4.71-.39.52-.79,1.09-1.39,1.34-.41.17-.88.16-1.32.14-2.43-.08-4.86-.15-7.29-.23-.48-.02-1-.04-1.4-.31-.34-.23-.55-.6-.74-.95-1.11-2.08-1.98-4.3-2.58-6.58,1.72-6.83,8.02-18.78,14.54-21.44,7.24-2.96,16.01,1.99,23.15-1.21,5.55-2.49,8.09-9.3,7.48-15.36s-6.08-18.21-9.1-23.5c-1.13-2.75-3.61-4.87-6.44-5.77s-5.98-.66-8.74.46c-2.42.98-4.57,2.63-6.15,4.71-.39.52-.79,1.09-1.39,1.34-.41.17-.88.16-1.32.14-2.43-.08-4.86-.15-7.29-.23-.48-.02-1-.04-1.4-.31-.34-.23-.55-.6-.74-.95-1.11-2.08-1.98-4.3-2.58-6.58-.24-8.85,11.8-18.79,20.47-20.59,8.67-1.81,18.46-2.21,24.71-8.49,7.34-7.36-.06-27.48-9.12-32.58-1.13-2.75-3.61-4.87-6.44-5.77s-5.98-.66-8.74.46c-2.42.98-4.57,2.63-6.15,4.71-.39.52-.79,1.09-1.39,1.34-.41.17-.88.16-1.32.14-2.43-.08-4.86-.15-7.29-.23-.48-.02-1-.04-1.4-.31-.34-.23-.55-.6-.74-.95-1.11-2.08-1.98-4.3-2.58-6.58-.26-1.01-1.87-5.56-.83-5.54s1.48-1.29,1.68-2.31c2.02-10.39,11.16-18.99,21.65-20.37,6.12-.81,13.01.44,17.93-3.29,7.35-5.58-.8-21.66-4.36-30.16-1.13-2.75-3.61-4.87-6.44-5.77s-5.98-.66-8.74.46c-2.42.98-4.57,2.63-6.15,4.71-.39.52-.79,1.09-1.39,1.34-.41.17-.88.16-1.32.14-2.43-.08-4.86-.15-7.29-.23-.48-.02-1-.04-1.4-.31-.34-.23-.55-.6-.74-.95-1.11-2.08-1.98-4.3-2.58-6.58-1.34-6.88,4.92-14.61,11.76-16.14s13.93.06,20.93.27c7,.21,14.9-1.53,18.6-7.48,3.35-5.38,2.1-12.53-.86-18.13s-10.3-13.13-13.89-18.51c-.69-3.54-3.55-6.32-6.92-7.4-2.83-.91-5.98-.66-8.74.46-2.42.98-4.57,2.63-6.15,4.71-.39.52-.79,1.09-1.39,1.34-.41.17-.88.16-1.32.14-2.43-.08-4.86-.15-7.29-.23-.48-.02-1-.04-1.4-.31-.34-.23-.55-.6-.74-.95-1.11-2.08-1.98-4.3-2.58-6.58"/>
    <path class="cls-4" d="M33.88,112.94c3.75-7.27,9.51-13.43,15.83-18.55,6.81-5.51,14.57-10.01,22.87-12.87,3.85-1.33,7.84-2.3,11.89-2.7,4.58-.45,9.14.1,13.7.49,11.43.98,22.84,2.16,34.23,3.48s22.87,2.79,34.29,4.35,22.65,3.18,33.96,4.85,22.71,3.39,34.06,5.08,22.71,3.37,34.07,4.98c11.27,1.59,22.56,3.12,33.86,4.53s22.87,2.72,34.32,3.84c10.03.98,20.07,1.84,30.13,2.39,9.46.51,18.94.79,28.41.85s19.42-.11,29.13-.51,19.63-1.03,29.42-1.89,19.7-1.97,29.51-3.32,19.65-2.94,29.41-4.79,19.25-3.92,28.79-6.28,18.79-4.94,28.06-7.84,18.05-5.97,26.91-9.42c4.3-1.67,8.56-3.43,12.79-5.26,2.11-.91,4.21-1.84,6.3-2.8,1.04-.47,2.08-.95,3.11-1.44.5-.23,1-.47,1.5-.71.21-.1.47-.29.7-.33.3-.06.65.06.95.09,5.48.69,11.02.86,16.54.54l-.38-.38c-1.28,11.09-2.43,22.2-3.44,33.32-1.01,11.12-1.9,22.25-2.65,33.4-.71,10.56-1.22,21.13-1.65,31.7s-.76,20.98-1.03,31.47-.48,21.05-.64,31.58-.27,21.01-.35,31.52c-.08,10.31-.12,20.62-.15,30.92-.03,9.94-.04,19.87-.05,29.81,0,4.82,0,9.64-.01,14.46,0,2.34,0,4.68,0,7.03,0,1.17.02,2.35,0,3.53-.03,1.38-.17,2.76-.25,4.13-.65,10.89-.97,21.8-1.07,32.7s.05,21.91.32,32.86c.14,5.52.31,11.04.5,16.57.1,2.76.2,5.52.3,8.28s.29,5.49.3,8.23c.03,8.45.11,16.9.21,25.35.11,9.15.26,18.3.42,27.45s.35,18.99.54,28.48.38,19.24.57,28.86.36,18.84.51,28.26c.14,8.9.27,17.8.35,26.7.04,4.19.07,8.39.09,12.58.02,5.07.21,10.14.29,15.22.19,10.93.17,21.86.21,32.79s.24,21.66.47,32.5c.08,3.92.11,7.84.13,11.76,0,2.15.01,4.3,0,6.45,0,.98,0,1.96-.02,2.94,0,.85.16,1.96-.13,2.77-.25.71-1.02.62-1.64.61s-1.24-.02-1.86-.04c-1.25-.04-2.5-.1-3.75-.1-2.69,0-5.36.1-8.05.04-5.46-.12-10.91-.45-16.36-.83s-10.66-.76-16-1-10.72-.18-16.08-.16c-5.64.02-11.23-.28-16.85-.61s-11.06-.61-16.6-.85c-11.04-.49-22.08-.82-33.13-1-10.93-.19-21.87-.23-32.8-.15s-21.64.28-32.45.59-21.56.72-32.34,1.22c-10.82.5-21.64,1.09-32.45,1.74-10.85.66-21.7,1.38-32.54,2.15-2.69.19-5.39.32-8.06.67s-5.28.67-7.93.97c-5.39.63-10.79,1.2-16.2,1.71-10.76,1.02-21.55,1.81-32.34,2.42s-21.72,1.06-32.59,1.36c-10.91.31-21.83.48-32.74.57s-21.72.08-32.57.02c-10.34-.05-20.67-.17-31.01-.13s-20.69.17-31.04.24c-10.27.07-20.54-.07-30.8.02-5.65.05-11.3.2-16.95.32-2.78.06-5.57.11-8.35.14-2.55.03-5.13-.11-7.67.03-2.97.17-5.95.25-8.92.31s-5.8.19-8.65-.15l.38.38c-.49-5-.78-10.02-.87-15.05l-.19.32c3.42-1.75,6.49-4.16,9.52-6.49,3.37-2.61,6.69-5.31,10.23-7.69,1.5-1.01,3.04-1.97,4.67-2.74,1.97-.93,3.94-1.82,5.84-2.88,3.87-2.16,7.54-4.8,10.49-8.12,1.35-1.52,2.69-3.21,3.56-5.05.72-1.52,1.06-3.19,1.14-4.86.19-3.83-.82-7.72-2.26-11.24-.75-1.83-1.63-3.6-2.66-5.29-.47-.77-.98-1.53-1.52-2.26-.5-.68-1.09-1.29-1.6-1.95-.3-.39-.46-.9-.71-1.32s-.54-.83-.86-1.21c-.65-.79-1.42-1.48-2.26-2.06-1.83-1.26-4.01-1.92-6.22-1.99-4.56-.16-9.03,2.11-11.83,5.67-.33.43-.64.95-1.1,1.25-.63.42-1.49.27-2.2.25-1.38-.04-2.75-.09-4.13-.13-.65-.02-1.3-.04-1.94-.06-.69-.02-1.48.05-1.96-.54-.35-.43-.57-.98-.81-1.47-.32-.65-.62-1.32-.89-2-.47-1.17-.86-2.36-1.19-3.58l-.46.46c1.25.3.41-3.26.33-3.72-.16-1.04-.35-2.07-.48-3.11-.05-.4-.1-.8-.12-1.2,0-.12.04-.3,0-.41.01.05,0-.07.01-.06,0,0-.15.16-.3.13.34.08.56-.26.42-.55-2.07-4.38,1.16-9.2,4.91-11.41,5.14-3.03,11.72-1.72,17.29-.94,4.87.69,10.12,1.16,14.75-.85,1.62-.7,3.33-1.73,4.31-3.24.69-1.07,1.06-2.33,1.26-3.58.56-3.38.19-6.89-.3-10.25-.58-3.96-1.48-7.87-2.48-11.74-.84-3.25-1.77-6.47-2.67-9.7-.17-.61-.3-1.26-.56-1.84-.48-1.07-1.17-2.05-1.99-2.89-1.73-1.76-4.03-2.89-6.47-3.24-2.67-.39-5.43.1-7.86,1.25-1.12.53-2.17,1.21-3.13,1.99-1.05.86-1.88,1.87-2.73,2.93-.52.64-1.02.91-1.87.9s-1.61-.05-2.41-.07c-1.62-.05-3.24-.1-4.86-.15-.79-.03-1.43-.05-1.89-.78-.38-.61-.68-1.28-.98-1.93-.65-1.41-1.19-2.88-1.61-4.38-.39-1.39-.68-2.8-.87-4.22l-.72.2c.26.97.45,2.03.82,2.97.1.26.54.42.69.09.13-.29-.07-.71-.15-1-.16-.61-.33-1.23-.49-1.84-.25-.92-.6-1.88-.75-2.82l-.69.29c-.11-.15.01.09.04.19.11.39.79.33.74-.1-.62-4.79-.44-9.87,1.63-14.31,1.85-3.96,5.33-7.21,9.62-8.29,2.12-.53,4.29-.42,6.36.28s3.85,1.83,5.66,2.95c3.54,2.2,7.2,4.29,11.52,3.83,3.99-.42,7.49-2.68,10.38-5.33,1.62-1.48,3.09-3.12,4.47-4.82s2.69-3.4,3.83-5.21c.61-.97,1.1-2.02,1.22-3.16s-.16-2.36-.62-3.44c-.79-1.88-1.99-3.63-3.32-5.17-2.7-3.12-5.96-5.72-8.95-8.55-1.41-1.33-2.81-2.71-3.98-4.26-.57-.75-.89-1.62-1.42-2.4-.57-.85-1.26-1.62-2.05-2.26-3.61-2.97-8.64-3.28-12.87-1.51-2.04.85-3.89,2.16-5.37,3.8-.77.86-1.38,2.22-2.66,2.3-1.34.08-2.74-.07-4.09-.11s-2.73-.03-4.08-.13c-.73-.06-1.12-.36-1.46-.99-.33-.59-.62-1.2-.9-1.82-.54-1.18-1-2.41-1.37-3.65-.13-.43-.33-.84-.22-1.28.07-.26.15-.51.23-.76.93-2.8,2.49-5.42,4.07-7.89,1.92-2.99,4.06-5.86,6.45-8.5,1.94-2.15,4.11-4.36,6.71-5.69,1.45-.74,3.13-.92,4.72-1.2,2.34-.41,4.7-.76,7.02-1.26s4.47-1.13,6.55-2.1c1.58-.74,3.14-1.65,4.33-2.94,1.99-2.17,2.94-5.06,3.31-7.93.43-3.37.08-6.83-.7-10.12s-2.03-6.5-3.81-9.36c-.81-1.3-1.76-2.44-2.78-3.58-.31-.35-.46-.82-.7-1.23-.25-.43-.53-.84-.84-1.23-.64-.8-1.39-1.51-2.22-2.1-3.81-2.71-8.92-2.64-13.02-.63-2.01.99-3.8,2.44-5.19,4.2-.34.43-.64.94-1.1,1.25-.59.41-1.4.28-2.08.25-1.38-.04-2.75-.09-4.13-.13-.65-.02-1.3-.04-1.94-.06-.72-.02-1.58.07-2.08-.54-.35-.43-.57-.98-.81-1.47-.32-.65-.62-1.32-.89-2-.47-1.17-.82-2.37-1.19-3.58-.19-.62-.3-1.2-.31-1.85-.03-3.35,1.62-6.77,3.35-9.55.91-1.46,1.95-2.86,3.18-4.06s2.56-1.92,4.21-2.41c4.88-1.47,10.04-.76,15.04-.65,4.57.1,9.47-.26,13.36-2.93,3.35-2.3,5.45-6.01,6.38-9.91.47-1.97.7-4.04.6-6.06-.07-1.41-.44-2.81-.87-4.15-2.18-6.79-6.17-12.79-8.83-19.38-1.59-3.94-5.44-6.44-9.63-6.72-4.63-.32-9.25,1.9-12.14,5.49-.33.41-.62.87-1,1.23-.61.57-1.41.47-2.18.44-1.38-.04-2.75-.09-4.13-.13-.65-.02-1.3-.04-1.94-.06s-1.51.09-2.03-.36c-.44-.37-.68-1.04-.93-1.55-.31-.62-.59-1.25-.86-1.89-.23-.56-.45-1.13-.64-1.71s-.56-1.32-.58-1.93c-.01-.33.16-.73.26-1.05.12-.42.26-.83.4-1.24.6-1.76,1.33-3.47,2.14-5.15,1.74-3.59,3.86-7.11,6.6-10.03,1.17-1.25,2.47-2.42,3.98-3.24,1.8-.98,3.87-1.33,5.9-1.38,4.43-.11,8.78,1.12,13.21.87,2.05-.12,4.1-.58,5.9-1.61,1.62-.92,2.97-2.25,4.02-3.78,2.17-3.17,3.05-7.21,2.76-11.01-.26-3.39-1.46-6.73-2.65-9.89-1.37-3.66-2.95-7.25-4.7-10.75-.72-1.45-1.47-2.89-2.23-4.31-.95-1.78-2.46-3.24-4.22-4.22-4.05-2.26-9.15-1.74-13.06.59-.95.57-1.84,1.24-2.64,1.99s-1.44,1.75-2.23,2.56c-.53.54-1.11.61-1.83.6s-1.46-.05-2.19-.07c-1.38-.04-2.75-.09-4.13-.13-.6-.02-1.33.06-1.9-.15-.64-.23-.92-1.01-1.2-1.57-.6-1.2-1.13-2.43-1.56-3.7-.36-1.05-.71-2.03-.62-3.15.07-.84.25-1.67.5-2.48,1.13-3.61,3.65-6.72,6.39-9.26,2.89-2.69,6.29-4.97,9.98-6.42s7.85-1.82,11.76-2.54c4.14-.77,8.33-1.73,12.04-3.78,2.92-1.62,5.56-3.84,6.68-7.07,1-2.89.94-6.09.47-9.08-.53-3.43-1.67-6.77-3.2-9.88s-3.31-5.8-5.7-8.08c-.52-.5-1.07-.97-1.65-1.4-.26-.2-.53-.38-.81-.56-.13-.08-.3-.15-.41-.25-.19-.17-.26-.42-.38-.66-.91-1.79-2.41-3.28-4.14-4.29-4.01-2.33-9.12-1.88-13.05.4-.95.55-1.85,1.21-2.67,1.96s-1.5,1.69-2.25,2.55c-.49.56-1,.76-1.74.75s-1.45-.04-2.17-.07c-1.38-.04-2.75-.09-4.13-.13-.63-.02-1.33.04-1.95-.1-.72-.17-.99-.82-1.3-1.42-.61-1.19-1.15-2.42-1.59-3.68-.54-1.53-.98-3.13-1.42-4.7-.19-.7-.4-1.41-.46-2.13-.02-.2-.06-.46.02-.65.04-.1-.14.06,0,.01.19-.07.39-.05.59-.14.7-.34,1.04-1.13,1.24-1.83.27-.94.41-1.91.7-2.85,2.34-7.8,8.72-14.27,16.43-16.84,4.18-1.4,8.5-1.22,12.84-1.49,3.76-.23,8.27-.93,10.82-4.03,1.9-2.31,2.12-5.47,1.81-8.32-.39-3.65-1.55-7.2-2.85-10.62s-2.73-6.56-4.12-9.83c-.79-1.86-1.77-3.46-3.37-4.74s-3.62-2.12-5.71-2.4c-4.6-.6-9.31,1.39-12.38,4.8-.82.91-1.41,2.26-2.77,2.3s-2.74-.08-4.09-.12-2.72,0-4.06-.13c-.72-.07-1.07-.45-1.4-1.06s-.63-1.22-.91-1.85c-.97-2.15-1.9-4.5-1.8-6.9.08-1.99.74-3.93,1.7-5.66,1.98-3.52,5.36-6.5,9.29-7.61,5.15-1.45,10.75-.71,15.99-.25,4.48.4,8.96.66,13.39-.31,3.74-.81,7.47-2.5,9.96-5.5,2.81-3.38,3.54-7.8,2.9-12.06-1.27-8.52-7.52-14.88-12.7-21.32-1.25-1.55-2.49-3.12-3.61-4.76-.28-.41-.34-.88-.49-1.34s-.36-.96-.6-1.41c-.45-.87-1.05-1.68-1.74-2.38-3.14-3.22-7.94-4.05-12.17-2.82-2.06.6-3.98,1.67-5.6,3.08-.79.68-1.49,1.45-2.12,2.27-.43.56-.82,1.13-1.55,1.26-.62.11-1.31.02-1.94,0-1.34-.04-2.67-.08-4.01-.13-.65-.02-1.3-.04-1.94-.06-.68-.02-1.36,0-1.79-.63-.67-.97-1.14-2.18-1.58-3.26-.49-1.2-.89-2.43-1.23-3.68-.12-.47-.85-.27-.72.2.64,2.38,1.5,4.86,2.79,6.98.6.97,1.46,1.12,2.54,1.15,1.38.04,2.75.09,4.13.13.65.02,1.3.04,1.94.06s1.33.1,1.97-.01c1.1-.2,1.64-1.14,2.3-1.94,1.47-1.81,3.39-3.25,5.54-4.16,4.36-1.84,9.7-1.31,13.04,2.23.72.76,1.31,1.63,1.73,2.59.21.46.37.95.49,1.45s.35.8.64,1.21c1.11,1.58,2.31,3.1,3.52,4.6,5.29,6.57,11.79,13.16,12.58,22.01.39,4.41-.93,8.79-4.34,11.75-3.06,2.66-7.19,3.85-11.16,4.26-4.87.51-9.74-.23-14.6-.58s-9.95-.54-14.27,1.64c-3.53,1.78-6.48,4.92-8.01,8.57-.73,1.74-1.14,3.64-1.01,5.53.15,2.31,1.15,4.63,2.13,6.7.41.87.83,2.1,1.77,2.54.46.22.99.23,1.49.24.69.02,1.38.04,2.07.06,1.38.04,2.75.09,4.13.13,1.14.04,2.3.2,3.2-.65.82-.77,1.41-1.77,2.22-2.56s1.79-1.53,2.81-2.12c2.16-1.25,4.65-1.92,7.15-1.84,2.33.08,4.62.86,6.44,2.33,1.6,1.29,2.5,2.92,3.29,4.77,1.43,3.33,2.92,6.64,4.18,10.05s2.42,7.01,2.66,10.67c.19,2.89-.3,6.05-2.72,7.94-3.59,2.81-8.49,2.77-12.82,2.92-2.13.07-4.26.16-6.36.56-1.92.37-3.79.98-5.57,1.79-7.22,3.28-12.96,9.93-14.81,17.68-.21.86-.26,2-.89,2.69-.39.42-1.02.17-1.26.76-.19.47-.07,1.05,0,1.53.13.74.33,1.47.54,2.19.5,1.71.96,3.44,1.61,5.11.45,1.17.97,2.31,1.56,3.41.52.95,1.16,1.38,2.26,1.44,1.32.08,2.65.08,3.98.13s2.74.18,4.09.11c1.14-.06,1.76-.73,2.42-1.59.71-.93,1.53-1.78,2.45-2.52,3.76-3.04,9.3-4.18,13.71-1.87,1.92,1.01,3.53,2.6,4.44,4.58.19.4.33.49.69.72.29.18.58.37.86.58.6.44,1.16.92,1.7,1.44,2.4,2.31,4.24,5.18,5.67,8.16,1.53,3.18,2.64,6.62,3.09,10.13.37,2.96.32,6.2-.97,8.95-1.55,3.31-5.08,5.45-8.35,6.79-3.99,1.65-8.29,2.37-12.52,3.09-2.05.35-4.14.65-6.16,1.17-1.68.43-3.31,1.09-4.86,1.87-3.53,1.77-6.78,4.2-9.49,7.07-2.43,2.58-4.62,5.71-5.37,9.24-.16.76-.25,1.53-.26,2.31,0,.54.2,1.07.36,1.59.19.62.4,1.23.63,1.84.44,1.17.96,2.32,1.54,3.42.5.95,1.04,1.54,2.15,1.63,1.35.11,2.71.09,4.06.13s2.74.16,4.09.12c1.16-.03,1.8-.64,2.47-1.51s1.47-1.74,2.35-2.47c3.71-3.09,9.25-4.33,13.7-2.09,1.94.98,3.58,2.54,4.53,4.5.7,1.44,1.49,2.83,2.2,4.26,1.75,3.54,3.34,7.17,4.7,10.87,1.18,3.21,2.38,6.61,2.46,10.07.09,3.91-1.08,8.05-3.74,10.99-6.5,7.17-16.61,1.43-24.68,3.21-3.53.78-6.22,3.19-8.44,5.92-2.49,3.07-4.5,6.55-6.11,10.15-.72,1.61-1.38,3.26-1.89,4.95-.11.35-.21.7-.3,1.05-.14.53.09,1.03.25,1.55.36,1.2.8,2.37,1.31,3.52.42.95.84,2.19,1.6,2.92.81.78,2.17.59,3.2.63,1.38.04,2.75.09,4.13.13,1.08.03,2.52.33,3.51-.22.93-.51,1.49-1.63,2.2-2.39.8-.86,1.7-1.63,2.68-2.27,2.07-1.35,4.49-2.17,6.97-2.26s4.74.53,6.72,1.89c1.73,1.19,2.87,2.8,3.66,4.72,2.74,6.59,6.77,12.65,8.83,19.52,2.23,7.44-1.04,17.06-8.53,20.12-4.48,1.83-9.46,1.49-14.18,1.27-2.51-.11-5.04-.2-7.54.07-2.13.23-4.44.66-6.33,1.72-2.74,1.55-4.75,4.54-6.22,7.24s-2.92,6.03-2.61,9.18c.07.71.29,1.38.48,2.07.35,1.2.77,2.38,1.26,3.54.44,1.04.89,2.27,1.61,3.15s1.96.77,3.01.81c1.38.04,2.75.09,4.13.13.65.02,1.3.04,1.94.06.59.02,1.2.06,1.76-.19.99-.43,1.55-1.55,2.24-2.32.76-.85,1.63-1.61,2.57-2.25,3.97-2.71,9.45-3.42,13.62-.74.91.58,1.73,1.31,2.42,2.15.33.41.62.84.88,1.3.24.43.38.91.72,1.25,1.09,1.09,2.02,2.34,2.82,3.65,1.79,2.92,3.01,6.19,3.75,9.53s1.01,6.78.44,10.12c-.49,2.87-1.66,5.73-3.97,7.6-1.69,1.37-3.82,2.27-5.87,2.94-2.21.72-4.5,1.18-6.78,1.58s-4.7.73-7.02,1.25c-1.09.25-2.1.79-3.03,1.4-2.59,1.71-4.78,4.02-6.77,6.37-2.27,2.67-4.34,5.53-6.16,8.53-1.43,2.34-2.86,4.85-3.61,7.51-.07.24-.16.5-.14.75.04.6.37,1.29.56,1.86.4,1.19.86,2.35,1.4,3.48.41.86.82,2.06,1.72,2.52.47.24,1.02.25,1.53.26.69.02,1.38.04,2.07.06,1.38.04,2.75.09,4.13.13,1.14.04,2.3.2,3.2-.65.82-.77,1.41-1.77,2.22-2.56s1.79-1.53,2.81-2.12c4.17-2.41,9.72-2.63,13.59.49.84.68,1.58,1.49,2.16,2.4.49.79.83,1.61,1.4,2.35,1.16,1.51,2.51,2.86,3.89,4.17,3.01,2.85,6.29,5.47,9.01,8.62,1.39,1.61,2.72,3.53,3.4,5.55.42,1.25.47,2.54,0,3.78-.43,1.13-1.17,2.12-1.87,3.1-2.53,3.55-5.32,7.02-8.76,9.73-3.21,2.53-7.2,4.31-11.36,3.62s-7.64-3.73-11.41-5.65c-1.83-.93-3.8-1.61-5.87-1.67s-4.07.44-5.9,1.32c-3.71,1.78-6.45,5.04-7.95,8.83-1.69,4.28-1.83,9.03-1.24,13.54l.74-.1c-.03-.1-.05-.28-.12-.37-.26-.34-.75-.14-.69.29.14.9.48,1.8.71,2.67.16.61.32,1.22.49,1.82.05.2.11.4.16.61.08.31-.02.28.11-.02l.69.09c-.37-.94-.55-2-.82-2.97-.13-.48-.79-.26-.72.2.39,2.89,1.19,5.7,2.37,8.37.31.69.63,1.38.99,2.04.26.48.55.94,1.05,1.19s1.1.25,1.65.27c.85.03,1.7.05,2.55.08,1.57.05,3.15.13,4.72.15.57,0,1.14-.06,1.63-.38.54-.35.89-.91,1.28-1.41,1.68-2.14,3.98-3.8,6.55-4.69,2.74-.94,5.81-1.03,8.53.06,2.29.92,4.36,2.72,5.37,5.01.25.58.38,1.24.55,1.85.2.71.4,1.41.6,2.11.47,1.64.93,3.29,1.37,4.94,1.03,3.83,1.99,7.68,2.71,11.58.66,3.58,1.19,7.29.94,10.94-.09,1.38-.31,2.79-.86,4.07-.65,1.49-1.83,2.46-3.22,3.26-4.54,2.61-10.17,2.18-15.16,1.49-5.53-.77-11.73-2.03-17.05.36-3.82,1.72-7.3,5.76-7.08,10.15.05,1.01.31,1.97.74,2.88l.42-.55c-1.25-.3-.41,3.26-.33,3.72.16,1.04.35,2.07.48,3.11.05.4.1.8.12,1.2,0,.12-.04.3,0,.41-.01-.05,0,.07-.01.06,0,0,.15-.16.3-.13-.28-.07-.54.18-.46.46.63,2.37,1.51,4.77,2.75,6.9.54.93,1.3,1.18,2.34,1.22,1.34.05,2.67.08,4.01.13s2.66.2,3.95.1c1.13-.09,1.72-.82,2.37-1.66,1.4-1.81,3.22-3.27,5.28-4.25,4.26-2.02,9.64-1.74,13.15,1.61.78.75,1.45,1.61,1.94,2.58.21.41.36.73.66,1.07.28.32.56.64.83.97,1.16,1.44,2.15,3.02,3.03,4.65,1.87,3.49,3.28,7.36,3.72,11.31.2,1.77.2,3.58-.18,5.33s-1.28,3.36-2.35,4.87c-2.6,3.64-6.09,6.57-9.85,8.94-1.9,1.19-3.88,2.25-5.9,3.21-1.68.8-3.35,1.53-4.94,2.49-6.92,4.19-12.71,9.99-19.59,14.24-.71.44-1.43.85-2.17,1.23-.11.06-.19.2-.19.32.09,5.03.38,10.05.87,15.05.02.22.16.35.38.38,3.01.35,6.12.2,9.14.14,1.72-.03,3.45-.09,5.17-.15,1.27-.05,2.56-.16,3.83-.16,11.26,0,22.52-.41,33.78-.48,10.27-.06,20.54.06,30.81-.02s20.75-.2,31.13-.24,20.73.09,31.1.14c10.9.05,21.81.05,32.71-.04,10.92-.09,21.83-.28,32.75-.6s21.81-.78,32.7-1.42c10.83-.64,21.65-1.45,32.44-2.5,5.36-.52,10.72-1.1,16.06-1.73,2.64-.32,5.28-.75,7.93-.98s5.48-.4,8.22-.59c10.84-.76,21.69-1.48,32.53-2.13s21.63-1.22,32.44-1.71c10.86-.49,21.72-.89,32.58-1.19s21.72-.48,32.59-.55,21.88,0,32.82.21c11.06.21,22.11.56,33.16,1.07,5.58.26,11.16.55,16.74.89,2.81.17,5.61.36,8.43.42s5.61.05,8.41.03c5.32-.04,10.62.01,15.93.29s10.8.7,16.2,1.05,10.91.65,16.38.69c2.61.02,5.22-.12,7.84-.03,1.24.04,2.48.11,3.71.1.96-.01,1.72-.32,1.96-1.33.2-.84.1-1.79.11-2.64,0-.97.01-1.95.02-2.92,0-2.11,0-4.22,0-6.34-.01-3.97-.04-7.94-.12-11.91-.22-10.8-.44-21.59-.47-32.4-.03-10.93-.02-21.86-.2-32.79-.09-5.16-.27-10.31-.3-15.46-.02-4.16-.05-8.33-.09-12.49-.09-8.97-.21-17.93-.36-26.9-.15-9.42-.33-18.85-.51-28.27s-.38-19.24-.57-28.86c-.19-9.53-.37-19.06-.54-28.58-.16-9.18-.31-18.36-.42-27.54-.11-8.47-.13-16.94-.21-25.41-.03-2.75-.21-5.5-.32-8.25s-.21-5.6-.31-8.4c-.19-5.52-.36-11.04-.5-16.56-.27-10.95-.41-21.9-.3-32.86.1-10.95.44-21.9,1.1-32.83.08-1.34.22-2.69.22-4.04,0-1.18,0-2.35,0-3.53,0-2.34,0-4.69,0-7.03,0-4.82,0-9.65.01-14.47,0-9.98.02-19.96.05-29.95s.08-20.71.16-31.06c.08-10.51.2-21.02.36-31.53s.38-21.13.65-31.7.61-20.97,1.04-31.46c.43-10.68.97-21.35,1.69-32.01s1.65-22.27,2.68-33.39c.99-10.71,2.1-21.41,3.33-32.09.02-.19-.19-.39-.38-.38-5.74.33-11.51.13-17.21-.63-.51-.07-.9.21-1.36.43-.53.25-1.06.5-1.59.75-1.06.5-2.13.99-3.2,1.48-2.09.95-4.19,1.88-6.3,2.8-8.65,3.74-17.45,7.13-26.35,10.23s-18.28,6.02-27.55,8.59c-9.47,2.63-19.03,4.97-28.63,7.05s-19.42,3.92-29.2,5.5-19.75,2.92-29.67,4.02-19.79,1.94-29.72,2.55-19.49.98-29.24,1.13-19.25.07-28.87-.25c-9.31-.3-18.6-.83-27.88-1.59-11.31-.93-22.6-2.08-33.88-3.36s-22.96-2.76-34.42-4.31-22.74-3.17-34.09-4.84c-11.36-1.67-22.71-3.38-34.06-5.08s-22.79-3.39-34.19-5.02c-11.31-1.61-22.63-3.15-33.97-4.58s-22.78-2.75-34.19-3.89c-5.73-.57-11.46-1.1-17.2-1.58-2.4-.2-4.81-.47-7.22-.49-1.92-.01-3.85.12-5.75.38-8.34,1.12-16.35,4.38-23.58,8.6s-14.25,9.83-19.77,16.4c-2.41,2.87-4.57,5.96-6.29,9.29-.22.43.43.81.65.38h0Z"/>
  </g>
  <path class="cls-1" d="M168.92,66.04c-47.97-.74-95.73-2.08-142.71-4.29v51.05h16.52c.37-10.41,26.05-14.3,25.73,6.45-.34,22.02-25.6,16.38-26.26,5.3l-15.99-.02v57.06c2.87,0,15.96,0,15.96,0,.37-10.41,26.05-14.3,25.73,6.45-.34,22.02-25.6,16.38-26.26,5.3l-15.99-.02v57.14s16.52,0,16.52,0c.37-10.41,26.05-14.3,25.73,6.45-.34,22.02-25.6,16.38-26.26,5.3l-15.99-.02v56.92s16.52,0,16.52,0c.37-10.41,26.05-14.3,25.73,6.45-.34,22.02-25.6,16.38-26.26,5.3l-15.99-.02s0,52.24,0,57.14c2.87,0,15.96,0,15.96,0,.37-10.41,26.05-14.3,25.73,6.45-.34,22.02-25.6,16.38-26.26,5.3l-15.99-.02v56.92s16.52,0,16.52,0c.37-10.41,26.05-14.3,25.73,6.45-.34,22.02-25.6,16.38-26.26,5.3l-15.99-.02v56.97c2.7,0,16.04,0,16.04,0,.37-10.41,26.05-14.3,25.73,6.45-.34,22.02-25.6,16.38-26.26,5.3l-15.99-.02v57.08c2.79,0,16,0,16,0,.37-10.41,26.05-14.3,25.73,6.45-.34,22.02-25.6,16.38-26.26,5.3l-15.99-.02s0,53.42,0,57.28h2.13s16.52,0,16.52,0c.37-10.41,26.05-14.3,25.73,6.45-.34,22.02-25.6,16.38-26.26,5.3l-15.99-.02v57.5c15.98.24,26.74,2.44,42.71,2.68,65.57,1,131.22,1.99,196.66-2.21,28.39-1.82,56.7-4.63,85.06-6.76,89.52-6.74,184.74-7.88,274.28-1.33-7.08-195.59-7.48-391.42-1.2-587.04.6-18.65,1.79-56.48.93-75.12-7.59.22-45.72-.21-53.32,0-55.16,1.52-110.33,2.61-165.51,3.26-77.76.93-157.62,1.37-236.93.15Z"/>
  <path class="cls-2" d="M91.96,60.09c-1.91-11.03-4.66-22.17-4.6-33.43.02-2.97,0-6.35,2.01-8.77s5.82-4.05,8.64-5.42c6.11-2.98,12.81-4.95,19.56-5.76,6.19-.75,12.99-1.64,15.26,5.49,1.85,5.83,2.04,12.46,2.83,18.5,1.79,13.56,3.61,27.11,5.37,40.68s3.42,27.25,4.64,40.93c.61,6.83,1.11,13.68,1.46,20.53.29,5.7,1.88,13.95-.12,19.43-1.64,4.52-10.07,11.04-15.08,10.94-6.49-.13-7.78-13.5-9.02-18.33-3.36-13.06-6.33-26.23-8.89-39.47-1.24-6.42-3.12-12.78-4.12-19.24-.6-3.91-1.16-8.5,2.04-11.26.78-.68,2.24-1.68,3.19-2.1,3.19-1.41,4.6.95,5.98,3.81,3.12,6.46,4.26,14.78,5.55,21.78,1.43,7.78,2.36,15.64,3.12,23.52.37,3.81,6.38,3.85,6,0-1.62-16.57-3.19-35.22-10.24-50.54-2.46-5.34-7.76-6.86-12.87-4.1-5.41,2.92-8.68,6.14-9.12,12.44-.53,7.65,2.3,15.16,3.77,22.57,1.75,8.82,3.47,17.64,5.47,26.41s4.18,17.49,6.53,26.17c1.58,5.84,3.07,12.5,9.83,14.08,6.34,1.47,11.92-2.57,16.62-6.25,5.63-4.41,7.87-9.23,7.82-16.36-.12-18.2-1.98-36.45-4.06-54.51s-4.69-36.89-7.13-55.33c-1.05-7.93-1.55-16.18-3.32-23.98-1.17-5.16-3.88-10.24-9.34-11.72-7.64-2.07-17.72.29-25.06,2.6-6.92,2.18-16.97,5.65-21.04,12.12-3.69,5.86-2.42,14.63-1.66,21.11.99,8.42,2.71,16.72,4.16,25.06.66,3.8,6.44,2.19,5.79-1.6h0Z"/>
</svg>