<?xml version="1.0" encoding="UTF-8"?>
<svg id="tema2_folder" data-name="tema2 folder" xmlns="http://www.w3.org/2000/svg" viewBox="0 0 489.68 315.84">
  <defs>
    <style>
      .cls-1 {
        fill: #f6bcc9;
      }

      .cls-2 {
        fill: #ffdde3;
      }
    </style>
  </defs>
  <g>
    <path class="cls-2" d="M152.69,38.1h331.77c2.33,0,4.22,2.23,4.22,4.98v266.78c0,2.75-1.89,4.98-4.22,4.98H5.22c-2.33,0-4.22-2.23-4.22-4.98V43.08c0-2.75,1.89-4.98,4.22-4.98h2.2"/>
    <path class="cls-1" d="M484.46,315.83H5.22c-2.88,0-5.22-2.68-5.22-5.98V43.08c0-3.3,2.34-5.98,5.22-5.98h2.2v2h-2.2c-1.78,0-3.22,1.79-3.22,3.98v266.78c0,2.19,1.45,3.98,3.22,3.98h479.24c1.78,0,3.22-1.79,3.22-3.98V43.08c0-2.19-1.45-3.98-3.22-3.98H152.69v-2h331.77c2.88,0,5.22,2.68,5.22,5.98v266.78c0,3.3-2.34,5.98-5.22,5.98h0Z"/>
  </g>
  <rect class="cls-2" x="9.84" y="32.83" width="142.06" height="26.75" rx="12" ry="12"/>
  <g>
    <path class="cls-2" d="M153.02,38.1c-8.07-.28-12.98-10.34-17.15-24.77S115.55,1.11,115.55,1.11c0,0-60.26.84-71.67.56,0,0-14.19-2.08-19.2,12.07-5.01,14.16-6.05,24.15-17.53,24.36"/>
    <path class="cls-1" d="M7.17,39.1l-.04-2c8.92-.16,10.99-6.56,14.43-17.16.67-2.08,1.37-4.23,2.18-6.53C28.78-.83,42.83.53,43.96.67,55.2.93,113.42.14,115.49.11c1.19-.14,17.12-1.66,21.34,12.94,4.81,16.63,9.66,23.83,16.23,24.05l-.07,2c-9.53-.33-14.49-13.07-18.08-25.5-3.88-13.42-18.6-11.59-19.22-11.5h-.12c-.6.02-60.4.84-71.71.57h-.12c-.55-.09-13.45-1.78-18.12,11.41-.8,2.27-1.5,4.41-2.17,6.48-3.45,10.66-5.95,18.36-16.29,18.55h.01Z"/>
  </g>
</svg>