<?xml version="1.0" encoding="UTF-8"?>
<svg id="tema2_folder" data-name="tema2 folder" xmlns="http://www.w3.org/2000/svg" viewBox="0 0 145.93 39.11">
  <defs>
    <style>
      .cls-1 {
        fill: #f6bcc9;
      }

      .cls-2 {
        fill: #ffdde3;
      }
    </style>
  </defs>
  <path class="cls-2" d="M145.89,38.1c-8.07-.28-12.98-10.34-17.15-24.77S108.42,1.11,108.42,1.11c0,0-60.26.84-71.67.56,0,0-14.19-2.08-19.2,12.07C12.54,27.9,11.5,37.89.02,38.1"/>
  <path class="cls-1" d="M.04,39.1l-.04-2c8.92-.16,10.99-6.56,14.43-17.16.67-2.08,1.37-4.23,2.18-6.53C21.65-.83,35.7.53,36.83.67,48.07.93,106.29.14,108.36.11c1.19-.14,17.12-1.66,21.34,12.94,4.81,16.63,9.66,23.83,16.23,24.05l-.07,2c-9.53-.33-14.49-13.07-18.08-25.5C123.9.18,109.18,2.01,108.56,2.1h-.12c-.6.02-60.4.84-71.71.57h-.12c-.55-.09-13.45-1.78-18.12,11.41-.8,2.27-1.5,4.41-2.17,6.48C12.87,31.22,10.37,38.92.03,39.11h.01Z"/>
</svg>