<?xml version="1.0" encoding="UTF-8"?>
<svg id="tema2_folder" data-name="tema2 folder" xmlns="http://www.w3.org/2000/svg" viewBox="0 0 489.68 278.74" preserveAspectRatio="none">
  <defs>
    <style>
      .cls-1 {
        fill: #f6bcc9;
      }

      .cls-2 {
        fill: #ffdde3;
      }
    </style>
  </defs>
  <path class="cls-2" d="M152.69,1h331.77c2.33,0,4.22,2.23,4.22,4.98v266.78c0,2.75-1.89,4.98-4.22,4.98H5.22c-2.33,0-4.22-2.23-4.22-4.98V5.98C1,3.23,2.89,1,5.22,1h2.2"/>
  <path class="cls-1" d="M484.46,278.73H5.22c-2.88,0-5.22-2.68-5.22-5.98V5.98C0,2.68,2.34,0,5.22,0h2.2v2h-2.2c-1.78,0-3.22,1.79-3.22,3.98v266.78c0,2.19,1.45,3.98,3.22,3.98h479.24c1.78,0,3.22-1.79,3.22-3.98V5.98c0-2.19-1.45-3.98-3.22-3.98H152.69V0h331.77c2.88,0,5.22,2.68,5.22,5.98v266.78c0,3.3-2.34,5.98-5.22,5.98h0Z"/>
</svg>