<?xml version="1.0" encoding="UTF-8"?>
<svg id="Layer_1" data-name="Layer 1" xmlns="http://www.w3.org/2000/svg" viewBox="0 0 489.68 381.09" preserveAspectRatio="none">
  <defs>
    <style>
      .cls-1 {
        fill: #f6bcc9;
      }

      .cls-2 {
        fill: #ffdde3;
      }
    </style>
  </defs>
  <g>
    <path class="cls-2" d="M152.69,37.85h331.77c2.33,0,4.22,2.76,4.22,6.15v329.69c0,3.4-1.89,6.15-4.22,6.15H5.22c-2.33,0-4.22-2.76-4.22-6.15V44.01c0-3.4,1.89-6.15,4.22-6.15h2.2"/>
    <path class="cls-1" d="M484.46,381.07H5.22c-2.88,0-5.22-3.31-5.22-7.39V44.01c0-4.08,2.34-7.39,5.22-7.39h2.2v2.47h-2.2c-1.78,0-3.22,2.21-3.22,4.92v329.69c0,2.71,1.45,4.92,3.22,4.92h479.24c1.78,0,3.22-2.21,3.22-4.92V44.01c0-2.71-1.45-4.92-3.22-4.92H152.69v-2.47h331.77c2.88,0,5.22,3.31,5.22,7.39v329.69c0,4.08-2.34,7.39-5.22,7.39h0Z"/>
  </g>
  <g>
    <path class="cls-2" d="M153.16,38.1c-8.07-.28-12.98-10.34-17.15-24.77S115.69,1.11,115.69,1.11c0,0-60.26.84-71.67.56,0,0-14.19-2.08-19.2,12.07-5.01,14.16-6.05,24.15-17.53,24.36"/>
    <path class="cls-1" d="M7.31,39.1l.11-2.48c8.92-.16,10.84-6.08,14.28-16.68.67-2.08,1.37-4.23,2.18-6.53C28.92-.83,42.97.53,44.1.67,55.34.93,113.56.14,115.63.11c1.19-.14,17.12-1.66,21.34,12.94,4.81,16.63,9.68,23.35,16.25,23.57l-.09,2.48c-9.53-.33-14.49-13.07-18.08-25.5-3.88-13.42-18.6-11.59-19.22-11.5h-.12c-.6.02-60.4.84-71.71.57h-.12c-.55-.09-13.45-1.78-18.12,11.41-.8,2.27-1.5,4.41-2.17,6.48-3.45,10.66-5.95,18.36-16.29,18.55h.01Z"/>
  </g>
</svg>