<?xml version="1.0" encoding="UTF-8"?>
<svg id="tema3_folder" data-name="tema3 folder" xmlns="http://www.w3.org/2000/svg" viewBox="0 0 489.68 315.84">
  <defs>
    <style>
      .cls-1 {
        fill: #fff1c5;
      }

      .cls-2 {
        fill: #f4d47b;
      }
    </style>
  </defs>
  <g>
    <path class="cls-1" d="M336.66,38.1H5.21c-2.33,0-4.22,2.23-4.22,4.98v266.78c0,2.75,1.89,4.98,4.22,4.98h479.25c2.33,0,4.22-2.23,4.22-4.98V43.08c0-2.75-1.89-4.98-4.22-4.98h-2.85"/>
    <path class="cls-2" d="M5.22,315.83h479.24c2.88,0,5.22-2.68,5.22-5.98V43.08c0-3.3-2.34-5.98-5.22-5.98h-2.85v2h2.85c1.78,0,3.22,1.79,3.22,3.98v266.78c0,2.19-1.45,3.98-3.22,3.98H5.22c-1.78,0-3.22-1.79-3.22-3.98V43.08c0-2.19,1.45-3.98,3.22-3.98h331.44v-2H5.22c-2.88,0-5.22,2.68-5.22,5.98v266.78c0,3.3,2.34,5.98,5.22,5.98h0Z"/>
  </g>
  <rect class="cls-1" x="336.62" y="34.16" width="145.9" height="25.56" rx="12" ry="12"/>
  <g>
    <path class="cls-1" d="M336.65,38.1c8.07-.28,12.98-10.34,17.15-24.77s20.32-12.22,20.32-12.22c0,0,60.26.84,71.67.56,0,0,14.19-2.08,19.2,12.07,5.01,14.16,6.05,24.15,17.53,24.36"/>
    <path class="cls-2" d="M482.51,39.1l.04-2c-8.92-.16-10.99-6.56-14.43-17.16-.67-2.08-1.37-4.23-2.18-6.53-5.04-14.24-19.09-12.88-20.22-12.74-11.24.26-69.46-.53-71.53-.56-1.19-.14-17.12-1.66-21.34,12.94-4.81,16.63-9.66,23.83-16.23,24.05l.07,2c9.53-.33,14.49-13.07,18.08-25.5,3.89-13.45,19.07-11.53,19.22-11.5h.12c.6.02,60.4.85,71.7.57h.12c.55-.09,13.45-1.78,18.12,11.41.8,2.27,1.5,4.41,2.17,6.48,3.45,10.66,5.95,18.36,16.29,18.55h0Z"/>
  </g>
</svg>