<?xml version="1.0" encoding="UTF-8"?>
<svg id="Layer_1" data-name="Layer 1" xmlns="http://www.w3.org/2000/svg" viewBox="0 0 1055.39 816.11">
  <defs>
    <style>
      .cls-1 {
        fill: #ffe6f1;
      }

      .cls-2 {
        fill: #d9dbd9;
      }

      .cls-3 {
        fill: #fa84a1;
      }

      .cls-4 {
        fill: #c4c4c4;
      }

      .cls-5 {
        fill: #666;
      }

      .cls-6 {
        fill: #9ebaa3;
      }

      .cls-7 {
        fill: #fe74b7;
      }

      .cls-8 {
        fill: #c8e8cf;
      }

      .cls-9 {
        fill: #cdf6f7;
      }
    </style>
  </defs>
  <g>
    <rect class="cls-1" x="48.42" y="100.25" width="958.56" height="676.08" rx="22.07" ry="22.07"/>
    <path class="cls-3" d="M984.9,778.33H70.49c-13.27,0-24.07-10.8-24.07-24.07V122.32c0-13.27,10.8-24.07,24.07-24.07h914.42c13.27,0,24.07,10.8,24.07,24.07v631.94c0,13.27-10.8,24.07-24.07,24.07ZM70.49,102.25c-11.07,0-20.07,9-20.07,20.07v631.94c0,11.07,9,20.07,20.07,20.07h914.42c11.07,0,20.07-9,20.07-20.07V122.32c0-11.07-9-20.07-20.07-20.07H70.49Z"/>
  </g>
  <g id="bottom_skygge" data-name="bottom skygge">
    <path class="cls-6" d="M261.02,525.15c1.26-1.6,2.95-2.89,5.22-3.65,40.14,10.25,91.4,21.22,133.36,26.25,40.33,4.81,80.94,7.07,121.48,9.3,103.22,5.72,218.23,9.02,321.14,14.77-1.95-7.8,5.56,8.64,5.25,15.06-.16,3.27-.31,6.57-1.23,9.71-2.04,7.01-7.7,12.51-14.11,15.97-6.41,3.46-13.61,5.12-20.74,6.73-35.83,9.52-86.69,20.96-123.06,28.13-40.96,10.31-113.15,26.75-154.11,37.09-15.97,4.02-31.97,8.05-47.93,12.07-12.04,3.02-37.53,9.34-49.69,11.35-6.66.69-13.33,1.38-19.99,2.07-4.18.44-8.39.88-12.54.25-12.57-1.85-29.7-23.67-37.5-33.69-20.68-24.08-50.57-57.11-71.6-80.91-6.57-8.49-13.11-16.97-19.68-25.43-6.95-8.99-14.08-18.39-16.6-29.45-1.19-5.28-.88-11.5,2.29-15.59l.03-.03Z"/>
    <path class="cls-5" d="M262.68,526.81c1.6-1.89,2.89-2.8,5.31-2.42,2.04.35,4.09,1.04,6.1,1.54,4.21,1.04,8.42,2.07,12.64,3.08,8.8,2.11,17.63,4.12,26.47,6.03,17.66,3.83,35.39,7.32,53.21,10.28,37.94,6.32,76.28,9.4,114.63,11.79,77.26,4.81,154.61,7.73,231.93,11,43.09,1.82,86.19,3.71,129.28,6.1,1.6.09,2.61-1.57,2.26-2.99-.31-1.32.13-1.29-.5-.22l-2.04,1.16c-1.38,0-1.23-1.23-1.26-.16,0,.41.63,1.26.82,1.67.85,1.92,1.57,3.9,2.17,5.91,1.51,4.84,1.73,9.34.75,14.36-2.67,13.67-17.04,19.11-29.01,22-24.17,5.85-48.25,12.04-72.51,17.51-22.54,5.06-45.26,9.3-67.67,14.8-22.41,5.5-43.85,10.53-65.79,15.72-46.02,10.88-91.81,22.57-137.77,33.79-10.12,2.48-20.27,4.93-30.49,6.91-6.1,1.19-12.29,1.67-18.45,2.33s-13.89,2.36-20.24.47c-9.18-2.73-16.82-11.82-22.95-18.73-6.63-7.51-12.7-15.5-19.3-23.07-16.6-19.02-33.47-37.81-50.29-56.67-8.58-9.62-16.72-19.39-24.61-29.58-8.36-10.81-18.64-21.78-23.17-34.95-2.04-5.91-3.02-12.73.79-18.14,1.76-2.48-2.33-4.84-4.09-2.39-7.13,10.18-1.38,24.08,4.34,33.47,7.67,12.6,17.73,23.98,26.72,35.61,7.92,10.25,16.97,19.64,25.59,29.29,9.08,10.18,18.17,20.37,27.22,30.58,8.08,9.15,16.47,18.1,24.01,27.72,6.6,8.39,13.52,16.82,21.75,23.7,3.49,2.92,7.29,5.69,11.6,7.26,5.72,2.11,12.07,1.16,18.01.57,12.13-1.26,23.86-2.73,35.77-5.41,48.31-10.88,96.12-23.92,144.3-35.33,23.92-5.66,47.87-11.28,71.79-17.1,23.92-5.81,46.86-10.31,70.28-15.53,26.03-5.81,51.89-12.2,77.76-18.7,11.54-2.89,24.01-8.14,29.26-19.68,4.12-9.12,2.64-18.83-1.07-27.69-.79-1.89-1.76-5.28-4.27-5.31-.82,0-1.63.47-2.04,1.16-.69,1.19-.28,2.61,0,3.87l2.26-2.99c-78.14-4.37-156.37-7.1-234.54-10.53-38.88-1.73-77.76-3.65-116.64-5.94-38.88-2.29-78.99-5.09-118.03-11.35-20.52-3.3-40.96-7.29-61.29-11.76-9.65-2.11-19.27-4.34-28.89-6.66-4.56-1.1-9.08-2.23-13.61-3.36-2.2-.57-3.24-.94-5.28.03-1.82.85-3.3,2.07-4.62,3.58-1.95,2.29,1.35,5.66,3.33,3.33h.06Z"/>
  </g>
  <g id="bottom">
    <path class="cls-8" d="M750.5,491.1c23.39,18.42,56.55,47.24,79.87,65.76,5.66,4.49,11.69,9.68,12.7,16.82,1.1,7.7-4.43,15.15-11.35,18.76-6.91,3.61-30.77,8.68-39.98,10.09-32.81,7.95-79.62,20.93-113.41,29.17-41.49,7.67-97.28,24.2-134.21,32.34-17.54,2.86-33.32,5.72-50.73,9.08-16.75,3.24-46.83,8.3-63.4,12.48-9.65,1.85-20.05,3.65-29.01-.44-5.47-2.48-9.78-6.91-13.92-11.25-30.77-32.15-65.72-69.72-94.08-104.04-6.85-9.05-13.7-18.1-20.56-27.13-2.26-2.99-4.56-6.07-5.41-9.71-1.38-6.03,1.73-19.11,7.64-19.71,11.06-13.92,27.88-19.64,44.13-24.96,15.5-5.06,31.02-10.09,46.55-15.06,21.88-6.98,43.91-13.89,66.6-17.26,16.5-2.45,33.19-2.99,49.79-4.53,37.88-3.49,75.25-12.1,113.25-13.2,28.54-.85,57.17,2.58,84.71,10.15,11.98,1.6,26.65,6.41,35.61,13.01,2.45,1.79,4.75,3.77,7.07,5.72,9.37,7.95,18.76,15.9,28.13,23.86"/>
    <path class="cls-5" d="M748.84,492.77c15.59,12.29,30.77,25.15,46.02,37.91,7.73,6.47,15.5,12.95,23.32,19.36,3.49,2.86,7.01,5.69,10.53,8.52,3.87,3.08,8.08,6.38,10.44,10.81,5.09,9.49-2.61,18.98-11.44,22.29-7.2,2.67-14.84,4.31-22.32,5.91-7.48,1.6-14.62,2.8-21.88,4.62-9.62,2.39-19.24,4.87-28.82,7.39-20.3,5.31-40.55,10.72-60.88,15.9-18.86,4.81-37.97,8.36-56.86,12.95-20.15,4.9-40.2,10.25-60.32,15.37-8.99,2.29-17.98,4.56-27,6.63-10.62,2.45-21.47,3.93-32.22,5.85-19.42,3.49-38.79,7.17-58.18,10.81-8.8,1.67-17.57,3.33-26.31,5.37-10.09,2.36-22.16,5.09-31.9.13-4.62-2.36-8.3-6.13-11.85-9.84-3.99-4.15-7.95-8.33-11.91-12.51-7.92-8.33-15.78-16.72-23.61-25.15-15.78-17.04-31.37-34.29-46.49-51.96-7.8-9.12-15.18-18.42-22.44-27.97-3.43-4.53-6.88-9.02-10.28-13.58-3.05-4.05-5.66-7.92-5.37-13.2.19-3.39,1.04-7.13,2.83-10.06,1.04-1.67,1.92-1.82,3.36-2.73,2.04-1.26,3.49-3.55,5.22-5.25,7.29-7.17,16.66-11.76,26.12-15.31,21.75-8.2,44.32-14.71,66.48-21.72,22.16-7.01,46.58-13.89,70.88-16.38,12.07-1.23,24.17-1.82,36.27-2.92,12.1-1.1,23.61-2.61,35.36-4.31,24.36-3.49,48.69-7.61,73.33-8.8,24.64-1.19,48.78.63,72.64,5.59,5.41,1.13,10.72,2.58,16.06,3.83s10.37,1.92,15.46,3.43c10.88,3.21,19.61,8.3,28.19,15.59,9.18,7.8,18.36,15.59,27.53,23.35,2.29,1.95,5.66-1.38,3.33-3.33-9.78-8.27-19.49-16.6-29.29-24.83-8.24-6.91-17.04-11.76-27.31-14.96-5.03-1.57-10.12-2.36-15.24-3.43-6.13-1.26-12.13-3.11-18.26-4.37-11.98-2.45-24.11-4.18-36.3-5.12-51.39-3.99-101.4,9.21-152.32,13.17-12.57.97-25.21,1.67-37.72,3.3-12.51,1.63-24.52,4.24-36.56,7.48-24.36,6.54-48.31,14.77-72.26,22.57-10.28,3.36-20.71,6.47-30.55,11-4.59,2.14-9.02,4.62-13.11,7.64-1.79,1.32-3.52,2.73-5.15,4.27s-3.14,3.93-4.97,5.09c-2.73,1.76-4.56,3.05-6.07,6.19-1.63,3.39-2.48,7.2-2.67,10.94-.57,10.09,7.83,17.98,13.48,25.43,29.23,38.6,62.27,74.12,95.58,109.23,7.39,7.8,14.68,17.54,24.08,22.98s20.3,4.21,30.46,2.33c8.9-1.63,17.7-3.9,26.59-5.63,9.78-1.89,19.58-3.65,29.39-5.47,10.37-1.92,20.74-3.96,31.12-5.85,11.57-2.11,23.29-3.65,34.73-6.25,19.8-4.56,39.42-9.84,59.09-14.9,20.81-5.34,41.65-10.66,62.74-14.9,20.59-4.15,40.89-9.93,61.2-15.28,10.59-2.8,21.22-5.59,31.84-8.33,9.37-2.42,18.83-5.28,28.32-7.1,7.8-1.48,15.56-2.95,23.29-4.87,6.73-1.67,14.21-3.24,19.9-7.42,7.23-5.34,11.69-14.58,8.05-23.35-3.65-8.77-12.86-14.36-19.99-20.18-16.66-13.58-33.03-27.5-49.57-41.24-7.42-6.16-14.9-12.29-22.47-18.26-2.36-1.85-5.72,1.45-3.33,3.33h0v.19Z"/>
  </g>
  <g id="back_skygge" data-name="back skygge">
    <path class="cls-6" d="M233.39,429.44c.66,16.03,5.69,47.49,9.21,63.15,1.98,8.74,5.25,18.39,13.39,22.16,2.64,1.19,5.53,1.67,8.42,1.98,4.65.5,20.4-2.42,25.08-2.61,13.42-22.91,24.83-55.19,25.62-79.96.5-15.65-.25-31.34-.38-46.99-.09-10.44-.16-20.87-.88-31.27-.88-12.82-2.73-25.55-4.59-38.25-1.29-8.96-2.61-17.92-3.9-26.87-4.09-28.13-17.54-60.6-31.78-85.24-18.67,2.11-41.18,12.2-46.61,21.4-3.96,6.69-3.49,21.4-3.49,30.74,0,17.63,1.04,25.43,2.11,39.79,2.14,39.64,5.66,92.38,7.8,132.01"/>
    <path class="cls-5" d="M231.03,429.44c.57,12.57,2.42,25.15,4.43,37.56,2.01,12.42,3.33,24.93,7.92,36.18,2.2,5.41,5.59,10.62,10.97,13.33,4.78,2.39,10.28,2.83,15.53,2.33,5.56-.53,11.06-1.48,16.63-2.14,1.76-.22,3.52,0,4.87-1.23,1.07-.94,1.85-3.17,2.58-4.43,1.01-1.82,1.95-3.65,2.89-5.5,6.88-13.58,12.42-27.97,16.19-42.72,3.77-14.74,4.78-30.27,4.62-45.95-.19-18.76-.16-37.62-1.13-56.36s-3.8-35.58-6.38-53.28c-2.58-17.7-5.72-36.27-11.94-53.94-6.22-17.66-13.58-33.41-22.57-49.03-.38-.66-1.26-1.26-2.04-1.16-15.24,1.82-32.5,7.1-44.22,17.44-10.59,9.34-8.3,26.65-8.24,39.35.09,16.6,1.82,33.1,2.77,49.66,1.1,19.11,2.26,38.19,3.43,57.3,1.29,20.87,2.55,41.71,3.68,62.58.16,3.02,4.87,3.05,4.71,0-1.95-35.74-4.27-71.41-6.38-107.15-.91-15.59-2.2-31.18-3.05-46.77-.44-8.02-.47-16.03-.47-24.08,0-7.04-.35-15.12,2.36-21.75s11.06-10.78,17.22-13.7c8.83-4.15,18.45-7.04,28.16-8.2l-2.04-1.16c10.03,17.44,18.39,35.93,24.49,55.1,6.1,19.17,8.55,39.95,11.5,60.25,1.63,11.22,3.17,22.51,3.96,33.82.79,11.32.79,22.91.94,34.39.28,21.03,2.17,42.5-2.07,63.27-4.24,20.78-12.23,41.05-22.88,59.37l2.04-1.16c-8.17.47-16.38,3.08-24.61,2.67-13.3-.66-17.66-11.91-20.18-23.2-4.49-20.12-8.05-41.11-8.96-61.73-.13-3.02-4.84-3.05-4.71,0h0v.03Z"/>
  </g>
  <g id="back">
    <path class="cls-8" d="M273.56,205.48c-12.51,1.98-24.39,9.49-30.21,20.78-5.34,10.37-3.52,35.77-3.33,47.43,4.75,67.58,10.25,135.06,16.5,202.51.79,8.36,1.6,19.58,5.47,27,3.87,7.42,23.98,12.1,33,10.59,63.37-10.37,126.7-20.78,190.07-31.15,50.48-8.05,115.04-19.64,165.52-27.72,7.07-1.67,31.15-8.02,35.83-13.58,5.09-6.03,5.37-14.65,5.34-22.54-.03-7.45-.13-14.9-.31-22.38-.88-40.39-2.77-94.96-4.59-135.31-1.32-15.81-3.3-48.09-4.62-63.9-.44-5.41-.91-10.91-2.67-16.03s-5.03-9.96-9.84-12.54c-5.31-2.83-11.69-2.51-17.73-2.14-9.21.6-18.39-.85-27.6-.25-30.27,1.51-74.21,4.37-105.52,7.36-37.84,3.08-91.03,8.83-128.68,13.77-16,1.38-43.31,6.57-59.31,7.92-11.79,1.01-45.89,7.32-57.36,10.18"/>
    <path class="cls-5" d="M272.93,203.19c-10.4,1.79-20.37,6.95-27.13,15.18-5.97,7.26-7.64,15.43-8.27,24.61-1.6,23.64,1.32,47.68,3.08,71.22,2.2,29.61,4.56,59.22,7.07,88.79,1.26,14.8,2.55,29.58,3.87,44.38,1.19,13.36,2.01,26.84,3.83,40.14,1.26,9.27,3.05,18.61,11.94,23.23,7.51,3.93,17.07,6.16,25.55,5.59,6.1-.38,12.23-1.85,18.23-2.86l22.41-3.68c14.68-2.42,29.36-4.81,44.04-7.23,54.79-8.99,109.6-17.76,164.32-27.06,25.74-4.37,51.45-8.83,77.23-13.14,19.58-3.27,39.2-5.66,57.74-13.04,8.02-3.21,13.64-6.85,15.97-15.72,1.48-5.56,1.35-11.44,1.32-17.13-.03-6.91-.16-13.8-.31-20.71-.53-24.61-1.29-49.25-2.17-73.86-.82-23.04-1.35-46.17-3.05-69.18-1.51-20.52-2.11-41.24-4.56-61.7-1.26-10.44-5.12-21.97-16-25.77-5.66-1.98-11.66-1.35-17.54-1.1-7.42.31-14.8-.57-22.22-.47-23.95.31-48.09,2.61-71.98,4.4-47.62,3.52-95.18,8.24-142.57,13.92-21.53,2.58-43,5.47-64.47,8.58-17.82,2.61-35.61,4.46-53.34,7.8-7.67,1.45-15.37,2.89-22.95,4.75-2.95.72-1.7,5.28,1.26,4.56,16-3.93,32.41-6.76,48.72-9.12,8.02-1.16,16.09-1.79,24.11-2.92,10.75-1.51,21.47-3.3,32.22-4.75,44.73-5.94,89.67-10.81,134.62-14.58,22.69-1.92,45.36-3.83,68.05-5.31,11.38-.75,22.79-1.41,34.2-2.04,12.64-.69,25.24.38,37.84-.31,6.47-.35,13.36-.22,18.26,4.68,4.31,4.31,6.07,10.4,6.91,16.28,1.41,9.78,1.7,19.8,2.39,29.64,1.38,19.93,2.92,39.86,3.77,59.85,1.01,24.17,1.85,48.31,2.61,72.48s2.29,48.03,1.45,71.88c-.19,5.44-.85,12.32-4.9,16.44-2.29,2.33-5.91,3.65-8.86,4.84-7.61,3.05-15.56,5.31-23.51,7.29-10.09,2.51-20.74,3.52-30.99,5.22-12.26,2.04-24.52,4.12-36.78,6.22-50.51,8.61-101.05,16.97-151.63,25.27-28.07,4.59-56.14,9.21-84.21,13.8-14.18,2.33-28.32,4.65-42.5,6.98-5.41.88-10.91,2.29-16.41,2.07-4.68-.19-9.34-1.13-13.8-2.55-3.68-1.16-8.14-2.77-10.75-5.75-3.17-3.68-3.99-9.96-4.71-14.58-2.07-13.14-2.7-26.59-3.9-39.82-2.55-28.29-4.97-56.58-7.23-84.87-2.26-28.29-4.4-56.61-6.41-84.93-.66-9.49-.94-19.05-.82-28.57.13-9.02.28-18.86,5.5-26.59,6.07-9.02,16.19-14.43,26.75-16.22,2.99-.5,1.73-5.06-1.26-4.56h0l-.06.03Z"/>
  </g>
  <g id="screen">
    <path class="cls-9" d="M640.08,432.74c-27.09,4.81-68.87,12.6-95.93,17.41-39.64,6-112.9,18.61-152.54,24.61-27.5,4.02-55.04,8.08-82.54,12.1-6.66.97-14.02,1.79-19.58-1.98-6.63-4.53-7.92-13.58-8.61-21.56-5.81-66.98-11.63-133.93-17.44-200.91-.69-7.98-1.26-16.53,2.7-23.51,5.97-10.44,19.52-13.2,31.43-14.93,10.56-1.51,21.12-3.02,31.68-4.56,30.9-4.27,78.14-8.93,109.1-12.82,51.77-6.51,103.66-12.51,155.78-14.27,9.81-.79,33.57-1.45,43.34-2.26,4.93-.41,10.31-.69,14.43,2.01,5.72,3.77,6.76,11.6,7.2,18.45,3.27,49.41,5.72,98.88,7.39,148.39.79,10.18,2.89,39.23,3.68,49.41.38,5.03.69,10.47-2.11,14.65-3.39,5.09-10.06,6.57-16.09,7.64l-11.88,2.11"/>
    <path class="cls-5" d="M300.15,488.84c-4.09,0-8.02-.72-11.38-2.99-7.04-4.78-8.39-14.08-9.12-22.44l-17.44-200.91c-.66-7.42-1.45-16.66,2.86-24.2,6.25-10.94,19.93-13.74,32.28-15.5l31.68-4.56c17.82-2.45,41.08-5.06,63.52-7.58,16.69-1.85,32.47-3.61,45.58-5.28,49.57-6.25,102.44-12.48,155.87-14.3,4.87-.41,13.39-.79,21.66-1.13,8.24-.35,16.75-.72,21.63-1.13,4.43-.35,10.53-.85,15.18,2.2,5.91,3.9,7.2,11.63,7.73,19.36,3.24,49.25,5.75,99.2,7.39,148.42.38,5.03,1.13,14.87,1.85,24.71.72,9.81,1.45,19.58,1.85,24.64.44,5.63.6,11.03-2.29,15.4-3.58,5.41-10.31,6.98-16.88,8.14l-11.88,2.11c-13.55,2.39-30.74,5.56-47.96,8.71s-34.45,6.32-47.96,8.71c-19.83,3.02-48.53,7.73-76.28,12.32-27.75,4.56-56.45,9.3-76.28,12.32l-82.57,12.1c-3.02.44-6.07.82-9.05.82l.03.06ZM642.57,190.96c-1.6,0-3.3.13-5.06.25-4.93.41-13.45.79-21.72,1.13-8.24.35-16.75.72-21.62,1.13-53.4,1.79-106.21,8.05-155.71,14.27-13.11,1.63-28.89,3.39-45.61,5.28-22.44,2.51-45.67,5.09-63.46,7.54l-31.68,4.56c-11.79,1.7-24.86,4.34-30.58,14.33-3.65,6.38-3.3,14.11-2.55,22.82l17.44,200.91c.66,7.8,1.92,16.47,8.11,20.68,5.06,3.46,11.76,2.83,18.73,1.79l82.54-12.1c19.8-3.02,48.5-7.73,76.25-12.29,27.75-4.56,56.45-9.3,76.28-12.32,13.52-2.39,30.71-5.56,47.93-8.71,17.22-3.14,34.45-6.32,47.96-8.71l11.88-2.11c6.07-1.07,12.23-2.51,15.31-7.13,2.48-3.74,2.33-8.71,1.92-13.89-.41-5.09-1.13-14.87-1.85-24.67-.72-9.81-1.45-19.64-1.85-24.74-1.67-49.25-4.15-99.17-7.39-148.39-.47-7.13-1.6-14.21-6.66-17.54-2.45-1.63-5.37-2.07-8.64-2.07l.03-.03Z"/>
  </g>
  <g id="mousepad">
    <path class="cls-4" d="M550.54,588.76c23.04-6,57.11-12.98,80.43-17.88,5.06-1.07,10.34-2.11,15.34-.82,6.98,1.79,12.07,7.64,18.39,11.03,4.84,3.68,20.87,15.06,24.42,20.02,1.01,1.38,1.98,2.99,1.67,4.68-.44,2.48-3.33,3.58-5.78,4.21-25.43,6.69-50.83,13.42-76.25,20.12-7.01,2.51-25.55,6.41-32.88,7.86-5.15,1.04-10.72,1.73-15.46-.57-2.89-1.41-5.19-3.83-7.36-6.19-7.86-8.52-15.5-17.22-22.95-26.09-2.26-2.7-4.59-6.66-2.42-9.46.88-1.13,2.29-1.7,3.68-2.17,5.15-1.76,13.64-3.61,19.14-4.75"/>
    <path class="cls-5" d="M551.16,591.06c22.16-5.72,44.6-10.37,66.98-15.06,5.41-1.13,10.78-2.39,16.22-3.39,7.29-1.35,13.11-.5,19.2,3.71,7.32,5.06,14.58,10.12,21.63,15.53,3.36,2.58,6.73,5.19,9.78,8.14,1.45,1.41,4.71,4.24,2.51,6.54-1.76,1.85-6.76,2.17-9.05,2.77-13.7,3.61-27.41,7.23-41.11,10.84-20.3,5.37-40.45,11.25-61.07,15.37-7.64,1.54-14.05,1.67-19.8-4.18-5.34-5.41-10.28-11.25-15.28-16.94-2.64-3.05-5.28-6.1-7.89-9.18-1.13-1.35-2.39-2.7-3.21-4.27-1.48-2.83.38-4.62,2.89-5.44,5.91-1.98,12.13-3.17,18.2-4.43,2.95-.63,1.7-5.15-1.26-4.56-6.1,1.26-12.26,2.51-18.2,4.43-5.25,1.7-8.71,5.25-6.38,11,1.13,2.73,3.21,4.97,5.09,7.2,2.77,3.27,5.56,6.51,8.39,9.71,5.03,5.75,9.96,11.91,15.59,17.1,9.15,8.46,21.18,4.59,32.03,2.26,10.84-2.33,22.32-5.63,33.44-8.58,16.19-4.27,32.41-8.55,48.59-12.82l11.22-2.95c3.21-.85,6.82-1.38,9.74-3.02,4.97-2.73,4.27-7.86,1.07-11.82-5.72-7.07-14.33-12.35-21.56-17.7-4.24-3.14-8.64-6.07-12.98-9.05-5.5-3.8-11.28-5.66-18.01-4.93-7.07.75-14.11,2.67-21.06,4.12-7.67,1.6-15.37,3.24-23.04,4.87-14.71,3.17-29.39,6.41-43.97,10.18-2.92.75-1.7,5.31,1.26,4.56h.03Z"/>
  </g>
  <g id="tastatur">
    <g id="tastatur_farve" data-name="tastatur farve">
      <path class="cls-2" d="M347.9,532.88c36.74-7.13,83.86-16.94,120.6-24.08,36.9-4.59,89.36-16.69,123.59-21.69,12.04-1.63,31.53-4.71,43.41-7.89,11.88-3.17,23.79-6.69,36.05-7.07,12.26-.38,25.21,2.8,34.01,11.35,1.98,2.8,16.28,17.73,19.11,19.64,6.98,4.75,15.31,8.27,19.86,15.37.91,1.41,1.67,3.14,1.23,4.78-.63,2.42-3.43,3.43-5.85,4.09-10,2.7-19.96,5.41-29.95,8.11-51.14,9.81-125.22,26.37-176.33,36.18-47.56,8.74-94.89,18.83-141.88,30.24-8.61,2.07-24.23,2.83-31.43-1.67-4.34-2.73-7.76-6.63-11.13-10.5-7.48-8.58-14.93-17.16-22.41-25.74-3.27-3.77-6.6-7.61-8.83-12.07-.94-1.95-1.7-4.12-1.26-6.22.79-3.68,4.71-5.59,8.2-7.01,3.27-1.32,18.39-4.97,23.01-5.78"/>
      <path class="cls-5" d="M348.52,535.14c30.96-6,61.83-12.38,92.75-18.58,28.82-5.75,57.93-9.93,86.81-15.46,14.49-2.77,28.95-5.63,43.47-8.24,12.82-2.29,25.74-4.02,38.6-6.13,7.01-1.16,14.02-2.42,20.93-4.02,7.92-1.82,15.68-4.27,23.64-5.97,15.21-3.27,32.72-4.05,45.92,5.63,3.39,2.51,5.97,6,8.83,9.08,3.46,3.68,6.98,7.36,10.66,10.81s7.95,5.72,12.16,8.36c3.05,1.92,6,3.99,8.42,6.69,1.48,1.67,4.05,4.46,1.6,6.6-1.38,1.19-4.34,1.51-6.03,1.95-8.74,2.36-17.41,4.97-26.21,7.1-6.44,1.57-13.08,2.61-19.61,3.9-14.3,2.86-28.6,5.85-42.9,8.83-29.58,6.19-59.09,12.51-88.7,18.51-32.56,6.6-65.28,12.45-97.78,19.39-17.6,3.77-35.17,7.7-52.71,11.82-13.55,3.17-28.13,8.17-42.15,4.59-7.1-1.82-11.79-7.89-16.41-13.2-5.94-6.82-11.88-13.64-17.82-20.49-3.65-4.21-17.16-16.53-11.69-22.44,3.27-3.55,9.87-4.49,14.33-5.63s9.21-2.33,13.89-3.17c2.99-.53,1.73-5.09-1.26-4.56-5.28.97-10.53,2.29-15.72,3.65-4.75,1.23-10,2.45-13.83,5.72-5.56,4.75-3.21,11.35.25,16.66,4.87,7.48,11.47,14.02,17.32,20.71s11.66,14.4,18.36,20.62c4.68,4.37,9.59,6.66,15.94,7.48,15.4,1.98,30.52-3.21,45.32-6.63,67.96-15.84,136.67-28.04,204.93-42.4,15.97-3.36,31.93-6.73,47.9-10.03,14.49-2.99,29.26-5.28,43.6-8.8,9.27-2.26,18.48-5,27.69-7.51,5.63-1.54,11.57-4.81,8.17-11.6-3.14-6.32-9.87-10.25-15.68-13.77-4.37-2.64-7.76-5.31-11.38-8.9-7.76-7.76-14.21-17.07-24.55-21.62-14.77-6.51-31.21-4.62-46.49-.94s-30.58,7.51-46.3,9.96c-13.83,2.14-27.66,4.24-41.46,6.79-30.96,5.75-61.76,11.72-92.88,16.47-15.84,2.42-31.59,6.19-47.27,9.37-16.91,3.39-33.79,6.85-50.7,10.22-7.76,1.54-15.5,3.08-23.26,4.59-2.99.57-1.73,5.12,1.26,4.56h0l.03.03Z"/>
    </g>
    <path class="cls-5" d="M345.63,536.33c11.63,14.24,22.25,29.26,33.88,43.5,1.92,2.36,5.25-1.01,3.33-3.33-11.63-14.24-22.25-29.26-33.88-43.5-1.92-2.36-5.25,1.01-3.33,3.33h0Z"/>
    <path class="cls-5" d="M381.24,528.82c16.09,21.56,33.57,42.02,49.66,63.62,1.79,2.39,5.88.06,4.09-2.39-16.09-21.56-33.57-42.02-49.66-63.62-1.79-2.39-5.88-.06-4.09,2.39h0Z"/>
    <path class="cls-5" d="M414.91,522c15.59,21.12,31.02,42.37,46.58,63.49,1.79,2.42,5.88.06,4.09-2.39-15.59-21.12-31.02-42.37-46.58-63.49-1.79-2.42-5.88-.06-4.09,2.39h0Z"/>
    <path class="cls-5" d="M448.63,515.72c10.91,13.58,21.31,27.66,31.18,42.02,1.7,2.48,5.78.13,4.09-2.39-10.09-14.71-20.74-29.07-31.9-43-1.89-2.36-5.22.97-3.33,3.33h0l-.03.03Z"/>
    <path class="cls-5" d="M480.57,509.81c5,6.63,10.22,13.11,15.12,19.8,5.59,7.64,11,15.46,17.19,22.63,1.98,2.29,5.31-1.04,3.33-3.33-6.1-7.04-11.35-14.71-16.85-22.22-4.78-6.54-9.84-12.82-14.71-19.27-1.79-2.39-5.91-.03-4.09,2.39h0Z"/>
    <path class="cls-5" d="M515.36,503.83c10.78,13.52,20.4,27.97,31.68,41.11,1.98,2.29,5.31-1.04,3.33-3.33-11.28-13.14-20.87-27.6-31.68-41.11-1.89-2.36-5.22.97-3.33,3.33h0Z"/>
    <path class="cls-5" d="M550.41,497.67c11.35,13.26,22.54,26.65,33.35,40.33,1.89,2.39,5.19-.97,3.33-3.33-10.81-13.67-22-27.09-33.35-40.33-1.98-2.29-5.31,1.04-3.33,3.33h0Z"/>
    <path class="cls-5" d="M584.86,489.91c18.2,20.08,34.98,41.43,53.18,61.51,2.04,2.26,5.37-1.1,3.33-3.33-18.2-20.08-34.98-41.43-53.18-61.51-2.04-2.26-5.37,1.1-3.33,3.33h0Z"/>
    <path class="cls-5" d="M621.6,485.13c9.65,10.88,19.49,21.59,29.17,32.44,8.24,9.24,16.34,18.95,26.4,26.25,2.45,1.79,4.81-2.29,2.39-4.09-10-7.23-18.01-17.13-26.15-26.28-9.46-10.59-19.02-21.06-28.45-31.65-2.01-2.26-5.34,1.07-3.33,3.33h-.03Z"/>
    <path class="cls-5" d="M654.95,477.31c10.78,10.47,21.66,20.81,32.37,31.31,9.05,8.86,17.73,18.1,26.81,26.97,2.17,2.11,5.5-1.23,3.33-3.33-9.08-8.83-17.76-18.07-26.81-26.97-10.72-10.53-21.63-20.84-32.37-31.31-2.17-2.11-5.5,1.23-3.33,3.33h0Z"/>
    <path class="cls-5" d="M709.33,488.84c-99.7,16.22-198.96,35.08-297.88,55.54-27.63,5.72-55.19,11.57-82.76,17.51-2.95.63-1.7,5.19,1.26,4.56,98.73-21.34,197.8-41.27,297.25-58.87,27.75-4.93,55.57-9.65,83.39-14.18,2.99-.47,1.73-5.03-1.26-4.56h0Z"/>
    <path class="cls-5" d="M349.62,589.36c49.35-12.64,99.26-23.04,149.27-32.75,50.29-9.74,100.74-18.8,151.06-28.51,28.1-5.44,56.2-11.1,84.17-17.22,2.95-.66,1.7-5.19-1.26-4.56-49.79,10.91-99.89,20.3-149.99,29.64-50.35,9.4-100.74,18.7-150.87,29.36-28.01,5.97-55.89,12.35-83.64,19.46-2.92.75-1.7,5.31,1.26,4.56h0v.03Z"/>
  </g>
  <path id="kamera" class="cls-5" d="M465.26,188.45s-.09-.06-.13-.09c-.13-.06-.25-.09-.35-.16s-.22-.09-.35-.16c-.06,0-.09,0-.16-.03-.25-.06-.53-.09-.79-.09h-.16c-.25,0-.53.06-.79.09-.28.06-.57.22-.85.31-.19.09-.35.22-.5.35-.13.09-.25.19-.35.28-.09.09-.19.25-.28.35s-.19.22-.25.35c0,0,0,.06-.03.09-.09.19-.19.41-.25.63,0,.06-.03.09-.03.16,0,.13-.03.25-.06.38,0,.13-.03.28-.06.41v.16c0,.22.06.47.09.69v.09c0,.06.03.13.06.16.09.22.19.47.31.69,0,.06.06.09.09.16.16.19.28.41.47.6.03.03.09.09.13.13.19.16.38.31.6.47.03,0,.09.06.16.06.19.09.41.19.63.25h.09c.25.06.5.09.75.13s.53,0,.79-.09h.06c.19-.06.41-.16.6-.25.03,0,.09-.03.13-.06.16-.13.41-.28.57-.44,0,0,0-.03.03-.06.13-.16.28-.35.41-.53.13-.22.22-.47.31-.69,0-.06.03-.09.06-.16.06-.28.13-.63.09-.94,0-.22-.06-.47-.09-.69v-.09c-.03-.13-.09-.25-.13-.35s-.09-.22-.16-.35c0,0,0-.03-.03-.06h0c-.13-.16-.25-.35-.38-.5,0,0-.03-.03-.06-.06-.16-.16-.35-.28-.53-.41-.28-.16-.57-.25-.88-.28-.31-.06-.63-.06-.94.03-.31.06-.57.22-.82.41-.25.16-.47.38-.6.66l-.25.57c-.13.41-.13.85,0,1.26l.25.57c.22.35.5.63.85.85h0c-.16-.09-.31-.22-.47-.35.03.03.06.06.13.09l-.38-.47s.06.09.09.16l-.25-.57s.03.13.06.19l-.09-.63v.22l.09-.63s-.03.16-.06.25l.25-.57s-.06.13-.09.16l.38-.47s-.06.09-.13.13l.47-.38s-.09.06-.16.09l.57-.25s-.09,0-.13.03l.63-.09h-.13l.63.09s-.19-.03-.25-.06l.57.25s-.19-.09-.25-.16l.47.38s-.16-.16-.22-.22l.38.47s-.13-.19-.19-.31l.25.57s-.06-.22-.09-.31l.09.63v-.28l-.09.63s.03-.19.06-.25l-.25.57s.06-.16.13-.22l-.38.47s.13-.16.22-.22l-.47.38s.19-.13.28-.16l-.57.25s.22-.06.35-.09l-.63.09h.35l-.63-.09s.19.03.28.06l-.57-.25s.13.06.19.13c.28.16.57.25.88.28.31.06.63.06.94-.03.31-.06.57-.22.82-.41.25-.16.47-.38.6-.66l.25-.57c.13-.41.13-.85,0-1.26l-.25-.57c-.22-.35-.5-.63-.85-.85h0l-.13.06Z"/>
  <path class="cls-7" d="M277.73,387.05c19.48-1.61,39.07-1.23,58.57-.16,19.49,1.07,38.92,2.81,58.41,3.88,17.43.95,34.9,1.33,52.32.18,16.36-1.08,32.71-3.41,48.45-7.78,15.58-4.32,30.59-10.65,43.89-19.44,12.25-8.1,25.2-20.72,24.78-35.77-.39-13.83-13.09-23.82-27.06-25.78-16.21-2.29-31.71,5.83-43.23,15.77-11.68,10.1-20.57,22.89-25.97,36.85-2.73,7.04-4.53,14.39-5.37,21.84-.84,7.45-.97,15.88,2.25,23.12,5.44,12.25,19.07,17.57,32.33,19.26,7.17.91,14.38.89,21.59.56,9.29-.43,18.55-1.24,27.78-2.36,18.25-2.23,36.3-5.7,54.11-10.06,17.8-4.36,35.74-9.73,53.27-15.57,17.51-5.83,34.81-12.17,52.03-18.7,15.97-6.05,31.89-12.21,47.71-18.57,15.44-6.21,30.78-12.65,45.91-19.49,15.13-6.84,29.83-13.97,44.28-21.74,14.42-7.73,28.5-16.04,42.03-25.07,13.41-8.95,26.29-18.6,38.39-29.06,5.91-5.12,11.64-10.42,17.16-15.92,1.38-1.37-.83-3.43-2.21-2.06-11.07,11.01-22.98,21.26-35.54,30.76-12.57,9.51-25.87,18.32-39.56,26.48-13.69,8.17-27.81,15.72-42.2,22.8-14.46,7.12-29.19,13.77-44.07,20.11-14.89,6.34-29.93,12.39-45.03,18.28-16.28,6.35-32.61,12.62-49.04,18.61-16.93,6.18-33.99,12.05-51.27,17.3-17.2,5.21-34.61,9.81-52.28,13.42-17.7,3.61-35.64,6.23-53.71,7.46-14.07.96-29.15,1.76-42.51-3.3-5.8-2.2-11.06-5.75-14.38-10.77-4.34-6.56-4.77-14.52-4.24-22.01,1.01-14.56,6.05-28.84,14.21-41.27,8.12-12.37,19.69-23.8,33.89-30.08,6.84-3.03,14.58-4.74,22.16-3.88,6.65.75,13.22,3.45,18.07,7.79,5.11,4.57,7.78,10.86,7.32,17.46-.49,7.04-4.37,13.62-9.07,18.98-5.08,5.8-11.33,10.46-18.01,14.55-6.68,4.09-13.69,7.56-20.98,10.52-14.62,5.92-30.25,9.61-45.99,11.81-15.98,2.24-32.2,2.91-48.35,2.7-18.67-.24-37.29-1.67-55.9-3.02-18.61-1.34-38.19-2.69-57.35-2.68-9.21,0-18.43.33-27.61,1.1-3.08.28-3.33,3.22,0,2.92l.02.02Z"/>
</svg>