<?xml version="1.0" encoding="UTF-8"?>
<svg id="Layer_1" data-name="Layer 1" xmlns="http://www.w3.org/2000/svg" viewBox="0 0 1055.39 816.11">
  <defs>
    <style>
      .cls-1 {
        fill: #f8efdc;
      }

      .cls-2 {
        fill: #e5ce9e;
      }
    </style>
  </defs>
  <g>
    <path class="cls-1" d="M372.82,61.46h658.15c12.88,0,23.42,8.8,23.42,19.55v714.56c0,10.75-10.54,19.55-23.42,19.55H24.42c-12.88,0-23.42-8.8-23.42-19.55V81.01c0-10.31,9.7-18.83,21.87-19.5"/>
    <path class="cls-2" d="M1030.97,816.11H24.42c-13.47,0-24.42-9.22-24.42-20.55V81.01c0-10.79,10.02-19.79,22.81-20.5l.11,2c-11.73.65-20.92,8.78-20.92,18.5v714.56c0,10.23,10.06,18.55,22.42,18.55h1006.55c12.36,0,22.42-8.32,22.42-18.55V81.01c0-10.23-10.06-18.55-22.42-18.55H372.82v-2h658.15c13.47,0,24.42,9.22,24.42,20.55v714.56c0,11.33-10.96,20.55-24.42,20.55Z"/>
  </g>
  <g>
    <path class="cls-1" d="M373.74,61.46c-19.56-.45-31.44-16.72-41.56-40.29-10.12-23.57-49.25-19.95-49.25-19.95,0,0-146.05,1.36-173.71.91,0,0-34.4-3.4-46.55,19.72-11.78,22.42-14.51,38.45-40.07,39.7"/>
    <path class="cls-2" d="M22.65,62.55l-.1-2c20.71-1.01,25.98-11.95,33.95-28.52,1.63-3.39,3.32-6.9,5.29-10.65C74.1-2.05,108.97,1.11,109.32,1.14c27.25.44,172.14-.9,173.6-.92,1.55-.15,39.89-3.41,50.17,20.55,11.78,27.43,23.94,39.29,40.67,39.68l-.05,2c-22.16-.51-33.9-20.96-42.46-40.89-9.71-22.62-47.85-19.38-48.23-19.35-1.54.02-146.46,1.37-173.82.92-.42-.04-33.96-3.06-45.65,19.18-1.95,3.71-3.63,7.21-5.26,10.58-7.98,16.59-13.75,28.58-35.65,29.65Z"/>
  </g>
</svg>